<svg width="190" height="25" viewBox="0 0 190 25" fill="none" xmlns="http://www.w3.org/2000/svg">
<path d="M85.1636 0.694336L64.5624 23.6943H52.1636L72.7643 0.694336H85.1636Z" fill="#EE0000" style="fill:#EE0000;fill:color(display-p3 0.9333 0.0000 0.0000);fill-opacity:1;"/>
<path d="M171.694 24.0878V1.53638H177.708V19.1265H189.164V24.0878H171.694Z" fill="black" style="fill:black;fill-opacity:1;"/>
<path d="M151.374 24.0878V1.53638H157.388V19.1265H168.844V24.0878H151.374Z" fill="black" style="fill:black;fill-opacity:1;"/>
<path d="M143.025 24.088L141.251 19.3673H130.697L128.893 24.088H122.819L130.306 5.89655C130.878 4.48333 131.599 3.34072 132.441 2.46873C133.283 1.62681 134.486 1.17578 135.989 1.17578C137.553 1.17578 138.756 1.62681 139.658 2.46873C140.56 3.31065 141.281 4.45326 141.853 5.83641L149.28 24.088H143.025ZM135.478 6.97902L132.501 14.7066H139.477L136.561 6.97902C136.501 6.85874 136.41 6.73847 136.35 6.61819C136.29 6.49792 136.17 6.43778 136.019 6.43778C135.869 6.43778 135.749 6.49792 135.689 6.58813C135.598 6.7084 135.538 6.82868 135.478 6.97902Z" fill="black" style="fill:black;fill-opacity:1;"/>
<path d="M94.8665 1.5366L97.4524 18.7058C97.4524 18.9162 97.5125 19.0967 97.6328 19.2169C97.723 19.3673 97.8734 19.4274 98.0838 19.4274C98.2642 19.4274 98.3845 19.3673 98.4747 19.247C98.5649 19.1267 98.6251 18.9463 98.6551 18.7659L100.58 7.36991C100.88 5.50566 101.542 4.0323 102.534 2.88969C103.526 1.74708 104.97 1.17578 106.894 1.17578C108.818 1.17578 110.201 1.74708 111.073 2.88969C111.945 4.0323 112.547 5.53573 112.878 7.33984L114.802 18.7358C114.832 18.9764 114.892 19.1267 115.012 19.247C115.103 19.3673 115.223 19.4274 115.403 19.4274C115.644 19.4274 115.824 19.3673 115.915 19.2169C116.005 19.0967 116.065 18.9162 116.095 18.6757L118.621 1.5366H124.634L121.507 18.9764C121.177 20.7504 120.545 22.1035 119.613 23.0056C118.681 23.9377 117.358 24.3887 115.644 24.3887C113.72 24.3887 112.216 23.8776 111.164 22.8552C110.081 21.8329 109.42 20.4497 109.149 18.7058L107.195 6.85874C107.165 6.67833 107.104 6.55806 107.044 6.43778C106.954 6.34758 106.834 6.28744 106.683 6.28744C106.503 6.28744 106.383 6.34758 106.323 6.43778C106.232 6.55806 106.172 6.67833 106.172 6.85874L104.158 18.7659C103.857 20.5099 103.226 21.893 102.263 22.8853C101.301 23.9076 99.918 24.3887 98.1139 24.3887C96.1895 24.3887 94.7162 23.8475 93.754 22.765C92.7918 21.6826 92.1603 20.2693 91.8596 18.5855L88.8528 1.5366H94.8665Z" fill="black" style="fill:black;fill-opacity:1;"/>
<path d="M40.9882 24.0878V6.49769H32.4187V1.53638H55.5715V6.49769H47.002V24.0878H40.9882Z" fill="black" style="fill:black;fill-opacity:1;"/>
<path d="M23.5535 24.0878V1.53638H29.5672V24.0878H23.5535Z" fill="black" style="fill:black;fill-opacity:1;"/>
<path d="M20.3865 7.91092V10.136C20.3865 12.6016 19.6348 14.2855 18.1614 15.1875C16.658 16.1196 14.3728 16.5707 11.2757 16.5707H6.01372V24.0878H0V1.53638H11.2757C14.3728 1.53638 16.658 2.04754 18.1614 3.00974C19.6348 4.002 20.3865 5.62571 20.3865 7.91092ZM14.3728 9.95558V8.18153C14.3728 7.48996 14.1322 6.94872 13.7113 6.55783C13.2903 6.16694 12.5386 5.95646 11.4561 5.95646H6.01372V12.1506H11.4561C12.5386 12.1506 13.2903 11.9702 13.7113 11.5793C14.1322 11.1884 14.3728 10.6472 14.3728 9.95558Z" fill="black" style="fill:black;fill-opacity:1;"/>
</svg>
