<svg width="190" height="24" viewBox="0 0 190 24" fill="none" xmlns="http://www.w3.org/2000/svg">
<path d="M85.1636 0L64.5624 23H52.1636L72.7643 0H85.1636Z" fill="#EE0000" style="fill:#EE0000;fill:color(display-p3 0.9333 0.0000 0.0000);fill-opacity:1;"/>
<path d="M171.694 23.3935V0.842041H177.708V18.4322H189.164V23.3935H171.694Z" fill="white" style="fill:white;fill-opacity:1;"/>
<path d="M151.374 23.3935V0.842041H157.388V18.4322H168.844V23.3935H151.374Z" fill="white" style="fill:white;fill-opacity:1;"/>
<path d="M143.025 23.3937L141.251 18.6729H130.697L128.893 23.3937H122.819L130.306 5.20221C130.878 3.78899 131.599 2.64638 132.441 1.77439C133.283 0.932474 134.486 0.481445 135.989 0.481445C137.553 0.481445 138.756 0.932474 139.658 1.77439C140.56 2.61631 141.281 3.75892 141.853 5.14207L149.28 23.3937H143.025ZM135.478 6.28468L132.501 14.0123H139.477L136.561 6.28468C136.501 6.16441 136.41 6.04413 136.35 5.92386C136.29 5.80358 136.17 5.74345 136.019 5.74345C135.869 5.74345 135.749 5.80358 135.689 5.89379C135.598 6.01406 135.538 6.13434 135.478 6.28468Z" fill="white" style="fill:white;fill-opacity:1;"/>
<path d="M94.8665 0.842267L97.4524 18.0114C97.4524 18.2219 97.5125 18.4023 97.6328 18.5226C97.723 18.6729 97.8734 18.7331 98.0838 18.7331C98.2642 18.7331 98.3845 18.6729 98.4747 18.5527C98.5649 18.4324 98.6251 18.252 98.6551 18.0716L100.58 6.67557C100.88 4.81132 101.542 3.33796 102.534 2.19535C103.526 1.05275 104.97 0.481445 106.894 0.481445C108.818 0.481445 110.201 1.05275 111.073 2.19535C111.945 3.33796 112.547 4.84139 112.878 6.6455L114.802 18.0415C114.832 18.282 114.892 18.4324 115.012 18.5527C115.103 18.6729 115.223 18.7331 115.403 18.7331C115.644 18.7331 115.824 18.6729 115.915 18.5226C116.005 18.4023 116.065 18.2219 116.095 17.9814L118.621 0.842267H124.634L121.507 18.282C121.177 20.0561 120.545 21.4092 119.613 22.3112C118.681 23.2434 117.358 23.6944 115.644 23.6944C113.72 23.6944 112.216 23.1832 111.164 22.1609C110.081 21.1386 109.42 19.7554 109.149 18.0114L107.195 6.16441C107.165 5.98399 107.104 5.86372 107.044 5.74345C106.954 5.65324 106.834 5.5931 106.683 5.5931C106.503 5.5931 106.383 5.65324 106.323 5.74345C106.232 5.86372 106.172 5.98399 106.172 6.16441L104.158 18.0716C103.857 19.8155 103.226 21.1987 102.263 22.191C101.301 23.2133 99.918 23.6944 98.1139 23.6944C96.1895 23.6944 94.7162 23.1532 93.754 22.0707C92.7918 20.9882 92.1603 19.575 91.8596 17.8912L88.8528 0.842267H94.8665Z" fill="white" style="fill:white;fill-opacity:1;"/>
<path d="M40.9882 23.3935V5.80336H32.4187V0.842041H55.5715V5.80336H47.002V23.3935H40.9882Z" fill="white" style="fill:white;fill-opacity:1;"/>
<path d="M23.5535 23.3935V0.842041H29.5672V23.3935H23.5535Z" fill="white" style="fill:white;fill-opacity:1;"/>
<path d="M20.3865 7.21658V9.44166C20.3865 11.9073 19.6348 13.5911 18.1614 14.4932C16.658 15.4253 14.3728 15.8763 11.2757 15.8763H6.01372V23.3935H0V0.842041H11.2757C14.3728 0.842041 16.658 1.35321 18.1614 2.3154C19.6348 3.30767 20.3865 4.93137 20.3865 7.21658ZM14.3728 9.26124V7.4872C14.3728 6.79562 14.1322 6.25439 13.7113 5.8635C13.2903 5.4726 12.5386 5.26212 11.4561 5.26212H6.01372V11.4563H11.4561C12.5386 11.4563 13.2903 11.2758 13.7113 10.8849C14.1322 10.4941 14.3728 9.95282 14.3728 9.26124Z" fill="white" style="fill:white;fill-opacity:1;"/>
</svg>
