<svg id="minimap-svg" width="100%" height="100%" viewBox="0 0 700 445" xmlns="http://www.w3.org/2000/svg"><path d="M 258,110 C 259.2,112.8 260.5,115.5 261.9,118.2 C 261.9,118.2 263.3,121.0 266.2,126.7 C 266.2,126.7 269.0,132.3 272.0,138.2 C 272.0,138.2 275.0,144.0 278.0,150.2 C 278.0,150.2 281.0,156.3 284.2,162.7 C 284.2,162.7 287.3,169.0 290.5,175.5 C 290.5,175.5 293.7,182.0 297.0,188.7 C 297.0,188.7 300.3,195.3 303.7,202.0 C 303.7,202.0 307.0,208.7 310.2,215.0 C 310.2,215.0 313.3,221.3 316.0,226.7 C 316.0,226.7 318.7,232.0 320.7,236.0 C 320.7,236.0 322.7,240.0 324.2,243.0 C 324.2,243.0 325.7,246.0 326.8,248.3 C 326.8,248.3 328.0,250.7 329.0,252.7 C 329.0,252.7 330.0,254.7 331.0,256.3 C 331.0,256.3 332.0,258.0 333.3,259.3 C 333.3,259.3 334.7,260.7 336.2,261.8 C 336.2,261.8 337.7,263.0 339.7,263.7 C 339.7,263.7 341.7,264.3 343.8,264.5 C 343.8,264.5 346.0,264.7 348.3,264.3 C 348.3,264.3 350.7,264.0 353.0,263.2 C 353.0,263.2 355.3,262.3 357.8,261.2 C 357.8,261.2 360.3,260.0 363.2,258.3 C 363.2,258.3 366.0,256.7 369.2,254.7 C 369.2,254.7 372.3,252.7 375.8,250.2 C 375.8,250.2 379.3,247.7 383.5,244.8 C 383.5,244.8 387.7,242.0 392.2,239.2 C 392.2,239.2 396.7,236.3 400.8,233.7 C 400.8,233.7 405.0,231.0 408.3,228.8 C 408.3,228.8 411.7,226.7 414.2,225.2 C 414.2,225.2 416.7,223.7 418.7,222.5 C 418.7,222.5 420.7,221.3 422.3,220.2 C 422.3,220.2 424.0,219.0 425.3,217.5 C 425.3,217.5 426.7,216.0 428.0,214.3 C 428.0,214.3 429.3,212.7 430.5,211.0 C 430.5,211.0 431.7,209.3 432.7,207.3 C 432.7,207.3 433.7,205.3 434.2,203.2 C 434.2,203.2 434.7,201.0 435.0,198.3 C 435.0,198.3 435.3,195.7 435.3,192.7 C 435.3,192.7 435.3,189.7 435.3,186.5 C 435.3,186.5 435.3,183.3 435.0,179.8 C 435.0,179.8 434.7,176.3 434.7,172.8 C 434.7,172.8 434.7,169.3 434.8,165.7 C 434.8,165.7 435.0,162.0 435.7,158.5 C 435.7,158.5 436.3,155.0 437.3,151.7 C 437.3,151.7 438.3,148.3 439.7,145.0 C 439.7,145.0 441.0,141.7 442.7,138.5 C 442.7,138.5 444.3,135.3 446.3,132.2 C 446.3,132.2 448.3,129.0 450.8,126.2 C 450.8,126.2 453.3,123.3 456.2,121.0 C 456.2,121.0 459.0,118.7 462.3,116.8 C 462.3,116.8 465.7,115.0 469.3,113.7 C 469.3,113.7 473.0,112.3 477.0,111.3 C 477.0,111.3 481.0,110.3 485.0,109.8 C 485.0,109.8 489.0,109.3 493.2,109.2 C 493.2,109.2 497.3,109.0 501.5,109.0 C 501.5,109.0 505.7,109.0 510.0,108.8 C 510.0,108.8 514.3,108.7 518.7,108.2 C 518.7,108.2 523.0,107.7 527.7,106.8 C 527.7,106.8 532.3,106.0 537.2,104.8 C 537.2,104.8 542.0,103.7 547.0,102.2 C 547.0,102.2 552.0,100.7 557.0,98.7 C 557.0,98.7 562.0,96.7 567.3,94.5 C 567.3,94.5 572.7,92.3 583.3,87.2 L 594,82" stroke="#374151" stroke-width="8" fill="none" vector-effect="non-scaling-stroke"/><path d="M 258,110 C 259.2,112.8 260.5,115.5 261.9,118.2 C 261.9,118.2 263.3,121.0 266.2,126.7 C 266.2,126.7 269.0,132.3 272.0,138.2 C 272.0,138.2 275.0,144.0 278.0,150.2 C 278.0,150.2 281.0,156.3 284.2,162.7 C 284.2,162.7 287.3,169.0 290.5,175.5 C 290.5,175.5 293.7,182.0 297.0,188.7 C 297.0,188.7 300.3,195.3 303.7,202.0 C 303.7,202.0 307.0,208.7 310.2,215.0 C 310.2,215.0 313.3,221.3 316.0,226.7 C 316.0,226.7 318.7,232.0 320.7,236.0 C 320.7,236.0 322.7,240.0 324.2,243.0 C 324.2,243.0 325.7,246.0 326.8,248.3 C 326.8,248.3 328.0,250.7 329.0,252.7 C 329.0,252.7 330.0,254.7 331.0,256.3 C 331.0,256.3 332.0,258.0 333.3,259.3 C 333.3,259.3 334.7,260.7 336.2,261.8 C 336.2,261.8 337.7,263.0 339.7,263.7 C 339.7,263.7 341.7,264.3 343.8,264.5 C 343.8,264.5 346.0,264.7 348.3,264.3 C 348.3,264.3 350.7,264.0 353.0,263.2 C 353.0,263.2 355.3,262.3 357.8,261.2 C 357.8,261.2 360.3,260.0 363.2,258.3 C 363.2,258.3 366.0,256.7 369.2,254.7 C 369.2,254.7 372.3,252.7 375.8,250.2 C 375.8,250.2 379.3,247.7 383.5,244.8 C 383.5,244.8 387.7,242.0 392.2,239.2 C 392.2,239.2 396.7,236.3 400.8,233.7 C 400.8,233.7 405.0,231.0 408.3,228.8 C 408.3,228.8 411.7,226.7 414.2,225.2 C 414.2,225.2 416.7,223.7 418.7,222.5 C 418.7,222.5 420.7,221.3 422.3,220.2 C 422.3,220.2 424.0,219.0 425.3,217.5 C 425.3,217.5 426.7,216.0 428.0,214.3 C 428.0,214.3 429.3,212.7 430.5,211.0 C 430.5,211.0 431.7,209.3 432.7,207.3 C 432.7,207.3 433.7,205.3 434.2,203.2 C 434.2,203.2 434.7,201.0 435.0,198.3 C 435.0,198.3 435.3,195.7 435.3,192.7 C 435.3,192.7 435.3,189.7 435.3,186.5 C 435.3,186.5 435.3,183.3 435.0,179.8 C 435.0,179.8 434.7,176.3 434.7,172.8 C 434.7,172.8 434.7,169.3 434.8,165.7 C 434.8,165.7 435.0,162.0 435.7,158.5 C 435.7,158.5 436.3,155.0 437.3,151.7 C 437.3,151.7 438.3,148.3 439.7,145.0 C 439.7,145.0 441.0,141.7 442.7,138.5 C 442.7,138.5 444.3,135.3 446.3,132.2 C 446.3,132.2 448.3,129.0 450.8,126.2 C 450.8,126.2 453.3,123.3 456.2,121.0 C 456.2,121.0 459.0,118.7 462.3,116.8 C 462.3,116.8 465.7,115.0 469.3,113.7 C 469.3,113.7 473.0,112.3 477.0,111.3 C 477.0,111.3 481.0,110.3 485.0,109.8 C 485.0,109.8 489.0,109.3 493.2,109.2 C 493.2,109.2 497.3,109.0 501.5,109.0 C 501.5,109.0 505.7,109.0 510.0,108.8 C 510.0,108.8 514.3,108.7 518.7,108.2 C 518.7,108.2 523.0,107.7 527.7,106.8 C 527.7,106.8 532.3,106.0 537.2,104.8 C 537.2,104.8 542.0,103.7 547.0,102.2 C 547.0,102.2 552.0,100.7 557.0,98.7 C 557.0,98.7 562.0,96.7 567.3,94.5 C 567.3,94.5 572.7,92.3 583.3,87.2 L 594,82" stroke="#EF4444" stroke-width="2" fill="none" vector-effect="non-scaling-stroke"/><path d="M 594,82 C 597.0,80.8 600.0,79.5 603.0,78.1 C 603.0,78.1 606.0,76.7 611.7,74.0 C 611.7,74.0 617.3,71.3 622.3,68.8 C 622.3,68.8 627.3,66.3 631.7,64.2 C 631.7,64.2 636.0,62.0 639.8,60.2 C 639.8,60.2 643.7,58.3 647.3,56.7 C 647.3,56.7 651.0,55.0 654.2,53.5 C 654.2,53.5 657.3,52.0 660.0,50.8 C 660.0,50.8 662.7,49.7 664.7,48.7 C 664.7,48.7 666.7,47.7 668.3,46.8 C 668.3,46.8 670.0,46.0 671.5,45.0 C 671.5,45.0 673.0,44.0 674.3,42.8 C 674.3,42.8 675.7,41.7 676.7,40.3 C 676.7,40.3 677.7,39.0 678.3,37.3 C 678.3,37.3 679.0,35.7 679.3,34.0 C 679.3,34.0 679.7,32.3 679.7,30.5 C 679.7,30.5 679.7,28.7 679.2,27.0 C 679.2,27.0 678.7,25.3 677.8,23.7 C 677.8,23.7 677.0,22.0 675.7,20.7 C 675.7,20.7 674.3,19.3 672.7,18.2 C 672.7,18.2 671.0,17.0 668.8,16.3 C 668.8,16.3 666.7,15.7 664.2,15.3 C 664.2,15.3 661.7,15.0 658.8,15.0 C 658.8,15.0 656.0,15.0 652.5,15.0 C 652.5,15.0 649.0,15.0 645.2,15.0 C 645.2,15.0 641.3,15.0 636.8,15.2 C 636.8,15.2 632.3,15.3 627.3,15.7 C 627.3,15.7 622.3,16.0 616.8,16.3 C 616.8,16.3 611.3,16.7 605.3,16.8 C 605.3,16.8 599.3,17.0 593.2,17.0 C 593.2,17.0 587.0,17.0 580.5,17.0 C 580.5,17.0 574.0,17.0 567.3,17.2 C 567.3,17.2 560.7,17.3 553.7,17.5 C 553.7,17.5 546.7,17.7 539.3,17.8 C 539.3,17.8 532.0,18.0 524.5,18.0 C 524.5,18.0 517.0,18.0 509.3,18.0 C 509.3,18.0 501.7,18.0 494.0,18.0 C 494.0,18.0 486.3,18.0 478.3,18.0 C 478.3,18.0 470.3,18.0 462.3,18.0 C 462.3,18.0 454.3,18.0 446.2,18.0 C 446.2,18.0 438.0,18.0 429.8,18.0 C 429.8,18.0 421.7,18.0 413.3,18.0 C 413.3,18.0 405.0,18.0 396.3,18.0 C 396.3,18.0 387.7,18.0 379.0,18.0 C 379.0,18.0 370.3,18.0 361.5,18.0 C 361.5,18.0 352.7,18.0 343.8,18.2 C 343.8,18.2 335.0,18.3 326.2,18.5 C 326.2,18.5 317.3,18.7 308.5,19.0 C 308.5,19.0 299.7,19.3 290.7,19.5 C 290.7,19.5 281.7,19.7 272.5,19.8 C 272.5,19.8 263.3,20.0 254.5,20.0 C 254.5,20.0 245.7,20.0 237.8,20.0 C 237.8,20.0 230.0,20.0 223.5,20.0 C 223.5,20.0 217.0,20.0 212.0,20.0 C 212.0,20.0 207.0,20.0 203.0,20.0 C 203.0,20.0 199.0,20.0 195.7,20.0 C 195.7,20.0 192.3,20.0 189.0,20.0 C 189.0,20.0 185.7,20.0 182.8,20.0 C 182.8,20.0 180.0,20.0 177.7,20.0 C 177.7,20.0 175.3,20.0 173.7,20.2 C 173.7,20.2 172.0,20.3 170.7,20.5 C 170.7,20.5 169.3,20.7 168.2,21.0 C 168.2,21.0 167.0,21.3 166.0,21.8 C 166.0,21.8 165.0,22.3 164.2,23.2 C 164.2,23.2 163.3,24.0 162.7,25.0 C 162.7,25.0 162.0,26.0 161.8,27.3 C 161.8,27.3 161.7,28.7 162.0,30.2 C 162.0,30.2 162.3,31.7 163.2,33.3 C 163.2,33.3 164.0,35.0 165.0,36.7 C 165.0,36.7 166.0,38.3 166.8,40.0 C 166.8,40.0 167.7,41.7 168.2,43.3 C 168.2,43.3 168.7,45.0 168.5,46.7 C 168.5,46.7 168.3,48.3 167.7,50.0 C 167.7,50.0 167.0,51.7 165.8,53.2 C 165.8,53.2 164.7,54.7 163.0,56.0 C 163.0,56.0 161.3,57.3 159.2,58.7 C 159.2,58.7 157.0,60.0 154.5,61.7 C 154.5,61.7 152.0,63.3 149.5,65.0 C 149.5,65.0 147.0,66.7 144.5,68.5 C 144.5,68.5 142.0,70.3 139.5,72.0 C 139.5,72.0 137.0,73.7 134.5,75.7 C 134.5,75.7 132.0,77.7 129.3,79.7 C 129.3,79.7 126.7,81.7 123.8,84.2 C 123.8,84.2 121.0,86.7 118.2,89.3 C 118.2,89.3 115.3,92.0 112.5,95.2 C 112.5,95.2 109.7,98.3 107.0,101.8 C 107.0,101.8 104.3,105.3 101.7,109.3 C 101.7,109.3 99.0,113.3 96.5,117.7 C 96.5,117.7 94.0,122.0 91.5,126.7 C 91.5,126.7 89.0,131.3 86.7,136.2 C 86.7,136.2 84.3,141.0 82.2,146.2 C 82.2,146.2 80.0,151.3 78.0,156.5 C 78.0,156.5 76.0,161.7 73.8,167.3 C 73.8,167.3 71.7,173.0 69.5,178.8 C 69.5,178.8 67.3,184.7 65.0,191.0 C 65.0,191.0 62.7,197.3 60.5,203.8 C 60.5,203.8 58.3,210.3 56.0,217.2 C 56.0,217.2 53.7,224.0 51.5,231.2 C 51.5,231.2 49.3,238.3 47.0,245.5 C 47.0,245.5 44.7,252.7 42.5,260.2 C 42.5,260.2 40.3,267.7 38.3,275.2 C 38.3,275.2 36.3,282.7 34.5,290.5 C 34.5,290.5 32.7,298.3 31.2,306.3 C 31.2,306.3 29.7,314.3 28.2,322.5 C 28.2,322.5 26.7,330.7 24.8,343.8 L 23,357" stroke="#374151" stroke-width="8" fill="none" vector-effect="non-scaling-stroke"/><path d="M 594,82 C 597.0,80.8 600.0,79.5 603.0,78.1 C 603.0,78.1 606.0,76.7 611.7,74.0 C 611.7,74.0 617.3,71.3 622.3,68.8 C 622.3,68.8 627.3,66.3 631.7,64.2 C 631.7,64.2 636.0,62.0 639.8,60.2 C 639.8,60.2 643.7,58.3 647.3,56.7 C 647.3,56.7 651.0,55.0 654.2,53.5 C 654.2,53.5 657.3,52.0 660.0,50.8 C 660.0,50.8 662.7,49.7 664.7,48.7 C 664.7,48.7 666.7,47.7 668.3,46.8 C 668.3,46.8 670.0,46.0 671.5,45.0 C 671.5,45.0 673.0,44.0 674.3,42.8 C 674.3,42.8 675.7,41.7 676.7,40.3 C 676.7,40.3 677.7,39.0 678.3,37.3 C 678.3,37.3 679.0,35.7 679.3,34.0 C 679.3,34.0 679.7,32.3 679.7,30.5 C 679.7,30.5 679.7,28.7 679.2,27.0 C 679.2,27.0 678.7,25.3 677.8,23.7 C 677.8,23.7 677.0,22.0 675.7,20.7 C 675.7,20.7 674.3,19.3 672.7,18.2 C 672.7,18.2 671.0,17.0 668.8,16.3 C 668.8,16.3 666.7,15.7 664.2,15.3 C 664.2,15.3 661.7,15.0 658.8,15.0 C 658.8,15.0 656.0,15.0 652.5,15.0 C 652.5,15.0 649.0,15.0 645.2,15.0 C 645.2,15.0 641.3,15.0 636.8,15.2 C 636.8,15.2 632.3,15.3 627.3,15.7 C 627.3,15.7 622.3,16.0 616.8,16.3 C 616.8,16.3 611.3,16.7 605.3,16.8 C 605.3,16.8 599.3,17.0 593.2,17.0 C 593.2,17.0 587.0,17.0 580.5,17.0 C 580.5,17.0 574.0,17.0 567.3,17.2 C 567.3,17.2 560.7,17.3 553.7,17.5 C 553.7,17.5 546.7,17.7 539.3,17.8 C 539.3,17.8 532.0,18.0 524.5,18.0 C 524.5,18.0 517.0,18.0 509.3,18.0 C 509.3,18.0 501.7,18.0 494.0,18.0 C 494.0,18.0 486.3,18.0 478.3,18.0 C 478.3,18.0 470.3,18.0 462.3,18.0 C 462.3,18.0 454.3,18.0 446.2,18.0 C 446.2,18.0 438.0,18.0 429.8,18.0 C 429.8,18.0 421.7,18.0 413.3,18.0 C 413.3,18.0 405.0,18.0 396.3,18.0 C 396.3,18.0 387.7,18.0 379.0,18.0 C 379.0,18.0 370.3,18.0 361.5,18.0 C 361.5,18.0 352.7,18.0 343.8,18.2 C 343.8,18.2 335.0,18.3 326.2,18.5 C 326.2,18.5 317.3,18.7 308.5,19.0 C 308.5,19.0 299.7,19.3 290.7,19.5 C 290.7,19.5 281.7,19.7 272.5,19.8 C 272.5,19.8 263.3,20.0 254.5,20.0 C 254.5,20.0 245.7,20.0 237.8,20.0 C 237.8,20.0 230.0,20.0 223.5,20.0 C 223.5,20.0 217.0,20.0 212.0,20.0 C 212.0,20.0 207.0,20.0 203.0,20.0 C 203.0,20.0 199.0,20.0 195.7,20.0 C 195.7,20.0 192.3,20.0 189.0,20.0 C 189.0,20.0 185.7,20.0 182.8,20.0 C 182.8,20.0 180.0,20.0 177.7,20.0 C 177.7,20.0 175.3,20.0 173.7,20.2 C 173.7,20.2 172.0,20.3 170.7,20.5 C 170.7,20.5 169.3,20.7 168.2,21.0 C 168.2,21.0 167.0,21.3 166.0,21.8 C 166.0,21.8 165.0,22.3 164.2,23.2 C 164.2,23.2 163.3,24.0 162.7,25.0 C 162.7,25.0 162.0,26.0 161.8,27.3 C 161.8,27.3 161.7,28.7 162.0,30.2 C 162.0,30.2 162.3,31.7 163.2,33.3 C 163.2,33.3 164.0,35.0 165.0,36.7 C 165.0,36.7 166.0,38.3 166.8,40.0 C 166.8,40.0 167.7,41.7 168.2,43.3 C 168.2,43.3 168.7,45.0 168.5,46.7 C 168.5,46.7 168.3,48.3 167.7,50.0 C 167.7,50.0 167.0,51.7 165.8,53.2 C 165.8,53.2 164.7,54.7 163.0,56.0 C 163.0,56.0 161.3,57.3 159.2,58.7 C 159.2,58.7 157.0,60.0 154.5,61.7 C 154.5,61.7 152.0,63.3 149.5,65.0 C 149.5,65.0 147.0,66.7 144.5,68.5 C 144.5,68.5 142.0,70.3 139.5,72.0 C 139.5,72.0 137.0,73.7 134.5,75.7 C 134.5,75.7 132.0,77.7 129.3,79.7 C 129.3,79.7 126.7,81.7 123.8,84.2 C 123.8,84.2 121.0,86.7 118.2,89.3 C 118.2,89.3 115.3,92.0 112.5,95.2 C 112.5,95.2 109.7,98.3 107.0,101.8 C 107.0,101.8 104.3,105.3 101.7,109.3 C 101.7,109.3 99.0,113.3 96.5,117.7 C 96.5,117.7 94.0,122.0 91.5,126.7 C 91.5,126.7 89.0,131.3 86.7,136.2 C 86.7,136.2 84.3,141.0 82.2,146.2 C 82.2,146.2 80.0,151.3 78.0,156.5 C 78.0,156.5 76.0,161.7 73.8,167.3 C 73.8,167.3 71.7,173.0 69.5,178.8 C 69.5,178.8 67.3,184.7 65.0,191.0 C 65.0,191.0 62.7,197.3 60.5,203.8 C 60.5,203.8 58.3,210.3 56.0,217.2 C 56.0,217.2 53.7,224.0 51.5,231.2 C 51.5,231.2 49.3,238.3 47.0,245.5 C 47.0,245.5 44.7,252.7 42.5,260.2 C 42.5,260.2 40.3,267.7 38.3,275.2 C 38.3,275.2 36.3,282.7 34.5,290.5 C 34.5,290.5 32.7,298.3 31.2,306.3 C 31.2,306.3 29.7,314.3 28.2,322.5 C 28.2,322.5 26.7,330.7 24.8,343.8 L 23,357" stroke="#3B82F6" stroke-width="2" fill="none" vector-effect="non-scaling-stroke"/><path d="M 23,357 C 22.8,360.8 22.5,364.5 22.2,367.8 C 22.2,367.8 22.0,371.0 21.7,377.0 C 21.7,377.0 21.3,383.0 21.2,387.7 C 21.2,387.7 21.0,392.3 20.8,395.8 C 20.8,395.8 20.7,399.3 20.7,402.2 C 20.7,402.2 20.7,405.0 20.8,407.3 C 20.8,407.3 21.0,409.7 21.8,411.8 C 21.8,411.8 22.7,414.0 23.8,415.8 C 23.8,415.8 25.0,417.7 26.5,419.3 C 26.5,419.3 28.0,421.0 29.8,422.5 C 29.8,422.5 31.7,424.0 33.8,425.3 C 33.8,425.3 36.0,426.7 38.5,427.7 C 38.5,427.7 41.0,428.7 43.7,429.2 C 43.7,429.2 46.3,429.7 49.3,429.8 C 49.3,429.8 52.3,430.0 55.5,429.5 C 55.5,429.5 58.7,429.0 61.7,428.0 C 61.7,428.0 64.7,427.0 67.5,425.3 C 67.5,425.3 70.3,423.7 72.7,421.7 C 72.7,421.7 75.0,419.7 77.2,417.2 C 77.2,417.2 79.3,414.7 80.8,411.7 C 80.8,411.7 82.3,408.7 83.3,405.2 C 83.3,405.2 84.3,401.7 84.7,398.0 C 84.7,398.0 85.0,394.3 84.7,390.7 C 84.7,390.7 84.3,387.0 83.8,383.2 C 83.8,383.2 83.3,379.3 82.3,375.2 C 82.3,375.2 81.3,371.0 80.2,366.3 C 80.2,366.3 79.0,361.7 77.5,356.7 C 77.5,356.7 76.0,351.7 74.5,346.2 C 74.5,346.2 73.0,340.7 71.5,334.7 C 71.5,334.7 70.0,328.7 68.7,322.5 C 68.7,322.5 67.3,316.3 66.3,310.5 C 66.3,310.5 65.3,304.7 65.0,299.7 C 65.0,299.7 64.7,294.7 64.8,290.5 C 64.8,290.5 65.0,286.3 65.7,282.3 C 65.7,282.3 66.3,278.3 67.2,274.5 C 67.2,274.5 68.0,270.7 69.2,266.7 C 69.2,266.7 70.3,262.7 71.3,259.3 C 71.3,259.3 72.3,256.0 73.3,253.2 C 73.3,253.2 74.3,250.3 75.2,248.2 C 75.2,248.2 76.0,246.0 77.2,244.0 C 77.2,244.0 78.3,242.0 79.7,240.2 C 79.7,240.2 81.0,238.3 82.7,236.5 C 82.7,236.5 84.3,234.7 86.3,233.0 C 86.3,233.0 88.3,231.3 90.8,229.5 C 90.8,229.5 93.3,227.7 96.3,225.8 C 96.3,225.8 99.3,224.0 102.5,222.0 C 102.5,222.0 105.7,220.0 108.7,218.3 C 108.7,218.3 111.7,216.7 114.2,215.3 C 114.2,215.3 116.7,214.0 118.8,213.3 C 118.8,213.3 121.0,212.7 122.8,212.5 C 122.8,212.5 124.7,212.3 126.3,213.0 C 126.3,213.0 128.0,213.7 129.5,214.8 C 129.5,214.8 131.0,216.0 132.5,217.8 C 132.5,217.8 134.0,219.7 135.3,221.8 C 135.3,221.8 136.7,224.0 138.0,226.8 C 138.0,226.8 139.3,229.7 140.7,232.3 C 140.7,232.3 142.0,235.0 143.5,237.5 C 143.5,237.5 145.0,240.0 146.5,241.8 C 146.5,241.8 148.0,243.7 149.7,245.2 C 149.7,245.2 151.3,246.7 153.3,247.7 C 153.3,247.7 155.3,248.7 157.7,249.3 C 157.7,249.3 160.0,250.0 162.3,250.2 C 162.3,250.2 164.7,250.3 167.2,250.0 C 167.2,250.0 169.7,249.7 172.3,248.8 C 172.3,248.8 175.0,248.0 177.8,247.0 C 177.8,247.0 180.7,246.0 183.2,245.2 C 183.2,245.2 185.7,244.3 187.8,243.5 C 187.8,243.5 190.0,242.7 191.8,241.7 C 191.8,241.7 193.7,240.7 195.0,239.2 C 195.0,239.2 196.3,237.7 197.3,235.8 C 197.3,235.8 198.3,234.0 198.8,231.8 C 198.8,231.8 199.3,229.7 199.7,227.3 C 199.7,227.3 200.0,225.0 199.8,222.5 C 199.8,222.5 199.7,220.0 199.2,217.3 C 199.2,217.3 198.7,214.7 197.5,211.7 C 197.5,211.7 196.3,208.7 194.8,205.3 C 194.8,205.3 193.3,202.0 191.5,198.3 C 191.5,198.3 189.7,194.7 187.7,190.7 C 187.7,190.7 185.7,186.7 183.3,182.2 C 183.3,182.2 181.0,177.7 178.3,172.7 C 178.3,172.7 175.7,167.7 173.0,162.3 C 173.0,162.3 170.3,157.0 167.8,152.0 C 167.8,152.0 165.3,147.0 163.5,142.5 C 163.5,142.5 161.7,138.0 160.3,134.0 C 160.3,134.0 159.0,130.0 158.5,126.0 C 158.5,126.0 158.0,122.0 158.2,118.2 C 158.2,118.2 158.3,114.3 159.5,111.0 C 159.5,111.0 160.7,107.7 162.5,104.7 C 162.5,104.7 164.3,101.7 166.8,98.7 C 166.8,98.7 169.3,95.7 172.3,92.3 C 172.3,92.3 175.3,89.0 178.7,85.5 C 178.7,85.5 182.0,82.0 185.3,78.5 C 185.3,78.5 188.7,75.0 191.7,71.8 C 191.7,71.8 194.7,68.7 197.0,66.2 C 197.0,66.2 199.3,63.7 201.2,62.0 C 201.2,62.0 203.0,60.3 204.3,59.3 C 204.3,59.3 205.7,58.3 206.8,57.7 C 206.8,57.7 208.0,57.0 209.2,56.5 C 209.2,56.5 210.3,56.0 211.5,55.3 C 211.5,55.3 212.7,54.7 214.2,54.0 C 214.2,54.0 215.7,53.3 217.3,52.7 C 217.3,52.7 219.0,52.0 221.0,51.8 C 221.0,51.8 223.0,51.7 224.7,52.0 C 224.7,52.0 226.3,52.3 227.7,53.3 C 227.7,53.3 229.0,54.3 230.2,56.0 C 230.2,56.0 231.3,57.7 232.5,59.8 C 232.5,59.8 233.7,62.0 235.2,64.7 C 235.2,64.7 236.7,67.3 238.2,70.5 C 238.2,70.5 239.7,73.7 241.7,77.3 C 241.7,77.3 243.7,81.0 245.7,85.3 C 245.7,85.3 247.7,89.7 250.2,94.3 C 250.2,94.3 252.7,99.0 255.3,104.5 L 258,110" stroke="#374151" stroke-width="8" fill="none" vector-effect="non-scaling-stroke"/><path d="M 23,357 C 22.8,360.8 22.5,364.5 22.2,367.8 C 22.2,367.8 22.0,371.0 21.7,377.0 C 21.7,377.0 21.3,383.0 21.2,387.7 C 21.2,387.7 21.0,392.3 20.8,395.8 C 20.8,395.8 20.7,399.3 20.7,402.2 C 20.7,402.2 20.7,405.0 20.8,407.3 C 20.8,407.3 21.0,409.7 21.8,411.8 C 21.8,411.8 22.7,414.0 23.8,415.8 C 23.8,415.8 25.0,417.7 26.5,419.3 C 26.5,419.3 28.0,421.0 29.8,422.5 C 29.8,422.5 31.7,424.0 33.8,425.3 C 33.8,425.3 36.0,426.7 38.5,427.7 C 38.5,427.7 41.0,428.7 43.7,429.2 C 43.7,429.2 46.3,429.7 49.3,429.8 C 49.3,429.8 52.3,430.0 55.5,429.5 C 55.5,429.5 58.7,429.0 61.7,428.0 C 61.7,428.0 64.7,427.0 67.5,425.3 C 67.5,425.3 70.3,423.7 72.7,421.7 C 72.7,421.7 75.0,419.7 77.2,417.2 C 77.2,417.2 79.3,414.7 80.8,411.7 C 80.8,411.7 82.3,408.7 83.3,405.2 C 83.3,405.2 84.3,401.7 84.7,398.0 C 84.7,398.0 85.0,394.3 84.7,390.7 C 84.7,390.7 84.3,387.0 83.8,383.2 C 83.8,383.2 83.3,379.3 82.3,375.2 C 82.3,375.2 81.3,371.0 80.2,366.3 C 80.2,366.3 79.0,361.7 77.5,356.7 C 77.5,356.7 76.0,351.7 74.5,346.2 C 74.5,346.2 73.0,340.7 71.5,334.7 C 71.5,334.7 70.0,328.7 68.7,322.5 C 68.7,322.5 67.3,316.3 66.3,310.5 C 66.3,310.5 65.3,304.7 65.0,299.7 C 65.0,299.7 64.7,294.7 64.8,290.5 C 64.8,290.5 65.0,286.3 65.7,282.3 C 65.7,282.3 66.3,278.3 67.2,274.5 C 67.2,274.5 68.0,270.7 69.2,266.7 C 69.2,266.7 70.3,262.7 71.3,259.3 C 71.3,259.3 72.3,256.0 73.3,253.2 C 73.3,253.2 74.3,250.3 75.2,248.2 C 75.2,248.2 76.0,246.0 77.2,244.0 C 77.2,244.0 78.3,242.0 79.7,240.2 C 79.7,240.2 81.0,238.3 82.7,236.5 C 82.7,236.5 84.3,234.7 86.3,233.0 C 86.3,233.0 88.3,231.3 90.8,229.5 C 90.8,229.5 93.3,227.7 96.3,225.8 C 96.3,225.8 99.3,224.0 102.5,222.0 C 102.5,222.0 105.7,220.0 108.7,218.3 C 108.7,218.3 111.7,216.7 114.2,215.3 C 114.2,215.3 116.7,214.0 118.8,213.3 C 118.8,213.3 121.0,212.7 122.8,212.5 C 122.8,212.5 124.7,212.3 126.3,213.0 C 126.3,213.0 128.0,213.7 129.5,214.8 C 129.5,214.8 131.0,216.0 132.5,217.8 C 132.5,217.8 134.0,219.7 135.3,221.8 C 135.3,221.8 136.7,224.0 138.0,226.8 C 138.0,226.8 139.3,229.7 140.7,232.3 C 140.7,232.3 142.0,235.0 143.5,237.5 C 143.5,237.5 145.0,240.0 146.5,241.8 C 146.5,241.8 148.0,243.7 149.7,245.2 C 149.7,245.2 151.3,246.7 153.3,247.7 C 153.3,247.7 155.3,248.7 157.7,249.3 C 157.7,249.3 160.0,250.0 162.3,250.2 C 162.3,250.2 164.7,250.3 167.2,250.0 C 167.2,250.0 169.7,249.7 172.3,248.8 C 172.3,248.8 175.0,248.0 177.8,247.0 C 177.8,247.0 180.7,246.0 183.2,245.2 C 183.2,245.2 185.7,244.3 187.8,243.5 C 187.8,243.5 190.0,242.7 191.8,241.7 C 191.8,241.7 193.7,240.7 195.0,239.2 C 195.0,239.2 196.3,237.7 197.3,235.8 C 197.3,235.8 198.3,234.0 198.8,231.8 C 198.8,231.8 199.3,229.7 199.7,227.3 C 199.7,227.3 200.0,225.0 199.8,222.5 C 199.8,222.5 199.7,220.0 199.2,217.3 C 199.2,217.3 198.7,214.7 197.5,211.7 C 197.5,211.7 196.3,208.7 194.8,205.3 C 194.8,205.3 193.3,202.0 191.5,198.3 C 191.5,198.3 189.7,194.7 187.7,190.7 C 187.7,190.7 185.7,186.7 183.3,182.2 C 183.3,182.2 181.0,177.7 178.3,172.7 C 178.3,172.7 175.7,167.7 173.0,162.3 C 173.0,162.3 170.3,157.0 167.8,152.0 C 167.8,152.0 165.3,147.0 163.5,142.5 C 163.5,142.5 161.7,138.0 160.3,134.0 C 160.3,134.0 159.0,130.0 158.5,126.0 C 158.5,126.0 158.0,122.0 158.2,118.2 C 158.2,118.2 158.3,114.3 159.5,111.0 C 159.5,111.0 160.7,107.7 162.5,104.7 C 162.5,104.7 164.3,101.7 166.8,98.7 C 166.8,98.7 169.3,95.7 172.3,92.3 C 172.3,92.3 175.3,89.0 178.7,85.5 C 178.7,85.5 182.0,82.0 185.3,78.5 C 185.3,78.5 188.7,75.0 191.7,71.8 C 191.7,71.8 194.7,68.7 197.0,66.2 C 197.0,66.2 199.3,63.7 201.2,62.0 C 201.2,62.0 203.0,60.3 204.3,59.3 C 204.3,59.3 205.7,58.3 206.8,57.7 C 206.8,57.7 208.0,57.0 209.2,56.5 C 209.2,56.5 210.3,56.0 211.5,55.3 C 211.5,55.3 212.7,54.7 214.2,54.0 C 214.2,54.0 215.7,53.3 217.3,52.7 C 217.3,52.7 219.0,52.0 221.0,51.8 C 221.0,51.8 223.0,51.7 224.7,52.0 C 224.7,52.0 226.3,52.3 227.7,53.3 C 227.7,53.3 229.0,54.3 230.2,56.0 C 230.2,56.0 231.3,57.7 232.5,59.8 C 232.5,59.8 233.7,62.0 235.2,64.7 C 235.2,64.7 236.7,67.3 238.2,70.5 C 238.2,70.5 239.7,73.7 241.7,77.3 C 241.7,77.3 243.7,81.0 245.7,85.3 C 245.7,85.3 247.7,89.7 250.2,94.3 C 250.2,94.3 252.7,99.0 255.3,104.5 L 258,110" stroke="#FBBF24" stroke-width="2" fill="none" vector-effect="non-scaling-stroke"/>
    <g id="moving-circle-group">
        <circle cx="258" cy="110" r="20" fill="#000000" vector-effect="non-scaling-stroke"/>
        <circle cx="258" cy="110" r="7" fill="#FFFFFF" vector-effect="non-scaling-stroke"/>
    </g></svg>