<svg id="minimap-svg" width="100%" height="100%" viewBox="0 0 593 700" xmlns="http://www.w3.org/2000/svg"><path d="M 254,522 C 251.5,519.8 249.0,517.5 246.5,515.2 C 246.5,515.2 244.0,513.0 239.0,508.3 C 239.0,508.3 234.0,503.7 229.0,498.8 C 229.0,498.8 224.0,494.0 219.0,489.0 C 219.0,489.0 214.0,484.0 208.8,479.0 C 208.8,479.0 203.7,474.0 198.5,469.0 C 198.5,469.0 193.3,464.0 188.3,459.2 C 188.3,459.2 183.3,454.3 179.0,450.0 C 179.0,450.0 174.7,445.7 171.2,442.2 C 171.2,442.2 167.7,438.7 165.0,436.0 C 165.0,436.0 162.3,433.3 160.5,431.5 C 160.5,431.5 158.7,429.7 157.3,428.3 C 157.3,428.3 156.0,427.0 155.2,425.8 C 155.2,425.8 154.3,424.7 153.8,423.3 C 153.8,423.3 153.3,422.0 153.2,420.7 C 153.2,420.7 153.0,419.3 153.2,418.0 C 153.2,418.0 153.3,416.7 153.8,415.3 C 153.8,415.3 154.3,414.0 155.0,412.3 C 155.0,412.3 155.7,410.7 156.7,407.0 C 156.7,407.0 157.7,403.3 158.3,399.2 C 158.3,399.2 159.0,395.0 159.2,390.5 C 159.2,390.5 159.3,386.0 158.7,383.0 C 158.7,383.0 158.0,380.0 156.8,377.0 C 156.8,377.0 155.7,374.0 154.0,371.0 C 154.0,371.0 152.3,368.0 150.0,365.0 C 150.0,365.0 147.7,362.0 144.8,359.2 C 144.8,359.2 142.0,356.3 139.0,353.7 C 139.0,353.7 136.0,351.0 132.8,348.3 C 132.8,348.3 129.7,345.7 126.5,342.8 C 126.5,342.8 123.3,340.0 120.0,336.8 C 120.0,336.8 116.7,333.7 113.3,330.5 C 113.3,330.5 110.0,327.3 106.5,324.0 C 106.5,324.0 103.0,320.7 99.5,317.2 C 99.5,317.2 96.0,313.7 92.5,309.8 C 92.5,309.8 89.0,306.0 85.7,302.0 C 85.7,302.0 82.3,298.0 79.0,293.8 C 79.0,293.8 75.7,289.7 72.3,285.3 C 72.3,285.3 69.0,281.0 65.7,276.5 C 65.7,276.5 62.3,272.0 59.0,267.5 C 59.0,267.5 55.7,263.0 52.5,258.3 C 52.5,258.3 49.3,253.7 46.2,249.0 C 46.2,249.0 43.0,244.3 40.3,239.8 C 40.3,239.8 37.7,235.3 35.5,231.7 C 35.5,231.7 33.3,228.0 31.7,225.0 C 31.7,225.0 30.0,222.0 28.7,219.8 C 28.7,219.8 27.3,217.7 26.3,215.8 C 26.3,215.8 25.3,214.0 24.5,212.7 C 24.5,212.7 23.7,211.3 23.0,210.2 C 23.0,210.2 22.3,209.0 21.7,208.0 C 21.7,208.0 21.0,207.0 20.7,205.8 C 20.7,205.8 20.3,204.7 20.2,203.5 C 20.2,203.5 20.0,202.3 20.2,201.2 C 20.2,201.2 20.3,200.0 20.7,199.2 C 20.7,199.2 21.0,198.3 21.7,197.5 C 21.7,197.5 22.3,196.7 23.3,196.0 C 23.3,196.0 24.3,195.3 25.8,194.7 C 25.8,194.7 27.3,194.0 29.3,193.7 C 29.3,193.7 31.3,193.3 33.5,192.8 C 33.5,192.8 35.7,192.3 38.0,192.0 C 38.0,192.0 40.3,191.7 42.7,191.2 C 42.7,191.2 45.0,190.7 47.3,190.3 C 47.3,190.3 49.7,190.0 51.8,189.5 C 51.8,189.5 54.0,189.0 56.0,188.5 C 56.0,188.5 58.0,188.0 60.0,187.3 C 60.0,187.3 62.0,186.7 63.8,185.7 C 63.8,185.7 65.7,184.7 67.3,183.3 C 67.3,183.3 69.0,182.0 70.2,180.3 C 70.2,180.3 71.3,178.7 71.8,177.0 C 71.8,177.0 72.3,175.3 72.3,173.5 C 72.3,173.5 72.3,171.7 72.2,169.7 C 72.2,169.7 72.0,167.7 72.0,165.5 C 72.0,165.5 72.0,163.3 71.8,161.0 C 71.8,161.0 71.7,158.7 71.5,156.2 C 71.5,156.2 71.3,153.7 71.0,151.0 C 71.0,151.0 70.7,148.3 70.5,145.3 C 70.5,145.3 70.3,142.3 70.2,139.0 C 70.2,139.0 70.0,135.7 69.8,131.8 C 69.8,131.8 69.7,128.0 69.5,124.3 C 69.5,124.3 69.3,120.7 69.2,117.5 C 69.2,117.5 69.0,114.3 69.0,112.0 C 69.0,112.0 69.0,109.7 69.2,108.0 C 69.2,108.0 69.3,106.3 69.7,105.0 C 69.7,105.0 70.0,103.7 70.5,102.3 C 70.5,102.3 71.0,101.0 71.7,99.5 C 71.7,99.5 72.3,98.0 73.2,96.7 C 73.2,96.7 74.0,95.3 75.2,94.0 C 75.2,94.0 76.3,92.7 77.8,91.3 C 77.8,91.3 79.3,90.0 81.2,88.5 C 81.2,88.5 83.0,87.0 84.8,85.7 C 84.8,85.7 86.7,84.3 88.5,83.0 C 88.5,83.0 90.3,81.7 92.2,80.3 C 92.2,80.3 94.0,79.0 96.2,77.5 C 96.2,77.5 98.3,76.0 100.5,74.5 C 100.5,74.5 102.7,73.0 105.0,71.3 C 105.0,71.3 107.3,69.7 109.7,68.0 C 109.7,68.0 112.0,66.3 114.5,64.7 C 114.5,64.7 117.0,63.0 119.7,61.5 C 119.7,61.5 122.3,60.0 125.2,58.5 C 125.2,58.5 128.0,57.0 131.2,55.5 C 131.2,55.5 134.3,54.0 137.5,52.7 C 137.5,52.7 140.7,51.3 143.8,50.0 C 143.8,50.0 147.0,48.7 153.5,45.8 L 160,43" stroke="#374151" stroke-width="8" fill="none" vector-effect="non-scaling-stroke"/><path d="M 254,522 C 251.5,519.8 249.0,517.5 246.5,515.2 C 246.5,515.2 244.0,513.0 239.0,508.3 C 239.0,508.3 234.0,503.7 229.0,498.8 C 229.0,498.8 224.0,494.0 219.0,489.0 C 219.0,489.0 214.0,484.0 208.8,479.0 C 208.8,479.0 203.7,474.0 198.5,469.0 C 198.5,469.0 193.3,464.0 188.3,459.2 C 188.3,459.2 183.3,454.3 179.0,450.0 C 179.0,450.0 174.7,445.7 171.2,442.2 C 171.2,442.2 167.7,438.7 165.0,436.0 C 165.0,436.0 162.3,433.3 160.5,431.5 C 160.5,431.5 158.7,429.7 157.3,428.3 C 157.3,428.3 156.0,427.0 155.2,425.8 C 155.2,425.8 154.3,424.7 153.8,423.3 C 153.8,423.3 153.3,422.0 153.2,420.7 C 153.2,420.7 153.0,419.3 153.2,418.0 C 153.2,418.0 153.3,416.7 153.8,415.3 C 153.8,415.3 154.3,414.0 155.0,412.3 C 155.0,412.3 155.7,410.7 156.7,407.0 C 156.7,407.0 157.7,403.3 158.3,399.2 C 158.3,399.2 159.0,395.0 159.2,390.5 C 159.2,390.5 159.3,386.0 158.7,383.0 C 158.7,383.0 158.0,380.0 156.8,377.0 C 156.8,377.0 155.7,374.0 154.0,371.0 C 154.0,371.0 152.3,368.0 150.0,365.0 C 150.0,365.0 147.7,362.0 144.8,359.2 C 144.8,359.2 142.0,356.3 139.0,353.7 C 139.0,353.7 136.0,351.0 132.8,348.3 C 132.8,348.3 129.7,345.7 126.5,342.8 C 126.5,342.8 123.3,340.0 120.0,336.8 C 120.0,336.8 116.7,333.7 113.3,330.5 C 113.3,330.5 110.0,327.3 106.5,324.0 C 106.5,324.0 103.0,320.7 99.5,317.2 C 99.5,317.2 96.0,313.7 92.5,309.8 C 92.5,309.8 89.0,306.0 85.7,302.0 C 85.7,302.0 82.3,298.0 79.0,293.8 C 79.0,293.8 75.7,289.7 72.3,285.3 C 72.3,285.3 69.0,281.0 65.7,276.5 C 65.7,276.5 62.3,272.0 59.0,267.5 C 59.0,267.5 55.7,263.0 52.5,258.3 C 52.5,258.3 49.3,253.7 46.2,249.0 C 46.2,249.0 43.0,244.3 40.3,239.8 C 40.3,239.8 37.7,235.3 35.5,231.7 C 35.5,231.7 33.3,228.0 31.7,225.0 C 31.7,225.0 30.0,222.0 28.7,219.8 C 28.7,219.8 27.3,217.7 26.3,215.8 C 26.3,215.8 25.3,214.0 24.5,212.7 C 24.5,212.7 23.7,211.3 23.0,210.2 C 23.0,210.2 22.3,209.0 21.7,208.0 C 21.7,208.0 21.0,207.0 20.7,205.8 C 20.7,205.8 20.3,204.7 20.2,203.5 C 20.2,203.5 20.0,202.3 20.2,201.2 C 20.2,201.2 20.3,200.0 20.7,199.2 C 20.7,199.2 21.0,198.3 21.7,197.5 C 21.7,197.5 22.3,196.7 23.3,196.0 C 23.3,196.0 24.3,195.3 25.8,194.7 C 25.8,194.7 27.3,194.0 29.3,193.7 C 29.3,193.7 31.3,193.3 33.5,192.8 C 33.5,192.8 35.7,192.3 38.0,192.0 C 38.0,192.0 40.3,191.7 42.7,191.2 C 42.7,191.2 45.0,190.7 47.3,190.3 C 47.3,190.3 49.7,190.0 51.8,189.5 C 51.8,189.5 54.0,189.0 56.0,188.5 C 56.0,188.5 58.0,188.0 60.0,187.3 C 60.0,187.3 62.0,186.7 63.8,185.7 C 63.8,185.7 65.7,184.7 67.3,183.3 C 67.3,183.3 69.0,182.0 70.2,180.3 C 70.2,180.3 71.3,178.7 71.8,177.0 C 71.8,177.0 72.3,175.3 72.3,173.5 C 72.3,173.5 72.3,171.7 72.2,169.7 C 72.2,169.7 72.0,167.7 72.0,165.5 C 72.0,165.5 72.0,163.3 71.8,161.0 C 71.8,161.0 71.7,158.7 71.5,156.2 C 71.5,156.2 71.3,153.7 71.0,151.0 C 71.0,151.0 70.7,148.3 70.5,145.3 C 70.5,145.3 70.3,142.3 70.2,139.0 C 70.2,139.0 70.0,135.7 69.8,131.8 C 69.8,131.8 69.7,128.0 69.5,124.3 C 69.5,124.3 69.3,120.7 69.2,117.5 C 69.2,117.5 69.0,114.3 69.0,112.0 C 69.0,112.0 69.0,109.7 69.2,108.0 C 69.2,108.0 69.3,106.3 69.7,105.0 C 69.7,105.0 70.0,103.7 70.5,102.3 C 70.5,102.3 71.0,101.0 71.7,99.5 C 71.7,99.5 72.3,98.0 73.2,96.7 C 73.2,96.7 74.0,95.3 75.2,94.0 C 75.2,94.0 76.3,92.7 77.8,91.3 C 77.8,91.3 79.3,90.0 81.2,88.5 C 81.2,88.5 83.0,87.0 84.8,85.7 C 84.8,85.7 86.7,84.3 88.5,83.0 C 88.5,83.0 90.3,81.7 92.2,80.3 C 92.2,80.3 94.0,79.0 96.2,77.5 C 96.2,77.5 98.3,76.0 100.5,74.5 C 100.5,74.5 102.7,73.0 105.0,71.3 C 105.0,71.3 107.3,69.7 109.7,68.0 C 109.7,68.0 112.0,66.3 114.5,64.7 C 114.5,64.7 117.0,63.0 119.7,61.5 C 119.7,61.5 122.3,60.0 125.2,58.5 C 125.2,58.5 128.0,57.0 131.2,55.5 C 131.2,55.5 134.3,54.0 137.5,52.7 C 137.5,52.7 140.7,51.3 143.8,50.0 C 143.8,50.0 147.0,48.7 153.5,45.8 L 160,43" stroke="#EF4444" stroke-width="2" fill="none" vector-effect="non-scaling-stroke"/><path d="M 160,43 C 161.8,42.5 163.5,42.0 164.9,41.5 C 164.9,41.5 166.3,41.0 169.2,40.0 C 169.2,40.0 172.0,39.0 174.3,37.8 C 174.3,37.8 176.7,36.7 178.8,35.5 C 178.8,35.5 181.0,34.3 183.0,33.2 C 183.0,33.2 185.0,32.0 186.8,31.0 C 186.8,31.0 188.7,30.0 190.2,29.0 C 190.2,29.0 191.7,28.0 193.0,27.0 C 193.0,27.0 194.3,26.0 195.7,25.2 C 195.7,25.2 197.0,24.3 198.5,23.7 C 198.5,23.7 200.0,23.0 201.5,22.7 C 201.5,22.7 203.0,22.3 204.7,22.5 C 204.7,22.5 206.3,22.7 208.0,23.2 C 208.0,23.2 209.7,23.7 211.3,24.7 C 211.3,24.7 213.0,25.7 214.7,26.8 C 214.7,26.8 216.3,28.0 218.2,29.3 C 218.2,29.3 220.0,30.7 222.0,32.0 C 222.0,32.0 224.0,33.3 226.2,34.5 C 226.2,34.5 228.3,35.7 230.5,36.7 C 230.5,36.7 232.7,37.7 235.5,38.5 C 235.5,38.5 238.3,39.3 241.2,39.8 C 241.2,39.8 244.0,40.3 247.2,40.7 C 247.2,40.7 250.3,41.0 253.0,41.2 C 253.0,41.2 255.7,41.3 258.5,41.5 C 258.5,41.5 261.3,41.7 264.2,42.0 C 264.2,42.0 267.0,42.3 270.0,42.8 C 270.0,42.8 273.0,43.3 276.0,44.3 C 276.0,44.3 279.0,45.3 282.0,46.7 C 282.0,46.7 285.0,48.0 288.0,49.7 C 288.0,49.7 291.0,51.3 294.0,53.3 C 294.0,53.3 297.0,55.3 300.0,57.8 C 300.0,57.8 303.0,60.3 305.8,63.2 C 305.8,63.2 308.7,66.0 311.2,69.2 C 311.2,69.2 313.7,72.3 315.8,75.8 C 315.8,75.8 318.0,79.3 319.8,83.2 C 319.8,83.2 321.7,87.0 323.2,91.2 C 323.2,91.2 324.7,95.3 325.8,99.7 C 325.8,99.7 327.0,104.0 327.8,108.3 C 327.8,108.3 328.7,112.7 329.5,117.0 C 329.5,117.0 330.3,121.3 331.2,125.5 C 331.2,125.5 332.0,129.7 332.8,133.7 C 332.8,133.7 333.7,137.7 334.3,141.2 C 334.3,141.2 335.0,144.7 335.3,148.0 C 335.3,148.0 335.7,151.3 335.8,154.7 C 335.8,154.7 336.0,158.0 336.0,161.5 C 336.0,161.5 336.0,165.0 335.8,168.7 C 335.8,168.7 335.7,172.3 335.2,176.0 C 335.2,176.0 334.7,179.7 333.7,183.5 C 333.7,183.5 332.7,187.3 330.8,192.7 C 330.8,192.7 329.0,198.0 327.0,203.5 C 327.0,203.5 325.0,209.0 323.0,214.5 C 323.0,214.5 321.0,220.0 319.5,224.2 C 319.5,224.2 318.0,228.3 316.5,232.5 C 316.5,232.5 315.0,236.7 313.5,240.8 C 313.5,240.8 312.0,245.0 310.5,249.2 C 310.5,249.2 309.0,253.3 307.7,257.5 C 307.7,257.5 306.3,261.7 305.3,266.0 C 305.3,266.0 304.3,270.3 303.7,274.7 C 303.7,274.7 303.0,279.0 302.7,283.5 C 302.7,283.5 302.3,288.0 302.2,292.5 C 302.2,292.5 302.0,297.0 302.2,301.5 C 302.2,301.5 302.3,306.0 302.8,310.3 C 302.8,310.3 303.3,314.7 304.0,319.0 C 304.0,319.0 304.7,323.3 305.7,327.7 C 305.7,327.7 306.7,332.0 307.8,336.2 C 307.8,336.2 309.0,340.3 310.7,344.5 C 310.7,344.5 312.3,348.7 314.2,352.7 C 314.2,352.7 316.0,356.7 318.0,360.7 C 318.0,360.7 320.0,364.7 322.3,368.5 C 322.3,368.5 324.7,372.3 327.2,375.8 C 327.2,375.8 329.7,379.3 332.7,382.8 C 332.7,382.8 335.7,386.3 338.7,389.5 C 338.7,389.5 341.7,392.7 345.0,395.8 C 345.0,395.8 348.3,399.0 352.2,402.5 L 356,406" stroke="#374151" stroke-width="8" fill="none" vector-effect="non-scaling-stroke"/><path d="M 160,43 C 161.8,42.5 163.5,42.0 164.9,41.5 C 164.9,41.5 166.3,41.0 169.2,40.0 C 169.2,40.0 172.0,39.0 174.3,37.8 C 174.3,37.8 176.7,36.7 178.8,35.5 C 178.8,35.5 181.0,34.3 183.0,33.2 C 183.0,33.2 185.0,32.0 186.8,31.0 C 186.8,31.0 188.7,30.0 190.2,29.0 C 190.2,29.0 191.7,28.0 193.0,27.0 C 193.0,27.0 194.3,26.0 195.7,25.2 C 195.7,25.2 197.0,24.3 198.5,23.7 C 198.5,23.7 200.0,23.0 201.5,22.7 C 201.5,22.7 203.0,22.3 204.7,22.5 C 204.7,22.5 206.3,22.7 208.0,23.2 C 208.0,23.2 209.7,23.7 211.3,24.7 C 211.3,24.7 213.0,25.7 214.7,26.8 C 214.7,26.8 216.3,28.0 218.2,29.3 C 218.2,29.3 220.0,30.7 222.0,32.0 C 222.0,32.0 224.0,33.3 226.2,34.5 C 226.2,34.5 228.3,35.7 230.5,36.7 C 230.5,36.7 232.7,37.7 235.5,38.5 C 235.5,38.5 238.3,39.3 241.2,39.8 C 241.2,39.8 244.0,40.3 247.2,40.7 C 247.2,40.7 250.3,41.0 253.0,41.2 C 253.0,41.2 255.7,41.3 258.5,41.5 C 258.5,41.5 261.3,41.7 264.2,42.0 C 264.2,42.0 267.0,42.3 270.0,42.8 C 270.0,42.8 273.0,43.3 276.0,44.3 C 276.0,44.3 279.0,45.3 282.0,46.7 C 282.0,46.7 285.0,48.0 288.0,49.7 C 288.0,49.7 291.0,51.3 294.0,53.3 C 294.0,53.3 297.0,55.3 300.0,57.8 C 300.0,57.8 303.0,60.3 305.8,63.2 C 305.8,63.2 308.7,66.0 311.2,69.2 C 311.2,69.2 313.7,72.3 315.8,75.8 C 315.8,75.8 318.0,79.3 319.8,83.2 C 319.8,83.2 321.7,87.0 323.2,91.2 C 323.2,91.2 324.7,95.3 325.8,99.7 C 325.8,99.7 327.0,104.0 327.8,108.3 C 327.8,108.3 328.7,112.7 329.5,117.0 C 329.5,117.0 330.3,121.3 331.2,125.5 C 331.2,125.5 332.0,129.7 332.8,133.7 C 332.8,133.7 333.7,137.7 334.3,141.2 C 334.3,141.2 335.0,144.7 335.3,148.0 C 335.3,148.0 335.7,151.3 335.8,154.7 C 335.8,154.7 336.0,158.0 336.0,161.5 C 336.0,161.5 336.0,165.0 335.8,168.7 C 335.8,168.7 335.7,172.3 335.2,176.0 C 335.2,176.0 334.7,179.7 333.7,183.5 C 333.7,183.5 332.7,187.3 330.8,192.7 C 330.8,192.7 329.0,198.0 327.0,203.5 C 327.0,203.5 325.0,209.0 323.0,214.5 C 323.0,214.5 321.0,220.0 319.5,224.2 C 319.5,224.2 318.0,228.3 316.5,232.5 C 316.5,232.5 315.0,236.7 313.5,240.8 C 313.5,240.8 312.0,245.0 310.5,249.2 C 310.5,249.2 309.0,253.3 307.7,257.5 C 307.7,257.5 306.3,261.7 305.3,266.0 C 305.3,266.0 304.3,270.3 303.7,274.7 C 303.7,274.7 303.0,279.0 302.7,283.5 C 302.7,283.5 302.3,288.0 302.2,292.5 C 302.2,292.5 302.0,297.0 302.2,301.5 C 302.2,301.5 302.3,306.0 302.8,310.3 C 302.8,310.3 303.3,314.7 304.0,319.0 C 304.0,319.0 304.7,323.3 305.7,327.7 C 305.7,327.7 306.7,332.0 307.8,336.2 C 307.8,336.2 309.0,340.3 310.7,344.5 C 310.7,344.5 312.3,348.7 314.2,352.7 C 314.2,352.7 316.0,356.7 318.0,360.7 C 318.0,360.7 320.0,364.7 322.3,368.5 C 322.3,368.5 324.7,372.3 327.2,375.8 C 327.2,375.8 329.7,379.3 332.7,382.8 C 332.7,382.8 335.7,386.3 338.7,389.5 C 338.7,389.5 341.7,392.7 345.0,395.8 C 345.0,395.8 348.3,399.0 352.2,402.5 L 356,406" stroke="#3B82F6" stroke-width="2" fill="none" vector-effect="non-scaling-stroke"/><path d="M 356,406 C 357.8,407.2 359.5,408.5 361.2,409.9 C 361.2,409.9 363.0,411.3 366.3,414.0 C 366.3,414.0 369.7,416.7 372.7,419.3 C 372.7,419.3 375.7,422.0 378.2,424.2 C 378.2,424.2 380.7,426.3 382.7,428.0 C 382.7,428.0 384.7,429.7 386.3,430.8 C 386.3,430.8 388.0,432.0 389.5,433.0 C 389.5,433.0 391.0,434.0 392.5,435.0 C 392.5,435.0 394.0,436.0 395.7,436.8 C 395.7,436.8 397.3,437.7 399.2,438.2 C 399.2,438.2 401.0,438.7 403.0,438.7 C 403.0,438.7 405.0,438.7 407.0,438.3 C 407.0,438.3 409.0,438.0 411.2,437.5 C 411.2,437.5 413.3,437.0 415.5,436.7 C 415.5,436.7 417.7,436.3 420.0,436.0 C 420.0,436.0 422.3,435.7 424.7,435.3 C 424.7,435.3 427.0,435.0 429.2,434.7 C 429.2,434.7 431.3,434.3 433.3,434.0 C 433.3,434.0 435.3,433.7 437.0,433.7 C 437.0,433.7 438.7,433.7 440.3,433.8 C 440.3,433.8 442.0,434.0 443.5,434.7 C 443.5,434.7 445.0,435.3 446.5,436.2 C 446.5,436.2 448.0,437.0 449.5,438.0 C 449.5,438.0 451.0,439.0 452.5,440.2 C 452.5,440.2 454.0,441.3 455.7,442.7 C 455.7,442.7 457.3,444.0 459.3,445.7 C 459.3,445.7 461.3,447.3 463.5,449.2 C 463.5,449.2 465.7,451.0 468.0,453.0 C 468.0,453.0 470.3,455.0 472.7,457.0 C 472.7,457.0 475.0,459.0 477.7,461.2 C 477.7,461.2 480.3,463.3 483.0,465.5 C 483.0,465.5 485.7,467.7 488.5,470.2 C 488.5,470.2 491.3,472.7 494.2,475.2 C 494.2,475.2 497.0,477.7 500.0,480.3 C 500.0,480.3 503.0,483.0 506.0,485.5 C 506.0,485.5 509.0,488.0 511.8,490.5 C 511.8,490.5 514.7,493.0 517.2,495.5 C 517.2,495.5 519.7,498.0 522.0,500.5 C 522.0,500.5 524.3,503.0 526.3,505.7 C 526.3,505.7 528.3,508.3 530.3,511.3 C 530.3,511.3 532.3,514.3 534.0,517.5 C 534.0,517.5 535.7,520.7 537.2,524.0 C 537.2,524.0 538.7,527.3 540.0,530.8 C 540.0,530.8 541.3,534.3 542.7,538.0 C 542.7,538.0 544.0,541.7 545.2,545.5 C 545.2,545.5 546.3,549.3 547.5,553.2 C 547.5,553.2 548.7,557.0 549.7,561.0 C 549.7,561.0 550.7,565.0 552.0,569.0 C 552.0,569.0 553.3,573.0 554.5,577.0 C 554.5,577.0 555.7,581.0 556.8,585.0 C 556.8,585.0 558.0,589.0 559.2,593.0 C 559.2,593.0 560.3,597.0 561.5,601.2 C 561.5,601.2 562.7,605.3 563.8,609.5 C 563.8,609.5 565.0,613.7 566.0,617.7 C 566.0,617.7 567.0,621.7 568.0,625.2 C 568.0,625.2 569.0,628.7 569.7,631.7 C 569.7,631.7 570.3,634.7 570.8,637.0 C 570.8,637.0 571.3,639.3 571.7,641.2 C 571.7,641.2 572.0,643.0 572.3,644.3 C 572.3,644.3 572.7,645.7 572.8,646.7 C 572.8,646.7 573.0,647.7 573.0,648.5 C 573.0,648.5 573.0,649.3 572.8,650.0 C 572.8,650.0 572.7,650.7 572.5,651.5 C 572.5,651.5 572.3,652.3 572.0,652.8 C 572.0,652.8 571.7,653.3 571.2,653.8 C 571.2,653.8 570.7,654.3 569.8,654.7 C 569.8,654.7 569.0,655.0 568.0,655.3 C 568.0,655.3 567.0,655.7 566.0,656.0 C 566.0,656.0 565.0,656.3 563.8,656.5 C 563.8,656.5 562.7,656.7 561.2,657.0 C 561.2,657.0 559.7,657.3 557.7,657.7 C 557.7,657.7 555.7,658.0 553.5,658.7 C 553.5,658.7 551.3,659.3 548.8,660.0 C 548.8,660.0 546.3,660.7 543.7,661.5 C 543.7,661.5 541.0,662.3 538.0,663.0 C 538.0,663.0 535.0,663.7 532.0,664.5 C 532.0,664.5 529.0,665.3 525.8,666.2 C 525.8,666.2 522.7,667.0 519.5,668.0 C 519.5,668.0 516.3,669.0 513.2,670.0 C 513.2,670.0 510.0,671.0 507.2,672.0 C 507.2,672.0 504.3,673.0 501.8,673.8 C 501.8,673.8 499.3,674.7 497.3,675.3 C 497.3,675.3 495.3,676.0 493.7,676.5 C 493.7,676.5 492.0,677.0 490.3,677.3 C 490.3,677.3 488.7,677.7 486.8,677.7 C 486.8,677.7 485.0,677.7 483.0,677.3 C 483.0,677.3 481.0,677.0 479.0,676.2 C 479.0,676.2 477.0,675.3 475.2,674.2 C 475.2,674.2 473.3,673.0 471.5,671.5 C 471.5,671.5 469.7,670.0 468.2,668.3 C 468.2,668.3 466.7,666.7 465.2,664.7 C 465.2,664.7 463.7,662.7 462.3,660.3 C 462.3,660.3 461.0,658.0 459.5,655.5 C 459.5,655.5 458.0,653.0 456.5,650.5 C 456.5,650.5 455.0,648.0 453.5,645.3 C 453.5,645.3 452.0,642.7 450.5,640.0 C 450.5,640.0 449.0,637.3 447.5,634.5 C 447.5,634.5 446.0,631.7 444.5,629.0 C 444.5,629.0 443.0,626.3 441.7,623.8 C 441.7,623.8 440.3,621.3 439.2,619.3 C 439.2,619.3 438.0,617.3 437.0,615.7 C 437.0,615.7 436.0,614.0 435.0,612.7 C 435.0,612.7 434.0,611.3 433.0,610.2 C 433.0,610.2 432.0,609.0 430.8,608.0 C 430.8,608.0 429.7,607.0 428.5,606.0 C 428.5,606.0 427.3,605.0 426.3,604.3 C 426.3,604.3 425.3,603.7 424.7,603.3 C 424.7,603.3 424.0,603.0 423.5,603.0 C 423.5,603.0 423.0,603.0 422.3,603.2 C 422.3,603.2 421.7,603.3 421.0,603.7 C 421.0,603.7 420.3,604.0 419.7,604.7 C 419.7,604.7 419.0,605.3 418.3,606.2 C 418.3,606.2 417.7,607.0 416.8,608.0 C 416.8,608.0 416.0,609.0 415.0,610.2 C 415.0,610.2 414.0,611.3 412.8,612.7 C 412.8,612.7 411.7,614.0 410.3,615.7 C 410.3,615.7 409.0,617.3 407.5,619.2 C 407.5,619.2 406.0,621.0 404.5,622.8 C 404.5,622.8 403.0,624.7 401.5,626.3 C 401.5,626.3 400.0,628.0 398.5,629.5 C 398.5,629.5 397.0,631.0 395.3,632.2 C 395.3,632.2 393.7,633.3 391.8,634.2 C 391.8,634.2 390.0,635.0 388.0,635.5 C 388.0,635.5 386.0,636.0 384.0,636.3 C 384.0,636.3 382.0,636.7 380.0,636.5 C 380.0,636.5 378.0,636.3 375.8,635.7 C 375.8,635.7 373.7,635.0 371.7,633.8 C 371.7,633.8 369.7,632.7 367.7,631.3 C 367.7,631.3 365.7,630.0 363.8,628.3 C 363.8,628.3 362.0,626.7 360.0,624.8 C 360.0,624.8 358.0,623.0 356.0,621.0 C 356.0,621.0 354.0,619.0 351.8,616.8 C 351.8,616.8 349.7,614.7 347.3,612.5 C 347.3,612.5 345.0,610.3 342.5,608.0 C 342.5,608.0 340.0,605.7 337.3,603.2 C 337.3,603.2 334.7,600.7 331.7,597.8 C 331.7,597.8 328.7,595.0 325.3,591.7 C 325.3,591.7 322.0,588.3 318.5,584.8 C 318.5,584.8 315.0,581.3 311.3,577.7 C 311.3,577.7 307.7,574.0 303.8,570.3 C 303.8,570.3 300.0,566.7 295.8,562.8 C 295.8,562.8 291.7,559.0 287.3,554.8 C 287.3,554.8 283.0,550.7 278.5,546.5 C 278.5,546.5 274.0,542.3 269.5,538.0 C 269.5,538.0 265.0,533.7 259.5,527.8 L 254,522" stroke="#374151" stroke-width="8" fill="none" vector-effect="non-scaling-stroke"/><path d="M 356,406 C 357.8,407.2 359.5,408.5 361.2,409.9 C 361.2,409.9 363.0,411.3 366.3,414.0 C 366.3,414.0 369.7,416.7 372.7,419.3 C 372.7,419.3 375.7,422.0 378.2,424.2 C 378.2,424.2 380.7,426.3 382.7,428.0 C 382.7,428.0 384.7,429.7 386.3,430.8 C 386.3,430.8 388.0,432.0 389.5,433.0 C 389.5,433.0 391.0,434.0 392.5,435.0 C 392.5,435.0 394.0,436.0 395.7,436.8 C 395.7,436.8 397.3,437.7 399.2,438.2 C 399.2,438.2 401.0,438.7 403.0,438.7 C 403.0,438.7 405.0,438.7 407.0,438.3 C 407.0,438.3 409.0,438.0 411.2,437.5 C 411.2,437.5 413.3,437.0 415.5,436.7 C 415.5,436.7 417.7,436.3 420.0,436.0 C 420.0,436.0 422.3,435.7 424.7,435.3 C 424.7,435.3 427.0,435.0 429.2,434.7 C 429.2,434.7 431.3,434.3 433.3,434.0 C 433.3,434.0 435.3,433.7 437.0,433.7 C 437.0,433.7 438.7,433.7 440.3,433.8 C 440.3,433.8 442.0,434.0 443.5,434.7 C 443.5,434.7 445.0,435.3 446.5,436.2 C 446.5,436.2 448.0,437.0 449.5,438.0 C 449.5,438.0 451.0,439.0 452.5,440.2 C 452.5,440.2 454.0,441.3 455.7,442.7 C 455.7,442.7 457.3,444.0 459.3,445.7 C 459.3,445.7 461.3,447.3 463.5,449.2 C 463.5,449.2 465.7,451.0 468.0,453.0 C 468.0,453.0 470.3,455.0 472.7,457.0 C 472.7,457.0 475.0,459.0 477.7,461.2 C 477.7,461.2 480.3,463.3 483.0,465.5 C 483.0,465.5 485.7,467.7 488.5,470.2 C 488.5,470.2 491.3,472.7 494.2,475.2 C 494.2,475.2 497.0,477.7 500.0,480.3 C 500.0,480.3 503.0,483.0 506.0,485.5 C 506.0,485.5 509.0,488.0 511.8,490.5 C 511.8,490.5 514.7,493.0 517.2,495.5 C 517.2,495.5 519.7,498.0 522.0,500.5 C 522.0,500.5 524.3,503.0 526.3,505.7 C 526.3,505.7 528.3,508.3 530.3,511.3 C 530.3,511.3 532.3,514.3 534.0,517.5 C 534.0,517.5 535.7,520.7 537.2,524.0 C 537.2,524.0 538.7,527.3 540.0,530.8 C 540.0,530.8 541.3,534.3 542.7,538.0 C 542.7,538.0 544.0,541.7 545.2,545.5 C 545.2,545.5 546.3,549.3 547.5,553.2 C 547.5,553.2 548.7,557.0 549.7,561.0 C 549.7,561.0 550.7,565.0 552.0,569.0 C 552.0,569.0 553.3,573.0 554.5,577.0 C 554.5,577.0 555.7,581.0 556.8,585.0 C 556.8,585.0 558.0,589.0 559.2,593.0 C 559.2,593.0 560.3,597.0 561.5,601.2 C 561.5,601.2 562.7,605.3 563.8,609.5 C 563.8,609.5 565.0,613.7 566.0,617.7 C 566.0,617.7 567.0,621.7 568.0,625.2 C 568.0,625.2 569.0,628.7 569.7,631.7 C 569.7,631.7 570.3,634.7 570.8,637.0 C 570.8,637.0 571.3,639.3 571.7,641.2 C 571.7,641.2 572.0,643.0 572.3,644.3 C 572.3,644.3 572.7,645.7 572.8,646.7 C 572.8,646.7 573.0,647.7 573.0,648.5 C 573.0,648.5 573.0,649.3 572.8,650.0 C 572.8,650.0 572.7,650.7 572.5,651.5 C 572.5,651.5 572.3,652.3 572.0,652.8 C 572.0,652.8 571.7,653.3 571.2,653.8 C 571.2,653.8 570.7,654.3 569.8,654.7 C 569.8,654.7 569.0,655.0 568.0,655.3 C 568.0,655.3 567.0,655.7 566.0,656.0 C 566.0,656.0 565.0,656.3 563.8,656.5 C 563.8,656.5 562.7,656.7 561.2,657.0 C 561.2,657.0 559.7,657.3 557.7,657.7 C 557.7,657.7 555.7,658.0 553.5,658.7 C 553.5,658.7 551.3,659.3 548.8,660.0 C 548.8,660.0 546.3,660.7 543.7,661.5 C 543.7,661.5 541.0,662.3 538.0,663.0 C 538.0,663.0 535.0,663.7 532.0,664.5 C 532.0,664.5 529.0,665.3 525.8,666.2 C 525.8,666.2 522.7,667.0 519.5,668.0 C 519.5,668.0 516.3,669.0 513.2,670.0 C 513.2,670.0 510.0,671.0 507.2,672.0 C 507.2,672.0 504.3,673.0 501.8,673.8 C 501.8,673.8 499.3,674.7 497.3,675.3 C 497.3,675.3 495.3,676.0 493.7,676.5 C 493.7,676.5 492.0,677.0 490.3,677.3 C 490.3,677.3 488.7,677.7 486.8,677.7 C 486.8,677.7 485.0,677.7 483.0,677.3 C 483.0,677.3 481.0,677.0 479.0,676.2 C 479.0,676.2 477.0,675.3 475.2,674.2 C 475.2,674.2 473.3,673.0 471.5,671.5 C 471.5,671.5 469.7,670.0 468.2,668.3 C 468.2,668.3 466.7,666.7 465.2,664.7 C 465.2,664.7 463.7,662.7 462.3,660.3 C 462.3,660.3 461.0,658.0 459.5,655.5 C 459.5,655.5 458.0,653.0 456.5,650.5 C 456.5,650.5 455.0,648.0 453.5,645.3 C 453.5,645.3 452.0,642.7 450.5,640.0 C 450.5,640.0 449.0,637.3 447.5,634.5 C 447.5,634.5 446.0,631.7 444.5,629.0 C 444.5,629.0 443.0,626.3 441.7,623.8 C 441.7,623.8 440.3,621.3 439.2,619.3 C 439.2,619.3 438.0,617.3 437.0,615.7 C 437.0,615.7 436.0,614.0 435.0,612.7 C 435.0,612.7 434.0,611.3 433.0,610.2 C 433.0,610.2 432.0,609.0 430.8,608.0 C 430.8,608.0 429.7,607.0 428.5,606.0 C 428.5,606.0 427.3,605.0 426.3,604.3 C 426.3,604.3 425.3,603.7 424.7,603.3 C 424.7,603.3 424.0,603.0 423.5,603.0 C 423.5,603.0 423.0,603.0 422.3,603.2 C 422.3,603.2 421.7,603.3 421.0,603.7 C 421.0,603.7 420.3,604.0 419.7,604.7 C 419.7,604.7 419.0,605.3 418.3,606.2 C 418.3,606.2 417.7,607.0 416.8,608.0 C 416.8,608.0 416.0,609.0 415.0,610.2 C 415.0,610.2 414.0,611.3 412.8,612.7 C 412.8,612.7 411.7,614.0 410.3,615.7 C 410.3,615.7 409.0,617.3 407.5,619.2 C 407.5,619.2 406.0,621.0 404.5,622.8 C 404.5,622.8 403.0,624.7 401.5,626.3 C 401.5,626.3 400.0,628.0 398.5,629.5 C 398.5,629.5 397.0,631.0 395.3,632.2 C 395.3,632.2 393.7,633.3 391.8,634.2 C 391.8,634.2 390.0,635.0 388.0,635.5 C 388.0,635.5 386.0,636.0 384.0,636.3 C 384.0,636.3 382.0,636.7 380.0,636.5 C 380.0,636.5 378.0,636.3 375.8,635.7 C 375.8,635.7 373.7,635.0 371.7,633.8 C 371.7,633.8 369.7,632.7 367.7,631.3 C 367.7,631.3 365.7,630.0 363.8,628.3 C 363.8,628.3 362.0,626.7 360.0,624.8 C 360.0,624.8 358.0,623.0 356.0,621.0 C 356.0,621.0 354.0,619.0 351.8,616.8 C 351.8,616.8 349.7,614.7 347.3,612.5 C 347.3,612.5 345.0,610.3 342.5,608.0 C 342.5,608.0 340.0,605.7 337.3,603.2 C 337.3,603.2 334.7,600.7 331.7,597.8 C 331.7,597.8 328.7,595.0 325.3,591.7 C 325.3,591.7 322.0,588.3 318.5,584.8 C 318.5,584.8 315.0,581.3 311.3,577.7 C 311.3,577.7 307.7,574.0 303.8,570.3 C 303.8,570.3 300.0,566.7 295.8,562.8 C 295.8,562.8 291.7,559.0 287.3,554.8 C 287.3,554.8 283.0,550.7 278.5,546.5 C 278.5,546.5 274.0,542.3 269.5,538.0 C 269.5,538.0 265.0,533.7 259.5,527.8 L 254,522" stroke="#FBBF24" stroke-width="2" fill="none" vector-effect="non-scaling-stroke"/>
    <g id="moving-circle-group">
        <circle cx="254" cy="522" r="20" fill="#000000" vector-effect="non-scaling-stroke"/>
        <circle cx="254" cy="522" r="7" fill="#FFFFFF" vector-effect="non-scaling-stroke"/>
    </g></svg>