<svg id="minimap-svg" width="100%" height="100%" viewBox="0 0 700 436" xmlns="http://www.w3.org/2000/svg"><path d="M 531,358 C 528.5,358.8 526.0,359.5 523.3,360.2 C 523.3,360.2 520.7,361.0 515.5,362.5 C 515.5,362.5 510.3,364.0 504.7,365.7 C 504.7,365.7 499.0,367.3 493.3,369.0 C 493.3,369.0 487.7,370.7 481.5,372.5 C 481.5,372.5 475.3,374.3 469.3,376.0 C 469.3,376.0 463.3,377.7 457.2,379.5 C 457.2,379.5 451.0,381.3 445.3,383.0 C 445.3,383.0 439.7,384.7 434.3,386.3 C 434.3,386.3 429.0,388.0 424.0,389.5 C 424.0,389.5 419.0,391.0 414.0,392.3 C 414.0,392.3 409.0,393.7 404.3,395.0 C 404.3,395.0 399.7,396.3 395.3,397.5 C 395.3,397.5 391.0,398.7 387.0,400.0 C 387.0,400.0 383.0,401.3 379.2,402.5 C 379.2,402.5 375.3,403.7 371.8,404.7 C 371.8,404.7 368.3,405.7 365.2,406.5 C 365.2,406.5 362.0,407.3 359.2,408.2 C 359.2,408.2 356.3,409.0 353.7,409.8 C 353.7,409.8 351.0,410.7 348.5,411.5 C 348.5,411.5 346.0,412.3 343.7,413.0 C 343.7,413.0 341.3,413.7 339.0,414.3 C 339.0,414.3 336.7,415.0 334.5,415.5 C 334.5,415.5 332.3,416.0 330.2,416.5 C 330.2,416.5 328.0,417.0 326.0,417.5 C 326.0,417.5 324.0,418.0 322.2,418.7 C 322.2,418.7 320.3,419.3 318.7,420.0 C 318.7,420.0 317.0,420.7 315.5,421.3 C 315.5,421.3 314.0,422.0 312.3,422.3 C 312.3,422.3 310.7,422.7 309.0,422.8 C 309.0,422.8 307.3,423.0 305.7,422.8 C 305.7,422.8 304.0,422.7 302.5,422.3 C 302.5,422.3 301.0,422.0 299.7,421.2 C 299.7,421.2 298.3,420.3 297.0,419.2 C 297.0,419.2 295.7,418.0 294.5,416.5 C 294.5,416.5 293.3,415.0 292.2,413.2 C 292.2,413.2 291.0,411.3 289.8,409.3 C 289.8,409.3 288.7,407.3 287.5,405.2 C 287.5,405.2 286.3,403.0 285.0,401.0 C 285.0,401.0 283.7,399.0 282.2,396.8 C 282.2,396.8 280.7,394.7 278.8,392.3 C 278.8,392.3 277.0,390.0 274.8,387.3 C 274.8,387.3 272.7,384.7 270.3,381.7 C 270.3,381.7 268.0,378.7 265.5,375.5 C 265.5,375.5 263.0,372.3 260.5,368.8 C 260.5,368.8 258.0,365.3 255.3,361.8 C 255.3,361.8 252.7,358.3 250.0,354.5 C 250.0,354.5 247.3,350.7 244.5,346.8 C 244.5,346.8 241.7,343.0 238.7,338.8 C 238.7,338.8 235.7,334.7 232.5,330.3 C 232.5,330.3 229.3,326.0 226.0,321.5 C 226.0,321.5 222.7,317.0 219.5,312.7 C 219.5,312.7 216.3,308.3 213.0,303.7 C 213.0,303.7 209.7,299.0 206.3,294.2 C 206.3,294.2 203.0,289.3 199.8,284.3 C 199.8,284.3 196.7,279.3 193.7,274.3 C 193.7,274.3 190.7,269.3 188.0,264.2 C 188.0,264.2 185.3,259.0 182.7,253.7 C 182.7,253.7 180.0,248.3 177.5,243.0 C 177.5,243.0 175.0,237.7 172.3,232.2 C 172.3,232.2 169.7,226.7 167.0,221.0 C 167.0,221.0 164.3,215.3 161.5,209.7 C 161.5,209.7 158.7,204.0 156.0,198.7 C 156.0,198.7 153.3,193.3 150.7,188.0 C 150.7,188.0 148.0,182.7 145.5,177.7 C 145.5,177.7 143.0,172.7 140.3,167.7 C 140.3,167.7 137.7,162.7 134.8,158.0 C 134.8,158.0 132.0,153.3 129.2,148.8 C 129.2,148.8 126.3,144.3 123.5,140.2 C 123.5,140.2 120.7,136.0 118.0,132.2 C 118.0,132.2 115.3,128.3 112.5,124.8 C 112.5,124.8 109.7,121.3 107.0,118.0 C 107.0,118.0 104.3,114.7 101.5,111.5 C 101.5,111.5 98.7,108.3 93.8,103.7 L 89,99" stroke="#374151" stroke-width="8" fill="none" vector-effect="non-scaling-stroke"/><path d="M 531,358 C 528.5,358.8 526.0,359.5 523.3,360.2 C 523.3,360.2 520.7,361.0 515.5,362.5 C 515.5,362.5 510.3,364.0 504.7,365.7 C 504.7,365.7 499.0,367.3 493.3,369.0 C 493.3,369.0 487.7,370.7 481.5,372.5 C 481.5,372.5 475.3,374.3 469.3,376.0 C 469.3,376.0 463.3,377.7 457.2,379.5 C 457.2,379.5 451.0,381.3 445.3,383.0 C 445.3,383.0 439.7,384.7 434.3,386.3 C 434.3,386.3 429.0,388.0 424.0,389.5 C 424.0,389.5 419.0,391.0 414.0,392.3 C 414.0,392.3 409.0,393.7 404.3,395.0 C 404.3,395.0 399.7,396.3 395.3,397.5 C 395.3,397.5 391.0,398.7 387.0,400.0 C 387.0,400.0 383.0,401.3 379.2,402.5 C 379.2,402.5 375.3,403.7 371.8,404.7 C 371.8,404.7 368.3,405.7 365.2,406.5 C 365.2,406.5 362.0,407.3 359.2,408.2 C 359.2,408.2 356.3,409.0 353.7,409.8 C 353.7,409.8 351.0,410.7 348.5,411.5 C 348.5,411.5 346.0,412.3 343.7,413.0 C 343.7,413.0 341.3,413.7 339.0,414.3 C 339.0,414.3 336.7,415.0 334.5,415.5 C 334.5,415.5 332.3,416.0 330.2,416.5 C 330.2,416.5 328.0,417.0 326.0,417.5 C 326.0,417.5 324.0,418.0 322.2,418.7 C 322.2,418.7 320.3,419.3 318.7,420.0 C 318.7,420.0 317.0,420.7 315.5,421.3 C 315.5,421.3 314.0,422.0 312.3,422.3 C 312.3,422.3 310.7,422.7 309.0,422.8 C 309.0,422.8 307.3,423.0 305.7,422.8 C 305.7,422.8 304.0,422.7 302.5,422.3 C 302.5,422.3 301.0,422.0 299.7,421.2 C 299.7,421.2 298.3,420.3 297.0,419.2 C 297.0,419.2 295.7,418.0 294.5,416.5 C 294.5,416.5 293.3,415.0 292.2,413.2 C 292.2,413.2 291.0,411.3 289.8,409.3 C 289.8,409.3 288.7,407.3 287.5,405.2 C 287.5,405.2 286.3,403.0 285.0,401.0 C 285.0,401.0 283.7,399.0 282.2,396.8 C 282.2,396.8 280.7,394.7 278.8,392.3 C 278.8,392.3 277.0,390.0 274.8,387.3 C 274.8,387.3 272.7,384.7 270.3,381.7 C 270.3,381.7 268.0,378.7 265.5,375.5 C 265.5,375.5 263.0,372.3 260.5,368.8 C 260.5,368.8 258.0,365.3 255.3,361.8 C 255.3,361.8 252.7,358.3 250.0,354.5 C 250.0,354.5 247.3,350.7 244.5,346.8 C 244.5,346.8 241.7,343.0 238.7,338.8 C 238.7,338.8 235.7,334.7 232.5,330.3 C 232.5,330.3 229.3,326.0 226.0,321.5 C 226.0,321.5 222.7,317.0 219.5,312.7 C 219.5,312.7 216.3,308.3 213.0,303.7 C 213.0,303.7 209.7,299.0 206.3,294.2 C 206.3,294.2 203.0,289.3 199.8,284.3 C 199.8,284.3 196.7,279.3 193.7,274.3 C 193.7,274.3 190.7,269.3 188.0,264.2 C 188.0,264.2 185.3,259.0 182.7,253.7 C 182.7,253.7 180.0,248.3 177.5,243.0 C 177.5,243.0 175.0,237.7 172.3,232.2 C 172.3,232.2 169.7,226.7 167.0,221.0 C 167.0,221.0 164.3,215.3 161.5,209.7 C 161.5,209.7 158.7,204.0 156.0,198.7 C 156.0,198.7 153.3,193.3 150.7,188.0 C 150.7,188.0 148.0,182.7 145.5,177.7 C 145.5,177.7 143.0,172.7 140.3,167.7 C 140.3,167.7 137.7,162.7 134.8,158.0 C 134.8,158.0 132.0,153.3 129.2,148.8 C 129.2,148.8 126.3,144.3 123.5,140.2 C 123.5,140.2 120.7,136.0 118.0,132.2 C 118.0,132.2 115.3,128.3 112.5,124.8 C 112.5,124.8 109.7,121.3 107.0,118.0 C 107.0,118.0 104.3,114.7 101.5,111.5 C 101.5,111.5 98.7,108.3 93.8,103.7 L 89,99" stroke="#EF4444" stroke-width="2" fill="none" vector-effect="non-scaling-stroke"/><path d="M 89,99 C 87.5,97.5 86.0,96.0 84.7,94.7 C 84.7,94.7 83.3,93.3 80.5,90.5 C 80.5,90.5 77.7,87.7 75.0,85.0 C 75.0,85.0 72.3,82.3 69.5,79.8 C 69.5,79.8 66.7,77.3 64.2,75.0 C 64.2,75.0 61.7,72.7 59.2,70.5 C 59.2,70.5 56.7,68.3 54.3,65.8 C 54.3,65.8 52.0,63.3 49.5,61.2 C 49.5,61.2 47.0,59.0 44.7,56.8 C 44.7,56.8 42.3,54.7 40.3,52.8 C 40.3,52.8 38.3,51.0 36.7,49.2 C 36.7,49.2 35.0,47.3 33.5,45.8 C 33.5,45.8 32.0,44.3 30.8,43.3 C 30.8,43.3 29.7,42.3 28.7,41.5 C 28.7,41.5 27.7,40.7 26.8,39.8 C 26.8,39.8 26.0,39.0 25.2,38.2 C 25.2,38.2 24.3,37.3 23.7,36.7 C 23.7,36.7 23.0,36.0 22.3,35.5 C 22.3,35.5 21.7,35.0 21.0,34.3 C 21.0,34.3 20.3,33.7 19.8,33.0 C 19.8,33.0 19.3,32.3 19.0,31.7 C 19.0,31.7 18.7,31.0 18.5,30.5 C 18.5,30.5 18.3,30.0 18.2,29.3 C 18.2,29.3 18.0,28.7 18.0,28.0 C 18.0,28.0 18.0,27.3 18.0,26.5 C 18.0,26.5 18.0,25.7 18.2,25.0 C 18.2,25.0 18.3,24.3 18.7,23.7 C 18.7,23.7 19.0,23.0 19.5,22.7 C 19.5,22.7 20.0,22.3 20.5,22.0 C 20.5,22.0 21.0,21.7 21.7,21.5 C 21.7,21.5 22.3,21.3 23.2,21.0 C 23.2,21.0 24.0,20.7 25.2,20.5 C 25.2,20.5 26.3,20.3 27.7,20.2 C 27.7,20.2 29.0,20.0 30.7,19.8 C 30.7,19.8 32.3,19.7 34.2,19.5 C 34.2,19.5 36.0,19.3 38.2,19.0 C 38.2,19.0 40.3,18.7 42.7,18.3 C 42.7,18.3 45.0,18.0 47.7,17.7 C 47.7,17.7 50.3,17.3 53.2,16.8 C 53.2,16.8 56.0,16.3 59.0,16.0 C 59.0,16.0 62.0,15.7 65.0,15.2 C 65.0,15.2 68.0,14.7 71.2,14.5 C 71.2,14.5 74.3,14.3 77.8,14.0 C 77.8,14.0 81.3,13.7 84.8,13.5 C 84.8,13.5 88.3,13.3 92.0,13.2 C 92.0,13.2 95.7,13.0 99.3,13.0 C 99.3,13.0 103.0,13.0 107.0,13.0 C 107.0,13.0 111.0,13.0 114.8,13.2 C 114.8,13.2 118.7,13.3 122.5,13.5 C 122.5,13.5 126.3,13.7 130.2,14.0 C 130.2,14.0 134.0,14.3 138.0,14.7 C 138.0,14.7 142.0,15.0 146.2,15.5 C 146.2,15.5 150.3,16.0 154.7,16.7 C 154.7,16.7 159.0,17.3 163.3,18.0 C 163.3,18.0 167.7,18.7 172.0,19.3 C 172.0,19.3 176.3,20.0 180.7,20.7 C 180.7,20.7 185.0,21.3 189.3,22.0 C 189.3,22.0 193.7,22.7 198.2,23.5 C 198.2,23.5 202.7,24.3 207.2,25.0 C 207.2,25.0 211.7,25.7 216.3,26.5 C 216.3,26.5 221.0,27.3 225.7,28.0 C 225.7,28.0 230.3,28.7 235.2,29.5 C 235.2,29.5 240.0,30.3 244.7,31.0 C 244.7,31.0 249.3,31.7 253.8,32.5 C 253.8,32.5 258.3,33.3 262.7,34.0 C 262.7,34.0 267.0,34.7 271.3,35.5 C 271.3,35.5 275.7,36.3 280.0,37.0 C 280.0,37.0 284.3,37.7 288.7,38.5 C 288.7,38.5 293.0,39.3 297.7,40.0 C 297.7,40.0 302.3,40.7 306.7,41.2 C 306.7,41.2 311.0,41.7 315.5,42.0 C 315.5,42.0 320.0,42.3 324.3,42.5 C 324.3,42.5 328.7,42.7 333.5,42.8 C 333.5,42.8 338.3,43.0 343.0,43.2 C 343.0,43.2 347.7,43.3 352.2,43.5 C 352.2,43.5 356.7,43.7 361.2,43.8 C 361.2,43.8 365.7,44.0 369.8,44.0 C 369.8,44.0 374.0,44.0 377.8,44.0 C 377.8,44.0 381.7,44.0 384.8,44.0 C 384.8,44.0 388.0,44.0 390.8,44.0 C 390.8,44.0 393.7,44.0 396.2,44.0 C 396.2,44.0 398.7,44.0 400.8,44.2 C 400.8,44.2 403.0,44.3 405.0,44.5 C 405.0,44.5 407.0,44.7 408.8,44.8 C 408.8,44.8 410.7,45.0 412.3,45.0 C 412.3,45.0 414.0,45.0 415.5,45.0 C 415.5,45.0 417.0,45.0 418.5,45.0 C 418.5,45.0 420.0,45.0 421.3,45.0 C 421.3,45.0 422.7,45.0 424.0,45.2 C 424.0,45.2 425.3,45.3 426.5,45.7 C 426.5,45.7 427.7,46.0 429.0,46.5 C 429.0,46.5 430.3,47.0 431.5,47.7 C 431.5,47.7 432.7,48.3 433.8,49.3 C 433.8,49.3 435.0,50.3 436.0,51.5 C 436.0,51.5 437.0,52.7 437.8,54.0 C 437.8,54.0 438.7,55.3 439.2,56.8 C 439.2,56.8 439.7,58.3 439.8,60.2 C 439.8,60.2 440.0,62.0 439.7,63.8 C 439.7,63.8 439.3,65.7 438.7,67.7 C 438.7,67.7 438.0,69.7 437.0,71.5 C 437.0,71.5 436.0,73.3 434.8,75.3 C 434.8,75.3 433.7,77.3 432.3,79.2 C 432.3,79.2 431.0,81.0 429.5,83.0 C 429.5,83.0 428.0,85.0 426.5,87.0 C 426.5,87.0 425.0,89.0 423.2,91.2 C 423.2,91.2 421.3,93.3 419.3,95.3 C 419.3,95.3 417.3,97.3 415.0,99.3 C 415.0,99.3 412.7,101.3 410.3,103.2 C 410.3,103.2 408.0,105.0 405.5,106.8 C 405.5,106.8 403.0,108.7 400.3,110.3 C 400.3,110.3 397.7,112.0 394.8,113.5 C 394.8,113.5 392.0,115.0 389.0,116.5 C 389.0,116.5 386.0,118.0 382.8,119.3 C 382.8,119.3 379.7,120.7 376.3,121.7 C 376.3,121.7 373.0,122.7 369.5,123.5 C 369.5,123.5 366.0,124.3 362.5,124.8 C 362.5,124.8 359.0,125.3 355.7,125.7 C 355.7,125.7 352.3,126.0 349.0,126.0 C 349.0,126.0 345.7,126.0 342.3,126.0 C 342.3,126.0 339.0,126.0 335.5,125.8 C 335.5,125.8 332.0,125.7 328.3,125.3 C 328.3,125.3 324.7,125.0 320.8,124.5 C 320.8,124.5 317.0,124.0 313.3,123.5 C 313.3,123.5 309.7,123.0 306.2,122.5 C 306.2,122.5 302.7,122.0 299.5,121.5 C 299.5,121.5 296.3,121.0 293.0,120.5 C 293.0,120.5 289.7,120.0 286.5,119.5 C 286.5,119.5 283.3,119.0 280.3,118.7 C 280.3,118.7 277.3,118.3 274.7,118.0 C 274.7,118.0 272.0,117.7 269.5,117.3 C 269.5,117.3 267.0,117.0 264.7,116.5 C 264.7,116.5 262.3,116.0 260.2,115.7 C 260.2,115.7 258.0,115.3 256.0,115.0 C 256.0,115.0 254.0,114.7 252.0,114.5 C 252.0,114.5 250.0,114.3 248.2,114.2 C 248.2,114.2 246.3,114.0 244.7,114.0 C 244.7,114.0 243.0,114.0 241.3,114.2 C 241.3,114.2 239.7,114.3 238.0,114.7 C 238.0,114.7 236.3,115.0 234.5,115.7 C 234.5,115.7 232.7,116.3 230.8,117.0 C 230.8,117.0 229.0,117.7 227.2,118.5 C 227.2,118.5 225.3,119.3 223.7,120.3 C 223.7,120.3 222.0,121.3 220.3,122.5 C 220.3,122.5 218.7,123.7 217.0,125.2 C 217.0,125.2 215.3,126.7 213.8,128.2 C 213.8,128.2 212.3,129.7 211.0,131.7 C 211.0,131.7 209.7,133.7 208.5,135.7 C 208.5,135.7 207.3,137.7 206.2,139.8 C 206.2,139.8 205.0,142.0 204.3,144.3 C 204.3,144.3 203.7,146.7 203.2,149.0 C 203.2,149.0 202.7,151.3 202.7,153.8 C 202.7,153.8 202.7,156.3 202.7,158.8 C 202.7,158.8 202.7,161.3 203.2,163.8 C 203.2,163.8 203.7,166.3 204.3,169.0 C 204.3,169.0 205.0,171.7 206.2,174.0 C 206.2,174.0 207.3,176.3 208.7,179.0 C 208.7,179.0 210.0,181.7 211.5,184.0 C 211.5,184.0 213.0,186.3 214.5,189.0 C 214.5,189.0 216.0,191.7 217.5,194.2 C 217.5,194.2 219.0,196.7 220.5,199.3 C 220.5,199.3 222.0,202.0 223.5,204.5 C 223.5,204.5 225.0,207.0 226.5,209.3 C 226.5,209.3 228.0,211.7 230.5,216.3 L 233,221" stroke="#374151" stroke-width="8" fill="none" vector-effect="non-scaling-stroke"/><path d="M 89,99 C 87.5,97.5 86.0,96.0 84.7,94.7 C 84.7,94.7 83.3,93.3 80.5,90.5 C 80.5,90.5 77.7,87.7 75.0,85.0 C 75.0,85.0 72.3,82.3 69.5,79.8 C 69.5,79.8 66.7,77.3 64.2,75.0 C 64.2,75.0 61.7,72.7 59.2,70.5 C 59.2,70.5 56.7,68.3 54.3,65.8 C 54.3,65.8 52.0,63.3 49.5,61.2 C 49.5,61.2 47.0,59.0 44.7,56.8 C 44.7,56.8 42.3,54.7 40.3,52.8 C 40.3,52.8 38.3,51.0 36.7,49.2 C 36.7,49.2 35.0,47.3 33.5,45.8 C 33.5,45.8 32.0,44.3 30.8,43.3 C 30.8,43.3 29.7,42.3 28.7,41.5 C 28.7,41.5 27.7,40.7 26.8,39.8 C 26.8,39.8 26.0,39.0 25.2,38.2 C 25.2,38.2 24.3,37.3 23.7,36.7 C 23.7,36.7 23.0,36.0 22.3,35.5 C 22.3,35.5 21.7,35.0 21.0,34.3 C 21.0,34.3 20.3,33.7 19.8,33.0 C 19.8,33.0 19.3,32.3 19.0,31.7 C 19.0,31.7 18.7,31.0 18.5,30.5 C 18.5,30.5 18.3,30.0 18.2,29.3 C 18.2,29.3 18.0,28.7 18.0,28.0 C 18.0,28.0 18.0,27.3 18.0,26.5 C 18.0,26.5 18.0,25.7 18.2,25.0 C 18.2,25.0 18.3,24.3 18.7,23.7 C 18.7,23.7 19.0,23.0 19.5,22.7 C 19.5,22.7 20.0,22.3 20.5,22.0 C 20.5,22.0 21.0,21.7 21.7,21.5 C 21.7,21.5 22.3,21.3 23.2,21.0 C 23.2,21.0 24.0,20.7 25.2,20.5 C 25.2,20.5 26.3,20.3 27.7,20.2 C 27.7,20.2 29.0,20.0 30.7,19.8 C 30.7,19.8 32.3,19.7 34.2,19.5 C 34.2,19.5 36.0,19.3 38.2,19.0 C 38.2,19.0 40.3,18.7 42.7,18.3 C 42.7,18.3 45.0,18.0 47.7,17.7 C 47.7,17.7 50.3,17.3 53.2,16.8 C 53.2,16.8 56.0,16.3 59.0,16.0 C 59.0,16.0 62.0,15.7 65.0,15.2 C 65.0,15.2 68.0,14.7 71.2,14.5 C 71.2,14.5 74.3,14.3 77.8,14.0 C 77.8,14.0 81.3,13.7 84.8,13.5 C 84.8,13.5 88.3,13.3 92.0,13.2 C 92.0,13.2 95.7,13.0 99.3,13.0 C 99.3,13.0 103.0,13.0 107.0,13.0 C 107.0,13.0 111.0,13.0 114.8,13.2 C 114.8,13.2 118.7,13.3 122.5,13.5 C 122.5,13.5 126.3,13.7 130.2,14.0 C 130.2,14.0 134.0,14.3 138.0,14.7 C 138.0,14.7 142.0,15.0 146.2,15.5 C 146.2,15.5 150.3,16.0 154.7,16.7 C 154.7,16.7 159.0,17.3 163.3,18.0 C 163.3,18.0 167.7,18.7 172.0,19.3 C 172.0,19.3 176.3,20.0 180.7,20.7 C 180.7,20.7 185.0,21.3 189.3,22.0 C 189.3,22.0 193.7,22.7 198.2,23.5 C 198.2,23.5 202.7,24.3 207.2,25.0 C 207.2,25.0 211.7,25.7 216.3,26.5 C 216.3,26.5 221.0,27.3 225.7,28.0 C 225.7,28.0 230.3,28.7 235.2,29.5 C 235.2,29.5 240.0,30.3 244.7,31.0 C 244.7,31.0 249.3,31.7 253.8,32.5 C 253.8,32.5 258.3,33.3 262.7,34.0 C 262.7,34.0 267.0,34.7 271.3,35.5 C 271.3,35.5 275.7,36.3 280.0,37.0 C 280.0,37.0 284.3,37.7 288.7,38.5 C 288.7,38.5 293.0,39.3 297.7,40.0 C 297.7,40.0 302.3,40.7 306.7,41.2 C 306.7,41.2 311.0,41.7 315.5,42.0 C 315.5,42.0 320.0,42.3 324.3,42.5 C 324.3,42.5 328.7,42.7 333.5,42.8 C 333.5,42.8 338.3,43.0 343.0,43.2 C 343.0,43.2 347.7,43.3 352.2,43.5 C 352.2,43.5 356.7,43.7 361.2,43.8 C 361.2,43.8 365.7,44.0 369.8,44.0 C 369.8,44.0 374.0,44.0 377.8,44.0 C 377.8,44.0 381.7,44.0 384.8,44.0 C 384.8,44.0 388.0,44.0 390.8,44.0 C 390.8,44.0 393.7,44.0 396.2,44.0 C 396.2,44.0 398.7,44.0 400.8,44.2 C 400.8,44.2 403.0,44.3 405.0,44.5 C 405.0,44.5 407.0,44.7 408.8,44.8 C 408.8,44.8 410.7,45.0 412.3,45.0 C 412.3,45.0 414.0,45.0 415.5,45.0 C 415.5,45.0 417.0,45.0 418.5,45.0 C 418.5,45.0 420.0,45.0 421.3,45.0 C 421.3,45.0 422.7,45.0 424.0,45.2 C 424.0,45.2 425.3,45.3 426.5,45.7 C 426.5,45.7 427.7,46.0 429.0,46.5 C 429.0,46.5 430.3,47.0 431.5,47.7 C 431.5,47.7 432.7,48.3 433.8,49.3 C 433.8,49.3 435.0,50.3 436.0,51.5 C 436.0,51.5 437.0,52.7 437.8,54.0 C 437.8,54.0 438.7,55.3 439.2,56.8 C 439.2,56.8 439.7,58.3 439.8,60.2 C 439.8,60.2 440.0,62.0 439.7,63.8 C 439.7,63.8 439.3,65.7 438.7,67.7 C 438.7,67.7 438.0,69.7 437.0,71.5 C 437.0,71.5 436.0,73.3 434.8,75.3 C 434.8,75.3 433.7,77.3 432.3,79.2 C 432.3,79.2 431.0,81.0 429.5,83.0 C 429.5,83.0 428.0,85.0 426.5,87.0 C 426.5,87.0 425.0,89.0 423.2,91.2 C 423.2,91.2 421.3,93.3 419.3,95.3 C 419.3,95.3 417.3,97.3 415.0,99.3 C 415.0,99.3 412.7,101.3 410.3,103.2 C 410.3,103.2 408.0,105.0 405.5,106.8 C 405.5,106.8 403.0,108.7 400.3,110.3 C 400.3,110.3 397.7,112.0 394.8,113.5 C 394.8,113.5 392.0,115.0 389.0,116.5 C 389.0,116.5 386.0,118.0 382.8,119.3 C 382.8,119.3 379.7,120.7 376.3,121.7 C 376.3,121.7 373.0,122.7 369.5,123.5 C 369.5,123.5 366.0,124.3 362.5,124.8 C 362.5,124.8 359.0,125.3 355.7,125.7 C 355.7,125.7 352.3,126.0 349.0,126.0 C 349.0,126.0 345.7,126.0 342.3,126.0 C 342.3,126.0 339.0,126.0 335.5,125.8 C 335.5,125.8 332.0,125.7 328.3,125.3 C 328.3,125.3 324.7,125.0 320.8,124.5 C 320.8,124.5 317.0,124.0 313.3,123.5 C 313.3,123.5 309.7,123.0 306.2,122.5 C 306.2,122.5 302.7,122.0 299.5,121.5 C 299.5,121.5 296.3,121.0 293.0,120.5 C 293.0,120.5 289.7,120.0 286.5,119.5 C 286.5,119.5 283.3,119.0 280.3,118.7 C 280.3,118.7 277.3,118.3 274.7,118.0 C 274.7,118.0 272.0,117.7 269.5,117.3 C 269.5,117.3 267.0,117.0 264.7,116.5 C 264.7,116.5 262.3,116.0 260.2,115.7 C 260.2,115.7 258.0,115.3 256.0,115.0 C 256.0,115.0 254.0,114.7 252.0,114.5 C 252.0,114.5 250.0,114.3 248.2,114.2 C 248.2,114.2 246.3,114.0 244.7,114.0 C 244.7,114.0 243.0,114.0 241.3,114.2 C 241.3,114.2 239.7,114.3 238.0,114.7 C 238.0,114.7 236.3,115.0 234.5,115.7 C 234.5,115.7 232.7,116.3 230.8,117.0 C 230.8,117.0 229.0,117.7 227.2,118.5 C 227.2,118.5 225.3,119.3 223.7,120.3 C 223.7,120.3 222.0,121.3 220.3,122.5 C 220.3,122.5 218.7,123.7 217.0,125.2 C 217.0,125.2 215.3,126.7 213.8,128.2 C 213.8,128.2 212.3,129.7 211.0,131.7 C 211.0,131.7 209.7,133.7 208.5,135.7 C 208.5,135.7 207.3,137.7 206.2,139.8 C 206.2,139.8 205.0,142.0 204.3,144.3 C 204.3,144.3 203.7,146.7 203.2,149.0 C 203.2,149.0 202.7,151.3 202.7,153.8 C 202.7,153.8 202.7,156.3 202.7,158.8 C 202.7,158.8 202.7,161.3 203.2,163.8 C 203.2,163.8 203.7,166.3 204.3,169.0 C 204.3,169.0 205.0,171.7 206.2,174.0 C 206.2,174.0 207.3,176.3 208.7,179.0 C 208.7,179.0 210.0,181.7 211.5,184.0 C 211.5,184.0 213.0,186.3 214.5,189.0 C 214.5,189.0 216.0,191.7 217.5,194.2 C 217.5,194.2 219.0,196.7 220.5,199.3 C 220.5,199.3 222.0,202.0 223.5,204.5 C 223.5,204.5 225.0,207.0 226.5,209.3 C 226.5,209.3 228.0,211.7 230.5,216.3 L 233,221" stroke="#3B82F6" stroke-width="2" fill="none" vector-effect="non-scaling-stroke"/><path d="M 233,221 C 233.8,222.2 234.5,223.5 235.2,224.8 C 235.2,224.8 236.0,226.0 237.3,228.2 C 237.3,228.2 238.7,230.3 239.8,232.3 C 239.8,232.3 241.0,234.3 242.2,236.2 C 242.2,236.2 243.3,238.0 244.7,239.8 C 244.7,239.8 246.0,241.7 247.3,243.3 C 247.3,243.3 248.7,245.0 250.0,246.5 C 250.0,246.5 251.3,248.0 252.7,249.5 C 252.7,249.5 254.0,251.0 255.7,252.3 C 255.7,252.3 257.3,253.7 259.2,254.8 C 259.2,254.8 261.0,256.0 262.8,256.8 C 262.8,256.8 264.7,257.7 266.7,258.3 C 266.7,258.3 268.7,259.0 270.7,259.5 C 270.7,259.5 272.7,260.0 275.2,260.3 C 275.2,260.3 277.7,260.7 280.0,260.8 C 280.0,260.8 282.3,261.0 284.8,260.8 C 284.8,260.8 287.3,260.7 289.7,260.2 C 289.7,260.2 292.0,259.7 294.3,258.8 C 294.3,258.8 296.7,258.0 298.8,257.0 C 298.8,257.0 301.0,256.0 303.2,254.7 C 303.2,254.7 305.3,253.3 307.3,251.7 C 307.3,251.7 309.3,250.0 311.2,248.0 C 311.2,248.0 313.0,246.0 314.5,244.0 C 314.5,244.0 316.0,242.0 317.7,239.8 C 317.7,239.8 319.3,237.7 321.2,235.5 C 321.2,235.5 323.0,233.3 325.0,231.2 C 325.0,231.2 327.0,229.0 329.2,227.0 C 329.2,227.0 331.3,225.0 333.7,222.8 C 333.7,222.8 336.0,220.7 338.5,218.7 C 338.5,218.7 341.0,216.7 343.7,214.8 C 343.7,214.8 346.3,213.0 349.2,211.3 C 349.2,211.3 352.0,209.7 355.2,208.2 C 355.2,208.2 358.3,206.7 361.7,205.3 C 361.7,205.3 365.0,204.0 368.3,203.0 C 368.3,203.0 371.7,202.0 375.2,201.0 C 375.2,201.0 378.7,200.0 382.3,199.2 C 382.3,199.2 386.0,198.3 389.8,197.8 C 389.8,197.8 393.7,197.3 397.7,197.2 C 397.7,197.2 401.7,197.0 405.8,196.8 C 405.8,196.8 410.0,196.7 414.7,196.3 C 414.7,196.3 419.3,196.0 424.2,195.7 C 424.2,195.7 429.0,195.3 434.2,195.2 C 434.2,195.2 439.3,195.0 444.5,194.8 C 444.5,194.8 449.7,194.7 455.2,194.5 C 455.2,194.5 460.7,194.3 466.2,194.2 C 466.2,194.2 471.7,194.0 477.5,193.8 C 477.5,193.8 483.3,193.7 488.8,193.5 C 488.8,193.5 494.3,193.3 499.8,193.0 C 499.8,193.0 505.3,192.7 510.2,192.5 C 510.2,192.5 515.0,192.3 519.8,192.2 C 519.8,192.2 524.7,192.0 528.8,191.8 C 528.8,191.8 533.0,191.7 537.0,191.5 C 537.0,191.5 541.0,191.3 544.7,191.2 C 544.7,191.2 548.3,191.0 551.8,191.0 C 551.8,191.0 555.3,191.0 558.8,190.8 C 558.8,190.8 562.3,190.7 565.7,190.5 C 565.7,190.5 569.0,190.3 572.5,190.2 C 572.5,190.2 576.0,190.0 579.3,189.8 C 579.3,189.8 582.7,189.7 586.0,189.5 C 586.0,189.5 589.3,189.3 592.5,189.2 C 592.5,189.2 595.7,189.0 598.7,189.0 C 598.7,189.0 601.7,189.0 604.3,189.0 C 604.3,189.0 607.0,189.0 609.5,189.0 C 609.5,189.0 612.0,189.0 614.2,189.0 C 614.2,189.0 616.3,189.0 618.5,189.0 C 618.5,189.0 620.7,189.0 622.7,189.0 C 622.7,189.0 624.7,189.0 626.8,189.2 C 626.8,189.2 629.0,189.3 631.0,189.7 C 631.0,189.7 633.0,190.0 634.8,190.5 C 634.8,190.5 636.7,191.0 638.3,191.7 C 638.3,191.7 640.0,192.3 641.5,193.3 C 641.5,193.3 643.0,194.3 644.5,195.5 C 644.5,195.5 646.0,196.7 647.3,198.0 C 647.3,198.0 648.7,199.3 650.0,200.7 C 650.0,200.7 651.3,202.0 652.5,203.7 C 652.5,203.7 653.7,205.3 654.8,207.2 C 654.8,207.2 656.0,209.0 657.0,211.0 C 657.0,211.0 658.0,213.0 659.0,215.3 C 659.0,215.3 660.0,217.7 660.8,220.0 C 660.8,220.0 661.7,222.3 662.7,225.0 C 662.7,225.0 663.7,227.7 664.5,230.2 C 664.5,230.2 665.3,232.7 666.3,235.3 C 666.3,235.3 667.3,238.0 668.0,240.5 C 668.0,240.5 668.7,243.0 669.5,245.5 C 669.5,245.5 670.3,248.0 671.0,250.5 C 671.0,250.5 671.7,253.0 672.5,255.3 C 672.5,255.3 673.3,257.7 674.2,260.0 C 674.2,260.0 675.0,262.3 675.8,264.7 C 675.8,264.7 676.7,267.0 677.3,269.3 C 677.3,269.3 678.0,271.7 678.5,273.7 C 678.5,273.7 679.0,275.7 679.5,277.3 C 679.5,277.3 680.0,279.0 680.5,280.7 C 680.5,280.7 681.0,282.3 681.3,284.0 C 681.3,284.0 681.7,285.7 681.8,287.3 C 681.8,287.3 682.0,289.0 681.8,290.5 C 681.8,290.5 681.7,292.0 681.3,293.7 C 681.3,293.7 681.0,295.3 680.2,297.2 C 680.2,297.2 679.3,299.0 678.0,300.7 C 678.0,300.7 676.7,302.3 675.0,304.0 C 675.0,304.0 673.3,305.7 671.5,307.0 C 671.5,307.0 669.7,308.3 667.7,309.8 C 667.7,309.8 665.7,311.3 663.5,312.5 C 663.5,312.5 661.3,313.7 658.8,315.2 C 658.8,315.2 656.3,316.7 653.7,318.2 C 653.7,318.2 651.0,319.7 647.8,321.2 C 647.8,321.2 644.7,322.7 641.3,324.0 C 641.3,324.0 638.0,325.3 634.3,326.7 C 634.3,326.7 630.7,328.0 626.7,329.5 C 626.7,329.5 622.7,331.0 618.3,332.3 C 618.3,332.3 614.0,333.7 609.3,335.0 C 609.3,335.0 604.7,336.3 600.0,337.7 C 600.0,337.7 595.3,339.0 590.5,340.5 C 590.5,340.5 585.7,342.0 580.7,343.5 C 580.7,343.5 575.7,345.0 570.5,346.5 C 570.5,346.5 565.3,348.0 560.2,349.5 C 560.2,349.5 555.0,351.0 549.8,352.5 C 549.8,352.5 544.7,354.0 537.8,356.0 L 531,358" stroke="#374151" stroke-width="8" fill="none" vector-effect="non-scaling-stroke"/><path d="M 233,221 C 233.8,222.2 234.5,223.5 235.2,224.8 C 235.2,224.8 236.0,226.0 237.3,228.2 C 237.3,228.2 238.7,230.3 239.8,232.3 C 239.8,232.3 241.0,234.3 242.2,236.2 C 242.2,236.2 243.3,238.0 244.7,239.8 C 244.7,239.8 246.0,241.7 247.3,243.3 C 247.3,243.3 248.7,245.0 250.0,246.5 C 250.0,246.5 251.3,248.0 252.7,249.5 C 252.7,249.5 254.0,251.0 255.7,252.3 C 255.7,252.3 257.3,253.7 259.2,254.8 C 259.2,254.8 261.0,256.0 262.8,256.8 C 262.8,256.8 264.7,257.7 266.7,258.3 C 266.7,258.3 268.7,259.0 270.7,259.5 C 270.7,259.5 272.7,260.0 275.2,260.3 C 275.2,260.3 277.7,260.7 280.0,260.8 C 280.0,260.8 282.3,261.0 284.8,260.8 C 284.8,260.8 287.3,260.7 289.7,260.2 C 289.7,260.2 292.0,259.7 294.3,258.8 C 294.3,258.8 296.7,258.0 298.8,257.0 C 298.8,257.0 301.0,256.0 303.2,254.7 C 303.2,254.7 305.3,253.3 307.3,251.7 C 307.3,251.7 309.3,250.0 311.2,248.0 C 311.2,248.0 313.0,246.0 314.5,244.0 C 314.5,244.0 316.0,242.0 317.7,239.8 C 317.7,239.8 319.3,237.7 321.2,235.5 C 321.2,235.5 323.0,233.3 325.0,231.2 C 325.0,231.2 327.0,229.0 329.2,227.0 C 329.2,227.0 331.3,225.0 333.7,222.8 C 333.7,222.8 336.0,220.7 338.5,218.7 C 338.5,218.7 341.0,216.7 343.7,214.8 C 343.7,214.8 346.3,213.0 349.2,211.3 C 349.2,211.3 352.0,209.7 355.2,208.2 C 355.2,208.2 358.3,206.7 361.7,205.3 C 361.7,205.3 365.0,204.0 368.3,203.0 C 368.3,203.0 371.7,202.0 375.2,201.0 C 375.2,201.0 378.7,200.0 382.3,199.2 C 382.3,199.2 386.0,198.3 389.8,197.8 C 389.8,197.8 393.7,197.3 397.7,197.2 C 397.7,197.2 401.7,197.0 405.8,196.8 C 405.8,196.8 410.0,196.7 414.7,196.3 C 414.7,196.3 419.3,196.0 424.2,195.7 C 424.2,195.7 429.0,195.3 434.2,195.2 C 434.2,195.2 439.3,195.0 444.5,194.8 C 444.5,194.8 449.7,194.7 455.2,194.5 C 455.2,194.5 460.7,194.3 466.2,194.2 C 466.2,194.2 471.7,194.0 477.5,193.8 C 477.5,193.8 483.3,193.7 488.8,193.5 C 488.8,193.5 494.3,193.3 499.8,193.0 C 499.8,193.0 505.3,192.7 510.2,192.5 C 510.2,192.5 515.0,192.3 519.8,192.2 C 519.8,192.2 524.7,192.0 528.8,191.8 C 528.8,191.8 533.0,191.7 537.0,191.5 C 537.0,191.5 541.0,191.3 544.7,191.2 C 544.7,191.2 548.3,191.0 551.8,191.0 C 551.8,191.0 555.3,191.0 558.8,190.8 C 558.8,190.8 562.3,190.7 565.7,190.5 C 565.7,190.5 569.0,190.3 572.5,190.2 C 572.5,190.2 576.0,190.0 579.3,189.8 C 579.3,189.8 582.7,189.7 586.0,189.5 C 586.0,189.5 589.3,189.3 592.5,189.2 C 592.5,189.2 595.7,189.0 598.7,189.0 C 598.7,189.0 601.7,189.0 604.3,189.0 C 604.3,189.0 607.0,189.0 609.5,189.0 C 609.5,189.0 612.0,189.0 614.2,189.0 C 614.2,189.0 616.3,189.0 618.5,189.0 C 618.5,189.0 620.7,189.0 622.7,189.0 C 622.7,189.0 624.7,189.0 626.8,189.2 C 626.8,189.2 629.0,189.3 631.0,189.7 C 631.0,189.7 633.0,190.0 634.8,190.5 C 634.8,190.5 636.7,191.0 638.3,191.7 C 638.3,191.7 640.0,192.3 641.5,193.3 C 641.5,193.3 643.0,194.3 644.5,195.5 C 644.5,195.5 646.0,196.7 647.3,198.0 C 647.3,198.0 648.7,199.3 650.0,200.7 C 650.0,200.7 651.3,202.0 652.5,203.7 C 652.5,203.7 653.7,205.3 654.8,207.2 C 654.8,207.2 656.0,209.0 657.0,211.0 C 657.0,211.0 658.0,213.0 659.0,215.3 C 659.0,215.3 660.0,217.7 660.8,220.0 C 660.8,220.0 661.7,222.3 662.7,225.0 C 662.7,225.0 663.7,227.7 664.5,230.2 C 664.5,230.2 665.3,232.7 666.3,235.3 C 666.3,235.3 667.3,238.0 668.0,240.5 C 668.0,240.5 668.7,243.0 669.5,245.5 C 669.5,245.5 670.3,248.0 671.0,250.5 C 671.0,250.5 671.7,253.0 672.5,255.3 C 672.5,255.3 673.3,257.7 674.2,260.0 C 674.2,260.0 675.0,262.3 675.8,264.7 C 675.8,264.7 676.7,267.0 677.3,269.3 C 677.3,269.3 678.0,271.7 678.5,273.7 C 678.5,273.7 679.0,275.7 679.5,277.3 C 679.5,277.3 680.0,279.0 680.5,280.7 C 680.5,280.7 681.0,282.3 681.3,284.0 C 681.3,284.0 681.7,285.7 681.8,287.3 C 681.8,287.3 682.0,289.0 681.8,290.5 C 681.8,290.5 681.7,292.0 681.3,293.7 C 681.3,293.7 681.0,295.3 680.2,297.2 C 680.2,297.2 679.3,299.0 678.0,300.7 C 678.0,300.7 676.7,302.3 675.0,304.0 C 675.0,304.0 673.3,305.7 671.5,307.0 C 671.5,307.0 669.7,308.3 667.7,309.8 C 667.7,309.8 665.7,311.3 663.5,312.5 C 663.5,312.5 661.3,313.7 658.8,315.2 C 658.8,315.2 656.3,316.7 653.7,318.2 C 653.7,318.2 651.0,319.7 647.8,321.2 C 647.8,321.2 644.7,322.7 641.3,324.0 C 641.3,324.0 638.0,325.3 634.3,326.7 C 634.3,326.7 630.7,328.0 626.7,329.5 C 626.7,329.5 622.7,331.0 618.3,332.3 C 618.3,332.3 614.0,333.7 609.3,335.0 C 609.3,335.0 604.7,336.3 600.0,337.7 C 600.0,337.7 595.3,339.0 590.5,340.5 C 590.5,340.5 585.7,342.0 580.7,343.5 C 580.7,343.5 575.7,345.0 570.5,346.5 C 570.5,346.5 565.3,348.0 560.2,349.5 C 560.2,349.5 555.0,351.0 549.8,352.5 C 549.8,352.5 544.7,354.0 537.8,356.0 L 531,358" stroke="#FBBF24" stroke-width="2" fill="none" vector-effect="non-scaling-stroke"/>
    <g id="moving-circle-group">
        <circle cx="531" cy="358" r="20" fill="#000000" vector-effect="non-scaling-stroke"/>
        <circle cx="531" cy="358" r="7" fill="#FFFFFF" vector-effect="non-scaling-stroke"/>
    </g></svg>