<svg id="minimap-svg" width="100%" height="100%" viewBox="0 0 700 502" xmlns="http://www.w3.org/2000/svg"><path d="M 584,157 C 587.2,156.0 590.5,155.0 593.6,153.8 C 593.6,153.8 596.7,152.7 602.8,150.3 C 602.8,150.3 609.0,148.0 615.0,145.5 C 615.0,145.5 621.0,143.0 626.7,140.7 C 626.7,140.7 632.3,138.3 637.2,136.3 C 637.2,136.3 642.0,134.3 645.7,132.8 C 645.7,132.8 649.3,131.3 652.0,130.3 C 652.0,130.3 654.7,129.3 656.7,128.5 C 656.7,128.5 658.7,127.7 660.5,127.0 C 660.5,127.0 662.3,126.3 663.8,125.5 C 663.8,125.5 665.3,124.7 666.7,124.0 C 666.7,124.0 668.0,123.3 669.0,122.7 C 669.0,122.7 670.0,122.0 671.0,121.5 C 671.0,121.5 672.0,121.0 672.7,120.3 C 672.7,120.3 673.3,119.7 673.7,118.7 C 673.7,118.7 674.0,117.7 674.0,116.5 C 674.0,116.5 674.0,115.3 673.8,113.8 C 673.8,113.8 673.7,112.3 673.2,110.7 C 673.2,110.7 672.7,109.0 672.0,107.0 C 672.0,107.0 671.3,105.0 670.3,102.7 C 670.3,102.7 669.3,100.3 668.3,97.7 C 668.3,97.7 667.3,95.0 665.8,91.8 C 665.8,91.8 664.3,88.7 662.8,85.3 C 662.8,85.3 661.3,82.0 659.7,78.3 C 659.7,78.3 658.0,74.7 656.3,70.8 C 656.3,70.8 654.7,67.0 653.0,62.8 C 653.0,62.8 651.3,58.7 649.5,54.3 C 649.5,54.3 647.7,50.0 646.0,45.8 C 646.0,45.8 644.3,41.7 642.8,38.2 C 642.8,38.2 641.3,34.7 640.2,32.0 C 640.2,32.0 639.0,29.3 638.0,27.3 C 638.0,27.3 637.0,25.3 636.3,23.8 C 636.3,23.8 635.7,22.3 635.0,21.5 C 635.0,21.5 634.3,20.7 633.7,20.3 C 633.7,20.3 633.0,20.0 632.2,20.0 C 632.2,20.0 631.3,20.0 630.5,20.2 C 630.5,20.2 629.7,20.3 628.7,20.7 C 628.7,20.7 627.7,21.0 626.3,21.5 C 626.3,21.5 625.0,22.0 623.3,22.7 C 623.3,22.7 621.7,23.3 619.7,24.2 C 619.7,24.2 617.7,25.0 615.2,26.0 C 615.2,26.0 612.7,27.0 609.8,28.0 C 609.8,28.0 607.0,29.0 603.8,30.2 C 603.8,30.2 600.7,31.3 597.3,32.5 C 597.3,32.5 594.0,33.7 590.2,35.2 C 590.2,35.2 586.3,36.7 582.2,38.2 C 582.2,38.2 578.0,39.7 573.5,41.3 C 573.5,41.3 569.0,43.0 564.5,44.7 C 564.5,44.7 560.0,46.3 555.5,48.0 C 555.5,48.0 551.0,49.7 546.3,51.5 C 546.3,51.5 541.7,53.3 536.8,55.2 C 536.8,55.2 532.0,57.0 527.0,59.2 C 527.0,59.2 522.0,61.3 516.8,63.5 C 516.8,63.5 511.7,65.7 506.5,67.8 C 506.5,67.8 501.3,70.0 496.0,72.2 C 496.0,72.2 490.7,74.3 485.3,76.5 C 485.3,76.5 480.0,78.7 474.5,81.0 C 474.5,81.0 469.0,83.3 463.5,85.7 C 463.5,85.7 458.0,88.0 452.5,90.5 C 452.5,90.5 447.0,93.0 441.5,95.3 C 441.5,95.3 436.0,97.7 430.8,99.8 C 430.8,99.8 425.7,102.0 421.2,103.8 C 421.2,103.8 416.7,105.7 413.2,107.2 C 413.2,107.2 409.7,108.7 407.0,109.8 C 407.0,109.8 404.3,111.0 402.3,112.0 C 402.3,112.0 400.3,113.0 398.7,113.8 C 398.7,113.8 397.0,114.7 395.5,115.3 C 395.5,115.3 394.0,116.0 392.5,116.5 C 392.5,116.5 391.0,117.0 389.7,117.7 C 389.7,117.7 388.3,118.3 387.3,118.8 C 387.3,118.8 386.3,119.3 385.5,120.0 C 385.5,120.0 384.7,120.7 384.2,121.2 C 384.2,121.2 383.7,121.7 383.2,122.5 C 383.2,122.5 382.7,123.3 382.7,124.0 C 382.7,124.0 382.7,124.7 382.7,125.5 C 382.7,125.5 382.7,126.3 383.0,127.2 C 383.0,127.2 383.3,128.0 383.7,129.3 C 383.7,129.3 384.0,130.7 384.5,132.0 C 384.5,132.0 385.0,133.3 385.5,135.0 C 385.5,135.0 386.0,136.7 386.7,138.3 C 386.7,138.3 387.3,140.0 388.0,142.2 C 388.0,142.2 388.7,144.3 389.7,146.7 C 389.7,146.7 390.7,149.0 391.7,151.5 C 391.7,151.5 392.7,154.0 393.8,156.5 C 393.8,156.5 395.0,159.0 396.0,161.5 C 396.0,161.5 397.0,164.0 398.0,166.3 C 398.0,166.3 399.0,168.7 400.0,170.8 C 400.0,170.8 401.0,173.0 401.8,174.7 C 401.8,174.7 402.7,176.3 403.2,177.7 C 403.2,177.7 403.7,179.0 404.0,180.0 C 404.0,180.0 404.3,181.0 404.7,182.0 C 404.7,182.0 405.0,183.0 405.3,184.0 C 405.3,184.0 405.7,185.0 406.0,185.8 C 406.0,185.8 406.3,186.7 406.3,187.3 C 406.3,187.3 406.3,188.0 406.3,188.5 C 406.3,188.5 406.3,189.0 406.0,189.5 C 406.0,189.5 405.7,190.0 405.3,190.3 C 405.3,190.3 405.0,190.7 404.3,191.0 C 404.3,191.0 403.7,191.3 402.8,191.7 C 402.8,191.7 402.0,192.0 400.8,192.5 C 400.8,192.5 399.7,193.0 398.2,193.5 C 398.2,193.5 396.7,194.0 394.8,194.7 C 394.8,194.7 393.0,195.3 390.8,196.2 C 390.8,196.2 388.7,197.0 386.2,198.0 C 386.2,198.0 383.7,199.0 380.8,200.2 C 380.8,200.2 378.0,201.3 374.8,202.7 C 374.8,202.7 371.7,204.0 368.3,205.5 C 368.3,205.5 365.0,207.0 361.7,208.7 C 361.7,208.7 358.3,210.3 355.3,212.0 C 355.3,212.0 352.3,213.7 349.5,215.3 C 349.5,215.3 346.7,217.0 344.2,218.3 C 344.2,218.3 341.7,219.7 339.3,220.8 C 339.3,220.8 337.0,222.0 335.2,223.0 C 335.2,223.0 333.3,224.0 331.2,225.0 L 329,226" stroke="#374151" stroke-width="8" fill="none" vector-effect="non-scaling-stroke"/><path d="M 584,157 C 587.2,156.0 590.5,155.0 593.6,153.8 C 593.6,153.8 596.7,152.7 602.8,150.3 C 602.8,150.3 609.0,148.0 615.0,145.5 C 615.0,145.5 621.0,143.0 626.7,140.7 C 626.7,140.7 632.3,138.3 637.2,136.3 C 637.2,136.3 642.0,134.3 645.7,132.8 C 645.7,132.8 649.3,131.3 652.0,130.3 C 652.0,130.3 654.7,129.3 656.7,128.5 C 656.7,128.5 658.7,127.7 660.5,127.0 C 660.5,127.0 662.3,126.3 663.8,125.5 C 663.8,125.5 665.3,124.7 666.7,124.0 C 666.7,124.0 668.0,123.3 669.0,122.7 C 669.0,122.7 670.0,122.0 671.0,121.5 C 671.0,121.5 672.0,121.0 672.7,120.3 C 672.7,120.3 673.3,119.7 673.7,118.7 C 673.7,118.7 674.0,117.7 674.0,116.5 C 674.0,116.5 674.0,115.3 673.8,113.8 C 673.8,113.8 673.7,112.3 673.2,110.7 C 673.2,110.7 672.7,109.0 672.0,107.0 C 672.0,107.0 671.3,105.0 670.3,102.7 C 670.3,102.7 669.3,100.3 668.3,97.7 C 668.3,97.7 667.3,95.0 665.8,91.8 C 665.8,91.8 664.3,88.7 662.8,85.3 C 662.8,85.3 661.3,82.0 659.7,78.3 C 659.7,78.3 658.0,74.7 656.3,70.8 C 656.3,70.8 654.7,67.0 653.0,62.8 C 653.0,62.8 651.3,58.7 649.5,54.3 C 649.5,54.3 647.7,50.0 646.0,45.8 C 646.0,45.8 644.3,41.7 642.8,38.2 C 642.8,38.2 641.3,34.7 640.2,32.0 C 640.2,32.0 639.0,29.3 638.0,27.3 C 638.0,27.3 637.0,25.3 636.3,23.8 C 636.3,23.8 635.7,22.3 635.0,21.5 C 635.0,21.5 634.3,20.7 633.7,20.3 C 633.7,20.3 633.0,20.0 632.2,20.0 C 632.2,20.0 631.3,20.0 630.5,20.2 C 630.5,20.2 629.7,20.3 628.7,20.7 C 628.7,20.7 627.7,21.0 626.3,21.5 C 626.3,21.5 625.0,22.0 623.3,22.7 C 623.3,22.7 621.7,23.3 619.7,24.2 C 619.7,24.2 617.7,25.0 615.2,26.0 C 615.2,26.0 612.7,27.0 609.8,28.0 C 609.8,28.0 607.0,29.0 603.8,30.2 C 603.8,30.2 600.7,31.3 597.3,32.5 C 597.3,32.5 594.0,33.7 590.2,35.2 C 590.2,35.2 586.3,36.7 582.2,38.2 C 582.2,38.2 578.0,39.7 573.5,41.3 C 573.5,41.3 569.0,43.0 564.5,44.7 C 564.5,44.7 560.0,46.3 555.5,48.0 C 555.5,48.0 551.0,49.7 546.3,51.5 C 546.3,51.5 541.7,53.3 536.8,55.2 C 536.8,55.2 532.0,57.0 527.0,59.2 C 527.0,59.2 522.0,61.3 516.8,63.5 C 516.8,63.5 511.7,65.7 506.5,67.8 C 506.5,67.8 501.3,70.0 496.0,72.2 C 496.0,72.2 490.7,74.3 485.3,76.5 C 485.3,76.5 480.0,78.7 474.5,81.0 C 474.5,81.0 469.0,83.3 463.5,85.7 C 463.5,85.7 458.0,88.0 452.5,90.5 C 452.5,90.5 447.0,93.0 441.5,95.3 C 441.5,95.3 436.0,97.7 430.8,99.8 C 430.8,99.8 425.7,102.0 421.2,103.8 C 421.2,103.8 416.7,105.7 413.2,107.2 C 413.2,107.2 409.7,108.7 407.0,109.8 C 407.0,109.8 404.3,111.0 402.3,112.0 C 402.3,112.0 400.3,113.0 398.7,113.8 C 398.7,113.8 397.0,114.7 395.5,115.3 C 395.5,115.3 394.0,116.0 392.5,116.5 C 392.5,116.5 391.0,117.0 389.7,117.7 C 389.7,117.7 388.3,118.3 387.3,118.8 C 387.3,118.8 386.3,119.3 385.5,120.0 C 385.5,120.0 384.7,120.7 384.2,121.2 C 384.2,121.2 383.7,121.7 383.2,122.5 C 383.2,122.5 382.7,123.3 382.7,124.0 C 382.7,124.0 382.7,124.7 382.7,125.5 C 382.7,125.5 382.7,126.3 383.0,127.2 C 383.0,127.2 383.3,128.0 383.7,129.3 C 383.7,129.3 384.0,130.7 384.5,132.0 C 384.5,132.0 385.0,133.3 385.5,135.0 C 385.5,135.0 386.0,136.7 386.7,138.3 C 386.7,138.3 387.3,140.0 388.0,142.2 C 388.0,142.2 388.7,144.3 389.7,146.7 C 389.7,146.7 390.7,149.0 391.7,151.5 C 391.7,151.5 392.7,154.0 393.8,156.5 C 393.8,156.5 395.0,159.0 396.0,161.5 C 396.0,161.5 397.0,164.0 398.0,166.3 C 398.0,166.3 399.0,168.7 400.0,170.8 C 400.0,170.8 401.0,173.0 401.8,174.7 C 401.8,174.7 402.7,176.3 403.2,177.7 C 403.2,177.7 403.7,179.0 404.0,180.0 C 404.0,180.0 404.3,181.0 404.7,182.0 C 404.7,182.0 405.0,183.0 405.3,184.0 C 405.3,184.0 405.7,185.0 406.0,185.8 C 406.0,185.8 406.3,186.7 406.3,187.3 C 406.3,187.3 406.3,188.0 406.3,188.5 C 406.3,188.5 406.3,189.0 406.0,189.5 C 406.0,189.5 405.7,190.0 405.3,190.3 C 405.3,190.3 405.0,190.7 404.3,191.0 C 404.3,191.0 403.7,191.3 402.8,191.7 C 402.8,191.7 402.0,192.0 400.8,192.5 C 400.8,192.5 399.7,193.0 398.2,193.5 C 398.2,193.5 396.7,194.0 394.8,194.7 C 394.8,194.7 393.0,195.3 390.8,196.2 C 390.8,196.2 388.7,197.0 386.2,198.0 C 386.2,198.0 383.7,199.0 380.8,200.2 C 380.8,200.2 378.0,201.3 374.8,202.7 C 374.8,202.7 371.7,204.0 368.3,205.5 C 368.3,205.5 365.0,207.0 361.7,208.7 C 361.7,208.7 358.3,210.3 355.3,212.0 C 355.3,212.0 352.3,213.7 349.5,215.3 C 349.5,215.3 346.7,217.0 344.2,218.3 C 344.2,218.3 341.7,219.7 339.3,220.8 C 339.3,220.8 337.0,222.0 335.2,223.0 C 335.2,223.0 333.3,224.0 331.2,225.0 L 329,226" stroke="#EF4444" stroke-width="2" fill="none" vector-effect="non-scaling-stroke"/><path d="M 329,226 C 328.5,226.5 328.0,227.0 327.5,227.3 C 327.5,227.3 327.0,227.7 325.8,228.3 C 325.8,228.3 324.7,229.0 323.5,229.7 C 323.5,229.7 322.3,230.3 321.2,231.0 C 321.2,231.0 320.0,231.7 319.2,232.3 C 319.2,232.3 318.3,233.0 317.5,233.7 C 317.5,233.7 316.7,234.3 316.2,235.3 C 316.2,235.3 315.7,236.3 315.2,237.5 C 315.2,237.5 314.7,238.7 314.5,239.8 C 314.5,239.8 314.3,241.0 314.3,242.0 C 314.3,242.0 314.3,243.0 314.7,244.0 C 314.7,244.0 315.0,245.0 315.5,246.0 C 315.5,246.0 316.0,247.0 316.5,247.8 C 316.5,247.8 317.0,248.7 317.5,249.5 C 317.5,249.5 318.0,250.3 318.3,251.2 C 318.3,251.2 318.7,252.0 318.8,252.8 C 318.8,252.8 319.0,253.7 319.0,254.5 C 319.0,254.5 319.0,255.3 318.8,256.0 C 318.8,256.0 318.7,256.7 318.3,257.3 C 318.3,257.3 318.0,258.0 317.3,258.5 C 317.3,258.5 316.7,259.0 315.8,259.7 C 315.8,259.7 315.0,260.3 313.8,261.2 C 313.8,261.2 312.7,262.0 311.2,263.0 C 311.2,263.0 309.7,264.0 308.0,265.2 C 308.0,265.2 306.3,266.3 304.3,267.7 C 304.3,267.7 302.3,269.0 300.2,270.7 C 300.2,270.7 298.0,272.3 295.3,274.3 C 295.3,274.3 292.7,276.3 289.8,278.5 C 289.8,278.5 287.0,280.7 283.8,283.0 C 283.8,283.0 280.7,285.3 277.2,287.8 C 277.2,287.8 273.7,290.3 270.0,293.0 C 270.0,293.0 266.3,295.7 262.7,298.5 C 262.7,298.5 259.0,301.3 255.5,304.0 C 255.5,304.0 252.0,306.7 249.0,309.0 C 249.0,309.0 246.0,311.3 243.5,313.2 C 243.5,313.2 241.0,315.0 239.3,316.3 C 239.3,316.3 237.7,317.7 236.3,318.7 C 236.3,318.7 235.0,319.7 234.0,320.3 C 234.0,320.3 233.0,321.0 232.0,321.7 C 232.0,321.7 231.0,322.3 230.2,323.0 C 230.2,323.0 229.3,323.7 228.7,324.3 C 228.7,324.3 228.0,325.0 227.5,325.5 C 227.5,325.5 227.0,326.0 226.5,326.5 C 226.5,326.5 226.0,327.0 225.5,327.5 C 225.5,327.5 225.0,328.0 224.5,328.5 C 224.5,328.5 224.0,329.0 223.5,329.3 C 223.5,329.3 223.0,329.7 222.5,329.8 C 222.5,329.8 222.0,330.0 221.5,330.0 C 221.5,330.0 221.0,330.0 220.5,329.8 C 220.5,329.8 220.0,329.7 219.5,329.3 C 219.5,329.3 219.0,329.0 218.5,328.5 C 218.5,328.5 218.0,328.0 217.7,327.5 C 217.7,327.5 217.3,327.0 217.0,326.5 C 217.0,326.5 216.7,326.0 216.3,325.3 C 216.3,325.3 216.0,324.7 215.7,323.8 C 215.7,323.8 215.3,323.0 215.0,321.8 C 215.0,321.8 214.7,320.7 214.3,319.3 C 214.3,319.3 214.0,318.0 213.3,316.3 C 213.3,316.3 212.7,314.7 211.8,312.5 C 211.8,312.5 211.0,310.3 210.2,307.8 C 210.2,307.8 209.3,305.3 208.5,302.3 C 208.5,302.3 207.7,299.3 206.8,296.3 C 206.8,296.3 206.0,293.3 205.2,290.5 C 205.2,290.5 204.3,287.7 203.7,285.7 C 203.7,285.7 203.0,283.7 202.5,282.3 C 202.5,282.3 202.0,281.0 201.7,280.0 C 201.7,280.0 201.3,279.0 201.0,278.0 C 201.0,278.0 200.7,277.0 200.5,276.0 C 200.5,276.0 200.3,275.0 200.0,274.2 C 200.0,274.2 199.7,273.3 199.3,272.7 C 199.3,272.7 199.0,272.0 198.5,271.5 C 198.5,271.5 198.0,271.0 197.5,270.5 C 197.5,270.5 197.0,270.0 196.5,269.7 C 196.5,269.7 196.0,269.3 195.3,269.2 C 195.3,269.2 194.7,269.0 193.5,268.7 C 193.5,268.7 192.3,268.3 191.2,267.8 C 191.2,267.8 190.0,267.3 188.8,266.7 C 188.8,266.7 187.7,266.0 187.0,265.7 C 187.0,265.7 186.3,265.3 185.5,265.0 C 185.5,265.0 184.7,264.7 184.0,264.5 C 184.0,264.5 183.3,264.3 182.5,264.2 C 182.5,264.2 181.7,264.0 180.8,264.0 C 180.8,264.0 180.0,264.0 179.0,264.0 C 179.0,264.0 178.0,264.0 177.2,264.0 C 177.2,264.0 176.3,264.0 175.7,264.0 C 175.7,264.0 175.0,264.0 174.5,264.0 C 174.5,264.0 174.0,264.0 173.5,264.0 C 173.5,264.0 173.0,264.0 172.5,264.0 C 172.5,264.0 172.0,264.0 171.5,263.8 C 171.5,263.8 171.0,263.7 170.5,263.5 C 170.5,263.5 170.0,263.3 169.5,263.0 C 169.5,263.0 169.0,262.7 168.7,262.3 C 168.7,262.3 168.3,262.0 168.0,261.5 C 168.0,261.5 167.7,261.0 167.5,260.3 C 167.5,260.3 167.3,259.7 167.0,258.8 C 167.0,258.8 166.7,258.0 166.3,256.8 C 166.3,256.8 166.0,255.7 165.5,254.5 C 165.5,254.5 165.0,253.3 164.3,252.0 C 164.3,252.0 163.7,250.7 162.8,249.7 C 162.8,249.7 162.0,248.7 161.0,247.8 C 161.0,247.8 160.0,247.0 159.0,246.5 C 159.0,246.5 158.0,246.0 157.0,245.8 C 157.0,245.8 156.0,245.7 154.8,245.7 C 154.8,245.7 153.7,245.7 152.3,246.0 C 152.3,246.0 151.0,246.3 149.3,246.8 C 149.3,246.8 147.7,247.3 145.8,248.0 C 145.8,248.0 144.0,248.7 141.8,249.3 C 141.8,249.3 139.7,250.0 137.3,250.7 C 137.3,250.7 135.0,251.3 132.3,252.2 C 132.3,252.2 129.7,253.0 127.0,254.2 C 127.0,254.2 124.3,255.3 121.5,256.5 C 121.5,256.5 118.7,257.7 115.7,259.0 C 115.7,259.0 112.7,260.3 109.3,261.7 C 109.3,261.7 106.0,263.0 102.5,264.7 C 102.5,264.7 99.0,266.3 95.3,268.2 C 95.3,268.2 91.7,270.0 87.8,272.0 C 87.8,272.0 84.0,274.0 80.2,276.0 C 80.2,276.0 76.3,278.0 72.7,280.0 C 72.7,280.0 69.0,282.0 65.8,283.8 C 65.8,283.8 62.7,285.7 59.8,287.3 C 59.8,287.3 57.0,289.0 54.7,290.7 C 54.7,290.7 52.3,292.3 50.3,294.3 C 50.3,294.3 48.3,296.3 46.8,298.7 C 46.8,298.7 45.3,301.0 44.2,303.5 C 44.2,303.5 43.0,306.0 42.0,308.5 C 42.0,308.5 41.0,311.0 40.2,313.5 C 40.2,313.5 39.3,316.0 38.5,318.7 C 38.5,318.7 37.7,321.3 36.8,324.2 C 36.8,324.2 36.0,327.0 35.0,330.0 C 35.0,330.0 34.0,333.0 33.0,336.0 C 33.0,336.0 32.0,339.0 31.2,341.7 C 31.2,341.7 30.3,344.3 29.5,346.8 C 29.5,346.8 28.7,349.3 28.0,351.5 C 28.0,351.5 27.3,353.7 26.8,356.0 C 26.8,356.0 26.3,358.3 26.2,360.5 C 26.2,360.5 26.0,362.7 26.0,365.0 C 26.0,365.0 26.0,367.3 26.2,369.8 C 26.2,369.8 26.3,372.3 26.5,375.3 C 26.5,375.3 26.7,378.3 26.8,381.7 C 26.8,381.7 27.0,385.0 27.2,388.2 C 27.2,388.2 27.3,391.3 27.5,394.2 C 27.5,394.2 27.7,397.0 27.8,399.2 C 27.8,399.2 28.0,401.3 28.0,403.3 C 28.0,403.3 28.0,405.3 28.2,407.0 C 28.2,407.0 28.3,408.7 28.5,410.5 C 28.5,410.5 28.7,412.3 28.8,414.0 C 28.8,414.0 29.0,415.7 29.0,417.3 C 29.0,417.3 29.0,419.0 29.0,420.3 C 29.0,420.3 29.0,421.7 29.0,422.8 C 29.0,422.8 29.0,424.0 28.8,425.0 C 28.8,425.0 28.7,426.0 28.5,426.8 C 28.5,426.8 28.3,427.7 28.3,428.3 C 28.3,428.3 28.3,429.0 28.5,429.5 C 28.5,429.5 28.7,430.0 29.0,430.5 C 29.0,430.5 29.3,431.0 29.7,431.5 C 29.7,431.5 30.0,432.0 30.5,432.5 C 30.5,432.5 31.0,433.0 31.7,433.3 C 31.7,433.3 32.3,433.7 33.2,434.2 C 33.2,434.2 34.0,434.7 35.3,435.2 C 35.3,435.2 36.7,435.7 38.3,436.5 C 38.3,436.5 40.0,437.3 42.2,438.3 C 42.2,438.3 44.3,439.3 46.7,440.7 C 46.7,440.7 49.0,442.0 51.7,443.5 C 51.7,443.5 54.3,445.0 57.3,446.7 C 57.3,446.7 60.3,448.3 63.7,450.2 C 63.7,450.2 67.0,452.0 70.7,454.0 C 70.7,454.0 74.3,456.0 78.2,458.0 C 78.2,458.0 82.0,460.0 86.2,462.0 C 86.2,462.0 90.3,464.0 94.3,466.0 C 94.3,466.0 98.3,468.0 101.8,469.8 C 101.8,469.8 105.3,471.7 107.8,473.2 C 107.8,473.2 110.3,474.7 113.2,476.3 L 116,478" stroke="#374151" stroke-width="8" fill="none" vector-effect="non-scaling-stroke"/><path d="M 329,226 C 328.5,226.5 328.0,227.0 327.5,227.3 C 327.5,227.3 327.0,227.7 325.8,228.3 C 325.8,228.3 324.7,229.0 323.5,229.7 C 323.5,229.7 322.3,230.3 321.2,231.0 C 321.2,231.0 320.0,231.7 319.2,232.3 C 319.2,232.3 318.3,233.0 317.5,233.7 C 317.5,233.7 316.7,234.3 316.2,235.3 C 316.2,235.3 315.7,236.3 315.2,237.5 C 315.2,237.5 314.7,238.7 314.5,239.8 C 314.5,239.8 314.3,241.0 314.3,242.0 C 314.3,242.0 314.3,243.0 314.7,244.0 C 314.7,244.0 315.0,245.0 315.5,246.0 C 315.5,246.0 316.0,247.0 316.5,247.8 C 316.5,247.8 317.0,248.7 317.5,249.5 C 317.5,249.5 318.0,250.3 318.3,251.2 C 318.3,251.2 318.7,252.0 318.8,252.8 C 318.8,252.8 319.0,253.7 319.0,254.5 C 319.0,254.5 319.0,255.3 318.8,256.0 C 318.8,256.0 318.7,256.7 318.3,257.3 C 318.3,257.3 318.0,258.0 317.3,258.5 C 317.3,258.5 316.7,259.0 315.8,259.7 C 315.8,259.7 315.0,260.3 313.8,261.2 C 313.8,261.2 312.7,262.0 311.2,263.0 C 311.2,263.0 309.7,264.0 308.0,265.2 C 308.0,265.2 306.3,266.3 304.3,267.7 C 304.3,267.7 302.3,269.0 300.2,270.7 C 300.2,270.7 298.0,272.3 295.3,274.3 C 295.3,274.3 292.7,276.3 289.8,278.5 C 289.8,278.5 287.0,280.7 283.8,283.0 C 283.8,283.0 280.7,285.3 277.2,287.8 C 277.2,287.8 273.7,290.3 270.0,293.0 C 270.0,293.0 266.3,295.7 262.7,298.5 C 262.7,298.5 259.0,301.3 255.5,304.0 C 255.5,304.0 252.0,306.7 249.0,309.0 C 249.0,309.0 246.0,311.3 243.5,313.2 C 243.5,313.2 241.0,315.0 239.3,316.3 C 239.3,316.3 237.7,317.7 236.3,318.7 C 236.3,318.7 235.0,319.7 234.0,320.3 C 234.0,320.3 233.0,321.0 232.0,321.7 C 232.0,321.7 231.0,322.3 230.2,323.0 C 230.2,323.0 229.3,323.7 228.7,324.3 C 228.7,324.3 228.0,325.0 227.5,325.5 C 227.5,325.5 227.0,326.0 226.5,326.5 C 226.5,326.5 226.0,327.0 225.5,327.5 C 225.5,327.5 225.0,328.0 224.5,328.5 C 224.5,328.5 224.0,329.0 223.5,329.3 C 223.5,329.3 223.0,329.7 222.5,329.8 C 222.5,329.8 222.0,330.0 221.5,330.0 C 221.5,330.0 221.0,330.0 220.5,329.8 C 220.5,329.8 220.0,329.7 219.5,329.3 C 219.5,329.3 219.0,329.0 218.5,328.5 C 218.5,328.5 218.0,328.0 217.7,327.5 C 217.7,327.5 217.3,327.0 217.0,326.5 C 217.0,326.5 216.7,326.0 216.3,325.3 C 216.3,325.3 216.0,324.7 215.7,323.8 C 215.7,323.8 215.3,323.0 215.0,321.8 C 215.0,321.8 214.7,320.7 214.3,319.3 C 214.3,319.3 214.0,318.0 213.3,316.3 C 213.3,316.3 212.7,314.7 211.8,312.5 C 211.8,312.5 211.0,310.3 210.2,307.8 C 210.2,307.8 209.3,305.3 208.5,302.3 C 208.5,302.3 207.7,299.3 206.8,296.3 C 206.8,296.3 206.0,293.3 205.2,290.5 C 205.2,290.5 204.3,287.7 203.7,285.7 C 203.7,285.7 203.0,283.7 202.5,282.3 C 202.5,282.3 202.0,281.0 201.7,280.0 C 201.7,280.0 201.3,279.0 201.0,278.0 C 201.0,278.0 200.7,277.0 200.5,276.0 C 200.5,276.0 200.3,275.0 200.0,274.2 C 200.0,274.2 199.7,273.3 199.3,272.7 C 199.3,272.7 199.0,272.0 198.5,271.5 C 198.5,271.5 198.0,271.0 197.5,270.5 C 197.5,270.5 197.0,270.0 196.5,269.7 C 196.5,269.7 196.0,269.3 195.3,269.2 C 195.3,269.2 194.7,269.0 193.5,268.7 C 193.5,268.7 192.3,268.3 191.2,267.8 C 191.2,267.8 190.0,267.3 188.8,266.7 C 188.8,266.7 187.7,266.0 187.0,265.7 C 187.0,265.7 186.3,265.3 185.5,265.0 C 185.5,265.0 184.7,264.7 184.0,264.5 C 184.0,264.5 183.3,264.3 182.5,264.2 C 182.5,264.2 181.7,264.0 180.8,264.0 C 180.8,264.0 180.0,264.0 179.0,264.0 C 179.0,264.0 178.0,264.0 177.2,264.0 C 177.2,264.0 176.3,264.0 175.7,264.0 C 175.7,264.0 175.0,264.0 174.5,264.0 C 174.5,264.0 174.0,264.0 173.5,264.0 C 173.5,264.0 173.0,264.0 172.5,264.0 C 172.5,264.0 172.0,264.0 171.5,263.8 C 171.5,263.8 171.0,263.7 170.5,263.5 C 170.5,263.5 170.0,263.3 169.5,263.0 C 169.5,263.0 169.0,262.7 168.7,262.3 C 168.7,262.3 168.3,262.0 168.0,261.5 C 168.0,261.5 167.7,261.0 167.5,260.3 C 167.5,260.3 167.3,259.7 167.0,258.8 C 167.0,258.8 166.7,258.0 166.3,256.8 C 166.3,256.8 166.0,255.7 165.5,254.5 C 165.5,254.5 165.0,253.3 164.3,252.0 C 164.3,252.0 163.7,250.7 162.8,249.7 C 162.8,249.7 162.0,248.7 161.0,247.8 C 161.0,247.8 160.0,247.0 159.0,246.5 C 159.0,246.5 158.0,246.0 157.0,245.8 C 157.0,245.8 156.0,245.7 154.8,245.7 C 154.8,245.7 153.7,245.7 152.3,246.0 C 152.3,246.0 151.0,246.3 149.3,246.8 C 149.3,246.8 147.7,247.3 145.8,248.0 C 145.8,248.0 144.0,248.7 141.8,249.3 C 141.8,249.3 139.7,250.0 137.3,250.7 C 137.3,250.7 135.0,251.3 132.3,252.2 C 132.3,252.2 129.7,253.0 127.0,254.2 C 127.0,254.2 124.3,255.3 121.5,256.5 C 121.5,256.5 118.7,257.7 115.7,259.0 C 115.7,259.0 112.7,260.3 109.3,261.7 C 109.3,261.7 106.0,263.0 102.5,264.7 C 102.5,264.7 99.0,266.3 95.3,268.2 C 95.3,268.2 91.7,270.0 87.8,272.0 C 87.8,272.0 84.0,274.0 80.2,276.0 C 80.2,276.0 76.3,278.0 72.7,280.0 C 72.7,280.0 69.0,282.0 65.8,283.8 C 65.8,283.8 62.7,285.7 59.8,287.3 C 59.8,287.3 57.0,289.0 54.7,290.7 C 54.7,290.7 52.3,292.3 50.3,294.3 C 50.3,294.3 48.3,296.3 46.8,298.7 C 46.8,298.7 45.3,301.0 44.2,303.5 C 44.2,303.5 43.0,306.0 42.0,308.5 C 42.0,308.5 41.0,311.0 40.2,313.5 C 40.2,313.5 39.3,316.0 38.5,318.7 C 38.5,318.7 37.7,321.3 36.8,324.2 C 36.8,324.2 36.0,327.0 35.0,330.0 C 35.0,330.0 34.0,333.0 33.0,336.0 C 33.0,336.0 32.0,339.0 31.2,341.7 C 31.2,341.7 30.3,344.3 29.5,346.8 C 29.5,346.8 28.7,349.3 28.0,351.5 C 28.0,351.5 27.3,353.7 26.8,356.0 C 26.8,356.0 26.3,358.3 26.2,360.5 C 26.2,360.5 26.0,362.7 26.0,365.0 C 26.0,365.0 26.0,367.3 26.2,369.8 C 26.2,369.8 26.3,372.3 26.5,375.3 C 26.5,375.3 26.7,378.3 26.8,381.7 C 26.8,381.7 27.0,385.0 27.2,388.2 C 27.2,388.2 27.3,391.3 27.5,394.2 C 27.5,394.2 27.7,397.0 27.8,399.2 C 27.8,399.2 28.0,401.3 28.0,403.3 C 28.0,403.3 28.0,405.3 28.2,407.0 C 28.2,407.0 28.3,408.7 28.5,410.5 C 28.5,410.5 28.7,412.3 28.8,414.0 C 28.8,414.0 29.0,415.7 29.0,417.3 C 29.0,417.3 29.0,419.0 29.0,420.3 C 29.0,420.3 29.0,421.7 29.0,422.8 C 29.0,422.8 29.0,424.0 28.8,425.0 C 28.8,425.0 28.7,426.0 28.5,426.8 C 28.5,426.8 28.3,427.7 28.3,428.3 C 28.3,428.3 28.3,429.0 28.5,429.5 C 28.5,429.5 28.7,430.0 29.0,430.5 C 29.0,430.5 29.3,431.0 29.7,431.5 C 29.7,431.5 30.0,432.0 30.5,432.5 C 30.5,432.5 31.0,433.0 31.7,433.3 C 31.7,433.3 32.3,433.7 33.2,434.2 C 33.2,434.2 34.0,434.7 35.3,435.2 C 35.3,435.2 36.7,435.7 38.3,436.5 C 38.3,436.5 40.0,437.3 42.2,438.3 C 42.2,438.3 44.3,439.3 46.7,440.7 C 46.7,440.7 49.0,442.0 51.7,443.5 C 51.7,443.5 54.3,445.0 57.3,446.7 C 57.3,446.7 60.3,448.3 63.7,450.2 C 63.7,450.2 67.0,452.0 70.7,454.0 C 70.7,454.0 74.3,456.0 78.2,458.0 C 78.2,458.0 82.0,460.0 86.2,462.0 C 86.2,462.0 90.3,464.0 94.3,466.0 C 94.3,466.0 98.3,468.0 101.8,469.8 C 101.8,469.8 105.3,471.7 107.8,473.2 C 107.8,473.2 110.3,474.7 113.2,476.3 L 116,478" stroke="#3B82F6" stroke-width="2" fill="none" vector-effect="non-scaling-stroke"/><path d="M 116,478 C 116.5,478.5 117.0,479.0 117.7,479.3 C 117.7,479.3 118.3,479.7 119.3,480.3 C 119.3,480.3 120.3,481.0 121.5,481.3 C 121.5,481.3 122.7,481.7 123.7,481.8 C 123.7,481.8 124.7,482.0 125.8,481.8 C 125.8,481.8 127.0,481.7 128.2,481.2 C 128.2,481.2 129.3,480.7 130.3,479.8 C 130.3,479.8 131.3,479.0 132.2,477.8 C 132.2,477.8 133.0,476.7 133.5,475.3 C 133.5,475.3 134.0,474.0 134.7,472.5 C 134.7,472.5 135.3,471.0 136.2,469.2 C 136.2,469.2 137.0,467.3 138.0,465.2 C 138.0,465.2 139.0,463.0 140.2,460.5 C 140.2,460.5 141.3,458.0 142.7,455.2 C 142.7,455.2 144.0,452.3 145.7,449.2 C 145.7,449.2 147.3,446.0 149.2,442.5 C 149.2,442.5 151.0,439.0 153.2,435.5 C 153.2,435.5 155.3,432.0 157.8,428.8 C 157.8,428.8 160.3,425.7 163.2,422.8 C 163.2,422.8 166.0,420.0 169.0,417.5 C 169.0,417.5 172.0,415.0 174.8,412.3 C 174.8,412.3 177.7,409.7 180.5,407.0 C 180.5,407.0 183.3,404.3 186.2,401.7 C 186.2,401.7 189.0,399.0 191.8,396.7 C 191.8,396.7 194.7,394.3 197.3,392.0 C 197.3,392.0 200.0,389.7 202.3,387.5 C 202.3,387.5 204.7,385.3 206.7,383.3 C 206.7,383.3 208.7,381.3 210.2,379.7 C 210.2,379.7 211.7,378.0 212.8,376.3 C 212.8,376.3 214.0,374.7 214.8,372.8 C 214.8,372.8 215.7,371.0 216.3,369.0 C 216.3,369.0 217.0,367.0 217.3,364.8 C 217.3,364.8 217.7,362.7 218.0,360.3 C 218.0,360.3 218.3,358.0 218.7,355.3 C 218.7,355.3 219.0,352.7 219.7,350.0 C 219.7,350.0 220.3,347.3 221.2,344.7 C 221.2,344.7 222.0,342.0 223.0,339.7 C 223.0,339.7 224.0,337.3 225.3,335.0 C 225.3,335.0 226.7,332.7 228.3,330.7 C 228.3,330.7 230.0,328.7 232.0,326.7 C 232.0,326.7 234.0,324.7 236.2,322.8 C 236.2,322.8 238.3,321.0 240.8,319.0 C 240.8,319.0 243.3,317.0 246.2,315.0 C 246.2,315.0 249.0,313.0 252.0,310.8 C 252.0,310.8 255.0,308.7 258.2,306.3 C 258.2,306.3 261.3,304.0 264.7,301.5 C 264.7,301.5 268.0,299.0 271.5,296.3 C 271.5,296.3 275.0,293.7 278.7,290.8 C 278.7,290.8 282.3,288.0 285.8,285.3 C 285.8,285.3 289.3,282.7 292.7,280.2 C 292.7,280.2 296.0,277.7 299.0,275.5 C 299.0,275.5 302.0,273.3 305.0,271.3 C 305.0,271.3 308.0,269.3 311.0,267.7 C 311.0,267.7 314.0,266.0 317.0,264.5 C 317.0,264.5 320.0,263.0 323.2,261.5 C 323.2,261.5 326.3,260.0 329.7,258.5 C 329.7,258.5 333.0,257.0 336.7,255.5 C 336.7,255.5 340.3,254.0 344.2,252.5 C 344.2,252.5 348.0,251.0 352.2,249.3 C 352.2,249.3 356.3,247.7 360.7,246.0 C 360.7,246.0 365.0,244.3 369.7,242.5 C 369.7,242.5 374.3,240.7 379.2,238.8 C 379.2,238.8 384.0,237.0 389.0,235.0 C 389.0,235.0 394.0,233.0 399.0,231.0 C 399.0,231.0 404.0,229.0 409.0,227.0 C 409.0,227.0 414.0,225.0 419.2,222.8 C 419.2,222.8 424.3,220.7 429.5,218.5 C 429.5,218.5 434.7,216.3 440.0,214.2 C 440.0,214.2 445.3,212.0 450.7,209.8 C 450.7,209.8 456.0,207.7 461.5,205.5 C 461.5,205.5 467.0,203.3 472.7,201.0 C 472.7,201.0 478.3,198.7 484.0,196.5 C 484.0,196.5 489.7,194.3 495.3,192.0 C 495.3,192.0 501.0,189.7 507.0,187.3 C 507.0,187.3 513.0,185.0 519.0,182.5 C 519.0,182.5 525.0,180.0 531.2,177.7 C 531.2,177.7 537.3,175.3 543.3,173.0 C 543.3,173.0 549.3,170.7 555.5,168.3 C 555.5,168.3 561.7,166.0 572.8,161.5 L 584,157" stroke="#374151" stroke-width="8" fill="none" vector-effect="non-scaling-stroke"/><path d="M 116,478 C 116.5,478.5 117.0,479.0 117.7,479.3 C 117.7,479.3 118.3,479.7 119.3,480.3 C 119.3,480.3 120.3,481.0 121.5,481.3 C 121.5,481.3 122.7,481.7 123.7,481.8 C 123.7,481.8 124.7,482.0 125.8,481.8 C 125.8,481.8 127.0,481.7 128.2,481.2 C 128.2,481.2 129.3,480.7 130.3,479.8 C 130.3,479.8 131.3,479.0 132.2,477.8 C 132.2,477.8 133.0,476.7 133.5,475.3 C 133.5,475.3 134.0,474.0 134.7,472.5 C 134.7,472.5 135.3,471.0 136.2,469.2 C 136.2,469.2 137.0,467.3 138.0,465.2 C 138.0,465.2 139.0,463.0 140.2,460.5 C 140.2,460.5 141.3,458.0 142.7,455.2 C 142.7,455.2 144.0,452.3 145.7,449.2 C 145.7,449.2 147.3,446.0 149.2,442.5 C 149.2,442.5 151.0,439.0 153.2,435.5 C 153.2,435.5 155.3,432.0 157.8,428.8 C 157.8,428.8 160.3,425.7 163.2,422.8 C 163.2,422.8 166.0,420.0 169.0,417.5 C 169.0,417.5 172.0,415.0 174.8,412.3 C 174.8,412.3 177.7,409.7 180.5,407.0 C 180.5,407.0 183.3,404.3 186.2,401.7 C 186.2,401.7 189.0,399.0 191.8,396.7 C 191.8,396.7 194.7,394.3 197.3,392.0 C 197.3,392.0 200.0,389.7 202.3,387.5 C 202.3,387.5 204.7,385.3 206.7,383.3 C 206.7,383.3 208.7,381.3 210.2,379.7 C 210.2,379.7 211.7,378.0 212.8,376.3 C 212.8,376.3 214.0,374.7 214.8,372.8 C 214.8,372.8 215.7,371.0 216.3,369.0 C 216.3,369.0 217.0,367.0 217.3,364.8 C 217.3,364.8 217.7,362.7 218.0,360.3 C 218.0,360.3 218.3,358.0 218.7,355.3 C 218.7,355.3 219.0,352.7 219.7,350.0 C 219.7,350.0 220.3,347.3 221.2,344.7 C 221.2,344.7 222.0,342.0 223.0,339.7 C 223.0,339.7 224.0,337.3 225.3,335.0 C 225.3,335.0 226.7,332.7 228.3,330.7 C 228.3,330.7 230.0,328.7 232.0,326.7 C 232.0,326.7 234.0,324.7 236.2,322.8 C 236.2,322.8 238.3,321.0 240.8,319.0 C 240.8,319.0 243.3,317.0 246.2,315.0 C 246.2,315.0 249.0,313.0 252.0,310.8 C 252.0,310.8 255.0,308.7 258.2,306.3 C 258.2,306.3 261.3,304.0 264.7,301.5 C 264.7,301.5 268.0,299.0 271.5,296.3 C 271.5,296.3 275.0,293.7 278.7,290.8 C 278.7,290.8 282.3,288.0 285.8,285.3 C 285.8,285.3 289.3,282.7 292.7,280.2 C 292.7,280.2 296.0,277.7 299.0,275.5 C 299.0,275.5 302.0,273.3 305.0,271.3 C 305.0,271.3 308.0,269.3 311.0,267.7 C 311.0,267.7 314.0,266.0 317.0,264.5 C 317.0,264.5 320.0,263.0 323.2,261.5 C 323.2,261.5 326.3,260.0 329.7,258.5 C 329.7,258.5 333.0,257.0 336.7,255.5 C 336.7,255.5 340.3,254.0 344.2,252.5 C 344.2,252.5 348.0,251.0 352.2,249.3 C 352.2,249.3 356.3,247.7 360.7,246.0 C 360.7,246.0 365.0,244.3 369.7,242.5 C 369.7,242.5 374.3,240.7 379.2,238.8 C 379.2,238.8 384.0,237.0 389.0,235.0 C 389.0,235.0 394.0,233.0 399.0,231.0 C 399.0,231.0 404.0,229.0 409.0,227.0 C 409.0,227.0 414.0,225.0 419.2,222.8 C 419.2,222.8 424.3,220.7 429.5,218.5 C 429.5,218.5 434.7,216.3 440.0,214.2 C 440.0,214.2 445.3,212.0 450.7,209.8 C 450.7,209.8 456.0,207.7 461.5,205.5 C 461.5,205.5 467.0,203.3 472.7,201.0 C 472.7,201.0 478.3,198.7 484.0,196.5 C 484.0,196.5 489.7,194.3 495.3,192.0 C 495.3,192.0 501.0,189.7 507.0,187.3 C 507.0,187.3 513.0,185.0 519.0,182.5 C 519.0,182.5 525.0,180.0 531.2,177.7 C 531.2,177.7 537.3,175.3 543.3,173.0 C 543.3,173.0 549.3,170.7 555.5,168.3 C 555.5,168.3 561.7,166.0 572.8,161.5 L 584,157" stroke="#FBBF24" stroke-width="2" fill="none" vector-effect="non-scaling-stroke"/>
    <g id="moving-circle-group">
        <circle cx="584" cy="157" r="20" fill="#000000" vector-effect="non-scaling-stroke"/>
        <circle cx="584" cy="157" r="7" fill="#FFFFFF" vector-effect="non-scaling-stroke"/>
    </g></svg>