<svg id="minimap-svg" width="100%" height="100%" viewBox="0 0 474 700" xmlns="http://www.w3.org/2000/svg"><path d="M 21,427 C 21.2,421.8 21.5,416.5 21.8,411.2 C 21.8,411.2 22.0,406.0 22.5,395.3 C 22.5,395.3 23.0,384.7 23.5,374.2 C 23.5,374.2 24.0,363.7 24.3,353.0 C 24.3,353.0 24.7,342.3 25.0,331.7 C 25.0,331.7 25.3,321.0 25.8,310.0 C 25.8,310.0 26.3,299.0 26.8,287.8 C 26.8,287.8 27.3,276.7 27.8,265.7 C 27.8,265.7 28.3,254.7 28.7,244.2 C 28.7,244.2 29.0,233.7 29.3,223.8 C 29.3,223.8 29.7,214.0 30.0,204.7 C 30.0,204.7 30.3,195.3 30.7,186.5 C 30.7,186.5 31.0,177.7 31.5,169.2 C 31.5,169.2 32.0,160.7 32.3,152.5 C 32.3,152.5 32.7,144.3 33.0,136.2 C 33.0,136.2 33.3,128.0 33.5,120.5 C 33.5,120.5 33.7,113.0 34.0,106.2 C 34.0,106.2 34.3,99.3 34.5,93.5 C 34.5,93.5 34.7,87.7 34.8,82.5 C 34.8,82.5 35.0,77.3 35.0,72.7 C 35.0,72.7 35.0,68.0 35.2,63.8 C 35.2,63.8 35.3,59.7 35.5,55.8 C 35.5,55.8 35.7,52.0 35.8,48.7 C 35.8,48.7 36.0,45.3 36.0,42.2 C 36.0,42.2 36.0,39.0 36.3,36.3 C 36.3,36.3 36.7,33.7 37.0,31.2 C 37.0,31.2 37.3,28.7 38.0,26.5 C 38.0,26.5 38.7,24.3 39.5,22.3 C 39.5,22.3 40.3,20.3 41.8,19.2 C 41.8,19.2 43.3,18.0 45.0,17.5 C 45.0,17.5 46.7,17.0 48.3,17.3 C 48.3,17.3 50.0,17.7 51.3,18.3 C 51.3,18.3 52.7,19.0 54.2,20.3 C 54.2,20.3 55.7,21.7 57.3,23.3 C 57.3,23.3 59.0,25.0 61.2,27.0 C 61.2,27.0 63.3,29.0 65.5,31.2 C 65.5,31.2 67.7,33.3 69.8,35.5 C 69.8,35.5 72.0,37.7 74.0,39.7 C 74.0,39.7 76.0,41.7 78.0,43.2 C 78.0,43.2 80.0,44.7 82.2,45.5 C 82.2,45.5 84.3,46.3 86.7,46.7 C 86.7,46.7 89.0,47.0 91.5,46.8 C 91.5,46.8 94.0,46.7 96.8,46.2 C 96.8,46.2 99.7,45.7 102.8,44.8 C 102.8,44.8 106.0,44.0 109.8,42.8 C 109.8,42.8 113.7,41.7 118.0,40.3 C 118.0,40.3 122.3,39.0 127.2,37.7 C 127.2,37.7 132.0,36.3 136.8,35.3 C 136.8,35.3 141.7,34.3 146.3,33.8 C 146.3,33.8 151.0,33.3 155.5,33.5 C 155.5,33.5 160.0,33.7 164.7,34.2 C 164.7,34.2 169.3,34.7 174.5,35.5 C 174.5,35.5 179.7,36.3 185.5,37.2 C 185.5,37.2 191.3,38.0 197.7,39.2 C 197.7,39.2 204.0,40.3 210.8,41.7 C 210.8,41.7 217.7,43.0 225.0,44.5 C 225.0,44.5 232.3,46.0 240.2,47.5 C 240.2,47.5 248.0,49.0 256.2,50.5 C 256.2,50.5 264.3,52.0 272.7,53.7 C 272.7,53.7 281.0,55.3 289.8,57.2 C 289.8,57.2 298.7,59.0 307.8,60.8 C 307.8,60.8 317.0,62.7 326.5,64.5 C 326.5,64.5 336.0,66.3 345.5,68.2 C 345.5,68.2 355.0,70.0 364.2,71.8 C 364.2,71.8 373.3,73.7 381.5,75.3 C 381.5,75.3 389.7,77.0 396.7,78.3 C 396.7,78.3 403.7,79.7 409.5,80.8 C 409.5,80.8 415.3,82.0 420.5,83.0 C 420.5,83.0 425.7,84.0 429.8,84.8 C 429.8,84.8 434.0,85.7 437.3,86.3 C 437.3,86.3 440.7,87.0 443.5,87.7 C 443.5,87.7 446.3,88.3 449.0,89.2 C 449.0,89.2 451.7,90.0 454.0,91.2 C 454.0,91.2 456.3,92.3 457.8,94.0 C 457.8,94.0 459.3,95.7 460.0,97.7 C 460.0,97.7 460.7,99.7 460.7,102.2 C 460.7,102.2 460.7,104.7 460.3,107.3 C 460.3,107.3 460.0,110.0 459.2,113.2 C 459.2,113.2 458.3,116.3 456.8,119.3 C 456.8,119.3 455.3,122.3 453.0,125.0 C 453.0,125.0 450.7,127.7 447.7,130.0 C 447.7,130.0 444.7,132.3 441.2,134.8 C 441.2,134.8 437.7,137.3 433.7,140.5 C 433.7,140.5 429.7,143.7 425.2,147.3 C 425.2,147.3 420.7,151.0 416.0,155.2 C 416.0,155.2 411.3,159.3 406.7,163.5 C 406.7,163.5 402.0,167.7 397.7,172.0 C 397.7,172.0 393.3,176.3 389.2,180.5 C 389.2,180.5 385.0,184.7 378.0,193.3 L 371,202" stroke="#374151" stroke-width="8" fill="none" vector-effect="non-scaling-stroke"/><path d="M 21,427 C 21.2,421.8 21.5,416.5 21.8,411.2 C 21.8,411.2 22.0,406.0 22.5,395.3 C 22.5,395.3 23.0,384.7 23.5,374.2 C 23.5,374.2 24.0,363.7 24.3,353.0 C 24.3,353.0 24.7,342.3 25.0,331.7 C 25.0,331.7 25.3,321.0 25.8,310.0 C 25.8,310.0 26.3,299.0 26.8,287.8 C 26.8,287.8 27.3,276.7 27.8,265.7 C 27.8,265.7 28.3,254.7 28.7,244.2 C 28.7,244.2 29.0,233.7 29.3,223.8 C 29.3,223.8 29.7,214.0 30.0,204.7 C 30.0,204.7 30.3,195.3 30.7,186.5 C 30.7,186.5 31.0,177.7 31.5,169.2 C 31.5,169.2 32.0,160.7 32.3,152.5 C 32.3,152.5 32.7,144.3 33.0,136.2 C 33.0,136.2 33.3,128.0 33.5,120.5 C 33.5,120.5 33.7,113.0 34.0,106.2 C 34.0,106.2 34.3,99.3 34.5,93.5 C 34.5,93.5 34.7,87.7 34.8,82.5 C 34.8,82.5 35.0,77.3 35.0,72.7 C 35.0,72.7 35.0,68.0 35.2,63.8 C 35.2,63.8 35.3,59.7 35.5,55.8 C 35.5,55.8 35.7,52.0 35.8,48.7 C 35.8,48.7 36.0,45.3 36.0,42.2 C 36.0,42.2 36.0,39.0 36.3,36.3 C 36.3,36.3 36.7,33.7 37.0,31.2 C 37.0,31.2 37.3,28.7 38.0,26.5 C 38.0,26.5 38.7,24.3 39.5,22.3 C 39.5,22.3 40.3,20.3 41.8,19.2 C 41.8,19.2 43.3,18.0 45.0,17.5 C 45.0,17.5 46.7,17.0 48.3,17.3 C 48.3,17.3 50.0,17.7 51.3,18.3 C 51.3,18.3 52.7,19.0 54.2,20.3 C 54.2,20.3 55.7,21.7 57.3,23.3 C 57.3,23.3 59.0,25.0 61.2,27.0 C 61.2,27.0 63.3,29.0 65.5,31.2 C 65.5,31.2 67.7,33.3 69.8,35.5 C 69.8,35.5 72.0,37.7 74.0,39.7 C 74.0,39.7 76.0,41.7 78.0,43.2 C 78.0,43.2 80.0,44.7 82.2,45.5 C 82.2,45.5 84.3,46.3 86.7,46.7 C 86.7,46.7 89.0,47.0 91.5,46.8 C 91.5,46.8 94.0,46.7 96.8,46.2 C 96.8,46.2 99.7,45.7 102.8,44.8 C 102.8,44.8 106.0,44.0 109.8,42.8 C 109.8,42.8 113.7,41.7 118.0,40.3 C 118.0,40.3 122.3,39.0 127.2,37.7 C 127.2,37.7 132.0,36.3 136.8,35.3 C 136.8,35.3 141.7,34.3 146.3,33.8 C 146.3,33.8 151.0,33.3 155.5,33.5 C 155.5,33.5 160.0,33.7 164.7,34.2 C 164.7,34.2 169.3,34.7 174.5,35.5 C 174.5,35.5 179.7,36.3 185.5,37.2 C 185.5,37.2 191.3,38.0 197.7,39.2 C 197.7,39.2 204.0,40.3 210.8,41.7 C 210.8,41.7 217.7,43.0 225.0,44.5 C 225.0,44.5 232.3,46.0 240.2,47.5 C 240.2,47.5 248.0,49.0 256.2,50.5 C 256.2,50.5 264.3,52.0 272.7,53.7 C 272.7,53.7 281.0,55.3 289.8,57.2 C 289.8,57.2 298.7,59.0 307.8,60.8 C 307.8,60.8 317.0,62.7 326.5,64.5 C 326.5,64.5 336.0,66.3 345.5,68.2 C 345.5,68.2 355.0,70.0 364.2,71.8 C 364.2,71.8 373.3,73.7 381.5,75.3 C 381.5,75.3 389.7,77.0 396.7,78.3 C 396.7,78.3 403.7,79.7 409.5,80.8 C 409.5,80.8 415.3,82.0 420.5,83.0 C 420.5,83.0 425.7,84.0 429.8,84.8 C 429.8,84.8 434.0,85.7 437.3,86.3 C 437.3,86.3 440.7,87.0 443.5,87.7 C 443.5,87.7 446.3,88.3 449.0,89.2 C 449.0,89.2 451.7,90.0 454.0,91.2 C 454.0,91.2 456.3,92.3 457.8,94.0 C 457.8,94.0 459.3,95.7 460.0,97.7 C 460.0,97.7 460.7,99.7 460.7,102.2 C 460.7,102.2 460.7,104.7 460.3,107.3 C 460.3,107.3 460.0,110.0 459.2,113.2 C 459.2,113.2 458.3,116.3 456.8,119.3 C 456.8,119.3 455.3,122.3 453.0,125.0 C 453.0,125.0 450.7,127.7 447.7,130.0 C 447.7,130.0 444.7,132.3 441.2,134.8 C 441.2,134.8 437.7,137.3 433.7,140.5 C 433.7,140.5 429.7,143.7 425.2,147.3 C 425.2,147.3 420.7,151.0 416.0,155.2 C 416.0,155.2 411.3,159.3 406.7,163.5 C 406.7,163.5 402.0,167.7 397.7,172.0 C 397.7,172.0 393.3,176.3 389.2,180.5 C 389.2,180.5 385.0,184.7 378.0,193.3 L 371,202" stroke="#EF4444" stroke-width="2" fill="none" vector-effect="non-scaling-stroke"/><path d="M 371,202 C 369.5,204.0 368.0,206.0 366.8,208.2 C 366.8,208.2 365.7,210.3 363.3,214.7 C 363.3,214.7 361.0,219.0 359.0,223.2 C 359.0,223.2 357.0,227.3 354.7,231.2 C 354.7,231.2 352.3,235.0 349.8,238.2 C 349.8,238.2 347.3,241.3 344.2,243.8 C 344.2,243.8 341.0,246.3 337.8,248.0 C 337.8,248.0 334.7,249.7 331.2,250.5 C 331.2,250.5 327.7,251.3 324.3,251.7 C 324.3,251.7 321.0,252.0 317.3,251.8 C 317.3,251.8 313.7,251.7 309.8,251.2 C 309.8,251.2 306.0,250.7 302.2,250.2 C 302.2,250.2 298.3,249.7 294.7,249.2 C 294.7,249.2 291.0,248.7 287.5,248.7 C 287.5,248.7 284.0,248.7 280.7,249.2 C 280.7,249.2 277.3,249.7 274.3,250.8 C 274.3,250.8 271.3,252.0 268.8,253.7 C 268.8,253.7 266.3,255.3 263.8,257.3 C 263.8,257.3 261.3,259.3 258.7,262.0 C 258.7,262.0 256.0,264.7 253.0,267.8 C 253.0,267.8 250.0,271.0 246.7,275.0 C 246.7,275.0 243.3,279.0 239.8,283.5 C 239.8,283.5 236.3,288.0 232.5,293.2 C 232.5,293.2 228.7,298.3 224.8,303.5 C 224.8,303.5 221.0,308.7 217.3,313.5 C 217.3,313.5 213.7,318.3 210.5,322.3 C 210.5,322.3 207.3,326.3 204.8,329.7 C 204.8,329.7 202.3,333.0 200.3,335.7 C 200.3,335.7 198.3,338.3 196.5,340.5 C 196.5,340.5 194.7,342.7 193.0,344.2 C 193.0,344.2 191.3,345.7 189.5,346.7 C 189.5,346.7 187.7,347.7 185.8,348.0 C 185.8,348.0 184.0,348.3 182.2,348.0 C 182.2,348.0 180.3,347.7 178.7,346.5 C 178.7,346.5 177.0,345.3 175.7,343.5 C 175.7,343.5 174.3,341.7 173.5,339.3 C 173.5,339.3 172.7,337.0 172.3,334.0 C 172.3,334.0 172.0,331.0 172.0,327.5 C 172.0,327.5 172.0,324.0 172.2,320.0 C 172.2,320.0 172.3,316.0 173.0,311.5 C 173.0,311.5 173.7,307.0 174.7,301.8 C 174.7,301.8 175.7,296.7 176.8,290.7 C 176.8,290.7 178.0,284.7 179.0,278.2 C 179.0,278.2 180.0,271.7 181.2,264.7 C 181.2,264.7 182.3,257.7 183.7,250.3 C 183.7,250.3 185.0,243.0 186.3,235.7 C 186.3,235.7 187.7,228.3 188.8,221.7 C 188.8,221.7 190.0,215.0 191.0,209.3 C 191.0,209.3 192.0,203.7 192.8,199.0 C 192.8,199.0 193.7,194.3 194.3,190.2 C 194.3,190.2 195.0,186.0 195.5,182.2 C 195.5,182.2 196.0,178.3 196.2,174.5 C 196.2,174.5 196.3,170.7 196.3,167.0 C 196.3,167.0 196.3,163.3 195.8,159.8 C 195.8,159.8 195.3,156.3 194.7,153.2 C 194.7,153.2 194.0,150.0 192.8,147.2 C 192.8,147.2 191.7,144.3 190.2,141.5 C 190.2,141.5 188.7,138.7 186.8,136.2 C 186.8,136.2 185.0,133.7 183.0,131.3 C 183.0,131.3 181.0,129.0 179.0,127.2 C 179.0,127.2 177.0,125.3 175.2,123.7 C 175.2,123.7 173.3,122.0 171.5,120.7 C 171.5,120.7 169.7,119.3 168.0,118.2 C 168.0,118.2 166.3,117.0 164.7,116.0 C 164.7,116.0 163.0,115.0 161.5,114.3 C 161.5,114.3 160.0,113.7 158.5,113.5 C 158.5,113.5 157.0,113.3 155.7,113.8 C 155.7,113.8 154.3,114.3 153.3,115.5 C 153.3,115.5 152.3,116.7 151.7,118.3 C 151.7,118.3 151.0,120.0 150.5,122.2 C 150.5,122.2 150.0,124.3 149.5,127.2 C 149.5,127.2 149.0,130.0 148.5,133.5 C 148.5,133.5 148.0,137.0 147.3,141.2 C 147.3,141.2 146.7,145.3 146.0,150.0 C 146.0,150.0 145.3,154.7 144.5,160.0 C 144.5,160.0 143.7,165.3 143.0,171.3 C 143.0,171.3 142.3,177.3 141.7,184.0 C 141.7,184.0 141.0,190.7 140.5,197.8 C 140.5,197.8 140.0,205.0 139.5,212.8 C 139.5,212.8 139.0,220.7 138.5,228.8 C 138.5,228.8 138.0,237.0 137.7,245.7 C 137.7,245.7 137.3,254.3 137.0,263.2 C 137.0,263.2 136.7,272.0 136.3,281.2 C 136.3,281.2 136.0,290.3 135.5,299.7 C 135.5,299.7 135.0,309.0 134.5,318.7 C 134.5,318.7 134.0,328.3 133.5,338.2 C 133.5,338.2 133.0,348.0 132.5,358.2 C 132.5,358.2 132.0,368.3 131.5,378.7 C 131.5,378.7 131.0,389.0 130.5,399.7 C 130.5,399.7 130.0,410.3 129.5,420.7 C 129.5,420.7 129.0,431.0 128.7,440.3 C 128.7,440.3 128.3,449.7 128.0,457.2 C 128.0,457.2 127.7,464.7 127.5,470.5 C 127.5,470.5 127.3,476.3 127.2,480.7 C 127.2,480.7 127.0,485.0 127.0,488.5 C 127.0,488.5 127.0,492.0 127.2,495.0 C 127.2,495.0 127.3,498.0 128.0,500.8 C 128.0,500.8 128.7,503.7 130.0,506.3 C 130.0,506.3 131.3,509.0 133.5,511.2 C 133.5,511.2 135.7,513.3 138.5,515.2 C 138.5,515.2 141.3,517.0 144.8,518.3 C 144.8,518.3 148.3,519.7 152.5,520.5 C 152.5,520.5 156.7,521.3 161.3,521.3 C 161.3,521.3 166.0,521.3 171.2,520.5 C 171.2,520.5 176.3,519.7 181.5,518.0 C 181.5,518.0 186.7,516.3 191.5,514.0 C 191.5,514.0 196.3,511.7 200.5,508.7 C 200.5,508.7 204.7,505.7 208.0,502.2 C 208.0,502.2 211.3,498.7 214.2,494.8 C 214.2,494.8 217.0,491.0 219.7,486.8 C 219.7,486.8 222.3,482.7 224.8,478.0 C 224.8,478.0 227.3,473.3 229.8,468.2 C 229.8,468.2 232.3,463.0 234.5,457.5 C 234.5,457.5 236.7,452.0 239.0,446.5 C 239.0,446.5 241.3,441.0 243.8,435.8 C 243.8,435.8 246.3,430.7 249.3,426.0 C 249.3,426.0 252.3,421.3 255.8,417.5 C 255.8,417.5 259.3,413.7 263.5,410.3 C 263.5,410.3 267.7,407.0 272.5,404.3 C 272.5,404.3 277.3,401.7 282.8,399.5 C 282.8,399.5 288.3,397.3 294.3,396.2 C 294.3,396.2 300.3,395.0 306.8,394.8 C 306.8,394.8 313.3,394.7 320.0,395.8 C 320.0,395.8 326.7,397.0 333.3,399.2 C 333.3,399.2 340.0,401.3 351.5,406.7 L 363,412" stroke="#374151" stroke-width="8" fill="none" vector-effect="non-scaling-stroke"/><path d="M 371,202 C 369.5,204.0 368.0,206.0 366.8,208.2 C 366.8,208.2 365.7,210.3 363.3,214.7 C 363.3,214.7 361.0,219.0 359.0,223.2 C 359.0,223.2 357.0,227.3 354.7,231.2 C 354.7,231.2 352.3,235.0 349.8,238.2 C 349.8,238.2 347.3,241.3 344.2,243.8 C 344.2,243.8 341.0,246.3 337.8,248.0 C 337.8,248.0 334.7,249.7 331.2,250.5 C 331.2,250.5 327.7,251.3 324.3,251.7 C 324.3,251.7 321.0,252.0 317.3,251.8 C 317.3,251.8 313.7,251.7 309.8,251.2 C 309.8,251.2 306.0,250.7 302.2,250.2 C 302.2,250.2 298.3,249.7 294.7,249.2 C 294.7,249.2 291.0,248.7 287.5,248.7 C 287.5,248.7 284.0,248.7 280.7,249.2 C 280.7,249.2 277.3,249.7 274.3,250.8 C 274.3,250.8 271.3,252.0 268.8,253.7 C 268.8,253.7 266.3,255.3 263.8,257.3 C 263.8,257.3 261.3,259.3 258.7,262.0 C 258.7,262.0 256.0,264.7 253.0,267.8 C 253.0,267.8 250.0,271.0 246.7,275.0 C 246.7,275.0 243.3,279.0 239.8,283.5 C 239.8,283.5 236.3,288.0 232.5,293.2 C 232.5,293.2 228.7,298.3 224.8,303.5 C 224.8,303.5 221.0,308.7 217.3,313.5 C 217.3,313.5 213.7,318.3 210.5,322.3 C 210.5,322.3 207.3,326.3 204.8,329.7 C 204.8,329.7 202.3,333.0 200.3,335.7 C 200.3,335.7 198.3,338.3 196.5,340.5 C 196.5,340.5 194.7,342.7 193.0,344.2 C 193.0,344.2 191.3,345.7 189.5,346.7 C 189.5,346.7 187.7,347.7 185.8,348.0 C 185.8,348.0 184.0,348.3 182.2,348.0 C 182.2,348.0 180.3,347.7 178.7,346.5 C 178.7,346.5 177.0,345.3 175.7,343.5 C 175.7,343.5 174.3,341.7 173.5,339.3 C 173.5,339.3 172.7,337.0 172.3,334.0 C 172.3,334.0 172.0,331.0 172.0,327.5 C 172.0,327.5 172.0,324.0 172.2,320.0 C 172.2,320.0 172.3,316.0 173.0,311.5 C 173.0,311.5 173.7,307.0 174.7,301.8 C 174.7,301.8 175.7,296.7 176.8,290.7 C 176.8,290.7 178.0,284.7 179.0,278.2 C 179.0,278.2 180.0,271.7 181.2,264.7 C 181.2,264.7 182.3,257.7 183.7,250.3 C 183.7,250.3 185.0,243.0 186.3,235.7 C 186.3,235.7 187.7,228.3 188.8,221.7 C 188.8,221.7 190.0,215.0 191.0,209.3 C 191.0,209.3 192.0,203.7 192.8,199.0 C 192.8,199.0 193.7,194.3 194.3,190.2 C 194.3,190.2 195.0,186.0 195.5,182.2 C 195.5,182.2 196.0,178.3 196.2,174.5 C 196.2,174.5 196.3,170.7 196.3,167.0 C 196.3,167.0 196.3,163.3 195.8,159.8 C 195.8,159.8 195.3,156.3 194.7,153.2 C 194.7,153.2 194.0,150.0 192.8,147.2 C 192.8,147.2 191.7,144.3 190.2,141.5 C 190.2,141.5 188.7,138.7 186.8,136.2 C 186.8,136.2 185.0,133.7 183.0,131.3 C 183.0,131.3 181.0,129.0 179.0,127.2 C 179.0,127.2 177.0,125.3 175.2,123.7 C 175.2,123.7 173.3,122.0 171.5,120.7 C 171.5,120.7 169.7,119.3 168.0,118.2 C 168.0,118.2 166.3,117.0 164.7,116.0 C 164.7,116.0 163.0,115.0 161.5,114.3 C 161.5,114.3 160.0,113.7 158.5,113.5 C 158.5,113.5 157.0,113.3 155.7,113.8 C 155.7,113.8 154.3,114.3 153.3,115.5 C 153.3,115.5 152.3,116.7 151.7,118.3 C 151.7,118.3 151.0,120.0 150.5,122.2 C 150.5,122.2 150.0,124.3 149.5,127.2 C 149.5,127.2 149.0,130.0 148.5,133.5 C 148.5,133.5 148.0,137.0 147.3,141.2 C 147.3,141.2 146.7,145.3 146.0,150.0 C 146.0,150.0 145.3,154.7 144.5,160.0 C 144.5,160.0 143.7,165.3 143.0,171.3 C 143.0,171.3 142.3,177.3 141.7,184.0 C 141.7,184.0 141.0,190.7 140.5,197.8 C 140.5,197.8 140.0,205.0 139.5,212.8 C 139.5,212.8 139.0,220.7 138.5,228.8 C 138.5,228.8 138.0,237.0 137.7,245.7 C 137.7,245.7 137.3,254.3 137.0,263.2 C 137.0,263.2 136.7,272.0 136.3,281.2 C 136.3,281.2 136.0,290.3 135.5,299.7 C 135.5,299.7 135.0,309.0 134.5,318.7 C 134.5,318.7 134.0,328.3 133.5,338.2 C 133.5,338.2 133.0,348.0 132.5,358.2 C 132.5,358.2 132.0,368.3 131.5,378.7 C 131.5,378.7 131.0,389.0 130.5,399.7 C 130.5,399.7 130.0,410.3 129.5,420.7 C 129.5,420.7 129.0,431.0 128.7,440.3 C 128.7,440.3 128.3,449.7 128.0,457.2 C 128.0,457.2 127.7,464.7 127.5,470.5 C 127.5,470.5 127.3,476.3 127.2,480.7 C 127.2,480.7 127.0,485.0 127.0,488.5 C 127.0,488.5 127.0,492.0 127.2,495.0 C 127.2,495.0 127.3,498.0 128.0,500.8 C 128.0,500.8 128.7,503.7 130.0,506.3 C 130.0,506.3 131.3,509.0 133.5,511.2 C 133.5,511.2 135.7,513.3 138.5,515.2 C 138.5,515.2 141.3,517.0 144.8,518.3 C 144.8,518.3 148.3,519.7 152.5,520.5 C 152.5,520.5 156.7,521.3 161.3,521.3 C 161.3,521.3 166.0,521.3 171.2,520.5 C 171.2,520.5 176.3,519.7 181.5,518.0 C 181.5,518.0 186.7,516.3 191.5,514.0 C 191.5,514.0 196.3,511.7 200.5,508.7 C 200.5,508.7 204.7,505.7 208.0,502.2 C 208.0,502.2 211.3,498.7 214.2,494.8 C 214.2,494.8 217.0,491.0 219.7,486.8 C 219.7,486.8 222.3,482.7 224.8,478.0 C 224.8,478.0 227.3,473.3 229.8,468.2 C 229.8,468.2 232.3,463.0 234.5,457.5 C 234.5,457.5 236.7,452.0 239.0,446.5 C 239.0,446.5 241.3,441.0 243.8,435.8 C 243.8,435.8 246.3,430.7 249.3,426.0 C 249.3,426.0 252.3,421.3 255.8,417.5 C 255.8,417.5 259.3,413.7 263.5,410.3 C 263.5,410.3 267.7,407.0 272.5,404.3 C 272.5,404.3 277.3,401.7 282.8,399.5 C 282.8,399.5 288.3,397.3 294.3,396.2 C 294.3,396.2 300.3,395.0 306.8,394.8 C 306.8,394.8 313.3,394.7 320.0,395.8 C 320.0,395.8 326.7,397.0 333.3,399.2 C 333.3,399.2 340.0,401.3 351.5,406.7 L 363,412" stroke="#3B82F6" stroke-width="2" fill="none" vector-effect="non-scaling-stroke"/><path d="M 363,412 C 365.5,413.2 368.0,414.5 370.3,415.8 C 370.3,415.8 372.7,417.0 377.3,419.5 C 377.3,419.5 382.0,422.0 386.2,424.7 C 386.2,424.7 390.3,427.3 394.0,430.2 C 394.0,430.2 397.7,433.0 400.7,436.2 C 400.7,436.2 403.7,439.3 406.2,442.7 C 406.2,442.7 408.7,446.0 410.5,449.5 C 410.5,449.5 412.3,453.0 413.2,456.5 C 413.2,456.5 414.0,460.0 413.5,463.2 C 413.5,463.2 413.0,466.3 411.3,469.3 C 411.3,469.3 409.7,472.3 407.2,475.2 C 407.2,475.2 404.7,478.0 401.3,481.0 C 401.3,481.0 398.0,484.0 393.8,487.0 C 393.8,487.0 389.7,490.0 384.8,493.2 C 384.8,493.2 380.0,496.3 374.7,499.5 C 374.7,499.5 369.3,502.7 363.5,506.2 C 363.5,506.2 357.7,509.7 351.2,513.2 C 351.2,513.2 344.7,516.7 337.8,520.5 C 337.8,520.5 331.0,524.3 323.8,528.3 C 323.8,528.3 316.7,532.3 309.3,536.7 C 309.3,536.7 302.0,541.0 294.3,545.3 C 294.3,545.3 286.7,549.7 278.8,554.2 C 278.8,554.2 271.0,558.7 262.8,563.2 C 262.8,563.2 254.7,567.7 246.3,572.5 C 246.3,572.5 238.0,577.3 229.5,582.2 C 229.5,582.2 221.0,587.0 212.3,592.0 C 212.3,592.0 203.7,597.0 194.8,602.0 C 194.8,602.0 186.0,607.0 177.0,612.0 C 177.0,612.0 168.0,617.0 159.0,622.0 C 159.0,622.0 150.0,627.0 140.8,632.0 C 140.8,632.0 131.7,637.0 122.5,642.0 C 122.5,642.0 113.3,647.0 104.8,651.7 C 104.8,651.7 96.3,656.3 89.2,660.3 C 89.2,660.3 82.0,664.3 76.3,667.3 C 76.3,667.3 70.7,670.3 66.2,672.7 C 66.2,672.7 61.7,675.0 58.2,676.7 C 58.2,676.7 54.7,678.3 51.8,679.7 C 51.8,679.7 49.0,681.0 46.7,681.7 C 46.7,681.7 44.3,682.3 42.0,682.5 C 42.0,682.5 39.7,682.7 37.7,682.2 C 37.7,682.2 35.7,681.7 33.8,680.7 C 33.8,680.7 32.0,679.7 30.5,678.2 C 30.5,678.2 29.0,676.7 27.5,674.7 C 27.5,674.7 26.0,672.7 24.3,670.2 C 24.3,670.2 22.7,667.7 21.0,664.5 C 21.0,664.5 19.3,661.3 17.8,657.5 C 17.8,657.5 16.3,653.7 15.3,649.0 C 15.3,649.0 14.3,644.3 13.8,639.2 C 13.8,639.2 13.3,634.0 13.3,628.0 C 13.3,628.0 13.3,622.0 13.5,615.5 C 13.5,615.5 13.7,609.0 14.0,602.0 C 14.0,602.0 14.3,595.0 14.5,587.5 C 14.5,587.5 14.7,580.0 15.0,572.2 C 15.0,572.2 15.3,564.3 15.5,555.8 C 15.5,555.8 15.7,547.3 16.0,538.7 C 16.0,538.7 16.3,530.0 16.5,521.0 C 16.5,521.0 16.7,512.0 17.2,502.8 C 17.2,502.8 17.7,493.7 18.0,484.3 C 18.0,484.3 18.3,475.0 18.8,465.2 C 18.8,465.2 19.3,455.3 20.2,441.2 L 21,427" stroke="#374151" stroke-width="8" fill="none" vector-effect="non-scaling-stroke"/><path d="M 363,412 C 365.5,413.2 368.0,414.5 370.3,415.8 C 370.3,415.8 372.7,417.0 377.3,419.5 C 377.3,419.5 382.0,422.0 386.2,424.7 C 386.2,424.7 390.3,427.3 394.0,430.2 C 394.0,430.2 397.7,433.0 400.7,436.2 C 400.7,436.2 403.7,439.3 406.2,442.7 C 406.2,442.7 408.7,446.0 410.5,449.5 C 410.5,449.5 412.3,453.0 413.2,456.5 C 413.2,456.5 414.0,460.0 413.5,463.2 C 413.5,463.2 413.0,466.3 411.3,469.3 C 411.3,469.3 409.7,472.3 407.2,475.2 C 407.2,475.2 404.7,478.0 401.3,481.0 C 401.3,481.0 398.0,484.0 393.8,487.0 C 393.8,487.0 389.7,490.0 384.8,493.2 C 384.8,493.2 380.0,496.3 374.7,499.5 C 374.7,499.5 369.3,502.7 363.5,506.2 C 363.5,506.2 357.7,509.7 351.2,513.2 C 351.2,513.2 344.7,516.7 337.8,520.5 C 337.8,520.5 331.0,524.3 323.8,528.3 C 323.8,528.3 316.7,532.3 309.3,536.7 C 309.3,536.7 302.0,541.0 294.3,545.3 C 294.3,545.3 286.7,549.7 278.8,554.2 C 278.8,554.2 271.0,558.7 262.8,563.2 C 262.8,563.2 254.7,567.7 246.3,572.5 C 246.3,572.5 238.0,577.3 229.5,582.2 C 229.5,582.2 221.0,587.0 212.3,592.0 C 212.3,592.0 203.7,597.0 194.8,602.0 C 194.8,602.0 186.0,607.0 177.0,612.0 C 177.0,612.0 168.0,617.0 159.0,622.0 C 159.0,622.0 150.0,627.0 140.8,632.0 C 140.8,632.0 131.7,637.0 122.5,642.0 C 122.5,642.0 113.3,647.0 104.8,651.7 C 104.8,651.7 96.3,656.3 89.2,660.3 C 89.2,660.3 82.0,664.3 76.3,667.3 C 76.3,667.3 70.7,670.3 66.2,672.7 C 66.2,672.7 61.7,675.0 58.2,676.7 C 58.2,676.7 54.7,678.3 51.8,679.7 C 51.8,679.7 49.0,681.0 46.7,681.7 C 46.7,681.7 44.3,682.3 42.0,682.5 C 42.0,682.5 39.7,682.7 37.7,682.2 C 37.7,682.2 35.7,681.7 33.8,680.7 C 33.8,680.7 32.0,679.7 30.5,678.2 C 30.5,678.2 29.0,676.7 27.5,674.7 C 27.5,674.7 26.0,672.7 24.3,670.2 C 24.3,670.2 22.7,667.7 21.0,664.5 C 21.0,664.5 19.3,661.3 17.8,657.5 C 17.8,657.5 16.3,653.7 15.3,649.0 C 15.3,649.0 14.3,644.3 13.8,639.2 C 13.8,639.2 13.3,634.0 13.3,628.0 C 13.3,628.0 13.3,622.0 13.5,615.5 C 13.5,615.5 13.7,609.0 14.0,602.0 C 14.0,602.0 14.3,595.0 14.5,587.5 C 14.5,587.5 14.7,580.0 15.0,572.2 C 15.0,572.2 15.3,564.3 15.5,555.8 C 15.5,555.8 15.7,547.3 16.0,538.7 C 16.0,538.7 16.3,530.0 16.5,521.0 C 16.5,521.0 16.7,512.0 17.2,502.8 C 17.2,502.8 17.7,493.7 18.0,484.3 C 18.0,484.3 18.3,475.0 18.8,465.2 C 18.8,465.2 19.3,455.3 20.2,441.2 L 21,427" stroke="#FBBF24" stroke-width="2" fill="none" vector-effect="non-scaling-stroke"/>
    <g id="moving-circle-group">
        <circle cx="21" cy="427" r="20" fill="#000000" vector-effect="non-scaling-stroke"/>
        <circle cx="21" cy="427" r="7" fill="#FFFFFF" vector-effect="non-scaling-stroke"/>
    </g></svg>