<svg id="minimap-svg" width="100%" height="100%" viewBox="0 0 449 700" xmlns="http://www.w3.org/2000/svg"><path d="M 52,493 C 53.5,499.0 55.0,505.0 56.5,510.8 C 56.5,510.8 58.0,516.7 60.8,528.5 C 60.8,528.5 63.7,540.3 66.5,552.0 C 66.5,552.0 69.3,563.7 72.3,575.5 C 72.3,575.5 75.3,587.3 78.3,598.5 C 78.3,598.5 81.3,609.7 84.0,619.7 C 84.0,619.7 86.7,629.7 89.0,637.5 C 89.0,637.5 91.3,645.3 93.5,651.3 C 93.5,651.3 95.7,657.3 97.8,661.7 C 97.8,661.7 100.0,666.0 102.2,669.3 C 102.2,669.3 104.3,672.7 106.7,675.0 C 106.7,675.0 109.0,677.3 111.7,679.2 C 111.7,679.2 114.3,681.0 117.2,682.2 C 117.2,682.2 120.0,683.3 123.0,683.7 C 123.0,683.7 126.0,684.0 128.8,683.5 C 128.8,683.5 131.7,683.0 134.5,681.8 C 134.5,681.8 137.3,680.7 140.2,678.8 C 140.2,678.8 143.0,677.0 145.8,674.7 C 145.8,674.7 148.7,672.3 151.5,669.5 C 151.5,669.5 154.3,666.7 157.2,664.0 C 157.2,664.0 160.0,661.3 163.0,659.2 C 163.0,659.2 166.0,657.0 169.2,655.7 C 169.2,655.7 172.3,654.3 175.7,654.2 C 175.7,654.2 179.0,654.0 182.2,654.8 C 182.2,654.8 185.3,655.7 188.5,657.3 C 188.5,657.3 191.7,659.0 195.0,661.0 C 195.0,661.0 198.3,663.0 202.3,664.8 C 202.3,664.8 206.3,666.7 210.5,668.3 C 210.5,668.3 214.7,670.0 219.2,671.3 C 219.2,671.3 223.7,672.7 228.3,673.7 C 228.3,673.7 233.0,674.7 238.2,675.0 C 238.2,675.0 243.3,675.3 248.7,675.2 C 248.7,675.2 254.0,675.0 259.7,674.0 C 259.7,674.0 265.3,673.0 271.0,671.5 C 271.0,671.5 276.7,670.0 282.3,667.7 C 282.3,667.7 288.0,665.3 293.3,662.3 C 293.3,662.3 298.7,659.3 303.7,655.3 C 303.7,655.3 308.7,651.3 313.2,646.5 C 313.2,646.5 317.7,641.7 321.5,636.0 C 321.5,636.0 325.3,630.3 328.7,624.2 C 328.7,624.2 332.0,618.0 334.8,611.2 C 334.8,611.2 337.7,604.3 340.3,597.0 C 340.3,597.0 343.0,589.7 345.3,581.7 C 345.3,581.7 347.7,573.7 349.8,565.0 C 349.8,565.0 352.0,556.3 354.3,547.2 C 354.3,547.2 356.7,538.0 359.2,528.3 C 359.2,528.3 361.7,518.7 364.3,508.8 C 364.3,508.8 367.0,499.0 369.5,488.8 C 369.5,488.8 372.0,478.7 374.7,468.2 C 374.7,468.2 377.3,457.7 380.0,446.8 C 380.0,446.8 382.7,436.0 385.3,425.0 C 385.3,425.0 388.0,414.0 390.7,402.8 C 390.7,402.8 393.3,391.7 396.2,380.3 C 396.2,380.3 399.0,369.0 403.0,355.0 L 407,341" stroke="#374151" stroke-width="8" fill="none" vector-effect="non-scaling-stroke"/><path d="M 52,493 C 53.5,499.0 55.0,505.0 56.5,510.8 C 56.5,510.8 58.0,516.7 60.8,528.5 C 60.8,528.5 63.7,540.3 66.5,552.0 C 66.5,552.0 69.3,563.7 72.3,575.5 C 72.3,575.5 75.3,587.3 78.3,598.5 C 78.3,598.5 81.3,609.7 84.0,619.7 C 84.0,619.7 86.7,629.7 89.0,637.5 C 89.0,637.5 91.3,645.3 93.5,651.3 C 93.5,651.3 95.7,657.3 97.8,661.7 C 97.8,661.7 100.0,666.0 102.2,669.3 C 102.2,669.3 104.3,672.7 106.7,675.0 C 106.7,675.0 109.0,677.3 111.7,679.2 C 111.7,679.2 114.3,681.0 117.2,682.2 C 117.2,682.2 120.0,683.3 123.0,683.7 C 123.0,683.7 126.0,684.0 128.8,683.5 C 128.8,683.5 131.7,683.0 134.5,681.8 C 134.5,681.8 137.3,680.7 140.2,678.8 C 140.2,678.8 143.0,677.0 145.8,674.7 C 145.8,674.7 148.7,672.3 151.5,669.5 C 151.5,669.5 154.3,666.7 157.2,664.0 C 157.2,664.0 160.0,661.3 163.0,659.2 C 163.0,659.2 166.0,657.0 169.2,655.7 C 169.2,655.7 172.3,654.3 175.7,654.2 C 175.7,654.2 179.0,654.0 182.2,654.8 C 182.2,654.8 185.3,655.7 188.5,657.3 C 188.5,657.3 191.7,659.0 195.0,661.0 C 195.0,661.0 198.3,663.0 202.3,664.8 C 202.3,664.8 206.3,666.7 210.5,668.3 C 210.5,668.3 214.7,670.0 219.2,671.3 C 219.2,671.3 223.7,672.7 228.3,673.7 C 228.3,673.7 233.0,674.7 238.2,675.0 C 238.2,675.0 243.3,675.3 248.7,675.2 C 248.7,675.2 254.0,675.0 259.7,674.0 C 259.7,674.0 265.3,673.0 271.0,671.5 C 271.0,671.5 276.7,670.0 282.3,667.7 C 282.3,667.7 288.0,665.3 293.3,662.3 C 293.3,662.3 298.7,659.3 303.7,655.3 C 303.7,655.3 308.7,651.3 313.2,646.5 C 313.2,646.5 317.7,641.7 321.5,636.0 C 321.5,636.0 325.3,630.3 328.7,624.2 C 328.7,624.2 332.0,618.0 334.8,611.2 C 334.8,611.2 337.7,604.3 340.3,597.0 C 340.3,597.0 343.0,589.7 345.3,581.7 C 345.3,581.7 347.7,573.7 349.8,565.0 C 349.8,565.0 352.0,556.3 354.3,547.2 C 354.3,547.2 356.7,538.0 359.2,528.3 C 359.2,528.3 361.7,518.7 364.3,508.8 C 364.3,508.8 367.0,499.0 369.5,488.8 C 369.5,488.8 372.0,478.7 374.7,468.2 C 374.7,468.2 377.3,457.7 380.0,446.8 C 380.0,446.8 382.7,436.0 385.3,425.0 C 385.3,425.0 388.0,414.0 390.7,402.8 C 390.7,402.8 393.3,391.7 396.2,380.3 C 396.2,380.3 399.0,369.0 403.0,355.0 L 407,341" stroke="#EF4444" stroke-width="2" fill="none" vector-effect="non-scaling-stroke"/><path d="M 407,341 C 408.5,335.2 410.0,329.5 411.5,323.8 C 411.5,323.8 413.0,318.0 416.0,307.0 C 416.0,307.0 419.0,296.0 421.8,286.2 C 421.8,286.2 424.7,276.3 427.0,268.2 C 427.0,268.2 429.3,260.0 431.0,253.7 C 431.0,253.7 432.7,247.3 433.8,242.5 C 433.8,242.5 435.0,237.7 435.7,233.8 C 435.7,233.8 436.3,230.0 436.7,226.7 C 436.7,226.7 437.0,223.3 436.7,220.2 C 436.7,220.2 436.3,217.0 435.5,214.0 C 435.5,214.0 434.7,211.0 433.2,207.8 C 433.2,207.8 431.7,204.7 429.3,201.7 C 429.3,201.7 427.0,198.7 423.8,196.2 C 423.8,196.2 420.7,193.7 416.7,192.0 C 416.7,192.0 412.7,190.3 408.2,189.2 C 408.2,189.2 403.7,188.0 398.5,187.0 C 398.5,187.0 393.3,186.0 387.5,185.0 C 387.5,185.0 381.7,184.0 375.3,183.2 C 375.3,183.2 369.0,182.3 362.3,181.8 C 362.3,181.8 355.7,181.3 349.0,181.5 C 349.0,181.5 342.3,181.7 335.8,182.8 C 335.8,182.8 329.3,184.0 323.3,186.5 C 323.3,186.5 317.3,189.0 311.7,192.7 C 311.7,192.7 306.0,196.3 300.7,200.8 C 300.7,200.8 295.3,205.3 290.3,210.3 C 290.3,210.3 285.3,215.3 280.7,221.0 C 280.7,221.0 276.0,226.7 271.5,232.8 C 271.5,232.8 267.0,239.0 262.2,245.8 C 262.2,245.8 257.3,252.7 252.2,259.8 C 252.2,259.8 247.0,267.0 241.5,274.7 C 241.5,274.7 236.0,282.3 230.5,290.2 C 230.5,290.2 225.0,298.0 219.3,306.2 C 219.3,306.2 213.7,314.3 207.8,322.7 C 207.8,322.7 202.0,331.0 195.8,339.5 C 195.8,339.5 189.7,348.0 184.0,355.7 C 184.0,355.7 178.3,363.3 173.2,369.8 C 173.2,369.8 168.0,376.3 163.8,380.8 C 163.8,380.8 159.7,385.3 156.0,388.5 C 156.0,388.5 152.3,391.7 149.0,393.7 C 149.0,393.7 145.7,395.7 142.3,397.0 C 142.3,397.0 139.0,398.3 135.2,399.0 C 135.2,399.0 131.3,399.7 127.0,399.7 C 127.0,399.7 122.7,399.7 117.8,399.0 C 117.8,399.0 113.0,398.3 108.0,397.0 C 108.0,397.0 103.0,395.7 98.0,393.7 C 98.0,393.7 93.0,391.7 88.3,389.0 C 88.3,389.0 83.7,386.3 79.3,383.2 C 79.3,383.2 75.0,380.0 71.3,376.0 C 71.3,376.0 67.7,372.0 65.0,367.5 C 65.0,367.5 62.3,363.0 60.7,357.8 C 60.7,357.8 59.0,352.7 58.0,347.7 C 58.0,347.7 57.0,342.7 56.0,337.5 C 56.0,337.5 55.0,332.3 54.2,327.7 C 54.2,327.7 53.3,323.0 52.7,318.5 C 52.7,318.5 52.0,314.0 51.5,310.2 C 51.5,310.2 51.0,306.3 50.7,302.8 C 50.7,302.8 50.3,299.3 50.2,296.0 C 50.2,296.0 50.0,292.7 50.2,289.3 C 50.2,289.3 50.3,286.0 51.0,282.7 C 51.0,282.7 51.7,279.3 53.2,276.3 C 53.2,276.3 54.7,273.3 56.8,271.2 C 56.8,271.2 59.0,269.0 61.5,267.8 C 61.5,267.8 64.0,266.7 66.7,266.7 C 66.7,266.7 69.3,266.7 72.0,267.5 C 72.0,267.5 74.7,268.3 77.3,269.8 C 77.3,269.8 80.0,271.3 82.7,273.2 C 82.7,273.2 85.3,275.0 88.2,276.7 C 88.2,276.7 91.0,278.3 93.8,279.7 C 93.8,279.7 96.7,281.0 99.7,281.8 C 99.7,281.8 102.7,282.7 105.5,283.2 C 105.5,283.2 108.3,283.7 111.3,283.8 C 111.3,283.8 114.3,284.0 117.2,283.5 C 117.2,283.5 120.0,283.0 122.7,282.0 C 122.7,282.0 125.3,281.0 127.7,279.2 C 127.7,279.2 130.0,277.3 131.8,275.2 C 131.8,275.2 133.7,273.0 135.2,270.2 C 135.2,270.2 136.7,267.3 137.5,264.2 C 137.5,264.2 138.3,261.0 138.3,257.5 C 138.3,257.5 138.3,254.0 137.5,250.5 C 137.5,250.5 136.7,247.0 135.0,243.7 C 135.0,243.7 133.3,240.3 131.0,237.2 C 131.0,237.2 128.7,234.0 125.7,230.8 C 125.7,230.8 122.7,227.7 119.3,224.3 C 119.3,224.3 116.0,221.0 112.3,217.2 C 112.3,217.2 108.7,213.3 104.8,209.2 C 104.8,209.2 101.0,205.0 97.3,200.5 C 97.3,200.5 93.7,196.0 90.5,191.2 C 90.5,191.2 87.3,186.3 84.8,181.2 C 84.8,181.2 82.3,176.0 80.5,170.7 C 80.5,170.7 78.7,165.3 77.5,160.7 C 77.5,160.7 76.3,156.0 75.7,152.3 C 75.7,152.3 75.0,148.7 74.5,146.0 C 74.5,146.0 74.0,143.3 73.7,141.0 C 73.7,141.0 73.3,138.7 73.2,136.3 C 73.2,136.3 73.0,134.0 73.3,131.7 C 73.3,131.7 73.7,129.3 74.5,127.2 C 74.5,127.2 75.3,125.0 77.0,123.2 C 77.0,123.2 78.7,121.3 80.8,119.8 C 80.8,119.8 83.0,118.3 85.7,117.5 C 85.7,117.5 88.3,116.7 91.0,116.8 C 91.0,116.8 93.7,117.0 96.0,118.3 C 96.0,118.3 98.3,119.7 100.3,121.8 C 100.3,121.8 102.3,124.0 104.3,126.7 C 104.3,126.7 106.3,129.3 108.8,132.3 C 108.8,132.3 111.3,135.3 114.3,138.7 C 114.3,138.7 117.3,142.0 120.5,145.7 C 120.5,145.7 123.7,149.3 127.0,153.0 C 127.0,153.0 130.3,156.7 133.8,160.2 C 133.8,160.2 137.3,163.7 141.0,166.8 C 141.0,166.8 144.7,170.0 148.5,172.7 C 148.5,172.7 152.3,175.3 156.2,177.5 C 156.2,177.5 160.0,179.7 164.2,181.2 C 164.2,181.2 168.3,182.7 172.7,183.8 C 172.7,183.8 177.0,185.0 181.5,185.5 C 181.5,185.5 186.0,186.0 190.8,185.7 C 190.8,185.7 195.7,185.3 200.5,184.0 C 200.5,184.0 205.3,182.7 210.2,180.5 C 210.2,180.5 215.0,178.3 219.3,175.5 C 219.3,175.5 223.7,172.7 227.7,169.0 C 227.7,169.0 231.7,165.3 235.3,161.0 C 235.3,161.0 239.0,156.7 242.5,151.8 C 242.5,151.8 246.0,147.0 249.5,141.7 C 249.5,141.7 253.0,136.3 260.0,125.7 L 267,115" stroke="#374151" stroke-width="8" fill="none" vector-effect="non-scaling-stroke"/><path d="M 407,341 C 408.5,335.2 410.0,329.5 411.5,323.8 C 411.5,323.8 413.0,318.0 416.0,307.0 C 416.0,307.0 419.0,296.0 421.8,286.2 C 421.8,286.2 424.7,276.3 427.0,268.2 C 427.0,268.2 429.3,260.0 431.0,253.7 C 431.0,253.7 432.7,247.3 433.8,242.5 C 433.8,242.5 435.0,237.7 435.7,233.8 C 435.7,233.8 436.3,230.0 436.7,226.7 C 436.7,226.7 437.0,223.3 436.7,220.2 C 436.7,220.2 436.3,217.0 435.5,214.0 C 435.5,214.0 434.7,211.0 433.2,207.8 C 433.2,207.8 431.7,204.7 429.3,201.7 C 429.3,201.7 427.0,198.7 423.8,196.2 C 423.8,196.2 420.7,193.7 416.7,192.0 C 416.7,192.0 412.7,190.3 408.2,189.2 C 408.2,189.2 403.7,188.0 398.5,187.0 C 398.5,187.0 393.3,186.0 387.5,185.0 C 387.5,185.0 381.7,184.0 375.3,183.2 C 375.3,183.2 369.0,182.3 362.3,181.8 C 362.3,181.8 355.7,181.3 349.0,181.5 C 349.0,181.5 342.3,181.7 335.8,182.8 C 335.8,182.8 329.3,184.0 323.3,186.5 C 323.3,186.5 317.3,189.0 311.7,192.7 C 311.7,192.7 306.0,196.3 300.7,200.8 C 300.7,200.8 295.3,205.3 290.3,210.3 C 290.3,210.3 285.3,215.3 280.7,221.0 C 280.7,221.0 276.0,226.7 271.5,232.8 C 271.5,232.8 267.0,239.0 262.2,245.8 C 262.2,245.8 257.3,252.7 252.2,259.8 C 252.2,259.8 247.0,267.0 241.5,274.7 C 241.5,274.7 236.0,282.3 230.5,290.2 C 230.5,290.2 225.0,298.0 219.3,306.2 C 219.3,306.2 213.7,314.3 207.8,322.7 C 207.8,322.7 202.0,331.0 195.8,339.5 C 195.8,339.5 189.7,348.0 184.0,355.7 C 184.0,355.7 178.3,363.3 173.2,369.8 C 173.2,369.8 168.0,376.3 163.8,380.8 C 163.8,380.8 159.7,385.3 156.0,388.5 C 156.0,388.5 152.3,391.7 149.0,393.7 C 149.0,393.7 145.7,395.7 142.3,397.0 C 142.3,397.0 139.0,398.3 135.2,399.0 C 135.2,399.0 131.3,399.7 127.0,399.7 C 127.0,399.7 122.7,399.7 117.8,399.0 C 117.8,399.0 113.0,398.3 108.0,397.0 C 108.0,397.0 103.0,395.7 98.0,393.7 C 98.0,393.7 93.0,391.7 88.3,389.0 C 88.3,389.0 83.7,386.3 79.3,383.2 C 79.3,383.2 75.0,380.0 71.3,376.0 C 71.3,376.0 67.7,372.0 65.0,367.5 C 65.0,367.5 62.3,363.0 60.7,357.8 C 60.7,357.8 59.0,352.7 58.0,347.7 C 58.0,347.7 57.0,342.7 56.0,337.5 C 56.0,337.5 55.0,332.3 54.2,327.7 C 54.2,327.7 53.3,323.0 52.7,318.5 C 52.7,318.5 52.0,314.0 51.5,310.2 C 51.5,310.2 51.0,306.3 50.7,302.8 C 50.7,302.8 50.3,299.3 50.2,296.0 C 50.2,296.0 50.0,292.7 50.2,289.3 C 50.2,289.3 50.3,286.0 51.0,282.7 C 51.0,282.7 51.7,279.3 53.2,276.3 C 53.2,276.3 54.7,273.3 56.8,271.2 C 56.8,271.2 59.0,269.0 61.5,267.8 C 61.5,267.8 64.0,266.7 66.7,266.7 C 66.7,266.7 69.3,266.7 72.0,267.5 C 72.0,267.5 74.7,268.3 77.3,269.8 C 77.3,269.8 80.0,271.3 82.7,273.2 C 82.7,273.2 85.3,275.0 88.2,276.7 C 88.2,276.7 91.0,278.3 93.8,279.7 C 93.8,279.7 96.7,281.0 99.7,281.8 C 99.7,281.8 102.7,282.7 105.5,283.2 C 105.5,283.2 108.3,283.7 111.3,283.8 C 111.3,283.8 114.3,284.0 117.2,283.5 C 117.2,283.5 120.0,283.0 122.7,282.0 C 122.7,282.0 125.3,281.0 127.7,279.2 C 127.7,279.2 130.0,277.3 131.8,275.2 C 131.8,275.2 133.7,273.0 135.2,270.2 C 135.2,270.2 136.7,267.3 137.5,264.2 C 137.5,264.2 138.3,261.0 138.3,257.5 C 138.3,257.5 138.3,254.0 137.5,250.5 C 137.5,250.5 136.7,247.0 135.0,243.7 C 135.0,243.7 133.3,240.3 131.0,237.2 C 131.0,237.2 128.7,234.0 125.7,230.8 C 125.7,230.8 122.7,227.7 119.3,224.3 C 119.3,224.3 116.0,221.0 112.3,217.2 C 112.3,217.2 108.7,213.3 104.8,209.2 C 104.8,209.2 101.0,205.0 97.3,200.5 C 97.3,200.5 93.7,196.0 90.5,191.2 C 90.5,191.2 87.3,186.3 84.8,181.2 C 84.8,181.2 82.3,176.0 80.5,170.7 C 80.5,170.7 78.7,165.3 77.5,160.7 C 77.5,160.7 76.3,156.0 75.7,152.3 C 75.7,152.3 75.0,148.7 74.5,146.0 C 74.5,146.0 74.0,143.3 73.7,141.0 C 73.7,141.0 73.3,138.7 73.2,136.3 C 73.2,136.3 73.0,134.0 73.3,131.7 C 73.3,131.7 73.7,129.3 74.5,127.2 C 74.5,127.2 75.3,125.0 77.0,123.2 C 77.0,123.2 78.7,121.3 80.8,119.8 C 80.8,119.8 83.0,118.3 85.7,117.5 C 85.7,117.5 88.3,116.7 91.0,116.8 C 91.0,116.8 93.7,117.0 96.0,118.3 C 96.0,118.3 98.3,119.7 100.3,121.8 C 100.3,121.8 102.3,124.0 104.3,126.7 C 104.3,126.7 106.3,129.3 108.8,132.3 C 108.8,132.3 111.3,135.3 114.3,138.7 C 114.3,138.7 117.3,142.0 120.5,145.7 C 120.5,145.7 123.7,149.3 127.0,153.0 C 127.0,153.0 130.3,156.7 133.8,160.2 C 133.8,160.2 137.3,163.7 141.0,166.8 C 141.0,166.8 144.7,170.0 148.5,172.7 C 148.5,172.7 152.3,175.3 156.2,177.5 C 156.2,177.5 160.0,179.7 164.2,181.2 C 164.2,181.2 168.3,182.7 172.7,183.8 C 172.7,183.8 177.0,185.0 181.5,185.5 C 181.5,185.5 186.0,186.0 190.8,185.7 C 190.8,185.7 195.7,185.3 200.5,184.0 C 200.5,184.0 205.3,182.7 210.2,180.5 C 210.2,180.5 215.0,178.3 219.3,175.5 C 219.3,175.5 223.7,172.7 227.7,169.0 C 227.7,169.0 231.7,165.3 235.3,161.0 C 235.3,161.0 239.0,156.7 242.5,151.8 C 242.5,151.8 246.0,147.0 249.5,141.7 C 249.5,141.7 253.0,136.3 260.0,125.7 L 267,115" stroke="#3B82F6" stroke-width="2" fill="none" vector-effect="non-scaling-stroke"/><path d="M 267,115 C 269.0,111.5 271.0,108.0 272.8,104.8 C 272.8,104.8 274.7,101.7 278.0,96.0 C 278.0,96.0 281.3,90.3 283.8,86.0 C 283.8,86.0 286.3,81.7 288.3,78.5 C 288.3,78.5 290.3,75.3 291.8,72.5 C 291.8,72.5 293.3,69.7 294.7,67.0 C 294.7,67.0 296.0,64.3 296.8,61.3 C 296.8,61.3 297.7,58.3 298.0,55.3 C 298.0,55.3 298.3,52.3 297.7,49.5 C 297.7,49.5 297.0,46.7 295.3,44.5 C 295.3,44.5 293.7,42.3 291.2,40.5 C 291.2,40.5 288.7,38.7 285.7,37.0 C 285.7,37.0 282.7,35.3 279.2,33.5 C 279.2,33.5 275.7,31.7 271.7,30.0 C 271.7,30.0 267.7,28.3 263.3,26.5 C 263.3,26.5 259.0,24.7 254.5,23.2 C 254.5,23.2 250.0,21.7 245.3,20.3 C 245.3,20.3 240.7,19.0 235.8,18.0 C 235.8,18.0 231.0,17.0 225.8,16.5 C 225.8,16.5 220.7,16.0 215.5,16.0 C 215.5,16.0 210.3,16.0 204.8,16.7 C 204.8,16.7 199.3,17.3 193.5,18.3 C 193.5,18.3 187.7,19.3 181.3,20.8 C 181.3,20.8 175.0,22.3 168.2,24.3 C 168.2,24.3 161.3,26.3 154.2,28.8 C 154.2,28.8 147.0,31.3 139.3,34.5 C 139.3,34.5 131.7,37.7 124.0,41.5 C 124.0,41.5 116.3,45.3 108.7,49.8 C 108.7,49.8 101.0,54.3 93.8,59.3 C 93.8,59.3 86.7,64.3 80.2,70.0 C 80.2,70.0 73.7,75.7 68.3,82.0 C 68.3,82.0 63.0,88.3 59.0,95.2 C 59.0,95.2 55.0,102.0 52.0,109.2 C 52.0,109.2 49.0,116.3 46.8,123.8 C 46.8,123.8 44.7,131.3 42.7,139.2 C 42.7,139.2 40.7,147.0 38.8,155.3 C 38.8,155.3 37.0,163.7 34.8,172.3 C 34.8,172.3 32.7,181.0 30.5,190.3 C 30.5,190.3 28.3,199.7 26.2,209.3 C 26.2,209.3 24.0,219.0 22.0,229.2 C 22.0,229.2 20.0,239.3 18.0,249.7 C 18.0,249.7 16.0,260.0 14.7,270.7 C 14.7,270.7 13.3,281.3 12.8,292.3 C 12.8,292.3 12.3,303.3 13.2,314.5 C 13.2,314.5 14.0,325.7 15.5,337.0 C 15.5,337.0 17.0,348.3 19.3,359.7 C 19.3,359.7 21.7,371.0 24.3,382.5 C 24.3,382.5 27.0,394.0 30.0,405.5 C 30.0,405.5 33.0,417.0 35.8,428.5 C 35.8,428.5 38.7,440.0 41.7,451.7 C 41.7,451.7 44.7,463.3 48.3,478.2 L 52,493" stroke="#374151" stroke-width="8" fill="none" vector-effect="non-scaling-stroke"/><path d="M 267,115 C 269.0,111.5 271.0,108.0 272.8,104.8 C 272.8,104.8 274.7,101.7 278.0,96.0 C 278.0,96.0 281.3,90.3 283.8,86.0 C 283.8,86.0 286.3,81.7 288.3,78.5 C 288.3,78.5 290.3,75.3 291.8,72.5 C 291.8,72.5 293.3,69.7 294.7,67.0 C 294.7,67.0 296.0,64.3 296.8,61.3 C 296.8,61.3 297.7,58.3 298.0,55.3 C 298.0,55.3 298.3,52.3 297.7,49.5 C 297.7,49.5 297.0,46.7 295.3,44.5 C 295.3,44.5 293.7,42.3 291.2,40.5 C 291.2,40.5 288.7,38.7 285.7,37.0 C 285.7,37.0 282.7,35.3 279.2,33.5 C 279.2,33.5 275.7,31.7 271.7,30.0 C 271.7,30.0 267.7,28.3 263.3,26.5 C 263.3,26.5 259.0,24.7 254.5,23.2 C 254.5,23.2 250.0,21.7 245.3,20.3 C 245.3,20.3 240.7,19.0 235.8,18.0 C 235.8,18.0 231.0,17.0 225.8,16.5 C 225.8,16.5 220.7,16.0 215.5,16.0 C 215.5,16.0 210.3,16.0 204.8,16.7 C 204.8,16.7 199.3,17.3 193.5,18.3 C 193.5,18.3 187.7,19.3 181.3,20.8 C 181.3,20.8 175.0,22.3 168.2,24.3 C 168.2,24.3 161.3,26.3 154.2,28.8 C 154.2,28.8 147.0,31.3 139.3,34.5 C 139.3,34.5 131.7,37.7 124.0,41.5 C 124.0,41.5 116.3,45.3 108.7,49.8 C 108.7,49.8 101.0,54.3 93.8,59.3 C 93.8,59.3 86.7,64.3 80.2,70.0 C 80.2,70.0 73.7,75.7 68.3,82.0 C 68.3,82.0 63.0,88.3 59.0,95.2 C 59.0,95.2 55.0,102.0 52.0,109.2 C 52.0,109.2 49.0,116.3 46.8,123.8 C 46.8,123.8 44.7,131.3 42.7,139.2 C 42.7,139.2 40.7,147.0 38.8,155.3 C 38.8,155.3 37.0,163.7 34.8,172.3 C 34.8,172.3 32.7,181.0 30.5,190.3 C 30.5,190.3 28.3,199.7 26.2,209.3 C 26.2,209.3 24.0,219.0 22.0,229.2 C 22.0,229.2 20.0,239.3 18.0,249.7 C 18.0,249.7 16.0,260.0 14.7,270.7 C 14.7,270.7 13.3,281.3 12.8,292.3 C 12.8,292.3 12.3,303.3 13.2,314.5 C 13.2,314.5 14.0,325.7 15.5,337.0 C 15.5,337.0 17.0,348.3 19.3,359.7 C 19.3,359.7 21.7,371.0 24.3,382.5 C 24.3,382.5 27.0,394.0 30.0,405.5 C 30.0,405.5 33.0,417.0 35.8,428.5 C 35.8,428.5 38.7,440.0 41.7,451.7 C 41.7,451.7 44.7,463.3 48.3,478.2 L 52,493" stroke="#FBBF24" stroke-width="2" fill="none" vector-effect="non-scaling-stroke"/>
    <g id="moving-circle-group">
        <circle cx="52" cy="493" r="20" fill="#000000" vector-effect="non-scaling-stroke"/>
        <circle cx="52" cy="493" r="7" fill="#FFFFFF" vector-effect="non-scaling-stroke"/>
    </g></svg>