<svg id="minimap-svg" width="100%" height="100%" viewBox="0 0 230 700" xmlns="http://www.w3.org/2000/svg"><path d="M 199,560 C 199.2,561.8 199.5,563.5 199.8,565.1 C 199.8,565.1 200.0,566.7 200.5,569.5 C 200.5,569.5 201.0,572.3 201.3,574.7 C 201.3,574.7 201.7,577.0 202.0,579.0 C 202.0,579.0 202.3,581.0 202.5,582.8 C 202.5,582.8 202.7,584.7 202.8,586.5 C 202.8,586.5 203.0,588.3 203.0,590.2 C 203.0,590.2 203.0,592.0 202.8,594.2 C 202.8,594.2 202.7,596.3 202.5,598.7 C 202.5,598.7 202.3,601.0 202.2,603.5 C 202.2,603.5 202.0,606.0 201.8,608.5 C 201.8,608.5 201.7,611.0 201.3,613.5 C 201.3,613.5 201.0,616.0 200.7,618.3 C 200.7,618.3 200.3,620.7 200.0,623.0 C 200.0,623.0 199.7,625.3 199.5,627.5 C 199.5,627.5 199.3,629.7 199.0,631.7 C 199.0,631.7 198.7,633.7 198.5,635.2 C 198.5,635.2 198.3,636.7 198.2,637.8 C 198.2,637.8 198.0,639.0 198.0,640.2 C 198.0,640.2 198.0,641.3 198.0,642.5 C 198.0,642.5 198.0,643.7 198.2,644.8 C 198.2,644.8 198.3,646.0 198.7,646.8 C 198.7,646.8 199.0,647.7 199.7,648.3 C 199.7,648.3 200.3,649.0 201.0,649.5 C 201.0,649.5 201.7,650.0 202.5,650.5 C 202.5,650.5 203.3,651.0 204.0,651.3 C 204.0,651.3 204.7,651.7 205.5,652.0 C 205.5,652.0 206.3,652.3 207.2,652.7 C 207.2,652.7 208.0,653.0 209.0,653.5 C 209.0,653.5 210.0,654.0 211.0,654.7 C 211.0,654.7 212.0,655.3 213.0,656.0 C 213.0,656.0 214.0,656.7 214.8,657.5 C 214.8,657.5 215.7,658.3 216.3,659.2 C 216.3,659.2 217.0,660.0 217.5,661.0 C 217.5,661.0 218.0,662.0 218.3,663.0 C 218.3,663.0 218.7,664.0 218.7,664.8 C 218.7,664.8 218.7,665.7 218.5,666.5 C 218.5,666.5 218.3,667.3 218.0,668.0 C 218.0,668.0 217.7,668.7 217.3,669.5 C 217.3,669.5 217.0,670.3 216.3,671.0 C 216.3,671.0 215.7,671.7 214.8,672.3 C 214.8,672.3 214.0,673.0 213.0,673.5 C 213.0,673.5 212.0,674.0 210.7,674.5 C 210.7,674.5 209.3,675.0 207.8,675.3 C 207.8,675.3 206.3,675.7 204.3,675.7 C 204.3,675.7 202.3,675.7 200.3,675.3 C 200.3,675.3 198.3,675.0 196.0,674.3 C 196.0,674.3 193.7,673.7 191.3,672.8 C 191.3,672.8 189.0,672.0 186.5,671.2 C 186.5,671.2 184.0,670.3 181.5,669.5 C 181.5,669.5 179.0,668.7 176.3,667.8 C 176.3,667.8 173.7,667.0 171.2,666.0 C 171.2,666.0 168.7,665.0 166.2,663.8 C 166.2,663.8 163.7,662.7 161.5,661.3 C 161.5,661.3 159.3,660.0 157.2,658.5 C 157.2,658.5 155.0,657.0 152.8,655.5 C 152.8,655.5 150.7,654.0 148.5,652.3 C 148.5,652.3 146.3,650.7 144.0,648.8 C 144.0,648.8 141.7,647.0 139.5,645.0 C 139.5,645.0 137.3,643.0 135.0,641.0 C 135.0,641.0 132.7,639.0 130.7,637.0 C 130.7,637.0 128.7,635.0 126.8,633.2 C 126.8,633.2 125.0,631.3 123.7,629.8 C 123.7,629.8 122.3,628.3 121.2,627.3 C 121.2,627.3 120.0,626.3 119.2,625.7 C 119.2,625.7 118.3,625.0 117.7,624.3 C 117.7,624.3 117.0,623.7 116.5,623.0 C 116.5,623.0 116.0,622.3 115.5,621.7 C 115.5,621.7 115.0,621.0 114.5,620.3 C 114.5,620.3 114.0,619.7 113.7,619.0 C 113.7,619.0 113.3,618.3 113.0,617.7 C 113.0,617.7 112.7,617.0 112.5,616.3 C 112.5,616.3 112.3,615.7 112.3,615.0 C 112.3,615.0 112.3,614.3 112.5,613.7 C 112.5,613.7 112.7,613.0 113.0,612.3 C 113.0,612.3 113.3,611.7 113.5,610.8 C 113.5,610.8 113.7,610.0 114.0,609.0 C 114.0,609.0 114.3,608.0 114.7,606.8 C 114.7,606.8 115.0,605.7 115.3,604.5 C 115.3,604.5 115.7,603.3 115.7,602.0 C 115.7,602.0 115.7,600.7 115.3,599.5 C 115.3,599.5 115.0,598.3 114.5,597.0 C 114.5,597.0 114.0,595.7 113.3,594.5 C 113.3,594.5 112.7,593.3 111.8,592.0 C 111.8,592.0 111.0,590.7 109.8,589.2 C 109.8,589.2 108.7,587.7 107.3,585.8 C 107.3,585.8 106.0,584.0 104.3,582.0 C 104.3,582.0 102.7,580.0 101.0,578.0 C 101.0,578.0 99.3,576.0 97.7,574.0 C 97.7,574.0 96.0,572.0 94.5,570.2 C 94.5,570.2 93.0,568.3 91.5,566.7 C 91.5,566.7 90.0,565.0 88.5,563.3 C 88.5,563.3 87.0,561.7 85.5,560.2 C 85.5,560.2 84.0,558.7 82.5,557.3 C 82.5,557.3 81.0,556.0 79.5,555.0 C 79.5,555.0 78.0,554.0 76.7,553.2 C 76.7,553.2 75.3,552.3 74.2,551.5 C 74.2,551.5 73.0,550.7 71.8,549.7 C 71.8,549.7 70.7,548.7 69.5,547.3 C 69.5,547.3 68.3,546.0 67.2,544.5 C 67.2,544.5 66.0,543.0 65.2,541.3 C 65.2,541.3 64.3,539.7 63.5,537.8 C 63.5,537.8 62.7,536.0 62.0,534.0 C 62.0,534.0 61.3,532.0 60.7,529.8 C 60.7,529.8 60.0,527.7 59.7,525.5 C 59.7,525.5 59.3,523.3 59.2,520.2 L 59,517" stroke="#374151" stroke-width="8" fill="none" vector-effect="non-scaling-stroke"/><path d="M 199,560 C 199.2,561.8 199.5,563.5 199.8,565.1 C 199.8,565.1 200.0,566.7 200.5,569.5 C 200.5,569.5 201.0,572.3 201.3,574.7 C 201.3,574.7 201.7,577.0 202.0,579.0 C 202.0,579.0 202.3,581.0 202.5,582.8 C 202.5,582.8 202.7,584.7 202.8,586.5 C 202.8,586.5 203.0,588.3 203.0,590.2 C 203.0,590.2 203.0,592.0 202.8,594.2 C 202.8,594.2 202.7,596.3 202.5,598.7 C 202.5,598.7 202.3,601.0 202.2,603.5 C 202.2,603.5 202.0,606.0 201.8,608.5 C 201.8,608.5 201.7,611.0 201.3,613.5 C 201.3,613.5 201.0,616.0 200.7,618.3 C 200.7,618.3 200.3,620.7 200.0,623.0 C 200.0,623.0 199.7,625.3 199.5,627.5 C 199.5,627.5 199.3,629.7 199.0,631.7 C 199.0,631.7 198.7,633.7 198.5,635.2 C 198.5,635.2 198.3,636.7 198.2,637.8 C 198.2,637.8 198.0,639.0 198.0,640.2 C 198.0,640.2 198.0,641.3 198.0,642.5 C 198.0,642.5 198.0,643.7 198.2,644.8 C 198.2,644.8 198.3,646.0 198.7,646.8 C 198.7,646.8 199.0,647.7 199.7,648.3 C 199.7,648.3 200.3,649.0 201.0,649.5 C 201.0,649.5 201.7,650.0 202.5,650.5 C 202.5,650.5 203.3,651.0 204.0,651.3 C 204.0,651.3 204.7,651.7 205.5,652.0 C 205.5,652.0 206.3,652.3 207.2,652.7 C 207.2,652.7 208.0,653.0 209.0,653.5 C 209.0,653.5 210.0,654.0 211.0,654.7 C 211.0,654.7 212.0,655.3 213.0,656.0 C 213.0,656.0 214.0,656.7 214.8,657.5 C 214.8,657.5 215.7,658.3 216.3,659.2 C 216.3,659.2 217.0,660.0 217.5,661.0 C 217.5,661.0 218.0,662.0 218.3,663.0 C 218.3,663.0 218.7,664.0 218.7,664.8 C 218.7,664.8 218.7,665.7 218.5,666.5 C 218.5,666.5 218.3,667.3 218.0,668.0 C 218.0,668.0 217.7,668.7 217.3,669.5 C 217.3,669.5 217.0,670.3 216.3,671.0 C 216.3,671.0 215.7,671.7 214.8,672.3 C 214.8,672.3 214.0,673.0 213.0,673.5 C 213.0,673.5 212.0,674.0 210.7,674.5 C 210.7,674.5 209.3,675.0 207.8,675.3 C 207.8,675.3 206.3,675.7 204.3,675.7 C 204.3,675.7 202.3,675.7 200.3,675.3 C 200.3,675.3 198.3,675.0 196.0,674.3 C 196.0,674.3 193.7,673.7 191.3,672.8 C 191.3,672.8 189.0,672.0 186.5,671.2 C 186.5,671.2 184.0,670.3 181.5,669.5 C 181.5,669.5 179.0,668.7 176.3,667.8 C 176.3,667.8 173.7,667.0 171.2,666.0 C 171.2,666.0 168.7,665.0 166.2,663.8 C 166.2,663.8 163.7,662.7 161.5,661.3 C 161.5,661.3 159.3,660.0 157.2,658.5 C 157.2,658.5 155.0,657.0 152.8,655.5 C 152.8,655.5 150.7,654.0 148.5,652.3 C 148.5,652.3 146.3,650.7 144.0,648.8 C 144.0,648.8 141.7,647.0 139.5,645.0 C 139.5,645.0 137.3,643.0 135.0,641.0 C 135.0,641.0 132.7,639.0 130.7,637.0 C 130.7,637.0 128.7,635.0 126.8,633.2 C 126.8,633.2 125.0,631.3 123.7,629.8 C 123.7,629.8 122.3,628.3 121.2,627.3 C 121.2,627.3 120.0,626.3 119.2,625.7 C 119.2,625.7 118.3,625.0 117.7,624.3 C 117.7,624.3 117.0,623.7 116.5,623.0 C 116.5,623.0 116.0,622.3 115.5,621.7 C 115.5,621.7 115.0,621.0 114.5,620.3 C 114.5,620.3 114.0,619.7 113.7,619.0 C 113.7,619.0 113.3,618.3 113.0,617.7 C 113.0,617.7 112.7,617.0 112.5,616.3 C 112.5,616.3 112.3,615.7 112.3,615.0 C 112.3,615.0 112.3,614.3 112.5,613.7 C 112.5,613.7 112.7,613.0 113.0,612.3 C 113.0,612.3 113.3,611.7 113.5,610.8 C 113.5,610.8 113.7,610.0 114.0,609.0 C 114.0,609.0 114.3,608.0 114.7,606.8 C 114.7,606.8 115.0,605.7 115.3,604.5 C 115.3,604.5 115.7,603.3 115.7,602.0 C 115.7,602.0 115.7,600.7 115.3,599.5 C 115.3,599.5 115.0,598.3 114.5,597.0 C 114.5,597.0 114.0,595.7 113.3,594.5 C 113.3,594.5 112.7,593.3 111.8,592.0 C 111.8,592.0 111.0,590.7 109.8,589.2 C 109.8,589.2 108.7,587.7 107.3,585.8 C 107.3,585.8 106.0,584.0 104.3,582.0 C 104.3,582.0 102.7,580.0 101.0,578.0 C 101.0,578.0 99.3,576.0 97.7,574.0 C 97.7,574.0 96.0,572.0 94.5,570.2 C 94.5,570.2 93.0,568.3 91.5,566.7 C 91.5,566.7 90.0,565.0 88.5,563.3 C 88.5,563.3 87.0,561.7 85.5,560.2 C 85.5,560.2 84.0,558.7 82.5,557.3 C 82.5,557.3 81.0,556.0 79.5,555.0 C 79.5,555.0 78.0,554.0 76.7,553.2 C 76.7,553.2 75.3,552.3 74.2,551.5 C 74.2,551.5 73.0,550.7 71.8,549.7 C 71.8,549.7 70.7,548.7 69.5,547.3 C 69.5,547.3 68.3,546.0 67.2,544.5 C 67.2,544.5 66.0,543.0 65.2,541.3 C 65.2,541.3 64.3,539.7 63.5,537.8 C 63.5,537.8 62.7,536.0 62.0,534.0 C 62.0,534.0 61.3,532.0 60.7,529.8 C 60.7,529.8 60.0,527.7 59.7,525.5 C 59.7,525.5 59.3,523.3 59.2,520.2 L 59,517" stroke="#EF4444" stroke-width="2" fill="none" vector-effect="non-scaling-stroke"/><path d="M 59,517 C 59.0,515.5 59.0,514.0 59.0,512.7 C 59.0,512.7 59.0,511.3 59.0,509.0 C 59.0,509.0 59.0,506.7 59.0,504.7 C 59.0,504.7 59.0,502.7 59.0,500.8 C 59.0,500.8 59.0,499.0 59.0,497.0 C 59.0,497.0 59.0,495.0 59.2,493.0 C 59.2,493.0 59.3,491.0 59.5,489.0 C 59.5,489.0 59.7,487.0 59.8,485.0 C 59.8,485.0 60.0,483.0 60.0,481.2 C 60.0,481.2 60.0,479.3 60.0,477.7 C 60.0,477.7 60.0,476.0 60.0,474.7 C 60.0,474.7 60.0,473.3 60.0,472.2 C 60.0,472.2 60.0,471.0 59.8,470.0 C 59.8,470.0 59.7,469.0 59.5,468.0 C 59.5,468.0 59.3,467.0 59.0,466.0 C 59.0,466.0 58.7,465.0 58.3,464.2 C 58.3,464.2 58.0,463.3 57.5,462.7 C 57.5,462.7 57.0,462.0 56.3,461.5 C 56.3,461.5 55.7,461.0 55.0,460.5 C 55.0,460.5 54.3,460.0 53.5,459.7 C 53.5,459.7 52.7,459.3 51.8,459.2 C 51.8,459.2 51.0,459.0 50.0,459.0 C 50.0,459.0 49.0,459.0 48.2,459.2 C 48.2,459.2 47.3,459.3 46.5,459.5 C 46.5,459.5 45.7,459.7 44.8,459.8 C 44.8,459.8 44.0,460.0 43.2,460.0 C 43.2,460.0 42.3,460.0 41.5,460.0 C 41.5,460.0 40.7,460.0 39.8,460.0 C 39.8,460.0 39.0,460.0 38.0,460.0 C 38.0,460.0 37.0,460.0 35.8,459.8 C 35.8,459.8 34.7,459.7 33.3,459.2 C 33.3,459.2 32.0,458.7 30.7,457.8 C 30.7,457.8 29.3,457.0 28.0,455.8 C 28.0,455.8 26.7,454.7 25.5,453.2 C 25.5,453.2 24.3,451.7 23.2,449.8 C 23.2,449.8 22.0,448.0 21.0,445.8 C 21.0,445.8 20.0,443.7 19.2,441.3 C 19.2,441.3 18.3,439.0 17.7,436.5 C 17.7,436.5 17.0,434.0 16.5,431.3 C 16.5,431.3 16.0,428.7 15.5,425.8 C 15.5,425.8 15.0,423.0 14.7,419.8 C 14.7,419.8 14.3,416.7 14.0,413.2 C 14.0,413.2 13.7,409.7 13.5,405.8 C 13.5,405.8 13.3,402.0 13.2,398.0 C 13.2,398.0 13.0,394.0 12.8,389.8 C 12.8,389.8 12.7,385.7 12.5,381.5 C 12.5,381.5 12.3,377.3 12.0,372.8 C 12.0,372.8 11.7,368.3 11.7,363.8 C 11.7,363.8 11.7,359.3 11.7,354.5 C 11.7,354.5 11.7,349.7 12.0,344.8 C 12.0,344.8 12.3,340.0 12.7,335.0 C 12.7,335.0 13.0,330.0 13.5,325.0 C 13.5,325.0 14.0,320.0 14.7,314.8 C 14.7,314.8 15.3,309.7 16.2,304.5 C 16.2,304.5 17.0,299.3 18.2,294.0 C 18.2,294.0 19.3,288.7 20.5,283.5 C 20.5,283.5 21.7,278.3 22.8,273.5 C 22.8,273.5 24.0,268.7 25.0,264.7 C 25.0,264.7 26.0,260.7 26.8,257.7 C 26.8,257.7 27.7,254.7 28.3,252.3 C 28.3,252.3 29.0,250.0 29.3,248.3 C 29.3,248.3 29.7,246.7 30.0,245.2 C 30.0,245.2 30.3,243.7 30.7,242.5 C 30.7,242.5 31.0,241.3 31.7,240.2 C 31.7,240.2 32.3,239.0 33.2,238.2 C 33.2,238.2 34.0,237.3 35.0,236.7 C 35.0,236.7 36.0,236.0 37.0,235.7 C 37.0,235.7 38.0,235.3 38.8,235.2 C 38.8,235.2 39.7,235.0 40.5,235.0 C 40.5,235.0 41.3,235.0 42.2,234.8 C 42.2,234.8 43.0,234.7 44.0,234.3 C 44.0,234.3 45.0,234.0 46.2,233.5 C 46.2,233.5 47.3,233.0 48.5,232.3 C 48.5,232.3 49.7,231.7 50.8,230.8 C 50.8,230.8 52.0,230.0 53.0,228.7 C 53.0,228.7 54.0,227.3 55.0,225.8 C 55.0,225.8 56.0,224.3 57.0,222.5 C 57.0,222.5 58.0,220.7 58.8,218.7 C 58.8,218.7 59.7,216.7 60.5,214.5 C 60.5,214.5 61.3,212.3 62.0,210.0 C 62.0,210.0 62.7,207.7 63.3,205.3 C 63.3,205.3 64.0,203.0 64.5,200.3 C 64.5,200.3 65.0,197.7 65.5,195.0 C 65.5,195.0 66.0,192.3 66.7,189.5 C 66.7,189.5 67.3,186.7 68.0,183.8 C 68.0,183.8 68.7,181.0 69.3,178.0 C 69.3,178.0 70.0,175.0 70.5,172.0 C 70.5,172.0 71.0,169.0 71.7,165.8 C 71.7,165.8 72.3,162.7 73.0,159.2 C 73.0,159.2 73.7,155.7 74.5,151.8 C 74.5,151.8 75.3,148.0 76.0,143.8 C 76.0,143.8 76.7,139.7 77.3,135.5 C 77.3,135.5 78.0,131.3 78.5,127.0 C 78.5,127.0 79.0,122.7 79.3,118.3 C 79.3,118.3 79.7,114.0 80.0,109.5 C 80.0,109.5 80.3,105.0 80.7,99.5 L 81,94" stroke="#374151" stroke-width="8" fill="none" vector-effect="non-scaling-stroke"/><path d="M 59,517 C 59.0,515.5 59.0,514.0 59.0,512.7 C 59.0,512.7 59.0,511.3 59.0,509.0 C 59.0,509.0 59.0,506.7 59.0,504.7 C 59.0,504.7 59.0,502.7 59.0,500.8 C 59.0,500.8 59.0,499.0 59.0,497.0 C 59.0,497.0 59.0,495.0 59.2,493.0 C 59.2,493.0 59.3,491.0 59.5,489.0 C 59.5,489.0 59.7,487.0 59.8,485.0 C 59.8,485.0 60.0,483.0 60.0,481.2 C 60.0,481.2 60.0,479.3 60.0,477.7 C 60.0,477.7 60.0,476.0 60.0,474.7 C 60.0,474.7 60.0,473.3 60.0,472.2 C 60.0,472.2 60.0,471.0 59.8,470.0 C 59.8,470.0 59.7,469.0 59.5,468.0 C 59.5,468.0 59.3,467.0 59.0,466.0 C 59.0,466.0 58.7,465.0 58.3,464.2 C 58.3,464.2 58.0,463.3 57.5,462.7 C 57.5,462.7 57.0,462.0 56.3,461.5 C 56.3,461.5 55.7,461.0 55.0,460.5 C 55.0,460.5 54.3,460.0 53.5,459.7 C 53.5,459.7 52.7,459.3 51.8,459.2 C 51.8,459.2 51.0,459.0 50.0,459.0 C 50.0,459.0 49.0,459.0 48.2,459.2 C 48.2,459.2 47.3,459.3 46.5,459.5 C 46.5,459.5 45.7,459.7 44.8,459.8 C 44.8,459.8 44.0,460.0 43.2,460.0 C 43.2,460.0 42.3,460.0 41.5,460.0 C 41.5,460.0 40.7,460.0 39.8,460.0 C 39.8,460.0 39.0,460.0 38.0,460.0 C 38.0,460.0 37.0,460.0 35.8,459.8 C 35.8,459.8 34.7,459.7 33.3,459.2 C 33.3,459.2 32.0,458.7 30.7,457.8 C 30.7,457.8 29.3,457.0 28.0,455.8 C 28.0,455.8 26.7,454.7 25.5,453.2 C 25.5,453.2 24.3,451.7 23.2,449.8 C 23.2,449.8 22.0,448.0 21.0,445.8 C 21.0,445.8 20.0,443.7 19.2,441.3 C 19.2,441.3 18.3,439.0 17.7,436.5 C 17.7,436.5 17.0,434.0 16.5,431.3 C 16.5,431.3 16.0,428.7 15.5,425.8 C 15.5,425.8 15.0,423.0 14.7,419.8 C 14.7,419.8 14.3,416.7 14.0,413.2 C 14.0,413.2 13.7,409.7 13.5,405.8 C 13.5,405.8 13.3,402.0 13.2,398.0 C 13.2,398.0 13.0,394.0 12.8,389.8 C 12.8,389.8 12.7,385.7 12.5,381.5 C 12.5,381.5 12.3,377.3 12.0,372.8 C 12.0,372.8 11.7,368.3 11.7,363.8 C 11.7,363.8 11.7,359.3 11.7,354.5 C 11.7,354.5 11.7,349.7 12.0,344.8 C 12.0,344.8 12.3,340.0 12.7,335.0 C 12.7,335.0 13.0,330.0 13.5,325.0 C 13.5,325.0 14.0,320.0 14.7,314.8 C 14.7,314.8 15.3,309.7 16.2,304.5 C 16.2,304.5 17.0,299.3 18.2,294.0 C 18.2,294.0 19.3,288.7 20.5,283.5 C 20.5,283.5 21.7,278.3 22.8,273.5 C 22.8,273.5 24.0,268.7 25.0,264.7 C 25.0,264.7 26.0,260.7 26.8,257.7 C 26.8,257.7 27.7,254.7 28.3,252.3 C 28.3,252.3 29.0,250.0 29.3,248.3 C 29.3,248.3 29.7,246.7 30.0,245.2 C 30.0,245.2 30.3,243.7 30.7,242.5 C 30.7,242.5 31.0,241.3 31.7,240.2 C 31.7,240.2 32.3,239.0 33.2,238.2 C 33.2,238.2 34.0,237.3 35.0,236.7 C 35.0,236.7 36.0,236.0 37.0,235.7 C 37.0,235.7 38.0,235.3 38.8,235.2 C 38.8,235.2 39.7,235.0 40.5,235.0 C 40.5,235.0 41.3,235.0 42.2,234.8 C 42.2,234.8 43.0,234.7 44.0,234.3 C 44.0,234.3 45.0,234.0 46.2,233.5 C 46.2,233.5 47.3,233.0 48.5,232.3 C 48.5,232.3 49.7,231.7 50.8,230.8 C 50.8,230.8 52.0,230.0 53.0,228.7 C 53.0,228.7 54.0,227.3 55.0,225.8 C 55.0,225.8 56.0,224.3 57.0,222.5 C 57.0,222.5 58.0,220.7 58.8,218.7 C 58.8,218.7 59.7,216.7 60.5,214.5 C 60.5,214.5 61.3,212.3 62.0,210.0 C 62.0,210.0 62.7,207.7 63.3,205.3 C 63.3,205.3 64.0,203.0 64.5,200.3 C 64.5,200.3 65.0,197.7 65.5,195.0 C 65.5,195.0 66.0,192.3 66.7,189.5 C 66.7,189.5 67.3,186.7 68.0,183.8 C 68.0,183.8 68.7,181.0 69.3,178.0 C 69.3,178.0 70.0,175.0 70.5,172.0 C 70.5,172.0 71.0,169.0 71.7,165.8 C 71.7,165.8 72.3,162.7 73.0,159.2 C 73.0,159.2 73.7,155.7 74.5,151.8 C 74.5,151.8 75.3,148.0 76.0,143.8 C 76.0,143.8 76.7,139.7 77.3,135.5 C 77.3,135.5 78.0,131.3 78.5,127.0 C 78.5,127.0 79.0,122.7 79.3,118.3 C 79.3,118.3 79.7,114.0 80.0,109.5 C 80.0,109.5 80.3,105.0 80.7,99.5 L 81,94" stroke="#3B82F6" stroke-width="2" fill="none" vector-effect="non-scaling-stroke"/><path d="M 81,94 C 80.8,91.8 80.5,89.5 80.2,87.2 C 80.2,87.2 80.0,85.0 79.3,80.7 C 79.3,80.7 78.7,76.3 78.0,72.3 C 78.0,72.3 77.3,68.3 76.7,65.0 C 76.7,65.0 76.0,61.7 75.5,58.8 C 75.5,58.8 75.0,56.0 74.5,53.8 C 74.5,53.8 74.0,51.7 73.5,49.8 C 73.5,49.8 73.0,48.0 72.7,46.7 C 72.7,46.7 72.3,45.3 72.0,44.0 C 72.0,44.0 71.7,42.7 71.5,41.5 C 71.5,41.5 71.3,40.3 71.0,39.2 C 71.0,39.2 70.7,38.0 70.5,37.0 C 70.5,37.0 70.3,36.0 70.2,35.2 C 70.2,35.2 70.0,34.3 69.8,33.5 C 69.8,33.5 69.7,32.7 69.7,32.0 C 69.7,32.0 69.7,31.3 69.7,30.5 C 69.7,30.5 69.7,29.7 70.0,29.0 C 70.0,29.0 70.3,28.3 70.7,27.7 C 70.7,27.7 71.0,27.0 71.5,26.5 C 71.5,26.5 72.0,26.0 72.5,25.5 C 72.5,25.5 73.0,25.0 73.5,24.7 C 73.5,24.7 74.0,24.3 74.7,24.2 C 74.7,24.2 75.3,24.0 76.0,24.2 C 76.0,24.2 76.7,24.3 77.5,24.7 C 77.5,24.7 78.3,25.0 79.0,25.7 C 79.0,25.7 79.7,26.3 80.2,27.2 C 80.2,27.2 80.7,28.0 81.0,29.0 C 81.0,29.0 81.3,30.0 81.7,31.0 C 81.7,31.0 82.0,32.0 82.5,33.3 C 82.5,33.3 83.0,34.7 83.3,36.3 C 83.3,36.3 83.7,38.0 84.0,40.0 C 84.0,40.0 84.3,42.0 84.5,44.2 C 84.5,44.2 84.7,46.3 84.8,48.5 C 84.8,48.5 85.0,50.7 85.2,53.0 C 85.2,53.0 85.3,55.3 85.7,57.7 C 85.7,57.7 86.0,60.0 86.7,62.5 C 86.7,62.5 87.3,65.0 88.2,67.3 C 88.2,67.3 89.0,69.7 90.2,72.0 C 90.2,72.0 91.3,74.3 92.5,76.7 C 92.5,76.7 93.7,79.0 95.0,81.7 C 95.0,81.7 96.3,84.3 97.5,87.2 C 97.5,87.2 98.7,90.0 100.0,93.0 C 100.0,93.0 101.3,96.0 102.5,99.2 C 102.5,99.2 103.7,102.3 105.0,105.8 C 105.0,105.8 106.3,109.3 107.7,113.0 C 107.7,113.0 109.0,116.7 110.5,120.5 C 110.5,120.5 112.0,124.3 113.7,128.3 C 113.7,128.3 115.3,132.3 117.0,136.7 C 117.0,136.7 118.7,141.0 120.3,145.5 C 120.3,145.5 122.0,150.0 123.7,154.7 C 123.7,154.7 125.3,159.3 127.0,164.0 C 127.0,164.0 128.7,168.7 130.2,173.3 C 130.2,173.3 131.7,178.0 132.8,182.5 C 132.8,182.5 134.0,187.0 135.0,191.7 C 135.0,191.7 136.0,196.3 137.0,201.0 C 137.0,201.0 138.0,205.7 139.0,210.5 C 139.0,210.5 140.0,215.3 141.0,220.2 C 141.0,220.2 142.0,225.0 143.0,230.2 C 143.0,230.2 144.0,235.3 145.0,240.7 C 145.0,240.7 146.0,246.0 147.0,251.3 C 147.0,251.3 148.0,256.7 149.2,262.0 C 149.2,262.0 150.3,267.3 151.5,272.7 C 151.5,272.7 152.7,278.0 153.8,283.5 C 153.8,283.5 155.0,289.0 156.2,294.5 C 156.2,294.5 157.3,300.0 158.5,305.5 C 158.5,305.5 159.7,311.0 160.8,316.7 C 160.8,316.7 162.0,322.3 163.2,328.0 C 163.2,328.0 164.3,333.7 165.5,339.5 C 165.5,339.5 166.7,345.3 168.0,351.2 C 168.0,351.2 169.3,357.0 170.5,362.7 C 170.5,362.7 171.7,368.3 172.7,373.3 C 172.7,373.3 173.7,378.3 174.5,382.3 C 174.5,382.3 175.3,386.3 175.8,389.3 C 175.8,389.3 176.3,392.3 176.8,394.5 C 176.8,394.5 177.3,396.7 177.5,398.2 C 177.5,398.2 177.7,399.7 178.0,400.8 C 178.0,400.8 178.3,402.0 178.5,403.2 C 178.5,403.2 178.7,404.3 179.0,405.5 C 179.0,405.5 179.3,406.7 179.5,407.8 C 179.5,407.8 179.7,409.0 179.7,410.0 C 179.7,410.0 179.7,411.0 179.5,411.8 C 179.5,411.8 179.3,412.7 179.0,413.5 C 179.0,413.5 178.7,414.3 178.2,415.0 C 178.2,415.0 177.7,415.7 177.0,416.2 C 177.0,416.2 176.3,416.7 175.7,417.0 C 175.7,417.0 175.0,417.3 174.5,417.7 C 174.5,417.7 174.0,418.0 173.5,418.5 C 173.5,418.5 173.0,419.0 172.7,419.7 C 172.7,419.7 172.3,420.3 172.0,421.0 C 172.0,421.0 171.7,421.7 171.5,422.5 C 171.5,422.5 171.3,423.3 171.3,424.2 C 171.3,424.2 171.3,425.0 171.5,426.0 C 171.5,426.0 171.7,427.0 172.0,428.3 C 172.0,428.3 172.3,429.7 172.7,431.2 C 172.7,431.2 173.0,432.7 173.5,434.7 C 173.5,434.7 174.0,436.7 174.3,438.8 C 174.3,438.8 174.7,441.0 175.2,443.8 C 175.2,443.8 175.7,446.7 176.2,449.7 C 176.2,449.7 176.7,452.7 177.5,456.2 C 177.5,456.2 178.3,459.7 179.0,463.3 C 179.0,463.3 179.7,467.0 180.5,471.0 C 180.5,471.0 181.3,475.0 182.2,479.0 C 182.2,479.0 183.0,483.0 184.7,490.5 C 184.7,490.5 186.3,498.0 188.0,505.8 C 188.0,505.8 189.7,513.7 191.3,521.7 C 191.3,521.7 193.0,529.7 194.0,534.5 C 194.0,534.5 195.0,539.3 196.0,544.0 C 196.0,544.0 197.0,548.7 198.0,554.3 L 199,560" stroke="#374151" stroke-width="8" fill="none" vector-effect="non-scaling-stroke"/><path d="M 81,94 C 80.8,91.8 80.5,89.5 80.2,87.2 C 80.2,87.2 80.0,85.0 79.3,80.7 C 79.3,80.7 78.7,76.3 78.0,72.3 C 78.0,72.3 77.3,68.3 76.7,65.0 C 76.7,65.0 76.0,61.7 75.5,58.8 C 75.5,58.8 75.0,56.0 74.5,53.8 C 74.5,53.8 74.0,51.7 73.5,49.8 C 73.5,49.8 73.0,48.0 72.7,46.7 C 72.7,46.7 72.3,45.3 72.0,44.0 C 72.0,44.0 71.7,42.7 71.5,41.5 C 71.5,41.5 71.3,40.3 71.0,39.2 C 71.0,39.2 70.7,38.0 70.5,37.0 C 70.5,37.0 70.3,36.0 70.2,35.2 C 70.2,35.2 70.0,34.3 69.8,33.5 C 69.8,33.5 69.7,32.7 69.7,32.0 C 69.7,32.0 69.7,31.3 69.7,30.5 C 69.7,30.5 69.7,29.7 70.0,29.0 C 70.0,29.0 70.3,28.3 70.7,27.7 C 70.7,27.7 71.0,27.0 71.5,26.5 C 71.5,26.5 72.0,26.0 72.5,25.5 C 72.5,25.5 73.0,25.0 73.5,24.7 C 73.5,24.7 74.0,24.3 74.7,24.2 C 74.7,24.2 75.3,24.0 76.0,24.2 C 76.0,24.2 76.7,24.3 77.5,24.7 C 77.5,24.7 78.3,25.0 79.0,25.7 C 79.0,25.7 79.7,26.3 80.2,27.2 C 80.2,27.2 80.7,28.0 81.0,29.0 C 81.0,29.0 81.3,30.0 81.7,31.0 C 81.7,31.0 82.0,32.0 82.5,33.3 C 82.5,33.3 83.0,34.7 83.3,36.3 C 83.3,36.3 83.7,38.0 84.0,40.0 C 84.0,40.0 84.3,42.0 84.5,44.2 C 84.5,44.2 84.7,46.3 84.8,48.5 C 84.8,48.5 85.0,50.7 85.2,53.0 C 85.2,53.0 85.3,55.3 85.7,57.7 C 85.7,57.7 86.0,60.0 86.7,62.5 C 86.7,62.5 87.3,65.0 88.2,67.3 C 88.2,67.3 89.0,69.7 90.2,72.0 C 90.2,72.0 91.3,74.3 92.5,76.7 C 92.5,76.7 93.7,79.0 95.0,81.7 C 95.0,81.7 96.3,84.3 97.5,87.2 C 97.5,87.2 98.7,90.0 100.0,93.0 C 100.0,93.0 101.3,96.0 102.5,99.2 C 102.5,99.2 103.7,102.3 105.0,105.8 C 105.0,105.8 106.3,109.3 107.7,113.0 C 107.7,113.0 109.0,116.7 110.5,120.5 C 110.5,120.5 112.0,124.3 113.7,128.3 C 113.7,128.3 115.3,132.3 117.0,136.7 C 117.0,136.7 118.7,141.0 120.3,145.5 C 120.3,145.5 122.0,150.0 123.7,154.7 C 123.7,154.7 125.3,159.3 127.0,164.0 C 127.0,164.0 128.7,168.7 130.2,173.3 C 130.2,173.3 131.7,178.0 132.8,182.5 C 132.8,182.5 134.0,187.0 135.0,191.7 C 135.0,191.7 136.0,196.3 137.0,201.0 C 137.0,201.0 138.0,205.7 139.0,210.5 C 139.0,210.5 140.0,215.3 141.0,220.2 C 141.0,220.2 142.0,225.0 143.0,230.2 C 143.0,230.2 144.0,235.3 145.0,240.7 C 145.0,240.7 146.0,246.0 147.0,251.3 C 147.0,251.3 148.0,256.7 149.2,262.0 C 149.2,262.0 150.3,267.3 151.5,272.7 C 151.5,272.7 152.7,278.0 153.8,283.5 C 153.8,283.5 155.0,289.0 156.2,294.5 C 156.2,294.5 157.3,300.0 158.5,305.5 C 158.5,305.5 159.7,311.0 160.8,316.7 C 160.8,316.7 162.0,322.3 163.2,328.0 C 163.2,328.0 164.3,333.7 165.5,339.5 C 165.5,339.5 166.7,345.3 168.0,351.2 C 168.0,351.2 169.3,357.0 170.5,362.7 C 170.5,362.7 171.7,368.3 172.7,373.3 C 172.7,373.3 173.7,378.3 174.5,382.3 C 174.5,382.3 175.3,386.3 175.8,389.3 C 175.8,389.3 176.3,392.3 176.8,394.5 C 176.8,394.5 177.3,396.7 177.5,398.2 C 177.5,398.2 177.7,399.7 178.0,400.8 C 178.0,400.8 178.3,402.0 178.5,403.2 C 178.5,403.2 178.7,404.3 179.0,405.5 C 179.0,405.5 179.3,406.7 179.5,407.8 C 179.5,407.8 179.7,409.0 179.7,410.0 C 179.7,410.0 179.7,411.0 179.5,411.8 C 179.5,411.8 179.3,412.7 179.0,413.5 C 179.0,413.5 178.7,414.3 178.2,415.0 C 178.2,415.0 177.7,415.7 177.0,416.2 C 177.0,416.2 176.3,416.7 175.7,417.0 C 175.7,417.0 175.0,417.3 174.5,417.7 C 174.5,417.7 174.0,418.0 173.5,418.5 C 173.5,418.5 173.0,419.0 172.7,419.7 C 172.7,419.7 172.3,420.3 172.0,421.0 C 172.0,421.0 171.7,421.7 171.5,422.5 C 171.5,422.5 171.3,423.3 171.3,424.2 C 171.3,424.2 171.3,425.0 171.5,426.0 C 171.5,426.0 171.7,427.0 172.0,428.3 C 172.0,428.3 172.3,429.7 172.7,431.2 C 172.7,431.2 173.0,432.7 173.5,434.7 C 173.5,434.7 174.0,436.7 174.3,438.8 C 174.3,438.8 174.7,441.0 175.2,443.8 C 175.2,443.8 175.7,446.7 176.2,449.7 C 176.2,449.7 176.7,452.7 177.5,456.2 C 177.5,456.2 178.3,459.7 179.0,463.3 C 179.0,463.3 179.7,467.0 180.5,471.0 C 180.5,471.0 181.3,475.0 182.2,479.0 C 182.2,479.0 183.0,483.0 184.7,490.5 C 184.7,490.5 186.3,498.0 188.0,505.8 C 188.0,505.8 189.7,513.7 191.3,521.7 C 191.3,521.7 193.0,529.7 194.0,534.5 C 194.0,534.5 195.0,539.3 196.0,544.0 C 196.0,544.0 197.0,548.7 198.0,554.3 L 199,560" stroke="#FBBF24" stroke-width="2" fill="none" vector-effect="non-scaling-stroke"/>
    <g id="moving-circle-group">
        <circle cx="199" cy="560" r="20" fill="#000000" vector-effect="non-scaling-stroke"/>
        <circle cx="199" cy="560" r="7" fill="#FFFFFF" vector-effect="non-scaling-stroke"/>
    </g></svg>