<svg id="minimap-svg" width="100%" height="100%" viewBox="0 0 700 614" xmlns="http://www.w3.org/2000/svg"><path d="M 405,485 C 401.8,486.0 398.5,487.0 395.4,487.7 C 395.4,487.7 392.3,488.3 386.2,489.8 C 386.2,489.8 380.0,491.3 373.8,492.7 C 373.8,492.7 367.7,494.0 361.3,495.5 C 361.3,495.5 355.0,497.0 348.8,498.5 C 348.8,498.5 342.7,500.0 336.5,501.5 C 336.5,501.5 330.3,503.0 324.2,504.5 C 324.2,504.5 318.0,506.0 311.5,507.3 C 311.5,507.3 305.0,508.7 298.7,510.0 C 298.7,510.0 292.3,511.3 286.3,512.7 C 286.3,512.7 280.3,514.0 274.5,515.5 C 274.5,515.5 268.7,517.0 262.8,518.3 C 262.8,518.3 257.0,519.7 251.0,521.2 C 251.0,521.2 245.0,522.7 239.3,524.0 C 239.3,524.0 233.7,525.3 228.2,526.7 C 228.2,526.7 222.7,528.0 217.8,529.2 C 217.8,529.2 213.0,530.3 208.2,531.5 C 208.2,531.5 203.3,532.7 199.0,533.8 C 199.0,533.8 194.7,535.0 190.3,536.0 C 190.3,536.0 186.0,537.0 182.0,538.0 C 182.0,538.0 178.0,539.0 174.2,539.8 C 174.2,539.8 170.3,540.7 166.7,541.5 C 166.7,541.5 163.0,542.3 159.7,543.0 C 159.7,543.0 156.3,543.7 153.3,544.3 C 153.3,544.3 150.3,545.0 147.3,545.5 C 147.3,545.5 144.3,546.0 141.3,546.3 C 141.3,546.3 138.3,546.7 135.5,546.8 C 135.5,546.8 132.7,547.0 130.0,546.8 C 130.0,546.8 127.3,546.7 124.8,546.3 C 124.8,546.3 122.3,546.0 119.8,545.3 C 119.8,545.3 117.3,544.7 115.2,543.8 C 115.2,543.8 113.0,543.0 110.8,542.0 C 110.8,542.0 108.7,541.0 106.5,539.8 C 106.5,539.8 104.3,538.7 102.2,537.5 C 102.2,537.5 100.0,536.3 98.0,534.8 C 98.0,534.8 96.0,533.3 94.2,531.7 C 94.2,531.7 92.3,530.0 90.7,528.0 C 90.7,528.0 89.0,526.0 87.7,523.8 C 87.7,523.8 86.3,521.7 85.2,519.5 C 85.2,519.5 84.0,517.3 83.2,515.0 C 83.2,515.0 82.3,512.7 81.7,510.3 C 81.7,510.3 81.0,508.0 80.7,505.7 C 80.7,505.7 80.3,503.3 80.2,501.0 C 80.2,501.0 80.0,498.7 80.0,496.3 C 80.0,496.3 80.0,494.0 80.2,491.5 C 80.2,491.5 80.3,489.0 80.8,486.8 C 80.8,486.8 81.3,484.7 82.2,482.7 C 82.2,482.7 83.0,480.7 84.0,479.0 C 84.0,479.0 85.0,477.3 86.2,475.5 C 86.2,475.5 87.3,473.7 88.7,472.2 C 88.7,472.2 90.0,470.7 91.5,469.3 C 91.5,469.3 93.0,468.0 94.5,467.0 C 94.5,467.0 96.0,466.0 97.5,465.2 C 97.5,465.2 99.0,464.3 100.5,463.7 C 100.5,463.7 102.0,463.0 103.5,462.7 C 103.5,462.7 105.0,462.3 106.5,462.2 C 106.5,462.2 108.0,462.0 109.5,462.0 C 109.5,462.0 111.0,462.0 112.5,462.0 C 112.5,462.0 114.0,462.0 115.5,462.2 C 115.5,462.2 117.0,462.3 118.5,462.8 C 118.5,462.8 120.0,463.3 121.3,464.2 C 121.3,464.2 122.7,465.0 124.0,466.0 C 124.0,466.0 125.3,467.0 126.3,468.0 C 126.3,468.0 127.3,469.0 128.3,470.3 C 128.3,470.3 129.3,471.7 129.8,473.0 C 129.8,473.0 130.3,474.3 130.8,476.0 C 130.8,476.0 131.3,477.7 131.3,479.0 C 131.3,479.0 131.3,480.3 131.3,482.0 C 131.3,482.0 131.3,483.7 131.0,485.0 C 131.0,485.0 130.7,486.3 130.3,487.8 C 130.3,487.8 130.0,489.3 129.5,490.7 C 129.5,490.7 129.0,492.0 128.3,493.5 C 128.3,493.5 127.7,495.0 127.2,496.5 C 127.2,496.5 126.7,498.0 126.3,499.5 C 126.3,499.5 126.0,501.0 126.2,502.5 C 126.2,502.5 126.3,504.0 126.7,505.3 C 126.7,505.3 127.0,506.7 127.7,508.0 C 127.7,508.0 128.3,509.3 129.2,510.7 C 129.2,510.7 130.0,512.0 131.2,513.2 C 131.2,513.2 132.3,514.3 133.5,515.3 C 133.5,515.3 134.7,516.3 136.2,517.0 C 136.2,517.0 137.7,517.7 139.2,518.2 C 139.2,518.2 140.7,518.7 142.5,518.8 C 142.5,518.8 144.3,519.0 146.0,518.7 C 146.0,518.7 147.7,518.3 149.5,517.5 C 149.5,517.5 151.3,516.7 153.0,515.3 C 153.0,515.3 154.7,514.0 156.3,512.5 C 156.3,512.5 158.0,511.0 159.2,509.3 C 159.2,509.3 160.3,507.7 161.3,505.8 C 161.3,505.8 162.3,504.0 163.2,501.8 C 163.2,501.8 164.0,499.7 164.8,497.3 C 164.8,497.3 165.7,495.0 166.3,492.5 C 166.3,492.5 167.0,490.0 167.3,487.3 C 167.3,487.3 167.7,484.7 167.7,482.0 C 167.7,482.0 167.7,479.3 167.3,476.7 C 167.3,476.7 167.0,474.0 166.2,471.3 C 166.2,471.3 165.3,468.7 164.3,466.0 C 164.3,466.0 163.3,463.3 161.8,460.7 C 161.8,460.7 160.3,458.0 158.8,455.7 C 158.8,455.7 157.3,453.3 155.5,451.0 C 155.5,451.0 153.7,448.7 151.8,446.5 C 151.8,446.5 150.0,444.3 148.0,442.0 C 148.0,442.0 146.0,439.7 143.8,437.3 C 143.8,437.3 141.7,435.0 139.2,432.3 C 139.2,432.3 136.7,429.7 133.8,426.7 C 133.8,426.7 131.0,423.7 128.0,420.3 C 128.0,420.3 125.0,417.0 122.0,413.7 C 122.0,413.7 119.0,410.3 115.8,406.7 C 115.8,406.7 112.7,403.0 109.5,399.3 C 109.5,399.3 106.3,395.7 103.0,391.8 C 103.0,391.8 99.7,388.0 96.5,384.5 C 96.5,384.5 93.3,381.0 90.2,377.5 C 90.2,377.5 87.0,374.0 84.0,370.5 C 84.0,370.5 81.0,367.0 78.2,363.7 C 78.2,363.7 75.3,360.3 72.7,357.0 C 72.7,357.0 70.0,353.7 67.5,350.3 C 67.5,350.3 65.0,347.0 62.7,343.5 C 62.7,343.5 60.3,340.0 58.3,336.3 C 58.3,336.3 56.3,332.7 54.7,329.0 C 54.7,329.0 53.0,325.3 51.5,321.7 C 51.5,321.7 50.0,318.0 48.5,314.3 C 48.5,314.3 47.0,310.7 45.5,306.3 L 44,302" stroke="#374151" stroke-width="8" fill="none" vector-effect="non-scaling-stroke"/><path d="M 405,485 C 401.8,486.0 398.5,487.0 395.4,487.7 C 395.4,487.7 392.3,488.3 386.2,489.8 C 386.2,489.8 380.0,491.3 373.8,492.7 C 373.8,492.7 367.7,494.0 361.3,495.5 C 361.3,495.5 355.0,497.0 348.8,498.5 C 348.8,498.5 342.7,500.0 336.5,501.5 C 336.5,501.5 330.3,503.0 324.2,504.5 C 324.2,504.5 318.0,506.0 311.5,507.3 C 311.5,507.3 305.0,508.7 298.7,510.0 C 298.7,510.0 292.3,511.3 286.3,512.7 C 286.3,512.7 280.3,514.0 274.5,515.5 C 274.5,515.5 268.7,517.0 262.8,518.3 C 262.8,518.3 257.0,519.7 251.0,521.2 C 251.0,521.2 245.0,522.7 239.3,524.0 C 239.3,524.0 233.7,525.3 228.2,526.7 C 228.2,526.7 222.7,528.0 217.8,529.2 C 217.8,529.2 213.0,530.3 208.2,531.5 C 208.2,531.5 203.3,532.7 199.0,533.8 C 199.0,533.8 194.7,535.0 190.3,536.0 C 190.3,536.0 186.0,537.0 182.0,538.0 C 182.0,538.0 178.0,539.0 174.2,539.8 C 174.2,539.8 170.3,540.7 166.7,541.5 C 166.7,541.5 163.0,542.3 159.7,543.0 C 159.7,543.0 156.3,543.7 153.3,544.3 C 153.3,544.3 150.3,545.0 147.3,545.5 C 147.3,545.5 144.3,546.0 141.3,546.3 C 141.3,546.3 138.3,546.7 135.5,546.8 C 135.5,546.8 132.7,547.0 130.0,546.8 C 130.0,546.8 127.3,546.7 124.8,546.3 C 124.8,546.3 122.3,546.0 119.8,545.3 C 119.8,545.3 117.3,544.7 115.2,543.8 C 115.2,543.8 113.0,543.0 110.8,542.0 C 110.8,542.0 108.7,541.0 106.5,539.8 C 106.5,539.8 104.3,538.7 102.2,537.5 C 102.2,537.5 100.0,536.3 98.0,534.8 C 98.0,534.8 96.0,533.3 94.2,531.7 C 94.2,531.7 92.3,530.0 90.7,528.0 C 90.7,528.0 89.0,526.0 87.7,523.8 C 87.7,523.8 86.3,521.7 85.2,519.5 C 85.2,519.5 84.0,517.3 83.2,515.0 C 83.2,515.0 82.3,512.7 81.7,510.3 C 81.7,510.3 81.0,508.0 80.7,505.7 C 80.7,505.7 80.3,503.3 80.2,501.0 C 80.2,501.0 80.0,498.7 80.0,496.3 C 80.0,496.3 80.0,494.0 80.2,491.5 C 80.2,491.5 80.3,489.0 80.8,486.8 C 80.8,486.8 81.3,484.7 82.2,482.7 C 82.2,482.7 83.0,480.7 84.0,479.0 C 84.0,479.0 85.0,477.3 86.2,475.5 C 86.2,475.5 87.3,473.7 88.7,472.2 C 88.7,472.2 90.0,470.7 91.5,469.3 C 91.5,469.3 93.0,468.0 94.5,467.0 C 94.5,467.0 96.0,466.0 97.5,465.2 C 97.5,465.2 99.0,464.3 100.5,463.7 C 100.5,463.7 102.0,463.0 103.5,462.7 C 103.5,462.7 105.0,462.3 106.5,462.2 C 106.5,462.2 108.0,462.0 109.5,462.0 C 109.5,462.0 111.0,462.0 112.5,462.0 C 112.5,462.0 114.0,462.0 115.5,462.2 C 115.5,462.2 117.0,462.3 118.5,462.8 C 118.5,462.8 120.0,463.3 121.3,464.2 C 121.3,464.2 122.7,465.0 124.0,466.0 C 124.0,466.0 125.3,467.0 126.3,468.0 C 126.3,468.0 127.3,469.0 128.3,470.3 C 128.3,470.3 129.3,471.7 129.8,473.0 C 129.8,473.0 130.3,474.3 130.8,476.0 C 130.8,476.0 131.3,477.7 131.3,479.0 C 131.3,479.0 131.3,480.3 131.3,482.0 C 131.3,482.0 131.3,483.7 131.0,485.0 C 131.0,485.0 130.7,486.3 130.3,487.8 C 130.3,487.8 130.0,489.3 129.5,490.7 C 129.5,490.7 129.0,492.0 128.3,493.5 C 128.3,493.5 127.7,495.0 127.2,496.5 C 127.2,496.5 126.7,498.0 126.3,499.5 C 126.3,499.5 126.0,501.0 126.2,502.5 C 126.2,502.5 126.3,504.0 126.7,505.3 C 126.7,505.3 127.0,506.7 127.7,508.0 C 127.7,508.0 128.3,509.3 129.2,510.7 C 129.2,510.7 130.0,512.0 131.2,513.2 C 131.2,513.2 132.3,514.3 133.5,515.3 C 133.5,515.3 134.7,516.3 136.2,517.0 C 136.2,517.0 137.7,517.7 139.2,518.2 C 139.2,518.2 140.7,518.7 142.5,518.8 C 142.5,518.8 144.3,519.0 146.0,518.7 C 146.0,518.7 147.7,518.3 149.5,517.5 C 149.5,517.5 151.3,516.7 153.0,515.3 C 153.0,515.3 154.7,514.0 156.3,512.5 C 156.3,512.5 158.0,511.0 159.2,509.3 C 159.2,509.3 160.3,507.7 161.3,505.8 C 161.3,505.8 162.3,504.0 163.2,501.8 C 163.2,501.8 164.0,499.7 164.8,497.3 C 164.8,497.3 165.7,495.0 166.3,492.5 C 166.3,492.5 167.0,490.0 167.3,487.3 C 167.3,487.3 167.7,484.7 167.7,482.0 C 167.7,482.0 167.7,479.3 167.3,476.7 C 167.3,476.7 167.0,474.0 166.2,471.3 C 166.2,471.3 165.3,468.7 164.3,466.0 C 164.3,466.0 163.3,463.3 161.8,460.7 C 161.8,460.7 160.3,458.0 158.8,455.7 C 158.8,455.7 157.3,453.3 155.5,451.0 C 155.5,451.0 153.7,448.7 151.8,446.5 C 151.8,446.5 150.0,444.3 148.0,442.0 C 148.0,442.0 146.0,439.7 143.8,437.3 C 143.8,437.3 141.7,435.0 139.2,432.3 C 139.2,432.3 136.7,429.7 133.8,426.7 C 133.8,426.7 131.0,423.7 128.0,420.3 C 128.0,420.3 125.0,417.0 122.0,413.7 C 122.0,413.7 119.0,410.3 115.8,406.7 C 115.8,406.7 112.7,403.0 109.5,399.3 C 109.5,399.3 106.3,395.7 103.0,391.8 C 103.0,391.8 99.7,388.0 96.5,384.5 C 96.5,384.5 93.3,381.0 90.2,377.5 C 90.2,377.5 87.0,374.0 84.0,370.5 C 84.0,370.5 81.0,367.0 78.2,363.7 C 78.2,363.7 75.3,360.3 72.7,357.0 C 72.7,357.0 70.0,353.7 67.5,350.3 C 67.5,350.3 65.0,347.0 62.7,343.5 C 62.7,343.5 60.3,340.0 58.3,336.3 C 58.3,336.3 56.3,332.7 54.7,329.0 C 54.7,329.0 53.0,325.3 51.5,321.7 C 51.5,321.7 50.0,318.0 48.5,314.3 C 48.5,314.3 47.0,310.7 45.5,306.3 L 44,302" stroke="#EF4444" stroke-width="2" fill="none" vector-effect="non-scaling-stroke"/><path d="M 44,302 C 43.5,300.2 43.0,298.5 42.3,296.6 C 42.3,296.6 41.7,294.7 40.5,291.0 C 40.5,291.0 39.3,287.3 38.0,283.7 C 38.0,283.7 36.7,280.0 35.5,276.5 C 35.5,276.5 34.3,273.0 33.2,269.7 C 33.2,269.7 32.0,266.3 31.0,263.3 C 31.0,263.3 30.0,260.3 29.0,257.7 C 29.0,257.7 28.0,255.0 27.2,252.7 C 27.2,252.7 26.3,250.3 25.7,248.2 C 25.7,248.2 25.0,246.0 24.5,244.3 C 24.5,244.3 24.0,242.7 23.5,241.3 C 23.5,241.3 23.0,240.0 22.5,238.8 C 22.5,238.8 22.0,237.7 21.5,236.5 C 21.5,236.5 21.0,235.3 20.5,234.0 C 20.5,234.0 20.0,232.7 19.5,231.5 C 19.5,231.5 19.0,230.3 18.7,229.2 C 18.7,229.2 18.3,228.0 18.0,226.8 C 18.0,226.8 17.7,225.7 17.5,224.5 C 17.5,224.5 17.3,223.3 17.3,222.0 C 17.3,222.0 17.3,220.7 17.7,219.3 C 17.7,219.3 18.0,218.0 18.7,216.8 C 18.7,216.8 19.3,215.7 20.2,214.7 C 20.2,214.7 21.0,213.7 22.2,213.0 C 22.2,213.0 23.3,212.3 24.7,211.8 C 24.7,211.8 26.0,211.3 27.5,211.3 C 27.5,211.3 29.0,211.3 30.5,211.7 C 30.5,211.7 32.0,212.0 33.3,212.5 C 33.3,212.5 34.7,213.0 36.2,213.7 C 36.2,213.7 37.7,214.3 39.3,215.3 C 39.3,215.3 41.0,216.3 43.0,217.8 C 43.0,217.8 45.0,219.3 47.2,221.2 C 47.2,221.2 49.3,223.0 51.3,225.0 C 51.3,225.0 53.3,227.0 55.7,229.0 C 55.7,229.0 58.0,231.0 60.3,233.3 C 60.3,233.3 62.7,235.7 65.3,238.5 C 65.3,238.5 68.0,241.3 70.5,244.7 C 70.5,244.7 73.0,248.0 75.5,251.7 C 75.5,251.7 78.0,255.3 80.5,259.2 C 80.5,259.2 83.0,263.0 85.5,267.0 C 85.5,267.0 88.0,271.0 90.3,275.0 C 90.3,275.0 92.7,279.0 94.8,283.0 C 94.8,283.0 97.0,287.0 99.0,290.8 C 99.0,290.8 101.0,294.7 103.0,298.5 C 103.0,298.5 105.0,302.3 107.0,306.0 C 107.0,306.0 109.0,309.7 111.0,313.3 C 111.0,313.3 113.0,317.0 115.0,320.5 C 115.0,320.5 117.0,324.0 118.8,327.2 C 118.8,327.2 120.7,330.3 122.5,333.2 C 122.5,333.2 124.3,336.0 125.8,338.3 C 125.8,338.3 127.3,340.7 129.2,343.0 C 129.2,343.0 131.0,345.3 132.7,347.5 C 132.7,347.5 134.3,349.7 136.5,351.8 C 136.5,351.8 138.7,354.0 140.7,355.8 C 140.7,355.8 142.7,357.7 145.0,359.3 C 145.0,359.3 147.3,361.0 149.7,362.5 C 149.7,362.5 152.0,364.0 154.7,365.3 C 154.7,365.3 157.3,366.7 160.2,367.8 C 160.2,367.8 163.0,369.0 166.0,370.0 C 166.0,370.0 169.0,371.0 172.0,371.7 C 172.0,371.7 175.0,372.3 178.0,372.8 C 178.0,372.8 181.0,373.3 184.0,373.3 C 184.0,373.3 187.0,373.3 190.2,373.3 C 190.2,373.3 193.3,373.3 196.5,372.8 C 196.5,372.8 199.7,372.3 202.8,371.7 C 202.8,371.7 206.0,371.0 208.8,370.0 C 208.8,370.0 211.7,369.0 214.5,367.8 C 214.5,367.8 217.3,366.7 220.2,365.2 C 220.2,365.2 223.0,363.7 225.8,361.8 C 225.8,361.8 228.7,360.0 231.2,357.8 C 231.2,357.8 233.7,355.7 236.0,353.3 C 236.0,353.3 238.3,351.0 240.3,348.3 C 240.3,348.3 242.3,345.7 244.2,342.8 C 244.2,342.8 246.0,340.0 247.5,337.0 C 247.5,337.0 249.0,334.0 250.5,330.8 C 250.5,330.8 252.0,327.7 253.3,324.7 C 253.3,324.7 254.7,321.7 256.0,318.7 C 256.0,318.7 257.3,315.7 258.5,313.0 C 258.5,313.0 259.7,310.3 260.8,308.0 C 260.8,308.0 262.0,305.7 263.2,303.5 C 263.2,303.5 264.3,301.3 265.5,299.3 C 265.5,299.3 266.7,297.3 268.2,295.2 C 268.2,295.2 269.7,293.0 271.2,291.0 C 271.2,291.0 272.7,289.0 274.5,287.2 C 274.5,287.2 276.3,285.3 278.0,283.7 C 278.0,283.7 279.7,282.0 281.7,280.7 C 281.7,280.7 283.7,279.3 285.8,278.2 C 285.8,278.2 288.0,277.0 290.5,276.0 C 290.5,276.0 293.0,275.0 295.5,274.3 C 295.5,274.3 298.0,273.7 300.5,273.2 C 300.5,273.2 303.0,272.7 305.3,272.5 C 305.3,272.5 307.7,272.3 310.2,272.3 C 310.2,272.3 312.7,272.3 315.3,272.7 C 315.3,272.7 318.0,273.0 320.7,273.8 C 320.7,273.8 323.3,274.7 325.8,275.8 C 325.8,275.8 328.3,277.0 330.7,278.7 C 330.7,278.7 333.0,280.3 335.3,282.2 C 335.3,282.2 337.7,284.0 339.7,286.0 C 339.7,286.0 341.7,288.0 343.3,290.2 C 343.3,290.2 345.0,292.3 346.3,294.7 C 346.3,294.7 347.7,297.0 348.8,299.3 C 348.8,299.3 350.0,301.7 351.0,303.8 C 351.0,303.8 352.0,306.0 353.0,308.0 C 353.0,308.0 354.0,310.0 355.0,312.0 C 355.0,312.0 356.0,314.0 356.8,315.8 C 356.8,315.8 357.7,317.7 358.3,319.2 C 358.3,319.2 359.0,320.7 359.7,321.8 C 359.7,321.8 360.3,323.0 361.0,324.2 C 361.0,324.2 361.7,325.3 362.3,326.5 C 362.3,326.5 363.0,327.7 363.7,328.8 C 363.7,328.8 364.3,330.0 365.2,331.0 C 365.2,331.0 366.0,332.0 367.2,333.0 C 367.2,333.0 368.3,334.0 369.7,334.8 C 369.7,334.8 371.0,335.7 372.3,336.3 C 372.3,336.3 373.7,337.0 375.0,337.5 C 375.0,337.5 376.3,338.0 377.7,338.3 C 377.7,338.3 379.0,338.7 380.5,338.7 C 380.5,338.7 382.0,338.7 383.5,338.3 C 383.5,338.3 385.0,338.0 386.3,337.3 C 386.3,337.3 387.7,336.7 389.2,335.7 C 389.2,335.7 390.7,334.7 392.0,333.3 C 392.0,333.3 393.3,332.0 395.0,330.5 C 395.0,330.5 396.7,329.0 398.0,327.5 C 398.0,327.5 399.3,326.0 400.8,324.3 C 400.8,324.3 402.3,322.7 403.5,321.0 C 403.5,321.0 404.7,319.3 406.0,317.7 C 406.0,317.7 407.3,316.0 408.5,314.5 C 408.5,314.5 409.7,313.0 410.8,311.3 C 410.8,311.3 412.0,309.7 412.8,307.8 C 412.8,307.8 413.7,306.0 414.2,304.0 C 414.2,304.0 414.7,302.0 414.8,299.8 C 414.8,299.8 415.0,297.7 414.8,295.5 C 414.8,295.5 414.7,293.3 414.3,291.2 C 414.3,291.2 414.0,289.0 413.3,286.8 C 413.3,286.8 412.7,284.7 411.5,282.3 C 411.5,282.3 410.3,280.0 408.8,277.5 C 408.8,277.5 407.3,275.0 405.7,272.3 C 405.7,272.3 404.0,269.7 402.2,266.8 C 402.2,266.8 400.3,264.0 398.3,260.8 C 398.3,260.8 396.3,257.7 394.2,254.3 C 394.2,254.3 392.0,251.0 389.7,247.2 C 389.7,247.2 387.3,243.3 385.0,239.5 C 385.0,239.5 382.7,235.7 380.2,231.5 C 380.2,231.5 377.7,227.3 375.2,223.2 C 375.2,223.2 372.7,219.0 369.8,214.5 C 369.8,214.5 367.0,210.0 364.0,205.3 C 364.0,205.3 361.0,200.7 358.2,195.8 C 358.2,195.8 355.3,191.0 352.5,186.0 C 352.5,186.0 349.7,181.0 346.8,176.2 C 346.8,176.2 344.0,171.3 341.0,166.3 C 341.0,166.3 338.0,161.3 334.0,155.2 L 330,149" stroke="#374151" stroke-width="8" fill="none" vector-effect="non-scaling-stroke"/><path d="M 44,302 C 43.5,300.2 43.0,298.5 42.3,296.6 C 42.3,296.6 41.7,294.7 40.5,291.0 C 40.5,291.0 39.3,287.3 38.0,283.7 C 38.0,283.7 36.7,280.0 35.5,276.5 C 35.5,276.5 34.3,273.0 33.2,269.7 C 33.2,269.7 32.0,266.3 31.0,263.3 C 31.0,263.3 30.0,260.3 29.0,257.7 C 29.0,257.7 28.0,255.0 27.2,252.7 C 27.2,252.7 26.3,250.3 25.7,248.2 C 25.7,248.2 25.0,246.0 24.5,244.3 C 24.5,244.3 24.0,242.7 23.5,241.3 C 23.5,241.3 23.0,240.0 22.5,238.8 C 22.5,238.8 22.0,237.7 21.5,236.5 C 21.5,236.5 21.0,235.3 20.5,234.0 C 20.5,234.0 20.0,232.7 19.5,231.5 C 19.5,231.5 19.0,230.3 18.7,229.2 C 18.7,229.2 18.3,228.0 18.0,226.8 C 18.0,226.8 17.7,225.7 17.5,224.5 C 17.5,224.5 17.3,223.3 17.3,222.0 C 17.3,222.0 17.3,220.7 17.7,219.3 C 17.7,219.3 18.0,218.0 18.7,216.8 C 18.7,216.8 19.3,215.7 20.2,214.7 C 20.2,214.7 21.0,213.7 22.2,213.0 C 22.2,213.0 23.3,212.3 24.7,211.8 C 24.7,211.8 26.0,211.3 27.5,211.3 C 27.5,211.3 29.0,211.3 30.5,211.7 C 30.5,211.7 32.0,212.0 33.3,212.5 C 33.3,212.5 34.7,213.0 36.2,213.7 C 36.2,213.7 37.7,214.3 39.3,215.3 C 39.3,215.3 41.0,216.3 43.0,217.8 C 43.0,217.8 45.0,219.3 47.2,221.2 C 47.2,221.2 49.3,223.0 51.3,225.0 C 51.3,225.0 53.3,227.0 55.7,229.0 C 55.7,229.0 58.0,231.0 60.3,233.3 C 60.3,233.3 62.7,235.7 65.3,238.5 C 65.3,238.5 68.0,241.3 70.5,244.7 C 70.5,244.7 73.0,248.0 75.5,251.7 C 75.5,251.7 78.0,255.3 80.5,259.2 C 80.5,259.2 83.0,263.0 85.5,267.0 C 85.5,267.0 88.0,271.0 90.3,275.0 C 90.3,275.0 92.7,279.0 94.8,283.0 C 94.8,283.0 97.0,287.0 99.0,290.8 C 99.0,290.8 101.0,294.7 103.0,298.5 C 103.0,298.5 105.0,302.3 107.0,306.0 C 107.0,306.0 109.0,309.7 111.0,313.3 C 111.0,313.3 113.0,317.0 115.0,320.5 C 115.0,320.5 117.0,324.0 118.8,327.2 C 118.8,327.2 120.7,330.3 122.5,333.2 C 122.5,333.2 124.3,336.0 125.8,338.3 C 125.8,338.3 127.3,340.7 129.2,343.0 C 129.2,343.0 131.0,345.3 132.7,347.5 C 132.7,347.5 134.3,349.7 136.5,351.8 C 136.5,351.8 138.7,354.0 140.7,355.8 C 140.7,355.8 142.7,357.7 145.0,359.3 C 145.0,359.3 147.3,361.0 149.7,362.5 C 149.7,362.5 152.0,364.0 154.7,365.3 C 154.7,365.3 157.3,366.7 160.2,367.8 C 160.2,367.8 163.0,369.0 166.0,370.0 C 166.0,370.0 169.0,371.0 172.0,371.7 C 172.0,371.7 175.0,372.3 178.0,372.8 C 178.0,372.8 181.0,373.3 184.0,373.3 C 184.0,373.3 187.0,373.3 190.2,373.3 C 190.2,373.3 193.3,373.3 196.5,372.8 C 196.5,372.8 199.7,372.3 202.8,371.7 C 202.8,371.7 206.0,371.0 208.8,370.0 C 208.8,370.0 211.7,369.0 214.5,367.8 C 214.5,367.8 217.3,366.7 220.2,365.2 C 220.2,365.2 223.0,363.7 225.8,361.8 C 225.8,361.8 228.7,360.0 231.2,357.8 C 231.2,357.8 233.7,355.7 236.0,353.3 C 236.0,353.3 238.3,351.0 240.3,348.3 C 240.3,348.3 242.3,345.7 244.2,342.8 C 244.2,342.8 246.0,340.0 247.5,337.0 C 247.5,337.0 249.0,334.0 250.5,330.8 C 250.5,330.8 252.0,327.7 253.3,324.7 C 253.3,324.7 254.7,321.7 256.0,318.7 C 256.0,318.7 257.3,315.7 258.5,313.0 C 258.5,313.0 259.7,310.3 260.8,308.0 C 260.8,308.0 262.0,305.7 263.2,303.5 C 263.2,303.5 264.3,301.3 265.5,299.3 C 265.5,299.3 266.7,297.3 268.2,295.2 C 268.2,295.2 269.7,293.0 271.2,291.0 C 271.2,291.0 272.7,289.0 274.5,287.2 C 274.5,287.2 276.3,285.3 278.0,283.7 C 278.0,283.7 279.7,282.0 281.7,280.7 C 281.7,280.7 283.7,279.3 285.8,278.2 C 285.8,278.2 288.0,277.0 290.5,276.0 C 290.5,276.0 293.0,275.0 295.5,274.3 C 295.5,274.3 298.0,273.7 300.5,273.2 C 300.5,273.2 303.0,272.7 305.3,272.5 C 305.3,272.5 307.7,272.3 310.2,272.3 C 310.2,272.3 312.7,272.3 315.3,272.7 C 315.3,272.7 318.0,273.0 320.7,273.8 C 320.7,273.8 323.3,274.7 325.8,275.8 C 325.8,275.8 328.3,277.0 330.7,278.7 C 330.7,278.7 333.0,280.3 335.3,282.2 C 335.3,282.2 337.7,284.0 339.7,286.0 C 339.7,286.0 341.7,288.0 343.3,290.2 C 343.3,290.2 345.0,292.3 346.3,294.7 C 346.3,294.7 347.7,297.0 348.8,299.3 C 348.8,299.3 350.0,301.7 351.0,303.8 C 351.0,303.8 352.0,306.0 353.0,308.0 C 353.0,308.0 354.0,310.0 355.0,312.0 C 355.0,312.0 356.0,314.0 356.8,315.8 C 356.8,315.8 357.7,317.7 358.3,319.2 C 358.3,319.2 359.0,320.7 359.7,321.8 C 359.7,321.8 360.3,323.0 361.0,324.2 C 361.0,324.2 361.7,325.3 362.3,326.5 C 362.3,326.5 363.0,327.7 363.7,328.8 C 363.7,328.8 364.3,330.0 365.2,331.0 C 365.2,331.0 366.0,332.0 367.2,333.0 C 367.2,333.0 368.3,334.0 369.7,334.8 C 369.7,334.8 371.0,335.7 372.3,336.3 C 372.3,336.3 373.7,337.0 375.0,337.5 C 375.0,337.5 376.3,338.0 377.7,338.3 C 377.7,338.3 379.0,338.7 380.5,338.7 C 380.5,338.7 382.0,338.7 383.5,338.3 C 383.5,338.3 385.0,338.0 386.3,337.3 C 386.3,337.3 387.7,336.7 389.2,335.7 C 389.2,335.7 390.7,334.7 392.0,333.3 C 392.0,333.3 393.3,332.0 395.0,330.5 C 395.0,330.5 396.7,329.0 398.0,327.5 C 398.0,327.5 399.3,326.0 400.8,324.3 C 400.8,324.3 402.3,322.7 403.5,321.0 C 403.5,321.0 404.7,319.3 406.0,317.7 C 406.0,317.7 407.3,316.0 408.5,314.5 C 408.5,314.5 409.7,313.0 410.8,311.3 C 410.8,311.3 412.0,309.7 412.8,307.8 C 412.8,307.8 413.7,306.0 414.2,304.0 C 414.2,304.0 414.7,302.0 414.8,299.8 C 414.8,299.8 415.0,297.7 414.8,295.5 C 414.8,295.5 414.7,293.3 414.3,291.2 C 414.3,291.2 414.0,289.0 413.3,286.8 C 413.3,286.8 412.7,284.7 411.5,282.3 C 411.5,282.3 410.3,280.0 408.8,277.5 C 408.8,277.5 407.3,275.0 405.7,272.3 C 405.7,272.3 404.0,269.7 402.2,266.8 C 402.2,266.8 400.3,264.0 398.3,260.8 C 398.3,260.8 396.3,257.7 394.2,254.3 C 394.2,254.3 392.0,251.0 389.7,247.2 C 389.7,247.2 387.3,243.3 385.0,239.5 C 385.0,239.5 382.7,235.7 380.2,231.5 C 380.2,231.5 377.7,227.3 375.2,223.2 C 375.2,223.2 372.7,219.0 369.8,214.5 C 369.8,214.5 367.0,210.0 364.0,205.3 C 364.0,205.3 361.0,200.7 358.2,195.8 C 358.2,195.8 355.3,191.0 352.5,186.0 C 352.5,186.0 349.7,181.0 346.8,176.2 C 346.8,176.2 344.0,171.3 341.0,166.3 C 341.0,166.3 338.0,161.3 334.0,155.2 L 330,149" stroke="#3B82F6" stroke-width="2" fill="none" vector-effect="non-scaling-stroke"/><path d="M 330,149 C 328.5,146.2 327.0,143.5 325.8,141.4 C 325.8,141.4 324.7,139.3 322.2,135.0 C 322.2,135.0 319.7,130.7 317.5,127.2 C 317.5,127.2 315.3,123.7 313.3,120.3 C 313.3,120.3 311.3,117.0 309.7,114.2 C 309.7,114.2 308.0,111.3 306.5,108.8 C 306.5,108.8 305.0,106.3 303.7,104.2 C 303.7,104.2 302.3,102.0 301.3,100.2 C 301.3,100.2 300.3,98.3 299.5,96.8 C 299.5,96.8 298.7,95.3 297.8,94.0 C 297.8,94.0 297.0,92.7 296.2,91.5 C 296.2,91.5 295.3,90.3 294.7,89.2 C 294.7,89.2 294.0,88.0 293.3,87.0 C 293.3,87.0 292.7,86.0 291.8,85.0 C 291.8,85.0 291.0,84.0 290.0,83.2 C 290.0,83.2 289.0,82.3 288.0,81.7 C 288.0,81.7 287.0,81.0 285.8,80.5 C 285.8,80.5 284.7,80.0 283.3,79.8 C 283.3,79.8 282.0,79.7 280.5,79.8 C 280.5,79.8 279.0,80.0 277.7,80.5 C 277.7,80.5 276.3,81.0 275.0,81.8 C 275.0,81.8 273.7,82.7 272.5,83.7 C 272.5,83.7 271.3,84.7 270.2,86.0 C 270.2,86.0 269.0,87.3 267.8,88.7 C 267.8,88.7 266.7,90.0 265.5,91.3 C 265.5,91.3 264.3,92.7 263.0,94.0 C 263.0,94.0 261.7,95.3 260.2,96.3 C 260.2,96.3 258.7,97.3 257.0,98.2 C 257.0,98.2 255.3,99.0 253.5,99.3 C 253.5,99.3 251.7,99.7 249.7,99.8 C 249.7,99.8 247.7,100.0 245.7,99.8 C 245.7,99.8 243.7,99.7 241.7,99.2 C 241.7,99.2 239.7,98.7 238.0,97.7 C 238.0,97.7 236.3,96.7 234.7,95.3 C 234.7,95.3 233.0,94.0 231.5,92.3 C 231.5,92.3 230.0,90.7 228.7,88.7 C 228.7,88.7 227.3,86.7 226.3,84.5 C 226.3,84.5 225.3,82.3 224.5,80.2 C 224.5,80.2 223.7,78.0 223.0,75.8 C 223.0,75.8 222.3,73.7 221.7,71.5 C 221.7,71.5 221.0,69.3 220.7,67.0 C 220.7,67.0 220.3,64.7 220.3,62.3 C 220.3,62.3 220.3,60.0 220.7,57.5 C 220.7,57.5 221.0,55.0 221.7,52.7 C 221.7,52.7 222.3,50.3 223.0,48.2 C 223.0,48.2 223.7,46.0 224.5,44.0 C 224.5,44.0 225.3,42.0 226.3,40.0 C 226.3,40.0 227.3,38.0 228.7,36.0 C 228.7,36.0 230.0,34.0 231.7,32.2 C 231.7,32.2 233.3,30.3 235.2,28.7 C 235.2,28.7 237.0,27.0 238.8,25.7 C 238.8,25.7 240.7,24.3 242.7,23.2 C 242.7,23.2 244.7,22.0 246.7,21.0 C 246.7,21.0 248.7,20.0 251.0,19.2 C 251.0,19.2 253.3,18.3 255.7,17.7 C 255.7,17.7 258.0,17.0 260.3,16.7 C 260.3,16.7 262.7,16.3 265.2,16.2 C 265.2,16.2 267.7,16.0 270.0,16.0 C 270.0,16.0 272.3,16.0 275.0,16.2 C 275.0,16.2 277.7,16.3 280.2,16.7 C 280.2,16.7 282.7,17.0 285.5,17.8 C 285.5,17.8 288.3,18.7 291.0,19.7 C 291.0,19.7 293.7,20.7 296.3,22.0 C 296.3,22.0 299.0,23.3 301.7,24.7 C 301.7,24.7 304.3,26.0 306.8,27.7 C 306.8,27.7 309.3,29.3 311.7,31.2 C 311.7,31.2 314.0,33.0 316.0,35.2 C 316.0,35.2 318.0,37.3 320.0,39.5 C 320.0,39.5 322.0,41.7 324.0,44.2 C 324.0,44.2 326.0,46.7 327.8,49.3 C 327.8,49.3 329.7,52.0 331.7,54.8 C 331.7,54.8 333.7,57.7 335.7,60.8 C 335.7,60.8 337.7,64.0 340.0,67.3 C 340.0,67.3 342.3,70.7 344.5,74.3 C 344.5,74.3 346.7,78.0 349.2,81.7 C 349.2,81.7 351.7,85.3 354.2,89.2 C 354.2,89.2 356.7,93.0 359.5,97.2 C 359.5,97.2 362.3,101.3 365.2,105.7 C 365.2,105.7 368.0,110.0 371.0,114.5 C 371.0,114.5 374.0,119.0 377.0,123.5 C 377.0,123.5 380.0,128.0 383.0,132.7 C 383.0,132.7 386.0,137.3 389.2,142.2 C 389.2,142.2 392.3,147.0 395.5,152.0 C 395.5,152.0 398.7,157.0 402.2,162.3 C 402.2,162.3 405.7,167.7 409.0,173.0 C 409.0,173.0 412.3,178.3 415.8,183.8 C 415.8,183.8 419.3,189.3 422.7,194.5 C 422.7,194.5 426.0,199.7 429.5,205.0 C 429.5,205.0 433.0,210.3 436.7,215.7 C 436.7,215.7 440.3,221.0 444.2,226.7 C 444.2,226.7 448.0,232.3 451.8,237.8 C 451.8,237.8 455.7,243.3 459.3,249.0 C 459.3,249.0 463.0,254.7 466.5,260.2 C 466.5,260.2 470.0,265.7 473.7,271.5 C 473.7,271.5 477.3,277.3 481.0,282.8 C 481.0,282.8 484.7,288.3 488.5,294.0 C 488.5,294.0 492.3,299.7 496.2,305.3 C 496.2,305.3 500.0,311.0 503.7,316.5 C 503.7,316.5 507.3,322.0 511.0,327.8 C 511.0,327.8 514.7,333.7 518.3,339.3 C 518.3,339.3 522.0,345.0 526.0,351.2 C 526.0,351.2 530.0,357.3 534.0,363.3 C 534.0,363.3 538.0,369.3 542.0,375.3 C 542.0,375.3 546.0,381.3 550.0,387.3 C 550.0,387.3 554.0,393.3 558.0,399.2 C 558.0,399.2 562.0,405.0 566.0,411.2 C 566.0,411.2 570.0,417.3 574.0,423.2 C 574.0,423.2 578.0,429.0 581.8,434.7 C 581.8,434.7 585.7,440.3 589.2,445.3 C 589.2,445.3 592.7,450.3 595.8,455.3 C 595.8,455.3 599.0,460.3 601.8,464.8 C 601.8,464.8 604.7,469.3 607.3,473.7 C 607.3,473.7 610.0,478.0 612.7,482.2 C 612.7,482.2 615.3,486.3 618.0,490.3 C 618.0,490.3 620.7,494.3 623.2,498.0 C 623.2,498.0 625.7,501.7 627.8,504.8 C 627.8,504.8 630.0,508.0 632.0,511.0 C 632.0,511.0 634.0,514.0 635.8,517.0 C 635.8,517.0 637.7,520.0 639.5,523.0 C 639.5,523.0 641.3,526.0 643.2,528.8 C 643.2,528.8 645.0,531.7 647.0,534.5 C 647.0,534.5 649.0,537.3 651.0,540.0 C 651.0,540.0 653.0,542.7 654.8,545.3 C 654.8,545.3 656.7,548.0 658.3,550.5 C 658.3,550.5 660.0,553.0 661.5,555.3 C 661.5,555.3 663.0,557.7 664.5,559.8 C 664.5,559.8 666.0,562.0 667.3,564.0 C 667.3,564.0 668.7,566.0 669.7,567.7 C 669.7,567.7 670.7,569.3 671.7,570.8 C 671.7,570.8 672.7,572.3 673.5,573.5 C 673.5,573.5 674.3,574.7 675.2,576.0 C 675.2,576.0 676.0,577.3 676.7,578.3 C 676.7,578.3 677.3,579.3 678.0,580.5 C 678.0,580.5 678.7,581.7 679.3,582.5 C 679.3,582.5 680.0,583.3 680.5,584.3 C 680.5,584.3 681.0,585.3 681.5,586.2 C 681.5,586.2 682.0,587.0 682.3,588.0 C 682.3,588.0 682.7,589.0 682.8,590.0 C 682.8,590.0 683.0,591.0 682.8,592.0 C 682.8,592.0 682.7,593.0 682.3,594.0 C 682.3,594.0 682.0,595.0 681.3,595.8 C 681.3,595.8 680.7,596.7 679.8,597.2 C 679.8,597.2 679.0,597.7 678.0,597.8 C 678.0,597.8 677.0,598.0 676.0,598.0 C 676.0,598.0 675.0,598.0 673.8,597.8 C 673.8,597.8 672.7,597.7 671.5,597.3 C 671.5,597.3 670.3,597.0 669.0,596.3 C 669.0,596.3 667.7,595.7 666.3,594.8 C 666.3,594.8 665.0,594.0 663.3,593.0 C 663.3,593.0 661.7,592.0 659.7,590.7 C 659.7,590.7 657.7,589.3 655.5,587.8 C 655.5,587.8 653.3,586.3 651.0,584.5 C 651.0,584.5 648.7,582.7 646.5,580.8 C 646.5,580.8 644.3,579.0 642.2,576.8 C 642.2,576.8 640.0,574.7 638.0,572.5 C 638.0,572.5 636.0,570.3 634.0,567.8 C 634.0,567.8 632.0,565.3 630.0,562.7 C 630.0,562.7 628.0,560.0 626.0,557.2 C 626.0,557.2 624.0,554.3 621.8,551.3 C 621.8,551.3 619.7,548.3 617.5,545.3 C 617.5,545.3 615.3,542.3 613.2,539.0 C 613.2,539.0 611.0,535.7 608.8,532.5 C 608.8,532.5 606.7,529.3 604.5,526.2 C 604.5,526.2 602.3,523.0 600.2,520.0 C 600.2,520.0 598.0,517.0 596.0,514.0 C 596.0,514.0 594.0,511.0 592.0,508.0 C 592.0,508.0 590.0,505.0 588.0,502.2 C 588.0,502.2 586.0,499.3 584.0,496.5 C 584.0,496.5 582.0,493.7 580.0,491.0 C 580.0,491.0 578.0,488.3 576.2,485.7 C 576.2,485.7 574.3,483.0 572.7,480.7 C 572.7,480.7 571.0,478.3 569.5,476.2 C 569.5,476.2 568.0,474.0 566.7,472.2 C 566.7,472.2 565.3,470.3 564.2,468.7 C 564.2,468.7 563.0,467.0 562.0,465.5 C 562.0,465.5 561.0,464.0 559.8,462.5 C 559.8,462.5 558.7,461.0 557.3,459.7 C 557.3,459.7 556.0,458.3 554.5,457.3 C 554.5,457.3 553.0,456.3 551.3,455.5 C 551.3,455.5 549.7,454.7 548.0,454.2 C 548.0,454.2 546.3,453.7 544.5,453.3 C 544.5,453.3 542.7,453.0 540.7,453.2 C 540.7,453.2 538.7,453.3 536.5,453.7 C 536.5,453.7 534.3,454.0 532.0,454.5 C 532.0,454.5 529.7,455.0 527.3,455.5 C 527.3,455.5 525.0,456.0 522.2,456.7 C 522.2,456.7 519.3,457.3 516.3,458.0 C 516.3,458.0 513.3,458.7 510.0,459.5 C 510.0,459.5 506.7,460.3 503.2,461.2 C 503.2,461.2 499.7,462.0 495.7,463.0 C 495.7,463.0 491.7,464.0 487.3,465.2 C 487.3,465.2 483.0,466.3 478.5,467.5 C 478.5,467.5 474.0,468.7 469.2,470.0 C 469.2,470.0 464.3,471.3 459.3,472.5 C 459.3,472.5 454.3,473.7 449.0,474.8 C 449.0,474.8 443.7,476.0 438.5,477.2 C 438.5,477.2 433.3,478.3 428.0,479.7 C 428.0,479.7 422.7,481.0 413.8,483.0 L 405,485" stroke="#374151" stroke-width="8" fill="none" vector-effect="non-scaling-stroke"/><path d="M 330,149 C 328.5,146.2 327.0,143.5 325.8,141.4 C 325.8,141.4 324.7,139.3 322.2,135.0 C 322.2,135.0 319.7,130.7 317.5,127.2 C 317.5,127.2 315.3,123.7 313.3,120.3 C 313.3,120.3 311.3,117.0 309.7,114.2 C 309.7,114.2 308.0,111.3 306.5,108.8 C 306.5,108.8 305.0,106.3 303.7,104.2 C 303.7,104.2 302.3,102.0 301.3,100.2 C 301.3,100.2 300.3,98.3 299.5,96.8 C 299.5,96.8 298.7,95.3 297.8,94.0 C 297.8,94.0 297.0,92.7 296.2,91.5 C 296.2,91.5 295.3,90.3 294.7,89.2 C 294.7,89.2 294.0,88.0 293.3,87.0 C 293.3,87.0 292.7,86.0 291.8,85.0 C 291.8,85.0 291.0,84.0 290.0,83.2 C 290.0,83.2 289.0,82.3 288.0,81.7 C 288.0,81.7 287.0,81.0 285.8,80.5 C 285.8,80.5 284.7,80.0 283.3,79.8 C 283.3,79.8 282.0,79.7 280.5,79.8 C 280.5,79.8 279.0,80.0 277.7,80.5 C 277.7,80.5 276.3,81.0 275.0,81.8 C 275.0,81.8 273.7,82.7 272.5,83.7 C 272.5,83.7 271.3,84.7 270.2,86.0 C 270.2,86.0 269.0,87.3 267.8,88.7 C 267.8,88.7 266.7,90.0 265.5,91.3 C 265.5,91.3 264.3,92.7 263.0,94.0 C 263.0,94.0 261.7,95.3 260.2,96.3 C 260.2,96.3 258.7,97.3 257.0,98.2 C 257.0,98.2 255.3,99.0 253.5,99.3 C 253.5,99.3 251.7,99.7 249.7,99.8 C 249.7,99.8 247.7,100.0 245.7,99.8 C 245.7,99.8 243.7,99.7 241.7,99.2 C 241.7,99.2 239.7,98.7 238.0,97.7 C 238.0,97.7 236.3,96.7 234.7,95.3 C 234.7,95.3 233.0,94.0 231.5,92.3 C 231.5,92.3 230.0,90.7 228.7,88.7 C 228.7,88.7 227.3,86.7 226.3,84.5 C 226.3,84.5 225.3,82.3 224.5,80.2 C 224.5,80.2 223.7,78.0 223.0,75.8 C 223.0,75.8 222.3,73.7 221.7,71.5 C 221.7,71.5 221.0,69.3 220.7,67.0 C 220.7,67.0 220.3,64.7 220.3,62.3 C 220.3,62.3 220.3,60.0 220.7,57.5 C 220.7,57.5 221.0,55.0 221.7,52.7 C 221.7,52.7 222.3,50.3 223.0,48.2 C 223.0,48.2 223.7,46.0 224.5,44.0 C 224.5,44.0 225.3,42.0 226.3,40.0 C 226.3,40.0 227.3,38.0 228.7,36.0 C 228.7,36.0 230.0,34.0 231.7,32.2 C 231.7,32.2 233.3,30.3 235.2,28.7 C 235.2,28.7 237.0,27.0 238.8,25.7 C 238.8,25.7 240.7,24.3 242.7,23.2 C 242.7,23.2 244.7,22.0 246.7,21.0 C 246.7,21.0 248.7,20.0 251.0,19.2 C 251.0,19.2 253.3,18.3 255.7,17.7 C 255.7,17.7 258.0,17.0 260.3,16.7 C 260.3,16.7 262.7,16.3 265.2,16.2 C 265.2,16.2 267.7,16.0 270.0,16.0 C 270.0,16.0 272.3,16.0 275.0,16.2 C 275.0,16.2 277.7,16.3 280.2,16.7 C 280.2,16.7 282.7,17.0 285.5,17.8 C 285.5,17.8 288.3,18.7 291.0,19.7 C 291.0,19.7 293.7,20.7 296.3,22.0 C 296.3,22.0 299.0,23.3 301.7,24.7 C 301.7,24.7 304.3,26.0 306.8,27.7 C 306.8,27.7 309.3,29.3 311.7,31.2 C 311.7,31.2 314.0,33.0 316.0,35.2 C 316.0,35.2 318.0,37.3 320.0,39.5 C 320.0,39.5 322.0,41.7 324.0,44.2 C 324.0,44.2 326.0,46.7 327.8,49.3 C 327.8,49.3 329.7,52.0 331.7,54.8 C 331.7,54.8 333.7,57.7 335.7,60.8 C 335.7,60.8 337.7,64.0 340.0,67.3 C 340.0,67.3 342.3,70.7 344.5,74.3 C 344.5,74.3 346.7,78.0 349.2,81.7 C 349.2,81.7 351.7,85.3 354.2,89.2 C 354.2,89.2 356.7,93.0 359.5,97.2 C 359.5,97.2 362.3,101.3 365.2,105.7 C 365.2,105.7 368.0,110.0 371.0,114.5 C 371.0,114.5 374.0,119.0 377.0,123.5 C 377.0,123.5 380.0,128.0 383.0,132.7 C 383.0,132.7 386.0,137.3 389.2,142.2 C 389.2,142.2 392.3,147.0 395.5,152.0 C 395.5,152.0 398.7,157.0 402.2,162.3 C 402.2,162.3 405.7,167.7 409.0,173.0 C 409.0,173.0 412.3,178.3 415.8,183.8 C 415.8,183.8 419.3,189.3 422.7,194.5 C 422.7,194.5 426.0,199.7 429.5,205.0 C 429.5,205.0 433.0,210.3 436.7,215.7 C 436.7,215.7 440.3,221.0 444.2,226.7 C 444.2,226.7 448.0,232.3 451.8,237.8 C 451.8,237.8 455.7,243.3 459.3,249.0 C 459.3,249.0 463.0,254.7 466.5,260.2 C 466.5,260.2 470.0,265.7 473.7,271.5 C 473.7,271.5 477.3,277.3 481.0,282.8 C 481.0,282.8 484.7,288.3 488.5,294.0 C 488.5,294.0 492.3,299.7 496.2,305.3 C 496.2,305.3 500.0,311.0 503.7,316.5 C 503.7,316.5 507.3,322.0 511.0,327.8 C 511.0,327.8 514.7,333.7 518.3,339.3 C 518.3,339.3 522.0,345.0 526.0,351.2 C 526.0,351.2 530.0,357.3 534.0,363.3 C 534.0,363.3 538.0,369.3 542.0,375.3 C 542.0,375.3 546.0,381.3 550.0,387.3 C 550.0,387.3 554.0,393.3 558.0,399.2 C 558.0,399.2 562.0,405.0 566.0,411.2 C 566.0,411.2 570.0,417.3 574.0,423.2 C 574.0,423.2 578.0,429.0 581.8,434.7 C 581.8,434.7 585.7,440.3 589.2,445.3 C 589.2,445.3 592.7,450.3 595.8,455.3 C 595.8,455.3 599.0,460.3 601.8,464.8 C 601.8,464.8 604.7,469.3 607.3,473.7 C 607.3,473.7 610.0,478.0 612.7,482.2 C 612.7,482.2 615.3,486.3 618.0,490.3 C 618.0,490.3 620.7,494.3 623.2,498.0 C 623.2,498.0 625.7,501.7 627.8,504.8 C 627.8,504.8 630.0,508.0 632.0,511.0 C 632.0,511.0 634.0,514.0 635.8,517.0 C 635.8,517.0 637.7,520.0 639.5,523.0 C 639.5,523.0 641.3,526.0 643.2,528.8 C 643.2,528.8 645.0,531.7 647.0,534.5 C 647.0,534.5 649.0,537.3 651.0,540.0 C 651.0,540.0 653.0,542.7 654.8,545.3 C 654.8,545.3 656.7,548.0 658.3,550.5 C 658.3,550.5 660.0,553.0 661.5,555.3 C 661.5,555.3 663.0,557.7 664.5,559.8 C 664.5,559.8 666.0,562.0 667.3,564.0 C 667.3,564.0 668.7,566.0 669.7,567.7 C 669.7,567.7 670.7,569.3 671.7,570.8 C 671.7,570.8 672.7,572.3 673.5,573.5 C 673.5,573.5 674.3,574.7 675.2,576.0 C 675.2,576.0 676.0,577.3 676.7,578.3 C 676.7,578.3 677.3,579.3 678.0,580.5 C 678.0,580.5 678.7,581.7 679.3,582.5 C 679.3,582.5 680.0,583.3 680.5,584.3 C 680.5,584.3 681.0,585.3 681.5,586.2 C 681.5,586.2 682.0,587.0 682.3,588.0 C 682.3,588.0 682.7,589.0 682.8,590.0 C 682.8,590.0 683.0,591.0 682.8,592.0 C 682.8,592.0 682.7,593.0 682.3,594.0 C 682.3,594.0 682.0,595.0 681.3,595.8 C 681.3,595.8 680.7,596.7 679.8,597.2 C 679.8,597.2 679.0,597.7 678.0,597.8 C 678.0,597.8 677.0,598.0 676.0,598.0 C 676.0,598.0 675.0,598.0 673.8,597.8 C 673.8,597.8 672.7,597.7 671.5,597.3 C 671.5,597.3 670.3,597.0 669.0,596.3 C 669.0,596.3 667.7,595.7 666.3,594.8 C 666.3,594.8 665.0,594.0 663.3,593.0 C 663.3,593.0 661.7,592.0 659.7,590.7 C 659.7,590.7 657.7,589.3 655.5,587.8 C 655.5,587.8 653.3,586.3 651.0,584.5 C 651.0,584.5 648.7,582.7 646.5,580.8 C 646.5,580.8 644.3,579.0 642.2,576.8 C 642.2,576.8 640.0,574.7 638.0,572.5 C 638.0,572.5 636.0,570.3 634.0,567.8 C 634.0,567.8 632.0,565.3 630.0,562.7 C 630.0,562.7 628.0,560.0 626.0,557.2 C 626.0,557.2 624.0,554.3 621.8,551.3 C 621.8,551.3 619.7,548.3 617.5,545.3 C 617.5,545.3 615.3,542.3 613.2,539.0 C 613.2,539.0 611.0,535.7 608.8,532.5 C 608.8,532.5 606.7,529.3 604.5,526.2 C 604.5,526.2 602.3,523.0 600.2,520.0 C 600.2,520.0 598.0,517.0 596.0,514.0 C 596.0,514.0 594.0,511.0 592.0,508.0 C 592.0,508.0 590.0,505.0 588.0,502.2 C 588.0,502.2 586.0,499.3 584.0,496.5 C 584.0,496.5 582.0,493.7 580.0,491.0 C 580.0,491.0 578.0,488.3 576.2,485.7 C 576.2,485.7 574.3,483.0 572.7,480.7 C 572.7,480.7 571.0,478.3 569.5,476.2 C 569.5,476.2 568.0,474.0 566.7,472.2 C 566.7,472.2 565.3,470.3 564.2,468.7 C 564.2,468.7 563.0,467.0 562.0,465.5 C 562.0,465.5 561.0,464.0 559.8,462.5 C 559.8,462.5 558.7,461.0 557.3,459.7 C 557.3,459.7 556.0,458.3 554.5,457.3 C 554.5,457.3 553.0,456.3 551.3,455.5 C 551.3,455.5 549.7,454.7 548.0,454.2 C 548.0,454.2 546.3,453.7 544.5,453.3 C 544.5,453.3 542.7,453.0 540.7,453.2 C 540.7,453.2 538.7,453.3 536.5,453.7 C 536.5,453.7 534.3,454.0 532.0,454.5 C 532.0,454.5 529.7,455.0 527.3,455.5 C 527.3,455.5 525.0,456.0 522.2,456.7 C 522.2,456.7 519.3,457.3 516.3,458.0 C 516.3,458.0 513.3,458.7 510.0,459.5 C 510.0,459.5 506.7,460.3 503.2,461.2 C 503.2,461.2 499.7,462.0 495.7,463.0 C 495.7,463.0 491.7,464.0 487.3,465.2 C 487.3,465.2 483.0,466.3 478.5,467.5 C 478.5,467.5 474.0,468.7 469.2,470.0 C 469.2,470.0 464.3,471.3 459.3,472.5 C 459.3,472.5 454.3,473.7 449.0,474.8 C 449.0,474.8 443.7,476.0 438.5,477.2 C 438.5,477.2 433.3,478.3 428.0,479.7 C 428.0,479.7 422.7,481.0 413.8,483.0 L 405,485" stroke="#FBBF24" stroke-width="2" fill="none" vector-effect="non-scaling-stroke"/>
    <g id="moving-circle-group">
        <circle cx="405" cy="485" r="20" fill="#000000" vector-effect="non-scaling-stroke"/>
        <circle cx="405" cy="485" r="7" fill="#FFFFFF" vector-effect="non-scaling-stroke"/>
    </g></svg>