<svg id="minimap-svg" width="100%" height="100%" viewBox="0 0 620 700" xmlns="http://www.w3.org/2000/svg"><path d="M 270,605 C 267.8,603.0 265.5,601.0 263.2,599.2 C 263.2,599.2 261.0,597.3 256.7,593.7 C 256.7,593.7 252.3,590.0 247.8,586.3 C 247.8,586.3 243.3,582.7 238.7,578.8 C 238.7,578.8 234.0,575.0 229.0,571.0 C 229.0,571.0 224.0,567.0 218.8,563.0 C 218.8,563.0 213.7,559.0 208.7,555.0 C 208.7,555.0 203.7,551.0 198.5,546.8 C 198.5,546.8 193.3,542.7 188.5,538.5 C 188.5,538.5 183.7,534.3 178.5,530.2 C 178.5,530.2 173.3,526.0 168.3,521.8 C 168.3,521.8 163.3,517.7 158.2,513.5 C 158.2,513.5 153.0,509.3 148.3,505.3 C 148.3,505.3 143.7,501.3 139.0,497.5 C 139.0,497.5 134.3,493.7 129.8,489.8 C 129.8,489.8 125.3,486.0 120.7,482.0 C 120.7,482.0 116.0,478.0 111.7,474.3 C 111.7,474.3 107.3,470.7 103.2,467.2 C 103.2,467.2 99.0,463.7 95.0,460.5 C 95.0,460.5 91.0,457.3 87.0,454.0 C 87.0,454.0 83.0,450.7 79.2,447.5 C 79.2,447.5 75.3,444.3 71.7,441.3 C 71.7,441.3 68.0,438.3 64.5,435.5 C 64.5,435.5 61.0,432.7 57.8,430.2 C 57.8,430.2 54.7,427.7 52.0,425.3 C 52.0,425.3 49.3,423.0 47.3,421.3 C 47.3,421.3 45.3,419.7 43.5,418.2 C 43.5,418.2 41.7,416.7 40.2,415.3 C 40.2,415.3 38.7,414.0 37.2,412.7 C 37.2,412.7 35.7,411.3 34.3,410.2 C 34.3,410.2 33.0,409.0 31.5,408.0 C 31.5,408.0 30.0,407.0 28.7,405.8 C 28.7,405.8 27.3,404.7 26.2,403.5 C 26.2,403.5 25.0,402.3 24.0,401.3 C 24.0,401.3 23.0,400.3 22.0,399.3 C 22.0,399.3 21.0,398.3 20.0,397.3 C 20.0,397.3 19.0,396.3 18.2,395.0 C 18.2,395.0 17.3,393.7 16.8,392.2 C 16.8,392.2 16.3,390.7 16.2,389.0 C 16.2,389.0 16.0,387.3 16.0,385.7 C 16.0,385.7 16.0,384.0 16.2,382.5 C 16.2,382.5 16.3,381.0 17.0,379.7 C 17.0,379.7 17.7,378.3 18.7,377.2 C 18.7,377.2 19.7,376.0 21.0,375.0 C 21.0,375.0 22.3,374.0 23.8,373.2 C 23.8,373.2 25.3,372.3 27.3,371.8 C 27.3,371.8 29.3,371.3 31.5,371.2 C 31.5,371.2 33.7,371.0 36.0,371.0 C 36.0,371.0 38.3,371.0 40.7,371.2 C 40.7,371.2 43.0,371.3 45.7,371.7 C 45.7,371.7 48.3,372.0 51.2,372.3 C 51.2,372.3 54.0,372.7 57.0,373.0 C 57.0,373.0 60.0,373.3 63.2,373.7 C 63.2,373.7 66.3,374.0 69.7,374.5 C 69.7,374.5 73.0,375.0 76.5,375.7 C 76.5,375.7 80.0,376.3 83.5,377.3 C 83.5,377.3 87.0,378.3 90.7,379.7 C 90.7,379.7 94.3,381.0 98.0,382.7 C 98.0,382.7 101.7,384.3 105.5,386.2 C 105.5,386.2 109.3,388.0 113.0,390.0 C 113.0,390.0 116.7,392.0 120.2,394.2 C 120.2,394.2 123.7,396.3 127.0,398.7 C 127.0,398.7 130.3,401.0 133.5,403.5 C 133.5,403.5 136.7,406.0 140.2,408.7 C 140.2,408.7 143.7,411.3 147.2,414.2 C 147.2,414.2 150.7,417.0 154.2,419.8 C 154.2,419.8 157.7,422.7 161.0,425.5 C 161.0,425.5 164.3,428.3 167.5,431.0 C 167.5,431.0 170.7,433.7 173.8,436.3 C 173.8,436.3 177.0,439.0 180.0,441.5 C 180.0,441.5 183.0,444.0 185.8,446.3 C 185.8,446.3 188.7,448.7 191.3,450.8 C 191.3,450.8 194.0,453.0 196.3,455.0 C 196.3,455.0 198.7,457.0 201.0,459.0 C 201.0,459.0 203.3,461.0 205.5,463.0 C 205.5,463.0 207.7,465.0 209.8,466.7 C 209.8,466.7 212.0,468.3 213.8,469.8 C 213.8,469.8 215.7,471.3 217.5,472.7 C 217.5,472.7 219.3,474.0 221.0,475.2 C 221.0,475.2 222.7,476.3 224.5,477.3 C 224.5,477.3 226.3,478.3 228.2,479.0 C 228.2,479.0 230.0,479.7 231.8,480.3 C 231.8,480.3 233.7,481.0 235.5,481.2 C 235.5,481.2 237.3,481.3 239.3,481.3 C 239.3,481.3 241.3,481.3 243.5,481.0 C 243.5,481.0 245.7,480.7 247.7,480.2 C 247.7,480.2 249.7,479.7 251.3,478.7 C 251.3,478.7 253.0,477.7 254.5,476.3 C 254.5,476.3 256.0,475.0 257.5,473.5 C 257.5,473.5 259.0,472.0 260.3,470.3 C 260.3,470.3 261.7,468.7 262.8,466.7 C 262.8,466.7 264.0,464.7 264.7,462.5 C 264.7,462.5 265.3,460.3 265.7,458.0 C 265.7,458.0 266.0,455.7 265.8,453.3 C 265.8,453.3 265.7,451.0 265.2,448.5 C 265.2,448.5 264.7,446.0 264.0,443.7 C 264.0,443.7 263.3,441.3 262.3,439.2 C 262.3,439.2 261.3,437.0 260.3,434.8 C 260.3,434.8 259.3,432.7 258.0,430.5 C 258.0,430.5 256.7,428.3 255.3,426.0 C 255.3,426.0 254.0,423.7 252.7,421.3 C 252.7,421.3 251.3,419.0 250.0,416.7 C 250.0,416.7 248.7,414.3 247.5,412.2 C 247.5,412.2 246.3,410.0 245.2,408.0 C 245.2,408.0 244.0,406.0 243.0,404.0 C 243.0,404.0 242.0,402.0 241.2,400.0 C 241.2,400.0 240.3,398.0 239.5,395.8 C 239.5,395.8 238.7,393.7 238.0,391.3 C 238.0,391.3 237.3,389.0 236.8,386.5 C 236.8,386.5 236.3,384.0 236.5,381.5 C 236.5,381.5 236.7,379.0 237.2,376.3 C 237.2,376.3 237.7,373.7 238.5,371.0 C 238.5,371.0 239.3,368.3 240.3,365.5 C 240.3,365.5 241.3,362.7 242.8,359.8 C 242.8,359.8 244.3,357.0 246.0,353.8 C 246.0,353.8 247.7,350.7 249.5,347.3 C 249.5,347.3 251.3,344.0 253.2,340.5 C 253.2,340.5 255.0,337.0 257.0,333.2 C 257.0,333.2 259.0,329.3 261.0,325.3 C 261.0,325.3 263.0,321.3 265.2,317.2 C 265.2,317.2 267.3,313.0 269.7,308.7 C 269.7,308.7 272.0,304.3 274.5,299.8 C 274.5,299.8 277.0,295.3 279.5,290.5 C 279.5,290.5 282.0,285.7 284.5,281.0 C 284.5,281.0 287.0,276.3 289.3,271.8 C 289.3,271.8 291.7,267.3 293.8,263.2 C 293.8,263.2 296.0,259.0 298.0,255.2 C 298.0,255.2 300.0,251.3 302.0,247.5 C 302.0,247.5 304.0,243.7 306.0,239.8 C 306.0,239.8 308.0,236.0 309.8,232.3 C 309.8,232.3 311.7,228.7 313.5,225.3 C 313.5,225.3 315.3,222.0 317.0,219.0 C 317.0,219.0 318.7,216.0 320.3,213.2 C 320.3,213.2 322.0,210.3 323.5,207.2 L 325,204" stroke="#374151" stroke-width="8" fill="none" vector-effect="non-scaling-stroke"/><path d="M 270,605 C 267.8,603.0 265.5,601.0 263.2,599.2 C 263.2,599.2 261.0,597.3 256.7,593.7 C 256.7,593.7 252.3,590.0 247.8,586.3 C 247.8,586.3 243.3,582.7 238.7,578.8 C 238.7,578.8 234.0,575.0 229.0,571.0 C 229.0,571.0 224.0,567.0 218.8,563.0 C 218.8,563.0 213.7,559.0 208.7,555.0 C 208.7,555.0 203.7,551.0 198.5,546.8 C 198.5,546.8 193.3,542.7 188.5,538.5 C 188.5,538.5 183.7,534.3 178.5,530.2 C 178.5,530.2 173.3,526.0 168.3,521.8 C 168.3,521.8 163.3,517.7 158.2,513.5 C 158.2,513.5 153.0,509.3 148.3,505.3 C 148.3,505.3 143.7,501.3 139.0,497.5 C 139.0,497.5 134.3,493.7 129.8,489.8 C 129.8,489.8 125.3,486.0 120.7,482.0 C 120.7,482.0 116.0,478.0 111.7,474.3 C 111.7,474.3 107.3,470.7 103.2,467.2 C 103.2,467.2 99.0,463.7 95.0,460.5 C 95.0,460.5 91.0,457.3 87.0,454.0 C 87.0,454.0 83.0,450.7 79.2,447.5 C 79.2,447.5 75.3,444.3 71.7,441.3 C 71.7,441.3 68.0,438.3 64.5,435.5 C 64.5,435.5 61.0,432.7 57.8,430.2 C 57.8,430.2 54.7,427.7 52.0,425.3 C 52.0,425.3 49.3,423.0 47.3,421.3 C 47.3,421.3 45.3,419.7 43.5,418.2 C 43.5,418.2 41.7,416.7 40.2,415.3 C 40.2,415.3 38.7,414.0 37.2,412.7 C 37.2,412.7 35.7,411.3 34.3,410.2 C 34.3,410.2 33.0,409.0 31.5,408.0 C 31.5,408.0 30.0,407.0 28.7,405.8 C 28.7,405.8 27.3,404.7 26.2,403.5 C 26.2,403.5 25.0,402.3 24.0,401.3 C 24.0,401.3 23.0,400.3 22.0,399.3 C 22.0,399.3 21.0,398.3 20.0,397.3 C 20.0,397.3 19.0,396.3 18.2,395.0 C 18.2,395.0 17.3,393.7 16.8,392.2 C 16.8,392.2 16.3,390.7 16.2,389.0 C 16.2,389.0 16.0,387.3 16.0,385.7 C 16.0,385.7 16.0,384.0 16.2,382.5 C 16.2,382.5 16.3,381.0 17.0,379.7 C 17.0,379.7 17.7,378.3 18.7,377.2 C 18.7,377.2 19.7,376.0 21.0,375.0 C 21.0,375.0 22.3,374.0 23.8,373.2 C 23.8,373.2 25.3,372.3 27.3,371.8 C 27.3,371.8 29.3,371.3 31.5,371.2 C 31.5,371.2 33.7,371.0 36.0,371.0 C 36.0,371.0 38.3,371.0 40.7,371.2 C 40.7,371.2 43.0,371.3 45.7,371.7 C 45.7,371.7 48.3,372.0 51.2,372.3 C 51.2,372.3 54.0,372.7 57.0,373.0 C 57.0,373.0 60.0,373.3 63.2,373.7 C 63.2,373.7 66.3,374.0 69.7,374.5 C 69.7,374.5 73.0,375.0 76.5,375.7 C 76.5,375.7 80.0,376.3 83.5,377.3 C 83.5,377.3 87.0,378.3 90.7,379.7 C 90.7,379.7 94.3,381.0 98.0,382.7 C 98.0,382.7 101.7,384.3 105.5,386.2 C 105.5,386.2 109.3,388.0 113.0,390.0 C 113.0,390.0 116.7,392.0 120.2,394.2 C 120.2,394.2 123.7,396.3 127.0,398.7 C 127.0,398.7 130.3,401.0 133.5,403.5 C 133.5,403.5 136.7,406.0 140.2,408.7 C 140.2,408.7 143.7,411.3 147.2,414.2 C 147.2,414.2 150.7,417.0 154.2,419.8 C 154.2,419.8 157.7,422.7 161.0,425.5 C 161.0,425.5 164.3,428.3 167.5,431.0 C 167.5,431.0 170.7,433.7 173.8,436.3 C 173.8,436.3 177.0,439.0 180.0,441.5 C 180.0,441.5 183.0,444.0 185.8,446.3 C 185.8,446.3 188.7,448.7 191.3,450.8 C 191.3,450.8 194.0,453.0 196.3,455.0 C 196.3,455.0 198.7,457.0 201.0,459.0 C 201.0,459.0 203.3,461.0 205.5,463.0 C 205.5,463.0 207.7,465.0 209.8,466.7 C 209.8,466.7 212.0,468.3 213.8,469.8 C 213.8,469.8 215.7,471.3 217.5,472.7 C 217.5,472.7 219.3,474.0 221.0,475.2 C 221.0,475.2 222.7,476.3 224.5,477.3 C 224.5,477.3 226.3,478.3 228.2,479.0 C 228.2,479.0 230.0,479.7 231.8,480.3 C 231.8,480.3 233.7,481.0 235.5,481.2 C 235.5,481.2 237.3,481.3 239.3,481.3 C 239.3,481.3 241.3,481.3 243.5,481.0 C 243.5,481.0 245.7,480.7 247.7,480.2 C 247.7,480.2 249.7,479.7 251.3,478.7 C 251.3,478.7 253.0,477.7 254.5,476.3 C 254.5,476.3 256.0,475.0 257.5,473.5 C 257.5,473.5 259.0,472.0 260.3,470.3 C 260.3,470.3 261.7,468.7 262.8,466.7 C 262.8,466.7 264.0,464.7 264.7,462.5 C 264.7,462.5 265.3,460.3 265.7,458.0 C 265.7,458.0 266.0,455.7 265.8,453.3 C 265.8,453.3 265.7,451.0 265.2,448.5 C 265.2,448.5 264.7,446.0 264.0,443.7 C 264.0,443.7 263.3,441.3 262.3,439.2 C 262.3,439.2 261.3,437.0 260.3,434.8 C 260.3,434.8 259.3,432.7 258.0,430.5 C 258.0,430.5 256.7,428.3 255.3,426.0 C 255.3,426.0 254.0,423.7 252.7,421.3 C 252.7,421.3 251.3,419.0 250.0,416.7 C 250.0,416.7 248.7,414.3 247.5,412.2 C 247.5,412.2 246.3,410.0 245.2,408.0 C 245.2,408.0 244.0,406.0 243.0,404.0 C 243.0,404.0 242.0,402.0 241.2,400.0 C 241.2,400.0 240.3,398.0 239.5,395.8 C 239.5,395.8 238.7,393.7 238.0,391.3 C 238.0,391.3 237.3,389.0 236.8,386.5 C 236.8,386.5 236.3,384.0 236.5,381.5 C 236.5,381.5 236.7,379.0 237.2,376.3 C 237.2,376.3 237.7,373.7 238.5,371.0 C 238.5,371.0 239.3,368.3 240.3,365.5 C 240.3,365.5 241.3,362.7 242.8,359.8 C 242.8,359.8 244.3,357.0 246.0,353.8 C 246.0,353.8 247.7,350.7 249.5,347.3 C 249.5,347.3 251.3,344.0 253.2,340.5 C 253.2,340.5 255.0,337.0 257.0,333.2 C 257.0,333.2 259.0,329.3 261.0,325.3 C 261.0,325.3 263.0,321.3 265.2,317.2 C 265.2,317.2 267.3,313.0 269.7,308.7 C 269.7,308.7 272.0,304.3 274.5,299.8 C 274.5,299.8 277.0,295.3 279.5,290.5 C 279.5,290.5 282.0,285.7 284.5,281.0 C 284.5,281.0 287.0,276.3 289.3,271.8 C 289.3,271.8 291.7,267.3 293.8,263.2 C 293.8,263.2 296.0,259.0 298.0,255.2 C 298.0,255.2 300.0,251.3 302.0,247.5 C 302.0,247.5 304.0,243.7 306.0,239.8 C 306.0,239.8 308.0,236.0 309.8,232.3 C 309.8,232.3 311.7,228.7 313.5,225.3 C 313.5,225.3 315.3,222.0 317.0,219.0 C 317.0,219.0 318.7,216.0 320.3,213.2 C 320.3,213.2 322.0,210.3 323.5,207.2 L 325,204" stroke="#EF4444" stroke-width="2" fill="none" vector-effect="non-scaling-stroke"/><path d="M 325,204 C 325.8,202.8 326.5,201.5 327.4,200.2 C 327.4,200.2 328.3,199.0 330.2,196.5 C 330.2,196.5 332.0,194.0 333.8,191.7 C 333.8,191.7 335.7,189.3 337.5,187.0 C 337.5,187.0 339.3,184.7 341.2,182.5 C 341.2,182.5 343.0,180.3 344.8,178.2 C 344.8,178.2 346.7,176.0 348.3,174.0 C 348.3,174.0 350.0,172.0 351.7,170.2 C 351.7,170.2 353.3,168.3 354.8,166.5 C 354.8,166.5 356.3,164.7 357.7,163.0 C 357.7,163.0 359.0,161.3 360.0,159.5 C 360.0,159.5 361.0,157.7 361.7,155.7 C 361.7,155.7 362.3,153.7 362.7,151.3 C 362.7,151.3 363.0,149.0 363.0,146.5 C 363.0,146.5 363.0,144.0 362.7,141.3 C 362.7,141.3 362.3,138.7 361.8,136.0 C 361.8,136.0 361.3,133.3 360.5,130.3 C 360.5,130.3 359.7,127.3 359.0,124.2 C 359.0,124.2 358.3,121.0 357.3,117.5 C 357.3,117.5 356.3,114.0 355.5,110.5 C 355.5,110.5 354.7,107.0 353.7,103.5 C 353.7,103.5 352.7,100.0 351.8,96.3 C 351.8,96.3 351.0,92.7 350.0,88.8 C 350.0,88.8 349.0,85.0 348.2,81.3 C 348.2,81.3 347.3,77.7 346.5,74.2 C 346.5,74.2 345.7,70.7 345.0,67.7 C 345.0,67.7 344.3,64.7 343.7,62.0 C 343.7,62.0 343.0,59.3 342.7,57.0 C 342.7,57.0 342.3,54.7 342.2,52.5 C 342.2,52.5 342.0,50.3 342.2,48.2 C 342.2,48.2 342.3,46.0 342.7,43.8 C 342.7,43.8 343.0,41.7 343.7,39.7 C 343.7,39.7 344.3,37.7 345.3,35.7 C 345.3,35.7 346.3,33.7 347.7,32.0 C 347.7,32.0 349.0,30.3 350.5,28.7 C 350.5,28.7 352.0,27.0 353.8,25.5 C 353.8,25.5 355.7,24.0 357.7,22.7 C 357.7,22.7 359.7,21.3 362.0,20.3 C 362.0,20.3 364.3,19.3 366.8,18.7 C 366.8,18.7 369.3,18.0 372.0,17.8 C 372.0,17.8 374.7,17.7 377.3,17.8 C 377.3,17.8 380.0,18.0 382.7,18.7 C 382.7,18.7 385.3,19.3 387.8,20.3 C 387.8,20.3 390.3,21.3 393.0,22.7 C 393.0,22.7 395.7,24.0 398.2,25.5 C 398.2,25.5 400.7,27.0 403.3,28.7 C 403.3,28.7 406.0,30.3 408.7,32.2 C 408.7,32.2 411.3,34.0 414.0,36.2 C 414.0,36.2 416.7,38.3 419.5,40.7 C 419.5,40.7 422.3,43.0 425.0,45.5 C 425.0,45.5 427.7,48.0 430.3,50.8 C 430.3,50.8 433.0,53.7 435.7,56.5 C 435.7,56.5 438.3,59.3 441.0,62.3 C 441.0,62.3 443.7,65.3 446.5,68.3 C 446.5,68.3 449.3,71.3 451.8,74.3 C 451.8,74.3 454.3,77.3 457.0,80.3 C 457.0,80.3 459.7,83.3 462.2,86.2 C 462.2,86.2 464.7,89.0 467.2,91.7 C 467.2,91.7 469.7,94.3 471.7,96.7 C 471.7,96.7 473.7,99.0 475.2,100.8 C 475.2,100.8 476.7,102.7 477.8,104.0 C 477.8,104.0 479.0,105.3 480.0,106.5 C 480.0,106.5 481.0,107.7 481.8,108.5 C 481.8,108.5 482.7,109.3 483.3,110.5 C 483.3,110.5 484.0,111.7 484.5,112.7 C 484.5,112.7 485.0,113.7 485.5,114.8 C 485.5,114.8 486.0,116.0 486.3,117.2 C 486.3,117.2 486.7,118.3 486.7,119.7 C 486.7,119.7 486.7,121.0 486.3,122.5 C 486.3,122.5 486.0,124.0 485.3,125.3 C 485.3,125.3 484.7,126.7 483.7,127.8 C 483.7,127.8 482.7,129.0 481.7,130.2 C 481.7,130.2 480.7,131.3 479.7,132.7 C 479.7,132.7 478.7,134.0 478.2,135.7 C 478.2,135.7 477.7,137.3 477.3,139.0 C 477.3,139.0 477.0,140.7 477.2,142.7 C 477.2,142.7 477.3,144.7 477.7,146.8 C 477.7,146.8 478.0,149.0 478.5,151.5 C 478.5,151.5 479.0,154.0 479.7,156.7 C 479.7,156.7 480.3,159.3 481.0,162.3 C 481.0,162.3 481.7,165.3 482.5,168.8 C 482.5,168.8 483.3,172.3 484.0,175.8 C 484.0,175.8 484.7,179.3 485.5,182.8 C 485.5,182.8 486.3,186.3 487.0,189.3 C 487.0,189.3 487.7,192.3 488.3,195.2 C 488.3,195.2 489.0,198.0 489.5,200.7 C 489.5,200.7 490.0,203.3 490.7,206.0 C 490.7,206.0 491.3,208.7 492.2,211.3 C 492.2,211.3 493.0,214.0 494.0,216.3 C 494.0,216.3 495.0,218.7 496.2,220.8 C 496.2,220.8 497.3,223.0 498.7,224.8 C 498.7,224.8 500.0,226.7 501.7,228.3 C 501.7,228.3 503.3,230.0 505.2,231.2 C 505.2,231.2 507.0,232.3 509.3,233.3 C 509.3,233.3 511.7,234.3 514.2,234.8 C 514.2,234.8 516.7,235.3 519.7,236.0 C 519.7,236.0 522.7,236.7 525.5,237.0 C 525.5,237.0 528.3,237.3 531.3,237.8 C 531.3,237.8 534.3,238.3 537.0,238.5 C 537.0,238.5 539.7,238.7 542.3,239.0 C 542.3,239.0 545.0,239.3 547.5,239.8 C 547.5,239.8 550.0,240.3 552.3,241.2 C 552.3,241.2 554.7,242.0 557.0,243.0 C 557.0,243.0 559.3,244.0 561.3,245.3 C 561.3,245.3 563.3,246.7 565.3,248.3 C 565.3,248.3 567.3,250.0 568.7,252.0 C 568.7,252.0 570.0,254.0 571.3,256.2 C 571.3,256.2 572.7,258.3 573.3,260.8 C 573.3,260.8 574.0,263.3 574.5,266.0 C 574.5,266.0 575.0,268.7 574.8,271.3 C 574.8,271.3 574.7,274.0 573.8,279.0 C 573.8,279.0 573.0,284.0 571.3,293.3 C 571.3,293.3 569.7,302.7 567.8,313.2 C 567.8,313.2 566.0,323.7 564.7,331.7 C 564.7,331.7 563.3,339.7 562.8,343.5 C 562.8,343.5 562.3,347.3 562.3,350.0 C 562.3,350.0 562.3,352.7 562.7,355.5 C 562.7,355.5 563.0,358.3 563.7,361.0 C 563.7,361.0 564.3,363.7 565.0,366.3 C 565.0,366.3 565.7,369.0 566.7,371.7 C 566.7,371.7 567.7,374.3 568.8,377.2 C 568.8,377.2 570.0,380.0 571.7,382.8 C 571.7,382.8 573.3,385.7 575.0,388.5 C 575.0,388.5 576.7,391.3 578.5,394.2 C 578.5,394.2 580.3,397.0 582.2,399.8 C 582.2,399.8 584.0,402.7 586.0,405.7 C 586.0,405.7 588.0,408.7 589.8,411.5 C 589.8,411.5 591.7,414.3 593.3,417.0 C 593.3,417.0 595.0,419.7 596.3,422.0 C 596.3,422.0 597.7,424.3 599.0,426.7 C 599.0,426.7 600.3,429.0 601.3,431.5 C 601.3,431.5 602.3,434.0 603.0,436.5 C 603.0,436.5 603.7,439.0 603.8,441.5 C 603.8,441.5 604.0,444.0 604.0,446.7 C 604.0,446.7 604.0,449.3 603.8,452.0 C 603.8,452.0 603.7,454.7 603.0,457.3 C 603.0,457.3 602.3,460.0 601.2,462.7 C 601.2,462.7 600.0,465.3 598.5,467.8 C 598.5,467.8 597.0,470.3 595.2,472.8 C 595.2,472.8 593.3,475.3 591.2,477.7 C 591.2,477.7 589.0,480.0 586.7,482.7 C 586.7,482.7 584.3,485.3 581.8,488.0 C 581.8,488.0 579.3,490.7 576.7,493.7 C 576.7,493.7 574.0,496.7 571.0,499.7 C 571.0,499.7 568.0,502.7 564.0,506.8 L 560,511" stroke="#374151" stroke-width="8" fill="none" vector-effect="non-scaling-stroke"/><path d="M 325,204 C 325.8,202.8 326.5,201.5 327.4,200.2 C 327.4,200.2 328.3,199.0 330.2,196.5 C 330.2,196.5 332.0,194.0 333.8,191.7 C 333.8,191.7 335.7,189.3 337.5,187.0 C 337.5,187.0 339.3,184.7 341.2,182.5 C 341.2,182.5 343.0,180.3 344.8,178.2 C 344.8,178.2 346.7,176.0 348.3,174.0 C 348.3,174.0 350.0,172.0 351.7,170.2 C 351.7,170.2 353.3,168.3 354.8,166.5 C 354.8,166.5 356.3,164.7 357.7,163.0 C 357.7,163.0 359.0,161.3 360.0,159.5 C 360.0,159.5 361.0,157.7 361.7,155.7 C 361.7,155.7 362.3,153.7 362.7,151.3 C 362.7,151.3 363.0,149.0 363.0,146.5 C 363.0,146.5 363.0,144.0 362.7,141.3 C 362.7,141.3 362.3,138.7 361.8,136.0 C 361.8,136.0 361.3,133.3 360.5,130.3 C 360.5,130.3 359.7,127.3 359.0,124.2 C 359.0,124.2 358.3,121.0 357.3,117.5 C 357.3,117.5 356.3,114.0 355.5,110.5 C 355.5,110.5 354.7,107.0 353.7,103.5 C 353.7,103.5 352.7,100.0 351.8,96.3 C 351.8,96.3 351.0,92.7 350.0,88.8 C 350.0,88.8 349.0,85.0 348.2,81.3 C 348.2,81.3 347.3,77.7 346.5,74.2 C 346.5,74.2 345.7,70.7 345.0,67.7 C 345.0,67.7 344.3,64.7 343.7,62.0 C 343.7,62.0 343.0,59.3 342.7,57.0 C 342.7,57.0 342.3,54.7 342.2,52.5 C 342.2,52.5 342.0,50.3 342.2,48.2 C 342.2,48.2 342.3,46.0 342.7,43.8 C 342.7,43.8 343.0,41.7 343.7,39.7 C 343.7,39.7 344.3,37.7 345.3,35.7 C 345.3,35.7 346.3,33.7 347.7,32.0 C 347.7,32.0 349.0,30.3 350.5,28.7 C 350.5,28.7 352.0,27.0 353.8,25.5 C 353.8,25.5 355.7,24.0 357.7,22.7 C 357.7,22.7 359.7,21.3 362.0,20.3 C 362.0,20.3 364.3,19.3 366.8,18.7 C 366.8,18.7 369.3,18.0 372.0,17.8 C 372.0,17.8 374.7,17.7 377.3,17.8 C 377.3,17.8 380.0,18.0 382.7,18.7 C 382.7,18.7 385.3,19.3 387.8,20.3 C 387.8,20.3 390.3,21.3 393.0,22.7 C 393.0,22.7 395.7,24.0 398.2,25.5 C 398.2,25.5 400.7,27.0 403.3,28.7 C 403.3,28.7 406.0,30.3 408.7,32.2 C 408.7,32.2 411.3,34.0 414.0,36.2 C 414.0,36.2 416.7,38.3 419.5,40.7 C 419.5,40.7 422.3,43.0 425.0,45.5 C 425.0,45.5 427.7,48.0 430.3,50.8 C 430.3,50.8 433.0,53.7 435.7,56.5 C 435.7,56.5 438.3,59.3 441.0,62.3 C 441.0,62.3 443.7,65.3 446.5,68.3 C 446.5,68.3 449.3,71.3 451.8,74.3 C 451.8,74.3 454.3,77.3 457.0,80.3 C 457.0,80.3 459.7,83.3 462.2,86.2 C 462.2,86.2 464.7,89.0 467.2,91.7 C 467.2,91.7 469.7,94.3 471.7,96.7 C 471.7,96.7 473.7,99.0 475.2,100.8 C 475.2,100.8 476.7,102.7 477.8,104.0 C 477.8,104.0 479.0,105.3 480.0,106.5 C 480.0,106.5 481.0,107.7 481.8,108.5 C 481.8,108.5 482.7,109.3 483.3,110.5 C 483.3,110.5 484.0,111.7 484.5,112.7 C 484.5,112.7 485.0,113.7 485.5,114.8 C 485.5,114.8 486.0,116.0 486.3,117.2 C 486.3,117.2 486.7,118.3 486.7,119.7 C 486.7,119.7 486.7,121.0 486.3,122.5 C 486.3,122.5 486.0,124.0 485.3,125.3 C 485.3,125.3 484.7,126.7 483.7,127.8 C 483.7,127.8 482.7,129.0 481.7,130.2 C 481.7,130.2 480.7,131.3 479.7,132.7 C 479.7,132.7 478.7,134.0 478.2,135.7 C 478.2,135.7 477.7,137.3 477.3,139.0 C 477.3,139.0 477.0,140.7 477.2,142.7 C 477.2,142.7 477.3,144.7 477.7,146.8 C 477.7,146.8 478.0,149.0 478.5,151.5 C 478.5,151.5 479.0,154.0 479.7,156.7 C 479.7,156.7 480.3,159.3 481.0,162.3 C 481.0,162.3 481.7,165.3 482.5,168.8 C 482.5,168.8 483.3,172.3 484.0,175.8 C 484.0,175.8 484.7,179.3 485.5,182.8 C 485.5,182.8 486.3,186.3 487.0,189.3 C 487.0,189.3 487.7,192.3 488.3,195.2 C 488.3,195.2 489.0,198.0 489.5,200.7 C 489.5,200.7 490.0,203.3 490.7,206.0 C 490.7,206.0 491.3,208.7 492.2,211.3 C 492.2,211.3 493.0,214.0 494.0,216.3 C 494.0,216.3 495.0,218.7 496.2,220.8 C 496.2,220.8 497.3,223.0 498.7,224.8 C 498.7,224.8 500.0,226.7 501.7,228.3 C 501.7,228.3 503.3,230.0 505.2,231.2 C 505.2,231.2 507.0,232.3 509.3,233.3 C 509.3,233.3 511.7,234.3 514.2,234.8 C 514.2,234.8 516.7,235.3 519.7,236.0 C 519.7,236.0 522.7,236.7 525.5,237.0 C 525.5,237.0 528.3,237.3 531.3,237.8 C 531.3,237.8 534.3,238.3 537.0,238.5 C 537.0,238.5 539.7,238.7 542.3,239.0 C 542.3,239.0 545.0,239.3 547.5,239.8 C 547.5,239.8 550.0,240.3 552.3,241.2 C 552.3,241.2 554.7,242.0 557.0,243.0 C 557.0,243.0 559.3,244.0 561.3,245.3 C 561.3,245.3 563.3,246.7 565.3,248.3 C 565.3,248.3 567.3,250.0 568.7,252.0 C 568.7,252.0 570.0,254.0 571.3,256.2 C 571.3,256.2 572.7,258.3 573.3,260.8 C 573.3,260.8 574.0,263.3 574.5,266.0 C 574.5,266.0 575.0,268.7 574.8,271.3 C 574.8,271.3 574.7,274.0 573.8,279.0 C 573.8,279.0 573.0,284.0 571.3,293.3 C 571.3,293.3 569.7,302.7 567.8,313.2 C 567.8,313.2 566.0,323.7 564.7,331.7 C 564.7,331.7 563.3,339.7 562.8,343.5 C 562.8,343.5 562.3,347.3 562.3,350.0 C 562.3,350.0 562.3,352.7 562.7,355.5 C 562.7,355.5 563.0,358.3 563.7,361.0 C 563.7,361.0 564.3,363.7 565.0,366.3 C 565.0,366.3 565.7,369.0 566.7,371.7 C 566.7,371.7 567.7,374.3 568.8,377.2 C 568.8,377.2 570.0,380.0 571.7,382.8 C 571.7,382.8 573.3,385.7 575.0,388.5 C 575.0,388.5 576.7,391.3 578.5,394.2 C 578.5,394.2 580.3,397.0 582.2,399.8 C 582.2,399.8 584.0,402.7 586.0,405.7 C 586.0,405.7 588.0,408.7 589.8,411.5 C 589.8,411.5 591.7,414.3 593.3,417.0 C 593.3,417.0 595.0,419.7 596.3,422.0 C 596.3,422.0 597.7,424.3 599.0,426.7 C 599.0,426.7 600.3,429.0 601.3,431.5 C 601.3,431.5 602.3,434.0 603.0,436.5 C 603.0,436.5 603.7,439.0 603.8,441.5 C 603.8,441.5 604.0,444.0 604.0,446.7 C 604.0,446.7 604.0,449.3 603.8,452.0 C 603.8,452.0 603.7,454.7 603.0,457.3 C 603.0,457.3 602.3,460.0 601.2,462.7 C 601.2,462.7 600.0,465.3 598.5,467.8 C 598.5,467.8 597.0,470.3 595.2,472.8 C 595.2,472.8 593.3,475.3 591.2,477.7 C 591.2,477.7 589.0,480.0 586.7,482.7 C 586.7,482.7 584.3,485.3 581.8,488.0 C 581.8,488.0 579.3,490.7 576.7,493.7 C 576.7,493.7 574.0,496.7 571.0,499.7 C 571.0,499.7 568.0,502.7 564.0,506.8 L 560,511" stroke="#3B82F6" stroke-width="2" fill="none" vector-effect="non-scaling-stroke"/><path d="M 560,511 C 558.2,513.0 556.5,515.0 554.6,517.0 C 554.6,517.0 552.7,519.0 549.0,523.0 C 549.0,523.0 545.3,527.0 541.8,530.8 C 541.8,530.8 538.3,534.7 534.8,538.5 C 534.8,538.5 531.3,542.3 527.7,546.2 C 527.7,546.2 524.0,550.0 520.2,554.2 C 520.2,554.2 516.3,558.3 512.5,562.3 C 512.5,562.3 508.7,566.3 505.2,570.2 C 505.2,570.2 501.7,574.0 498.5,577.2 C 498.5,577.2 495.3,580.3 492.7,583.3 C 492.7,583.3 490.0,586.3 487.5,589.0 C 487.5,589.0 485.0,591.7 482.7,594.2 C 482.7,594.2 480.3,596.7 478.3,598.8 C 478.3,598.8 476.3,601.0 474.7,602.8 C 474.7,602.8 473.0,604.7 471.5,606.3 C 471.5,606.3 470.0,608.0 468.7,609.3 C 468.7,609.3 467.3,610.7 466.0,612.0 C 466.0,612.0 464.7,613.3 463.3,614.3 C 463.3,614.3 462.0,615.3 460.5,616.2 C 460.5,616.2 459.0,617.0 457.3,617.3 C 457.3,617.3 455.7,617.7 454.0,617.8 C 454.0,617.8 452.3,618.0 450.5,617.7 C 450.5,617.7 448.7,617.3 447.0,616.8 C 447.0,616.8 445.3,616.3 443.7,615.2 C 443.7,615.2 442.0,614.0 440.5,612.7 C 440.5,612.7 439.0,611.3 437.5,609.5 C 437.5,609.5 436.0,607.7 434.2,605.7 C 434.2,605.7 432.3,603.7 430.3,601.2 C 430.3,601.2 428.3,598.7 425.8,595.8 C 425.8,595.8 423.3,593.0 420.8,590.0 C 420.8,590.0 418.3,587.0 415.5,584.0 C 415.5,584.0 412.7,581.0 410.0,578.2 C 410.0,578.2 407.3,575.3 404.7,572.5 C 404.7,572.5 402.0,569.7 399.5,567.2 C 399.5,567.2 397.0,564.7 394.5,562.3 C 394.5,562.3 392.0,560.0 389.5,558.0 C 389.5,558.0 387.0,556.0 384.8,554.2 C 384.8,554.2 382.7,552.3 380.7,550.7 C 380.7,550.7 378.7,549.0 376.8,547.7 C 376.8,547.7 375.0,546.3 373.3,545.2 C 373.3,545.2 371.7,544.0 370.0,543.0 C 370.0,543.0 368.3,542.0 366.8,541.3 C 366.8,541.3 365.3,540.7 363.7,540.2 C 363.7,540.2 362.0,539.7 360.5,539.5 C 360.5,539.5 359.0,539.3 357.5,539.3 C 357.5,539.3 356.0,539.3 354.5,539.7 C 354.5,539.7 353.0,540.0 351.5,540.7 C 351.5,540.7 350.0,541.3 348.5,542.3 C 348.5,542.3 347.0,543.3 345.5,544.5 C 345.5,544.5 344.0,545.7 342.7,547.0 C 342.7,547.0 341.3,548.3 340.3,549.8 C 340.3,549.8 339.3,551.3 338.8,553.0 C 338.8,553.0 338.3,554.7 338.0,556.7 C 338.0,556.7 337.7,558.7 337.7,560.7 C 337.7,560.7 337.7,562.7 337.8,564.7 C 337.8,564.7 338.0,566.7 338.7,568.7 C 338.7,568.7 339.3,570.7 340.3,572.5 C 340.3,572.5 341.3,574.3 342.7,576.3 C 342.7,576.3 344.0,578.3 345.5,579.8 C 345.5,579.8 347.0,581.3 348.7,583.0 C 348.7,583.0 350.3,584.7 352.3,586.2 C 352.3,586.2 354.3,587.7 356.5,589.5 C 356.5,589.5 358.7,591.3 361.0,593.0 C 361.0,593.0 363.3,594.7 365.5,596.5 C 365.5,596.5 367.7,598.3 370.0,600.2 C 370.0,600.2 372.3,602.0 374.7,604.0 C 374.7,604.0 377.0,606.0 379.5,607.8 C 379.5,607.8 382.0,609.7 384.5,611.5 C 384.5,611.5 387.0,613.3 389.3,615.0 C 389.3,615.0 391.7,616.7 393.7,618.3 C 393.7,618.3 395.7,620.0 397.5,621.5 C 397.5,621.5 399.3,623.0 401.0,624.5 C 401.0,624.5 402.7,626.0 404.2,627.7 C 404.2,627.7 405.7,629.3 406.7,631.2 C 406.7,631.2 407.7,633.0 408.5,635.0 C 408.5,635.0 409.3,637.0 410.0,639.0 C 410.0,639.0 410.7,641.0 411.2,643.2 C 411.2,643.2 411.7,645.3 411.8,647.5 C 411.8,647.5 412.0,649.7 411.7,652.2 C 411.7,652.2 411.3,654.7 410.8,657.0 C 410.8,657.0 410.3,659.3 409.5,661.7 C 409.5,661.7 408.7,664.0 407.7,666.0 C 407.7,666.0 406.7,668.0 405.0,670.0 C 405.0,670.0 403.3,672.0 401.3,673.8 C 401.3,673.8 399.3,675.7 397.2,677.2 C 397.2,677.2 395.0,678.7 392.8,679.7 C 392.8,679.7 390.7,680.7 388.2,681.3 C 388.2,681.3 385.7,682.0 383.0,682.3 C 383.0,682.3 380.3,682.7 377.5,682.7 C 377.5,682.7 374.7,682.7 371.8,682.2 C 371.8,682.2 369.0,681.7 366.2,680.8 C 366.2,680.8 363.3,680.0 360.7,678.7 C 360.7,678.7 358.0,677.3 355.5,675.7 C 355.5,675.7 353.0,674.0 350.3,672.0 C 350.3,672.0 347.7,670.0 345.0,667.8 C 345.0,667.8 342.3,665.7 339.3,663.2 C 339.3,663.2 336.3,660.7 333.2,657.8 C 333.2,657.8 330.0,655.0 326.5,652.0 C 326.5,652.0 323.0,649.0 319.5,646.0 C 319.5,646.0 316.0,643.0 312.2,639.8 C 312.2,639.8 308.3,636.7 304.5,633.3 C 304.5,633.3 300.7,630.0 296.5,626.7 C 296.5,626.7 292.3,623.3 288.3,620.0 C 288.3,620.0 284.3,616.7 277.2,610.8 L 270,605" stroke="#374151" stroke-width="8" fill="none" vector-effect="non-scaling-stroke"/><path d="M 560,511 C 558.2,513.0 556.5,515.0 554.6,517.0 C 554.6,517.0 552.7,519.0 549.0,523.0 C 549.0,523.0 545.3,527.0 541.8,530.8 C 541.8,530.8 538.3,534.7 534.8,538.5 C 534.8,538.5 531.3,542.3 527.7,546.2 C 527.7,546.2 524.0,550.0 520.2,554.2 C 520.2,554.2 516.3,558.3 512.5,562.3 C 512.5,562.3 508.7,566.3 505.2,570.2 C 505.2,570.2 501.7,574.0 498.5,577.2 C 498.5,577.2 495.3,580.3 492.7,583.3 C 492.7,583.3 490.0,586.3 487.5,589.0 C 487.5,589.0 485.0,591.7 482.7,594.2 C 482.7,594.2 480.3,596.7 478.3,598.8 C 478.3,598.8 476.3,601.0 474.7,602.8 C 474.7,602.8 473.0,604.7 471.5,606.3 C 471.5,606.3 470.0,608.0 468.7,609.3 C 468.7,609.3 467.3,610.7 466.0,612.0 C 466.0,612.0 464.7,613.3 463.3,614.3 C 463.3,614.3 462.0,615.3 460.5,616.2 C 460.5,616.2 459.0,617.0 457.3,617.3 C 457.3,617.3 455.7,617.7 454.0,617.8 C 454.0,617.8 452.3,618.0 450.5,617.7 C 450.5,617.7 448.7,617.3 447.0,616.8 C 447.0,616.8 445.3,616.3 443.7,615.2 C 443.7,615.2 442.0,614.0 440.5,612.7 C 440.5,612.7 439.0,611.3 437.5,609.5 C 437.5,609.5 436.0,607.7 434.2,605.7 C 434.2,605.7 432.3,603.7 430.3,601.2 C 430.3,601.2 428.3,598.7 425.8,595.8 C 425.8,595.8 423.3,593.0 420.8,590.0 C 420.8,590.0 418.3,587.0 415.5,584.0 C 415.5,584.0 412.7,581.0 410.0,578.2 C 410.0,578.2 407.3,575.3 404.7,572.5 C 404.7,572.5 402.0,569.7 399.5,567.2 C 399.5,567.2 397.0,564.7 394.5,562.3 C 394.5,562.3 392.0,560.0 389.5,558.0 C 389.5,558.0 387.0,556.0 384.8,554.2 C 384.8,554.2 382.7,552.3 380.7,550.7 C 380.7,550.7 378.7,549.0 376.8,547.7 C 376.8,547.7 375.0,546.3 373.3,545.2 C 373.3,545.2 371.7,544.0 370.0,543.0 C 370.0,543.0 368.3,542.0 366.8,541.3 C 366.8,541.3 365.3,540.7 363.7,540.2 C 363.7,540.2 362.0,539.7 360.5,539.5 C 360.5,539.5 359.0,539.3 357.5,539.3 C 357.5,539.3 356.0,539.3 354.5,539.7 C 354.5,539.7 353.0,540.0 351.5,540.7 C 351.5,540.7 350.0,541.3 348.5,542.3 C 348.5,542.3 347.0,543.3 345.5,544.5 C 345.5,544.5 344.0,545.7 342.7,547.0 C 342.7,547.0 341.3,548.3 340.3,549.8 C 340.3,549.8 339.3,551.3 338.8,553.0 C 338.8,553.0 338.3,554.7 338.0,556.7 C 338.0,556.7 337.7,558.7 337.7,560.7 C 337.7,560.7 337.7,562.7 337.8,564.7 C 337.8,564.7 338.0,566.7 338.7,568.7 C 338.7,568.7 339.3,570.7 340.3,572.5 C 340.3,572.5 341.3,574.3 342.7,576.3 C 342.7,576.3 344.0,578.3 345.5,579.8 C 345.5,579.8 347.0,581.3 348.7,583.0 C 348.7,583.0 350.3,584.7 352.3,586.2 C 352.3,586.2 354.3,587.7 356.5,589.5 C 356.5,589.5 358.7,591.3 361.0,593.0 C 361.0,593.0 363.3,594.7 365.5,596.5 C 365.5,596.5 367.7,598.3 370.0,600.2 C 370.0,600.2 372.3,602.0 374.7,604.0 C 374.7,604.0 377.0,606.0 379.5,607.8 C 379.5,607.8 382.0,609.7 384.5,611.5 C 384.5,611.5 387.0,613.3 389.3,615.0 C 389.3,615.0 391.7,616.7 393.7,618.3 C 393.7,618.3 395.7,620.0 397.5,621.5 C 397.5,621.5 399.3,623.0 401.0,624.5 C 401.0,624.5 402.7,626.0 404.2,627.7 C 404.2,627.7 405.7,629.3 406.7,631.2 C 406.7,631.2 407.7,633.0 408.5,635.0 C 408.5,635.0 409.3,637.0 410.0,639.0 C 410.0,639.0 410.7,641.0 411.2,643.2 C 411.2,643.2 411.7,645.3 411.8,647.5 C 411.8,647.5 412.0,649.7 411.7,652.2 C 411.7,652.2 411.3,654.7 410.8,657.0 C 410.8,657.0 410.3,659.3 409.5,661.7 C 409.5,661.7 408.7,664.0 407.7,666.0 C 407.7,666.0 406.7,668.0 405.0,670.0 C 405.0,670.0 403.3,672.0 401.3,673.8 C 401.3,673.8 399.3,675.7 397.2,677.2 C 397.2,677.2 395.0,678.7 392.8,679.7 C 392.8,679.7 390.7,680.7 388.2,681.3 C 388.2,681.3 385.7,682.0 383.0,682.3 C 383.0,682.3 380.3,682.7 377.5,682.7 C 377.5,682.7 374.7,682.7 371.8,682.2 C 371.8,682.2 369.0,681.7 366.2,680.8 C 366.2,680.8 363.3,680.0 360.7,678.7 C 360.7,678.7 358.0,677.3 355.5,675.7 C 355.5,675.7 353.0,674.0 350.3,672.0 C 350.3,672.0 347.7,670.0 345.0,667.8 C 345.0,667.8 342.3,665.7 339.3,663.2 C 339.3,663.2 336.3,660.7 333.2,657.8 C 333.2,657.8 330.0,655.0 326.5,652.0 C 326.5,652.0 323.0,649.0 319.5,646.0 C 319.5,646.0 316.0,643.0 312.2,639.8 C 312.2,639.8 308.3,636.7 304.5,633.3 C 304.5,633.3 300.7,630.0 296.5,626.7 C 296.5,626.7 292.3,623.3 288.3,620.0 C 288.3,620.0 284.3,616.7 277.2,610.8 L 270,605" stroke="#FBBF24" stroke-width="2" fill="none" vector-effect="non-scaling-stroke"/>
    <g id="moving-circle-group">
        <circle cx="270" cy="605" r="20" fill="#000000" vector-effect="non-scaling-stroke"/>
        <circle cx="270" cy="605" r="7" fill="#FFFFFF" vector-effect="non-scaling-stroke"/>
    </g></svg>