<svg id="minimap-svg" width="100%" height="100%" viewBox="0 0 700 364" xmlns="http://www.w3.org/2000/svg"><path d="M 517,55 C 514.2,55.0 511.5,55.0 508.8,55.0 C 508.8,55.0 506.0,55.0 500.5,55.0 C 500.5,55.0 495.0,55.0 489.5,55.0 C 489.5,55.0 484.0,55.0 478.3,55.0 C 478.3,55.0 472.7,55.0 466.8,55.0 C 466.8,55.0 461.0,55.0 454.8,54.8 C 454.8,54.8 448.7,54.7 442.3,54.3 C 442.3,54.3 436.0,54.0 429.7,53.5 C 429.7,53.5 423.3,53.0 417.3,52.2 C 417.3,52.2 411.3,51.3 405.5,50.2 C 405.5,50.2 399.7,49.0 393.8,47.7 C 393.8,47.7 388.0,46.3 381.8,45.0 C 381.8,45.0 375.7,43.7 369.5,42.5 C 369.5,42.5 363.3,41.3 357.2,40.2 C 357.2,40.2 351.0,39.0 345.3,38.2 C 345.3,38.2 339.7,37.3 334.5,36.8 C 334.5,36.8 329.3,36.3 324.5,36.0 C 324.5,36.0 319.7,35.7 315.0,35.7 C 315.0,35.7 310.3,35.7 305.5,35.8 C 305.5,35.8 300.7,36.0 296.0,36.5 C 296.0,36.5 291.3,37.0 286.7,37.3 C 286.7,37.3 282.0,37.7 277.3,38.0 C 277.3,38.0 272.7,38.3 268.0,38.8 C 268.0,38.8 263.3,39.3 258.7,40.0 C 258.7,40.0 254.0,40.7 249.7,41.3 C 249.7,41.3 245.3,42.0 241.2,42.5 C 241.2,42.5 237.0,43.0 233.2,43.7 C 233.2,43.7 229.3,44.3 225.8,45.0 C 225.8,45.0 222.3,45.7 219.5,46.3 C 219.5,46.3 216.7,47.0 214.3,47.5 C 214.3,47.5 212.0,48.0 210.2,48.5 C 210.2,48.5 208.3,49.0 206.7,49.5 C 206.7,49.5 205.0,50.0 203.5,50.5 C 203.5,50.5 202.0,51.0 200.7,51.5 C 200.7,51.5 199.3,52.0 198.2,52.7 C 198.2,52.7 197.0,53.3 196.2,54.2 C 196.2,54.2 195.3,55.0 194.7,56.2 C 194.7,56.2 194.0,57.3 193.5,58.8 C 193.5,58.8 193.0,60.3 192.5,62.2 C 192.5,62.2 192.0,64.0 191.3,66.0 C 191.3,66.0 190.7,68.0 189.8,69.8 C 189.8,69.8 189.0,71.7 187.8,73.3 C 187.8,73.3 186.7,75.0 185.0,76.3 C 185.0,76.3 183.3,77.7 181.3,78.8 C 181.3,78.8 179.3,80.0 177.0,81.2 C 177.0,81.2 174.7,82.3 172.2,83.5 C 172.2,83.5 169.7,84.7 167.0,86.0 C 167.0,86.0 164.3,87.3 161.7,88.7 C 161.7,88.7 159.0,90.0 156.5,91.5 C 156.5,91.5 154.0,93.0 151.7,94.7 C 151.7,94.7 149.3,96.3 147.3,98.3 C 147.3,98.3 145.3,100.3 143.8,102.8 C 143.8,102.8 142.3,105.3 141.0,108.2 C 141.0,108.2 139.7,111.0 138.3,114.3 C 138.3,114.3 137.0,117.7 135.5,121.3 C 135.5,121.3 134.0,125.0 132.5,129.2 C 132.5,129.2 131.0,133.3 129.3,137.7 C 129.3,137.7 127.7,142.0 125.8,146.5 C 125.8,146.5 124.0,151.0 122.0,155.7 C 122.0,155.7 120.0,160.3 118.0,165.3 C 118.0,165.3 116.0,170.3 113.8,175.5 C 113.8,175.5 111.7,180.7 109.3,186.0 C 109.3,186.0 107.0,191.3 104.7,196.7 C 104.7,196.7 102.3,202.0 100.2,207.5 C 100.2,207.5 98.0,213.0 96.2,218.0 C 96.2,218.0 94.3,223.0 92.8,227.0 C 92.8,227.0 91.3,231.0 90.5,234.0 C 90.5,234.0 89.7,237.0 89.3,239.3 C 89.3,239.3 89.0,241.7 89.2,243.7 C 89.2,243.7 89.3,245.7 89.8,247.5 C 89.8,247.5 90.3,249.3 91.0,251.0 C 91.0,251.0 91.7,252.7 92.2,254.5 C 92.2,254.5 92.7,256.3 93.0,258.0 C 93.0,258.0 93.3,259.7 93.5,261.5 C 93.5,261.5 93.7,263.3 93.8,265.0 C 93.8,265.0 94.0,266.7 93.7,268.3 C 93.7,268.3 93.3,270.0 92.7,271.5 C 92.7,271.5 92.0,273.0 90.8,274.5 C 90.8,274.5 89.7,276.0 88.2,277.5 C 88.2,277.5 86.7,279.0 84.7,280.7 C 84.7,280.7 82.7,282.3 80.2,284.2 C 80.2,284.2 77.7,286.0 74.8,288.2 C 74.8,288.2 72.0,290.3 69.0,292.8 C 69.0,292.8 66.0,295.3 59.0,301.2 L 52,307" stroke="#374151" stroke-width="8" fill="none" vector-effect="non-scaling-stroke"/><path d="M 517,55 C 514.2,55.0 511.5,55.0 508.8,55.0 C 508.8,55.0 506.0,55.0 500.5,55.0 C 500.5,55.0 495.0,55.0 489.5,55.0 C 489.5,55.0 484.0,55.0 478.3,55.0 C 478.3,55.0 472.7,55.0 466.8,55.0 C 466.8,55.0 461.0,55.0 454.8,54.8 C 454.8,54.8 448.7,54.7 442.3,54.3 C 442.3,54.3 436.0,54.0 429.7,53.5 C 429.7,53.5 423.3,53.0 417.3,52.2 C 417.3,52.2 411.3,51.3 405.5,50.2 C 405.5,50.2 399.7,49.0 393.8,47.7 C 393.8,47.7 388.0,46.3 381.8,45.0 C 381.8,45.0 375.7,43.7 369.5,42.5 C 369.5,42.5 363.3,41.3 357.2,40.2 C 357.2,40.2 351.0,39.0 345.3,38.2 C 345.3,38.2 339.7,37.3 334.5,36.8 C 334.5,36.8 329.3,36.3 324.5,36.0 C 324.5,36.0 319.7,35.7 315.0,35.7 C 315.0,35.7 310.3,35.7 305.5,35.8 C 305.5,35.8 300.7,36.0 296.0,36.5 C 296.0,36.5 291.3,37.0 286.7,37.3 C 286.7,37.3 282.0,37.7 277.3,38.0 C 277.3,38.0 272.7,38.3 268.0,38.8 C 268.0,38.8 263.3,39.3 258.7,40.0 C 258.7,40.0 254.0,40.7 249.7,41.3 C 249.7,41.3 245.3,42.0 241.2,42.5 C 241.2,42.5 237.0,43.0 233.2,43.7 C 233.2,43.7 229.3,44.3 225.8,45.0 C 225.8,45.0 222.3,45.7 219.5,46.3 C 219.5,46.3 216.7,47.0 214.3,47.5 C 214.3,47.5 212.0,48.0 210.2,48.5 C 210.2,48.5 208.3,49.0 206.7,49.5 C 206.7,49.5 205.0,50.0 203.5,50.5 C 203.5,50.5 202.0,51.0 200.7,51.5 C 200.7,51.5 199.3,52.0 198.2,52.7 C 198.2,52.7 197.0,53.3 196.2,54.2 C 196.2,54.2 195.3,55.0 194.7,56.2 C 194.7,56.2 194.0,57.3 193.5,58.8 C 193.5,58.8 193.0,60.3 192.5,62.2 C 192.5,62.2 192.0,64.0 191.3,66.0 C 191.3,66.0 190.7,68.0 189.8,69.8 C 189.8,69.8 189.0,71.7 187.8,73.3 C 187.8,73.3 186.7,75.0 185.0,76.3 C 185.0,76.3 183.3,77.7 181.3,78.8 C 181.3,78.8 179.3,80.0 177.0,81.2 C 177.0,81.2 174.7,82.3 172.2,83.5 C 172.2,83.5 169.7,84.7 167.0,86.0 C 167.0,86.0 164.3,87.3 161.7,88.7 C 161.7,88.7 159.0,90.0 156.5,91.5 C 156.5,91.5 154.0,93.0 151.7,94.7 C 151.7,94.7 149.3,96.3 147.3,98.3 C 147.3,98.3 145.3,100.3 143.8,102.8 C 143.8,102.8 142.3,105.3 141.0,108.2 C 141.0,108.2 139.7,111.0 138.3,114.3 C 138.3,114.3 137.0,117.7 135.5,121.3 C 135.5,121.3 134.0,125.0 132.5,129.2 C 132.5,129.2 131.0,133.3 129.3,137.7 C 129.3,137.7 127.7,142.0 125.8,146.5 C 125.8,146.5 124.0,151.0 122.0,155.7 C 122.0,155.7 120.0,160.3 118.0,165.3 C 118.0,165.3 116.0,170.3 113.8,175.5 C 113.8,175.5 111.7,180.7 109.3,186.0 C 109.3,186.0 107.0,191.3 104.7,196.7 C 104.7,196.7 102.3,202.0 100.2,207.5 C 100.2,207.5 98.0,213.0 96.2,218.0 C 96.2,218.0 94.3,223.0 92.8,227.0 C 92.8,227.0 91.3,231.0 90.5,234.0 C 90.5,234.0 89.7,237.0 89.3,239.3 C 89.3,239.3 89.0,241.7 89.2,243.7 C 89.2,243.7 89.3,245.7 89.8,247.5 C 89.8,247.5 90.3,249.3 91.0,251.0 C 91.0,251.0 91.7,252.7 92.2,254.5 C 92.2,254.5 92.7,256.3 93.0,258.0 C 93.0,258.0 93.3,259.7 93.5,261.5 C 93.5,261.5 93.7,263.3 93.8,265.0 C 93.8,265.0 94.0,266.7 93.7,268.3 C 93.7,268.3 93.3,270.0 92.7,271.5 C 92.7,271.5 92.0,273.0 90.8,274.5 C 90.8,274.5 89.7,276.0 88.2,277.5 C 88.2,277.5 86.7,279.0 84.7,280.7 C 84.7,280.7 82.7,282.3 80.2,284.2 C 80.2,284.2 77.7,286.0 74.8,288.2 C 74.8,288.2 72.0,290.3 69.0,292.8 C 69.0,292.8 66.0,295.3 59.0,301.2 L 52,307" stroke="#EF4444" stroke-width="2" fill="none" vector-effect="non-scaling-stroke"/><path d="M 52,307 C 50.2,308.5 48.5,310.0 46.9,311.3 C 46.9,311.3 45.3,312.7 42.5,315.0 C 42.5,315.0 39.7,317.3 37.5,319.0 C 37.5,319.0 35.3,320.7 33.7,322.0 C 33.7,322.0 32.0,323.3 30.7,324.5 C 30.7,324.5 29.3,325.7 28.2,327.0 C 28.2,327.0 27.0,328.3 26.2,329.5 C 26.2,329.5 25.3,330.7 24.7,332.0 C 24.7,332.0 24.0,333.3 23.8,334.8 C 23.8,334.8 23.7,336.3 23.8,338.0 C 23.8,338.0 24.0,339.7 24.8,341.3 C 24.8,341.3 25.7,343.0 26.8,344.3 C 26.8,344.3 28.0,345.7 29.5,346.7 C 29.5,346.7 31.0,347.7 32.7,348.2 C 32.7,348.2 34.3,348.7 36.3,348.8 C 36.3,348.8 38.3,349.0 40.5,348.8 C 40.5,348.8 42.7,348.7 45.0,348.3 C 45.0,348.3 47.3,348.0 49.8,347.5 C 49.8,347.5 52.3,347.0 55.3,346.5 C 55.3,346.5 58.3,346.0 61.8,345.7 C 61.8,345.7 65.3,345.3 69.2,344.8 C 69.2,344.8 73.0,344.3 77.2,343.8 C 77.2,343.8 81.3,343.3 85.8,342.7 C 85.8,342.7 90.3,342.0 95.2,341.5 C 95.2,341.5 100.0,341.0 105.2,340.3 C 105.2,340.3 110.3,339.7 115.7,339.0 C 115.7,339.0 121.0,338.3 126.3,337.7 C 126.3,337.7 131.7,337.0 136.3,336.5 C 136.3,336.5 141.0,336.0 145.0,335.7 C 145.0,335.7 149.0,335.3 152.3,335.2 C 152.3,335.2 155.7,335.0 159.0,335.0 C 159.0,335.0 162.3,335.0 165.7,335.0 C 165.7,335.0 169.0,335.0 172.5,335.3 C 172.5,335.3 176.0,335.7 179.5,336.2 C 179.5,336.2 183.0,336.7 186.3,337.5 C 186.3,337.5 189.7,338.3 193.2,339.0 C 193.2,339.0 196.7,339.7 200.2,340.3 C 200.2,340.3 203.7,341.0 207.2,341.5 C 207.2,341.5 210.7,342.0 213.7,342.7 C 213.7,342.7 216.7,343.3 219.3,343.8 C 219.3,343.8 222.0,344.3 224.3,344.7 C 224.3,344.7 226.7,345.0 228.8,344.8 C 228.8,344.8 231.0,344.7 233.0,344.3 C 233.0,344.3 235.0,344.0 237.0,343.3 C 237.0,343.3 239.0,342.7 240.7,341.7 C 240.7,341.7 242.3,340.7 243.8,339.3 C 243.8,339.3 245.3,338.0 246.5,336.3 C 246.5,336.3 247.7,334.7 248.8,332.8 C 248.8,332.8 250.0,331.0 251.0,329.0 C 251.0,329.0 252.0,327.0 253.0,324.8 C 253.0,324.8 254.0,322.7 255.0,320.3 C 255.0,320.3 256.0,318.0 257.0,315.5 C 257.0,315.5 258.0,313.0 259.0,310.3 C 259.0,310.3 260.0,307.7 260.8,305.0 C 260.8,305.0 261.7,302.3 262.3,299.7 C 262.3,299.7 263.0,297.0 263.3,294.3 C 263.3,294.3 263.7,291.7 263.8,288.8 C 263.8,288.8 264.0,286.0 263.8,283.0 C 263.8,283.0 263.7,280.0 263.2,277.0 C 263.2,277.0 262.7,274.0 262.0,271.0 C 262.0,271.0 261.3,268.0 260.5,264.8 C 260.5,264.8 259.7,261.7 258.8,258.2 C 258.8,258.2 258.0,254.7 257.0,250.7 C 257.0,250.7 256.0,246.7 255.0,242.5 C 255.0,242.5 254.0,238.3 253.2,234.3 C 253.2,234.3 252.3,230.3 251.7,227.2 C 251.7,227.2 251.0,224.0 250.7,221.5 C 250.7,221.5 250.3,219.0 250.2,217.2 C 250.2,217.2 250.0,215.3 250.0,213.5 C 250.0,213.5 250.0,211.7 250.2,210.0 C 250.2,210.0 250.3,208.3 250.8,206.5 C 250.8,206.5 251.3,204.7 252.3,203.0 C 252.3,203.0 253.3,201.3 254.5,199.5 C 254.5,199.5 255.7,197.7 257.0,195.8 C 257.0,195.8 258.3,194.0 259.5,192.0 C 259.5,192.0 260.7,190.0 261.8,188.2 C 261.8,188.2 263.0,186.3 264.0,184.8 C 264.0,184.8 265.0,183.3 266.0,182.2 C 266.0,182.2 267.0,181.0 268.2,180.2 C 268.2,180.2 269.3,179.3 270.7,178.8 C 270.7,178.8 272.0,178.3 273.5,178.2 C 273.5,178.2 275.0,178.0 276.5,178.2 C 276.5,178.2 278.0,178.3 279.7,178.8 C 279.7,178.8 281.3,179.3 283.0,180.0 C 283.0,180.0 284.7,180.7 286.3,181.3 C 286.3,181.3 288.0,182.0 289.7,182.5 C 289.7,182.5 291.3,183.0 293.2,183.3 C 293.2,183.3 295.0,183.7 296.8,183.8 C 296.8,183.8 298.7,184.0 300.5,184.0 C 300.5,184.0 302.3,184.0 304.3,184.0 C 304.3,184.0 306.3,184.0 308.5,184.0 C 308.5,184.0 310.7,184.0 312.8,184.0 C 312.8,184.0 315.0,184.0 317.0,184.0 C 317.0,184.0 319.0,184.0 321.2,184.0 C 321.2,184.0 323.3,184.0 325.8,184.0 C 325.8,184.0 328.3,184.0 331.3,184.0 C 331.3,184.0 334.3,184.0 337.7,183.8 C 337.7,183.8 341.0,183.7 344.7,183.5 C 344.7,183.5 348.3,183.3 352.5,183.2 C 352.5,183.2 356.7,183.0 361.2,183.0 C 361.2,183.0 365.7,183.0 373.8,183.0 L 382,183" stroke="#374151" stroke-width="8" fill="none" vector-effect="non-scaling-stroke"/><path d="M 52,307 C 50.2,308.5 48.5,310.0 46.9,311.3 C 46.9,311.3 45.3,312.7 42.5,315.0 C 42.5,315.0 39.7,317.3 37.5,319.0 C 37.5,319.0 35.3,320.7 33.7,322.0 C 33.7,322.0 32.0,323.3 30.7,324.5 C 30.7,324.5 29.3,325.7 28.2,327.0 C 28.2,327.0 27.0,328.3 26.2,329.5 C 26.2,329.5 25.3,330.7 24.7,332.0 C 24.7,332.0 24.0,333.3 23.8,334.8 C 23.8,334.8 23.7,336.3 23.8,338.0 C 23.8,338.0 24.0,339.7 24.8,341.3 C 24.8,341.3 25.7,343.0 26.8,344.3 C 26.8,344.3 28.0,345.7 29.5,346.7 C 29.5,346.7 31.0,347.7 32.7,348.2 C 32.7,348.2 34.3,348.7 36.3,348.8 C 36.3,348.8 38.3,349.0 40.5,348.8 C 40.5,348.8 42.7,348.7 45.0,348.3 C 45.0,348.3 47.3,348.0 49.8,347.5 C 49.8,347.5 52.3,347.0 55.3,346.5 C 55.3,346.5 58.3,346.0 61.8,345.7 C 61.8,345.7 65.3,345.3 69.2,344.8 C 69.2,344.8 73.0,344.3 77.2,343.8 C 77.2,343.8 81.3,343.3 85.8,342.7 C 85.8,342.7 90.3,342.0 95.2,341.5 C 95.2,341.5 100.0,341.0 105.2,340.3 C 105.2,340.3 110.3,339.7 115.7,339.0 C 115.7,339.0 121.0,338.3 126.3,337.7 C 126.3,337.7 131.7,337.0 136.3,336.5 C 136.3,336.5 141.0,336.0 145.0,335.7 C 145.0,335.7 149.0,335.3 152.3,335.2 C 152.3,335.2 155.7,335.0 159.0,335.0 C 159.0,335.0 162.3,335.0 165.7,335.0 C 165.7,335.0 169.0,335.0 172.5,335.3 C 172.5,335.3 176.0,335.7 179.5,336.2 C 179.5,336.2 183.0,336.7 186.3,337.5 C 186.3,337.5 189.7,338.3 193.2,339.0 C 193.2,339.0 196.7,339.7 200.2,340.3 C 200.2,340.3 203.7,341.0 207.2,341.5 C 207.2,341.5 210.7,342.0 213.7,342.7 C 213.7,342.7 216.7,343.3 219.3,343.8 C 219.3,343.8 222.0,344.3 224.3,344.7 C 224.3,344.7 226.7,345.0 228.8,344.8 C 228.8,344.8 231.0,344.7 233.0,344.3 C 233.0,344.3 235.0,344.0 237.0,343.3 C 237.0,343.3 239.0,342.7 240.7,341.7 C 240.7,341.7 242.3,340.7 243.8,339.3 C 243.8,339.3 245.3,338.0 246.5,336.3 C 246.5,336.3 247.7,334.7 248.8,332.8 C 248.8,332.8 250.0,331.0 251.0,329.0 C 251.0,329.0 252.0,327.0 253.0,324.8 C 253.0,324.8 254.0,322.7 255.0,320.3 C 255.0,320.3 256.0,318.0 257.0,315.5 C 257.0,315.5 258.0,313.0 259.0,310.3 C 259.0,310.3 260.0,307.7 260.8,305.0 C 260.8,305.0 261.7,302.3 262.3,299.7 C 262.3,299.7 263.0,297.0 263.3,294.3 C 263.3,294.3 263.7,291.7 263.8,288.8 C 263.8,288.8 264.0,286.0 263.8,283.0 C 263.8,283.0 263.7,280.0 263.2,277.0 C 263.2,277.0 262.7,274.0 262.0,271.0 C 262.0,271.0 261.3,268.0 260.5,264.8 C 260.5,264.8 259.7,261.7 258.8,258.2 C 258.8,258.2 258.0,254.7 257.0,250.7 C 257.0,250.7 256.0,246.7 255.0,242.5 C 255.0,242.5 254.0,238.3 253.2,234.3 C 253.2,234.3 252.3,230.3 251.7,227.2 C 251.7,227.2 251.0,224.0 250.7,221.5 C 250.7,221.5 250.3,219.0 250.2,217.2 C 250.2,217.2 250.0,215.3 250.0,213.5 C 250.0,213.5 250.0,211.7 250.2,210.0 C 250.2,210.0 250.3,208.3 250.8,206.5 C 250.8,206.5 251.3,204.7 252.3,203.0 C 252.3,203.0 253.3,201.3 254.5,199.5 C 254.5,199.5 255.7,197.7 257.0,195.8 C 257.0,195.8 258.3,194.0 259.5,192.0 C 259.5,192.0 260.7,190.0 261.8,188.2 C 261.8,188.2 263.0,186.3 264.0,184.8 C 264.0,184.8 265.0,183.3 266.0,182.2 C 266.0,182.2 267.0,181.0 268.2,180.2 C 268.2,180.2 269.3,179.3 270.7,178.8 C 270.7,178.8 272.0,178.3 273.5,178.2 C 273.5,178.2 275.0,178.0 276.5,178.2 C 276.5,178.2 278.0,178.3 279.7,178.8 C 279.7,178.8 281.3,179.3 283.0,180.0 C 283.0,180.0 284.7,180.7 286.3,181.3 C 286.3,181.3 288.0,182.0 289.7,182.5 C 289.7,182.5 291.3,183.0 293.2,183.3 C 293.2,183.3 295.0,183.7 296.8,183.8 C 296.8,183.8 298.7,184.0 300.5,184.0 C 300.5,184.0 302.3,184.0 304.3,184.0 C 304.3,184.0 306.3,184.0 308.5,184.0 C 308.5,184.0 310.7,184.0 312.8,184.0 C 312.8,184.0 315.0,184.0 317.0,184.0 C 317.0,184.0 319.0,184.0 321.2,184.0 C 321.2,184.0 323.3,184.0 325.8,184.0 C 325.8,184.0 328.3,184.0 331.3,184.0 C 331.3,184.0 334.3,184.0 337.7,183.8 C 337.7,183.8 341.0,183.7 344.7,183.5 C 344.7,183.5 348.3,183.3 352.5,183.2 C 352.5,183.2 356.7,183.0 361.2,183.0 C 361.2,183.0 365.7,183.0 373.8,183.0 L 382,183" stroke="#3B82F6" stroke-width="2" fill="none" vector-effect="non-scaling-stroke"/><path d="M 382,183 C 384.5,183.0 387.0,183.0 389.7,183.0 C 389.7,183.0 392.3,183.0 397.3,182.8 C 397.3,182.8 402.3,182.7 406.8,182.5 C 406.8,182.5 411.3,182.3 414.8,182.2 C 414.8,182.2 418.3,182.0 421.2,182.0 C 421.2,182.0 424.0,182.0 426.3,182.2 C 426.3,182.2 428.7,182.3 430.8,182.5 C 430.8,182.5 433.0,182.7 434.7,182.8 C 434.7,182.8 436.3,183.0 437.7,183.0 C 437.7,183.0 439.0,183.0 440.0,183.0 C 440.0,183.0 441.0,183.0 441.8,183.0 C 441.8,183.0 442.7,183.0 443.5,183.0 C 443.5,183.0 444.3,183.0 445.0,183.0 C 445.0,183.0 445.7,183.0 446.5,183.0 C 446.5,183.0 447.3,183.0 448.0,183.2 C 448.0,183.2 448.7,183.3 449.2,183.7 C 449.2,183.7 449.7,184.0 450.0,184.5 C 450.0,184.5 450.3,185.0 450.5,185.5 C 450.5,185.5 450.7,186.0 451.0,186.5 C 451.0,186.5 451.3,187.0 451.5,187.5 C 451.5,187.5 451.7,188.0 452.0,188.7 C 452.0,188.7 452.3,189.3 452.7,190.0 C 452.7,190.0 453.0,190.7 453.5,191.3 C 453.5,191.3 454.0,192.0 454.5,192.3 C 454.5,192.3 455.0,192.7 455.5,192.8 C 455.5,192.8 456.0,193.0 456.7,193.0 C 456.7,193.0 457.3,193.0 458.0,193.0 C 458.0,193.0 458.7,193.0 459.5,192.8 C 459.5,192.8 460.3,192.7 461.3,192.3 C 461.3,192.3 462.3,192.0 463.7,191.3 C 463.7,191.3 465.0,190.7 466.7,190.0 C 466.7,190.0 468.3,189.3 470.3,188.5 C 470.3,188.5 472.3,187.7 474.8,186.7 C 474.8,186.7 477.3,185.7 480.3,184.3 C 480.3,184.3 483.3,183.0 486.7,181.5 C 486.7,181.5 490.0,180.0 493.7,178.5 C 493.7,178.5 497.3,177.0 501.2,175.3 C 501.2,175.3 505.0,173.7 508.8,172.0 C 508.8,172.0 512.7,170.3 516.3,168.5 C 516.3,168.5 520.0,166.7 523.5,164.8 C 523.5,164.8 527.0,163.0 530.5,160.8 C 530.5,160.8 534.0,158.7 537.5,156.3 C 537.5,156.3 541.0,154.0 544.3,151.5 C 544.3,151.5 547.7,149.0 551.0,146.3 C 551.0,146.3 554.3,143.7 557.5,140.8 C 557.5,140.8 560.7,138.0 564.0,135.0 C 564.0,135.0 567.3,132.0 570.5,129.0 C 570.5,129.0 573.7,126.0 577.0,123.0 C 577.0,123.0 580.3,120.0 583.5,116.8 C 583.5,116.8 586.7,113.7 590.0,110.5 C 590.0,110.5 593.3,107.3 596.5,104.2 C 596.5,104.2 599.7,101.0 602.7,98.2 C 602.7,98.2 605.7,95.3 608.2,92.8 C 608.2,92.8 610.7,90.3 613.0,88.3 C 613.0,88.3 615.3,86.3 617.8,84.7 C 617.8,84.7 620.3,83.0 623.2,81.5 C 623.2,81.5 626.0,80.0 629.0,78.5 C 629.0,78.5 632.0,77.0 635.2,75.5 C 635.2,75.5 638.3,74.0 641.7,72.7 C 641.7,72.7 645.0,71.3 648.5,70.0 C 648.5,70.0 652.0,68.7 655.2,67.5 C 655.2,67.5 658.3,66.3 661.0,65.2 C 661.0,65.2 663.7,64.0 665.7,63.2 C 665.7,63.2 667.7,62.3 669.2,61.5 C 669.2,61.5 670.7,60.7 671.8,59.8 C 671.8,59.8 673.0,59.0 673.8,57.8 C 673.8,57.8 674.7,56.7 675.3,55.3 C 675.3,55.3 676.0,54.0 676.2,52.5 C 676.2,52.5 676.3,51.0 676.2,49.3 C 676.2,49.3 676.0,47.7 675.3,46.0 C 675.3,46.0 674.7,44.3 673.8,42.3 C 673.8,42.3 673.0,40.3 672.0,38.3 C 672.0,38.3 671.0,36.3 670.0,34.0 C 670.0,34.0 669.0,31.7 668.2,29.7 C 668.2,29.7 667.3,27.7 666.5,26.0 C 666.5,26.0 665.7,24.3 664.8,23.0 C 664.8,23.0 664.0,21.7 663.0,20.5 C 663.0,20.5 662.0,19.3 660.8,18.3 C 660.8,18.3 659.7,17.3 658.3,16.7 C 658.3,16.7 657.0,16.0 655.5,15.7 C 655.5,15.7 654.0,15.3 652.3,15.2 C 652.3,15.2 650.7,15.0 648.8,15.3 C 648.8,15.3 647.0,15.7 644.8,16.3 C 644.8,16.3 642.7,17.0 640.2,18.0 C 640.2,18.0 637.7,19.0 634.7,20.2 C 634.7,20.2 631.7,21.3 628.3,22.5 C 628.3,22.5 625.0,23.7 621.3,25.2 C 621.3,25.2 617.7,26.7 613.7,28.2 C 613.7,28.2 609.7,29.7 605.2,31.5 C 605.2,31.5 600.7,33.3 596.0,35.0 C 596.0,35.0 591.3,36.7 586.5,38.5 C 586.5,38.5 581.7,40.3 576.8,42.0 C 576.8,42.0 572.0,43.7 567.2,45.3 C 567.2,45.3 562.3,47.0 557.5,48.3 C 557.5,48.3 552.7,49.7 547.7,50.8 C 547.7,50.8 542.7,52.0 537.5,52.8 C 537.5,52.8 532.3,53.7 524.7,54.3 L 517,55" stroke="#374151" stroke-width="8" fill="none" vector-effect="non-scaling-stroke"/><path d="M 382,183 C 384.5,183.0 387.0,183.0 389.7,183.0 C 389.7,183.0 392.3,183.0 397.3,182.8 C 397.3,182.8 402.3,182.7 406.8,182.5 C 406.8,182.5 411.3,182.3 414.8,182.2 C 414.8,182.2 418.3,182.0 421.2,182.0 C 421.2,182.0 424.0,182.0 426.3,182.2 C 426.3,182.2 428.7,182.3 430.8,182.5 C 430.8,182.5 433.0,182.7 434.7,182.8 C 434.7,182.8 436.3,183.0 437.7,183.0 C 437.7,183.0 439.0,183.0 440.0,183.0 C 440.0,183.0 441.0,183.0 441.8,183.0 C 441.8,183.0 442.7,183.0 443.5,183.0 C 443.5,183.0 444.3,183.0 445.0,183.0 C 445.0,183.0 445.7,183.0 446.5,183.0 C 446.5,183.0 447.3,183.0 448.0,183.2 C 448.0,183.2 448.7,183.3 449.2,183.7 C 449.2,183.7 449.7,184.0 450.0,184.5 C 450.0,184.5 450.3,185.0 450.5,185.5 C 450.5,185.5 450.7,186.0 451.0,186.5 C 451.0,186.5 451.3,187.0 451.5,187.5 C 451.5,187.5 451.7,188.0 452.0,188.7 C 452.0,188.7 452.3,189.3 452.7,190.0 C 452.7,190.0 453.0,190.7 453.5,191.3 C 453.5,191.3 454.0,192.0 454.5,192.3 C 454.5,192.3 455.0,192.7 455.5,192.8 C 455.5,192.8 456.0,193.0 456.7,193.0 C 456.7,193.0 457.3,193.0 458.0,193.0 C 458.0,193.0 458.7,193.0 459.5,192.8 C 459.5,192.8 460.3,192.7 461.3,192.3 C 461.3,192.3 462.3,192.0 463.7,191.3 C 463.7,191.3 465.0,190.7 466.7,190.0 C 466.7,190.0 468.3,189.3 470.3,188.5 C 470.3,188.5 472.3,187.7 474.8,186.7 C 474.8,186.7 477.3,185.7 480.3,184.3 C 480.3,184.3 483.3,183.0 486.7,181.5 C 486.7,181.5 490.0,180.0 493.7,178.5 C 493.7,178.5 497.3,177.0 501.2,175.3 C 501.2,175.3 505.0,173.7 508.8,172.0 C 508.8,172.0 512.7,170.3 516.3,168.5 C 516.3,168.5 520.0,166.7 523.5,164.8 C 523.5,164.8 527.0,163.0 530.5,160.8 C 530.5,160.8 534.0,158.7 537.5,156.3 C 537.5,156.3 541.0,154.0 544.3,151.5 C 544.3,151.5 547.7,149.0 551.0,146.3 C 551.0,146.3 554.3,143.7 557.5,140.8 C 557.5,140.8 560.7,138.0 564.0,135.0 C 564.0,135.0 567.3,132.0 570.5,129.0 C 570.5,129.0 573.7,126.0 577.0,123.0 C 577.0,123.0 580.3,120.0 583.5,116.8 C 583.5,116.8 586.7,113.7 590.0,110.5 C 590.0,110.5 593.3,107.3 596.5,104.2 C 596.5,104.2 599.7,101.0 602.7,98.2 C 602.7,98.2 605.7,95.3 608.2,92.8 C 608.2,92.8 610.7,90.3 613.0,88.3 C 613.0,88.3 615.3,86.3 617.8,84.7 C 617.8,84.7 620.3,83.0 623.2,81.5 C 623.2,81.5 626.0,80.0 629.0,78.5 C 629.0,78.5 632.0,77.0 635.2,75.5 C 635.2,75.5 638.3,74.0 641.7,72.7 C 641.7,72.7 645.0,71.3 648.5,70.0 C 648.5,70.0 652.0,68.7 655.2,67.5 C 655.2,67.5 658.3,66.3 661.0,65.2 C 661.0,65.2 663.7,64.0 665.7,63.2 C 665.7,63.2 667.7,62.3 669.2,61.5 C 669.2,61.5 670.7,60.7 671.8,59.8 C 671.8,59.8 673.0,59.0 673.8,57.8 C 673.8,57.8 674.7,56.7 675.3,55.3 C 675.3,55.3 676.0,54.0 676.2,52.5 C 676.2,52.5 676.3,51.0 676.2,49.3 C 676.2,49.3 676.0,47.7 675.3,46.0 C 675.3,46.0 674.7,44.3 673.8,42.3 C 673.8,42.3 673.0,40.3 672.0,38.3 C 672.0,38.3 671.0,36.3 670.0,34.0 C 670.0,34.0 669.0,31.7 668.2,29.7 C 668.2,29.7 667.3,27.7 666.5,26.0 C 666.5,26.0 665.7,24.3 664.8,23.0 C 664.8,23.0 664.0,21.7 663.0,20.5 C 663.0,20.5 662.0,19.3 660.8,18.3 C 660.8,18.3 659.7,17.3 658.3,16.7 C 658.3,16.7 657.0,16.0 655.5,15.7 C 655.5,15.7 654.0,15.3 652.3,15.2 C 652.3,15.2 650.7,15.0 648.8,15.3 C 648.8,15.3 647.0,15.7 644.8,16.3 C 644.8,16.3 642.7,17.0 640.2,18.0 C 640.2,18.0 637.7,19.0 634.7,20.2 C 634.7,20.2 631.7,21.3 628.3,22.5 C 628.3,22.5 625.0,23.7 621.3,25.2 C 621.3,25.2 617.7,26.7 613.7,28.2 C 613.7,28.2 609.7,29.7 605.2,31.5 C 605.2,31.5 600.7,33.3 596.0,35.0 C 596.0,35.0 591.3,36.7 586.5,38.5 C 586.5,38.5 581.7,40.3 576.8,42.0 C 576.8,42.0 572.0,43.7 567.2,45.3 C 567.2,45.3 562.3,47.0 557.5,48.3 C 557.5,48.3 552.7,49.7 547.7,50.8 C 547.7,50.8 542.7,52.0 537.5,52.8 C 537.5,52.8 532.3,53.7 524.7,54.3 L 517,55" stroke="#FBBF24" stroke-width="2" fill="none" vector-effect="non-scaling-stroke"/>
    <g id="moving-circle-group">
        <circle cx="517" cy="55" r="20" fill="#000000" vector-effect="non-scaling-stroke"/>
        <circle cx="517" cy="55" r="7" fill="#FFFFFF" vector-effect="non-scaling-stroke"/>
    </g></svg>