<svg id="minimap-svg" width="100%" height="100%" viewBox="0 0 700 350" xmlns="http://www.w3.org/2000/svg"><path d="M 527,121 C 528.5,123.0 530.0,125.0 531.7,126.8 C 531.7,126.8 533.3,128.7 536.7,132.5 C 536.7,132.5 540.0,136.3 543.5,140.3 C 543.5,140.3 547.0,144.3 550.7,148.5 C 550.7,148.5 554.3,152.7 558.0,157.0 C 558.0,157.0 561.7,161.3 565.5,165.5 C 565.5,165.5 569.3,169.7 573.0,174.0 C 573.0,174.0 576.7,178.3 580.5,182.7 C 580.5,182.7 584.3,187.0 588.2,191.5 C 588.2,191.5 592.0,196.0 596.2,200.5 C 596.2,200.5 600.3,205.0 604.3,209.5 C 604.3,209.5 608.3,214.0 612.5,218.5 C 612.5,218.5 616.7,223.0 620.7,227.5 C 620.7,227.5 624.7,232.0 628.8,236.5 C 628.8,236.5 633.0,241.0 637.0,245.5 C 637.0,245.5 641.0,250.0 644.7,254.3 C 644.7,254.3 648.3,258.7 651.5,262.3 C 651.5,262.3 654.7,266.0 657.0,268.8 C 657.0,268.8 659.3,271.7 661.0,273.7 C 661.0,273.7 662.7,275.7 663.8,277.2 C 663.8,277.2 665.0,278.7 666.2,280.0 C 666.2,280.0 667.3,281.3 668.3,282.7 C 668.3,282.7 669.3,284.0 670.3,285.5 C 670.3,285.5 671.3,287.0 672.0,288.7 C 672.0,288.7 672.7,290.3 673.3,292.2 C 673.3,292.2 674.0,294.0 674.3,296.2 C 674.3,296.2 674.7,298.3 674.8,300.5 C 674.8,300.5 675.0,302.7 674.8,305.0 C 674.8,305.0 674.7,307.3 674.2,309.7 C 674.2,309.7 673.7,312.0 673.0,314.3 C 673.0,314.3 672.3,316.7 671.7,318.7 C 671.7,318.7 671.0,320.7 670.3,322.2 C 670.3,322.2 669.7,323.7 668.8,325.0 C 668.8,325.0 668.0,326.3 667.0,327.5 C 667.0,327.5 666.0,328.7 665.0,329.7 C 665.0,329.7 664.0,330.7 662.8,331.3 C 662.8,331.3 661.7,332.0 660.3,332.5 C 660.3,332.5 659.0,333.0 657.5,333.5 C 657.5,333.5 656.0,334.0 654.3,334.3 C 654.3,334.3 652.7,334.7 650.8,334.7 C 650.8,334.7 649.0,334.7 647.2,334.3 C 647.2,334.3 645.3,334.0 643.7,333.2 C 643.7,333.2 642.0,332.3 640.5,331.2 C 640.5,331.2 639.0,330.0 637.5,328.3 C 637.5,328.3 636.0,326.7 634.5,325.0 C 634.5,325.0 633.0,323.3 631.5,321.3 C 631.5,321.3 630.0,319.3 628.7,317.5 C 628.7,317.5 627.3,315.7 626.0,313.5 C 626.0,313.5 624.7,311.3 623.3,309.3 C 623.3,309.3 622.0,307.3 620.5,305.0 C 620.5,305.0 619.0,302.7 617.5,300.5 C 617.5,300.5 616.0,298.3 614.5,296.3 C 614.5,296.3 613.0,294.3 611.7,292.5 C 611.7,292.5 610.3,290.7 609.2,289.2 C 609.2,289.2 608.0,287.7 607.0,286.2 C 607.0,286.2 606.0,284.7 605.0,283.5 C 605.0,283.5 604.0,282.3 603.0,281.3 C 603.0,281.3 602.0,280.3 601.0,279.5 C 601.0,279.5 600.0,278.7 598.8,278.0 C 598.8,278.0 597.7,277.3 596.3,276.7 C 596.3,276.7 595.0,276.0 593.5,275.7 C 593.5,275.7 592.0,275.3 590.5,275.2 C 590.5,275.2 589.0,275.0 587.3,275.0 C 587.3,275.0 585.7,275.0 584.0,275.0 C 584.0,275.0 582.3,275.0 580.7,275.0 C 580.7,275.0 579.0,275.0 577.5,274.8 C 577.5,274.8 576.0,274.7 574.5,274.5 C 574.5,274.5 573.0,274.3 571.7,274.0 C 571.7,274.0 570.3,273.7 569.2,273.3 C 569.2,273.3 568.0,273.0 566.8,272.3 C 566.8,272.3 565.7,271.7 564.5,271.0 C 564.5,271.0 563.3,270.3 562.2,269.3 C 562.2,269.3 561.0,268.3 560.0,267.2 C 560.0,267.2 559.0,266.0 558.0,264.5 C 558.0,264.5 557.0,263.0 556.2,261.5 C 556.2,261.5 555.3,260.0 554.5,258.2 C 554.5,258.2 553.7,256.3 553.0,254.5 C 553.0,254.5 552.3,252.7 551.7,250.5 C 551.7,250.5 551.0,248.3 550.5,246.3 C 550.5,246.3 550.0,244.3 549.5,242.5 C 549.5,242.5 549.0,240.7 548.5,239.2 C 548.5,239.2 548.0,237.7 547.5,236.3 C 547.5,236.3 547.0,235.0 546.3,233.7 C 546.3,233.7 545.7,232.3 544.8,231.0 C 544.8,231.0 544.0,229.7 543.0,228.5 C 543.0,228.5 542.0,227.3 540.8,226.2 C 540.8,226.2 539.7,225.0 538.3,224.2 C 538.3,224.2 537.0,223.3 535.7,222.7 C 535.7,222.7 534.3,222.0 532.8,221.5 C 532.8,221.5 531.3,221.0 529.8,220.5 C 529.8,220.5 528.3,220.0 526.5,219.7 C 526.5,219.7 524.7,219.3 522.8,219.2 C 522.8,219.2 521.0,219.0 519.2,219.0 C 519.2,219.0 517.3,219.0 515.5,219.0 C 515.5,219.0 513.7,219.0 511.8,219.0 C 511.8,219.0 510.0,219.0 508.2,218.8 C 508.2,218.8 506.3,218.7 504.7,218.5 C 504.7,218.5 503.0,218.3 501.5,218.0 C 501.5,218.0 500.0,217.7 498.5,217.2 C 498.5,217.2 497.0,216.7 495.7,216.0 C 495.7,216.0 494.3,215.3 493.0,214.5 C 493.0,214.5 491.7,213.7 490.5,212.7 C 490.5,212.7 489.3,211.7 488.3,210.5 C 488.3,210.5 487.3,209.3 486.5,208.0 C 486.5,208.0 485.7,206.7 485.0,205.3 C 485.0,205.3 484.3,204.0 483.7,202.3 C 483.7,202.3 483.0,200.7 482.5,199.0 C 482.5,199.0 482.0,197.3 481.7,195.5 C 481.7,195.5 481.3,193.7 481.3,191.8 C 481.3,191.8 481.3,190.0 481.7,188.0 C 481.7,188.0 482.0,186.0 482.5,183.8 C 482.5,183.8 483.0,181.7 483.7,179.5 C 483.7,179.5 484.3,177.3 485.0,175.2 C 485.0,175.2 485.7,173.0 486.3,171.0 C 486.3,171.0 487.0,169.0 487.5,167.2 C 487.5,167.2 488.0,165.3 488.3,163.5 C 488.3,163.5 488.7,161.7 488.8,160.2 C 488.8,160.2 489.0,158.7 489.0,157.2 C 489.0,157.2 489.0,155.7 489.0,154.3 C 489.0,154.3 489.0,153.0 488.8,151.5 C 488.8,151.5 488.7,150.0 488.3,148.5 C 488.3,148.5 488.0,147.0 487.3,145.7 C 487.3,145.7 486.7,144.3 485.8,143.2 C 485.8,143.2 485.0,142.0 484.0,141.0 C 484.0,141.0 483.0,140.0 482.0,139.0 C 482.0,139.0 481.0,138.0 479.8,137.0 C 479.8,137.0 478.7,136.0 477.3,135.2 C 477.3,135.2 476.0,134.3 474.5,133.5 C 474.5,133.5 473.0,132.7 471.5,132.0 C 471.5,132.0 470.0,131.3 468.3,130.5 C 468.3,130.5 466.7,129.7 465.0,129.0 C 465.0,129.0 463.3,128.3 461.7,127.7 C 461.7,127.7 460.0,127.0 458.3,126.5 C 458.3,126.5 456.7,126.0 454.8,125.5 C 454.8,125.5 453.0,125.0 451.0,124.5 C 451.0,124.5 449.0,124.0 447.2,123.7 C 447.2,123.7 445.3,123.3 443.3,123.2 C 443.3,123.2 441.3,123.0 439.3,123.0 C 439.3,123.0 437.3,123.0 435.2,123.0 C 435.2,123.0 433.0,123.0 431.0,123.0 C 431.0,123.0 429.0,123.0 426.8,123.2 C 426.8,123.2 424.7,123.3 422.5,123.7 C 422.5,123.7 420.3,124.0 418.2,124.7 C 418.2,124.7 416.0,125.3 414.0,126.2 C 414.0,126.2 412.0,127.0 410.0,128.0 C 410.0,128.0 408.0,129.0 406.0,130.0 C 406.0,130.0 404.0,131.0 402.0,132.0 C 402.0,132.0 400.0,133.0 398.0,134.2 C 398.0,134.2 396.0,135.3 394.0,136.7 C 394.0,136.7 392.0,138.0 390.2,139.5 C 390.2,139.5 388.3,141.0 386.7,142.7 C 386.7,142.7 385.0,144.3 383.5,146.0 C 383.5,146.0 382.0,147.7 380.5,149.5 C 380.5,149.5 379.0,151.3 377.5,153.2 C 377.5,153.2 376.0,155.0 374.5,157.0 C 374.5,157.0 373.0,159.0 371.5,161.0 C 371.5,161.0 370.0,163.0 368.0,165.5 L 366,168" stroke="#374151" stroke-width="8" fill="none" vector-effect="non-scaling-stroke"/><path d="M 527,121 C 528.5,123.0 530.0,125.0 531.7,126.8 C 531.7,126.8 533.3,128.7 536.7,132.5 C 536.7,132.5 540.0,136.3 543.5,140.3 C 543.5,140.3 547.0,144.3 550.7,148.5 C 550.7,148.5 554.3,152.7 558.0,157.0 C 558.0,157.0 561.7,161.3 565.5,165.5 C 565.5,165.5 569.3,169.7 573.0,174.0 C 573.0,174.0 576.7,178.3 580.5,182.7 C 580.5,182.7 584.3,187.0 588.2,191.5 C 588.2,191.5 592.0,196.0 596.2,200.5 C 596.2,200.5 600.3,205.0 604.3,209.5 C 604.3,209.5 608.3,214.0 612.5,218.5 C 612.5,218.5 616.7,223.0 620.7,227.5 C 620.7,227.5 624.7,232.0 628.8,236.5 C 628.8,236.5 633.0,241.0 637.0,245.5 C 637.0,245.5 641.0,250.0 644.7,254.3 C 644.7,254.3 648.3,258.7 651.5,262.3 C 651.5,262.3 654.7,266.0 657.0,268.8 C 657.0,268.8 659.3,271.7 661.0,273.7 C 661.0,273.7 662.7,275.7 663.8,277.2 C 663.8,277.2 665.0,278.7 666.2,280.0 C 666.2,280.0 667.3,281.3 668.3,282.7 C 668.3,282.7 669.3,284.0 670.3,285.5 C 670.3,285.5 671.3,287.0 672.0,288.7 C 672.0,288.7 672.7,290.3 673.3,292.2 C 673.3,292.2 674.0,294.0 674.3,296.2 C 674.3,296.2 674.7,298.3 674.8,300.5 C 674.8,300.5 675.0,302.7 674.8,305.0 C 674.8,305.0 674.7,307.3 674.2,309.7 C 674.2,309.7 673.7,312.0 673.0,314.3 C 673.0,314.3 672.3,316.7 671.7,318.7 C 671.7,318.7 671.0,320.7 670.3,322.2 C 670.3,322.2 669.7,323.7 668.8,325.0 C 668.8,325.0 668.0,326.3 667.0,327.5 C 667.0,327.5 666.0,328.7 665.0,329.7 C 665.0,329.7 664.0,330.7 662.8,331.3 C 662.8,331.3 661.7,332.0 660.3,332.5 C 660.3,332.5 659.0,333.0 657.5,333.5 C 657.5,333.5 656.0,334.0 654.3,334.3 C 654.3,334.3 652.7,334.7 650.8,334.7 C 650.8,334.7 649.0,334.7 647.2,334.3 C 647.2,334.3 645.3,334.0 643.7,333.2 C 643.7,333.2 642.0,332.3 640.5,331.2 C 640.5,331.2 639.0,330.0 637.5,328.3 C 637.5,328.3 636.0,326.7 634.5,325.0 C 634.5,325.0 633.0,323.3 631.5,321.3 C 631.5,321.3 630.0,319.3 628.7,317.5 C 628.7,317.5 627.3,315.7 626.0,313.5 C 626.0,313.5 624.7,311.3 623.3,309.3 C 623.3,309.3 622.0,307.3 620.5,305.0 C 620.5,305.0 619.0,302.7 617.5,300.5 C 617.5,300.5 616.0,298.3 614.5,296.3 C 614.5,296.3 613.0,294.3 611.7,292.5 C 611.7,292.5 610.3,290.7 609.2,289.2 C 609.2,289.2 608.0,287.7 607.0,286.2 C 607.0,286.2 606.0,284.7 605.0,283.5 C 605.0,283.5 604.0,282.3 603.0,281.3 C 603.0,281.3 602.0,280.3 601.0,279.5 C 601.0,279.5 600.0,278.7 598.8,278.0 C 598.8,278.0 597.7,277.3 596.3,276.7 C 596.3,276.7 595.0,276.0 593.5,275.7 C 593.5,275.7 592.0,275.3 590.5,275.2 C 590.5,275.2 589.0,275.0 587.3,275.0 C 587.3,275.0 585.7,275.0 584.0,275.0 C 584.0,275.0 582.3,275.0 580.7,275.0 C 580.7,275.0 579.0,275.0 577.5,274.8 C 577.5,274.8 576.0,274.7 574.5,274.5 C 574.5,274.5 573.0,274.3 571.7,274.0 C 571.7,274.0 570.3,273.7 569.2,273.3 C 569.2,273.3 568.0,273.0 566.8,272.3 C 566.8,272.3 565.7,271.7 564.5,271.0 C 564.5,271.0 563.3,270.3 562.2,269.3 C 562.2,269.3 561.0,268.3 560.0,267.2 C 560.0,267.2 559.0,266.0 558.0,264.5 C 558.0,264.5 557.0,263.0 556.2,261.5 C 556.2,261.5 555.3,260.0 554.5,258.2 C 554.5,258.2 553.7,256.3 553.0,254.5 C 553.0,254.5 552.3,252.7 551.7,250.5 C 551.7,250.5 551.0,248.3 550.5,246.3 C 550.5,246.3 550.0,244.3 549.5,242.5 C 549.5,242.5 549.0,240.7 548.5,239.2 C 548.5,239.2 548.0,237.7 547.5,236.3 C 547.5,236.3 547.0,235.0 546.3,233.7 C 546.3,233.7 545.7,232.3 544.8,231.0 C 544.8,231.0 544.0,229.7 543.0,228.5 C 543.0,228.5 542.0,227.3 540.8,226.2 C 540.8,226.2 539.7,225.0 538.3,224.2 C 538.3,224.2 537.0,223.3 535.7,222.7 C 535.7,222.7 534.3,222.0 532.8,221.5 C 532.8,221.5 531.3,221.0 529.8,220.5 C 529.8,220.5 528.3,220.0 526.5,219.7 C 526.5,219.7 524.7,219.3 522.8,219.2 C 522.8,219.2 521.0,219.0 519.2,219.0 C 519.2,219.0 517.3,219.0 515.5,219.0 C 515.5,219.0 513.7,219.0 511.8,219.0 C 511.8,219.0 510.0,219.0 508.2,218.8 C 508.2,218.8 506.3,218.7 504.7,218.5 C 504.7,218.5 503.0,218.3 501.5,218.0 C 501.5,218.0 500.0,217.7 498.5,217.2 C 498.5,217.2 497.0,216.7 495.7,216.0 C 495.7,216.0 494.3,215.3 493.0,214.5 C 493.0,214.5 491.7,213.7 490.5,212.7 C 490.5,212.7 489.3,211.7 488.3,210.5 C 488.3,210.5 487.3,209.3 486.5,208.0 C 486.5,208.0 485.7,206.7 485.0,205.3 C 485.0,205.3 484.3,204.0 483.7,202.3 C 483.7,202.3 483.0,200.7 482.5,199.0 C 482.5,199.0 482.0,197.3 481.7,195.5 C 481.7,195.5 481.3,193.7 481.3,191.8 C 481.3,191.8 481.3,190.0 481.7,188.0 C 481.7,188.0 482.0,186.0 482.5,183.8 C 482.5,183.8 483.0,181.7 483.7,179.5 C 483.7,179.5 484.3,177.3 485.0,175.2 C 485.0,175.2 485.7,173.0 486.3,171.0 C 486.3,171.0 487.0,169.0 487.5,167.2 C 487.5,167.2 488.0,165.3 488.3,163.5 C 488.3,163.5 488.7,161.7 488.8,160.2 C 488.8,160.2 489.0,158.7 489.0,157.2 C 489.0,157.2 489.0,155.7 489.0,154.3 C 489.0,154.3 489.0,153.0 488.8,151.5 C 488.8,151.5 488.7,150.0 488.3,148.5 C 488.3,148.5 488.0,147.0 487.3,145.7 C 487.3,145.7 486.7,144.3 485.8,143.2 C 485.8,143.2 485.0,142.0 484.0,141.0 C 484.0,141.0 483.0,140.0 482.0,139.0 C 482.0,139.0 481.0,138.0 479.8,137.0 C 479.8,137.0 478.7,136.0 477.3,135.2 C 477.3,135.2 476.0,134.3 474.5,133.5 C 474.5,133.5 473.0,132.7 471.5,132.0 C 471.5,132.0 470.0,131.3 468.3,130.5 C 468.3,130.5 466.7,129.7 465.0,129.0 C 465.0,129.0 463.3,128.3 461.7,127.7 C 461.7,127.7 460.0,127.0 458.3,126.5 C 458.3,126.5 456.7,126.0 454.8,125.5 C 454.8,125.5 453.0,125.0 451.0,124.5 C 451.0,124.5 449.0,124.0 447.2,123.7 C 447.2,123.7 445.3,123.3 443.3,123.2 C 443.3,123.2 441.3,123.0 439.3,123.0 C 439.3,123.0 437.3,123.0 435.2,123.0 C 435.2,123.0 433.0,123.0 431.0,123.0 C 431.0,123.0 429.0,123.0 426.8,123.2 C 426.8,123.2 424.7,123.3 422.5,123.7 C 422.5,123.7 420.3,124.0 418.2,124.7 C 418.2,124.7 416.0,125.3 414.0,126.2 C 414.0,126.2 412.0,127.0 410.0,128.0 C 410.0,128.0 408.0,129.0 406.0,130.0 C 406.0,130.0 404.0,131.0 402.0,132.0 C 402.0,132.0 400.0,133.0 398.0,134.2 C 398.0,134.2 396.0,135.3 394.0,136.7 C 394.0,136.7 392.0,138.0 390.2,139.5 C 390.2,139.5 388.3,141.0 386.7,142.7 C 386.7,142.7 385.0,144.3 383.5,146.0 C 383.5,146.0 382.0,147.7 380.5,149.5 C 380.5,149.5 379.0,151.3 377.5,153.2 C 377.5,153.2 376.0,155.0 374.5,157.0 C 374.5,157.0 373.0,159.0 371.5,161.0 C 371.5,161.0 370.0,163.0 368.0,165.5 L 366,168" stroke="#EF4444" stroke-width="2" fill="none" vector-effect="non-scaling-stroke"/><path d="M 366,168 C 365.2,169.0 364.5,170.0 363.8,171.0 C 363.8,171.0 363.0,172.0 361.7,173.8 C 361.7,173.8 360.3,175.7 359.2,177.2 C 359.2,177.2 358.0,178.7 357.0,179.8 C 357.0,179.8 356.0,181.0 355.2,182.0 C 355.2,182.0 354.3,183.0 353.7,183.8 C 353.7,183.8 353.0,184.7 352.5,185.5 C 352.5,185.5 352.0,186.3 351.3,187.0 C 351.3,187.0 350.7,187.7 350.0,188.2 C 350.0,188.2 349.3,188.7 348.5,189.0 C 348.5,189.0 347.7,189.3 347.0,189.7 C 347.0,189.7 346.3,190.0 345.3,190.3 C 345.3,190.3 344.3,190.7 343.3,191.0 C 343.3,191.0 342.3,191.3 340.8,191.5 C 340.8,191.5 339.3,191.7 337.8,192.0 C 337.8,192.0 336.3,192.3 334.3,192.5 C 334.3,192.5 332.3,192.7 330.2,193.0 C 330.2,193.0 328.0,193.3 325.7,193.5 C 325.7,193.5 323.3,193.7 321.2,193.8 C 321.2,193.8 319.0,194.0 317.2,194.2 C 317.2,194.2 315.3,194.3 313.7,194.5 C 313.7,194.5 312.0,194.7 310.5,194.8 C 310.5,194.8 309.0,195.0 307.5,195.2 C 307.5,195.2 306.0,195.3 304.7,195.5 C 304.7,195.5 303.3,195.7 302.2,195.7 C 302.2,195.7 301.0,195.7 300.0,195.3 C 300.0,195.3 299.0,195.0 298.0,194.3 C 298.0,194.3 297.0,193.7 296.2,192.8 C 296.2,192.8 295.3,192.0 294.7,191.0 C 294.7,191.0 294.0,190.0 293.5,189.0 C 293.5,189.0 293.0,188.0 292.7,186.8 C 292.7,186.8 292.3,185.7 291.7,182.7 C 291.7,182.7 291.0,179.7 290.3,176.2 C 290.3,176.2 289.7,172.7 288.8,169.0 C 288.8,169.0 288.0,165.3 287.5,162.8 C 287.5,162.8 287.0,160.3 286.5,157.8 C 286.5,157.8 286.0,155.3 285.3,152.7 C 285.3,152.7 284.7,150.0 284.0,147.5 C 284.0,147.5 283.3,145.0 282.7,142.3 C 282.7,142.3 282.0,139.7 281.3,136.8 C 281.3,136.8 280.7,134.0 280.0,131.0 C 280.0,131.0 279.3,128.0 278.5,125.0 C 278.5,125.0 277.7,122.0 277.0,119.2 C 277.0,119.2 276.3,116.3 275.7,113.8 C 275.7,113.8 275.0,111.3 274.7,109.3 C 274.7,109.3 274.3,107.3 274.2,105.7 C 274.2,105.7 274.0,104.0 273.8,102.7 C 273.8,102.7 273.7,101.3 273.5,100.0 C 273.5,100.0 273.3,98.7 273.2,97.3 C 273.2,97.3 273.0,96.0 273.0,94.7 C 273.0,94.7 273.0,93.3 273.2,91.8 C 273.2,91.8 273.3,90.3 273.7,88.8 C 273.7,88.8 274.0,87.3 274.5,85.5 C 274.5,85.5 275.0,83.7 275.7,82.0 C 275.7,82.0 276.3,80.3 277.0,78.8 C 277.0,78.8 277.7,77.3 278.3,76.2 C 278.3,76.2 279.0,75.0 279.5,73.8 C 279.5,73.8 280.0,72.7 280.5,71.7 C 280.5,71.7 281.0,70.7 281.5,69.7 C 281.5,69.7 282.0,68.7 282.3,67.8 C 282.3,67.8 282.7,67.0 283.0,66.0 C 283.0,66.0 283.3,65.0 283.7,64.0 C 283.7,64.0 284.0,63.0 284.3,62.0 C 284.3,62.0 284.7,61.0 285.0,60.2 C 285.0,60.2 285.3,59.3 285.3,58.5 C 285.3,58.5 285.3,57.7 285.3,57.0 C 285.3,57.0 285.3,56.3 285.0,55.5 C 285.0,55.5 284.7,54.7 284.3,54.0 C 284.3,54.0 284.0,53.3 283.3,52.7 C 283.3,52.7 282.7,52.0 282.0,51.5 C 282.0,51.5 281.3,51.0 280.5,50.7 C 280.5,50.7 279.7,50.3 278.7,50.2 C 278.7,50.2 277.7,50.0 276.5,50.2 C 276.5,50.2 275.3,50.3 274.3,50.8 C 274.3,50.8 273.3,51.3 272.7,52.3 C 272.7,52.3 272.0,53.3 271.5,54.5 C 271.5,54.5 271.0,55.7 270.3,57.0 C 270.3,57.0 269.7,58.3 268.8,59.7 C 268.8,59.7 268.0,61.0 267.0,62.7 C 267.0,62.7 266.0,64.3 264.8,66.2 C 264.8,66.2 263.7,68.0 262.3,70.2 C 262.3,70.2 261.0,72.3 259.7,74.7 C 259.7,74.7 258.3,77.0 257.0,79.5 C 257.0,79.5 255.7,82.0 254.2,84.5 C 254.2,84.5 252.7,87.0 251.0,89.3 C 251.0,89.3 249.3,91.7 247.5,94.0 C 247.5,94.0 245.7,96.3 243.8,98.3 C 243.8,98.3 242.0,100.3 240.0,102.3 C 240.0,102.3 238.0,104.3 235.8,106.0 C 235.8,106.0 233.7,107.7 231.5,109.3 C 231.5,109.3 229.3,111.0 226.8,112.3 C 226.8,112.3 224.3,113.7 221.8,114.7 C 221.8,114.7 219.3,115.7 216.5,116.3 C 216.5,116.3 213.7,117.0 210.8,117.3 C 210.8,117.3 208.0,117.7 205.2,117.8 C 205.2,117.8 202.3,118.0 199.5,118.0 C 199.5,118.0 196.7,118.0 193.8,118.0 C 193.8,118.0 191.0,118.0 188.0,117.8 C 188.0,117.8 185.0,117.7 181.8,117.3 C 181.8,117.3 178.7,117.0 175.5,116.5 C 175.5,116.5 172.3,116.0 169.2,115.3 C 169.2,115.3 166.0,114.7 163.0,113.8 C 163.0,113.8 160.0,113.0 157.0,112.0 C 157.0,112.0 154.0,111.0 151.0,109.8 C 151.0,109.8 148.0,108.7 145.0,107.3 C 145.0,107.3 142.0,106.0 139.0,104.5 C 139.0,104.5 136.0,103.0 133.0,101.3 C 133.0,101.3 130.0,99.7 127.2,97.8 C 127.2,97.8 124.3,96.0 121.7,93.8 C 121.7,93.8 119.0,91.7 116.7,89.3 C 116.7,89.3 114.3,87.0 112.2,84.5 C 112.2,84.5 110.0,82.0 108.2,79.3 C 108.2,79.3 106.3,76.7 104.5,73.8 C 104.5,73.8 102.7,71.0 101.0,68.0 C 101.0,68.0 99.3,65.0 97.8,62.0 C 97.8,62.0 96.3,59.0 95.0,56.0 C 95.0,56.0 93.7,53.0 92.5,50.2 C 92.5,50.2 91.3,47.3 90.2,44.7 C 90.2,44.7 89.0,42.0 88.0,39.8 C 88.0,39.8 87.0,37.7 86.0,35.7 C 86.0,35.7 85.0,33.7 84.2,32.0 C 84.2,32.0 83.3,30.3 82.5,28.7 C 82.5,28.7 81.7,27.0 80.8,25.7 C 80.8,25.7 80.0,24.3 78.8,23.0 C 78.8,23.0 77.7,21.7 76.5,20.7 C 76.5,20.7 75.3,19.7 74.0,18.8 C 74.0,18.8 72.7,18.0 71.3,17.5 C 71.3,17.5 70.0,17.0 68.5,16.5 C 68.5,16.5 67.0,16.0 65.3,15.7 C 65.3,15.7 63.7,15.3 62.0,15.2 C 62.0,15.2 60.3,15.0 58.5,15.0 C 58.5,15.0 56.7,15.0 54.8,15.2 C 54.8,15.2 53.0,15.3 51.0,15.7 C 51.0,15.7 49.0,16.0 47.2,16.5 C 47.2,16.5 45.3,17.0 43.5,17.5 C 43.5,17.5 41.7,18.0 40.0,18.7 C 40.0,18.7 38.3,19.3 36.7,20.2 C 36.7,20.2 35.0,21.0 33.5,22.0 C 33.5,22.0 32.0,23.0 30.8,24.2 C 30.8,24.2 29.7,25.3 28.7,26.7 C 28.7,26.7 27.7,28.0 27.0,29.7 C 27.0,29.7 26.3,31.3 25.8,33.2 C 25.8,33.2 25.3,35.0 25.3,37.0 C 25.3,37.0 25.3,39.0 25.7,41.0 C 25.7,41.0 26.0,43.0 26.7,44.8 C 26.7,44.8 27.3,46.7 28.2,48.5 C 28.2,48.5 29.0,50.3 30.3,52.2 C 30.3,52.2 31.7,54.0 33.2,55.8 C 33.2,55.8 34.7,57.7 36.5,59.3 C 36.5,59.3 38.3,61.0 40.2,62.7 C 40.2,62.7 42.0,64.3 44.0,65.8 C 44.0,65.8 46.0,67.3 48.2,69.0 C 48.2,69.0 50.3,70.7 52.7,72.2 C 52.7,72.2 55.0,73.7 57.5,75.3 C 57.5,75.3 60.0,77.0 62.5,78.7 C 62.5,78.7 65.0,80.3 67.5,82.0 C 67.5,82.0 70.0,83.7 72.7,85.5 C 72.7,85.5 75.3,87.3 78.3,89.2 C 78.3,89.2 81.3,91.0 84.7,93.0 C 84.7,93.0 88.0,95.0 91.7,97.0 C 91.7,97.0 95.3,99.0 99.2,101.0 C 99.2,101.0 103.0,103.0 107.2,105.0 C 107.2,105.0 111.3,107.0 115.7,109.0 C 115.7,109.0 120.0,111.0 124.7,113.0 C 124.7,113.0 129.3,115.0 134.2,116.8 C 134.2,116.8 139.0,118.7 144.2,120.3 C 144.2,120.3 149.3,122.0 154.5,123.7 C 154.5,123.7 159.7,125.3 165.0,127.0 C 165.0,127.0 170.3,128.7 175.5,130.3 C 175.5,130.3 180.7,132.0 185.8,133.7 C 185.8,133.7 191.0,135.3 196.3,137.0 C 196.3,137.0 201.7,138.7 207.0,140.3 C 207.0,140.3 212.3,142.0 221.7,145.0 L 231,148" stroke="#374151" stroke-width="8" fill="none" vector-effect="non-scaling-stroke"/><path d="M 366,168 C 365.2,169.0 364.5,170.0 363.8,171.0 C 363.8,171.0 363.0,172.0 361.7,173.8 C 361.7,173.8 360.3,175.7 359.2,177.2 C 359.2,177.2 358.0,178.7 357.0,179.8 C 357.0,179.8 356.0,181.0 355.2,182.0 C 355.2,182.0 354.3,183.0 353.7,183.8 C 353.7,183.8 353.0,184.7 352.5,185.5 C 352.5,185.5 352.0,186.3 351.3,187.0 C 351.3,187.0 350.7,187.7 350.0,188.2 C 350.0,188.2 349.3,188.7 348.5,189.0 C 348.5,189.0 347.7,189.3 347.0,189.7 C 347.0,189.7 346.3,190.0 345.3,190.3 C 345.3,190.3 344.3,190.7 343.3,191.0 C 343.3,191.0 342.3,191.3 340.8,191.5 C 340.8,191.5 339.3,191.7 337.8,192.0 C 337.8,192.0 336.3,192.3 334.3,192.5 C 334.3,192.5 332.3,192.7 330.2,193.0 C 330.2,193.0 328.0,193.3 325.7,193.5 C 325.7,193.5 323.3,193.7 321.2,193.8 C 321.2,193.8 319.0,194.0 317.2,194.2 C 317.2,194.2 315.3,194.3 313.7,194.5 C 313.7,194.5 312.0,194.7 310.5,194.8 C 310.5,194.8 309.0,195.0 307.5,195.2 C 307.5,195.2 306.0,195.3 304.7,195.5 C 304.7,195.5 303.3,195.7 302.2,195.7 C 302.2,195.7 301.0,195.7 300.0,195.3 C 300.0,195.3 299.0,195.0 298.0,194.3 C 298.0,194.3 297.0,193.7 296.2,192.8 C 296.2,192.8 295.3,192.0 294.7,191.0 C 294.7,191.0 294.0,190.0 293.5,189.0 C 293.5,189.0 293.0,188.0 292.7,186.8 C 292.7,186.8 292.3,185.7 291.7,182.7 C 291.7,182.7 291.0,179.7 290.3,176.2 C 290.3,176.2 289.7,172.7 288.8,169.0 C 288.8,169.0 288.0,165.3 287.5,162.8 C 287.5,162.8 287.0,160.3 286.5,157.8 C 286.5,157.8 286.0,155.3 285.3,152.7 C 285.3,152.7 284.7,150.0 284.0,147.5 C 284.0,147.5 283.3,145.0 282.7,142.3 C 282.7,142.3 282.0,139.7 281.3,136.8 C 281.3,136.8 280.7,134.0 280.0,131.0 C 280.0,131.0 279.3,128.0 278.5,125.0 C 278.5,125.0 277.7,122.0 277.0,119.2 C 277.0,119.2 276.3,116.3 275.7,113.8 C 275.7,113.8 275.0,111.3 274.7,109.3 C 274.7,109.3 274.3,107.3 274.2,105.7 C 274.2,105.7 274.0,104.0 273.8,102.7 C 273.8,102.7 273.7,101.3 273.5,100.0 C 273.5,100.0 273.3,98.7 273.2,97.3 C 273.2,97.3 273.0,96.0 273.0,94.7 C 273.0,94.7 273.0,93.3 273.2,91.8 C 273.2,91.8 273.3,90.3 273.7,88.8 C 273.7,88.8 274.0,87.3 274.5,85.5 C 274.5,85.5 275.0,83.7 275.7,82.0 C 275.7,82.0 276.3,80.3 277.0,78.8 C 277.0,78.8 277.7,77.3 278.3,76.2 C 278.3,76.2 279.0,75.0 279.5,73.8 C 279.5,73.8 280.0,72.7 280.5,71.7 C 280.5,71.7 281.0,70.7 281.5,69.7 C 281.5,69.7 282.0,68.7 282.3,67.8 C 282.3,67.8 282.7,67.0 283.0,66.0 C 283.0,66.0 283.3,65.0 283.7,64.0 C 283.7,64.0 284.0,63.0 284.3,62.0 C 284.3,62.0 284.7,61.0 285.0,60.2 C 285.0,60.2 285.3,59.3 285.3,58.5 C 285.3,58.5 285.3,57.7 285.3,57.0 C 285.3,57.0 285.3,56.3 285.0,55.5 C 285.0,55.5 284.7,54.7 284.3,54.0 C 284.3,54.0 284.0,53.3 283.3,52.7 C 283.3,52.7 282.7,52.0 282.0,51.5 C 282.0,51.5 281.3,51.0 280.5,50.7 C 280.5,50.7 279.7,50.3 278.7,50.2 C 278.7,50.2 277.7,50.0 276.5,50.2 C 276.5,50.2 275.3,50.3 274.3,50.8 C 274.3,50.8 273.3,51.3 272.7,52.3 C 272.7,52.3 272.0,53.3 271.5,54.5 C 271.5,54.5 271.0,55.7 270.3,57.0 C 270.3,57.0 269.7,58.3 268.8,59.7 C 268.8,59.7 268.0,61.0 267.0,62.7 C 267.0,62.7 266.0,64.3 264.8,66.2 C 264.8,66.2 263.7,68.0 262.3,70.2 C 262.3,70.2 261.0,72.3 259.7,74.7 C 259.7,74.7 258.3,77.0 257.0,79.5 C 257.0,79.5 255.7,82.0 254.2,84.5 C 254.2,84.5 252.7,87.0 251.0,89.3 C 251.0,89.3 249.3,91.7 247.5,94.0 C 247.5,94.0 245.7,96.3 243.8,98.3 C 243.8,98.3 242.0,100.3 240.0,102.3 C 240.0,102.3 238.0,104.3 235.8,106.0 C 235.8,106.0 233.7,107.7 231.5,109.3 C 231.5,109.3 229.3,111.0 226.8,112.3 C 226.8,112.3 224.3,113.7 221.8,114.7 C 221.8,114.7 219.3,115.7 216.5,116.3 C 216.5,116.3 213.7,117.0 210.8,117.3 C 210.8,117.3 208.0,117.7 205.2,117.8 C 205.2,117.8 202.3,118.0 199.5,118.0 C 199.5,118.0 196.7,118.0 193.8,118.0 C 193.8,118.0 191.0,118.0 188.0,117.8 C 188.0,117.8 185.0,117.7 181.8,117.3 C 181.8,117.3 178.7,117.0 175.5,116.5 C 175.5,116.5 172.3,116.0 169.2,115.3 C 169.2,115.3 166.0,114.7 163.0,113.8 C 163.0,113.8 160.0,113.0 157.0,112.0 C 157.0,112.0 154.0,111.0 151.0,109.8 C 151.0,109.8 148.0,108.7 145.0,107.3 C 145.0,107.3 142.0,106.0 139.0,104.5 C 139.0,104.5 136.0,103.0 133.0,101.3 C 133.0,101.3 130.0,99.7 127.2,97.8 C 127.2,97.8 124.3,96.0 121.7,93.8 C 121.7,93.8 119.0,91.7 116.7,89.3 C 116.7,89.3 114.3,87.0 112.2,84.5 C 112.2,84.5 110.0,82.0 108.2,79.3 C 108.2,79.3 106.3,76.7 104.5,73.8 C 104.5,73.8 102.7,71.0 101.0,68.0 C 101.0,68.0 99.3,65.0 97.8,62.0 C 97.8,62.0 96.3,59.0 95.0,56.0 C 95.0,56.0 93.7,53.0 92.5,50.2 C 92.5,50.2 91.3,47.3 90.2,44.7 C 90.2,44.7 89.0,42.0 88.0,39.8 C 88.0,39.8 87.0,37.7 86.0,35.7 C 86.0,35.7 85.0,33.7 84.2,32.0 C 84.2,32.0 83.3,30.3 82.5,28.7 C 82.5,28.7 81.7,27.0 80.8,25.7 C 80.8,25.7 80.0,24.3 78.8,23.0 C 78.8,23.0 77.7,21.7 76.5,20.7 C 76.5,20.7 75.3,19.7 74.0,18.8 C 74.0,18.8 72.7,18.0 71.3,17.5 C 71.3,17.5 70.0,17.0 68.5,16.5 C 68.5,16.5 67.0,16.0 65.3,15.7 C 65.3,15.7 63.7,15.3 62.0,15.2 C 62.0,15.2 60.3,15.0 58.5,15.0 C 58.5,15.0 56.7,15.0 54.8,15.2 C 54.8,15.2 53.0,15.3 51.0,15.7 C 51.0,15.7 49.0,16.0 47.2,16.5 C 47.2,16.5 45.3,17.0 43.5,17.5 C 43.5,17.5 41.7,18.0 40.0,18.7 C 40.0,18.7 38.3,19.3 36.7,20.2 C 36.7,20.2 35.0,21.0 33.5,22.0 C 33.5,22.0 32.0,23.0 30.8,24.2 C 30.8,24.2 29.7,25.3 28.7,26.7 C 28.7,26.7 27.7,28.0 27.0,29.7 C 27.0,29.7 26.3,31.3 25.8,33.2 C 25.8,33.2 25.3,35.0 25.3,37.0 C 25.3,37.0 25.3,39.0 25.7,41.0 C 25.7,41.0 26.0,43.0 26.7,44.8 C 26.7,44.8 27.3,46.7 28.2,48.5 C 28.2,48.5 29.0,50.3 30.3,52.2 C 30.3,52.2 31.7,54.0 33.2,55.8 C 33.2,55.8 34.7,57.7 36.5,59.3 C 36.5,59.3 38.3,61.0 40.2,62.7 C 40.2,62.7 42.0,64.3 44.0,65.8 C 44.0,65.8 46.0,67.3 48.2,69.0 C 48.2,69.0 50.3,70.7 52.7,72.2 C 52.7,72.2 55.0,73.7 57.5,75.3 C 57.5,75.3 60.0,77.0 62.5,78.7 C 62.5,78.7 65.0,80.3 67.5,82.0 C 67.5,82.0 70.0,83.7 72.7,85.5 C 72.7,85.5 75.3,87.3 78.3,89.2 C 78.3,89.2 81.3,91.0 84.7,93.0 C 84.7,93.0 88.0,95.0 91.7,97.0 C 91.7,97.0 95.3,99.0 99.2,101.0 C 99.2,101.0 103.0,103.0 107.2,105.0 C 107.2,105.0 111.3,107.0 115.7,109.0 C 115.7,109.0 120.0,111.0 124.7,113.0 C 124.7,113.0 129.3,115.0 134.2,116.8 C 134.2,116.8 139.0,118.7 144.2,120.3 C 144.2,120.3 149.3,122.0 154.5,123.7 C 154.5,123.7 159.7,125.3 165.0,127.0 C 165.0,127.0 170.3,128.7 175.5,130.3 C 175.5,130.3 180.7,132.0 185.8,133.7 C 185.8,133.7 191.0,135.3 196.3,137.0 C 196.3,137.0 201.7,138.7 207.0,140.3 C 207.0,140.3 212.3,142.0 221.7,145.0 L 231,148" stroke="#3B82F6" stroke-width="2" fill="none" vector-effect="non-scaling-stroke"/><path d="M 231,148 C 233.8,148.8 236.5,149.5 239.2,150.2 C 239.2,150.2 242.0,151.0 247.5,152.7 C 247.5,152.7 253.0,154.3 258.5,156.0 C 258.5,156.0 264.0,157.7 269.2,159.3 C 269.2,159.3 274.3,161.0 278.8,162.5 C 278.8,162.5 283.3,164.0 287.0,165.2 C 287.0,165.2 290.7,166.3 293.5,167.2 C 293.5,167.2 296.3,168.0 298.5,168.3 C 298.5,168.3 300.7,168.7 302.3,168.8 C 302.3,168.8 304.0,169.0 305.7,169.0 C 305.7,169.0 307.3,169.0 309.0,168.8 C 309.0,168.8 310.7,168.7 312.5,168.2 C 312.5,168.2 314.3,167.7 316.0,167.0 C 316.0,167.0 317.7,166.3 319.5,165.7 C 319.5,165.7 321.3,165.0 323.0,164.3 C 323.0,164.3 324.7,163.7 326.5,162.8 C 326.5,162.8 328.3,162.0 330.0,161.0 C 330.0,161.0 331.7,160.0 333.5,159.0 C 333.5,159.0 335.3,158.0 337.2,157.0 C 337.2,157.0 339.0,156.0 341.0,154.8 C 341.0,154.8 343.0,153.7 345.0,152.3 C 345.0,152.3 347.0,151.0 349.0,149.5 C 349.0,149.5 351.0,148.0 352.8,146.5 C 352.8,146.5 354.7,145.0 356.5,143.3 C 356.5,143.3 358.3,141.7 360.2,140.0 C 360.2,140.0 362.0,138.3 363.8,136.5 C 363.8,136.5 365.7,134.7 367.5,133.0 C 367.5,133.0 369.3,131.3 371.0,129.5 C 371.0,129.5 372.7,127.7 374.5,126.2 C 374.5,126.2 376.3,124.7 377.8,123.2 C 377.8,123.2 379.3,121.7 380.8,120.3 C 380.8,120.3 382.3,119.0 383.7,117.5 C 383.7,117.5 385.0,116.0 386.5,114.7 C 386.5,114.7 388.0,113.3 389.5,112.0 C 389.5,112.0 391.0,110.7 392.3,109.5 C 392.3,109.5 393.7,108.3 394.8,107.2 C 394.8,107.2 396.0,106.0 397.0,105.0 C 397.0,105.0 398.0,104.0 399.0,103.2 C 399.0,103.2 400.0,102.3 401.0,101.5 C 401.0,101.5 402.0,100.7 403.0,100.0 C 403.0,100.0 404.0,99.3 404.8,98.7 C 404.8,98.7 405.7,98.0 406.3,97.5 C 406.3,97.5 407.0,97.0 407.5,96.5 C 407.5,96.5 408.0,96.0 408.7,95.5 C 408.7,95.5 409.3,95.0 409.8,94.5 C 409.8,94.5 410.3,94.0 411.0,93.7 C 411.0,93.7 411.7,93.3 412.2,93.2 C 412.2,93.2 412.7,93.0 413.3,93.0 C 413.3,93.0 414.0,93.0 414.5,93.0 C 414.5,93.0 415.0,93.0 415.5,93.2 C 415.5,93.2 416.0,93.3 416.7,93.7 C 416.7,93.7 417.3,94.0 418.0,94.5 C 418.0,94.5 418.7,95.0 419.3,95.5 C 419.3,95.5 420.0,96.0 420.7,96.7 C 420.7,96.7 421.3,97.3 422.2,98.0 C 422.2,98.0 423.0,98.7 424.0,99.3 C 424.0,99.3 425.0,100.0 426.0,100.3 C 426.0,100.3 427.0,100.7 428.0,100.8 C 428.0,100.8 429.0,101.0 430.0,100.8 C 430.0,100.8 431.0,100.7 432.0,100.2 C 432.0,100.2 433.0,99.7 434.2,98.8 C 434.2,98.8 435.3,98.0 436.7,97.0 C 436.7,97.0 438.0,96.0 439.5,94.8 C 439.5,94.8 441.0,93.7 442.5,92.5 C 442.5,92.5 444.0,91.3 445.7,90.2 C 445.7,90.2 447.3,89.0 449.3,88.2 C 449.3,88.2 451.3,87.3 453.5,86.5 C 453.5,86.5 455.7,85.7 458.0,85.2 C 458.0,85.2 460.3,84.7 462.7,84.3 C 462.7,84.3 465.0,84.0 467.5,84.2 C 467.5,84.2 470.0,84.3 472.5,84.7 C 472.5,84.7 475.0,85.0 477.5,85.7 C 477.5,85.7 480.0,86.3 482.5,87.3 C 482.5,87.3 485.0,88.3 487.5,89.7 C 487.5,89.7 490.0,91.0 492.7,92.5 C 492.7,92.5 495.3,94.0 498.0,95.7 C 498.0,95.7 500.7,97.3 503.3,99.2 C 503.3,99.2 506.0,101.0 508.5,103.2 C 508.5,103.2 511.0,105.3 513.5,107.7 C 513.5,107.7 516.0,110.0 521.5,115.5 L 527,121" stroke="#374151" stroke-width="8" fill="none" vector-effect="non-scaling-stroke"/><path d="M 231,148 C 233.8,148.8 236.5,149.5 239.2,150.2 C 239.2,150.2 242.0,151.0 247.5,152.7 C 247.5,152.7 253.0,154.3 258.5,156.0 C 258.5,156.0 264.0,157.7 269.2,159.3 C 269.2,159.3 274.3,161.0 278.8,162.5 C 278.8,162.5 283.3,164.0 287.0,165.2 C 287.0,165.2 290.7,166.3 293.5,167.2 C 293.5,167.2 296.3,168.0 298.5,168.3 C 298.5,168.3 300.7,168.7 302.3,168.8 C 302.3,168.8 304.0,169.0 305.7,169.0 C 305.7,169.0 307.3,169.0 309.0,168.8 C 309.0,168.8 310.7,168.7 312.5,168.2 C 312.5,168.2 314.3,167.7 316.0,167.0 C 316.0,167.0 317.7,166.3 319.5,165.7 C 319.5,165.7 321.3,165.0 323.0,164.3 C 323.0,164.3 324.7,163.7 326.5,162.8 C 326.5,162.8 328.3,162.0 330.0,161.0 C 330.0,161.0 331.7,160.0 333.5,159.0 C 333.5,159.0 335.3,158.0 337.2,157.0 C 337.2,157.0 339.0,156.0 341.0,154.8 C 341.0,154.8 343.0,153.7 345.0,152.3 C 345.0,152.3 347.0,151.0 349.0,149.5 C 349.0,149.5 351.0,148.0 352.8,146.5 C 352.8,146.5 354.7,145.0 356.5,143.3 C 356.5,143.3 358.3,141.7 360.2,140.0 C 360.2,140.0 362.0,138.3 363.8,136.5 C 363.8,136.5 365.7,134.7 367.5,133.0 C 367.5,133.0 369.3,131.3 371.0,129.5 C 371.0,129.5 372.7,127.7 374.5,126.2 C 374.5,126.2 376.3,124.7 377.8,123.2 C 377.8,123.2 379.3,121.7 380.8,120.3 C 380.8,120.3 382.3,119.0 383.7,117.5 C 383.7,117.5 385.0,116.0 386.5,114.7 C 386.5,114.7 388.0,113.3 389.5,112.0 C 389.5,112.0 391.0,110.7 392.3,109.5 C 392.3,109.5 393.7,108.3 394.8,107.2 C 394.8,107.2 396.0,106.0 397.0,105.0 C 397.0,105.0 398.0,104.0 399.0,103.2 C 399.0,103.2 400.0,102.3 401.0,101.5 C 401.0,101.5 402.0,100.7 403.0,100.0 C 403.0,100.0 404.0,99.3 404.8,98.7 C 404.8,98.7 405.7,98.0 406.3,97.5 C 406.3,97.5 407.0,97.0 407.5,96.5 C 407.5,96.5 408.0,96.0 408.7,95.5 C 408.7,95.5 409.3,95.0 409.8,94.5 C 409.8,94.5 410.3,94.0 411.0,93.7 C 411.0,93.7 411.7,93.3 412.2,93.2 C 412.2,93.2 412.7,93.0 413.3,93.0 C 413.3,93.0 414.0,93.0 414.5,93.0 C 414.5,93.0 415.0,93.0 415.5,93.2 C 415.5,93.2 416.0,93.3 416.7,93.7 C 416.7,93.7 417.3,94.0 418.0,94.5 C 418.0,94.5 418.7,95.0 419.3,95.5 C 419.3,95.5 420.0,96.0 420.7,96.7 C 420.7,96.7 421.3,97.3 422.2,98.0 C 422.2,98.0 423.0,98.7 424.0,99.3 C 424.0,99.3 425.0,100.0 426.0,100.3 C 426.0,100.3 427.0,100.7 428.0,100.8 C 428.0,100.8 429.0,101.0 430.0,100.8 C 430.0,100.8 431.0,100.7 432.0,100.2 C 432.0,100.2 433.0,99.7 434.2,98.8 C 434.2,98.8 435.3,98.0 436.7,97.0 C 436.7,97.0 438.0,96.0 439.5,94.8 C 439.5,94.8 441.0,93.7 442.5,92.5 C 442.5,92.5 444.0,91.3 445.7,90.2 C 445.7,90.2 447.3,89.0 449.3,88.2 C 449.3,88.2 451.3,87.3 453.5,86.5 C 453.5,86.5 455.7,85.7 458.0,85.2 C 458.0,85.2 460.3,84.7 462.7,84.3 C 462.7,84.3 465.0,84.0 467.5,84.2 C 467.5,84.2 470.0,84.3 472.5,84.7 C 472.5,84.7 475.0,85.0 477.5,85.7 C 477.5,85.7 480.0,86.3 482.5,87.3 C 482.5,87.3 485.0,88.3 487.5,89.7 C 487.5,89.7 490.0,91.0 492.7,92.5 C 492.7,92.5 495.3,94.0 498.0,95.7 C 498.0,95.7 500.7,97.3 503.3,99.2 C 503.3,99.2 506.0,101.0 508.5,103.2 C 508.5,103.2 511.0,105.3 513.5,107.7 C 513.5,107.7 516.0,110.0 521.5,115.5 L 527,121" stroke="#FBBF24" stroke-width="2" fill="none" vector-effect="non-scaling-stroke"/>
    <g id="moving-circle-group">
        <circle cx="527" cy="121" r="20" fill="#000000" vector-effect="non-scaling-stroke"/>
        <circle cx="527" cy="121" r="7" fill="#FFFFFF" vector-effect="non-scaling-stroke"/>
    </g></svg>