<svg id="minimap-svg" width="100%" height="100%" viewBox="0 0 424 700" xmlns="http://www.w3.org/2000/svg"><path d="M 336,648 C 337.2,646.8 338.5,645.5 339.8,644.1 C 339.8,644.1 341.0,642.7 343.7,639.7 C 343.7,639.7 346.3,636.7 349.2,633.3 C 349.2,633.3 352.0,630.0 355.2,626.5 C 355.2,626.5 358.3,623.0 361.7,619.3 C 361.7,619.3 365.0,615.7 368.5,611.8 C 368.5,611.8 372.0,608.0 375.2,604.3 C 375.2,604.3 378.3,600.7 381.2,597.5 C 381.2,597.5 384.0,594.3 386.2,592.0 C 386.2,592.0 388.3,589.7 390.2,587.7 C 390.2,587.7 392.0,585.7 393.3,584.2 C 393.3,584.2 394.7,582.7 395.8,581.3 C 395.8,581.3 397.0,580.0 397.8,579.0 C 397.8,579.0 398.7,578.0 399.3,577.0 C 399.3,577.0 400.0,576.0 400.3,574.8 C 400.3,574.8 400.7,573.7 400.8,572.5 C 400.8,572.5 401.0,571.3 400.8,570.0 C 400.8,570.0 400.7,568.7 400.3,567.3 C 400.3,567.3 400.0,566.0 399.3,564.5 C 399.3,564.5 398.7,563.0 397.7,561.7 C 397.7,561.7 396.7,560.3 395.2,559.2 C 395.2,559.2 393.7,558.0 392.0,557.2 C 392.0,557.2 390.3,556.3 388.5,555.8 C 388.5,555.8 386.7,555.3 384.8,555.2 C 384.8,555.2 383.0,555.0 381.0,555.2 C 381.0,555.2 379.0,555.3 377.0,555.7 C 377.0,555.7 375.0,556.0 373.0,556.7 C 373.0,556.7 371.0,557.3 369.0,558.2 C 369.0,558.2 367.0,559.0 365.0,560.2 C 365.0,560.2 363.0,561.3 361.0,562.7 C 361.0,562.7 359.0,564.0 357.0,565.7 C 357.0,565.7 355.0,567.3 353.2,569.0 C 353.2,569.0 351.3,570.7 349.7,572.3 C 349.7,572.3 348.0,574.0 346.5,575.5 C 346.5,575.5 345.0,577.0 343.5,578.3 C 343.5,578.3 342.0,579.7 340.5,580.7 C 340.5,580.7 339.0,581.7 337.3,582.2 C 337.3,582.2 335.7,582.7 334.0,582.8 C 334.0,582.8 332.3,583.0 330.5,583.0 C 330.5,583.0 328.7,583.0 326.8,582.8 C 326.8,582.8 325.0,582.7 323.0,582.3 C 323.0,582.3 321.0,582.0 319.0,581.3 C 319.0,581.3 317.0,580.7 314.8,579.7 C 314.8,579.7 312.7,578.7 310.7,577.3 C 310.7,577.3 308.7,576.0 306.7,574.5 C 306.7,574.5 304.7,573.0 303.0,571.2 C 303.0,571.2 301.3,569.3 299.8,567.2 C 299.8,567.2 298.3,565.0 297.2,562.5 C 297.2,562.5 296.0,560.0 295.2,557.5 C 295.2,557.5 294.3,555.0 293.8,552.3 C 293.8,552.3 293.3,549.7 293.0,546.8 C 293.0,546.8 292.7,544.0 292.5,540.8 C 292.5,540.8 292.3,537.7 292.2,534.2 C 292.2,534.2 292.0,530.7 292.0,526.7 C 292.0,526.7 292.0,522.7 292.0,518.3 C 292.0,518.3 292.0,514.0 292.2,509.5 C 292.2,509.5 292.3,505.0 292.3,500.3 C 292.3,500.3 292.3,495.7 292.3,490.7 C 292.3,490.7 292.3,485.7 292.0,480.3 C 292.0,480.3 291.7,475.0 291.5,469.3 C 291.5,469.3 291.3,463.7 291.0,458.0 C 291.0,458.0 290.7,452.3 290.5,446.5 C 290.5,446.5 290.3,440.7 290.0,434.8 C 290.0,434.8 289.7,429.0 289.5,423.0 C 289.5,423.0 289.3,417.0 289.2,410.8 C 289.2,410.8 289.0,404.7 288.8,398.3 C 288.8,398.3 288.7,392.0 288.5,385.5 C 288.5,385.5 288.3,379.0 288.2,372.5 C 288.2,372.5 288.0,366.0 288.0,359.3 C 288.0,359.3 288.0,352.7 287.8,346.0 C 287.8,346.0 287.7,339.3 287.5,332.8 C 287.5,332.8 287.3,326.3 287.2,320.7 C 287.2,320.7 287.0,315.0 287.0,310.5 C 287.0,310.5 287.0,306.0 287.0,302.3 C 287.0,302.3 287.0,298.7 287.0,295.7 C 287.0,295.7 287.0,292.7 287.0,290.2 C 287.0,290.2 287.0,287.7 287.0,285.8 C 287.0,285.8 287.0,284.0 287.0,282.5 C 287.0,282.5 287.0,281.0 287.0,279.7 C 287.0,279.7 287.0,278.3 287.0,277.2 C 287.0,277.2 287.0,276.0 287.0,275.0 C 287.0,275.0 287.0,274.0 287.2,273.0 C 287.2,273.0 287.3,272.0 287.7,271.2 C 287.7,271.2 288.0,270.3 288.5,269.5 C 288.5,269.5 289.0,268.7 289.7,268.0 C 289.7,268.0 290.3,267.3 291.2,266.7 C 291.2,266.7 292.0,266.0 293.2,265.5 C 293.2,265.5 294.3,265.0 295.7,264.7 C 295.7,264.7 297.0,264.3 298.8,264.2 C 298.8,264.2 300.7,264.0 302.8,264.0 C 302.8,264.0 305.0,264.0 307.7,264.0 C 307.7,264.0 310.3,264.0 313.3,264.0 C 313.3,264.0 316.3,264.0 322.7,264.0 L 329,264" stroke="#374151" stroke-width="8" fill="none" vector-effect="non-scaling-stroke"/><path d="M 336,648 C 337.2,646.8 338.5,645.5 339.8,644.1 C 339.8,644.1 341.0,642.7 343.7,639.7 C 343.7,639.7 346.3,636.7 349.2,633.3 C 349.2,633.3 352.0,630.0 355.2,626.5 C 355.2,626.5 358.3,623.0 361.7,619.3 C 361.7,619.3 365.0,615.7 368.5,611.8 C 368.5,611.8 372.0,608.0 375.2,604.3 C 375.2,604.3 378.3,600.7 381.2,597.5 C 381.2,597.5 384.0,594.3 386.2,592.0 C 386.2,592.0 388.3,589.7 390.2,587.7 C 390.2,587.7 392.0,585.7 393.3,584.2 C 393.3,584.2 394.7,582.7 395.8,581.3 C 395.8,581.3 397.0,580.0 397.8,579.0 C 397.8,579.0 398.7,578.0 399.3,577.0 C 399.3,577.0 400.0,576.0 400.3,574.8 C 400.3,574.8 400.7,573.7 400.8,572.5 C 400.8,572.5 401.0,571.3 400.8,570.0 C 400.8,570.0 400.7,568.7 400.3,567.3 C 400.3,567.3 400.0,566.0 399.3,564.5 C 399.3,564.5 398.7,563.0 397.7,561.7 C 397.7,561.7 396.7,560.3 395.2,559.2 C 395.2,559.2 393.7,558.0 392.0,557.2 C 392.0,557.2 390.3,556.3 388.5,555.8 C 388.5,555.8 386.7,555.3 384.8,555.2 C 384.8,555.2 383.0,555.0 381.0,555.2 C 381.0,555.2 379.0,555.3 377.0,555.7 C 377.0,555.7 375.0,556.0 373.0,556.7 C 373.0,556.7 371.0,557.3 369.0,558.2 C 369.0,558.2 367.0,559.0 365.0,560.2 C 365.0,560.2 363.0,561.3 361.0,562.7 C 361.0,562.7 359.0,564.0 357.0,565.7 C 357.0,565.7 355.0,567.3 353.2,569.0 C 353.2,569.0 351.3,570.7 349.7,572.3 C 349.7,572.3 348.0,574.0 346.5,575.5 C 346.5,575.5 345.0,577.0 343.5,578.3 C 343.5,578.3 342.0,579.7 340.5,580.7 C 340.5,580.7 339.0,581.7 337.3,582.2 C 337.3,582.2 335.7,582.7 334.0,582.8 C 334.0,582.8 332.3,583.0 330.5,583.0 C 330.5,583.0 328.7,583.0 326.8,582.8 C 326.8,582.8 325.0,582.7 323.0,582.3 C 323.0,582.3 321.0,582.0 319.0,581.3 C 319.0,581.3 317.0,580.7 314.8,579.7 C 314.8,579.7 312.7,578.7 310.7,577.3 C 310.7,577.3 308.7,576.0 306.7,574.5 C 306.7,574.5 304.7,573.0 303.0,571.2 C 303.0,571.2 301.3,569.3 299.8,567.2 C 299.8,567.2 298.3,565.0 297.2,562.5 C 297.2,562.5 296.0,560.0 295.2,557.5 C 295.2,557.5 294.3,555.0 293.8,552.3 C 293.8,552.3 293.3,549.7 293.0,546.8 C 293.0,546.8 292.7,544.0 292.5,540.8 C 292.5,540.8 292.3,537.7 292.2,534.2 C 292.2,534.2 292.0,530.7 292.0,526.7 C 292.0,526.7 292.0,522.7 292.0,518.3 C 292.0,518.3 292.0,514.0 292.2,509.5 C 292.2,509.5 292.3,505.0 292.3,500.3 C 292.3,500.3 292.3,495.7 292.3,490.7 C 292.3,490.7 292.3,485.7 292.0,480.3 C 292.0,480.3 291.7,475.0 291.5,469.3 C 291.5,469.3 291.3,463.7 291.0,458.0 C 291.0,458.0 290.7,452.3 290.5,446.5 C 290.5,446.5 290.3,440.7 290.0,434.8 C 290.0,434.8 289.7,429.0 289.5,423.0 C 289.5,423.0 289.3,417.0 289.2,410.8 C 289.2,410.8 289.0,404.7 288.8,398.3 C 288.8,398.3 288.7,392.0 288.5,385.5 C 288.5,385.5 288.3,379.0 288.2,372.5 C 288.2,372.5 288.0,366.0 288.0,359.3 C 288.0,359.3 288.0,352.7 287.8,346.0 C 287.8,346.0 287.7,339.3 287.5,332.8 C 287.5,332.8 287.3,326.3 287.2,320.7 C 287.2,320.7 287.0,315.0 287.0,310.5 C 287.0,310.5 287.0,306.0 287.0,302.3 C 287.0,302.3 287.0,298.7 287.0,295.7 C 287.0,295.7 287.0,292.7 287.0,290.2 C 287.0,290.2 287.0,287.7 287.0,285.8 C 287.0,285.8 287.0,284.0 287.0,282.5 C 287.0,282.5 287.0,281.0 287.0,279.7 C 287.0,279.7 287.0,278.3 287.0,277.2 C 287.0,277.2 287.0,276.0 287.0,275.0 C 287.0,275.0 287.0,274.0 287.2,273.0 C 287.2,273.0 287.3,272.0 287.7,271.2 C 287.7,271.2 288.0,270.3 288.5,269.5 C 288.5,269.5 289.0,268.7 289.7,268.0 C 289.7,268.0 290.3,267.3 291.2,266.7 C 291.2,266.7 292.0,266.0 293.2,265.5 C 293.2,265.5 294.3,265.0 295.7,264.7 C 295.7,264.7 297.0,264.3 298.8,264.2 C 298.8,264.2 300.7,264.0 302.8,264.0 C 302.8,264.0 305.0,264.0 307.7,264.0 C 307.7,264.0 310.3,264.0 313.3,264.0 C 313.3,264.0 316.3,264.0 322.7,264.0 L 329,264" stroke="#EF4444" stroke-width="2" fill="none" vector-effect="non-scaling-stroke"/><path d="M 329,264 C 331.0,264.0 333.0,264.0 335.2,264.0 C 335.2,264.0 337.3,264.0 341.7,264.0 C 341.7,264.0 346.0,264.0 350.3,263.7 C 350.3,263.7 354.7,263.3 358.8,262.5 C 358.8,262.5 363.0,261.7 366.8,260.3 C 366.8,260.3 370.7,259.0 374.3,257.2 C 374.3,257.2 378.0,255.3 381.3,253.2 C 381.3,253.2 384.7,251.0 387.7,248.2 C 387.7,248.2 390.7,245.3 393.2,242.2 C 393.2,242.2 395.7,239.0 397.7,235.5 C 397.7,235.5 399.7,232.0 401.2,228.7 C 401.2,228.7 402.7,225.3 403.7,222.5 C 403.7,222.5 404.7,219.7 405.3,217.5 C 405.3,217.5 406.0,215.3 406.3,213.7 C 406.3,213.7 406.7,212.0 406.8,210.5 C 406.8,210.5 407.0,209.0 407.0,207.5 C 407.0,207.5 407.0,206.0 407.0,204.7 C 407.0,204.7 407.0,203.3 406.8,202.2 C 406.8,202.2 406.7,201.0 406.3,200.2 C 406.3,200.2 406.0,199.3 405.5,198.5 C 405.5,198.5 405.0,197.7 404.5,197.0 C 404.5,197.0 404.0,196.3 403.3,195.8 C 403.3,195.8 402.7,195.3 402.0,195.2 C 402.0,195.2 401.3,195.0 400.7,195.0 C 400.7,195.0 400.0,195.0 399.3,195.2 C 399.3,195.2 398.7,195.3 398.0,195.5 C 398.0,195.5 397.3,195.7 396.5,195.7 C 396.5,195.7 395.7,195.7 395.0,195.3 C 395.0,195.3 394.3,195.0 393.7,194.5 C 393.7,194.5 393.0,194.0 392.3,193.3 C 392.3,193.3 391.7,192.7 391.0,191.8 C 391.0,191.8 390.3,191.0 389.8,189.8 C 389.8,189.8 389.3,188.7 389.2,187.3 C 389.2,187.3 389.0,186.0 389.0,184.3 C 389.0,184.3 389.0,182.7 389.3,180.7 C 389.3,180.7 389.7,178.7 390.3,176.7 C 390.3,176.7 391.0,174.7 392.0,172.8 C 392.0,172.8 393.0,171.0 393.8,169.7 C 393.8,169.7 394.7,168.3 395.3,167.2 C 395.3,167.2 396.0,166.0 396.5,165.0 C 396.5,165.0 397.0,164.0 397.5,163.2 C 397.5,163.2 398.0,162.3 398.5,161.5 C 398.5,161.5 399.0,160.7 399.5,159.8 C 399.5,159.8 400.0,159.0 400.3,158.0 C 400.3,158.0 400.7,157.0 400.8,156.2 C 400.8,156.2 401.0,155.3 400.8,154.5 C 400.8,154.5 400.7,153.7 400.5,152.8 C 400.5,152.8 400.3,152.0 400.0,151.2 C 400.0,151.2 399.7,150.3 399.2,149.7 C 399.2,149.7 398.7,149.0 398.0,148.5 C 398.0,148.5 397.3,148.0 396.5,147.5 C 396.5,147.5 395.7,147.0 394.8,146.7 C 394.8,146.7 394.0,146.3 393.0,146.2 C 393.0,146.2 392.0,146.0 390.8,146.0 C 390.8,146.0 389.7,146.0 388.2,146.0 C 388.2,146.0 386.7,146.0 384.7,145.8 C 384.7,145.8 382.7,145.7 380.2,145.5 C 380.2,145.5 377.7,145.3 374.7,145.2 C 374.7,145.2 371.7,145.0 368.3,145.0 C 368.3,145.0 365.0,145.0 361.3,145.0 C 361.3,145.0 357.7,145.0 353.7,145.0 C 353.7,145.0 349.7,145.0 345.3,145.0 C 345.3,145.0 341.0,145.0 336.3,144.8 C 336.3,144.8 331.7,144.7 326.8,144.5 C 326.8,144.5 322.0,144.3 317.2,144.2 C 317.2,144.2 312.3,144.0 307.7,144.0 C 307.7,144.0 303.0,144.0 298.7,143.8 C 298.7,143.8 294.3,143.7 290.5,143.3 C 290.5,143.3 286.7,143.0 283.3,142.5 C 283.3,142.5 280.0,142.0 277.2,141.5 C 277.2,141.5 274.3,141.0 271.7,140.3 C 271.7,140.3 269.0,139.7 266.5,139.0 C 266.5,139.0 264.0,138.3 261.5,137.5 C 261.5,137.5 259.0,136.7 256.5,135.7 C 256.5,135.7 254.0,134.7 251.3,133.3 C 251.3,133.3 248.7,132.0 246.2,130.5 C 246.2,130.5 243.7,129.0 241.2,127.2 C 241.2,127.2 238.7,125.3 236.5,123.2 C 236.5,123.2 234.3,121.0 232.2,118.5 C 232.2,118.5 230.0,116.0 228.0,113.3 C 228.0,113.3 226.0,110.7 224.2,107.8 C 224.2,107.8 222.3,105.0 220.8,102.0 C 220.8,102.0 219.3,99.0 218.0,95.8 C 218.0,95.8 216.7,92.7 215.5,89.3 C 215.5,89.3 214.3,86.0 213.0,82.5 C 213.0,82.5 211.7,79.0 210.3,75.5 C 210.3,75.5 209.0,72.0 207.3,68.5 C 207.3,68.5 205.7,65.0 203.8,61.7 C 203.8,61.7 202.0,58.3 199.7,55.3 C 199.7,55.3 197.3,52.3 194.7,49.7 C 194.7,49.7 192.0,47.0 189.0,44.5 C 189.0,44.5 186.0,42.0 183.0,39.7 C 183.0,39.7 180.0,37.3 176.8,35.3 C 176.8,35.3 173.7,33.3 170.3,32.0 C 170.3,32.0 167.0,30.7 163.7,29.8 C 163.7,29.8 160.3,29.0 157.5,28.5 C 157.5,28.5 154.7,28.0 152.3,27.5 C 152.3,27.5 150.0,27.0 148.2,26.7 C 148.2,26.7 146.3,26.3 144.5,26.0 C 144.5,26.0 142.7,25.7 141.2,25.5 C 141.2,25.5 139.7,25.3 138.3,25.2 C 138.3,25.2 137.0,25.0 136.0,25.0 C 136.0,25.0 135.0,25.0 134.0,24.8 C 134.0,24.8 133.0,24.7 132.0,24.5 C 132.0,24.5 131.0,24.3 130.0,24.2 C 130.0,24.2 129.0,24.0 128.0,24.2 C 128.0,24.2 127.0,24.3 126.2,24.7 C 126.2,24.7 125.3,25.0 124.7,25.7 C 124.7,25.7 124.0,26.3 123.7,27.2 C 123.7,27.2 123.3,28.0 123.0,29.0 C 123.0,29.0 122.7,30.0 122.3,31.3 C 122.3,31.3 122.0,32.7 121.3,34.3 C 121.3,34.3 120.7,36.0 119.8,38.2 C 119.8,38.2 119.0,40.3 117.8,42.7 C 117.8,42.7 116.7,45.0 115.3,47.8 C 115.3,47.8 114.0,50.7 112.3,53.7 C 112.3,53.7 110.7,56.7 108.3,60.8 L 106,65" stroke="#374151" stroke-width="8" fill="none" vector-effect="non-scaling-stroke"/><path d="M 329,264 C 331.0,264.0 333.0,264.0 335.2,264.0 C 335.2,264.0 337.3,264.0 341.7,264.0 C 341.7,264.0 346.0,264.0 350.3,263.7 C 350.3,263.7 354.7,263.3 358.8,262.5 C 358.8,262.5 363.0,261.7 366.8,260.3 C 366.8,260.3 370.7,259.0 374.3,257.2 C 374.3,257.2 378.0,255.3 381.3,253.2 C 381.3,253.2 384.7,251.0 387.7,248.2 C 387.7,248.2 390.7,245.3 393.2,242.2 C 393.2,242.2 395.7,239.0 397.7,235.5 C 397.7,235.5 399.7,232.0 401.2,228.7 C 401.2,228.7 402.7,225.3 403.7,222.5 C 403.7,222.5 404.7,219.7 405.3,217.5 C 405.3,217.5 406.0,215.3 406.3,213.7 C 406.3,213.7 406.7,212.0 406.8,210.5 C 406.8,210.5 407.0,209.0 407.0,207.5 C 407.0,207.5 407.0,206.0 407.0,204.7 C 407.0,204.7 407.0,203.3 406.8,202.2 C 406.8,202.2 406.7,201.0 406.3,200.2 C 406.3,200.2 406.0,199.3 405.5,198.5 C 405.5,198.5 405.0,197.7 404.5,197.0 C 404.5,197.0 404.0,196.3 403.3,195.8 C 403.3,195.8 402.7,195.3 402.0,195.2 C 402.0,195.2 401.3,195.0 400.7,195.0 C 400.7,195.0 400.0,195.0 399.3,195.2 C 399.3,195.2 398.7,195.3 398.0,195.5 C 398.0,195.5 397.3,195.7 396.5,195.7 C 396.5,195.7 395.7,195.7 395.0,195.3 C 395.0,195.3 394.3,195.0 393.7,194.5 C 393.7,194.5 393.0,194.0 392.3,193.3 C 392.3,193.3 391.7,192.7 391.0,191.8 C 391.0,191.8 390.3,191.0 389.8,189.8 C 389.8,189.8 389.3,188.7 389.2,187.3 C 389.2,187.3 389.0,186.0 389.0,184.3 C 389.0,184.3 389.0,182.7 389.3,180.7 C 389.3,180.7 389.7,178.7 390.3,176.7 C 390.3,176.7 391.0,174.7 392.0,172.8 C 392.0,172.8 393.0,171.0 393.8,169.7 C 393.8,169.7 394.7,168.3 395.3,167.2 C 395.3,167.2 396.0,166.0 396.5,165.0 C 396.5,165.0 397.0,164.0 397.5,163.2 C 397.5,163.2 398.0,162.3 398.5,161.5 C 398.5,161.5 399.0,160.7 399.5,159.8 C 399.5,159.8 400.0,159.0 400.3,158.0 C 400.3,158.0 400.7,157.0 400.8,156.2 C 400.8,156.2 401.0,155.3 400.8,154.5 C 400.8,154.5 400.7,153.7 400.5,152.8 C 400.5,152.8 400.3,152.0 400.0,151.2 C 400.0,151.2 399.7,150.3 399.2,149.7 C 399.2,149.7 398.7,149.0 398.0,148.5 C 398.0,148.5 397.3,148.0 396.5,147.5 C 396.5,147.5 395.7,147.0 394.8,146.7 C 394.8,146.7 394.0,146.3 393.0,146.2 C 393.0,146.2 392.0,146.0 390.8,146.0 C 390.8,146.0 389.7,146.0 388.2,146.0 C 388.2,146.0 386.7,146.0 384.7,145.8 C 384.7,145.8 382.7,145.7 380.2,145.5 C 380.2,145.5 377.7,145.3 374.7,145.2 C 374.7,145.2 371.7,145.0 368.3,145.0 C 368.3,145.0 365.0,145.0 361.3,145.0 C 361.3,145.0 357.7,145.0 353.7,145.0 C 353.7,145.0 349.7,145.0 345.3,145.0 C 345.3,145.0 341.0,145.0 336.3,144.8 C 336.3,144.8 331.7,144.7 326.8,144.5 C 326.8,144.5 322.0,144.3 317.2,144.2 C 317.2,144.2 312.3,144.0 307.7,144.0 C 307.7,144.0 303.0,144.0 298.7,143.8 C 298.7,143.8 294.3,143.7 290.5,143.3 C 290.5,143.3 286.7,143.0 283.3,142.5 C 283.3,142.5 280.0,142.0 277.2,141.5 C 277.2,141.5 274.3,141.0 271.7,140.3 C 271.7,140.3 269.0,139.7 266.5,139.0 C 266.5,139.0 264.0,138.3 261.5,137.5 C 261.5,137.5 259.0,136.7 256.5,135.7 C 256.5,135.7 254.0,134.7 251.3,133.3 C 251.3,133.3 248.7,132.0 246.2,130.5 C 246.2,130.5 243.7,129.0 241.2,127.2 C 241.2,127.2 238.7,125.3 236.5,123.2 C 236.5,123.2 234.3,121.0 232.2,118.5 C 232.2,118.5 230.0,116.0 228.0,113.3 C 228.0,113.3 226.0,110.7 224.2,107.8 C 224.2,107.8 222.3,105.0 220.8,102.0 C 220.8,102.0 219.3,99.0 218.0,95.8 C 218.0,95.8 216.7,92.7 215.5,89.3 C 215.5,89.3 214.3,86.0 213.0,82.5 C 213.0,82.5 211.7,79.0 210.3,75.5 C 210.3,75.5 209.0,72.0 207.3,68.5 C 207.3,68.5 205.7,65.0 203.8,61.7 C 203.8,61.7 202.0,58.3 199.7,55.3 C 199.7,55.3 197.3,52.3 194.7,49.7 C 194.7,49.7 192.0,47.0 189.0,44.5 C 189.0,44.5 186.0,42.0 183.0,39.7 C 183.0,39.7 180.0,37.3 176.8,35.3 C 176.8,35.3 173.7,33.3 170.3,32.0 C 170.3,32.0 167.0,30.7 163.7,29.8 C 163.7,29.8 160.3,29.0 157.5,28.5 C 157.5,28.5 154.7,28.0 152.3,27.5 C 152.3,27.5 150.0,27.0 148.2,26.7 C 148.2,26.7 146.3,26.3 144.5,26.0 C 144.5,26.0 142.7,25.7 141.2,25.5 C 141.2,25.5 139.7,25.3 138.3,25.2 C 138.3,25.2 137.0,25.0 136.0,25.0 C 136.0,25.0 135.0,25.0 134.0,24.8 C 134.0,24.8 133.0,24.7 132.0,24.5 C 132.0,24.5 131.0,24.3 130.0,24.2 C 130.0,24.2 129.0,24.0 128.0,24.2 C 128.0,24.2 127.0,24.3 126.2,24.7 C 126.2,24.7 125.3,25.0 124.7,25.7 C 124.7,25.7 124.0,26.3 123.7,27.2 C 123.7,27.2 123.3,28.0 123.0,29.0 C 123.0,29.0 122.7,30.0 122.3,31.3 C 122.3,31.3 122.0,32.7 121.3,34.3 C 121.3,34.3 120.7,36.0 119.8,38.2 C 119.8,38.2 119.0,40.3 117.8,42.7 C 117.8,42.7 116.7,45.0 115.3,47.8 C 115.3,47.8 114.0,50.7 112.3,53.7 C 112.3,53.7 110.7,56.7 108.3,60.8 L 106,65" stroke="#3B82F6" stroke-width="2" fill="none" vector-effect="non-scaling-stroke"/><path d="M 106,65 C 105.0,66.8 104.0,68.5 103.0,70.6 C 103.0,70.6 102.0,72.7 100.0,76.7 C 100.0,76.7 98.0,80.7 95.8,85.0 C 95.8,85.0 93.7,89.3 91.3,93.7 C 91.3,93.7 89.0,98.0 86.5,102.7 C 86.5,102.7 84.0,107.3 81.3,112.0 C 81.3,112.0 78.7,116.7 75.8,121.5 C 75.8,121.5 73.0,126.3 70.2,131.3 C 70.2,131.3 67.3,136.3 64.7,141.5 C 64.7,141.5 62.0,146.7 59.5,152.2 C 59.5,152.2 57.0,157.7 54.7,163.2 C 54.7,163.2 52.3,168.7 50.2,174.3 C 50.2,174.3 48.0,180.0 46.2,185.8 C 46.2,185.8 44.3,191.7 42.5,197.7 C 42.5,197.7 40.7,203.7 39.0,209.8 C 39.0,209.8 37.3,216.0 35.7,222.2 C 35.7,222.2 34.0,228.3 32.7,234.7 C 32.7,234.7 31.3,241.0 30.2,247.5 C 30.2,247.5 29.0,254.0 28.0,260.5 C 28.0,260.5 27.0,267.0 26.0,273.5 C 26.0,273.5 25.0,280.0 24.2,286.5 C 24.2,286.5 23.3,293.0 22.7,299.8 C 22.7,299.8 22.0,306.7 21.7,313.5 C 21.7,313.5 21.3,320.3 21.2,327.3 C 21.2,327.3 21.0,334.3 21.0,341.2 C 21.0,341.2 21.0,348.0 21.0,354.8 C 21.0,354.8 21.0,361.7 21.0,368.5 C 21.0,368.5 21.0,375.3 21.2,382.0 C 21.2,382.0 21.3,388.7 21.5,395.5 C 21.5,395.5 21.7,402.3 21.8,409.2 C 21.8,409.2 22.0,416.0 21.8,423.0 C 21.8,423.0 21.7,430.0 21.3,437.0 C 21.3,437.0 21.0,444.0 20.7,451.0 C 20.7,451.0 20.3,458.0 20.0,465.0 C 20.0,465.0 19.7,472.0 19.5,479.0 C 19.5,479.0 19.3,486.0 19.0,493.0 C 19.0,493.0 18.7,500.0 18.5,507.0 C 18.5,507.0 18.3,514.0 18.2,521.0 C 18.2,521.0 18.0,528.0 17.8,535.2 C 17.8,535.2 17.7,542.3 17.5,549.5 C 17.5,549.5 17.3,556.7 17.2,564.0 C 17.2,564.0 17.0,571.3 17.0,578.5 C 17.0,578.5 17.0,585.7 17.0,592.7 C 17.0,592.7 17.0,599.7 17.0,606.0 C 17.0,606.0 17.0,612.3 17.0,617.7 C 17.0,617.7 17.0,623.0 17.0,627.3 C 17.0,627.3 17.0,631.7 17.0,634.8 C 17.0,634.8 17.0,638.0 17.0,640.3 C 17.0,640.3 17.0,642.7 17.0,644.2 C 17.0,644.2 17.0,645.7 17.0,646.7 C 17.0,646.7 17.0,647.7 17.2,648.5 C 17.2,648.5 17.3,649.3 17.5,650.2 C 17.5,650.2 17.7,651.0 18.0,651.8 C 18.0,651.8 18.3,652.7 18.5,653.3 C 18.5,653.3 18.7,654.0 19.2,654.5 C 19.2,654.5 19.7,655.0 20.2,655.5 C 20.2,655.5 20.7,656.0 21.5,656.3 C 21.5,656.3 22.3,656.7 23.2,656.8 C 23.2,656.8 24.0,657.0 25.2,657.0 C 25.2,657.0 26.3,657.0 27.7,657.2 C 27.7,657.2 29.0,657.3 30.5,657.7 C 30.5,657.7 32.0,658.0 33.5,658.8 C 33.5,658.8 35.0,659.7 36.5,660.8 C 36.5,660.8 38.0,662.0 39.5,663.7 C 39.5,663.7 41.0,665.3 42.7,666.8 C 42.7,666.8 44.3,668.3 46.0,669.7 C 46.0,669.7 47.7,671.0 49.5,672.0 C 49.5,672.0 51.3,673.0 53.3,673.8 C 53.3,673.8 55.3,674.7 57.7,675.2 C 57.7,675.2 60.0,675.7 62.7,675.8 C 62.7,675.8 65.3,676.0 68.2,675.8 C 68.2,675.8 71.0,675.7 74.3,675.5 C 74.3,675.5 77.7,675.3 81.3,675.2 C 81.3,675.2 85.0,675.0 89.2,675.0 C 89.2,675.0 93.3,675.0 97.7,675.0 C 97.7,675.0 102.0,675.0 106.7,675.0 C 106.7,675.0 111.3,675.0 116.2,675.0 C 116.2,675.0 121.0,675.0 126.2,675.0 C 126.2,675.0 131.3,675.0 136.7,675.0 C 136.7,675.0 142.0,675.0 147.5,675.0 C 147.5,675.0 153.0,675.0 158.7,674.8 C 158.7,674.8 164.3,674.7 170.2,674.5 C 170.2,674.5 176.0,674.3 182.0,674.2 C 182.0,674.2 188.0,674.0 194.0,674.0 C 194.0,674.0 200.0,674.0 206.0,674.0 C 206.0,674.0 212.0,674.0 218.0,674.2 C 218.0,674.2 224.0,674.3 230.2,674.5 C 230.2,674.5 236.3,674.7 242.7,674.8 C 242.7,674.8 249.0,675.0 255.2,674.8 C 255.2,674.8 261.3,674.7 266.8,674.5 C 266.8,674.5 272.3,674.3 276.8,674.2 C 276.8,674.2 281.3,674.0 284.8,674.0 C 284.8,674.0 288.3,674.0 291.0,673.8 C 291.0,673.8 293.7,673.7 296.0,673.3 C 296.0,673.3 298.3,673.0 300.7,672.3 C 300.7,672.3 303.0,671.7 305.3,670.8 C 305.3,670.8 307.7,670.0 310.0,669.0 C 310.0,669.0 312.3,668.0 314.7,666.8 C 314.7,666.8 317.0,665.7 319.3,664.2 C 319.3,664.2 321.7,662.7 324.0,660.8 C 324.0,660.8 326.3,659.0 328.5,656.7 C 328.5,656.7 330.7,654.3 333.3,651.2 L 336,648" stroke="#374151" stroke-width="8" fill="none" vector-effect="non-scaling-stroke"/><path d="M 106,65 C 105.0,66.8 104.0,68.5 103.0,70.6 C 103.0,70.6 102.0,72.7 100.0,76.7 C 100.0,76.7 98.0,80.7 95.8,85.0 C 95.8,85.0 93.7,89.3 91.3,93.7 C 91.3,93.7 89.0,98.0 86.5,102.7 C 86.5,102.7 84.0,107.3 81.3,112.0 C 81.3,112.0 78.7,116.7 75.8,121.5 C 75.8,121.5 73.0,126.3 70.2,131.3 C 70.2,131.3 67.3,136.3 64.7,141.5 C 64.7,141.5 62.0,146.7 59.5,152.2 C 59.5,152.2 57.0,157.7 54.7,163.2 C 54.7,163.2 52.3,168.7 50.2,174.3 C 50.2,174.3 48.0,180.0 46.2,185.8 C 46.2,185.8 44.3,191.7 42.5,197.7 C 42.5,197.7 40.7,203.7 39.0,209.8 C 39.0,209.8 37.3,216.0 35.7,222.2 C 35.7,222.2 34.0,228.3 32.7,234.7 C 32.7,234.7 31.3,241.0 30.2,247.5 C 30.2,247.5 29.0,254.0 28.0,260.5 C 28.0,260.5 27.0,267.0 26.0,273.5 C 26.0,273.5 25.0,280.0 24.2,286.5 C 24.2,286.5 23.3,293.0 22.7,299.8 C 22.7,299.8 22.0,306.7 21.7,313.5 C 21.7,313.5 21.3,320.3 21.2,327.3 C 21.2,327.3 21.0,334.3 21.0,341.2 C 21.0,341.2 21.0,348.0 21.0,354.8 C 21.0,354.8 21.0,361.7 21.0,368.5 C 21.0,368.5 21.0,375.3 21.2,382.0 C 21.2,382.0 21.3,388.7 21.5,395.5 C 21.5,395.5 21.7,402.3 21.8,409.2 C 21.8,409.2 22.0,416.0 21.8,423.0 C 21.8,423.0 21.7,430.0 21.3,437.0 C 21.3,437.0 21.0,444.0 20.7,451.0 C 20.7,451.0 20.3,458.0 20.0,465.0 C 20.0,465.0 19.7,472.0 19.5,479.0 C 19.5,479.0 19.3,486.0 19.0,493.0 C 19.0,493.0 18.7,500.0 18.5,507.0 C 18.5,507.0 18.3,514.0 18.2,521.0 C 18.2,521.0 18.0,528.0 17.8,535.2 C 17.8,535.2 17.7,542.3 17.5,549.5 C 17.5,549.5 17.3,556.7 17.2,564.0 C 17.2,564.0 17.0,571.3 17.0,578.5 C 17.0,578.5 17.0,585.7 17.0,592.7 C 17.0,592.7 17.0,599.7 17.0,606.0 C 17.0,606.0 17.0,612.3 17.0,617.7 C 17.0,617.7 17.0,623.0 17.0,627.3 C 17.0,627.3 17.0,631.7 17.0,634.8 C 17.0,634.8 17.0,638.0 17.0,640.3 C 17.0,640.3 17.0,642.7 17.0,644.2 C 17.0,644.2 17.0,645.7 17.0,646.7 C 17.0,646.7 17.0,647.7 17.2,648.5 C 17.2,648.5 17.3,649.3 17.5,650.2 C 17.5,650.2 17.7,651.0 18.0,651.8 C 18.0,651.8 18.3,652.7 18.5,653.3 C 18.5,653.3 18.7,654.0 19.2,654.5 C 19.2,654.5 19.7,655.0 20.2,655.5 C 20.2,655.5 20.7,656.0 21.5,656.3 C 21.5,656.3 22.3,656.7 23.2,656.8 C 23.2,656.8 24.0,657.0 25.2,657.0 C 25.2,657.0 26.3,657.0 27.7,657.2 C 27.7,657.2 29.0,657.3 30.5,657.7 C 30.5,657.7 32.0,658.0 33.5,658.8 C 33.5,658.8 35.0,659.7 36.5,660.8 C 36.5,660.8 38.0,662.0 39.5,663.7 C 39.5,663.7 41.0,665.3 42.7,666.8 C 42.7,666.8 44.3,668.3 46.0,669.7 C 46.0,669.7 47.7,671.0 49.5,672.0 C 49.5,672.0 51.3,673.0 53.3,673.8 C 53.3,673.8 55.3,674.7 57.7,675.2 C 57.7,675.2 60.0,675.7 62.7,675.8 C 62.7,675.8 65.3,676.0 68.2,675.8 C 68.2,675.8 71.0,675.7 74.3,675.5 C 74.3,675.5 77.7,675.3 81.3,675.2 C 81.3,675.2 85.0,675.0 89.2,675.0 C 89.2,675.0 93.3,675.0 97.7,675.0 C 97.7,675.0 102.0,675.0 106.7,675.0 C 106.7,675.0 111.3,675.0 116.2,675.0 C 116.2,675.0 121.0,675.0 126.2,675.0 C 126.2,675.0 131.3,675.0 136.7,675.0 C 136.7,675.0 142.0,675.0 147.5,675.0 C 147.5,675.0 153.0,675.0 158.7,674.8 C 158.7,674.8 164.3,674.7 170.2,674.5 C 170.2,674.5 176.0,674.3 182.0,674.2 C 182.0,674.2 188.0,674.0 194.0,674.0 C 194.0,674.0 200.0,674.0 206.0,674.0 C 206.0,674.0 212.0,674.0 218.0,674.2 C 218.0,674.2 224.0,674.3 230.2,674.5 C 230.2,674.5 236.3,674.7 242.7,674.8 C 242.7,674.8 249.0,675.0 255.2,674.8 C 255.2,674.8 261.3,674.7 266.8,674.5 C 266.8,674.5 272.3,674.3 276.8,674.2 C 276.8,674.2 281.3,674.0 284.8,674.0 C 284.8,674.0 288.3,674.0 291.0,673.8 C 291.0,673.8 293.7,673.7 296.0,673.3 C 296.0,673.3 298.3,673.0 300.7,672.3 C 300.7,672.3 303.0,671.7 305.3,670.8 C 305.3,670.8 307.7,670.0 310.0,669.0 C 310.0,669.0 312.3,668.0 314.7,666.8 C 314.7,666.8 317.0,665.7 319.3,664.2 C 319.3,664.2 321.7,662.7 324.0,660.8 C 324.0,660.8 326.3,659.0 328.5,656.7 C 328.5,656.7 330.7,654.3 333.3,651.2 L 336,648" stroke="#FBBF24" stroke-width="2" fill="none" vector-effect="non-scaling-stroke"/>
    <g id="moving-circle-group">
        <circle cx="336" cy="648" r="20" fill="#000000" vector-effect="non-scaling-stroke"/>
        <circle cx="336" cy="648" r="7" fill="#FFFFFF" vector-effect="non-scaling-stroke"/>
    </g></svg>