<svg id="minimap-svg" width="100%" height="100%" viewBox="0 0 700 500" xmlns="http://www.w3.org/2000/svg"><path d="M 114,20 C 117.0,20.5 120.0,21.0 123.2,21.5 C 123.2,21.5 126.3,22.0 132.7,23.0 C 132.7,23.0 139.0,24.0 145.5,25.0 C 145.5,25.0 152.0,26.0 158.8,27.0 C 158.8,27.0 165.7,28.0 172.7,29.0 C 172.7,29.0 179.7,30.0 186.8,31.0 C 186.8,31.0 194.0,32.0 201.2,33.2 C 201.2,33.2 208.3,34.3 215.7,35.5 C 215.7,35.5 223.0,36.7 230.5,37.8 C 230.5,37.8 238.0,39.0 245.7,40.0 C 245.7,40.0 253.3,41.0 261.2,42.0 C 261.2,42.0 269.0,43.0 277.2,44.0 C 277.2,44.0 285.3,45.0 293.5,46.0 C 293.5,46.0 301.7,47.0 310.0,48.2 C 310.0,48.2 318.3,49.3 326.7,50.5 C 326.7,50.5 335.0,51.7 343.5,52.8 C 343.5,52.8 352.0,54.0 360.5,55.0 C 360.5,55.0 369.0,56.0 377.7,57.0 C 377.7,57.0 386.3,58.0 395.0,58.8 C 395.0,58.8 403.7,59.7 412.5,60.7 C 412.5,60.7 421.3,61.7 430.2,62.5 C 430.2,62.5 439.0,63.3 447.8,64.3 C 447.8,64.3 456.7,65.3 465.5,66.3 C 465.5,66.3 474.3,67.3 483.2,68.5 C 483.2,68.5 492.0,69.7 501.0,71.0 C 501.0,71.0 510.0,72.3 519.0,73.5 C 519.0,73.5 528.0,74.7 537.0,76.0 C 537.0,76.0 546.0,77.3 555.0,78.5 C 555.0,78.5 564.0,79.7 572.8,81.0 C 572.8,81.0 581.7,82.3 590.2,83.5 C 590.2,83.5 598.7,84.7 606.2,85.8 C 606.2,85.8 613.7,87.0 619.8,88.0 C 619.8,88.0 626.0,89.0 630.7,89.8 C 630.7,89.8 635.3,90.7 638.7,91.5 C 638.7,91.5 642.0,92.3 644.5,93.0 C 644.5,93.0 647.0,93.7 648.7,94.2 C 648.7,94.2 650.3,94.7 651.8,95.0 C 651.8,95.0 653.3,95.3 654.5,95.7 C 654.5,95.7 655.7,96.0 656.8,96.5 C 656.8,96.5 658.0,97.0 659.0,97.7 C 659.0,97.7 660.0,98.3 660.7,99.2 C 660.7,99.2 661.3,100.0 661.8,101.0 C 661.8,101.0 662.3,102.0 662.5,103.2 C 662.5,103.2 662.7,104.3 662.7,105.8 C 662.7,105.8 662.7,107.3 662.5,109.3 C 662.5,109.3 662.3,111.3 662.0,113.7 C 662.0,113.7 661.7,116.0 661.3,118.5 C 661.3,118.5 661.0,121.0 660.5,123.3 C 660.5,123.3 660.0,125.7 659.7,127.5 C 659.7,127.5 659.3,129.3 659.2,130.8 C 659.2,130.8 659.0,132.3 659.2,133.5 C 659.2,133.5 659.3,134.7 659.8,135.8 C 659.8,135.8 660.3,137.0 661.0,137.8 C 661.0,137.8 661.7,138.7 662.7,139.3 C 662.7,139.3 663.7,140.0 664.8,140.7 C 664.8,140.7 666.0,141.3 667.7,142.2 C 667.7,142.2 669.3,143.0 671.0,144.0 C 671.0,144.0 672.7,145.0 674.2,146.2 C 674.2,146.2 675.7,147.3 676.7,148.7 C 676.7,148.7 677.7,150.0 678.3,151.5 C 678.3,151.5 679.0,153.0 679.2,154.5 C 679.2,154.5 679.3,156.0 679.3,157.7 C 679.3,157.7 679.3,159.3 679.0,161.5 C 679.0,161.5 678.7,163.7 678.3,166.3 C 678.3,166.3 678.0,169.0 677.3,172.0 C 677.3,172.0 676.7,175.0 675.7,178.2 C 675.7,178.2 674.7,181.3 673.3,184.7 C 673.3,184.7 672.0,188.0 670.5,191.7 C 670.5,191.7 669.0,195.3 667.3,199.2 C 667.3,199.2 665.7,203.0 663.8,207.2 C 663.8,207.2 662.0,211.3 659.8,215.5 C 659.8,215.5 657.7,219.7 655.2,224.2 C 655.2,224.2 652.7,228.7 649.8,233.3 C 649.8,233.3 647.0,238.0 644.0,243.0 C 644.0,243.0 641.0,248.0 637.8,253.3 C 637.8,253.3 634.7,258.7 631.3,264.2 C 631.3,264.2 628.0,269.7 624.5,275.5 C 624.5,275.5 621.0,281.3 617.3,287.2 C 617.3,287.2 613.7,293.0 610.0,299.2 C 610.0,299.2 606.3,305.3 602.3,311.7 C 602.3,311.7 598.3,318.0 594.3,324.5 C 594.3,324.5 590.3,331.0 586.2,337.7 C 586.2,337.7 582.0,344.3 577.8,351.0 C 577.8,351.0 573.7,357.7 566.3,368.8 L 559,380" stroke="#374151" stroke-width="8" fill="none" vector-effect="non-scaling-stroke"/><path d="M 114,20 C 117.0,20.5 120.0,21.0 123.2,21.5 C 123.2,21.5 126.3,22.0 132.7,23.0 C 132.7,23.0 139.0,24.0 145.5,25.0 C 145.5,25.0 152.0,26.0 158.8,27.0 C 158.8,27.0 165.7,28.0 172.7,29.0 C 172.7,29.0 179.7,30.0 186.8,31.0 C 186.8,31.0 194.0,32.0 201.2,33.2 C 201.2,33.2 208.3,34.3 215.7,35.5 C 215.7,35.5 223.0,36.7 230.5,37.8 C 230.5,37.8 238.0,39.0 245.7,40.0 C 245.7,40.0 253.3,41.0 261.2,42.0 C 261.2,42.0 269.0,43.0 277.2,44.0 C 277.2,44.0 285.3,45.0 293.5,46.0 C 293.5,46.0 301.7,47.0 310.0,48.2 C 310.0,48.2 318.3,49.3 326.7,50.5 C 326.7,50.5 335.0,51.7 343.5,52.8 C 343.5,52.8 352.0,54.0 360.5,55.0 C 360.5,55.0 369.0,56.0 377.7,57.0 C 377.7,57.0 386.3,58.0 395.0,58.8 C 395.0,58.8 403.7,59.7 412.5,60.7 C 412.5,60.7 421.3,61.7 430.2,62.5 C 430.2,62.5 439.0,63.3 447.8,64.3 C 447.8,64.3 456.7,65.3 465.5,66.3 C 465.5,66.3 474.3,67.3 483.2,68.5 C 483.2,68.5 492.0,69.7 501.0,71.0 C 501.0,71.0 510.0,72.3 519.0,73.5 C 519.0,73.5 528.0,74.7 537.0,76.0 C 537.0,76.0 546.0,77.3 555.0,78.5 C 555.0,78.5 564.0,79.7 572.8,81.0 C 572.8,81.0 581.7,82.3 590.2,83.5 C 590.2,83.5 598.7,84.7 606.2,85.8 C 606.2,85.8 613.7,87.0 619.8,88.0 C 619.8,88.0 626.0,89.0 630.7,89.8 C 630.7,89.8 635.3,90.7 638.7,91.5 C 638.7,91.5 642.0,92.3 644.5,93.0 C 644.5,93.0 647.0,93.7 648.7,94.2 C 648.7,94.2 650.3,94.7 651.8,95.0 C 651.8,95.0 653.3,95.3 654.5,95.7 C 654.5,95.7 655.7,96.0 656.8,96.5 C 656.8,96.5 658.0,97.0 659.0,97.7 C 659.0,97.7 660.0,98.3 660.7,99.2 C 660.7,99.2 661.3,100.0 661.8,101.0 C 661.8,101.0 662.3,102.0 662.5,103.2 C 662.5,103.2 662.7,104.3 662.7,105.8 C 662.7,105.8 662.7,107.3 662.5,109.3 C 662.5,109.3 662.3,111.3 662.0,113.7 C 662.0,113.7 661.7,116.0 661.3,118.5 C 661.3,118.5 661.0,121.0 660.5,123.3 C 660.5,123.3 660.0,125.7 659.7,127.5 C 659.7,127.5 659.3,129.3 659.2,130.8 C 659.2,130.8 659.0,132.3 659.2,133.5 C 659.2,133.5 659.3,134.7 659.8,135.8 C 659.8,135.8 660.3,137.0 661.0,137.8 C 661.0,137.8 661.7,138.7 662.7,139.3 C 662.7,139.3 663.7,140.0 664.8,140.7 C 664.8,140.7 666.0,141.3 667.7,142.2 C 667.7,142.2 669.3,143.0 671.0,144.0 C 671.0,144.0 672.7,145.0 674.2,146.2 C 674.2,146.2 675.7,147.3 676.7,148.7 C 676.7,148.7 677.7,150.0 678.3,151.5 C 678.3,151.5 679.0,153.0 679.2,154.5 C 679.2,154.5 679.3,156.0 679.3,157.7 C 679.3,157.7 679.3,159.3 679.0,161.5 C 679.0,161.5 678.7,163.7 678.3,166.3 C 678.3,166.3 678.0,169.0 677.3,172.0 C 677.3,172.0 676.7,175.0 675.7,178.2 C 675.7,178.2 674.7,181.3 673.3,184.7 C 673.3,184.7 672.0,188.0 670.5,191.7 C 670.5,191.7 669.0,195.3 667.3,199.2 C 667.3,199.2 665.7,203.0 663.8,207.2 C 663.8,207.2 662.0,211.3 659.8,215.5 C 659.8,215.5 657.7,219.7 655.2,224.2 C 655.2,224.2 652.7,228.7 649.8,233.3 C 649.8,233.3 647.0,238.0 644.0,243.0 C 644.0,243.0 641.0,248.0 637.8,253.3 C 637.8,253.3 634.7,258.7 631.3,264.2 C 631.3,264.2 628.0,269.7 624.5,275.5 C 624.5,275.5 621.0,281.3 617.3,287.2 C 617.3,287.2 613.7,293.0 610.0,299.2 C 610.0,299.2 606.3,305.3 602.3,311.7 C 602.3,311.7 598.3,318.0 594.3,324.5 C 594.3,324.5 590.3,331.0 586.2,337.7 C 586.2,337.7 582.0,344.3 577.8,351.0 C 577.8,351.0 573.7,357.7 566.3,368.8 L 559,380" stroke="#EF4444" stroke-width="2" fill="none" vector-effect="non-scaling-stroke"/><path d="M 559,380 C 556.8,383.0 554.5,386.0 552.8,388.5 C 552.8,388.5 551.0,391.0 547.7,395.7 C 547.7,395.7 544.3,400.3 542.0,403.8 C 542.0,403.8 539.7,407.3 537.8,409.8 C 537.8,409.8 536.0,412.3 534.8,414.0 C 534.8,414.0 533.7,415.7 532.7,416.8 C 532.7,416.8 531.7,418.0 531.2,419.0 C 531.2,419.0 530.7,420.0 530.2,421.0 C 530.2,421.0 529.7,422.0 529.5,423.0 C 529.5,423.0 529.3,424.0 529.2,425.0 C 529.2,425.0 529.0,426.0 529.2,427.0 C 529.2,427.0 529.3,428.0 529.7,428.8 C 529.7,428.8 530.0,429.7 530.7,430.5 C 530.7,430.5 531.3,431.3 532.2,432.0 C 532.2,432.0 533.0,432.7 534.2,433.3 C 534.2,433.3 535.3,434.0 536.7,434.7 C 536.7,434.7 538.0,435.3 539.8,436.2 C 539.8,436.2 541.7,437.0 543.5,438.2 C 543.5,438.2 545.3,439.3 547.0,440.5 C 547.0,440.5 548.7,441.7 549.7,443.0 C 549.7,443.0 550.7,444.3 551.2,445.7 C 551.2,445.7 551.7,447.0 551.8,448.3 C 551.8,448.3 552.0,449.7 551.7,450.8 C 551.7,450.8 551.3,452.0 550.5,453.2 C 550.5,453.2 549.7,454.3 548.2,455.7 C 548.2,455.7 546.7,457.0 544.8,458.5 C 544.8,458.5 543.0,460.0 540.8,461.7 C 540.8,461.7 538.7,463.3 536.2,465.3 C 536.2,465.3 533.7,467.3 531.0,469.3 C 531.0,469.3 528.3,471.3 525.8,473.2 C 525.8,473.2 523.3,475.0 521.3,476.3 C 521.3,476.3 519.3,477.7 517.8,478.8 C 517.8,478.8 516.3,480.0 515.0,480.8 C 515.0,480.8 513.7,481.7 512.3,482.3 C 512.3,482.3 511.0,483.0 509.7,483.3 C 509.7,483.3 508.3,483.7 507.0,483.8 C 507.0,483.8 505.7,484.0 504.5,483.7 C 504.5,483.7 503.3,483.3 502.0,482.8 C 502.0,482.8 500.7,482.3 499.5,481.5 C 499.5,481.5 498.3,480.7 497.3,479.7 C 497.3,479.7 496.3,478.7 495.8,477.5 C 495.8,477.5 495.3,476.3 495.2,475.0 C 495.2,475.0 495.0,473.7 495.0,472.3 C 495.0,472.3 495.0,471.0 495.2,469.2 C 495.2,469.2 495.3,467.3 495.7,465.0 C 495.7,465.0 496.0,462.7 496.5,459.8 C 496.5,459.8 497.0,457.0 497.5,453.7 C 497.5,453.7 498.0,450.3 498.5,446.5 C 498.5,446.5 499.0,442.7 499.5,438.2 C 499.5,438.2 500.0,433.7 500.7,428.8 C 500.7,428.8 501.3,424.0 502.0,418.7 C 502.0,418.7 502.7,413.3 503.5,407.7 C 503.5,407.7 504.3,402.0 505.2,396.0 C 505.2,396.0 506.0,390.0 506.8,384.3 C 506.8,384.3 507.7,378.7 508.3,374.0 C 508.3,374.0 509.0,369.3 509.5,365.7 C 509.5,365.7 510.0,362.0 510.5,359.0 C 510.5,359.0 511.0,356.0 511.3,353.2 C 511.3,353.2 511.7,350.3 511.7,347.7 C 511.7,347.7 511.7,345.0 511.3,342.5 C 511.3,342.5 511.0,340.0 510.3,337.7 C 510.3,337.7 509.7,335.3 508.5,333.3 C 508.5,333.3 507.3,331.3 505.7,329.8 C 505.7,329.8 504.0,328.3 501.8,327.0 C 501.8,327.0 499.7,325.7 497.5,324.3 C 497.5,324.3 495.3,323.0 493.0,321.5 C 493.0,321.5 490.7,320.0 488.3,318.3 C 488.3,318.3 486.0,316.7 483.7,314.8 C 483.7,314.8 481.3,313.0 479.2,311.0 C 479.2,311.0 477.0,309.0 475.2,306.8 C 475.2,306.8 473.3,304.7 471.8,302.2 C 471.8,302.2 470.3,299.7 469.2,297.0 C 469.2,297.0 468.0,294.3 467.2,291.8 C 467.2,291.8 466.3,289.3 465.5,287.3 C 465.5,287.3 464.7,285.3 463.7,283.5 C 463.7,283.5 462.7,281.7 461.5,280.0 C 461.5,280.0 460.3,278.3 458.8,276.7 C 458.8,276.7 457.3,275.0 455.8,273.5 C 455.8,273.5 454.3,272.0 452.3,270.7 C 452.3,270.7 450.3,269.3 448.2,268.2 C 448.2,268.2 446.0,267.0 443.3,266.2 C 443.3,266.2 440.7,265.3 437.8,264.7 C 437.8,264.7 435.0,264.0 431.7,263.5 C 431.7,263.5 428.3,263.0 424.2,262.5 C 424.2,262.5 420.0,262.0 415.3,261.5 C 415.3,261.5 410.7,261.0 406.2,260.3 C 406.2,260.3 401.7,259.7 398.0,259.2 C 398.0,259.2 394.3,258.7 391.5,258.0 C 391.5,258.0 388.7,257.3 386.5,256.7 C 386.5,256.7 384.3,256.0 382.5,255.0 C 382.5,255.0 380.7,254.0 379.0,252.8 C 379.0,252.8 377.3,251.7 375.5,250.3 C 375.5,250.3 373.7,249.0 372.0,247.3 C 372.0,247.3 370.3,245.7 368.7,243.8 C 368.7,243.8 367.0,242.0 365.7,239.8 C 365.7,239.8 364.3,237.7 363.2,235.2 C 363.2,235.2 362.0,232.7 361.2,229.8 C 361.2,229.8 360.3,227.0 359.3,224.3 C 359.3,224.3 358.3,221.7 357.2,219.3 C 357.2,219.3 356.0,217.0 354.3,215.0 C 354.3,215.0 352.7,213.0 350.7,211.3 C 350.7,211.3 348.7,209.7 346.5,208.3 C 346.5,208.3 344.3,207.0 341.8,205.8 C 341.8,205.8 339.3,204.7 336.7,203.2 C 336.7,203.2 334.0,201.7 330.7,199.8 C 330.7,199.8 327.3,198.0 323.7,196.0 C 323.7,196.0 320.0,194.0 315.8,191.8 C 315.8,191.8 311.7,189.7 307.5,187.5 C 307.5,187.5 303.3,185.3 299.2,183.2 C 299.2,183.2 295.0,181.0 290.8,179.2 C 290.8,179.2 286.7,177.3 282.5,175.8 C 282.5,175.8 278.3,174.3 274.0,173.2 C 274.0,173.2 269.7,172.0 265.3,171.2 C 265.3,171.2 261.0,170.3 256.3,169.7 C 256.3,169.7 251.7,169.0 246.7,168.3 C 246.7,168.3 241.7,167.7 231.3,166.3 L 221,165" stroke="#374151" stroke-width="8" fill="none" vector-effect="non-scaling-stroke"/><path d="M 559,380 C 556.8,383.0 554.5,386.0 552.8,388.5 C 552.8,388.5 551.0,391.0 547.7,395.7 C 547.7,395.7 544.3,400.3 542.0,403.8 C 542.0,403.8 539.7,407.3 537.8,409.8 C 537.8,409.8 536.0,412.3 534.8,414.0 C 534.8,414.0 533.7,415.7 532.7,416.8 C 532.7,416.8 531.7,418.0 531.2,419.0 C 531.2,419.0 530.7,420.0 530.2,421.0 C 530.2,421.0 529.7,422.0 529.5,423.0 C 529.5,423.0 529.3,424.0 529.2,425.0 C 529.2,425.0 529.0,426.0 529.2,427.0 C 529.2,427.0 529.3,428.0 529.7,428.8 C 529.7,428.8 530.0,429.7 530.7,430.5 C 530.7,430.5 531.3,431.3 532.2,432.0 C 532.2,432.0 533.0,432.7 534.2,433.3 C 534.2,433.3 535.3,434.0 536.7,434.7 C 536.7,434.7 538.0,435.3 539.8,436.2 C 539.8,436.2 541.7,437.0 543.5,438.2 C 543.5,438.2 545.3,439.3 547.0,440.5 C 547.0,440.5 548.7,441.7 549.7,443.0 C 549.7,443.0 550.7,444.3 551.2,445.7 C 551.2,445.7 551.7,447.0 551.8,448.3 C 551.8,448.3 552.0,449.7 551.7,450.8 C 551.7,450.8 551.3,452.0 550.5,453.2 C 550.5,453.2 549.7,454.3 548.2,455.7 C 548.2,455.7 546.7,457.0 544.8,458.5 C 544.8,458.5 543.0,460.0 540.8,461.7 C 540.8,461.7 538.7,463.3 536.2,465.3 C 536.2,465.3 533.7,467.3 531.0,469.3 C 531.0,469.3 528.3,471.3 525.8,473.2 C 525.8,473.2 523.3,475.0 521.3,476.3 C 521.3,476.3 519.3,477.7 517.8,478.8 C 517.8,478.8 516.3,480.0 515.0,480.8 C 515.0,480.8 513.7,481.7 512.3,482.3 C 512.3,482.3 511.0,483.0 509.7,483.3 C 509.7,483.3 508.3,483.7 507.0,483.8 C 507.0,483.8 505.7,484.0 504.5,483.7 C 504.5,483.7 503.3,483.3 502.0,482.8 C 502.0,482.8 500.7,482.3 499.5,481.5 C 499.5,481.5 498.3,480.7 497.3,479.7 C 497.3,479.7 496.3,478.7 495.8,477.5 C 495.8,477.5 495.3,476.3 495.2,475.0 C 495.2,475.0 495.0,473.7 495.0,472.3 C 495.0,472.3 495.0,471.0 495.2,469.2 C 495.2,469.2 495.3,467.3 495.7,465.0 C 495.7,465.0 496.0,462.7 496.5,459.8 C 496.5,459.8 497.0,457.0 497.5,453.7 C 497.5,453.7 498.0,450.3 498.5,446.5 C 498.5,446.5 499.0,442.7 499.5,438.2 C 499.5,438.2 500.0,433.7 500.7,428.8 C 500.7,428.8 501.3,424.0 502.0,418.7 C 502.0,418.7 502.7,413.3 503.5,407.7 C 503.5,407.7 504.3,402.0 505.2,396.0 C 505.2,396.0 506.0,390.0 506.8,384.3 C 506.8,384.3 507.7,378.7 508.3,374.0 C 508.3,374.0 509.0,369.3 509.5,365.7 C 509.5,365.7 510.0,362.0 510.5,359.0 C 510.5,359.0 511.0,356.0 511.3,353.2 C 511.3,353.2 511.7,350.3 511.7,347.7 C 511.7,347.7 511.7,345.0 511.3,342.5 C 511.3,342.5 511.0,340.0 510.3,337.7 C 510.3,337.7 509.7,335.3 508.5,333.3 C 508.5,333.3 507.3,331.3 505.7,329.8 C 505.7,329.8 504.0,328.3 501.8,327.0 C 501.8,327.0 499.7,325.7 497.5,324.3 C 497.5,324.3 495.3,323.0 493.0,321.5 C 493.0,321.5 490.7,320.0 488.3,318.3 C 488.3,318.3 486.0,316.7 483.7,314.8 C 483.7,314.8 481.3,313.0 479.2,311.0 C 479.2,311.0 477.0,309.0 475.2,306.8 C 475.2,306.8 473.3,304.7 471.8,302.2 C 471.8,302.2 470.3,299.7 469.2,297.0 C 469.2,297.0 468.0,294.3 467.2,291.8 C 467.2,291.8 466.3,289.3 465.5,287.3 C 465.5,287.3 464.7,285.3 463.7,283.5 C 463.7,283.5 462.7,281.7 461.5,280.0 C 461.5,280.0 460.3,278.3 458.8,276.7 C 458.8,276.7 457.3,275.0 455.8,273.5 C 455.8,273.5 454.3,272.0 452.3,270.7 C 452.3,270.7 450.3,269.3 448.2,268.2 C 448.2,268.2 446.0,267.0 443.3,266.2 C 443.3,266.2 440.7,265.3 437.8,264.7 C 437.8,264.7 435.0,264.0 431.7,263.5 C 431.7,263.5 428.3,263.0 424.2,262.5 C 424.2,262.5 420.0,262.0 415.3,261.5 C 415.3,261.5 410.7,261.0 406.2,260.3 C 406.2,260.3 401.7,259.7 398.0,259.2 C 398.0,259.2 394.3,258.7 391.5,258.0 C 391.5,258.0 388.7,257.3 386.5,256.7 C 386.5,256.7 384.3,256.0 382.5,255.0 C 382.5,255.0 380.7,254.0 379.0,252.8 C 379.0,252.8 377.3,251.7 375.5,250.3 C 375.5,250.3 373.7,249.0 372.0,247.3 C 372.0,247.3 370.3,245.7 368.7,243.8 C 368.7,243.8 367.0,242.0 365.7,239.8 C 365.7,239.8 364.3,237.7 363.2,235.2 C 363.2,235.2 362.0,232.7 361.2,229.8 C 361.2,229.8 360.3,227.0 359.3,224.3 C 359.3,224.3 358.3,221.7 357.2,219.3 C 357.2,219.3 356.0,217.0 354.3,215.0 C 354.3,215.0 352.7,213.0 350.7,211.3 C 350.7,211.3 348.7,209.7 346.5,208.3 C 346.5,208.3 344.3,207.0 341.8,205.8 C 341.8,205.8 339.3,204.7 336.7,203.2 C 336.7,203.2 334.0,201.7 330.7,199.8 C 330.7,199.8 327.3,198.0 323.7,196.0 C 323.7,196.0 320.0,194.0 315.8,191.8 C 315.8,191.8 311.7,189.7 307.5,187.5 C 307.5,187.5 303.3,185.3 299.2,183.2 C 299.2,183.2 295.0,181.0 290.8,179.2 C 290.8,179.2 286.7,177.3 282.5,175.8 C 282.5,175.8 278.3,174.3 274.0,173.2 C 274.0,173.2 269.7,172.0 265.3,171.2 C 265.3,171.2 261.0,170.3 256.3,169.7 C 256.3,169.7 251.7,169.0 246.7,168.3 C 246.7,168.3 241.7,167.7 231.3,166.3 L 221,165" stroke="#3B82F6" stroke-width="2" fill="none" vector-effect="non-scaling-stroke"/><path d="M 221,165 C 218.0,164.5 215.0,164.0 211.8,163.5 C 211.8,163.5 208.7,163.0 202.3,162.0 C 202.3,162.0 196.0,161.0 189.5,160.0 C 189.5,160.0 183.0,159.0 176.3,158.0 C 176.3,158.0 169.7,157.0 163.0,156.0 C 163.0,156.0 156.3,155.0 150.3,154.2 C 150.3,154.2 144.3,153.3 139.7,152.7 C 139.7,152.7 135.0,152.0 131.7,151.7 C 131.7,151.7 128.3,151.3 126.0,151.0 C 126.0,151.0 123.7,150.7 122.0,150.5 C 122.0,150.5 120.3,150.3 119.2,150.2 C 119.2,150.2 118.0,150.0 116.8,149.8 C 116.8,149.8 115.7,149.7 114.7,149.2 C 114.7,149.2 113.7,148.7 112.7,148.0 C 112.7,148.0 111.7,147.3 111.0,146.5 C 111.0,146.5 110.3,145.7 109.7,144.7 C 109.7,144.7 109.0,143.7 108.5,142.2 C 108.5,142.2 108.0,140.7 107.7,138.7 C 107.7,138.7 107.3,136.7 107.0,134.2 C 107.0,134.2 106.7,131.7 106.5,128.7 C 106.5,128.7 106.3,125.7 106.0,122.2 C 106.0,122.2 105.7,118.7 105.3,114.8 C 105.3,114.8 105.0,111.0 104.7,107.2 C 104.7,107.2 104.3,103.3 104.0,100.2 C 104.0,100.2 103.7,97.0 103.5,94.5 C 103.5,94.5 103.3,92.0 103.0,89.8 C 103.0,89.8 102.7,87.7 102.5,85.7 C 102.5,85.7 102.3,83.7 102.0,81.7 C 102.0,81.7 101.7,79.7 101.5,78.0 C 101.5,78.0 101.3,76.3 100.8,74.8 C 100.8,74.8 100.3,73.3 99.7,72.3 C 99.7,72.3 99.0,71.3 97.8,70.7 C 97.8,70.7 96.7,70.0 95.3,69.7 C 95.3,69.7 94.0,69.3 92.7,69.3 C 92.7,69.3 91.3,69.3 90.2,70.0 C 90.2,70.0 89.0,70.7 88.0,71.7 C 88.0,71.7 87.0,72.7 86.0,74.0 C 86.0,74.0 85.0,75.3 84.0,76.5 C 84.0,76.5 83.0,77.7 81.8,78.7 C 81.8,78.7 80.7,79.7 79.3,80.3 C 79.3,80.3 78.0,81.0 76.7,81.3 C 76.7,81.3 75.3,81.7 74.0,81.8 C 74.0,81.8 72.7,82.0 71.3,81.8 C 71.3,81.8 70.0,81.7 68.5,81.3 C 68.5,81.3 67.0,81.0 65.5,80.5 C 65.5,80.5 64.0,80.0 62.5,79.5 C 62.5,79.5 61.0,79.0 59.3,78.5 C 59.3,78.5 57.7,78.0 56.0,77.7 C 56.0,77.7 54.3,77.3 52.5,77.0 C 52.5,77.0 50.7,76.7 48.7,76.5 C 48.7,76.5 46.7,76.3 44.5,76.0 C 44.5,76.0 42.3,75.7 40.3,75.5 C 40.3,75.5 38.3,75.3 36.7,75.0 C 36.7,75.0 35.0,74.7 33.5,74.5 C 33.5,74.5 32.0,74.3 30.7,74.0 C 30.7,74.0 29.3,73.7 28.0,73.3 C 28.0,73.3 26.7,73.0 25.5,72.3 C 25.5,72.3 24.3,71.7 23.3,70.7 C 23.3,70.7 22.3,69.7 21.7,68.5 C 21.7,68.5 21.0,67.3 20.7,66.2 C 20.7,66.2 20.3,65.0 20.3,63.8 C 20.3,63.8 20.3,62.7 20.5,61.5 C 20.5,61.5 20.7,60.3 21.0,58.8 C 21.0,58.8 21.3,57.3 21.8,55.8 C 21.8,55.8 22.3,54.3 23.0,52.3 C 23.0,52.3 23.7,50.3 24.7,48.5 C 24.7,48.5 25.7,46.7 26.8,44.5 C 26.8,44.5 28.0,42.3 29.7,40.3 C 29.7,40.3 31.3,38.3 33.3,36.0 C 33.3,36.0 35.3,33.7 37.7,31.5 C 37.7,31.5 40.0,29.3 42.8,27.3 C 42.8,27.3 45.7,25.3 48.8,23.7 C 48.8,23.7 52.0,22.0 55.5,20.8 C 55.5,20.8 59.0,19.7 62.7,18.7 C 62.7,18.7 66.3,17.7 70.2,17.2 C 70.2,17.2 74.0,16.7 78.2,16.3 C 78.2,16.3 82.3,16.0 86.7,16.3 C 86.7,16.3 91.0,16.7 95.5,17.2 C 95.5,17.2 100.0,17.7 107.0,18.8 L 114,20" stroke="#374151" stroke-width="8" fill="none" vector-effect="non-scaling-stroke"/><path d="M 221,165 C 218.0,164.5 215.0,164.0 211.8,163.5 C 211.8,163.5 208.7,163.0 202.3,162.0 C 202.3,162.0 196.0,161.0 189.5,160.0 C 189.5,160.0 183.0,159.0 176.3,158.0 C 176.3,158.0 169.7,157.0 163.0,156.0 C 163.0,156.0 156.3,155.0 150.3,154.2 C 150.3,154.2 144.3,153.3 139.7,152.7 C 139.7,152.7 135.0,152.0 131.7,151.7 C 131.7,151.7 128.3,151.3 126.0,151.0 C 126.0,151.0 123.7,150.7 122.0,150.5 C 122.0,150.5 120.3,150.3 119.2,150.2 C 119.2,150.2 118.0,150.0 116.8,149.8 C 116.8,149.8 115.7,149.7 114.7,149.2 C 114.7,149.2 113.7,148.7 112.7,148.0 C 112.7,148.0 111.7,147.3 111.0,146.5 C 111.0,146.5 110.3,145.7 109.7,144.7 C 109.7,144.7 109.0,143.7 108.5,142.2 C 108.5,142.2 108.0,140.7 107.7,138.7 C 107.7,138.7 107.3,136.7 107.0,134.2 C 107.0,134.2 106.7,131.7 106.5,128.7 C 106.5,128.7 106.3,125.7 106.0,122.2 C 106.0,122.2 105.7,118.7 105.3,114.8 C 105.3,114.8 105.0,111.0 104.7,107.2 C 104.7,107.2 104.3,103.3 104.0,100.2 C 104.0,100.2 103.7,97.0 103.5,94.5 C 103.5,94.5 103.3,92.0 103.0,89.8 C 103.0,89.8 102.7,87.7 102.5,85.7 C 102.5,85.7 102.3,83.7 102.0,81.7 C 102.0,81.7 101.7,79.7 101.5,78.0 C 101.5,78.0 101.3,76.3 100.8,74.8 C 100.8,74.8 100.3,73.3 99.7,72.3 C 99.7,72.3 99.0,71.3 97.8,70.7 C 97.8,70.7 96.7,70.0 95.3,69.7 C 95.3,69.7 94.0,69.3 92.7,69.3 C 92.7,69.3 91.3,69.3 90.2,70.0 C 90.2,70.0 89.0,70.7 88.0,71.7 C 88.0,71.7 87.0,72.7 86.0,74.0 C 86.0,74.0 85.0,75.3 84.0,76.5 C 84.0,76.5 83.0,77.7 81.8,78.7 C 81.8,78.7 80.7,79.7 79.3,80.3 C 79.3,80.3 78.0,81.0 76.7,81.3 C 76.7,81.3 75.3,81.7 74.0,81.8 C 74.0,81.8 72.7,82.0 71.3,81.8 C 71.3,81.8 70.0,81.7 68.5,81.3 C 68.5,81.3 67.0,81.0 65.5,80.5 C 65.5,80.5 64.0,80.0 62.5,79.5 C 62.5,79.5 61.0,79.0 59.3,78.5 C 59.3,78.5 57.7,78.0 56.0,77.7 C 56.0,77.7 54.3,77.3 52.5,77.0 C 52.5,77.0 50.7,76.7 48.7,76.5 C 48.7,76.5 46.7,76.3 44.5,76.0 C 44.5,76.0 42.3,75.7 40.3,75.5 C 40.3,75.5 38.3,75.3 36.7,75.0 C 36.7,75.0 35.0,74.7 33.5,74.5 C 33.5,74.5 32.0,74.3 30.7,74.0 C 30.7,74.0 29.3,73.7 28.0,73.3 C 28.0,73.3 26.7,73.0 25.5,72.3 C 25.5,72.3 24.3,71.7 23.3,70.7 C 23.3,70.7 22.3,69.7 21.7,68.5 C 21.7,68.5 21.0,67.3 20.7,66.2 C 20.7,66.2 20.3,65.0 20.3,63.8 C 20.3,63.8 20.3,62.7 20.5,61.5 C 20.5,61.5 20.7,60.3 21.0,58.8 C 21.0,58.8 21.3,57.3 21.8,55.8 C 21.8,55.8 22.3,54.3 23.0,52.3 C 23.0,52.3 23.7,50.3 24.7,48.5 C 24.7,48.5 25.7,46.7 26.8,44.5 C 26.8,44.5 28.0,42.3 29.7,40.3 C 29.7,40.3 31.3,38.3 33.3,36.0 C 33.3,36.0 35.3,33.7 37.7,31.5 C 37.7,31.5 40.0,29.3 42.8,27.3 C 42.8,27.3 45.7,25.3 48.8,23.7 C 48.8,23.7 52.0,22.0 55.5,20.8 C 55.5,20.8 59.0,19.7 62.7,18.7 C 62.7,18.7 66.3,17.7 70.2,17.2 C 70.2,17.2 74.0,16.7 78.2,16.3 C 78.2,16.3 82.3,16.0 86.7,16.3 C 86.7,16.3 91.0,16.7 95.5,17.2 C 95.5,17.2 100.0,17.7 107.0,18.8 L 114,20" stroke="#FBBF24" stroke-width="2" fill="none" vector-effect="non-scaling-stroke"/>
    <g id="moving-circle-group">
        <circle cx="114" cy="20" r="20" fill="#000000" vector-effect="non-scaling-stroke"/>
        <circle cx="114" cy="20" r="7" fill="#FFFFFF" vector-effect="non-scaling-stroke"/>
    </g></svg>