<svg id="minimap-svg" width="100%" height="100%" viewBox="0 0 700 277" xmlns="http://www.w3.org/2000/svg"><path d="M 271,37 C 272.5,38.0 274.0,39.0 275.5,39.8 C 275.5,39.8 277.0,40.7 280.0,42.3 C 280.0,42.3 283.0,44.0 286.0,45.7 C 286.0,45.7 289.0,47.3 292.0,49.2 C 292.0,49.2 295.0,51.0 298.0,53.0 C 298.0,53.0 301.0,55.0 304.2,56.8 C 304.2,56.8 307.3,58.7 310.5,60.5 C 310.5,60.5 313.7,62.3 317.0,64.2 C 317.0,64.2 320.3,66.0 323.5,68.0 C 323.5,68.0 326.7,70.0 329.8,71.8 C 329.8,71.8 333.0,73.7 336.3,75.7 C 336.3,75.7 339.7,77.7 343.2,79.7 C 343.2,79.7 346.7,81.7 350.3,84.0 C 350.3,84.0 354.0,86.3 357.5,88.5 C 357.5,88.5 361.0,90.7 364.7,92.8 C 364.7,92.8 368.3,95.0 371.8,97.0 C 371.8,97.0 375.3,99.0 378.7,100.8 C 378.7,100.8 382.0,102.7 385.0,104.5 C 385.0,104.5 388.0,106.3 390.8,108.0 C 390.8,108.0 393.7,109.7 396.3,111.3 C 396.3,111.3 399.0,113.0 401.3,114.5 C 401.3,114.5 403.7,116.0 405.8,117.3 C 405.8,117.3 408.0,118.7 410.0,119.8 C 410.0,119.8 412.0,121.0 413.8,122.0 C 413.8,122.0 415.7,123.0 417.3,124.0 C 417.3,124.0 419.0,125.0 420.5,125.8 C 420.5,125.8 422.0,126.7 423.5,127.5 C 423.5,127.5 425.0,128.3 426.3,129.0 C 426.3,129.0 427.7,129.7 428.8,130.5 C 428.8,130.5 430.0,131.3 431.0,132.2 C 431.0,132.2 432.0,133.0 432.8,134.0 C 432.8,134.0 433.7,135.0 434.3,136.0 C 434.3,136.0 435.0,137.0 435.3,138.0 C 435.3,138.0 435.7,139.0 435.8,140.0 C 435.8,140.0 436.0,141.0 435.8,142.2 C 435.8,142.2 435.7,143.3 435.3,144.5 C 435.3,144.5 435.0,145.7 434.3,146.8 C 434.3,146.8 433.7,148.0 432.7,149.2 C 432.7,149.2 431.7,150.3 430.5,151.3 C 430.5,151.3 429.3,152.3 428.0,153.3 C 428.0,153.3 426.7,154.3 425.3,155.3 C 425.3,155.3 424.0,156.3 422.5,157.5 C 422.5,157.5 421.0,158.7 419.7,159.8 C 419.7,159.8 418.3,161.0 417.2,162.2 C 417.2,162.2 416.0,163.3 415.0,164.7 C 415.0,164.7 414.0,166.0 413.0,167.5 C 413.0,167.5 412.0,169.0 411.2,170.3 C 411.2,170.3 410.3,171.7 409.7,173.2 C 409.7,173.2 409.0,174.7 408.7,176.2 C 408.7,176.2 408.3,177.7 408.2,179.5 C 408.2,179.5 408.0,181.3 408.2,183.0 C 408.2,183.0 408.3,184.7 408.5,186.5 C 408.5,186.5 408.7,188.3 409.0,190.2 C 409.0,190.2 409.3,192.0 409.3,194.2 C 409.3,194.2 409.3,196.3 409.2,198.5 C 409.2,198.5 409.0,200.7 408.5,202.7 C 408.5,202.7 408.0,204.7 407.5,206.5 C 407.5,206.5 407.0,208.3 406.2,210.2 C 406.2,210.2 405.3,212.0 404.2,214.0 C 404.2,214.0 403.0,216.0 401.7,217.7 C 401.7,217.7 400.3,219.3 398.8,221.0 C 398.8,221.0 397.3,222.7 395.7,224.0 C 395.7,224.0 394.0,225.3 391.8,226.8 C 391.8,226.8 389.7,228.3 387.5,229.5 C 387.5,229.5 385.3,230.7 383.0,231.8 C 383.0,231.8 380.7,233.0 378.3,234.0 C 378.3,234.0 376.0,235.0 373.5,235.8 C 373.5,235.8 371.0,236.7 368.5,237.3 C 368.5,237.3 366.0,238.0 363.5,238.5 C 363.5,238.5 361.0,239.0 358.5,239.5 C 358.5,239.5 356.0,240.0 353.3,240.3 C 353.3,240.3 350.7,240.7 347.8,240.8 C 347.8,240.8 345.0,241.0 342.2,241.0 C 342.2,241.0 339.3,241.0 336.5,240.8 C 336.5,240.8 333.7,240.7 331.0,240.3 C 331.0,240.3 328.3,240.0 325.5,239.5 C 325.5,239.5 322.7,239.0 320.0,238.3 C 320.0,238.3 317.3,237.7 314.5,236.8 C 314.5,236.8 311.7,236.0 309.0,234.8 C 309.0,234.8 306.3,233.7 303.5,232.3 C 303.5,232.3 300.7,231.0 298.0,229.7 C 298.0,229.7 295.3,228.3 292.5,226.8 C 292.5,226.8 289.7,225.3 287.2,223.8 C 287.2,223.8 284.7,222.3 282.2,220.7 C 282.2,220.7 279.7,219.0 277.2,217.5 C 277.2,217.5 274.7,216.0 272.0,214.5 C 272.0,214.5 269.3,213.0 266.8,211.5 C 266.8,211.5 264.3,210.0 261.8,208.5 C 261.8,208.5 259.3,207.0 256.7,205.5 C 256.7,205.5 254.0,204.0 251.2,202.5 C 251.2,202.5 248.3,201.0 245.7,199.3 C 245.7,199.3 243.0,197.7 240.5,196.0 C 240.5,196.0 238.0,194.3 235.5,192.8 C 235.5,192.8 233.0,191.3 230.5,190.0 C 230.5,190.0 228.0,188.7 225.7,187.3 C 225.7,187.3 223.3,186.0 221.2,184.7 C 221.2,184.7 219.0,183.3 217.0,182.2 C 217.0,182.2 215.0,181.0 213.2,180.0 C 213.2,180.0 211.3,179.0 209.5,178.0 C 209.5,178.0 207.7,177.0 206.0,176.2 C 206.0,176.2 204.3,175.3 202.5,174.7 C 202.5,174.7 200.7,174.0 198.7,173.7 C 198.7,173.7 196.7,173.3 194.5,173.2 C 194.5,173.2 192.3,173.0 190.2,173.0 C 190.2,173.0 188.0,173.0 186.0,173.0 C 186.0,173.0 184.0,173.0 181.8,173.2 C 181.8,173.2 179.7,173.3 177.5,173.7 C 177.5,173.7 175.3,174.0 173.2,174.7 C 173.2,174.7 171.0,175.3 169.0,176.2 C 169.0,176.2 167.0,177.0 165.2,178.2 C 165.2,178.2 163.3,179.3 161.5,180.5 C 161.5,180.5 159.7,181.7 157.8,183.0 C 157.8,183.0 156.0,184.3 154.0,185.5 C 154.0,185.5 152.0,186.7 150.0,187.8 C 150.0,187.8 148.0,189.0 145.8,189.8 C 145.8,189.8 143.7,190.7 141.5,191.2 C 141.5,191.2 139.3,191.7 137.2,191.8 C 137.2,191.8 135.0,192.0 132.8,192.0 C 132.8,192.0 130.7,192.0 128.5,191.8 C 128.5,191.8 126.3,191.7 124.2,191.3 C 124.2,191.3 122.0,191.0 120.0,190.3 C 120.0,190.3 118.0,189.7 116.0,188.8 C 116.0,188.8 114.0,188.0 112.0,186.7 C 112.0,186.7 110.0,185.3 108.2,183.8 C 108.2,183.8 106.3,182.3 104.7,180.7 C 104.7,180.7 103.0,179.0 101.5,177.5 C 101.5,177.5 100.0,176.0 98.3,174.7 C 98.3,174.7 96.7,173.3 95.0,172.2 C 95.0,172.2 93.3,171.0 91.5,169.8 C 91.5,169.8 89.7,168.7 87.8,167.7 C 87.8,167.7 86.0,166.7 84.2,165.8 C 84.2,165.8 82.3,165.0 80.5,164.5 C 80.5,164.5 78.7,164.0 76.8,163.7 C 76.8,163.7 75.0,163.3 73.0,163.2 C 73.0,163.2 71.0,163.0 69.0,163.2 C 69.0,163.2 67.0,163.3 65.0,163.7 C 65.0,163.7 63.0,164.0 61.0,164.5 C 61.0,164.5 59.0,165.0 57.2,165.5 C 57.2,165.5 55.3,166.0 53.5,166.5 C 53.5,166.5 51.7,167.0 49.8,167.7 C 49.8,167.7 48.0,168.3 46.2,169.0 C 46.2,169.0 44.3,169.7 42.7,170.5 C 42.7,170.5 41.0,171.3 39.5,172.2 C 39.5,172.2 38.0,173.0 36.7,174.0 C 36.7,174.0 35.3,175.0 34.0,176.2 C 34.0,176.2 32.7,177.3 31.5,178.5 C 31.5,178.5 30.3,179.7 29.2,181.2 C 29.2,181.2 28.0,182.7 27.0,184.3 C 27.0,184.3 26.0,186.0 25.0,187.8 C 25.0,187.8 24.0,189.7 23.2,191.5 C 23.2,191.5 22.3,193.3 21.7,195.0 C 21.7,195.0 21.0,196.7 20.7,198.5 C 20.7,198.5 20.3,200.3 20.2,202.2 C 20.2,202.2 20.0,204.0 20.0,205.8 C 20.0,205.8 20.0,207.7 20.3,209.5 C 20.3,209.5 20.7,211.3 21.2,213.0 C 21.2,213.0 21.7,214.7 22.5,216.3 C 22.5,216.3 23.3,218.0 24.3,219.3 C 24.3,219.3 25.3,220.7 26.7,221.8 C 26.7,221.8 28.0,223.0 29.7,223.8 C 29.7,223.8 31.3,224.7 33.0,225.2 C 33.0,225.2 34.7,225.7 36.5,225.8 C 36.5,225.8 38.3,226.0 40.0,225.8 C 40.0,225.8 41.7,225.7 43.5,225.5 C 43.5,225.5 45.3,225.3 47.2,225.0 C 47.2,225.0 49.0,224.7 51.0,224.5 C 51.0,224.5 53.0,224.3 55.0,224.2 C 55.0,224.2 57.0,224.0 59.2,224.0 C 59.2,224.0 61.3,224.0 63.7,224.2 C 63.7,224.2 66.0,224.3 68.3,224.7 C 68.3,224.7 70.7,225.0 73.0,225.5 C 73.0,225.5 75.3,226.0 77.8,226.5 C 77.8,226.5 80.3,227.0 84.7,228.0 L 89,229" stroke="#374151" stroke-width="8" fill="none" vector-effect="non-scaling-stroke"/><path d="M 271,37 C 272.5,38.0 274.0,39.0 275.5,39.8 C 275.5,39.8 277.0,40.7 280.0,42.3 C 280.0,42.3 283.0,44.0 286.0,45.7 C 286.0,45.7 289.0,47.3 292.0,49.2 C 292.0,49.2 295.0,51.0 298.0,53.0 C 298.0,53.0 301.0,55.0 304.2,56.8 C 304.2,56.8 307.3,58.7 310.5,60.5 C 310.5,60.5 313.7,62.3 317.0,64.2 C 317.0,64.2 320.3,66.0 323.5,68.0 C 323.5,68.0 326.7,70.0 329.8,71.8 C 329.8,71.8 333.0,73.7 336.3,75.7 C 336.3,75.7 339.7,77.7 343.2,79.7 C 343.2,79.7 346.7,81.7 350.3,84.0 C 350.3,84.0 354.0,86.3 357.5,88.5 C 357.5,88.5 361.0,90.7 364.7,92.8 C 364.7,92.8 368.3,95.0 371.8,97.0 C 371.8,97.0 375.3,99.0 378.7,100.8 C 378.7,100.8 382.0,102.7 385.0,104.5 C 385.0,104.5 388.0,106.3 390.8,108.0 C 390.8,108.0 393.7,109.7 396.3,111.3 C 396.3,111.3 399.0,113.0 401.3,114.5 C 401.3,114.5 403.7,116.0 405.8,117.3 C 405.8,117.3 408.0,118.7 410.0,119.8 C 410.0,119.8 412.0,121.0 413.8,122.0 C 413.8,122.0 415.7,123.0 417.3,124.0 C 417.3,124.0 419.0,125.0 420.5,125.8 C 420.5,125.8 422.0,126.7 423.5,127.5 C 423.5,127.5 425.0,128.3 426.3,129.0 C 426.3,129.0 427.7,129.7 428.8,130.5 C 428.8,130.5 430.0,131.3 431.0,132.2 C 431.0,132.2 432.0,133.0 432.8,134.0 C 432.8,134.0 433.7,135.0 434.3,136.0 C 434.3,136.0 435.0,137.0 435.3,138.0 C 435.3,138.0 435.7,139.0 435.8,140.0 C 435.8,140.0 436.0,141.0 435.8,142.2 C 435.8,142.2 435.7,143.3 435.3,144.5 C 435.3,144.5 435.0,145.7 434.3,146.8 C 434.3,146.8 433.7,148.0 432.7,149.2 C 432.7,149.2 431.7,150.3 430.5,151.3 C 430.5,151.3 429.3,152.3 428.0,153.3 C 428.0,153.3 426.7,154.3 425.3,155.3 C 425.3,155.3 424.0,156.3 422.5,157.5 C 422.5,157.5 421.0,158.7 419.7,159.8 C 419.7,159.8 418.3,161.0 417.2,162.2 C 417.2,162.2 416.0,163.3 415.0,164.7 C 415.0,164.7 414.0,166.0 413.0,167.5 C 413.0,167.5 412.0,169.0 411.2,170.3 C 411.2,170.3 410.3,171.7 409.7,173.2 C 409.7,173.2 409.0,174.7 408.7,176.2 C 408.7,176.2 408.3,177.7 408.2,179.5 C 408.2,179.5 408.0,181.3 408.2,183.0 C 408.2,183.0 408.3,184.7 408.5,186.5 C 408.5,186.5 408.7,188.3 409.0,190.2 C 409.0,190.2 409.3,192.0 409.3,194.2 C 409.3,194.2 409.3,196.3 409.2,198.5 C 409.2,198.5 409.0,200.7 408.5,202.7 C 408.5,202.7 408.0,204.7 407.5,206.5 C 407.5,206.5 407.0,208.3 406.2,210.2 C 406.2,210.2 405.3,212.0 404.2,214.0 C 404.2,214.0 403.0,216.0 401.7,217.7 C 401.7,217.7 400.3,219.3 398.8,221.0 C 398.8,221.0 397.3,222.7 395.7,224.0 C 395.7,224.0 394.0,225.3 391.8,226.8 C 391.8,226.8 389.7,228.3 387.5,229.5 C 387.5,229.5 385.3,230.7 383.0,231.8 C 383.0,231.8 380.7,233.0 378.3,234.0 C 378.3,234.0 376.0,235.0 373.5,235.8 C 373.5,235.8 371.0,236.7 368.5,237.3 C 368.5,237.3 366.0,238.0 363.5,238.5 C 363.5,238.5 361.0,239.0 358.5,239.5 C 358.5,239.5 356.0,240.0 353.3,240.3 C 353.3,240.3 350.7,240.7 347.8,240.8 C 347.8,240.8 345.0,241.0 342.2,241.0 C 342.2,241.0 339.3,241.0 336.5,240.8 C 336.5,240.8 333.7,240.7 331.0,240.3 C 331.0,240.3 328.3,240.0 325.5,239.5 C 325.5,239.5 322.7,239.0 320.0,238.3 C 320.0,238.3 317.3,237.7 314.5,236.8 C 314.5,236.8 311.7,236.0 309.0,234.8 C 309.0,234.8 306.3,233.7 303.5,232.3 C 303.5,232.3 300.7,231.0 298.0,229.7 C 298.0,229.7 295.3,228.3 292.5,226.8 C 292.5,226.8 289.7,225.3 287.2,223.8 C 287.2,223.8 284.7,222.3 282.2,220.7 C 282.2,220.7 279.7,219.0 277.2,217.5 C 277.2,217.5 274.7,216.0 272.0,214.5 C 272.0,214.5 269.3,213.0 266.8,211.5 C 266.8,211.5 264.3,210.0 261.8,208.5 C 261.8,208.5 259.3,207.0 256.7,205.5 C 256.7,205.5 254.0,204.0 251.2,202.5 C 251.2,202.5 248.3,201.0 245.7,199.3 C 245.7,199.3 243.0,197.7 240.5,196.0 C 240.5,196.0 238.0,194.3 235.5,192.8 C 235.5,192.8 233.0,191.3 230.5,190.0 C 230.5,190.0 228.0,188.7 225.7,187.3 C 225.7,187.3 223.3,186.0 221.2,184.7 C 221.2,184.7 219.0,183.3 217.0,182.2 C 217.0,182.2 215.0,181.0 213.2,180.0 C 213.2,180.0 211.3,179.0 209.5,178.0 C 209.5,178.0 207.7,177.0 206.0,176.2 C 206.0,176.2 204.3,175.3 202.5,174.7 C 202.5,174.7 200.7,174.0 198.7,173.7 C 198.7,173.7 196.7,173.3 194.5,173.2 C 194.5,173.2 192.3,173.0 190.2,173.0 C 190.2,173.0 188.0,173.0 186.0,173.0 C 186.0,173.0 184.0,173.0 181.8,173.2 C 181.8,173.2 179.7,173.3 177.5,173.7 C 177.5,173.7 175.3,174.0 173.2,174.7 C 173.2,174.7 171.0,175.3 169.0,176.2 C 169.0,176.2 167.0,177.0 165.2,178.2 C 165.2,178.2 163.3,179.3 161.5,180.5 C 161.5,180.5 159.7,181.7 157.8,183.0 C 157.8,183.0 156.0,184.3 154.0,185.5 C 154.0,185.5 152.0,186.7 150.0,187.8 C 150.0,187.8 148.0,189.0 145.8,189.8 C 145.8,189.8 143.7,190.7 141.5,191.2 C 141.5,191.2 139.3,191.7 137.2,191.8 C 137.2,191.8 135.0,192.0 132.8,192.0 C 132.8,192.0 130.7,192.0 128.5,191.8 C 128.5,191.8 126.3,191.7 124.2,191.3 C 124.2,191.3 122.0,191.0 120.0,190.3 C 120.0,190.3 118.0,189.7 116.0,188.8 C 116.0,188.8 114.0,188.0 112.0,186.7 C 112.0,186.7 110.0,185.3 108.2,183.8 C 108.2,183.8 106.3,182.3 104.7,180.7 C 104.7,180.7 103.0,179.0 101.5,177.5 C 101.5,177.5 100.0,176.0 98.3,174.7 C 98.3,174.7 96.7,173.3 95.0,172.2 C 95.0,172.2 93.3,171.0 91.5,169.8 C 91.5,169.8 89.7,168.7 87.8,167.7 C 87.8,167.7 86.0,166.7 84.2,165.8 C 84.2,165.8 82.3,165.0 80.5,164.5 C 80.5,164.5 78.7,164.0 76.8,163.7 C 76.8,163.7 75.0,163.3 73.0,163.2 C 73.0,163.2 71.0,163.0 69.0,163.2 C 69.0,163.2 67.0,163.3 65.0,163.7 C 65.0,163.7 63.0,164.0 61.0,164.5 C 61.0,164.5 59.0,165.0 57.2,165.5 C 57.2,165.5 55.3,166.0 53.5,166.5 C 53.5,166.5 51.7,167.0 49.8,167.7 C 49.8,167.7 48.0,168.3 46.2,169.0 C 46.2,169.0 44.3,169.7 42.7,170.5 C 42.7,170.5 41.0,171.3 39.5,172.2 C 39.5,172.2 38.0,173.0 36.7,174.0 C 36.7,174.0 35.3,175.0 34.0,176.2 C 34.0,176.2 32.7,177.3 31.5,178.5 C 31.5,178.5 30.3,179.7 29.2,181.2 C 29.2,181.2 28.0,182.7 27.0,184.3 C 27.0,184.3 26.0,186.0 25.0,187.8 C 25.0,187.8 24.0,189.7 23.2,191.5 C 23.2,191.5 22.3,193.3 21.7,195.0 C 21.7,195.0 21.0,196.7 20.7,198.5 C 20.7,198.5 20.3,200.3 20.2,202.2 C 20.2,202.2 20.0,204.0 20.0,205.8 C 20.0,205.8 20.0,207.7 20.3,209.5 C 20.3,209.5 20.7,211.3 21.2,213.0 C 21.2,213.0 21.7,214.7 22.5,216.3 C 22.5,216.3 23.3,218.0 24.3,219.3 C 24.3,219.3 25.3,220.7 26.7,221.8 C 26.7,221.8 28.0,223.0 29.7,223.8 C 29.7,223.8 31.3,224.7 33.0,225.2 C 33.0,225.2 34.7,225.7 36.5,225.8 C 36.5,225.8 38.3,226.0 40.0,225.8 C 40.0,225.8 41.7,225.7 43.5,225.5 C 43.5,225.5 45.3,225.3 47.2,225.0 C 47.2,225.0 49.0,224.7 51.0,224.5 C 51.0,224.5 53.0,224.3 55.0,224.2 C 55.0,224.2 57.0,224.0 59.2,224.0 C 59.2,224.0 61.3,224.0 63.7,224.2 C 63.7,224.2 66.0,224.3 68.3,224.7 C 68.3,224.7 70.7,225.0 73.0,225.5 C 73.0,225.5 75.3,226.0 77.8,226.5 C 77.8,226.5 80.3,227.0 84.7,228.0 L 89,229" stroke="#EF4444" stroke-width="2" fill="none" vector-effect="non-scaling-stroke"/><path d="M 89,229 C 90.8,229.2 92.5,229.5 94.1,229.8 C 94.1,229.8 95.7,230.0 98.8,230.7 C 98.8,230.7 102.0,231.3 105.0,232.0 C 105.0,232.0 108.0,232.7 111.0,233.3 C 111.0,233.3 114.0,234.0 117.0,234.5 C 117.0,234.5 120.0,235.0 123.2,235.5 C 123.2,235.5 126.3,236.0 129.7,236.3 C 129.7,236.3 133.0,236.7 136.5,236.7 C 136.5,236.7 140.0,236.7 143.3,236.5 C 143.3,236.5 146.7,236.3 150.0,236.2 C 150.0,236.2 153.3,236.0 156.7,236.0 C 156.7,236.0 160.0,236.0 163.5,235.8 C 163.5,235.8 167.0,235.7 170.5,235.5 C 170.5,235.5 174.0,235.3 177.7,235.2 C 177.7,235.2 181.3,235.0 185.0,235.0 C 185.0,235.0 188.7,235.0 192.5,234.8 C 192.5,234.8 196.3,234.7 200.0,234.5 C 200.0,234.5 203.7,234.3 207.5,234.2 C 207.5,234.2 211.3,234.0 215.2,234.0 C 215.2,234.0 219.0,234.0 222.8,233.8 C 222.8,233.8 226.7,233.7 230.5,233.5 C 230.5,233.5 234.3,233.3 238.0,233.3 C 238.0,233.3 241.7,233.3 245.7,233.7 C 245.7,233.7 249.7,234.0 253.5,234.5 C 253.5,234.5 257.3,235.0 261.2,235.7 C 261.2,235.7 265.0,236.3 268.7,237.3 C 268.7,237.3 272.3,238.3 276.0,239.5 C 276.0,239.5 279.7,240.7 283.5,242.0 C 283.5,242.0 287.3,243.3 291.2,244.7 C 291.2,244.7 295.0,246.0 299.0,247.3 C 299.0,247.3 303.0,248.7 307.0,250.0 C 307.0,250.0 311.0,251.3 314.8,252.7 C 314.8,252.7 318.7,254.0 322.5,255.3 C 322.5,255.3 326.3,256.7 330.0,257.8 C 330.0,257.8 333.7,259.0 337.7,260.0 C 337.7,260.0 341.7,261.0 345.7,261.8 C 345.7,261.8 349.7,262.7 353.8,263.3 C 353.8,263.3 358.0,264.0 362.0,264.5 C 362.0,264.5 366.0,265.0 370.2,265.3 C 370.2,265.3 374.3,265.7 378.5,265.8 C 378.5,265.8 382.7,266.0 386.8,266.0 C 386.8,266.0 391.0,266.0 395.0,265.8 C 395.0,265.8 399.0,265.7 403.0,265.3 C 403.0,265.3 407.0,265.0 411.2,264.5 C 411.2,264.5 415.3,264.0 419.3,263.3 C 419.3,263.3 423.3,262.7 427.3,261.8 C 427.3,261.8 431.3,261.0 435.2,260.0 C 435.2,260.0 439.0,259.0 443.0,257.8 C 443.0,257.8 447.0,256.7 451.0,255.3 C 451.0,255.3 455.0,254.0 459.0,252.5 C 459.0,252.5 463.0,251.0 466.8,249.7 C 466.8,249.7 470.7,248.3 474.5,247.0 C 474.5,247.0 478.3,245.7 482.2,244.5 C 482.2,244.5 486.0,243.3 489.7,242.0 C 489.7,242.0 493.3,240.7 496.8,239.5 C 496.8,239.5 500.3,238.3 503.5,237.0 C 503.5,237.0 506.7,235.7 510.2,234.5 C 510.2,234.5 513.7,233.3 517.0,232.0 C 517.0,232.0 520.3,230.7 523.7,229.5 C 523.7,229.5 527.0,228.3 530.0,227.2 C 530.0,227.2 533.0,226.0 536.0,224.8 C 536.0,224.8 539.0,223.7 542.2,222.3 C 542.2,222.3 545.3,221.0 548.5,219.7 C 548.5,219.7 551.7,218.3 554.7,217.0 C 554.7,217.0 557.7,215.7 560.5,214.5 C 560.5,214.5 563.3,213.3 566.2,212.0 C 566.2,212.0 569.0,210.7 572.0,209.3 C 572.0,209.3 575.0,208.0 578.0,206.5 C 578.0,206.5 581.0,205.0 584.0,203.5 C 584.0,203.5 587.0,202.0 589.8,200.5 C 589.8,200.5 592.7,199.0 596.8,196.7 C 596.8,196.7 601.0,194.3 606.7,191.0 C 606.7,191.0 612.3,187.7 618.2,184.2 C 618.2,184.2 624.0,180.7 627.8,178.2 C 627.8,178.2 631.7,175.7 633.3,174.5 C 633.3,174.5 635.0,173.3 636.0,172.5 C 636.0,172.5 637.0,171.7 637.8,171.0 C 637.8,171.0 638.7,170.3 639.3,169.3 C 639.3,169.3 640.0,168.3 640.3,167.3 C 640.3,167.3 640.7,166.3 640.8,165.2 C 640.8,165.2 641.0,164.0 640.8,163.0 C 640.8,163.0 640.7,162.0 640.3,161.0 C 640.3,161.0 640.0,160.0 639.2,159.0 C 639.2,159.0 638.3,158.0 637.3,157.0 C 637.3,157.0 636.3,156.0 635.0,155.2 C 635.0,155.2 633.7,154.3 632.5,153.7 C 632.5,153.7 631.3,153.0 629.8,152.3 C 629.8,152.3 628.3,151.7 627.0,150.8 C 627.0,150.8 625.7,150.0 624.3,148.8 C 624.3,148.8 623.0,147.7 622.0,146.5 C 622.0,146.5 621.0,145.3 620.0,144.0 C 620.0,144.0 619.0,142.7 618.2,141.3 C 618.2,141.3 617.3,140.0 616.7,138.5 C 616.7,138.5 616.0,137.0 615.5,135.5 C 615.5,135.5 615.0,134.0 614.7,132.5 C 614.7,132.5 614.3,131.0 614.3,129.5 C 614.3,129.5 614.3,128.0 614.7,126.5 C 614.7,126.5 615.0,125.0 615.5,123.5 C 615.5,123.5 616.0,122.0 616.5,120.5 C 616.5,120.5 617.0,119.0 617.8,117.7 C 617.8,117.7 618.7,116.3 619.7,115.2 C 619.7,115.2 620.7,114.0 622.0,113.2 C 622.0,113.2 623.3,112.3 624.7,111.7 C 624.7,111.7 626.0,111.0 627.5,110.7 C 627.5,110.7 629.0,110.3 630.5,110.2 C 630.5,110.2 632.0,110.0 633.5,110.0 C 633.5,110.0 635.0,110.0 636.5,110.2 C 636.5,110.2 638.0,110.3 639.5,110.5 C 639.5,110.5 641.0,110.7 642.5,110.8 C 642.5,110.8 644.0,111.0 645.7,111.0 C 645.7,111.0 647.3,111.0 649.0,111.0 C 649.0,111.0 650.7,111.0 652.2,110.8 C 652.2,110.8 653.7,110.7 655.0,110.3 C 655.0,110.3 656.3,110.0 657.7,109.5 C 657.7,109.5 659.0,109.0 660.5,108.2 C 660.5,108.2 662.0,107.3 663.3,106.3 C 663.3,106.3 664.7,105.3 665.8,104.2 C 665.8,104.2 667.0,103.0 667.8,101.8 C 667.8,101.8 668.7,100.7 669.5,99.5 C 669.5,99.5 670.3,98.3 671.0,97.2 C 671.0,97.2 671.7,96.0 672.5,95.0 C 672.5,95.0 673.3,94.0 674.0,93.0 C 674.0,93.0 674.7,92.0 675.3,91.0 C 675.3,91.0 676.0,90.0 676.3,89.2 C 676.3,89.2 676.7,88.3 677.0,87.7 C 677.0,87.7 677.3,87.0 677.7,86.5 C 677.7,86.5 678.0,86.0 678.5,85.5 C 678.5,85.5 679.0,85.0 679.3,84.3 C 679.3,84.3 679.7,83.7 679.8,83.0 C 679.8,83.0 680.0,82.3 680.0,81.7 C 680.0,81.7 680.0,81.0 680.0,80.5 C 680.0,80.5 680.0,80.0 679.8,79.5 C 679.8,79.5 679.7,79.0 679.3,78.5 C 679.3,78.5 679.0,78.0 678.5,77.5 C 678.5,77.5 678.0,77.0 677.7,76.7 C 677.7,76.7 677.3,76.3 677.0,76.2 C 677.0,76.2 676.7,76.0 676.3,75.8 C 676.3,75.8 676.0,75.7 675.5,75.5 C 675.5,75.5 675.0,75.3 674.5,75.0 C 674.5,75.0 674.0,74.7 673.5,74.5 C 673.5,74.5 673.0,74.3 672.7,74.0 C 672.7,74.0 672.3,73.7 672.0,73.3 C 672.0,73.3 671.7,73.0 671.3,72.3 C 671.3,72.3 671.0,71.7 670.7,71.0 C 670.7,71.0 670.3,70.3 670.2,69.5 C 670.2,69.5 670.0,68.7 670.2,68.0 C 670.2,68.0 670.3,67.3 670.5,66.5 C 670.5,66.5 670.7,65.7 671.0,64.8 C 671.0,64.8 671.3,64.0 671.7,63.0 C 671.7,63.0 672.0,62.0 672.3,60.8 C 672.3,60.8 672.7,59.7 673.0,58.3 C 673.0,58.3 673.3,57.0 673.7,55.7 C 673.7,55.7 674.0,54.3 674.5,53.0 C 674.5,53.0 675.0,51.7 675.3,50.5 C 675.3,50.5 675.7,49.3 676.0,48.2 C 676.0,48.2 676.3,47.0 676.5,46.0 C 676.5,46.0 676.7,45.0 677.0,44.2 C 677.0,44.2 677.3,43.3 677.5,42.5 C 677.5,42.5 677.7,41.7 677.8,40.8 C 677.8,40.8 678.0,40.0 678.0,39.2 C 678.0,39.2 678.0,38.3 677.8,37.5 C 677.8,37.5 677.7,36.7 677.3,36.0 C 677.3,36.0 677.0,35.3 676.5,34.7 C 676.5,34.7 676.0,34.0 675.5,33.5 C 675.5,33.5 675.0,33.0 674.3,32.5 C 674.3,32.5 673.7,32.0 672.8,31.7 C 672.8,31.7 672.0,31.3 671.0,31.0 C 671.0,31.0 670.0,30.7 668.8,30.5 C 668.8,30.5 667.7,30.3 666.3,30.2 C 666.3,30.2 665.0,30.0 663.3,30.0 C 663.3,30.0 661.7,30.0 659.8,30.0 C 659.8,30.0 658.0,30.0 655.8,30.0 C 655.8,30.0 653.7,30.0 651.2,30.0 C 651.2,30.0 648.7,30.0 645.8,30.0 L 643,30" stroke="#374151" stroke-width="8" fill="none" vector-effect="non-scaling-stroke"/><path d="M 89,229 C 90.8,229.2 92.5,229.5 94.1,229.8 C 94.1,229.8 95.7,230.0 98.8,230.7 C 98.8,230.7 102.0,231.3 105.0,232.0 C 105.0,232.0 108.0,232.7 111.0,233.3 C 111.0,233.3 114.0,234.0 117.0,234.5 C 117.0,234.5 120.0,235.0 123.2,235.5 C 123.2,235.5 126.3,236.0 129.7,236.3 C 129.7,236.3 133.0,236.7 136.5,236.7 C 136.5,236.7 140.0,236.7 143.3,236.5 C 143.3,236.5 146.7,236.3 150.0,236.2 C 150.0,236.2 153.3,236.0 156.7,236.0 C 156.7,236.0 160.0,236.0 163.5,235.8 C 163.5,235.8 167.0,235.7 170.5,235.5 C 170.5,235.5 174.0,235.3 177.7,235.2 C 177.7,235.2 181.3,235.0 185.0,235.0 C 185.0,235.0 188.7,235.0 192.5,234.8 C 192.5,234.8 196.3,234.7 200.0,234.5 C 200.0,234.5 203.7,234.3 207.5,234.2 C 207.5,234.2 211.3,234.0 215.2,234.0 C 215.2,234.0 219.0,234.0 222.8,233.8 C 222.8,233.8 226.7,233.7 230.5,233.5 C 230.5,233.5 234.3,233.3 238.0,233.3 C 238.0,233.3 241.7,233.3 245.7,233.7 C 245.7,233.7 249.7,234.0 253.5,234.5 C 253.5,234.5 257.3,235.0 261.2,235.7 C 261.2,235.7 265.0,236.3 268.7,237.3 C 268.7,237.3 272.3,238.3 276.0,239.5 C 276.0,239.5 279.7,240.7 283.5,242.0 C 283.5,242.0 287.3,243.3 291.2,244.7 C 291.2,244.7 295.0,246.0 299.0,247.3 C 299.0,247.3 303.0,248.7 307.0,250.0 C 307.0,250.0 311.0,251.3 314.8,252.7 C 314.8,252.7 318.7,254.0 322.5,255.3 C 322.5,255.3 326.3,256.7 330.0,257.8 C 330.0,257.8 333.7,259.0 337.7,260.0 C 337.7,260.0 341.7,261.0 345.7,261.8 C 345.7,261.8 349.7,262.7 353.8,263.3 C 353.8,263.3 358.0,264.0 362.0,264.5 C 362.0,264.5 366.0,265.0 370.2,265.3 C 370.2,265.3 374.3,265.7 378.5,265.8 C 378.5,265.8 382.7,266.0 386.8,266.0 C 386.8,266.0 391.0,266.0 395.0,265.8 C 395.0,265.8 399.0,265.7 403.0,265.3 C 403.0,265.3 407.0,265.0 411.2,264.5 C 411.2,264.5 415.3,264.0 419.3,263.3 C 419.3,263.3 423.3,262.7 427.3,261.8 C 427.3,261.8 431.3,261.0 435.2,260.0 C 435.2,260.0 439.0,259.0 443.0,257.8 C 443.0,257.8 447.0,256.7 451.0,255.3 C 451.0,255.3 455.0,254.0 459.0,252.5 C 459.0,252.5 463.0,251.0 466.8,249.7 C 466.8,249.7 470.7,248.3 474.5,247.0 C 474.5,247.0 478.3,245.7 482.2,244.5 C 482.2,244.5 486.0,243.3 489.7,242.0 C 489.7,242.0 493.3,240.7 496.8,239.5 C 496.8,239.5 500.3,238.3 503.5,237.0 C 503.5,237.0 506.7,235.7 510.2,234.5 C 510.2,234.5 513.7,233.3 517.0,232.0 C 517.0,232.0 520.3,230.7 523.7,229.5 C 523.7,229.5 527.0,228.3 530.0,227.2 C 530.0,227.2 533.0,226.0 536.0,224.8 C 536.0,224.8 539.0,223.7 542.2,222.3 C 542.2,222.3 545.3,221.0 548.5,219.7 C 548.5,219.7 551.7,218.3 554.7,217.0 C 554.7,217.0 557.7,215.7 560.5,214.5 C 560.5,214.5 563.3,213.3 566.2,212.0 C 566.2,212.0 569.0,210.7 572.0,209.3 C 572.0,209.3 575.0,208.0 578.0,206.5 C 578.0,206.5 581.0,205.0 584.0,203.5 C 584.0,203.5 587.0,202.0 589.8,200.5 C 589.8,200.5 592.7,199.0 596.8,196.7 C 596.8,196.7 601.0,194.3 606.7,191.0 C 606.7,191.0 612.3,187.7 618.2,184.2 C 618.2,184.2 624.0,180.7 627.8,178.2 C 627.8,178.2 631.7,175.7 633.3,174.5 C 633.3,174.5 635.0,173.3 636.0,172.5 C 636.0,172.5 637.0,171.7 637.8,171.0 C 637.8,171.0 638.7,170.3 639.3,169.3 C 639.3,169.3 640.0,168.3 640.3,167.3 C 640.3,167.3 640.7,166.3 640.8,165.2 C 640.8,165.2 641.0,164.0 640.8,163.0 C 640.8,163.0 640.7,162.0 640.3,161.0 C 640.3,161.0 640.0,160.0 639.2,159.0 C 639.2,159.0 638.3,158.0 637.3,157.0 C 637.3,157.0 636.3,156.0 635.0,155.2 C 635.0,155.2 633.7,154.3 632.5,153.7 C 632.5,153.7 631.3,153.0 629.8,152.3 C 629.8,152.3 628.3,151.7 627.0,150.8 C 627.0,150.8 625.7,150.0 624.3,148.8 C 624.3,148.8 623.0,147.7 622.0,146.5 C 622.0,146.5 621.0,145.3 620.0,144.0 C 620.0,144.0 619.0,142.7 618.2,141.3 C 618.2,141.3 617.3,140.0 616.7,138.5 C 616.7,138.5 616.0,137.0 615.5,135.5 C 615.5,135.5 615.0,134.0 614.7,132.5 C 614.7,132.5 614.3,131.0 614.3,129.5 C 614.3,129.5 614.3,128.0 614.7,126.5 C 614.7,126.5 615.0,125.0 615.5,123.5 C 615.5,123.5 616.0,122.0 616.5,120.5 C 616.5,120.5 617.0,119.0 617.8,117.7 C 617.8,117.7 618.7,116.3 619.7,115.2 C 619.7,115.2 620.7,114.0 622.0,113.2 C 622.0,113.2 623.3,112.3 624.7,111.7 C 624.7,111.7 626.0,111.0 627.5,110.7 C 627.5,110.7 629.0,110.3 630.5,110.2 C 630.5,110.2 632.0,110.0 633.5,110.0 C 633.5,110.0 635.0,110.0 636.5,110.2 C 636.5,110.2 638.0,110.3 639.5,110.5 C 639.5,110.5 641.0,110.7 642.5,110.8 C 642.5,110.8 644.0,111.0 645.7,111.0 C 645.7,111.0 647.3,111.0 649.0,111.0 C 649.0,111.0 650.7,111.0 652.2,110.8 C 652.2,110.8 653.7,110.7 655.0,110.3 C 655.0,110.3 656.3,110.0 657.7,109.5 C 657.7,109.5 659.0,109.0 660.5,108.2 C 660.5,108.2 662.0,107.3 663.3,106.3 C 663.3,106.3 664.7,105.3 665.8,104.2 C 665.8,104.2 667.0,103.0 667.8,101.8 C 667.8,101.8 668.7,100.7 669.5,99.5 C 669.5,99.5 670.3,98.3 671.0,97.2 C 671.0,97.2 671.7,96.0 672.5,95.0 C 672.5,95.0 673.3,94.0 674.0,93.0 C 674.0,93.0 674.7,92.0 675.3,91.0 C 675.3,91.0 676.0,90.0 676.3,89.2 C 676.3,89.2 676.7,88.3 677.0,87.7 C 677.0,87.7 677.3,87.0 677.7,86.5 C 677.7,86.5 678.0,86.0 678.5,85.5 C 678.5,85.5 679.0,85.0 679.3,84.3 C 679.3,84.3 679.7,83.7 679.8,83.0 C 679.8,83.0 680.0,82.3 680.0,81.7 C 680.0,81.7 680.0,81.0 680.0,80.5 C 680.0,80.5 680.0,80.0 679.8,79.5 C 679.8,79.5 679.7,79.0 679.3,78.5 C 679.3,78.5 679.0,78.0 678.5,77.5 C 678.5,77.5 678.0,77.0 677.7,76.7 C 677.7,76.7 677.3,76.3 677.0,76.2 C 677.0,76.2 676.7,76.0 676.3,75.8 C 676.3,75.8 676.0,75.7 675.5,75.5 C 675.5,75.5 675.0,75.3 674.5,75.0 C 674.5,75.0 674.0,74.7 673.5,74.5 C 673.5,74.5 673.0,74.3 672.7,74.0 C 672.7,74.0 672.3,73.7 672.0,73.3 C 672.0,73.3 671.7,73.0 671.3,72.3 C 671.3,72.3 671.0,71.7 670.7,71.0 C 670.7,71.0 670.3,70.3 670.2,69.5 C 670.2,69.5 670.0,68.7 670.2,68.0 C 670.2,68.0 670.3,67.3 670.5,66.5 C 670.5,66.5 670.7,65.7 671.0,64.8 C 671.0,64.8 671.3,64.0 671.7,63.0 C 671.7,63.0 672.0,62.0 672.3,60.8 C 672.3,60.8 672.7,59.7 673.0,58.3 C 673.0,58.3 673.3,57.0 673.7,55.7 C 673.7,55.7 674.0,54.3 674.5,53.0 C 674.5,53.0 675.0,51.7 675.3,50.5 C 675.3,50.5 675.7,49.3 676.0,48.2 C 676.0,48.2 676.3,47.0 676.5,46.0 C 676.5,46.0 676.7,45.0 677.0,44.2 C 677.0,44.2 677.3,43.3 677.5,42.5 C 677.5,42.5 677.7,41.7 677.8,40.8 C 677.8,40.8 678.0,40.0 678.0,39.2 C 678.0,39.2 678.0,38.3 677.8,37.5 C 677.8,37.5 677.7,36.7 677.3,36.0 C 677.3,36.0 677.0,35.3 676.5,34.7 C 676.5,34.7 676.0,34.0 675.5,33.5 C 675.5,33.5 675.0,33.0 674.3,32.5 C 674.3,32.5 673.7,32.0 672.8,31.7 C 672.8,31.7 672.0,31.3 671.0,31.0 C 671.0,31.0 670.0,30.7 668.8,30.5 C 668.8,30.5 667.7,30.3 666.3,30.2 C 666.3,30.2 665.0,30.0 663.3,30.0 C 663.3,30.0 661.7,30.0 659.8,30.0 C 659.8,30.0 658.0,30.0 655.8,30.0 C 655.8,30.0 653.7,30.0 651.2,30.0 C 651.2,30.0 648.7,30.0 645.8,30.0 L 643,30" stroke="#3B82F6" stroke-width="2" fill="none" vector-effect="non-scaling-stroke"/><path d="M 643,30 C 641.5,29.8 640.0,29.5 638.3,29.4 C 638.3,29.4 636.7,29.3 633.3,29.2 C 633.3,29.2 630.0,29.0 626.7,29.0 C 626.7,29.0 623.3,29.0 619.8,28.8 C 619.8,28.8 616.3,28.7 612.7,28.5 C 612.7,28.5 609.0,28.3 604.8,28.2 C 604.8,28.2 600.7,28.0 596.3,27.8 C 596.3,27.8 592.0,27.7 587.5,27.5 C 587.5,27.5 583.0,27.3 578.3,27.0 C 578.3,27.0 573.7,26.7 569.0,26.5 C 569.0,26.5 564.3,26.3 559.5,26.2 C 559.5,26.2 554.7,26.0 549.7,26.0 C 549.7,26.0 544.7,26.0 539.5,25.8 C 539.5,25.8 534.3,25.7 529.2,25.5 C 529.2,25.5 524.0,25.3 519.0,25.0 C 519.0,25.0 514.0,24.7 508.8,24.5 C 508.8,24.5 503.7,24.3 498.7,24.2 C 498.7,24.2 493.7,24.0 488.5,23.8 C 488.5,23.8 483.3,23.7 478.7,23.5 C 478.7,23.5 474.0,23.3 469.3,23.2 C 469.3,23.2 464.7,23.0 460.5,23.0 C 460.5,23.0 456.3,23.0 452.0,23.0 C 452.0,23.0 447.7,23.0 443.3,23.0 C 443.3,23.0 439.0,23.0 434.5,23.0 C 434.5,23.0 430.0,23.0 425.7,23.0 C 425.7,23.0 421.3,23.0 417.2,23.0 C 417.2,23.0 413.0,23.0 408.8,22.8 C 408.8,22.8 404.7,22.7 400.3,22.5 C 400.3,22.5 396.0,22.3 391.5,22.2 C 391.5,22.2 387.0,22.0 382.7,21.8 C 382.7,21.8 378.3,21.7 374.0,21.5 C 374.0,21.5 369.7,21.3 365.5,21.0 C 365.5,21.0 361.3,20.7 357.2,20.5 C 357.2,20.5 353.0,20.3 348.7,20.2 C 348.7,20.2 344.3,20.0 339.8,20.0 C 339.8,20.0 335.3,20.0 330.7,20.0 C 330.7,20.0 326.0,20.0 321.7,19.8 C 321.7,19.8 317.3,19.7 313.0,19.5 C 313.0,19.5 308.7,19.3 304.5,19.2 C 304.5,19.2 300.3,19.0 296.0,18.8 C 296.0,18.8 291.7,18.7 287.5,18.5 C 287.5,18.5 283.3,18.3 278.8,18.0 C 278.8,18.0 274.3,17.7 270.2,17.5 C 270.2,17.5 266.0,17.3 261.8,17.2 C 261.8,17.2 257.7,17.0 253.8,17.0 C 253.8,17.0 250.0,17.0 246.2,16.8 C 246.2,16.8 242.3,16.7 238.7,16.5 C 238.7,16.5 235.0,16.3 231.5,16.2 C 231.5,16.2 228.0,16.0 224.7,16.0 C 224.7,16.0 221.3,16.0 218.2,15.8 C 218.2,15.8 215.0,15.7 212.0,15.5 C 212.0,15.5 209.0,15.3 206.2,15.2 C 206.2,15.2 203.3,15.0 200.7,14.8 C 200.7,14.8 198.0,14.7 195.3,14.5 C 195.3,14.5 192.7,14.3 190.0,14.2 C 190.0,14.2 187.3,14.0 184.7,13.8 C 184.7,13.8 182.0,13.7 179.5,13.5 C 179.5,13.5 177.0,13.3 174.7,13.2 C 174.7,13.2 172.3,13.0 170.0,13.0 C 170.0,13.0 167.7,13.0 165.3,13.0 C 165.3,13.0 163.0,13.0 160.7,13.0 C 160.7,13.0 158.3,13.0 156.0,13.0 C 156.0,13.0 153.7,13.0 151.5,13.0 C 151.5,13.0 149.3,13.0 147.2,13.0 C 147.2,13.0 145.0,13.0 143.0,12.8 C 143.0,12.8 141.0,12.7 139.2,12.5 C 139.2,12.5 137.3,12.3 135.7,12.2 C 135.7,12.2 134.0,12.0 132.5,12.0 C 132.5,12.0 131.0,12.0 129.5,12.0 C 129.5,12.0 128.0,12.0 126.5,12.0 C 126.5,12.0 125.0,12.0 123.7,11.8 C 123.7,11.8 122.3,11.7 121.2,11.5 C 121.2,11.5 120.0,11.3 118.8,11.2 C 118.8,11.2 117.7,11.0 116.5,11.0 C 116.5,11.0 115.3,11.0 114.2,11.0 C 114.2,11.0 113.0,11.0 112.0,11.0 C 112.0,11.0 111.0,11.0 110.2,11.0 C 110.2,11.0 109.3,11.0 108.5,11.0 C 108.5,11.0 107.7,11.0 106.8,11.0 C 106.8,11.0 106.0,11.0 105.2,11.2 C 105.2,11.2 104.3,11.3 103.5,11.7 C 103.5,11.7 102.7,12.0 102.0,12.5 C 102.0,12.5 101.3,13.0 100.7,13.5 C 100.7,13.5 100.0,14.0 99.5,14.7 C 99.5,14.7 99.0,15.3 98.7,16.0 C 98.7,16.0 98.3,16.7 98.2,17.5 C 98.2,17.5 98.0,18.3 98.0,19.0 C 98.0,19.0 98.0,19.7 98.2,20.5 C 98.2,20.5 98.3,21.3 98.7,22.0 C 98.7,22.0 99.0,22.7 99.3,23.5 C 99.3,23.5 99.7,24.3 100.2,25.0 C 100.2,25.0 100.7,25.7 101.3,26.5 C 101.3,26.5 102.0,27.3 103.2,28.2 C 103.2,28.2 104.3,29.0 105.5,30.0 C 105.5,30.0 106.7,31.0 108.2,32.2 C 108.2,32.2 109.7,33.3 111.2,34.5 C 111.2,34.5 112.7,35.7 114.5,37.0 C 114.5,37.0 116.3,38.3 118.3,39.7 C 118.3,39.7 120.3,41.0 122.5,42.3 C 122.5,42.3 124.7,43.7 127.0,45.0 C 127.0,45.0 129.3,46.3 131.8,47.3 C 131.8,47.3 134.3,48.3 137.0,49.2 C 137.0,49.2 139.7,50.0 142.5,50.5 C 142.5,50.5 145.3,51.0 148.2,51.2 C 148.2,51.2 151.0,51.3 154.0,51.2 C 154.0,51.2 157.0,51.0 160.0,50.2 C 160.0,50.2 163.0,49.3 165.8,48.3 C 165.8,48.3 168.7,47.3 171.5,46.0 C 171.5,46.0 174.3,44.7 177.2,43.3 C 177.2,43.3 180.0,42.0 183.0,40.5 C 183.0,40.5 186.0,39.0 189.2,37.5 C 189.2,37.5 192.3,36.0 195.7,34.7 C 195.7,34.7 199.0,33.3 202.5,32.3 C 202.5,32.3 206.0,31.3 209.3,30.7 C 209.3,30.7 212.7,30.0 216.0,29.5 C 216.0,29.5 219.3,29.0 222.7,28.7 C 222.7,28.7 226.0,28.3 229.7,28.2 C 229.7,28.2 233.3,28.0 236.8,28.2 C 236.8,28.2 240.3,28.3 244.2,28.8 C 244.2,28.8 248.0,29.3 251.7,30.3 C 251.7,30.3 255.3,31.3 259.2,32.7 C 259.2,32.7 263.0,34.0 267.0,35.5 L 271,37" stroke="#374151" stroke-width="8" fill="none" vector-effect="non-scaling-stroke"/><path d="M 643,30 C 641.5,29.8 640.0,29.5 638.3,29.4 C 638.3,29.4 636.7,29.3 633.3,29.2 C 633.3,29.2 630.0,29.0 626.7,29.0 C 626.7,29.0 623.3,29.0 619.8,28.8 C 619.8,28.8 616.3,28.7 612.7,28.5 C 612.7,28.5 609.0,28.3 604.8,28.2 C 604.8,28.2 600.7,28.0 596.3,27.8 C 596.3,27.8 592.0,27.7 587.5,27.5 C 587.5,27.5 583.0,27.3 578.3,27.0 C 578.3,27.0 573.7,26.7 569.0,26.5 C 569.0,26.5 564.3,26.3 559.5,26.2 C 559.5,26.2 554.7,26.0 549.7,26.0 C 549.7,26.0 544.7,26.0 539.5,25.8 C 539.5,25.8 534.3,25.7 529.2,25.5 C 529.2,25.5 524.0,25.3 519.0,25.0 C 519.0,25.0 514.0,24.7 508.8,24.5 C 508.8,24.5 503.7,24.3 498.7,24.2 C 498.7,24.2 493.7,24.0 488.5,23.8 C 488.5,23.8 483.3,23.7 478.7,23.5 C 478.7,23.5 474.0,23.3 469.3,23.2 C 469.3,23.2 464.7,23.0 460.5,23.0 C 460.5,23.0 456.3,23.0 452.0,23.0 C 452.0,23.0 447.7,23.0 443.3,23.0 C 443.3,23.0 439.0,23.0 434.5,23.0 C 434.5,23.0 430.0,23.0 425.7,23.0 C 425.7,23.0 421.3,23.0 417.2,23.0 C 417.2,23.0 413.0,23.0 408.8,22.8 C 408.8,22.8 404.7,22.7 400.3,22.5 C 400.3,22.5 396.0,22.3 391.5,22.2 C 391.5,22.2 387.0,22.0 382.7,21.8 C 382.7,21.8 378.3,21.7 374.0,21.5 C 374.0,21.5 369.7,21.3 365.5,21.0 C 365.5,21.0 361.3,20.7 357.2,20.5 C 357.2,20.5 353.0,20.3 348.7,20.2 C 348.7,20.2 344.3,20.0 339.8,20.0 C 339.8,20.0 335.3,20.0 330.7,20.0 C 330.7,20.0 326.0,20.0 321.7,19.8 C 321.7,19.8 317.3,19.7 313.0,19.5 C 313.0,19.5 308.7,19.3 304.5,19.2 C 304.5,19.2 300.3,19.0 296.0,18.8 C 296.0,18.8 291.7,18.7 287.5,18.5 C 287.5,18.5 283.3,18.3 278.8,18.0 C 278.8,18.0 274.3,17.7 270.2,17.5 C 270.2,17.5 266.0,17.3 261.8,17.2 C 261.8,17.2 257.7,17.0 253.8,17.0 C 253.8,17.0 250.0,17.0 246.2,16.8 C 246.2,16.8 242.3,16.7 238.7,16.5 C 238.7,16.5 235.0,16.3 231.5,16.2 C 231.5,16.2 228.0,16.0 224.7,16.0 C 224.7,16.0 221.3,16.0 218.2,15.8 C 218.2,15.8 215.0,15.7 212.0,15.5 C 212.0,15.5 209.0,15.3 206.2,15.2 C 206.2,15.2 203.3,15.0 200.7,14.8 C 200.7,14.8 198.0,14.7 195.3,14.5 C 195.3,14.5 192.7,14.3 190.0,14.2 C 190.0,14.2 187.3,14.0 184.7,13.8 C 184.7,13.8 182.0,13.7 179.5,13.5 C 179.5,13.5 177.0,13.3 174.7,13.2 C 174.7,13.2 172.3,13.0 170.0,13.0 C 170.0,13.0 167.7,13.0 165.3,13.0 C 165.3,13.0 163.0,13.0 160.7,13.0 C 160.7,13.0 158.3,13.0 156.0,13.0 C 156.0,13.0 153.7,13.0 151.5,13.0 C 151.5,13.0 149.3,13.0 147.2,13.0 C 147.2,13.0 145.0,13.0 143.0,12.8 C 143.0,12.8 141.0,12.7 139.2,12.5 C 139.2,12.5 137.3,12.3 135.7,12.2 C 135.7,12.2 134.0,12.0 132.5,12.0 C 132.5,12.0 131.0,12.0 129.5,12.0 C 129.5,12.0 128.0,12.0 126.5,12.0 C 126.5,12.0 125.0,12.0 123.7,11.8 C 123.7,11.8 122.3,11.7 121.2,11.5 C 121.2,11.5 120.0,11.3 118.8,11.2 C 118.8,11.2 117.7,11.0 116.5,11.0 C 116.5,11.0 115.3,11.0 114.2,11.0 C 114.2,11.0 113.0,11.0 112.0,11.0 C 112.0,11.0 111.0,11.0 110.2,11.0 C 110.2,11.0 109.3,11.0 108.5,11.0 C 108.5,11.0 107.7,11.0 106.8,11.0 C 106.8,11.0 106.0,11.0 105.2,11.2 C 105.2,11.2 104.3,11.3 103.5,11.7 C 103.5,11.7 102.7,12.0 102.0,12.5 C 102.0,12.5 101.3,13.0 100.7,13.5 C 100.7,13.5 100.0,14.0 99.5,14.7 C 99.5,14.7 99.0,15.3 98.7,16.0 C 98.7,16.0 98.3,16.7 98.2,17.5 C 98.2,17.5 98.0,18.3 98.0,19.0 C 98.0,19.0 98.0,19.7 98.2,20.5 C 98.2,20.5 98.3,21.3 98.7,22.0 C 98.7,22.0 99.0,22.7 99.3,23.5 C 99.3,23.5 99.7,24.3 100.2,25.0 C 100.2,25.0 100.7,25.7 101.3,26.5 C 101.3,26.5 102.0,27.3 103.2,28.2 C 103.2,28.2 104.3,29.0 105.5,30.0 C 105.5,30.0 106.7,31.0 108.2,32.2 C 108.2,32.2 109.7,33.3 111.2,34.5 C 111.2,34.5 112.7,35.7 114.5,37.0 C 114.5,37.0 116.3,38.3 118.3,39.7 C 118.3,39.7 120.3,41.0 122.5,42.3 C 122.5,42.3 124.7,43.7 127.0,45.0 C 127.0,45.0 129.3,46.3 131.8,47.3 C 131.8,47.3 134.3,48.3 137.0,49.2 C 137.0,49.2 139.7,50.0 142.5,50.5 C 142.5,50.5 145.3,51.0 148.2,51.2 C 148.2,51.2 151.0,51.3 154.0,51.2 C 154.0,51.2 157.0,51.0 160.0,50.2 C 160.0,50.2 163.0,49.3 165.8,48.3 C 165.8,48.3 168.7,47.3 171.5,46.0 C 171.5,46.0 174.3,44.7 177.2,43.3 C 177.2,43.3 180.0,42.0 183.0,40.5 C 183.0,40.5 186.0,39.0 189.2,37.5 C 189.2,37.5 192.3,36.0 195.7,34.7 C 195.7,34.7 199.0,33.3 202.5,32.3 C 202.5,32.3 206.0,31.3 209.3,30.7 C 209.3,30.7 212.7,30.0 216.0,29.5 C 216.0,29.5 219.3,29.0 222.7,28.7 C 222.7,28.7 226.0,28.3 229.7,28.2 C 229.7,28.2 233.3,28.0 236.8,28.2 C 236.8,28.2 240.3,28.3 244.2,28.8 C 244.2,28.8 248.0,29.3 251.7,30.3 C 251.7,30.3 255.3,31.3 259.2,32.7 C 259.2,32.7 263.0,34.0 267.0,35.5 L 271,37" stroke="#FBBF24" stroke-width="2" fill="none" vector-effect="non-scaling-stroke"/>
    <g id="moving-circle-group">
        <circle cx="271" cy="37" r="20" fill="#000000" vector-effect="non-scaling-stroke"/>
        <circle cx="271" cy="37" r="7" fill="#FFFFFF" vector-effect="non-scaling-stroke"/>
    </g></svg>