<svg id="minimap-svg" width="100%" height="100%" viewBox="0 0 548 700" xmlns="http://www.w3.org/2000/svg"><path d="M 15,480 C 15.0,477.8 15.0,475.5 14.8,473.1 C 14.8,473.1 14.7,470.7 14.3,466.0 C 14.3,466.0 14.0,461.3 13.5,456.5 C 13.5,456.5 13.0,451.7 12.7,446.8 C 12.7,446.8 12.3,442.0 12.2,437.2 C 12.2,437.2 12.0,432.3 12.2,427.3 C 12.2,427.3 12.3,422.3 12.8,417.3 C 12.8,417.3 13.3,412.3 14.0,407.2 C 14.0,407.2 14.7,402.0 15.5,397.0 C 15.5,397.0 16.3,392.0 17.2,387.2 C 17.2,387.2 18.0,382.3 19.0,377.8 C 19.0,377.8 20.0,373.3 21.0,369.3 C 21.0,369.3 22.0,365.3 22.8,361.8 C 22.8,361.8 23.7,358.3 24.3,355.3 C 24.3,355.3 25.0,352.3 25.3,350.0 C 25.3,350.0 25.7,347.7 25.8,345.8 C 25.8,345.8 26.0,344.0 26.2,342.7 C 26.2,342.7 26.3,341.3 26.7,340.2 C 26.7,340.2 27.0,339.0 27.5,338.0 C 27.5,338.0 28.0,337.0 28.7,335.8 C 28.7,335.8 29.3,334.7 30.0,333.5 C 30.0,333.5 30.7,332.3 31.7,331.2 C 31.7,331.2 32.7,330.0 33.8,329.2 C 33.8,329.2 35.0,328.3 36.7,327.7 C 36.7,327.7 38.3,327.0 40.3,326.5 C 40.3,326.5 42.3,326.0 44.7,325.5 C 44.7,325.5 47.0,325.0 49.8,324.5 C 49.8,324.5 52.7,324.0 55.8,323.7 C 55.8,323.7 59.0,323.3 62.5,323.0 C 62.5,323.0 66.0,322.7 69.5,322.3 C 69.5,322.3 73.0,322.0 76.8,321.5 C 76.8,321.5 80.7,321.0 84.7,320.3 C 84.7,320.3 88.7,319.7 93.0,319.0 C 93.0,319.0 97.3,318.3 101.7,317.5 C 101.7,317.5 106.0,316.7 110.5,315.8 C 110.5,315.8 115.0,315.0 119.7,313.8 C 119.7,313.8 124.3,312.7 129.0,311.5 C 129.0,311.5 133.7,310.3 138.3,309.0 C 138.3,309.0 143.0,307.7 147.8,306.3 C 147.8,306.3 152.7,305.0 157.7,303.7 C 157.7,303.7 162.7,302.3 168.0,301.2 C 168.0,301.2 173.3,300.0 178.5,299.2 C 178.5,299.2 183.7,298.3 189.0,297.5 C 189.0,297.5 194.3,296.7 199.5,295.8 C 199.5,295.8 204.7,295.0 210.0,294.0 C 210.0,294.0 215.3,293.0 220.7,291.7 C 220.7,291.7 226.0,290.3 231.3,288.3 C 231.3,288.3 236.7,286.3 242.2,283.8 C 242.2,283.8 247.7,281.3 253.0,278.8 C 253.0,278.8 258.3,276.3 264.0,274.2 C 264.0,274.2 269.7,272.0 275.2,270.2 C 275.2,270.2 280.7,268.3 286.2,266.8 C 286.2,266.8 291.7,265.3 296.8,264.3 C 296.8,264.3 302.0,263.3 307.2,262.5 C 307.2,262.5 312.3,261.7 317.5,261.0 C 317.5,261.0 322.7,260.3 327.3,259.7 C 327.3,259.7 332.0,259.0 336.0,258.3 C 336.0,258.3 340.0,257.7 343.5,257.0 C 343.5,257.0 347.0,256.3 350.3,255.3 C 350.3,255.3 353.7,254.3 356.8,253.2 C 356.8,253.2 360.0,252.0 362.7,250.3 C 362.7,250.3 365.3,248.7 367.8,246.8 C 367.8,246.8 370.3,245.0 372.7,243.0 C 372.7,243.0 375.0,241.0 377.2,238.8 C 377.2,238.8 379.3,236.7 381.3,234.3 C 381.3,234.3 383.3,232.0 384.8,229.5 C 384.8,229.5 386.3,227.0 387.5,224.3 C 387.5,224.3 388.7,221.7 389.2,219.0 C 389.2,219.0 389.7,216.3 389.8,213.7 C 389.8,213.7 390.0,211.0 389.8,208.2 C 389.8,208.2 389.7,205.3 389.3,202.7 C 389.3,202.7 389.0,200.0 388.3,197.0 C 388.3,197.0 387.7,194.0 386.8,191.3 C 386.8,191.3 386.0,188.7 384.8,185.8 C 384.8,185.8 383.7,183.0 382.2,180.5 C 382.2,180.5 380.7,178.0 379.0,175.7 C 379.0,175.7 377.3,173.3 375.5,171.2 C 375.5,171.2 373.7,169.0 372.0,167.2 C 372.0,167.2 370.3,165.3 368.7,163.8 C 368.7,163.8 367.0,162.3 365.5,161.0 C 365.5,161.0 364.0,159.7 362.7,158.5 C 362.7,158.5 361.3,157.3 360.2,156.0 C 360.2,156.0 359.0,154.7 358.0,153.2 C 358.0,153.2 357.0,151.7 356.2,149.8 C 356.2,149.8 355.3,148.0 354.8,146.0 C 354.8,146.0 354.3,144.0 354.2,142.0 C 354.2,142.0 354.0,140.0 354.3,137.8 C 354.3,137.8 354.7,135.7 355.3,133.3 C 355.3,133.3 356.0,131.0 357.2,128.3 C 357.2,128.3 358.3,125.7 359.7,123.0 C 359.7,123.0 361.0,120.3 362.7,117.7 C 362.7,117.7 364.3,115.0 366.2,112.3 C 366.2,112.3 368.0,109.7 370.2,106.8 C 370.2,106.8 372.3,104.0 374.5,101.0 C 374.5,101.0 376.7,98.0 379.0,94.8 C 379.0,94.8 381.3,91.7 383.7,88.5 C 383.7,88.5 386.0,85.3 388.5,82.2 C 388.5,82.2 391.0,79.0 393.5,75.8 C 393.5,75.8 396.0,72.7 398.3,69.7 C 398.3,69.7 400.7,66.7 403.0,63.5 C 403.0,63.5 405.3,60.3 409.2,55.2 L 413,50" stroke="#374151" stroke-width="8" fill="none" vector-effect="non-scaling-stroke"/><path d="M 15,480 C 15.0,477.8 15.0,475.5 14.8,473.1 C 14.8,473.1 14.7,470.7 14.3,466.0 C 14.3,466.0 14.0,461.3 13.5,456.5 C 13.5,456.5 13.0,451.7 12.7,446.8 C 12.7,446.8 12.3,442.0 12.2,437.2 C 12.2,437.2 12.0,432.3 12.2,427.3 C 12.2,427.3 12.3,422.3 12.8,417.3 C 12.8,417.3 13.3,412.3 14.0,407.2 C 14.0,407.2 14.7,402.0 15.5,397.0 C 15.5,397.0 16.3,392.0 17.2,387.2 C 17.2,387.2 18.0,382.3 19.0,377.8 C 19.0,377.8 20.0,373.3 21.0,369.3 C 21.0,369.3 22.0,365.3 22.8,361.8 C 22.8,361.8 23.7,358.3 24.3,355.3 C 24.3,355.3 25.0,352.3 25.3,350.0 C 25.3,350.0 25.7,347.7 25.8,345.8 C 25.8,345.8 26.0,344.0 26.2,342.7 C 26.2,342.7 26.3,341.3 26.7,340.2 C 26.7,340.2 27.0,339.0 27.5,338.0 C 27.5,338.0 28.0,337.0 28.7,335.8 C 28.7,335.8 29.3,334.7 30.0,333.5 C 30.0,333.5 30.7,332.3 31.7,331.2 C 31.7,331.2 32.7,330.0 33.8,329.2 C 33.8,329.2 35.0,328.3 36.7,327.7 C 36.7,327.7 38.3,327.0 40.3,326.5 C 40.3,326.5 42.3,326.0 44.7,325.5 C 44.7,325.5 47.0,325.0 49.8,324.5 C 49.8,324.5 52.7,324.0 55.8,323.7 C 55.8,323.7 59.0,323.3 62.5,323.0 C 62.5,323.0 66.0,322.7 69.5,322.3 C 69.5,322.3 73.0,322.0 76.8,321.5 C 76.8,321.5 80.7,321.0 84.7,320.3 C 84.7,320.3 88.7,319.7 93.0,319.0 C 93.0,319.0 97.3,318.3 101.7,317.5 C 101.7,317.5 106.0,316.7 110.5,315.8 C 110.5,315.8 115.0,315.0 119.7,313.8 C 119.7,313.8 124.3,312.7 129.0,311.5 C 129.0,311.5 133.7,310.3 138.3,309.0 C 138.3,309.0 143.0,307.7 147.8,306.3 C 147.8,306.3 152.7,305.0 157.7,303.7 C 157.7,303.7 162.7,302.3 168.0,301.2 C 168.0,301.2 173.3,300.0 178.5,299.2 C 178.5,299.2 183.7,298.3 189.0,297.5 C 189.0,297.5 194.3,296.7 199.5,295.8 C 199.5,295.8 204.7,295.0 210.0,294.0 C 210.0,294.0 215.3,293.0 220.7,291.7 C 220.7,291.7 226.0,290.3 231.3,288.3 C 231.3,288.3 236.7,286.3 242.2,283.8 C 242.2,283.8 247.7,281.3 253.0,278.8 C 253.0,278.8 258.3,276.3 264.0,274.2 C 264.0,274.2 269.7,272.0 275.2,270.2 C 275.2,270.2 280.7,268.3 286.2,266.8 C 286.2,266.8 291.7,265.3 296.8,264.3 C 296.8,264.3 302.0,263.3 307.2,262.5 C 307.2,262.5 312.3,261.7 317.5,261.0 C 317.5,261.0 322.7,260.3 327.3,259.7 C 327.3,259.7 332.0,259.0 336.0,258.3 C 336.0,258.3 340.0,257.7 343.5,257.0 C 343.5,257.0 347.0,256.3 350.3,255.3 C 350.3,255.3 353.7,254.3 356.8,253.2 C 356.8,253.2 360.0,252.0 362.7,250.3 C 362.7,250.3 365.3,248.7 367.8,246.8 C 367.8,246.8 370.3,245.0 372.7,243.0 C 372.7,243.0 375.0,241.0 377.2,238.8 C 377.2,238.8 379.3,236.7 381.3,234.3 C 381.3,234.3 383.3,232.0 384.8,229.5 C 384.8,229.5 386.3,227.0 387.5,224.3 C 387.5,224.3 388.7,221.7 389.2,219.0 C 389.2,219.0 389.7,216.3 389.8,213.7 C 389.8,213.7 390.0,211.0 389.8,208.2 C 389.8,208.2 389.7,205.3 389.3,202.7 C 389.3,202.7 389.0,200.0 388.3,197.0 C 388.3,197.0 387.7,194.0 386.8,191.3 C 386.8,191.3 386.0,188.7 384.8,185.8 C 384.8,185.8 383.7,183.0 382.2,180.5 C 382.2,180.5 380.7,178.0 379.0,175.7 C 379.0,175.7 377.3,173.3 375.5,171.2 C 375.5,171.2 373.7,169.0 372.0,167.2 C 372.0,167.2 370.3,165.3 368.7,163.8 C 368.7,163.8 367.0,162.3 365.5,161.0 C 365.5,161.0 364.0,159.7 362.7,158.5 C 362.7,158.5 361.3,157.3 360.2,156.0 C 360.2,156.0 359.0,154.7 358.0,153.2 C 358.0,153.2 357.0,151.7 356.2,149.8 C 356.2,149.8 355.3,148.0 354.8,146.0 C 354.8,146.0 354.3,144.0 354.2,142.0 C 354.2,142.0 354.0,140.0 354.3,137.8 C 354.3,137.8 354.7,135.7 355.3,133.3 C 355.3,133.3 356.0,131.0 357.2,128.3 C 357.2,128.3 358.3,125.7 359.7,123.0 C 359.7,123.0 361.0,120.3 362.7,117.7 C 362.7,117.7 364.3,115.0 366.2,112.3 C 366.2,112.3 368.0,109.7 370.2,106.8 C 370.2,106.8 372.3,104.0 374.5,101.0 C 374.5,101.0 376.7,98.0 379.0,94.8 C 379.0,94.8 381.3,91.7 383.7,88.5 C 383.7,88.5 386.0,85.3 388.5,82.2 C 388.5,82.2 391.0,79.0 393.5,75.8 C 393.5,75.8 396.0,72.7 398.3,69.7 C 398.3,69.7 400.7,66.7 403.0,63.5 C 403.0,63.5 405.3,60.3 409.2,55.2 L 413,50" stroke="#EF4444" stroke-width="2" fill="none" vector-effect="non-scaling-stroke"/><path d="M 413,50 C 414.2,48.8 415.5,47.5 416.6,46.2 C 416.6,46.2 417.7,45.0 419.8,42.7 C 419.8,42.7 422.0,40.3 423.8,38.0 C 423.8,38.0 425.7,35.7 427.2,33.7 C 427.2,33.7 428.7,31.7 429.8,29.8 C 429.8,29.8 431.0,28.0 432.0,26.7 C 432.0,26.7 433.0,25.3 434.0,24.2 C 434.0,24.2 435.0,23.0 435.8,22.0 C 435.8,22.0 436.7,21.0 437.5,20.0 C 437.5,20.0 438.3,19.0 439.3,18.0 C 439.3,18.0 440.3,17.0 441.5,16.3 C 441.5,16.3 442.7,15.7 444.2,15.3 C 444.2,15.3 445.7,15.0 447.2,15.0 C 447.2,15.0 448.7,15.0 450.2,15.3 C 450.2,15.3 451.7,15.7 453.0,16.3 C 453.0,16.3 454.3,17.0 455.5,18.2 C 455.5,18.2 456.7,19.3 457.8,20.5 C 457.8,20.5 459.0,21.7 459.8,23.2 C 459.8,23.2 460.7,24.7 461.3,26.2 C 461.3,26.2 462.0,27.7 462.3,29.7 C 462.3,29.7 462.7,31.7 463.0,33.5 C 463.0,33.5 463.3,35.3 463.5,37.3 C 463.5,37.3 463.7,39.3 464.2,41.0 C 464.2,41.0 464.7,42.7 465.0,44.5 C 465.0,44.5 465.3,46.3 466.0,48.0 C 466.0,48.0 466.7,49.7 467.3,51.3 C 467.3,51.3 468.0,53.0 469.0,54.7 C 469.0,54.7 470.0,56.3 471.0,58.2 C 471.0,58.2 472.0,60.0 473.0,61.8 C 473.0,61.8 474.0,63.7 474.8,65.2 C 474.8,65.2 475.7,66.7 476.5,68.0 C 476.5,68.0 477.3,69.3 478.0,70.3 C 478.0,70.3 478.7,71.3 479.3,72.5 C 479.3,72.5 480.0,73.7 480.5,74.5 C 480.5,74.5 481.0,75.3 481.5,76.3 C 481.5,76.3 482.0,77.3 482.5,78.0 C 482.5,78.0 483.0,78.7 483.5,79.7 C 483.5,79.7 484.0,80.7 484.7,81.5 C 484.7,81.5 485.3,82.3 486.2,83.2 C 486.2,83.2 487.0,84.0 488.0,84.3 C 488.0,84.3 489.0,84.7 489.8,84.8 C 489.8,84.8 490.7,85.0 491.5,84.8 C 491.5,84.8 492.3,84.7 493.0,84.3 C 493.0,84.3 493.7,84.0 494.3,83.5 C 494.3,83.5 495.0,83.0 495.5,82.5 C 495.5,82.5 496.0,82.0 496.3,81.5 C 496.3,81.5 496.7,81.0 497.0,80.5 C 497.0,80.5 497.3,80.0 497.5,79.5 C 497.5,79.5 497.7,79.0 497.8,78.5 C 497.8,78.5 498.0,78.0 497.8,77.5 C 497.8,77.5 497.7,77.0 497.3,76.3 C 497.3,76.3 497.0,75.7 496.7,75.0 C 496.7,75.0 496.3,74.3 496.0,73.5 C 496.0,73.5 495.7,72.7 495.3,72.0 C 495.3,72.0 495.0,71.3 494.2,70.5 C 494.2,70.5 493.3,69.7 492.5,68.8 C 492.5,68.8 491.7,68.0 490.7,67.0 C 490.7,67.0 489.7,66.0 488.7,64.8 C 488.7,64.8 487.7,63.7 486.3,62.2 C 486.3,62.2 485.0,60.7 483.7,59.0 C 483.7,59.0 482.3,57.3 481.2,55.8 C 481.2,55.8 480.0,54.3 479.0,53.2 C 479.0,53.2 478.0,52.0 477.2,50.8 C 477.2,50.8 476.3,49.7 475.7,48.3 C 475.7,48.3 475.0,47.0 474.5,45.5 C 474.5,45.5 474.0,44.0 473.8,42.7 C 473.8,42.7 473.7,41.3 473.8,40.0 C 473.8,40.0 474.0,38.7 474.5,37.5 C 474.5,37.5 475.0,36.3 475.7,35.2 C 475.7,35.2 476.3,34.0 477.2,33.0 C 477.2,33.0 478.0,32.0 479.2,31.2 C 479.2,31.2 480.3,30.3 481.8,29.5 C 481.8,29.5 483.3,28.7 485.0,28.0 C 485.0,28.0 486.7,27.3 488.5,26.5 C 488.5,26.5 490.3,25.7 492.3,24.8 C 492.3,24.8 494.3,24.0 496.7,23.2 C 496.7,23.2 499.0,22.3 501.3,21.5 C 501.3,21.5 503.7,20.7 505.8,20.0 C 505.8,20.0 508.0,19.3 510.0,18.7 C 510.0,18.7 512.0,18.0 513.8,17.7 C 513.8,17.7 515.7,17.3 517.3,17.2 C 517.3,17.2 519.0,17.0 520.5,17.0 C 520.5,17.0 522.0,17.0 523.5,17.0 C 523.5,17.0 525.0,17.0 526.5,17.3 C 526.5,17.3 528.0,17.7 529.3,18.3 C 529.3,18.3 530.7,19.0 531.7,20.2 C 531.7,20.2 532.7,21.3 533.5,22.7 C 533.5,22.7 534.3,24.0 534.8,25.7 C 534.8,25.7 535.3,27.3 535.7,29.3 C 535.7,29.3 536.0,31.3 535.8,33.5 C 535.8,33.5 535.7,35.7 535.3,38.3 C 535.3,38.3 535.0,41.0 534.5,43.8 C 534.5,43.8 534.0,46.7 533.7,50.2 C 533.7,50.2 533.3,53.7 532.8,57.3 C 532.8,57.3 532.3,61.0 532.0,65.3 C 532.0,65.3 531.7,69.7 531.0,74.3 C 531.0,74.3 530.3,79.0 529.8,84.0 C 529.8,84.0 529.3,89.0 528.5,93.8 C 528.5,93.8 527.7,98.7 526.8,103.3 C 526.8,103.3 526.0,108.0 525.0,112.7 C 525.0,112.7 524.0,117.3 522.8,122.0 C 522.8,122.0 521.7,126.7 520.2,131.7 C 520.2,131.7 518.7,136.7 517.0,141.5 C 517.0,141.5 515.3,146.3 513.7,151.3 C 513.7,151.3 512.0,156.3 510.3,161.0 C 510.3,161.0 508.7,165.7 506.8,170.3 C 506.8,170.3 505.0,175.0 503.0,179.3 C 503.0,179.3 501.0,183.7 498.8,188.2 C 498.8,188.2 496.7,192.7 494.3,197.2 C 494.3,197.2 492.0,201.7 489.5,206.0 C 489.5,206.0 487.0,210.3 484.2,214.2 C 484.2,214.2 481.3,218.0 478.2,221.3 C 478.2,221.3 475.0,224.7 471.2,227.8 C 471.2,227.8 467.3,231.0 463.3,233.7 C 463.3,233.7 459.3,236.3 455.0,238.8 C 455.0,238.8 450.7,241.3 446.3,243.7 C 446.3,243.7 442.0,246.0 437.5,248.5 C 437.5,248.5 433.0,251.0 428.3,253.5 C 428.3,253.5 423.7,256.0 418.8,258.5 C 418.8,258.5 414.0,261.0 409.2,263.5 C 409.2,263.5 404.3,266.0 399.7,268.5 C 399.7,268.5 395.0,271.0 390.5,273.3 C 390.5,273.3 386.0,275.7 381.5,277.7 C 381.5,277.7 377.0,279.7 372.5,281.7 C 372.5,281.7 368.0,283.7 363.7,285.3 C 363.7,285.3 359.3,287.0 355.2,288.7 C 355.2,288.7 351.0,290.3 346.8,291.5 C 346.8,291.5 342.7,292.7 338.5,294.0 C 338.5,294.0 334.3,295.3 330.3,296.5 C 330.3,296.5 326.3,297.7 322.3,298.8 C 322.3,298.8 318.3,300.0 314.5,300.8 C 314.5,300.8 310.7,301.7 306.7,302.3 C 306.7,302.3 302.7,303.0 299.2,303.7 C 299.2,303.7 295.7,304.3 292.3,305.0 C 292.3,305.0 289.0,305.7 286.2,306.2 C 286.2,306.2 283.3,306.7 281.0,307.0 C 281.0,307.0 278.7,307.3 276.8,307.5 C 276.8,307.5 275.0,307.7 273.7,308.0 C 273.7,308.0 272.3,308.3 271.2,308.5 C 271.2,308.5 270.0,308.7 269.0,308.8 C 269.0,308.8 268.0,309.0 267.0,309.0 C 267.0,309.0 266.0,309.0 265.0,309.2 C 265.0,309.2 264.0,309.3 263.0,309.5 C 263.0,309.5 262.0,309.7 261.2,310.0 C 261.2,310.0 260.3,310.3 259.5,310.7 C 259.5,310.7 258.7,311.0 258.0,311.5 C 258.0,311.5 257.3,312.0 256.5,312.7 C 256.5,312.7 255.7,313.3 255.2,314.0 C 255.2,314.0 254.7,314.7 254.3,315.5 C 254.3,315.5 254.0,316.3 254.0,317.0 C 254.0,317.0 254.0,317.7 253.8,318.5 C 253.8,318.5 253.7,319.3 253.5,320.0 C 253.5,320.0 253.3,320.7 253.0,321.3 C 253.0,321.3 252.7,322.0 252.5,322.7 C 252.5,322.7 252.3,323.3 251.8,324.0 C 251.8,324.0 251.3,324.7 250.8,325.5 C 250.8,325.5 250.3,326.3 249.5,326.8 C 249.5,326.8 248.7,327.3 247.8,327.8 C 247.8,327.8 247.0,328.3 246.0,328.7 C 246.0,328.7 245.0,329.0 244.0,329.3 C 244.0,329.3 243.0,329.7 241.8,329.8 C 241.8,329.8 240.7,330.0 239.5,329.8 C 239.5,329.8 238.3,329.7 237.2,329.3 C 237.2,329.3 236.0,329.0 234.8,328.5 C 234.8,328.5 233.7,328.0 232.5,327.3 C 232.5,327.3 231.3,326.7 230.0,326.2 C 230.0,326.2 228.7,325.7 227.2,325.2 C 227.2,325.2 225.7,324.7 223.8,324.5 C 223.8,324.5 222.0,324.3 219.7,324.2 C 219.7,324.2 217.3,324.0 214.7,324.2 C 214.7,324.2 212.0,324.3 209.0,324.5 C 209.0,324.5 206.0,324.7 202.8,325.0 C 202.8,325.0 199.7,325.3 196.0,325.8 C 196.0,325.8 192.3,326.3 188.5,326.8 C 188.5,326.8 184.7,327.3 180.5,327.8 C 180.5,327.8 176.3,328.3 172.2,328.7 C 172.2,328.7 168.0,329.0 163.7,329.5 C 163.7,329.5 159.3,330.0 155.2,330.5 C 155.2,330.5 151.0,331.0 147.3,331.3 C 147.3,331.3 143.7,331.7 140.2,332.0 C 140.2,332.0 136.7,332.3 133.3,332.7 C 133.3,332.7 130.0,333.0 126.7,333.5 C 126.7,333.5 123.3,334.0 120.2,334.3 C 120.2,334.3 117.0,334.7 114.0,335.0 C 114.0,335.0 111.0,335.3 108.3,335.7 C 108.3,335.7 105.7,336.0 103.0,336.3 C 103.0,336.3 100.3,336.7 98.0,337.0 C 98.0,337.0 95.7,337.3 93.3,337.5 C 93.3,337.5 91.0,337.7 88.8,338.0 C 88.8,338.0 86.7,338.3 84.5,338.7 C 84.5,338.7 82.3,339.0 80.0,339.7 C 80.0,339.7 77.7,340.3 75.7,341.2 C 75.7,341.2 73.7,342.0 71.7,343.2 C 71.7,343.2 69.7,344.3 68.0,345.8 C 68.0,345.8 66.3,347.3 64.7,349.0 C 64.7,349.0 63.0,350.7 61.5,352.7 C 61.5,352.7 60.0,354.7 58.5,357.0 C 58.5,357.0 57.0,359.3 55.7,362.0 C 55.7,362.0 54.3,364.7 53.2,367.3 C 53.2,367.3 52.0,370.0 50.8,372.8 C 50.8,372.8 49.7,375.7 48.5,378.8 C 48.5,378.8 47.3,382.0 46.3,385.3 C 46.3,385.3 45.3,388.7 44.7,392.3 L 44,396" stroke="#374151" stroke-width="8" fill="none" vector-effect="non-scaling-stroke"/><path d="M 413,50 C 414.2,48.8 415.5,47.5 416.6,46.2 C 416.6,46.2 417.7,45.0 419.8,42.7 C 419.8,42.7 422.0,40.3 423.8,38.0 C 423.8,38.0 425.7,35.7 427.2,33.7 C 427.2,33.7 428.7,31.7 429.8,29.8 C 429.8,29.8 431.0,28.0 432.0,26.7 C 432.0,26.7 433.0,25.3 434.0,24.2 C 434.0,24.2 435.0,23.0 435.8,22.0 C 435.8,22.0 436.7,21.0 437.5,20.0 C 437.5,20.0 438.3,19.0 439.3,18.0 C 439.3,18.0 440.3,17.0 441.5,16.3 C 441.5,16.3 442.7,15.7 444.2,15.3 C 444.2,15.3 445.7,15.0 447.2,15.0 C 447.2,15.0 448.7,15.0 450.2,15.3 C 450.2,15.3 451.7,15.7 453.0,16.3 C 453.0,16.3 454.3,17.0 455.5,18.2 C 455.5,18.2 456.7,19.3 457.8,20.5 C 457.8,20.5 459.0,21.7 459.8,23.2 C 459.8,23.2 460.7,24.7 461.3,26.2 C 461.3,26.2 462.0,27.7 462.3,29.7 C 462.3,29.7 462.7,31.7 463.0,33.5 C 463.0,33.5 463.3,35.3 463.5,37.3 C 463.5,37.3 463.7,39.3 464.2,41.0 C 464.2,41.0 464.7,42.7 465.0,44.5 C 465.0,44.5 465.3,46.3 466.0,48.0 C 466.0,48.0 466.7,49.7 467.3,51.3 C 467.3,51.3 468.0,53.0 469.0,54.7 C 469.0,54.7 470.0,56.3 471.0,58.2 C 471.0,58.2 472.0,60.0 473.0,61.8 C 473.0,61.8 474.0,63.7 474.8,65.2 C 474.8,65.2 475.7,66.7 476.5,68.0 C 476.5,68.0 477.3,69.3 478.0,70.3 C 478.0,70.3 478.7,71.3 479.3,72.5 C 479.3,72.5 480.0,73.7 480.5,74.5 C 480.5,74.5 481.0,75.3 481.5,76.3 C 481.5,76.3 482.0,77.3 482.5,78.0 C 482.5,78.0 483.0,78.7 483.5,79.7 C 483.5,79.7 484.0,80.7 484.7,81.5 C 484.7,81.5 485.3,82.3 486.2,83.2 C 486.2,83.2 487.0,84.0 488.0,84.3 C 488.0,84.3 489.0,84.7 489.8,84.8 C 489.8,84.8 490.7,85.0 491.5,84.8 C 491.5,84.8 492.3,84.7 493.0,84.3 C 493.0,84.3 493.7,84.0 494.3,83.5 C 494.3,83.5 495.0,83.0 495.5,82.5 C 495.5,82.5 496.0,82.0 496.3,81.5 C 496.3,81.5 496.7,81.0 497.0,80.5 C 497.0,80.5 497.3,80.0 497.5,79.5 C 497.5,79.5 497.7,79.0 497.8,78.5 C 497.8,78.5 498.0,78.0 497.8,77.5 C 497.8,77.5 497.7,77.0 497.3,76.3 C 497.3,76.3 497.0,75.7 496.7,75.0 C 496.7,75.0 496.3,74.3 496.0,73.5 C 496.0,73.5 495.7,72.7 495.3,72.0 C 495.3,72.0 495.0,71.3 494.2,70.5 C 494.2,70.5 493.3,69.7 492.5,68.8 C 492.5,68.8 491.7,68.0 490.7,67.0 C 490.7,67.0 489.7,66.0 488.7,64.8 C 488.7,64.8 487.7,63.7 486.3,62.2 C 486.3,62.2 485.0,60.7 483.7,59.0 C 483.7,59.0 482.3,57.3 481.2,55.8 C 481.2,55.8 480.0,54.3 479.0,53.2 C 479.0,53.2 478.0,52.0 477.2,50.8 C 477.2,50.8 476.3,49.7 475.7,48.3 C 475.7,48.3 475.0,47.0 474.5,45.5 C 474.5,45.5 474.0,44.0 473.8,42.7 C 473.8,42.7 473.7,41.3 473.8,40.0 C 473.8,40.0 474.0,38.7 474.5,37.5 C 474.5,37.5 475.0,36.3 475.7,35.2 C 475.7,35.2 476.3,34.0 477.2,33.0 C 477.2,33.0 478.0,32.0 479.2,31.2 C 479.2,31.2 480.3,30.3 481.8,29.5 C 481.8,29.5 483.3,28.7 485.0,28.0 C 485.0,28.0 486.7,27.3 488.5,26.5 C 488.5,26.5 490.3,25.7 492.3,24.8 C 492.3,24.8 494.3,24.0 496.7,23.2 C 496.7,23.2 499.0,22.3 501.3,21.5 C 501.3,21.5 503.7,20.7 505.8,20.0 C 505.8,20.0 508.0,19.3 510.0,18.7 C 510.0,18.7 512.0,18.0 513.8,17.7 C 513.8,17.7 515.7,17.3 517.3,17.2 C 517.3,17.2 519.0,17.0 520.5,17.0 C 520.5,17.0 522.0,17.0 523.5,17.0 C 523.5,17.0 525.0,17.0 526.5,17.3 C 526.5,17.3 528.0,17.7 529.3,18.3 C 529.3,18.3 530.7,19.0 531.7,20.2 C 531.7,20.2 532.7,21.3 533.5,22.7 C 533.5,22.7 534.3,24.0 534.8,25.7 C 534.8,25.7 535.3,27.3 535.7,29.3 C 535.7,29.3 536.0,31.3 535.8,33.5 C 535.8,33.5 535.7,35.7 535.3,38.3 C 535.3,38.3 535.0,41.0 534.5,43.8 C 534.5,43.8 534.0,46.7 533.7,50.2 C 533.7,50.2 533.3,53.7 532.8,57.3 C 532.8,57.3 532.3,61.0 532.0,65.3 C 532.0,65.3 531.7,69.7 531.0,74.3 C 531.0,74.3 530.3,79.0 529.8,84.0 C 529.8,84.0 529.3,89.0 528.5,93.8 C 528.5,93.8 527.7,98.7 526.8,103.3 C 526.8,103.3 526.0,108.0 525.0,112.7 C 525.0,112.7 524.0,117.3 522.8,122.0 C 522.8,122.0 521.7,126.7 520.2,131.7 C 520.2,131.7 518.7,136.7 517.0,141.5 C 517.0,141.5 515.3,146.3 513.7,151.3 C 513.7,151.3 512.0,156.3 510.3,161.0 C 510.3,161.0 508.7,165.7 506.8,170.3 C 506.8,170.3 505.0,175.0 503.0,179.3 C 503.0,179.3 501.0,183.7 498.8,188.2 C 498.8,188.2 496.7,192.7 494.3,197.2 C 494.3,197.2 492.0,201.7 489.5,206.0 C 489.5,206.0 487.0,210.3 484.2,214.2 C 484.2,214.2 481.3,218.0 478.2,221.3 C 478.2,221.3 475.0,224.7 471.2,227.8 C 471.2,227.8 467.3,231.0 463.3,233.7 C 463.3,233.7 459.3,236.3 455.0,238.8 C 455.0,238.8 450.7,241.3 446.3,243.7 C 446.3,243.7 442.0,246.0 437.5,248.5 C 437.5,248.5 433.0,251.0 428.3,253.5 C 428.3,253.5 423.7,256.0 418.8,258.5 C 418.8,258.5 414.0,261.0 409.2,263.5 C 409.2,263.5 404.3,266.0 399.7,268.5 C 399.7,268.5 395.0,271.0 390.5,273.3 C 390.5,273.3 386.0,275.7 381.5,277.7 C 381.5,277.7 377.0,279.7 372.5,281.7 C 372.5,281.7 368.0,283.7 363.7,285.3 C 363.7,285.3 359.3,287.0 355.2,288.7 C 355.2,288.7 351.0,290.3 346.8,291.5 C 346.8,291.5 342.7,292.7 338.5,294.0 C 338.5,294.0 334.3,295.3 330.3,296.5 C 330.3,296.5 326.3,297.7 322.3,298.8 C 322.3,298.8 318.3,300.0 314.5,300.8 C 314.5,300.8 310.7,301.7 306.7,302.3 C 306.7,302.3 302.7,303.0 299.2,303.7 C 299.2,303.7 295.7,304.3 292.3,305.0 C 292.3,305.0 289.0,305.7 286.2,306.2 C 286.2,306.2 283.3,306.7 281.0,307.0 C 281.0,307.0 278.7,307.3 276.8,307.5 C 276.8,307.5 275.0,307.7 273.7,308.0 C 273.7,308.0 272.3,308.3 271.2,308.5 C 271.2,308.5 270.0,308.7 269.0,308.8 C 269.0,308.8 268.0,309.0 267.0,309.0 C 267.0,309.0 266.0,309.0 265.0,309.2 C 265.0,309.2 264.0,309.3 263.0,309.5 C 263.0,309.5 262.0,309.7 261.2,310.0 C 261.2,310.0 260.3,310.3 259.5,310.7 C 259.5,310.7 258.7,311.0 258.0,311.5 C 258.0,311.5 257.3,312.0 256.5,312.7 C 256.5,312.7 255.7,313.3 255.2,314.0 C 255.2,314.0 254.7,314.7 254.3,315.5 C 254.3,315.5 254.0,316.3 254.0,317.0 C 254.0,317.0 254.0,317.7 253.8,318.5 C 253.8,318.5 253.7,319.3 253.5,320.0 C 253.5,320.0 253.3,320.7 253.0,321.3 C 253.0,321.3 252.7,322.0 252.5,322.7 C 252.5,322.7 252.3,323.3 251.8,324.0 C 251.8,324.0 251.3,324.7 250.8,325.5 C 250.8,325.5 250.3,326.3 249.5,326.8 C 249.5,326.8 248.7,327.3 247.8,327.8 C 247.8,327.8 247.0,328.3 246.0,328.7 C 246.0,328.7 245.0,329.0 244.0,329.3 C 244.0,329.3 243.0,329.7 241.8,329.8 C 241.8,329.8 240.7,330.0 239.5,329.8 C 239.5,329.8 238.3,329.7 237.2,329.3 C 237.2,329.3 236.0,329.0 234.8,328.5 C 234.8,328.5 233.7,328.0 232.5,327.3 C 232.5,327.3 231.3,326.7 230.0,326.2 C 230.0,326.2 228.7,325.7 227.2,325.2 C 227.2,325.2 225.7,324.7 223.8,324.5 C 223.8,324.5 222.0,324.3 219.7,324.2 C 219.7,324.2 217.3,324.0 214.7,324.2 C 214.7,324.2 212.0,324.3 209.0,324.5 C 209.0,324.5 206.0,324.7 202.8,325.0 C 202.8,325.0 199.7,325.3 196.0,325.8 C 196.0,325.8 192.3,326.3 188.5,326.8 C 188.5,326.8 184.7,327.3 180.5,327.8 C 180.5,327.8 176.3,328.3 172.2,328.7 C 172.2,328.7 168.0,329.0 163.7,329.5 C 163.7,329.5 159.3,330.0 155.2,330.5 C 155.2,330.5 151.0,331.0 147.3,331.3 C 147.3,331.3 143.7,331.7 140.2,332.0 C 140.2,332.0 136.7,332.3 133.3,332.7 C 133.3,332.7 130.0,333.0 126.7,333.5 C 126.7,333.5 123.3,334.0 120.2,334.3 C 120.2,334.3 117.0,334.7 114.0,335.0 C 114.0,335.0 111.0,335.3 108.3,335.7 C 108.3,335.7 105.7,336.0 103.0,336.3 C 103.0,336.3 100.3,336.7 98.0,337.0 C 98.0,337.0 95.7,337.3 93.3,337.5 C 93.3,337.5 91.0,337.7 88.8,338.0 C 88.8,338.0 86.7,338.3 84.5,338.7 C 84.5,338.7 82.3,339.0 80.0,339.7 C 80.0,339.7 77.7,340.3 75.7,341.2 C 75.7,341.2 73.7,342.0 71.7,343.2 C 71.7,343.2 69.7,344.3 68.0,345.8 C 68.0,345.8 66.3,347.3 64.7,349.0 C 64.7,349.0 63.0,350.7 61.5,352.7 C 61.5,352.7 60.0,354.7 58.5,357.0 C 58.5,357.0 57.0,359.3 55.7,362.0 C 55.7,362.0 54.3,364.7 53.2,367.3 C 53.2,367.3 52.0,370.0 50.8,372.8 C 50.8,372.8 49.7,375.7 48.5,378.8 C 48.5,378.8 47.3,382.0 46.3,385.3 C 46.3,385.3 45.3,388.7 44.7,392.3 L 44,396" stroke="#3B82F6" stroke-width="2" fill="none" vector-effect="non-scaling-stroke"/><path d="M 44,396 C 43.8,397.8 43.5,399.5 43.2,401.2 C 43.2,401.2 43.0,403.0 42.7,406.3 C 42.7,406.3 42.3,409.7 42.0,412.7 C 42.0,412.7 41.7,415.7 41.5,418.5 C 41.5,418.5 41.3,421.3 41.3,424.2 C 41.3,424.2 41.3,427.0 41.7,429.8 C 41.7,429.8 42.0,432.7 42.5,435.3 C 42.5,435.3 43.0,438.0 43.8,440.5 C 43.8,440.5 44.7,443.0 45.8,445.3 C 45.8,445.3 47.0,447.7 48.7,450.0 C 48.7,450.0 50.3,452.3 52.3,454.7 C 52.3,454.7 54.3,457.0 56.3,459.7 C 56.3,459.7 58.3,462.3 60.2,465.0 C 60.2,465.0 62.0,467.7 63.2,470.5 C 63.2,470.5 64.3,473.3 65.3,476.3 C 65.3,476.3 66.3,479.3 67.0,482.7 C 67.0,482.7 67.7,486.0 68.5,489.5 C 68.5,489.5 69.3,493.0 70.0,496.3 C 70.0,496.3 70.7,499.7 71.3,503.0 C 71.3,503.0 72.0,506.3 72.5,509.5 C 72.5,509.5 73.0,512.7 73.5,515.7 C 73.5,515.7 74.0,518.7 74.3,521.0 C 74.3,521.0 74.7,523.3 75.0,525.3 C 75.0,525.3 75.3,527.3 75.7,528.8 C 75.7,528.8 76.0,530.3 76.5,532.0 C 76.5,532.0 77.0,533.7 77.3,535.2 C 77.3,535.2 77.7,536.7 77.8,538.3 C 77.8,538.3 78.0,540.0 77.8,541.3 C 77.8,541.3 77.7,542.7 77.2,544.0 C 77.2,544.0 76.7,545.3 75.8,546.8 C 75.8,546.8 75.0,548.3 74.0,549.8 C 74.0,549.8 73.0,551.3 72.0,552.8 C 72.0,552.8 71.0,554.3 70.0,555.5 C 70.0,555.5 69.0,556.7 68.2,557.8 C 68.2,557.8 67.3,559.0 66.5,560.0 C 66.5,560.0 65.7,561.0 65.2,562.2 C 65.2,562.2 64.7,563.3 64.3,564.5 C 64.3,564.5 64.0,565.7 64.0,567.2 C 64.0,567.2 64.0,568.7 64.0,570.3 C 64.0,570.3 64.0,572.0 64.3,574.2 C 64.3,574.2 64.7,576.3 65.2,578.8 C 65.2,578.8 65.7,581.3 66.5,584.0 C 66.5,584.0 67.3,586.7 68.2,589.5 C 68.2,589.5 69.0,592.3 70.2,595.3 C 70.2,595.3 71.3,598.3 72.8,601.5 C 72.8,601.5 74.3,604.7 75.8,607.8 C 75.8,607.8 77.3,611.0 79.0,613.8 C 79.0,613.8 80.7,616.7 82.2,619.3 C 82.2,619.3 83.7,622.0 85.5,624.7 C 85.5,624.7 87.3,627.3 89.2,630.0 C 89.2,630.0 91.0,632.7 93.0,635.0 C 93.0,635.0 95.0,637.3 97.0,639.3 C 97.0,639.3 99.0,641.3 101.2,643.0 C 101.2,643.0 103.3,644.7 105.7,646.3 C 105.7,646.3 108.0,648.0 110.3,649.3 C 110.3,649.3 112.7,650.7 114.7,651.8 C 114.7,651.8 116.7,653.0 118.2,653.7 C 118.2,653.7 119.7,654.3 120.8,655.0 C 120.8,655.0 122.0,655.7 122.8,656.0 C 122.8,656.0 123.7,656.3 124.5,656.8 C 124.5,656.8 125.3,657.3 126.2,657.8 C 126.2,657.8 127.0,658.3 128.0,659.0 C 128.0,659.0 129.0,659.7 129.8,660.3 C 129.8,660.3 130.7,661.0 131.3,661.7 C 131.3,661.7 132.0,662.3 132.3,663.3 C 132.3,663.3 132.7,664.3 132.8,665.5 C 132.8,665.5 133.0,666.7 133.0,667.8 C 133.0,667.8 133.0,669.0 133.0,670.0 C 133.0,670.0 133.0,671.0 132.7,671.8 C 132.7,671.8 132.3,672.7 131.7,673.5 C 131.7,673.5 131.0,674.3 130.2,675.0 C 130.2,675.0 129.3,675.7 128.3,676.3 C 128.3,676.3 127.3,677.0 126.2,677.5 C 126.2,677.5 125.0,678.0 123.5,678.5 C 123.5,678.5 122.0,679.0 120.3,679.5 C 120.3,679.5 118.7,680.0 116.8,680.5 C 116.8,680.5 115.0,681.0 112.8,681.5 C 112.8,681.5 110.7,682.0 108.5,682.3 C 108.5,682.3 106.3,682.7 104.2,683.2 C 104.2,683.2 102.0,683.7 100.0,684.0 C 100.0,684.0 98.0,684.3 96.2,684.7 C 96.2,684.7 94.3,685.0 92.8,685.0 C 92.8,685.0 91.3,685.0 90.0,685.0 C 90.0,685.0 88.7,685.0 87.5,685.0 C 87.5,685.0 86.3,685.0 85.2,684.8 C 85.2,684.8 84.0,684.7 83.0,684.3 C 83.0,684.3 82.0,684.0 81.0,683.3 C 81.0,683.3 80.0,682.7 79.0,681.8 C 79.0,681.8 78.0,681.0 77.2,679.8 C 77.2,679.8 76.3,678.7 75.7,677.3 C 75.7,677.3 75.0,676.0 74.7,674.3 C 74.7,674.3 74.3,672.7 74.0,670.7 C 74.0,670.7 73.7,668.7 73.2,666.5 C 73.2,666.5 72.7,664.3 71.7,662.0 C 71.7,662.0 70.7,659.7 69.3,657.3 C 69.3,657.3 68.0,655.0 66.3,652.2 C 66.3,652.2 64.7,649.3 62.8,646.2 C 62.8,646.2 61.0,643.0 58.8,639.3 C 58.8,639.3 56.7,635.7 54.5,631.8 C 54.5,631.8 52.3,628.0 50.2,623.5 C 50.2,623.5 48.0,619.0 46.0,614.2 C 46.0,614.2 44.0,609.3 42.0,603.8 C 42.0,603.8 40.0,598.3 38.2,592.7 C 38.2,592.7 36.3,587.0 34.5,581.0 C 34.5,581.0 32.7,575.0 31.0,568.8 C 31.0,568.8 29.3,562.7 27.5,556.2 C 27.5,556.2 25.7,549.7 24.0,542.7 C 24.0,542.7 22.3,535.7 20.8,528.2 C 20.8,528.2 19.3,520.7 18.2,513.2 C 18.2,513.2 17.0,505.7 16.0,492.8 L 15,480" stroke="#374151" stroke-width="8" fill="none" vector-effect="non-scaling-stroke"/><path d="M 44,396 C 43.8,397.8 43.5,399.5 43.2,401.2 C 43.2,401.2 43.0,403.0 42.7,406.3 C 42.7,406.3 42.3,409.7 42.0,412.7 C 42.0,412.7 41.7,415.7 41.5,418.5 C 41.5,418.5 41.3,421.3 41.3,424.2 C 41.3,424.2 41.3,427.0 41.7,429.8 C 41.7,429.8 42.0,432.7 42.5,435.3 C 42.5,435.3 43.0,438.0 43.8,440.5 C 43.8,440.5 44.7,443.0 45.8,445.3 C 45.8,445.3 47.0,447.7 48.7,450.0 C 48.7,450.0 50.3,452.3 52.3,454.7 C 52.3,454.7 54.3,457.0 56.3,459.7 C 56.3,459.7 58.3,462.3 60.2,465.0 C 60.2,465.0 62.0,467.7 63.2,470.5 C 63.2,470.5 64.3,473.3 65.3,476.3 C 65.3,476.3 66.3,479.3 67.0,482.7 C 67.0,482.7 67.7,486.0 68.5,489.5 C 68.5,489.5 69.3,493.0 70.0,496.3 C 70.0,496.3 70.7,499.7 71.3,503.0 C 71.3,503.0 72.0,506.3 72.5,509.5 C 72.5,509.5 73.0,512.7 73.5,515.7 C 73.5,515.7 74.0,518.7 74.3,521.0 C 74.3,521.0 74.7,523.3 75.0,525.3 C 75.0,525.3 75.3,527.3 75.7,528.8 C 75.7,528.8 76.0,530.3 76.5,532.0 C 76.5,532.0 77.0,533.7 77.3,535.2 C 77.3,535.2 77.7,536.7 77.8,538.3 C 77.8,538.3 78.0,540.0 77.8,541.3 C 77.8,541.3 77.7,542.7 77.2,544.0 C 77.2,544.0 76.7,545.3 75.8,546.8 C 75.8,546.8 75.0,548.3 74.0,549.8 C 74.0,549.8 73.0,551.3 72.0,552.8 C 72.0,552.8 71.0,554.3 70.0,555.5 C 70.0,555.5 69.0,556.7 68.2,557.8 C 68.2,557.8 67.3,559.0 66.5,560.0 C 66.5,560.0 65.7,561.0 65.2,562.2 C 65.2,562.2 64.7,563.3 64.3,564.5 C 64.3,564.5 64.0,565.7 64.0,567.2 C 64.0,567.2 64.0,568.7 64.0,570.3 C 64.0,570.3 64.0,572.0 64.3,574.2 C 64.3,574.2 64.7,576.3 65.2,578.8 C 65.2,578.8 65.7,581.3 66.5,584.0 C 66.5,584.0 67.3,586.7 68.2,589.5 C 68.2,589.5 69.0,592.3 70.2,595.3 C 70.2,595.3 71.3,598.3 72.8,601.5 C 72.8,601.5 74.3,604.7 75.8,607.8 C 75.8,607.8 77.3,611.0 79.0,613.8 C 79.0,613.8 80.7,616.7 82.2,619.3 C 82.2,619.3 83.7,622.0 85.5,624.7 C 85.5,624.7 87.3,627.3 89.2,630.0 C 89.2,630.0 91.0,632.7 93.0,635.0 C 93.0,635.0 95.0,637.3 97.0,639.3 C 97.0,639.3 99.0,641.3 101.2,643.0 C 101.2,643.0 103.3,644.7 105.7,646.3 C 105.7,646.3 108.0,648.0 110.3,649.3 C 110.3,649.3 112.7,650.7 114.7,651.8 C 114.7,651.8 116.7,653.0 118.2,653.7 C 118.2,653.7 119.7,654.3 120.8,655.0 C 120.8,655.0 122.0,655.7 122.8,656.0 C 122.8,656.0 123.7,656.3 124.5,656.8 C 124.5,656.8 125.3,657.3 126.2,657.8 C 126.2,657.8 127.0,658.3 128.0,659.0 C 128.0,659.0 129.0,659.7 129.8,660.3 C 129.8,660.3 130.7,661.0 131.3,661.7 C 131.3,661.7 132.0,662.3 132.3,663.3 C 132.3,663.3 132.7,664.3 132.8,665.5 C 132.8,665.5 133.0,666.7 133.0,667.8 C 133.0,667.8 133.0,669.0 133.0,670.0 C 133.0,670.0 133.0,671.0 132.7,671.8 C 132.7,671.8 132.3,672.7 131.7,673.5 C 131.7,673.5 131.0,674.3 130.2,675.0 C 130.2,675.0 129.3,675.7 128.3,676.3 C 128.3,676.3 127.3,677.0 126.2,677.5 C 126.2,677.5 125.0,678.0 123.5,678.5 C 123.5,678.5 122.0,679.0 120.3,679.5 C 120.3,679.5 118.7,680.0 116.8,680.5 C 116.8,680.5 115.0,681.0 112.8,681.5 C 112.8,681.5 110.7,682.0 108.5,682.3 C 108.5,682.3 106.3,682.7 104.2,683.2 C 104.2,683.2 102.0,683.7 100.0,684.0 C 100.0,684.0 98.0,684.3 96.2,684.7 C 96.2,684.7 94.3,685.0 92.8,685.0 C 92.8,685.0 91.3,685.0 90.0,685.0 C 90.0,685.0 88.7,685.0 87.5,685.0 C 87.5,685.0 86.3,685.0 85.2,684.8 C 85.2,684.8 84.0,684.7 83.0,684.3 C 83.0,684.3 82.0,684.0 81.0,683.3 C 81.0,683.3 80.0,682.7 79.0,681.8 C 79.0,681.8 78.0,681.0 77.2,679.8 C 77.2,679.8 76.3,678.7 75.7,677.3 C 75.7,677.3 75.0,676.0 74.7,674.3 C 74.7,674.3 74.3,672.7 74.0,670.7 C 74.0,670.7 73.7,668.7 73.2,666.5 C 73.2,666.5 72.7,664.3 71.7,662.0 C 71.7,662.0 70.7,659.7 69.3,657.3 C 69.3,657.3 68.0,655.0 66.3,652.2 C 66.3,652.2 64.7,649.3 62.8,646.2 C 62.8,646.2 61.0,643.0 58.8,639.3 C 58.8,639.3 56.7,635.7 54.5,631.8 C 54.5,631.8 52.3,628.0 50.2,623.5 C 50.2,623.5 48.0,619.0 46.0,614.2 C 46.0,614.2 44.0,609.3 42.0,603.8 C 42.0,603.8 40.0,598.3 38.2,592.7 C 38.2,592.7 36.3,587.0 34.5,581.0 C 34.5,581.0 32.7,575.0 31.0,568.8 C 31.0,568.8 29.3,562.7 27.5,556.2 C 27.5,556.2 25.7,549.7 24.0,542.7 C 24.0,542.7 22.3,535.7 20.8,528.2 C 20.8,528.2 19.3,520.7 18.2,513.2 C 18.2,513.2 17.0,505.7 16.0,492.8 L 15,480" stroke="#FBBF24" stroke-width="2" fill="none" vector-effect="non-scaling-stroke"/>
    <g id="moving-circle-group">
        <circle cx="15" cy="480" r="20" fill="#000000" vector-effect="non-scaling-stroke"/>
        <circle cx="15" cy="480" r="7" fill="#FFFFFF" vector-effect="non-scaling-stroke"/>
    </g></svg>