<svg id="minimap-svg" width="100%" height="100%" viewBox="0 0 407 700" xmlns="http://www.w3.org/2000/svg"><path d="M 20,529 C 20.2,526.2 20.5,523.5 20.8,520.6 C 20.8,520.6 21.0,517.7 21.5,512.0 C 21.5,512.0 22.0,506.3 22.5,500.5 C 22.5,500.5 23.0,494.7 23.5,488.8 C 23.5,488.8 24.0,483.0 24.5,477.0 C 24.5,477.0 25.0,471.0 25.7,465.2 C 25.7,465.2 26.3,459.3 27.0,453.5 C 27.0,453.5 27.7,447.7 28.3,441.8 C 28.3,441.8 29.0,436.0 29.5,430.0 C 29.5,430.0 30.0,424.0 30.5,417.8 C 30.5,417.8 31.0,411.7 31.5,405.5 C 31.5,405.5 32.0,399.3 32.7,393.0 C 32.7,393.0 33.3,386.7 34.0,380.3 C 34.0,380.3 34.7,374.0 35.3,367.7 C 35.3,367.7 36.0,361.3 36.5,355.2 C 36.5,355.2 37.0,349.0 37.5,343.0 C 37.5,343.0 38.0,337.0 38.5,331.0 C 38.5,331.0 39.0,325.0 39.5,318.8 C 39.5,318.8 40.0,312.7 40.5,306.7 C 40.5,306.7 41.0,300.7 41.5,295.3 C 41.5,295.3 42.0,290.0 42.3,285.8 C 42.3,285.8 42.7,281.7 43.0,278.5 C 43.0,278.5 43.3,275.3 43.5,273.0 C 43.5,273.0 43.7,270.7 43.8,268.8 C 43.8,268.8 44.0,267.0 44.0,265.7 C 44.0,265.7 44.0,264.3 44.2,263.2 C 44.2,263.2 44.3,262.0 44.5,261.0 C 44.5,261.0 44.7,260.0 44.8,259.0 C 44.8,259.0 45.0,258.0 45.2,257.0 C 45.2,257.0 45.3,256.0 45.7,255.2 C 45.7,255.2 46.0,254.3 46.5,253.8 C 46.5,253.8 47.0,253.3 47.7,253.0 C 47.7,253.0 48.3,252.7 49.2,252.5 C 49.2,252.5 50.0,252.3 50.8,252.3 C 50.8,252.3 51.7,252.3 52.5,252.3 C 52.5,252.3 53.3,252.3 54.2,252.3 C 54.2,252.3 55.0,252.3 55.8,251.8 C 55.8,251.8 56.7,251.3 57.2,250.8 C 57.2,250.8 57.7,250.3 57.8,249.5 C 57.8,249.5 58.0,248.7 58.0,247.8 C 58.0,247.8 58.0,247.0 57.8,246.0 C 57.8,246.0 57.7,245.0 57.3,243.3 C 57.3,243.3 57.0,241.7 56.5,239.7 C 56.5,239.7 56.0,237.7 55.3,235.0 C 55.3,235.0 54.7,232.3 54.0,229.7 C 54.0,229.7 53.3,227.0 52.7,224.0 C 52.7,224.0 52.0,221.0 51.5,217.8 C 51.5,217.8 51.0,214.7 50.7,211.3 C 50.7,211.3 50.3,208.0 50.2,204.3 C 50.2,204.3 50.0,200.7 50.0,196.8 C 50.0,196.8 50.0,193.0 50.2,189.0 C 50.2,189.0 50.3,185.0 50.7,181.0 C 50.7,181.0 51.0,177.0 51.3,172.8 C 51.3,172.8 51.7,168.7 52.2,164.5 C 52.2,164.5 52.7,160.3 53.3,156.0 C 53.3,156.0 54.0,151.7 55.0,147.7 C 55.0,147.7 56.0,143.7 57.3,139.7 C 57.3,139.7 58.7,135.7 60.2,132.0 C 60.2,132.0 61.7,128.3 63.7,124.8 C 63.7,124.8 65.7,121.3 67.8,118.0 C 67.8,118.0 70.0,114.7 72.7,111.5 C 72.7,111.5 75.3,108.3 78.3,105.3 C 78.3,105.3 81.3,102.3 84.7,99.7 C 84.7,99.7 88.0,97.0 91.5,94.7 C 91.5,94.7 95.0,92.3 98.7,90.2 C 98.7,90.2 102.3,88.0 106.3,86.2 C 106.3,86.2 110.3,84.3 114.5,82.7 C 114.5,82.7 118.7,81.0 123.0,79.7 C 123.0,79.7 127.3,78.3 131.7,77.3 C 131.7,77.3 136.0,76.3 140.5,75.7 C 140.5,75.7 145.0,75.0 149.5,74.5 C 149.5,74.5 154.0,74.0 158.7,73.5 C 158.7,73.5 163.3,73.0 168.0,72.7 C 168.0,72.7 172.7,72.3 182.3,71.7 L 192,71" stroke="#374151" stroke-width="8" fill="none" vector-effect="non-scaling-stroke"/><path d="M 20,529 C 20.2,526.2 20.5,523.5 20.8,520.6 C 20.8,520.6 21.0,517.7 21.5,512.0 C 21.5,512.0 22.0,506.3 22.5,500.5 C 22.5,500.5 23.0,494.7 23.5,488.8 C 23.5,488.8 24.0,483.0 24.5,477.0 C 24.5,477.0 25.0,471.0 25.7,465.2 C 25.7,465.2 26.3,459.3 27.0,453.5 C 27.0,453.5 27.7,447.7 28.3,441.8 C 28.3,441.8 29.0,436.0 29.5,430.0 C 29.5,430.0 30.0,424.0 30.5,417.8 C 30.5,417.8 31.0,411.7 31.5,405.5 C 31.5,405.5 32.0,399.3 32.7,393.0 C 32.7,393.0 33.3,386.7 34.0,380.3 C 34.0,380.3 34.7,374.0 35.3,367.7 C 35.3,367.7 36.0,361.3 36.5,355.2 C 36.5,355.2 37.0,349.0 37.5,343.0 C 37.5,343.0 38.0,337.0 38.5,331.0 C 38.5,331.0 39.0,325.0 39.5,318.8 C 39.5,318.8 40.0,312.7 40.5,306.7 C 40.5,306.7 41.0,300.7 41.5,295.3 C 41.5,295.3 42.0,290.0 42.3,285.8 C 42.3,285.8 42.7,281.7 43.0,278.5 C 43.0,278.5 43.3,275.3 43.5,273.0 C 43.5,273.0 43.7,270.7 43.8,268.8 C 43.8,268.8 44.0,267.0 44.0,265.7 C 44.0,265.7 44.0,264.3 44.2,263.2 C 44.2,263.2 44.3,262.0 44.5,261.0 C 44.5,261.0 44.7,260.0 44.8,259.0 C 44.8,259.0 45.0,258.0 45.2,257.0 C 45.2,257.0 45.3,256.0 45.7,255.2 C 45.7,255.2 46.0,254.3 46.5,253.8 C 46.5,253.8 47.0,253.3 47.7,253.0 C 47.7,253.0 48.3,252.7 49.2,252.5 C 49.2,252.5 50.0,252.3 50.8,252.3 C 50.8,252.3 51.7,252.3 52.5,252.3 C 52.5,252.3 53.3,252.3 54.2,252.3 C 54.2,252.3 55.0,252.3 55.8,251.8 C 55.8,251.8 56.7,251.3 57.2,250.8 C 57.2,250.8 57.7,250.3 57.8,249.5 C 57.8,249.5 58.0,248.7 58.0,247.8 C 58.0,247.8 58.0,247.0 57.8,246.0 C 57.8,246.0 57.7,245.0 57.3,243.3 C 57.3,243.3 57.0,241.7 56.5,239.7 C 56.5,239.7 56.0,237.7 55.3,235.0 C 55.3,235.0 54.7,232.3 54.0,229.7 C 54.0,229.7 53.3,227.0 52.7,224.0 C 52.7,224.0 52.0,221.0 51.5,217.8 C 51.5,217.8 51.0,214.7 50.7,211.3 C 50.7,211.3 50.3,208.0 50.2,204.3 C 50.2,204.3 50.0,200.7 50.0,196.8 C 50.0,196.8 50.0,193.0 50.2,189.0 C 50.2,189.0 50.3,185.0 50.7,181.0 C 50.7,181.0 51.0,177.0 51.3,172.8 C 51.3,172.8 51.7,168.7 52.2,164.5 C 52.2,164.5 52.7,160.3 53.3,156.0 C 53.3,156.0 54.0,151.7 55.0,147.7 C 55.0,147.7 56.0,143.7 57.3,139.7 C 57.3,139.7 58.7,135.7 60.2,132.0 C 60.2,132.0 61.7,128.3 63.7,124.8 C 63.7,124.8 65.7,121.3 67.8,118.0 C 67.8,118.0 70.0,114.7 72.7,111.5 C 72.7,111.5 75.3,108.3 78.3,105.3 C 78.3,105.3 81.3,102.3 84.7,99.7 C 84.7,99.7 88.0,97.0 91.5,94.7 C 91.5,94.7 95.0,92.3 98.7,90.2 C 98.7,90.2 102.3,88.0 106.3,86.2 C 106.3,86.2 110.3,84.3 114.5,82.7 C 114.5,82.7 118.7,81.0 123.0,79.7 C 123.0,79.7 127.3,78.3 131.7,77.3 C 131.7,77.3 136.0,76.3 140.5,75.7 C 140.5,75.7 145.0,75.0 149.5,74.5 C 149.5,74.5 154.0,74.0 158.7,73.5 C 158.7,73.5 163.3,73.0 168.0,72.7 C 168.0,72.7 172.7,72.3 182.3,71.7 L 192,71" stroke="#EF4444" stroke-width="2" fill="none" vector-effect="non-scaling-stroke"/><path d="M 192,71 C 194.5,70.8 197.0,70.5 199.5,70.2 C 199.5,70.2 202.0,70.0 207.2,69.7 C 207.2,69.7 212.3,69.3 217.5,69.0 C 217.5,69.0 222.7,68.7 227.3,68.5 C 227.3,68.5 232.0,68.3 235.8,68.2 C 235.8,68.2 239.7,68.0 242.5,68.0 C 242.5,68.0 245.3,68.0 247.7,68.0 C 247.7,68.0 250.0,68.0 251.8,68.0 C 251.8,68.0 253.7,68.0 255.2,67.8 C 255.2,67.8 256.7,67.7 258.0,67.5 C 258.0,67.5 259.3,67.3 260.5,66.8 C 260.5,66.8 261.7,66.3 262.7,65.8 C 262.7,65.8 263.7,65.3 264.3,64.5 C 264.3,64.5 265.0,63.7 265.5,62.7 C 265.5,62.7 266.0,61.7 266.5,60.5 C 266.5,60.5 267.0,59.3 267.5,58.2 C 267.5,58.2 268.0,57.0 268.7,56.2 C 268.7,56.2 269.3,55.3 270.2,54.8 C 270.2,54.8 271.0,54.3 272.0,54.0 C 272.0,54.0 273.0,53.7 274.2,53.3 C 274.2,53.3 275.3,53.0 276.8,52.5 C 276.8,52.5 278.3,52.0 280.3,51.7 C 280.3,51.7 282.3,51.3 284.7,50.8 C 284.7,50.8 287.0,50.3 289.5,49.7 C 289.5,49.7 292.0,49.0 294.7,48.0 C 294.7,48.0 297.3,47.0 300.3,45.8 C 300.3,45.8 303.3,44.7 306.7,43.5 C 306.7,43.5 310.0,42.3 313.7,41.0 C 313.7,41.0 317.3,39.7 321.2,38.3 C 321.2,38.3 325.0,37.0 329.0,35.5 C 329.0,35.5 333.0,34.0 336.8,32.7 C 336.8,32.7 340.7,31.3 344.2,30.2 C 344.2,30.2 347.7,29.0 350.7,28.3 C 350.7,28.3 353.7,27.7 356.2,27.3 C 356.2,27.3 358.7,27.0 360.7,27.0 C 360.7,27.0 362.7,27.0 364.5,27.2 C 364.5,27.2 366.3,27.3 368.0,27.8 C 368.0,27.8 369.7,28.3 371.3,29.3 C 371.3,29.3 373.0,30.3 374.5,31.7 C 374.5,31.7 376.0,33.0 377.5,34.7 C 377.5,34.7 379.0,36.3 380.2,38.3 C 380.2,38.3 381.3,40.3 382.2,42.5 C 382.2,42.5 383.0,44.7 383.3,47.2 C 383.3,47.2 383.7,49.7 383.8,52.3 C 383.8,52.3 384.0,55.0 384.2,58.2 C 384.2,58.2 384.3,61.3 384.7,64.8 C 384.7,64.8 385.0,68.3 385.5,72.2 C 385.5,72.2 386.0,76.0 386.5,80.2 C 386.5,80.2 387.0,84.3 387.5,88.5 C 387.5,88.5 388.0,92.7 388.3,96.8 C 388.3,96.8 388.7,101.0 388.8,104.5 C 388.8,104.5 389.0,108.0 389.0,110.8 C 389.0,110.8 389.0,113.7 389.0,115.7 C 389.0,115.7 389.0,117.7 388.7,119.3 C 388.7,119.3 388.3,121.0 387.7,122.5 C 387.7,122.5 387.0,124.0 385.8,125.3 C 385.8,125.3 384.7,126.7 383.3,127.8 C 383.3,127.8 382.0,129.0 380.3,129.8 C 380.3,129.8 378.7,130.7 376.8,131.7 C 376.8,131.7 375.0,132.7 372.7,133.8 C 372.7,133.8 370.3,135.0 367.8,136.5 C 367.8,136.5 365.3,138.0 362.5,139.7 C 362.5,139.7 359.7,141.3 356.7,143.2 C 356.7,143.2 353.7,145.0 350.2,146.8 C 350.2,146.8 346.7,148.7 343.0,150.7 C 343.0,150.7 339.3,152.7 335.5,154.7 C 335.5,154.7 331.7,156.7 327.8,159.0 C 327.8,159.0 324.0,161.3 319.8,163.7 C 319.8,163.7 315.7,166.0 311.5,168.5 C 311.5,168.5 307.3,171.0 303.0,173.7 C 303.0,173.7 298.7,176.3 294.3,179.2 C 294.3,179.2 290.0,182.0 285.7,185.0 C 285.7,185.0 281.3,188.0 277.0,191.2 C 277.0,191.2 272.7,194.3 268.5,197.7 C 268.5,197.7 264.3,201.0 260.0,204.7 C 260.0,204.7 255.7,208.3 251.5,212.0 C 251.5,212.0 247.3,215.7 243.0,219.5 C 243.0,219.5 238.7,223.3 234.5,227.2 C 234.5,227.2 230.3,231.0 226.0,235.0 C 226.0,235.0 221.7,239.0 217.3,243.0 C 217.3,243.0 213.0,247.0 208.5,251.0 C 208.5,251.0 204.0,255.0 195.5,262.0 L 187,269" stroke="#374151" stroke-width="8" fill="none" vector-effect="non-scaling-stroke"/><path d="M 192,71 C 194.5,70.8 197.0,70.5 199.5,70.2 C 199.5,70.2 202.0,70.0 207.2,69.7 C 207.2,69.7 212.3,69.3 217.5,69.0 C 217.5,69.0 222.7,68.7 227.3,68.5 C 227.3,68.5 232.0,68.3 235.8,68.2 C 235.8,68.2 239.7,68.0 242.5,68.0 C 242.5,68.0 245.3,68.0 247.7,68.0 C 247.7,68.0 250.0,68.0 251.8,68.0 C 251.8,68.0 253.7,68.0 255.2,67.8 C 255.2,67.8 256.7,67.7 258.0,67.5 C 258.0,67.5 259.3,67.3 260.5,66.8 C 260.5,66.8 261.7,66.3 262.7,65.8 C 262.7,65.8 263.7,65.3 264.3,64.5 C 264.3,64.5 265.0,63.7 265.5,62.7 C 265.5,62.7 266.0,61.7 266.5,60.5 C 266.5,60.5 267.0,59.3 267.5,58.2 C 267.5,58.2 268.0,57.0 268.7,56.2 C 268.7,56.2 269.3,55.3 270.2,54.8 C 270.2,54.8 271.0,54.3 272.0,54.0 C 272.0,54.0 273.0,53.7 274.2,53.3 C 274.2,53.3 275.3,53.0 276.8,52.5 C 276.8,52.5 278.3,52.0 280.3,51.7 C 280.3,51.7 282.3,51.3 284.7,50.8 C 284.7,50.8 287.0,50.3 289.5,49.7 C 289.5,49.7 292.0,49.0 294.7,48.0 C 294.7,48.0 297.3,47.0 300.3,45.8 C 300.3,45.8 303.3,44.7 306.7,43.5 C 306.7,43.5 310.0,42.3 313.7,41.0 C 313.7,41.0 317.3,39.7 321.2,38.3 C 321.2,38.3 325.0,37.0 329.0,35.5 C 329.0,35.5 333.0,34.0 336.8,32.7 C 336.8,32.7 340.7,31.3 344.2,30.2 C 344.2,30.2 347.7,29.0 350.7,28.3 C 350.7,28.3 353.7,27.7 356.2,27.3 C 356.2,27.3 358.7,27.0 360.7,27.0 C 360.7,27.0 362.7,27.0 364.5,27.2 C 364.5,27.2 366.3,27.3 368.0,27.8 C 368.0,27.8 369.7,28.3 371.3,29.3 C 371.3,29.3 373.0,30.3 374.5,31.7 C 374.5,31.7 376.0,33.0 377.5,34.7 C 377.5,34.7 379.0,36.3 380.2,38.3 C 380.2,38.3 381.3,40.3 382.2,42.5 C 382.2,42.5 383.0,44.7 383.3,47.2 C 383.3,47.2 383.7,49.7 383.8,52.3 C 383.8,52.3 384.0,55.0 384.2,58.2 C 384.2,58.2 384.3,61.3 384.7,64.8 C 384.7,64.8 385.0,68.3 385.5,72.2 C 385.5,72.2 386.0,76.0 386.5,80.2 C 386.5,80.2 387.0,84.3 387.5,88.5 C 387.5,88.5 388.0,92.7 388.3,96.8 C 388.3,96.8 388.7,101.0 388.8,104.5 C 388.8,104.5 389.0,108.0 389.0,110.8 C 389.0,110.8 389.0,113.7 389.0,115.7 C 389.0,115.7 389.0,117.7 388.7,119.3 C 388.7,119.3 388.3,121.0 387.7,122.5 C 387.7,122.5 387.0,124.0 385.8,125.3 C 385.8,125.3 384.7,126.7 383.3,127.8 C 383.3,127.8 382.0,129.0 380.3,129.8 C 380.3,129.8 378.7,130.7 376.8,131.7 C 376.8,131.7 375.0,132.7 372.7,133.8 C 372.7,133.8 370.3,135.0 367.8,136.5 C 367.8,136.5 365.3,138.0 362.5,139.7 C 362.5,139.7 359.7,141.3 356.7,143.2 C 356.7,143.2 353.7,145.0 350.2,146.8 C 350.2,146.8 346.7,148.7 343.0,150.7 C 343.0,150.7 339.3,152.7 335.5,154.7 C 335.5,154.7 331.7,156.7 327.8,159.0 C 327.8,159.0 324.0,161.3 319.8,163.7 C 319.8,163.7 315.7,166.0 311.5,168.5 C 311.5,168.5 307.3,171.0 303.0,173.7 C 303.0,173.7 298.7,176.3 294.3,179.2 C 294.3,179.2 290.0,182.0 285.7,185.0 C 285.7,185.0 281.3,188.0 277.0,191.2 C 277.0,191.2 272.7,194.3 268.5,197.7 C 268.5,197.7 264.3,201.0 260.0,204.7 C 260.0,204.7 255.7,208.3 251.5,212.0 C 251.5,212.0 247.3,215.7 243.0,219.5 C 243.0,219.5 238.7,223.3 234.5,227.2 C 234.5,227.2 230.3,231.0 226.0,235.0 C 226.0,235.0 221.7,239.0 217.3,243.0 C 217.3,243.0 213.0,247.0 208.5,251.0 C 208.5,251.0 204.0,255.0 195.5,262.0 L 187,269" stroke="#3B82F6" stroke-width="2" fill="none" vector-effect="non-scaling-stroke"/><path d="M 187,269 C 184.8,271.0 182.5,273.0 180.2,275.2 C 180.2,275.2 178.0,277.3 173.5,281.3 C 173.5,281.3 169.0,285.3 164.8,289.2 C 164.8,289.2 160.7,293.0 157.0,296.2 C 157.0,296.2 153.3,299.3 150.5,301.8 C 150.5,301.8 147.7,304.3 145.5,306.2 C 145.5,306.2 143.3,308.0 141.8,309.3 C 141.8,309.3 140.3,310.7 139.3,312.0 C 139.3,312.0 138.3,313.3 137.8,314.5 C 137.8,314.5 137.3,315.7 137.2,317.0 C 137.2,317.0 137.0,318.3 137.0,319.7 C 137.0,319.7 137.0,321.0 137.2,322.5 C 137.2,322.5 137.3,324.0 137.5,325.5 C 137.5,325.5 137.7,327.0 137.8,328.5 C 137.8,328.5 138.0,330.0 138.0,331.7 C 138.0,331.7 138.0,333.3 137.8,335.2 C 137.8,335.2 137.7,337.0 137.3,339.0 C 137.3,339.0 137.0,341.0 136.3,343.0 C 136.3,343.0 135.7,345.0 134.7,347.0 C 134.7,347.0 133.7,349.0 132.3,350.8 C 132.3,350.8 131.0,352.7 129.3,354.3 C 129.3,354.3 127.7,356.0 126.0,357.5 C 126.0,357.5 124.3,359.0 122.7,360.5 C 122.7,360.5 121.0,362.0 119.8,363.7 C 119.8,363.7 118.7,365.3 118.0,367.2 C 118.0,367.2 117.3,369.0 117.0,371.2 C 117.0,371.2 116.7,373.3 116.3,375.8 C 116.3,375.8 116.0,378.3 115.5,381.2 C 115.5,381.2 115.0,384.0 113.3,398.5 C 113.3,398.5 111.7,413.0 110.0,428.3 C 110.0,428.3 108.3,443.7 106.7,459.8 C 106.7,459.8 105.0,476.0 104.5,481.3 C 104.5,481.3 104.0,486.7 103.5,492.0 C 103.5,492.0 103.0,497.3 102.5,502.7 C 102.5,502.7 102.0,508.0 101.3,513.5 C 101.3,513.5 100.7,519.0 100.0,524.7 C 100.0,524.7 99.3,530.3 101.3,510.5 C 101.3,510.5 103.3,490.7 105.5,470.2 C 105.5,470.2 107.7,449.7 109.8,428.7 C 109.8,428.7 112.0,407.7 111.5,411.7 C 111.5,411.7 111.0,415.7 110.5,420.2 C 110.5,420.2 110.0,424.7 109.7,429.2 C 109.7,429.2 109.3,433.7 109.0,438.5 C 109.0,438.5 108.7,443.3 108.2,448.2 C 108.2,448.2 107.7,453.0 105.5,472.3 C 105.5,472.3 103.3,491.7 101.2,511.3 C 101.2,511.3 99.0,531.0 97.0,550.8 C 97.0,550.8 95.0,570.7 94.5,576.5 C 94.5,576.5 94.0,582.3 93.5,588.2 C 93.5,588.2 93.0,594.0 92.5,600.0 C 92.5,600.0 92.0,606.0 91.3,612.0 C 91.3,612.0 90.7,618.0 90.0,623.8 C 90.0,623.8 89.3,629.7 88.7,634.8 C 88.7,634.8 88.0,640.0 87.5,644.0 C 87.5,644.0 87.0,648.0 86.5,651.0 C 86.5,651.0 86.0,654.0 85.3,656.2 C 85.3,656.2 84.7,658.3 83.8,660.0 C 83.8,660.0 83.0,661.7 82.2,662.8 C 82.2,662.8 81.3,664.0 80.5,665.0 C 80.5,665.0 79.7,666.0 78.7,667.0 C 78.7,667.0 77.7,668.0 76.3,669.0 C 76.3,669.0 75.0,670.0 73.3,670.8 C 73.3,670.8 71.7,671.7 69.8,672.2 C 69.8,672.2 68.0,672.7 65.8,672.8 C 65.8,672.8 63.7,673.0 61.3,672.8 C 61.3,672.8 59.0,672.7 56.5,672.2 C 56.5,672.2 54.0,671.7 51.5,670.8 C 51.5,670.8 49.0,670.0 46.7,668.7 C 46.7,668.7 44.3,667.3 42.2,665.7 C 42.2,665.7 40.0,664.0 38.0,661.8 C 38.0,661.8 36.0,659.7 34.0,657.3 C 34.0,657.3 32.0,655.0 30.2,652.3 C 30.2,652.3 28.3,649.7 26.8,646.7 C 26.8,646.7 25.3,643.7 24.2,640.3 C 24.2,640.3 23.0,637.0 22.2,633.3 C 22.2,633.3 21.3,629.7 20.7,625.8 C 20.7,625.8 20.0,622.0 19.5,618.0 C 19.5,618.0 19.0,614.0 18.7,610.0 C 18.7,610.0 18.3,606.0 18.2,602.0 C 18.2,602.0 18.0,598.0 18.0,594.0 C 18.0,594.0 18.0,590.0 18.0,585.8 C 18.0,585.8 18.0,581.7 18.0,577.3 C 18.0,577.3 18.0,573.0 18.3,565.2 C 18.3,565.2 18.7,557.3 19.3,543.2 L 20,529" stroke="#374151" stroke-width="8" fill="none" vector-effect="non-scaling-stroke"/><path d="M 187,269 C 184.8,271.0 182.5,273.0 180.2,275.2 C 180.2,275.2 178.0,277.3 173.5,281.3 C 173.5,281.3 169.0,285.3 164.8,289.2 C 164.8,289.2 160.7,293.0 157.0,296.2 C 157.0,296.2 153.3,299.3 150.5,301.8 C 150.5,301.8 147.7,304.3 145.5,306.2 C 145.5,306.2 143.3,308.0 141.8,309.3 C 141.8,309.3 140.3,310.7 139.3,312.0 C 139.3,312.0 138.3,313.3 137.8,314.5 C 137.8,314.5 137.3,315.7 137.2,317.0 C 137.2,317.0 137.0,318.3 137.0,319.7 C 137.0,319.7 137.0,321.0 137.2,322.5 C 137.2,322.5 137.3,324.0 137.5,325.5 C 137.5,325.5 137.7,327.0 137.8,328.5 C 137.8,328.5 138.0,330.0 138.0,331.7 C 138.0,331.7 138.0,333.3 137.8,335.2 C 137.8,335.2 137.7,337.0 137.3,339.0 C 137.3,339.0 137.0,341.0 136.3,343.0 C 136.3,343.0 135.7,345.0 134.7,347.0 C 134.7,347.0 133.7,349.0 132.3,350.8 C 132.3,350.8 131.0,352.7 129.3,354.3 C 129.3,354.3 127.7,356.0 126.0,357.5 C 126.0,357.5 124.3,359.0 122.7,360.5 C 122.7,360.5 121.0,362.0 119.8,363.7 C 119.8,363.7 118.7,365.3 118.0,367.2 C 118.0,367.2 117.3,369.0 117.0,371.2 C 117.0,371.2 116.7,373.3 116.3,375.8 C 116.3,375.8 116.0,378.3 115.5,381.2 C 115.5,381.2 115.0,384.0 113.3,398.5 C 113.3,398.5 111.7,413.0 110.0,428.3 C 110.0,428.3 108.3,443.7 106.7,459.8 C 106.7,459.8 105.0,476.0 104.5,481.3 C 104.5,481.3 104.0,486.7 103.5,492.0 C 103.5,492.0 103.0,497.3 102.5,502.7 C 102.5,502.7 102.0,508.0 101.3,513.5 C 101.3,513.5 100.7,519.0 100.0,524.7 C 100.0,524.7 99.3,530.3 101.3,510.5 C 101.3,510.5 103.3,490.7 105.5,470.2 C 105.5,470.2 107.7,449.7 109.8,428.7 C 109.8,428.7 112.0,407.7 111.5,411.7 C 111.5,411.7 111.0,415.7 110.5,420.2 C 110.5,420.2 110.0,424.7 109.7,429.2 C 109.7,429.2 109.3,433.7 109.0,438.5 C 109.0,438.5 108.7,443.3 108.2,448.2 C 108.2,448.2 107.7,453.0 105.5,472.3 C 105.5,472.3 103.3,491.7 101.2,511.3 C 101.2,511.3 99.0,531.0 97.0,550.8 C 97.0,550.8 95.0,570.7 94.5,576.5 C 94.5,576.5 94.0,582.3 93.5,588.2 C 93.5,588.2 93.0,594.0 92.5,600.0 C 92.5,600.0 92.0,606.0 91.3,612.0 C 91.3,612.0 90.7,618.0 90.0,623.8 C 90.0,623.8 89.3,629.7 88.7,634.8 C 88.7,634.8 88.0,640.0 87.5,644.0 C 87.5,644.0 87.0,648.0 86.5,651.0 C 86.5,651.0 86.0,654.0 85.3,656.2 C 85.3,656.2 84.7,658.3 83.8,660.0 C 83.8,660.0 83.0,661.7 82.2,662.8 C 82.2,662.8 81.3,664.0 80.5,665.0 C 80.5,665.0 79.7,666.0 78.7,667.0 C 78.7,667.0 77.7,668.0 76.3,669.0 C 76.3,669.0 75.0,670.0 73.3,670.8 C 73.3,670.8 71.7,671.7 69.8,672.2 C 69.8,672.2 68.0,672.7 65.8,672.8 C 65.8,672.8 63.7,673.0 61.3,672.8 C 61.3,672.8 59.0,672.7 56.5,672.2 C 56.5,672.2 54.0,671.7 51.5,670.8 C 51.5,670.8 49.0,670.0 46.7,668.7 C 46.7,668.7 44.3,667.3 42.2,665.7 C 42.2,665.7 40.0,664.0 38.0,661.8 C 38.0,661.8 36.0,659.7 34.0,657.3 C 34.0,657.3 32.0,655.0 30.2,652.3 C 30.2,652.3 28.3,649.7 26.8,646.7 C 26.8,646.7 25.3,643.7 24.2,640.3 C 24.2,640.3 23.0,637.0 22.2,633.3 C 22.2,633.3 21.3,629.7 20.7,625.8 C 20.7,625.8 20.0,622.0 19.5,618.0 C 19.5,618.0 19.0,614.0 18.7,610.0 C 18.7,610.0 18.3,606.0 18.2,602.0 C 18.2,602.0 18.0,598.0 18.0,594.0 C 18.0,594.0 18.0,590.0 18.0,585.8 C 18.0,585.8 18.0,581.7 18.0,577.3 C 18.0,577.3 18.0,573.0 18.3,565.2 C 18.3,565.2 18.7,557.3 19.3,543.2 L 20,529" stroke="#FBBF24" stroke-width="2" fill="none" vector-effect="non-scaling-stroke"/>
    <g id="moving-circle-group">
        <circle cx="20" cy="529" r="20" fill="#000000" vector-effect="non-scaling-stroke"/>
        <circle cx="20" cy="529" r="7" fill="#FFFFFF" vector-effect="non-scaling-stroke"/>
    </g></svg>