<svg id="minimap-svg" width="100%" height="100%" viewBox="0 0 700 603" xmlns="http://www.w3.org/2000/svg"><path d="M 111,231 C 112.5,227.0 114.0,223.0 115.5,218.8 C 115.5,218.8 117.0,214.7 120.2,206.7 C 120.2,206.7 123.3,198.7 126.7,190.3 C 126.7,190.3 130.0,182.0 133.2,174.0 C 133.2,174.0 136.3,166.0 139.3,158.2 C 139.3,158.2 142.3,150.3 144.8,143.7 C 144.8,143.7 147.3,137.0 149.7,131.0 C 149.7,131.0 152.0,125.0 154.0,119.5 C 154.0,119.5 156.0,114.0 158.0,108.8 C 158.0,108.8 160.0,103.7 162.0,98.7 C 162.0,98.7 164.0,93.7 165.8,89.2 C 165.8,89.2 167.7,84.7 169.3,80.3 C 169.3,80.3 171.0,76.0 172.5,72.2 C 172.5,72.2 174.0,68.3 175.5,64.5 C 175.5,64.5 177.0,60.7 178.3,57.2 C 178.3,57.2 179.7,53.7 180.8,50.5 C 180.8,50.5 182.0,47.3 183.0,44.3 C 183.0,44.3 184.0,41.3 185.2,38.5 C 185.2,38.5 186.3,35.7 187.7,32.7 C 187.7,32.7 189.0,29.7 190.7,27.2 C 190.7,27.2 192.3,24.7 194.2,22.5 C 194.2,22.5 196.0,20.3 198.2,18.8 C 198.2,18.8 200.3,17.3 202.8,16.3 C 202.8,16.3 205.3,15.3 208.0,14.7 C 208.0,14.7 210.7,14.0 213.2,13.8 C 213.2,13.8 215.7,13.7 218.0,13.8 C 218.0,13.8 220.3,14.0 222.8,15.0 C 222.8,15.0 225.3,16.0 227.7,17.3 C 227.7,17.3 230.0,18.7 232.2,20.5 C 232.2,20.5 234.3,22.3 236.0,24.3 C 236.0,24.3 237.7,26.3 239.0,29.0 C 239.0,29.0 240.3,31.7 241.2,34.7 C 241.2,34.7 242.0,37.7 242.0,40.8 C 242.0,40.8 242.0,44.0 241.7,47.0 C 241.7,47.0 241.3,50.0 240.3,53.2 C 240.3,53.2 239.3,56.3 238.2,59.7 C 238.2,59.7 237.0,63.0 235.5,66.3 C 235.5,66.3 234.0,69.7 232.3,73.2 C 232.3,73.2 230.7,76.7 229.0,80.3 C 229.0,80.3 227.3,84.0 225.7,87.8 C 225.7,87.8 224.0,91.7 222.5,95.5 C 222.5,95.5 221.0,99.3 219.5,103.3 C 219.5,103.3 218.0,107.3 216.3,111.7 C 216.3,111.7 214.7,116.0 213.2,120.5 C 213.2,120.5 211.7,125.0 210.3,129.5 C 210.3,129.5 209.0,134.0 208.2,138.7 C 208.2,138.7 207.3,143.3 206.7,148.2 C 206.7,148.2 206.0,153.0 205.7,158.0 C 205.7,158.0 205.3,163.0 205.2,168.0 C 205.2,168.0 205.0,173.0 205.0,177.8 C 205.0,177.8 205.0,182.7 205.0,187.2 C 205.0,187.2 205.0,191.7 204.8,195.8 C 204.8,195.8 204.7,200.0 204.2,204.0 C 204.2,204.0 203.7,208.0 202.7,211.8 C 202.7,211.8 201.7,215.7 200.2,219.0 C 200.2,219.0 198.7,222.3 196.5,225.2 C 196.5,225.2 194.3,228.0 191.7,230.2 C 191.7,230.2 189.0,232.3 185.7,234.3 C 185.7,234.3 182.3,236.3 178.7,237.8 C 178.7,237.8 175.0,239.3 171.0,241.0 C 171.0,241.0 167.0,242.7 163.3,244.2 C 163.3,244.2 159.7,245.7 156.2,247.2 C 156.2,247.2 152.7,248.7 149.7,250.0 C 149.7,250.0 146.7,251.3 143.8,252.8 C 143.8,252.8 141.0,254.3 138.7,256.2 C 138.7,256.2 136.3,258.0 134.2,260.2 C 134.2,260.2 132.0,262.3 130.5,264.7 C 130.5,264.7 129.0,267.0 128.2,269.7 C 128.2,269.7 127.3,272.3 127.3,275.2 C 127.3,275.2 127.3,278.0 128.0,280.8 C 128.0,280.8 128.7,283.7 130.0,286.2 C 130.0,286.2 131.3,288.7 133.5,290.7 C 133.5,290.7 135.7,292.7 138.2,294.2 C 138.2,294.2 140.7,295.7 143.7,296.7 C 143.7,296.7 146.7,297.7 149.7,298.0 C 149.7,298.0 152.7,298.3 156.0,298.0 C 156.0,298.0 159.3,297.7 162.7,296.8 C 162.7,296.8 166.0,296.0 169.5,294.8 C 169.5,294.8 173.0,293.7 176.8,292.3 C 176.8,292.3 180.7,291.0 184.5,289.5 C 184.5,289.5 188.3,288.0 192.8,286.5 C 192.8,286.5 197.3,285.0 201.8,283.5 C 201.8,283.5 206.3,282.0 211.5,280.5 C 211.5,280.5 216.7,279.0 221.8,277.5 C 221.8,277.5 227.0,276.0 232.3,274.7 C 232.3,274.7 237.7,273.3 243.2,272.2 C 243.2,272.2 248.7,271.0 254.3,270.3 C 254.3,270.3 260.0,269.7 265.8,269.3 C 265.8,269.3 271.7,269.0 277.5,269.2 C 277.5,269.2 283.3,269.3 289.3,269.8 C 289.3,269.8 295.3,270.3 301.5,271.2 C 301.5,271.2 307.7,272.0 313.8,273.0 C 313.8,273.0 320.0,274.0 326.2,275.0 C 326.2,275.0 332.3,276.0 338.7,277.2 C 338.7,277.2 345.0,278.3 351.3,279.3 C 351.3,279.3 357.7,280.3 363.8,281.0 C 363.8,281.0 370.0,281.7 376.0,281.8 C 376.0,281.8 382.0,282.0 387.8,281.5 C 387.8,281.5 393.7,281.0 399.3,280.0 C 399.3,280.0 405.0,279.0 410.7,277.2 C 410.7,277.2 416.3,275.3 421.7,273.3 C 421.7,273.3 427.0,271.3 432.3,268.7 C 432.3,268.7 437.7,266.0 442.8,263.0 C 442.8,263.0 448.0,260.0 453.7,256.5 C 453.7,256.5 459.3,253.0 464.8,249.7 C 464.8,249.7 470.3,246.3 476.0,243.2 C 476.0,243.2 481.7,240.0 487.0,237.5 C 487.0,237.5 492.3,235.0 498.2,232.8 C 498.2,232.8 504.0,230.7 509.7,229.3 C 509.7,229.3 515.3,228.0 521.3,227.0 C 521.3,227.0 527.3,226.0 536.2,225.5 L 545,225" stroke="#374151" stroke-width="8" fill="none" vector-effect="non-scaling-stroke"/><path d="M 111,231 C 112.5,227.0 114.0,223.0 115.5,218.8 C 115.5,218.8 117.0,214.7 120.2,206.7 C 120.2,206.7 123.3,198.7 126.7,190.3 C 126.7,190.3 130.0,182.0 133.2,174.0 C 133.2,174.0 136.3,166.0 139.3,158.2 C 139.3,158.2 142.3,150.3 144.8,143.7 C 144.8,143.7 147.3,137.0 149.7,131.0 C 149.7,131.0 152.0,125.0 154.0,119.5 C 154.0,119.5 156.0,114.0 158.0,108.8 C 158.0,108.8 160.0,103.7 162.0,98.7 C 162.0,98.7 164.0,93.7 165.8,89.2 C 165.8,89.2 167.7,84.7 169.3,80.3 C 169.3,80.3 171.0,76.0 172.5,72.2 C 172.5,72.2 174.0,68.3 175.5,64.5 C 175.5,64.5 177.0,60.7 178.3,57.2 C 178.3,57.2 179.7,53.7 180.8,50.5 C 180.8,50.5 182.0,47.3 183.0,44.3 C 183.0,44.3 184.0,41.3 185.2,38.5 C 185.2,38.5 186.3,35.7 187.7,32.7 C 187.7,32.7 189.0,29.7 190.7,27.2 C 190.7,27.2 192.3,24.7 194.2,22.5 C 194.2,22.5 196.0,20.3 198.2,18.8 C 198.2,18.8 200.3,17.3 202.8,16.3 C 202.8,16.3 205.3,15.3 208.0,14.7 C 208.0,14.7 210.7,14.0 213.2,13.8 C 213.2,13.8 215.7,13.7 218.0,13.8 C 218.0,13.8 220.3,14.0 222.8,15.0 C 222.8,15.0 225.3,16.0 227.7,17.3 C 227.7,17.3 230.0,18.7 232.2,20.5 C 232.2,20.5 234.3,22.3 236.0,24.3 C 236.0,24.3 237.7,26.3 239.0,29.0 C 239.0,29.0 240.3,31.7 241.2,34.7 C 241.2,34.7 242.0,37.7 242.0,40.8 C 242.0,40.8 242.0,44.0 241.7,47.0 C 241.7,47.0 241.3,50.0 240.3,53.2 C 240.3,53.2 239.3,56.3 238.2,59.7 C 238.2,59.7 237.0,63.0 235.5,66.3 C 235.5,66.3 234.0,69.7 232.3,73.2 C 232.3,73.2 230.7,76.7 229.0,80.3 C 229.0,80.3 227.3,84.0 225.7,87.8 C 225.7,87.8 224.0,91.7 222.5,95.5 C 222.5,95.5 221.0,99.3 219.5,103.3 C 219.5,103.3 218.0,107.3 216.3,111.7 C 216.3,111.7 214.7,116.0 213.2,120.5 C 213.2,120.5 211.7,125.0 210.3,129.5 C 210.3,129.5 209.0,134.0 208.2,138.7 C 208.2,138.7 207.3,143.3 206.7,148.2 C 206.7,148.2 206.0,153.0 205.7,158.0 C 205.7,158.0 205.3,163.0 205.2,168.0 C 205.2,168.0 205.0,173.0 205.0,177.8 C 205.0,177.8 205.0,182.7 205.0,187.2 C 205.0,187.2 205.0,191.7 204.8,195.8 C 204.8,195.8 204.7,200.0 204.2,204.0 C 204.2,204.0 203.7,208.0 202.7,211.8 C 202.7,211.8 201.7,215.7 200.2,219.0 C 200.2,219.0 198.7,222.3 196.5,225.2 C 196.5,225.2 194.3,228.0 191.7,230.2 C 191.7,230.2 189.0,232.3 185.7,234.3 C 185.7,234.3 182.3,236.3 178.7,237.8 C 178.7,237.8 175.0,239.3 171.0,241.0 C 171.0,241.0 167.0,242.7 163.3,244.2 C 163.3,244.2 159.7,245.7 156.2,247.2 C 156.2,247.2 152.7,248.7 149.7,250.0 C 149.7,250.0 146.7,251.3 143.8,252.8 C 143.8,252.8 141.0,254.3 138.7,256.2 C 138.7,256.2 136.3,258.0 134.2,260.2 C 134.2,260.2 132.0,262.3 130.5,264.7 C 130.5,264.7 129.0,267.0 128.2,269.7 C 128.2,269.7 127.3,272.3 127.3,275.2 C 127.3,275.2 127.3,278.0 128.0,280.8 C 128.0,280.8 128.7,283.7 130.0,286.2 C 130.0,286.2 131.3,288.7 133.5,290.7 C 133.5,290.7 135.7,292.7 138.2,294.2 C 138.2,294.2 140.7,295.7 143.7,296.7 C 143.7,296.7 146.7,297.7 149.7,298.0 C 149.7,298.0 152.7,298.3 156.0,298.0 C 156.0,298.0 159.3,297.7 162.7,296.8 C 162.7,296.8 166.0,296.0 169.5,294.8 C 169.5,294.8 173.0,293.7 176.8,292.3 C 176.8,292.3 180.7,291.0 184.5,289.5 C 184.5,289.5 188.3,288.0 192.8,286.5 C 192.8,286.5 197.3,285.0 201.8,283.5 C 201.8,283.5 206.3,282.0 211.5,280.5 C 211.5,280.5 216.7,279.0 221.8,277.5 C 221.8,277.5 227.0,276.0 232.3,274.7 C 232.3,274.7 237.7,273.3 243.2,272.2 C 243.2,272.2 248.7,271.0 254.3,270.3 C 254.3,270.3 260.0,269.7 265.8,269.3 C 265.8,269.3 271.7,269.0 277.5,269.2 C 277.5,269.2 283.3,269.3 289.3,269.8 C 289.3,269.8 295.3,270.3 301.5,271.2 C 301.5,271.2 307.7,272.0 313.8,273.0 C 313.8,273.0 320.0,274.0 326.2,275.0 C 326.2,275.0 332.3,276.0 338.7,277.2 C 338.7,277.2 345.0,278.3 351.3,279.3 C 351.3,279.3 357.7,280.3 363.8,281.0 C 363.8,281.0 370.0,281.7 376.0,281.8 C 376.0,281.8 382.0,282.0 387.8,281.5 C 387.8,281.5 393.7,281.0 399.3,280.0 C 399.3,280.0 405.0,279.0 410.7,277.2 C 410.7,277.2 416.3,275.3 421.7,273.3 C 421.7,273.3 427.0,271.3 432.3,268.7 C 432.3,268.7 437.7,266.0 442.8,263.0 C 442.8,263.0 448.0,260.0 453.7,256.5 C 453.7,256.5 459.3,253.0 464.8,249.7 C 464.8,249.7 470.3,246.3 476.0,243.2 C 476.0,243.2 481.7,240.0 487.0,237.5 C 487.0,237.5 492.3,235.0 498.2,232.8 C 498.2,232.8 504.0,230.7 509.7,229.3 C 509.7,229.3 515.3,228.0 521.3,227.0 C 521.3,227.0 527.3,226.0 536.2,225.5 L 545,225" stroke="#EF4444" stroke-width="2" fill="none" vector-effect="non-scaling-stroke"/><path d="M 545,225 C 548.5,225.0 552.0,225.0 555.2,225.2 C 555.2,225.2 558.3,225.3 564.8,225.5 C 564.8,225.5 571.3,225.7 577.7,225.8 C 577.7,225.8 584.0,226.0 590.0,226.2 C 590.0,226.2 596.0,226.3 601.5,226.7 C 601.5,226.7 607.0,227.0 612.0,227.5 C 612.0,227.5 617.0,228.0 621.7,228.7 C 621.7,228.7 626.3,229.3 630.8,230.3 C 630.8,230.3 635.3,231.3 639.3,232.8 C 639.3,232.8 643.3,234.3 647.2,236.3 C 647.2,236.3 651.0,238.3 654.3,240.8 C 654.3,240.8 657.7,243.3 660.8,246.2 C 660.8,246.2 664.0,249.0 667.0,252.2 C 667.0,252.2 670.0,255.3 672.5,259.0 C 672.5,259.0 675.0,262.7 677.2,266.7 C 677.2,266.7 679.3,270.7 680.8,275.0 C 680.8,275.0 682.3,279.3 683.3,283.7 C 683.3,283.7 684.3,288.0 684.7,292.5 C 684.7,292.5 685.0,297.0 684.7,301.5 C 684.7,301.5 684.3,306.0 683.5,310.5 C 683.5,310.5 682.7,315.0 681.2,319.3 C 681.2,319.3 679.7,323.7 677.7,328.0 C 677.7,328.0 675.7,332.3 673.3,336.3 C 673.3,336.3 671.0,340.3 668.3,344.5 C 668.3,344.5 665.7,348.7 663.2,352.7 C 663.2,352.7 660.7,356.7 657.8,360.8 C 657.8,360.8 655.0,365.0 652.3,369.2 C 652.3,369.2 649.7,373.3 646.8,377.7 C 646.8,377.7 644.0,382.0 641.7,386.3 C 641.7,386.3 639.3,390.7 637.0,395.0 C 637.0,395.0 634.7,399.3 632.5,403.7 C 632.5,403.7 630.3,408.0 628.2,412.5 C 628.2,412.5 626.0,417.0 624.0,421.5 C 624.0,421.5 622.0,426.0 620.0,430.5 C 620.0,430.5 618.0,435.0 616.0,439.2 C 616.0,439.2 614.0,443.3 612.2,447.2 C 612.2,447.2 610.3,451.0 608.5,454.2 C 608.5,454.2 606.7,457.3 604.7,460.2 C 604.7,460.2 602.7,463.0 600.2,465.2 C 600.2,465.2 597.7,467.3 594.8,469.0 C 594.8,469.0 592.0,470.7 588.8,471.8 C 588.8,471.8 585.7,473.0 582.3,473.7 C 582.3,473.7 579.0,474.3 575.2,474.7 C 575.2,474.7 571.3,475.0 567.5,475.0 C 567.5,475.0 563.7,475.0 559.5,474.7 C 559.5,474.7 555.3,474.3 551.2,473.8 C 551.2,473.8 547.0,473.3 542.8,472.5 C 542.8,472.5 538.7,471.7 534.7,470.8 C 534.7,470.8 530.7,470.0 526.7,468.7 C 526.7,468.7 522.7,467.3 518.7,466.0 C 518.7,466.0 514.7,464.7 510.5,463.0 C 510.5,463.0 506.3,461.3 502.5,459.5 C 502.5,459.5 498.7,457.7 494.7,455.3 C 494.7,455.3 490.7,453.0 487.0,450.3 C 487.0,450.3 483.3,447.7 480.0,445.2 C 480.0,445.2 476.7,442.7 473.8,440.2 C 473.8,440.2 471.0,437.7 468.8,435.3 C 468.8,435.3 466.7,433.0 465.2,430.3 C 465.2,430.3 463.7,427.7 463.0,425.0 C 463.0,425.0 462.3,422.3 462.2,419.5 C 462.2,419.5 462.0,416.7 462.5,414.0 C 462.5,414.0 463.0,411.3 464.0,408.8 C 464.0,408.8 465.0,406.3 466.7,404.3 C 466.7,404.3 468.3,402.3 470.5,400.5 C 470.5,400.5 472.7,398.7 475.3,396.8 C 475.3,396.8 478.0,395.0 481.2,393.2 C 481.2,393.2 484.3,391.3 487.8,389.8 C 487.8,389.8 491.3,388.3 495.2,387.3 C 495.2,387.3 499.0,386.3 503.0,385.5 C 503.0,385.5 507.0,384.7 511.0,383.8 C 511.0,383.8 515.0,383.0 519.2,382.0 C 519.2,382.0 523.3,381.0 527.7,380.0 C 527.7,380.0 532.0,379.0 536.2,377.8 C 536.2,377.8 540.3,376.7 544.3,375.5 C 544.3,375.5 548.3,374.3 552.0,373.0 C 552.0,373.0 555.7,371.7 559.3,370.3 C 559.3,370.3 563.0,369.0 566.0,367.7 C 566.0,367.7 569.0,366.3 571.8,365.0 C 571.8,365.0 574.7,363.7 577.0,362.2 C 577.0,362.2 579.3,360.7 581.7,358.7 C 581.7,358.7 584.0,356.7 585.8,354.5 C 585.8,354.5 587.7,352.3 589.0,349.8 C 589.0,349.8 590.3,347.3 591.2,344.7 C 591.2,344.7 592.0,342.0 592.3,339.0 C 592.3,339.0 592.7,336.0 592.7,333.0 C 592.7,333.0 592.7,330.0 592.2,327.0 C 592.2,327.0 591.7,324.0 590.5,321.2 C 590.5,321.2 589.3,318.3 587.5,315.8 C 587.5,315.8 585.7,313.3 583.3,311.2 C 583.3,311.2 581.0,309.0 578.3,307.3 C 578.3,307.3 575.7,305.7 572.8,304.2 C 572.8,304.2 570.0,302.7 566.7,301.8 C 566.7,301.8 563.3,301.0 560.0,300.3 C 560.0,300.3 556.7,299.7 552.7,299.3 C 552.7,299.3 548.7,299.0 544.5,298.7 C 544.5,298.7 540.3,298.3 535.3,298.0 C 535.3,298.0 530.3,297.7 525.2,297.3 C 525.2,297.3 520.0,297.0 514.3,296.7 C 514.3,296.7 508.7,296.3 502.8,296.2 C 502.8,296.2 497.0,296.0 490.8,296.3 C 490.8,296.3 484.7,296.7 478.3,297.0 C 478.3,297.0 472.0,297.3 465.2,298.0 C 465.2,298.0 458.3,298.7 451.5,299.5 C 451.5,299.5 444.7,300.3 438.0,301.5 C 438.0,301.5 431.3,302.7 424.8,303.8 C 424.8,303.8 418.3,305.0 411.8,306.2 C 411.8,306.2 405.3,307.3 398.5,308.7 C 398.5,308.7 391.7,310.0 385.0,311.5 C 385.0,311.5 378.3,313.0 371.7,314.8 C 371.7,314.8 365.0,316.7 358.7,318.5 C 358.7,318.5 352.3,320.3 345.8,322.5 C 345.8,322.5 339.3,324.7 333.2,326.8 C 333.2,326.8 327.0,329.0 316.0,333.5 L 305,338" stroke="#374151" stroke-width="8" fill="none" vector-effect="non-scaling-stroke"/><path d="M 545,225 C 548.5,225.0 552.0,225.0 555.2,225.2 C 555.2,225.2 558.3,225.3 564.8,225.5 C 564.8,225.5 571.3,225.7 577.7,225.8 C 577.7,225.8 584.0,226.0 590.0,226.2 C 590.0,226.2 596.0,226.3 601.5,226.7 C 601.5,226.7 607.0,227.0 612.0,227.5 C 612.0,227.5 617.0,228.0 621.7,228.7 C 621.7,228.7 626.3,229.3 630.8,230.3 C 630.8,230.3 635.3,231.3 639.3,232.8 C 639.3,232.8 643.3,234.3 647.2,236.3 C 647.2,236.3 651.0,238.3 654.3,240.8 C 654.3,240.8 657.7,243.3 660.8,246.2 C 660.8,246.2 664.0,249.0 667.0,252.2 C 667.0,252.2 670.0,255.3 672.5,259.0 C 672.5,259.0 675.0,262.7 677.2,266.7 C 677.2,266.7 679.3,270.7 680.8,275.0 C 680.8,275.0 682.3,279.3 683.3,283.7 C 683.3,283.7 684.3,288.0 684.7,292.5 C 684.7,292.5 685.0,297.0 684.7,301.5 C 684.7,301.5 684.3,306.0 683.5,310.5 C 683.5,310.5 682.7,315.0 681.2,319.3 C 681.2,319.3 679.7,323.7 677.7,328.0 C 677.7,328.0 675.7,332.3 673.3,336.3 C 673.3,336.3 671.0,340.3 668.3,344.5 C 668.3,344.5 665.7,348.7 663.2,352.7 C 663.2,352.7 660.7,356.7 657.8,360.8 C 657.8,360.8 655.0,365.0 652.3,369.2 C 652.3,369.2 649.7,373.3 646.8,377.7 C 646.8,377.7 644.0,382.0 641.7,386.3 C 641.7,386.3 639.3,390.7 637.0,395.0 C 637.0,395.0 634.7,399.3 632.5,403.7 C 632.5,403.7 630.3,408.0 628.2,412.5 C 628.2,412.5 626.0,417.0 624.0,421.5 C 624.0,421.5 622.0,426.0 620.0,430.5 C 620.0,430.5 618.0,435.0 616.0,439.2 C 616.0,439.2 614.0,443.3 612.2,447.2 C 612.2,447.2 610.3,451.0 608.5,454.2 C 608.5,454.2 606.7,457.3 604.7,460.2 C 604.7,460.2 602.7,463.0 600.2,465.2 C 600.2,465.2 597.7,467.3 594.8,469.0 C 594.8,469.0 592.0,470.7 588.8,471.8 C 588.8,471.8 585.7,473.0 582.3,473.7 C 582.3,473.7 579.0,474.3 575.2,474.7 C 575.2,474.7 571.3,475.0 567.5,475.0 C 567.5,475.0 563.7,475.0 559.5,474.7 C 559.5,474.7 555.3,474.3 551.2,473.8 C 551.2,473.8 547.0,473.3 542.8,472.5 C 542.8,472.5 538.7,471.7 534.7,470.8 C 534.7,470.8 530.7,470.0 526.7,468.7 C 526.7,468.7 522.7,467.3 518.7,466.0 C 518.7,466.0 514.7,464.7 510.5,463.0 C 510.5,463.0 506.3,461.3 502.5,459.5 C 502.5,459.5 498.7,457.7 494.7,455.3 C 494.7,455.3 490.7,453.0 487.0,450.3 C 487.0,450.3 483.3,447.7 480.0,445.2 C 480.0,445.2 476.7,442.7 473.8,440.2 C 473.8,440.2 471.0,437.7 468.8,435.3 C 468.8,435.3 466.7,433.0 465.2,430.3 C 465.2,430.3 463.7,427.7 463.0,425.0 C 463.0,425.0 462.3,422.3 462.2,419.5 C 462.2,419.5 462.0,416.7 462.5,414.0 C 462.5,414.0 463.0,411.3 464.0,408.8 C 464.0,408.8 465.0,406.3 466.7,404.3 C 466.7,404.3 468.3,402.3 470.5,400.5 C 470.5,400.5 472.7,398.7 475.3,396.8 C 475.3,396.8 478.0,395.0 481.2,393.2 C 481.2,393.2 484.3,391.3 487.8,389.8 C 487.8,389.8 491.3,388.3 495.2,387.3 C 495.2,387.3 499.0,386.3 503.0,385.5 C 503.0,385.5 507.0,384.7 511.0,383.8 C 511.0,383.8 515.0,383.0 519.2,382.0 C 519.2,382.0 523.3,381.0 527.7,380.0 C 527.7,380.0 532.0,379.0 536.2,377.8 C 536.2,377.8 540.3,376.7 544.3,375.5 C 544.3,375.5 548.3,374.3 552.0,373.0 C 552.0,373.0 555.7,371.7 559.3,370.3 C 559.3,370.3 563.0,369.0 566.0,367.7 C 566.0,367.7 569.0,366.3 571.8,365.0 C 571.8,365.0 574.7,363.7 577.0,362.2 C 577.0,362.2 579.3,360.7 581.7,358.7 C 581.7,358.7 584.0,356.7 585.8,354.5 C 585.8,354.5 587.7,352.3 589.0,349.8 C 589.0,349.8 590.3,347.3 591.2,344.7 C 591.2,344.7 592.0,342.0 592.3,339.0 C 592.3,339.0 592.7,336.0 592.7,333.0 C 592.7,333.0 592.7,330.0 592.2,327.0 C 592.2,327.0 591.7,324.0 590.5,321.2 C 590.5,321.2 589.3,318.3 587.5,315.8 C 587.5,315.8 585.7,313.3 583.3,311.2 C 583.3,311.2 581.0,309.0 578.3,307.3 C 578.3,307.3 575.7,305.7 572.8,304.2 C 572.8,304.2 570.0,302.7 566.7,301.8 C 566.7,301.8 563.3,301.0 560.0,300.3 C 560.0,300.3 556.7,299.7 552.7,299.3 C 552.7,299.3 548.7,299.0 544.5,298.7 C 544.5,298.7 540.3,298.3 535.3,298.0 C 535.3,298.0 530.3,297.7 525.2,297.3 C 525.2,297.3 520.0,297.0 514.3,296.7 C 514.3,296.7 508.7,296.3 502.8,296.2 C 502.8,296.2 497.0,296.0 490.8,296.3 C 490.8,296.3 484.7,296.7 478.3,297.0 C 478.3,297.0 472.0,297.3 465.2,298.0 C 465.2,298.0 458.3,298.7 451.5,299.5 C 451.5,299.5 444.7,300.3 438.0,301.5 C 438.0,301.5 431.3,302.7 424.8,303.8 C 424.8,303.8 418.3,305.0 411.8,306.2 C 411.8,306.2 405.3,307.3 398.5,308.7 C 398.5,308.7 391.7,310.0 385.0,311.5 C 385.0,311.5 378.3,313.0 371.7,314.8 C 371.7,314.8 365.0,316.7 358.7,318.5 C 358.7,318.5 352.3,320.3 345.8,322.5 C 345.8,322.5 339.3,324.7 333.2,326.8 C 333.2,326.8 327.0,329.0 316.0,333.5 L 305,338" stroke="#3B82F6" stroke-width="2" fill="none" vector-effect="non-scaling-stroke"/><path d="M 305,338 C 302.5,339.2 300.0,340.5 297.7,341.6 C 297.7,341.6 295.3,342.7 290.7,344.8 C 290.7,344.8 286.0,347.0 281.5,348.8 C 281.5,348.8 277.0,350.7 273.0,352.5 C 273.0,352.5 269.0,354.3 265.5,356.0 C 265.5,356.0 262.0,357.7 259.0,359.3 C 259.0,359.3 256.0,361.0 253.2,362.5 C 253.2,362.5 250.3,364.0 247.8,365.3 C 247.8,365.3 245.3,366.7 243.0,367.8 C 243.0,367.8 240.7,369.0 238.5,370.0 C 238.5,370.0 236.3,371.0 234.2,371.8 C 234.2,371.8 232.0,372.7 230.0,373.2 C 230.0,373.2 228.0,373.7 226.0,373.7 C 226.0,373.7 224.0,373.7 222.0,373.0 C 222.0,373.0 220.0,372.3 218.2,371.3 C 218.2,371.3 216.3,370.3 214.7,368.7 C 214.7,368.7 213.0,367.0 211.5,365.2 C 211.5,365.2 210.0,363.3 208.5,361.2 C 208.5,361.2 207.0,359.0 205.3,357.2 C 205.3,357.2 203.7,355.3 201.8,353.8 C 201.8,353.8 200.0,352.3 197.8,351.3 C 197.8,351.3 195.7,350.3 193.3,349.8 C 193.3,349.8 191.0,349.3 188.5,349.3 C 188.5,349.3 186.0,349.3 183.5,349.8 C 183.5,349.8 181.0,350.3 178.7,351.3 C 178.7,351.3 176.3,352.3 174.2,353.8 C 174.2,353.8 172.0,355.3 170.3,357.3 C 170.3,357.3 168.7,359.3 167.3,361.5 C 167.3,361.5 166.0,363.7 165.3,366.2 C 165.3,366.2 164.7,368.7 164.3,371.5 C 164.3,371.5 164.0,374.3 164.2,377.7 C 164.2,377.7 164.3,381.0 164.7,384.5 C 164.7,384.5 165.0,388.0 165.7,391.8 C 165.7,391.8 166.3,395.7 167.2,399.8 C 167.2,399.8 168.0,404.0 169.0,408.5 C 169.0,408.5 170.0,413.0 171.2,417.8 C 171.2,417.8 172.3,422.7 173.5,427.7 C 173.5,427.7 174.7,432.7 175.8,438.2 C 175.8,438.2 177.0,443.7 178.2,449.2 C 178.2,449.2 179.3,454.7 180.5,460.7 C 180.5,460.7 181.7,466.7 182.8,472.7 C 182.8,472.7 184.0,478.7 185.2,485.2 C 185.2,485.2 186.3,491.7 187.5,497.8 C 187.5,497.8 188.7,504.0 189.8,509.7 C 189.8,509.7 191.0,515.3 192.0,520.5 C 192.0,520.5 193.0,525.7 193.8,530.2 C 193.8,530.2 194.7,534.7 195.2,539.2 C 195.2,539.2 195.7,543.7 195.5,547.5 C 195.5,547.5 195.3,551.3 194.5,555.2 C 194.5,555.2 193.7,559.0 192.3,562.3 C 192.3,562.3 191.0,565.7 189.0,568.7 C 189.0,568.7 187.0,571.7 184.7,574.2 C 184.7,574.2 182.3,576.7 179.2,578.8 C 179.2,578.8 176.0,581.0 172.7,582.7 C 172.7,582.7 169.3,584.3 165.5,585.5 C 165.5,585.5 161.7,586.7 157.8,587.3 C 157.8,587.3 154.0,588.0 149.7,588.5 C 149.7,588.5 145.3,589.0 140.8,589.3 C 140.8,589.3 136.3,589.7 131.5,589.8 C 131.5,589.8 126.7,590.0 121.7,589.8 C 121.7,589.8 116.7,589.7 111.3,589.3 C 111.3,589.3 106.0,589.0 100.5,588.3 C 100.5,588.3 95.0,587.7 89.7,586.5 C 89.7,586.5 84.3,585.3 78.8,583.5 C 78.8,583.5 73.3,581.7 68.2,579.3 C 68.2,579.3 63.0,577.0 58.3,574.3 C 58.3,574.3 53.7,571.7 49.7,568.5 C 49.7,568.5 45.7,565.3 41.8,561.5 C 41.8,561.5 38.0,557.7 34.5,553.3 C 34.5,553.3 31.0,549.0 28.0,544.2 C 28.0,544.2 25.0,539.3 22.8,534.3 C 22.8,534.3 20.7,529.3 19.0,524.2 C 19.0,524.2 17.3,519.0 16.5,513.8 C 16.5,513.8 15.7,508.7 15.3,503.0 C 15.3,503.0 15.0,497.3 15.3,491.7 C 15.3,491.7 15.7,486.0 16.5,480.2 C 16.5,480.2 17.3,474.3 18.8,468.8 C 18.8,468.8 20.3,463.3 22.3,457.8 C 22.3,457.8 24.3,452.3 26.5,446.7 C 26.5,446.7 28.7,441.0 31.0,435.2 C 31.0,435.2 33.3,429.3 35.7,423.0 C 35.7,423.0 38.0,416.7 40.7,410.3 C 40.7,410.3 43.3,404.0 45.8,397.5 C 45.8,397.5 48.3,391.0 51.0,384.2 C 51.0,384.2 53.7,377.3 56.2,370.5 C 56.2,370.5 58.7,363.7 61.3,356.7 C 61.3,356.7 64.0,349.7 66.7,343.0 C 66.7,343.0 69.3,336.3 72.0,329.5 C 72.0,329.5 74.7,322.7 77.5,315.7 C 77.5,315.7 80.3,308.7 83.2,301.2 C 83.2,301.2 86.0,293.7 89.2,285.8 C 89.2,285.8 92.3,278.0 95.5,270.0 C 95.5,270.0 98.7,262.0 104.8,246.5 L 111,231" stroke="#374151" stroke-width="8" fill="none" vector-effect="non-scaling-stroke"/><path d="M 305,338 C 302.5,339.2 300.0,340.5 297.7,341.6 C 297.7,341.6 295.3,342.7 290.7,344.8 C 290.7,344.8 286.0,347.0 281.5,348.8 C 281.5,348.8 277.0,350.7 273.0,352.5 C 273.0,352.5 269.0,354.3 265.5,356.0 C 265.5,356.0 262.0,357.7 259.0,359.3 C 259.0,359.3 256.0,361.0 253.2,362.5 C 253.2,362.5 250.3,364.0 247.8,365.3 C 247.8,365.3 245.3,366.7 243.0,367.8 C 243.0,367.8 240.7,369.0 238.5,370.0 C 238.5,370.0 236.3,371.0 234.2,371.8 C 234.2,371.8 232.0,372.7 230.0,373.2 C 230.0,373.2 228.0,373.7 226.0,373.7 C 226.0,373.7 224.0,373.7 222.0,373.0 C 222.0,373.0 220.0,372.3 218.2,371.3 C 218.2,371.3 216.3,370.3 214.7,368.7 C 214.7,368.7 213.0,367.0 211.5,365.2 C 211.5,365.2 210.0,363.3 208.5,361.2 C 208.5,361.2 207.0,359.0 205.3,357.2 C 205.3,357.2 203.7,355.3 201.8,353.8 C 201.8,353.8 200.0,352.3 197.8,351.3 C 197.8,351.3 195.7,350.3 193.3,349.8 C 193.3,349.8 191.0,349.3 188.5,349.3 C 188.5,349.3 186.0,349.3 183.5,349.8 C 183.5,349.8 181.0,350.3 178.7,351.3 C 178.7,351.3 176.3,352.3 174.2,353.8 C 174.2,353.8 172.0,355.3 170.3,357.3 C 170.3,357.3 168.7,359.3 167.3,361.5 C 167.3,361.5 166.0,363.7 165.3,366.2 C 165.3,366.2 164.7,368.7 164.3,371.5 C 164.3,371.5 164.0,374.3 164.2,377.7 C 164.2,377.7 164.3,381.0 164.7,384.5 C 164.7,384.5 165.0,388.0 165.7,391.8 C 165.7,391.8 166.3,395.7 167.2,399.8 C 167.2,399.8 168.0,404.0 169.0,408.5 C 169.0,408.5 170.0,413.0 171.2,417.8 C 171.2,417.8 172.3,422.7 173.5,427.7 C 173.5,427.7 174.7,432.7 175.8,438.2 C 175.8,438.2 177.0,443.7 178.2,449.2 C 178.2,449.2 179.3,454.7 180.5,460.7 C 180.5,460.7 181.7,466.7 182.8,472.7 C 182.8,472.7 184.0,478.7 185.2,485.2 C 185.2,485.2 186.3,491.7 187.5,497.8 C 187.5,497.8 188.7,504.0 189.8,509.7 C 189.8,509.7 191.0,515.3 192.0,520.5 C 192.0,520.5 193.0,525.7 193.8,530.2 C 193.8,530.2 194.7,534.7 195.2,539.2 C 195.2,539.2 195.7,543.7 195.5,547.5 C 195.5,547.5 195.3,551.3 194.5,555.2 C 194.5,555.2 193.7,559.0 192.3,562.3 C 192.3,562.3 191.0,565.7 189.0,568.7 C 189.0,568.7 187.0,571.7 184.7,574.2 C 184.7,574.2 182.3,576.7 179.2,578.8 C 179.2,578.8 176.0,581.0 172.7,582.7 C 172.7,582.7 169.3,584.3 165.5,585.5 C 165.5,585.5 161.7,586.7 157.8,587.3 C 157.8,587.3 154.0,588.0 149.7,588.5 C 149.7,588.5 145.3,589.0 140.8,589.3 C 140.8,589.3 136.3,589.7 131.5,589.8 C 131.5,589.8 126.7,590.0 121.7,589.8 C 121.7,589.8 116.7,589.7 111.3,589.3 C 111.3,589.3 106.0,589.0 100.5,588.3 C 100.5,588.3 95.0,587.7 89.7,586.5 C 89.7,586.5 84.3,585.3 78.8,583.5 C 78.8,583.5 73.3,581.7 68.2,579.3 C 68.2,579.3 63.0,577.0 58.3,574.3 C 58.3,574.3 53.7,571.7 49.7,568.5 C 49.7,568.5 45.7,565.3 41.8,561.5 C 41.8,561.5 38.0,557.7 34.5,553.3 C 34.5,553.3 31.0,549.0 28.0,544.2 C 28.0,544.2 25.0,539.3 22.8,534.3 C 22.8,534.3 20.7,529.3 19.0,524.2 C 19.0,524.2 17.3,519.0 16.5,513.8 C 16.5,513.8 15.7,508.7 15.3,503.0 C 15.3,503.0 15.0,497.3 15.3,491.7 C 15.3,491.7 15.7,486.0 16.5,480.2 C 16.5,480.2 17.3,474.3 18.8,468.8 C 18.8,468.8 20.3,463.3 22.3,457.8 C 22.3,457.8 24.3,452.3 26.5,446.7 C 26.5,446.7 28.7,441.0 31.0,435.2 C 31.0,435.2 33.3,429.3 35.7,423.0 C 35.7,423.0 38.0,416.7 40.7,410.3 C 40.7,410.3 43.3,404.0 45.8,397.5 C 45.8,397.5 48.3,391.0 51.0,384.2 C 51.0,384.2 53.7,377.3 56.2,370.5 C 56.2,370.5 58.7,363.7 61.3,356.7 C 61.3,356.7 64.0,349.7 66.7,343.0 C 66.7,343.0 69.3,336.3 72.0,329.5 C 72.0,329.5 74.7,322.7 77.5,315.7 C 77.5,315.7 80.3,308.7 83.2,301.2 C 83.2,301.2 86.0,293.7 89.2,285.8 C 89.2,285.8 92.3,278.0 95.5,270.0 C 95.5,270.0 98.7,262.0 104.8,246.5 L 111,231" stroke="#FBBF24" stroke-width="2" fill="none" vector-effect="non-scaling-stroke"/>
    <g id="moving-circle-group">
        <circle cx="111" cy="231" r="20" fill="#000000" vector-effect="non-scaling-stroke"/>
        <circle cx="111" cy="231" r="7" fill="#FFFFFF" vector-effect="non-scaling-stroke"/>
    </g></svg>