<svg id="minimap-svg" width="100%" height="100%" viewBox="0 0 414 700" xmlns="http://www.w3.org/2000/svg"><path d="M 116,444 C 115.2,441.8 114.5,439.5 113.6,436.6 C 113.6,436.6 112.7,433.7 111.0,428.2 C 111.0,428.2 109.3,422.7 107.7,416.7 C 107.7,416.7 106.0,410.7 104.3,405.0 C 104.3,405.0 102.7,399.3 101.0,393.3 C 101.0,393.3 99.3,387.3 97.5,381.2 C 97.5,381.2 95.7,375.0 93.8,368.8 C 93.8,368.8 92.0,362.7 90.2,356.3 C 90.2,356.3 88.3,350.0 86.5,343.8 C 86.5,343.8 84.7,337.7 83.0,331.2 C 83.0,331.2 81.3,324.7 79.5,318.5 C 79.5,318.5 77.7,312.3 75.8,306.0 C 75.8,306.0 74.0,299.7 72.0,293.3 C 72.0,293.3 70.0,287.0 68.0,280.3 C 68.0,280.3 66.0,273.7 64.0,267.2 C 64.0,267.2 62.0,260.7 60.0,254.0 C 60.0,254.0 58.0,247.3 56.2,240.8 C 56.2,240.8 54.3,234.3 52.7,227.8 C 52.7,227.8 51.0,221.3 49.2,215.2 C 49.2,215.2 47.3,209.0 45.7,203.2 C 45.7,203.2 44.0,197.3 42.3,191.8 C 42.3,191.8 40.7,186.3 39.2,181.0 C 39.2,181.0 37.7,175.7 36.0,170.3 C 36.0,170.3 34.3,165.0 32.7,159.8 C 32.7,159.8 31.0,154.7 29.7,149.8 C 29.7,149.8 28.3,145.0 27.0,140.7 C 27.0,140.7 25.7,136.3 24.5,132.2 C 24.5,132.2 23.3,128.0 22.2,124.2 C 22.2,124.2 21.0,120.3 20.2,116.7 C 20.2,116.7 19.3,113.0 18.5,109.7 C 18.5,109.7 17.7,106.3 16.8,103.3 C 16.8,103.3 16.0,100.3 15.2,97.5 C 15.2,97.5 14.3,94.7 13.7,92.0 C 13.7,92.0 13.0,89.3 12.7,86.7 C 12.7,86.7 12.3,84.0 12.2,81.3 C 12.2,81.3 12.0,78.7 12.3,76.2 C 12.3,76.2 12.7,73.7 13.7,71.3 C 13.7,71.3 14.7,69.0 16.3,67.0 C 16.3,67.0 18.0,65.0 20.0,63.2 C 20.0,63.2 22.0,61.3 24.0,59.5 C 24.0,59.5 26.0,57.7 28.3,55.8 C 28.3,55.8 30.7,54.0 33.3,51.8 C 33.3,51.8 36.0,49.7 39.0,47.3 C 39.0,47.3 42.0,45.0 45.0,42.7 C 45.0,42.7 48.0,40.3 51.0,38.0 C 51.0,38.0 54.0,35.7 56.8,33.7 C 56.8,33.7 59.7,31.7 62.5,29.7 C 62.5,29.7 65.3,27.7 68.2,26.0 C 68.2,26.0 71.0,24.3 74.0,22.7 C 74.0,22.7 77.0,21.0 80.2,19.8 C 80.2,19.8 83.3,18.7 86.5,18.0 C 86.5,18.0 89.7,17.3 93.2,17.3 C 93.2,17.3 96.7,17.3 100.2,17.7 C 100.2,17.7 103.7,18.0 107.3,18.8 C 107.3,18.8 111.0,19.7 114.8,20.5 C 114.8,20.5 118.7,21.3 122.8,22.5 C 122.8,22.5 127.0,23.7 131.2,24.7 C 131.2,24.7 135.3,25.7 139.2,26.7 C 139.2,26.7 143.0,27.7 146.2,28.5 C 146.2,28.5 149.3,29.3 152.0,30.0 C 152.0,30.0 154.7,30.7 156.7,31.3 C 156.7,31.3 158.7,32.0 160.3,32.5 C 160.3,32.5 162.0,33.0 163.3,33.5 C 163.3,33.5 164.7,34.0 166.0,34.7 C 166.0,34.7 167.3,35.3 168.5,36.3 C 168.5,36.3 169.7,37.3 170.5,38.7 C 170.5,38.7 171.3,40.0 171.7,41.5 C 171.7,41.5 172.0,43.0 171.8,44.7 C 171.8,44.7 171.7,46.3 171.2,47.8 C 171.2,47.8 170.7,49.3 169.7,50.8 C 169.7,50.8 168.7,52.3 167.2,53.7 C 167.2,53.7 165.7,55.0 163.8,56.3 C 163.8,56.3 162.0,57.7 160.0,58.8 C 160.0,58.8 158.0,60.0 155.7,61.2 C 155.7,61.2 153.3,62.3 150.8,63.8 C 150.8,63.8 148.3,65.3 145.7,67.0 C 145.7,67.0 143.0,68.7 140.2,70.5 C 140.2,70.5 137.3,72.3 134.7,74.0 C 134.7,74.0 132.0,75.7 129.5,77.5 C 129.5,77.5 127.0,79.3 124.8,81.3 C 124.8,81.3 122.7,83.3 120.8,85.5 C 120.8,85.5 119.0,87.7 117.3,90.2 C 117.3,90.2 115.7,92.7 114.7,95.3 C 114.7,95.3 113.7,98.0 112.8,101.0 C 112.8,101.0 112.0,104.0 111.7,107.2 C 111.7,107.2 111.3,110.3 111.5,113.5 C 111.5,113.5 111.7,116.7 112.2,120.0 C 112.2,120.0 112.7,123.3 113.7,126.7 C 113.7,126.7 114.7,130.0 115.8,133.8 C 115.8,133.8 117.0,137.7 118.5,141.7 C 118.5,141.7 120.0,145.7 121.3,149.8 C 121.3,149.8 122.7,154.0 124.0,158.2 C 124.0,158.2 125.3,162.3 126.7,166.7 C 126.7,166.7 128.0,171.0 129.5,175.8 C 129.5,175.8 131.0,180.7 132.5,185.8 C 132.5,185.8 134.0,191.0 135.5,196.7 C 135.5,196.7 137.0,202.3 138.5,207.8 C 138.5,207.8 140.0,213.3 141.7,219.0 C 141.7,219.0 143.3,224.7 145.0,230.2 C 145.0,230.2 146.7,235.7 148.3,241.5 C 148.3,241.5 150.0,247.3 152.0,254.2 L 154,261" stroke="#374151" stroke-width="8" fill="none" vector-effect="non-scaling-stroke"/><path d="M 116,444 C 115.2,441.8 114.5,439.5 113.6,436.6 C 113.6,436.6 112.7,433.7 111.0,428.2 C 111.0,428.2 109.3,422.7 107.7,416.7 C 107.7,416.7 106.0,410.7 104.3,405.0 C 104.3,405.0 102.7,399.3 101.0,393.3 C 101.0,393.3 99.3,387.3 97.5,381.2 C 97.5,381.2 95.7,375.0 93.8,368.8 C 93.8,368.8 92.0,362.7 90.2,356.3 C 90.2,356.3 88.3,350.0 86.5,343.8 C 86.5,343.8 84.7,337.7 83.0,331.2 C 83.0,331.2 81.3,324.7 79.5,318.5 C 79.5,318.5 77.7,312.3 75.8,306.0 C 75.8,306.0 74.0,299.7 72.0,293.3 C 72.0,293.3 70.0,287.0 68.0,280.3 C 68.0,280.3 66.0,273.7 64.0,267.2 C 64.0,267.2 62.0,260.7 60.0,254.0 C 60.0,254.0 58.0,247.3 56.2,240.8 C 56.2,240.8 54.3,234.3 52.7,227.8 C 52.7,227.8 51.0,221.3 49.2,215.2 C 49.2,215.2 47.3,209.0 45.7,203.2 C 45.7,203.2 44.0,197.3 42.3,191.8 C 42.3,191.8 40.7,186.3 39.2,181.0 C 39.2,181.0 37.7,175.7 36.0,170.3 C 36.0,170.3 34.3,165.0 32.7,159.8 C 32.7,159.8 31.0,154.7 29.7,149.8 C 29.7,149.8 28.3,145.0 27.0,140.7 C 27.0,140.7 25.7,136.3 24.5,132.2 C 24.5,132.2 23.3,128.0 22.2,124.2 C 22.2,124.2 21.0,120.3 20.2,116.7 C 20.2,116.7 19.3,113.0 18.5,109.7 C 18.5,109.7 17.7,106.3 16.8,103.3 C 16.8,103.3 16.0,100.3 15.2,97.5 C 15.2,97.5 14.3,94.7 13.7,92.0 C 13.7,92.0 13.0,89.3 12.7,86.7 C 12.7,86.7 12.3,84.0 12.2,81.3 C 12.2,81.3 12.0,78.7 12.3,76.2 C 12.3,76.2 12.7,73.7 13.7,71.3 C 13.7,71.3 14.7,69.0 16.3,67.0 C 16.3,67.0 18.0,65.0 20.0,63.2 C 20.0,63.2 22.0,61.3 24.0,59.5 C 24.0,59.5 26.0,57.7 28.3,55.8 C 28.3,55.8 30.7,54.0 33.3,51.8 C 33.3,51.8 36.0,49.7 39.0,47.3 C 39.0,47.3 42.0,45.0 45.0,42.7 C 45.0,42.7 48.0,40.3 51.0,38.0 C 51.0,38.0 54.0,35.7 56.8,33.7 C 56.8,33.7 59.7,31.7 62.5,29.7 C 62.5,29.7 65.3,27.7 68.2,26.0 C 68.2,26.0 71.0,24.3 74.0,22.7 C 74.0,22.7 77.0,21.0 80.2,19.8 C 80.2,19.8 83.3,18.7 86.5,18.0 C 86.5,18.0 89.7,17.3 93.2,17.3 C 93.2,17.3 96.7,17.3 100.2,17.7 C 100.2,17.7 103.7,18.0 107.3,18.8 C 107.3,18.8 111.0,19.7 114.8,20.5 C 114.8,20.5 118.7,21.3 122.8,22.5 C 122.8,22.5 127.0,23.7 131.2,24.7 C 131.2,24.7 135.3,25.7 139.2,26.7 C 139.2,26.7 143.0,27.7 146.2,28.5 C 146.2,28.5 149.3,29.3 152.0,30.0 C 152.0,30.0 154.7,30.7 156.7,31.3 C 156.7,31.3 158.7,32.0 160.3,32.5 C 160.3,32.5 162.0,33.0 163.3,33.5 C 163.3,33.5 164.7,34.0 166.0,34.7 C 166.0,34.7 167.3,35.3 168.5,36.3 C 168.5,36.3 169.7,37.3 170.5,38.7 C 170.5,38.7 171.3,40.0 171.7,41.5 C 171.7,41.5 172.0,43.0 171.8,44.7 C 171.8,44.7 171.7,46.3 171.2,47.8 C 171.2,47.8 170.7,49.3 169.7,50.8 C 169.7,50.8 168.7,52.3 167.2,53.7 C 167.2,53.7 165.7,55.0 163.8,56.3 C 163.8,56.3 162.0,57.7 160.0,58.8 C 160.0,58.8 158.0,60.0 155.7,61.2 C 155.7,61.2 153.3,62.3 150.8,63.8 C 150.8,63.8 148.3,65.3 145.7,67.0 C 145.7,67.0 143.0,68.7 140.2,70.5 C 140.2,70.5 137.3,72.3 134.7,74.0 C 134.7,74.0 132.0,75.7 129.5,77.5 C 129.5,77.5 127.0,79.3 124.8,81.3 C 124.8,81.3 122.7,83.3 120.8,85.5 C 120.8,85.5 119.0,87.7 117.3,90.2 C 117.3,90.2 115.7,92.7 114.7,95.3 C 114.7,95.3 113.7,98.0 112.8,101.0 C 112.8,101.0 112.0,104.0 111.7,107.2 C 111.7,107.2 111.3,110.3 111.5,113.5 C 111.5,113.5 111.7,116.7 112.2,120.0 C 112.2,120.0 112.7,123.3 113.7,126.7 C 113.7,126.7 114.7,130.0 115.8,133.8 C 115.8,133.8 117.0,137.7 118.5,141.7 C 118.5,141.7 120.0,145.7 121.3,149.8 C 121.3,149.8 122.7,154.0 124.0,158.2 C 124.0,158.2 125.3,162.3 126.7,166.7 C 126.7,166.7 128.0,171.0 129.5,175.8 C 129.5,175.8 131.0,180.7 132.5,185.8 C 132.5,185.8 134.0,191.0 135.5,196.7 C 135.5,196.7 137.0,202.3 138.5,207.8 C 138.5,207.8 140.0,213.3 141.7,219.0 C 141.7,219.0 143.3,224.7 145.0,230.2 C 145.0,230.2 146.7,235.7 148.3,241.5 C 148.3,241.5 150.0,247.3 152.0,254.2 L 154,261" stroke="#EF4444" stroke-width="2" fill="none" vector-effect="non-scaling-stroke"/><path d="M 154,261 C 154.8,263.5 155.5,266.0 156.1,268.7 C 156.1,268.7 156.7,271.3 158.0,276.5 C 158.0,276.5 159.3,281.7 160.7,287.0 C 160.7,287.0 162.0,292.3 163.3,297.3 C 163.3,297.3 164.7,302.3 166.0,307.5 C 166.0,307.5 167.3,312.7 168.7,317.3 C 168.7,317.3 170.0,322.0 171.5,326.7 C 171.5,326.7 173.0,331.3 174.2,335.3 C 174.2,335.3 175.3,339.3 176.3,343.0 C 176.3,343.0 177.3,346.7 178.2,349.8 C 178.2,349.8 179.0,353.0 179.8,356.2 C 179.8,356.2 180.7,359.3 181.5,362.3 C 181.5,362.3 182.3,365.3 183.0,368.3 C 183.0,368.3 183.7,371.3 184.5,374.0 C 184.5,374.0 185.3,376.7 186.0,379.5 C 186.0,379.5 186.7,382.3 187.3,384.8 C 187.3,384.8 188.0,387.3 188.7,389.7 C 188.7,389.7 189.3,392.0 190.0,393.8 C 190.0,393.8 190.7,395.7 191.3,397.3 C 191.3,397.3 192.0,399.0 192.3,400.5 C 192.3,400.5 192.7,402.0 193.2,403.3 C 193.2,403.3 193.7,404.7 194.2,405.8 C 194.2,405.8 194.7,407.0 195.7,408.0 C 195.7,408.0 196.7,409.0 197.8,410.0 C 197.8,410.0 199.0,411.0 200.5,411.7 C 200.5,411.7 202.0,412.3 203.5,412.7 C 203.5,412.7 205.0,413.0 206.3,412.7 C 206.3,412.7 207.7,412.3 208.8,411.7 C 208.8,411.7 210.0,411.0 211.0,410.0 C 211.0,410.0 212.0,409.0 212.8,407.8 C 212.8,407.8 213.7,406.7 214.2,405.2 C 214.2,405.2 214.7,403.7 215.0,401.8 C 215.0,401.8 215.3,400.0 215.7,397.8 C 215.7,397.8 216.0,395.7 216.3,393.3 C 216.3,393.3 216.7,391.0 217.0,388.2 C 217.0,388.2 217.3,385.3 217.5,382.3 C 217.5,382.3 217.7,379.3 218.0,376.0 C 218.0,376.0 218.3,372.7 218.7,369.2 C 218.7,369.2 219.0,365.7 219.5,361.8 C 219.5,361.8 220.0,358.0 220.5,353.8 C 220.5,353.8 221.0,349.7 221.5,345.3 C 221.5,345.3 222.0,341.0 222.3,336.7 C 222.3,336.7 222.7,332.3 223.2,328.2 C 223.2,328.2 223.7,324.0 224.0,320.0 C 224.0,320.0 224.3,316.0 224.8,312.2 C 224.8,312.2 225.3,308.3 225.5,304.7 C 225.5,304.7 225.7,301.0 225.7,297.5 C 225.7,297.5 225.7,294.0 225.3,290.3 C 225.3,290.3 225.0,286.7 224.5,283.0 C 224.5,283.0 224.0,279.3 223.3,275.7 C 223.3,275.7 222.7,272.0 221.7,268.7 C 221.7,268.7 220.7,265.3 219.2,262.0 C 219.2,262.0 217.7,258.7 216.0,255.5 C 216.0,255.5 214.3,252.3 212.5,249.0 C 212.5,249.0 210.7,245.7 208.8,242.2 C 208.8,242.2 207.0,238.7 205.0,235.0 C 205.0,235.0 203.0,231.3 201.0,227.7 C 201.0,227.7 199.0,224.0 197.2,220.5 C 197.2,220.5 195.3,217.0 193.5,213.7 C 193.5,213.7 191.7,210.3 190.0,207.2 C 190.0,207.2 188.3,204.0 186.7,201.2 C 186.7,201.2 185.0,198.3 183.7,195.5 C 183.7,195.5 182.3,192.7 181.0,190.0 C 181.0,190.0 179.7,187.3 178.7,184.5 C 178.7,184.5 177.7,181.7 176.7,179.0 C 176.7,179.0 175.7,176.3 175.2,173.5 C 175.2,173.5 174.7,170.7 174.3,168.0 C 174.3,168.0 174.0,165.3 174.3,162.5 C 174.3,162.5 174.7,159.7 175.3,156.8 C 175.3,156.8 176.0,154.0 177.2,151.0 C 177.2,151.0 178.3,148.0 179.8,145.2 C 179.8,145.2 181.3,142.3 183.2,139.5 C 183.2,139.5 185.0,136.7 187.0,134.0 C 187.0,134.0 189.0,131.3 191.3,128.5 C 191.3,128.5 193.7,125.7 196.0,122.8 C 196.0,122.8 198.3,120.0 200.7,117.3 C 200.7,117.3 203.0,114.7 205.0,112.5 C 205.0,112.5 207.0,110.3 208.8,108.7 C 208.8,108.7 210.7,107.0 212.5,105.7 C 212.5,105.7 214.3,104.3 216.3,103.2 C 216.3,103.2 218.3,102.0 220.5,101.3 C 220.5,101.3 222.7,100.7 224.8,100.3 C 224.8,100.3 227.0,100.0 228.8,100.3 C 228.8,100.3 230.7,100.7 232.5,101.5 C 232.5,101.5 234.3,102.3 235.8,103.8 C 235.8,103.8 237.3,105.3 238.7,107.2 C 238.7,107.2 240.0,109.0 240.8,111.2 C 240.8,111.2 241.7,113.3 242.3,115.7 C 242.3,115.7 243.0,118.0 243.5,120.7 C 243.5,120.7 244.0,123.3 244.7,126.2 C 244.7,126.2 245.3,129.0 246.0,132.0 C 246.0,132.0 246.7,135.0 247.2,138.0 C 247.2,138.0 247.7,141.0 248.0,144.2 C 248.0,144.2 248.3,147.3 248.7,150.5 C 248.7,150.5 249.0,153.7 249.5,157.0 C 249.5,157.0 250.0,160.3 250.5,163.8 C 250.5,163.8 251.0,167.3 251.5,171.2 C 251.5,171.2 252.0,175.0 252.5,178.8 C 252.5,178.8 253.0,182.7 253.5,186.5 C 253.5,186.5 254.0,190.3 254.5,194.2 C 254.5,194.2 255.0,198.0 255.5,202.0 C 255.5,202.0 256.0,206.0 256.3,209.8 C 256.3,209.8 256.7,213.7 257.2,217.7 C 257.2,217.7 257.7,221.7 258.0,225.7 C 258.0,225.7 258.3,229.7 258.8,233.8 C 258.8,233.8 259.3,238.0 259.7,241.8 C 259.7,241.8 260.0,245.7 260.5,249.5 C 260.5,249.5 261.0,253.3 261.5,257.2 C 261.5,257.2 262.0,261.0 262.7,264.8 C 262.7,264.8 263.3,268.7 264.2,272.3 C 264.2,272.3 265.0,276.0 266.0,279.5 C 266.0,279.5 267.0,283.0 268.2,286.3 C 268.2,286.3 269.3,289.7 270.7,292.8 C 270.7,292.8 272.0,296.0 273.8,299.0 C 273.8,299.0 275.7,302.0 277.8,304.8 C 277.8,304.8 280.0,307.7 282.5,310.3 C 282.5,310.3 285.0,313.0 287.8,315.3 C 287.8,315.3 290.7,317.7 293.7,319.8 C 293.7,319.8 296.7,322.0 299.8,323.8 C 299.8,323.8 303.0,325.7 306.2,327.5 C 306.2,327.5 309.3,329.3 312.7,331.0 C 312.7,331.0 316.0,332.7 319.3,334.5 C 319.3,334.5 322.7,336.3 325.8,337.8 C 325.8,337.8 329.0,339.3 332.0,340.8 C 332.0,340.8 335.0,342.3 338.0,343.7 C 338.0,343.7 341.0,345.0 344.0,346.5 C 344.0,346.5 347.0,348.0 349.8,349.5 C 349.8,349.5 352.7,351.0 355.5,352.3 C 355.5,352.3 358.3,353.7 360.8,355.0 C 360.8,355.0 363.3,356.3 365.8,357.7 C 365.8,357.7 368.3,359.0 370.7,360.5 C 370.7,360.5 373.0,362.0 375.3,363.7 C 375.3,363.7 377.7,365.3 379.8,367.2 C 379.8,367.2 382.0,369.0 384.0,371.0 C 384.0,371.0 386.0,373.0 387.8,375.2 C 387.8,375.2 389.7,377.3 391.2,379.5 C 391.2,379.5 392.7,381.7 394.0,384.0 C 394.0,384.0 395.3,386.3 396.3,388.5 C 396.3,388.5 397.3,390.7 398.3,392.8 C 398.3,392.8 399.3,395.0 400.0,397.0 C 400.0,397.0 400.7,399.0 401.2,401.0 C 401.2,401.0 401.7,403.0 401.8,405.0 C 401.8,405.0 402.0,407.0 401.7,409.0 C 401.7,409.0 401.3,411.0 400.8,413.0 C 400.8,413.0 400.3,415.0 399.3,416.8 C 399.3,416.8 398.3,418.7 397.2,420.3 C 397.2,420.3 396.0,422.0 394.3,423.3 C 394.3,423.3 392.7,424.7 390.8,425.7 C 390.8,425.7 389.0,426.7 386.8,427.5 C 386.8,427.5 384.7,428.3 382.3,429.2 C 382.3,429.2 380.0,430.0 377.3,430.8 C 377.3,430.8 374.7,431.7 371.7,432.7 C 371.7,432.7 368.7,433.7 365.5,434.5 C 365.5,434.5 362.3,435.3 357.7,436.7 L 353,438" stroke="#374151" stroke-width="8" fill="none" vector-effect="non-scaling-stroke"/><path d="M 154,261 C 154.8,263.5 155.5,266.0 156.1,268.7 C 156.1,268.7 156.7,271.3 158.0,276.5 C 158.0,276.5 159.3,281.7 160.7,287.0 C 160.7,287.0 162.0,292.3 163.3,297.3 C 163.3,297.3 164.7,302.3 166.0,307.5 C 166.0,307.5 167.3,312.7 168.7,317.3 C 168.7,317.3 170.0,322.0 171.5,326.7 C 171.5,326.7 173.0,331.3 174.2,335.3 C 174.2,335.3 175.3,339.3 176.3,343.0 C 176.3,343.0 177.3,346.7 178.2,349.8 C 178.2,349.8 179.0,353.0 179.8,356.2 C 179.8,356.2 180.7,359.3 181.5,362.3 C 181.5,362.3 182.3,365.3 183.0,368.3 C 183.0,368.3 183.7,371.3 184.5,374.0 C 184.5,374.0 185.3,376.7 186.0,379.5 C 186.0,379.5 186.7,382.3 187.3,384.8 C 187.3,384.8 188.0,387.3 188.7,389.7 C 188.7,389.7 189.3,392.0 190.0,393.8 C 190.0,393.8 190.7,395.7 191.3,397.3 C 191.3,397.3 192.0,399.0 192.3,400.5 C 192.3,400.5 192.7,402.0 193.2,403.3 C 193.2,403.3 193.7,404.7 194.2,405.8 C 194.2,405.8 194.7,407.0 195.7,408.0 C 195.7,408.0 196.7,409.0 197.8,410.0 C 197.8,410.0 199.0,411.0 200.5,411.7 C 200.5,411.7 202.0,412.3 203.5,412.7 C 203.5,412.7 205.0,413.0 206.3,412.7 C 206.3,412.7 207.7,412.3 208.8,411.7 C 208.8,411.7 210.0,411.0 211.0,410.0 C 211.0,410.0 212.0,409.0 212.8,407.8 C 212.8,407.8 213.7,406.7 214.2,405.2 C 214.2,405.2 214.7,403.7 215.0,401.8 C 215.0,401.8 215.3,400.0 215.7,397.8 C 215.7,397.8 216.0,395.7 216.3,393.3 C 216.3,393.3 216.7,391.0 217.0,388.2 C 217.0,388.2 217.3,385.3 217.5,382.3 C 217.5,382.3 217.7,379.3 218.0,376.0 C 218.0,376.0 218.3,372.7 218.7,369.2 C 218.7,369.2 219.0,365.7 219.5,361.8 C 219.5,361.8 220.0,358.0 220.5,353.8 C 220.5,353.8 221.0,349.7 221.5,345.3 C 221.5,345.3 222.0,341.0 222.3,336.7 C 222.3,336.7 222.7,332.3 223.2,328.2 C 223.2,328.2 223.7,324.0 224.0,320.0 C 224.0,320.0 224.3,316.0 224.8,312.2 C 224.8,312.2 225.3,308.3 225.5,304.7 C 225.5,304.7 225.7,301.0 225.7,297.5 C 225.7,297.5 225.7,294.0 225.3,290.3 C 225.3,290.3 225.0,286.7 224.5,283.0 C 224.5,283.0 224.0,279.3 223.3,275.7 C 223.3,275.7 222.7,272.0 221.7,268.7 C 221.7,268.7 220.7,265.3 219.2,262.0 C 219.2,262.0 217.7,258.7 216.0,255.5 C 216.0,255.5 214.3,252.3 212.5,249.0 C 212.5,249.0 210.7,245.7 208.8,242.2 C 208.8,242.2 207.0,238.7 205.0,235.0 C 205.0,235.0 203.0,231.3 201.0,227.7 C 201.0,227.7 199.0,224.0 197.2,220.5 C 197.2,220.5 195.3,217.0 193.5,213.7 C 193.5,213.7 191.7,210.3 190.0,207.2 C 190.0,207.2 188.3,204.0 186.7,201.2 C 186.7,201.2 185.0,198.3 183.7,195.5 C 183.7,195.5 182.3,192.7 181.0,190.0 C 181.0,190.0 179.7,187.3 178.7,184.5 C 178.7,184.5 177.7,181.7 176.7,179.0 C 176.7,179.0 175.7,176.3 175.2,173.5 C 175.2,173.5 174.7,170.7 174.3,168.0 C 174.3,168.0 174.0,165.3 174.3,162.5 C 174.3,162.5 174.7,159.7 175.3,156.8 C 175.3,156.8 176.0,154.0 177.2,151.0 C 177.2,151.0 178.3,148.0 179.8,145.2 C 179.8,145.2 181.3,142.3 183.2,139.5 C 183.2,139.5 185.0,136.7 187.0,134.0 C 187.0,134.0 189.0,131.3 191.3,128.5 C 191.3,128.5 193.7,125.7 196.0,122.8 C 196.0,122.8 198.3,120.0 200.7,117.3 C 200.7,117.3 203.0,114.7 205.0,112.5 C 205.0,112.5 207.0,110.3 208.8,108.7 C 208.8,108.7 210.7,107.0 212.5,105.7 C 212.5,105.7 214.3,104.3 216.3,103.2 C 216.3,103.2 218.3,102.0 220.5,101.3 C 220.5,101.3 222.7,100.7 224.8,100.3 C 224.8,100.3 227.0,100.0 228.8,100.3 C 228.8,100.3 230.7,100.7 232.5,101.5 C 232.5,101.5 234.3,102.3 235.8,103.8 C 235.8,103.8 237.3,105.3 238.7,107.2 C 238.7,107.2 240.0,109.0 240.8,111.2 C 240.8,111.2 241.7,113.3 242.3,115.7 C 242.3,115.7 243.0,118.0 243.5,120.7 C 243.5,120.7 244.0,123.3 244.7,126.2 C 244.7,126.2 245.3,129.0 246.0,132.0 C 246.0,132.0 246.7,135.0 247.2,138.0 C 247.2,138.0 247.7,141.0 248.0,144.2 C 248.0,144.2 248.3,147.3 248.7,150.5 C 248.7,150.5 249.0,153.7 249.5,157.0 C 249.5,157.0 250.0,160.3 250.5,163.8 C 250.5,163.8 251.0,167.3 251.5,171.2 C 251.5,171.2 252.0,175.0 252.5,178.8 C 252.5,178.8 253.0,182.7 253.5,186.5 C 253.5,186.5 254.0,190.3 254.5,194.2 C 254.5,194.2 255.0,198.0 255.5,202.0 C 255.5,202.0 256.0,206.0 256.3,209.8 C 256.3,209.8 256.7,213.7 257.2,217.7 C 257.2,217.7 257.7,221.7 258.0,225.7 C 258.0,225.7 258.3,229.7 258.8,233.8 C 258.8,233.8 259.3,238.0 259.7,241.8 C 259.7,241.8 260.0,245.7 260.5,249.5 C 260.5,249.5 261.0,253.3 261.5,257.2 C 261.5,257.2 262.0,261.0 262.7,264.8 C 262.7,264.8 263.3,268.7 264.2,272.3 C 264.2,272.3 265.0,276.0 266.0,279.5 C 266.0,279.5 267.0,283.0 268.2,286.3 C 268.2,286.3 269.3,289.7 270.7,292.8 C 270.7,292.8 272.0,296.0 273.8,299.0 C 273.8,299.0 275.7,302.0 277.8,304.8 C 277.8,304.8 280.0,307.7 282.5,310.3 C 282.5,310.3 285.0,313.0 287.8,315.3 C 287.8,315.3 290.7,317.7 293.7,319.8 C 293.7,319.8 296.7,322.0 299.8,323.8 C 299.8,323.8 303.0,325.7 306.2,327.5 C 306.2,327.5 309.3,329.3 312.7,331.0 C 312.7,331.0 316.0,332.7 319.3,334.5 C 319.3,334.5 322.7,336.3 325.8,337.8 C 325.8,337.8 329.0,339.3 332.0,340.8 C 332.0,340.8 335.0,342.3 338.0,343.7 C 338.0,343.7 341.0,345.0 344.0,346.5 C 344.0,346.5 347.0,348.0 349.8,349.5 C 349.8,349.5 352.7,351.0 355.5,352.3 C 355.5,352.3 358.3,353.7 360.8,355.0 C 360.8,355.0 363.3,356.3 365.8,357.7 C 365.8,357.7 368.3,359.0 370.7,360.5 C 370.7,360.5 373.0,362.0 375.3,363.7 C 375.3,363.7 377.7,365.3 379.8,367.2 C 379.8,367.2 382.0,369.0 384.0,371.0 C 384.0,371.0 386.0,373.0 387.8,375.2 C 387.8,375.2 389.7,377.3 391.2,379.5 C 391.2,379.5 392.7,381.7 394.0,384.0 C 394.0,384.0 395.3,386.3 396.3,388.5 C 396.3,388.5 397.3,390.7 398.3,392.8 C 398.3,392.8 399.3,395.0 400.0,397.0 C 400.0,397.0 400.7,399.0 401.2,401.0 C 401.2,401.0 401.7,403.0 401.8,405.0 C 401.8,405.0 402.0,407.0 401.7,409.0 C 401.7,409.0 401.3,411.0 400.8,413.0 C 400.8,413.0 400.3,415.0 399.3,416.8 C 399.3,416.8 398.3,418.7 397.2,420.3 C 397.2,420.3 396.0,422.0 394.3,423.3 C 394.3,423.3 392.7,424.7 390.8,425.7 C 390.8,425.7 389.0,426.7 386.8,427.5 C 386.8,427.5 384.7,428.3 382.3,429.2 C 382.3,429.2 380.0,430.0 377.3,430.8 C 377.3,430.8 374.7,431.7 371.7,432.7 C 371.7,432.7 368.7,433.7 365.5,434.5 C 365.5,434.5 362.3,435.3 357.7,436.7 L 353,438" stroke="#3B82F6" stroke-width="2" fill="none" vector-effect="non-scaling-stroke"/><path d="M 353,438 C 351.5,438.5 350.0,439.0 348.2,439.3 C 348.2,439.3 346.3,439.7 343.0,440.5 C 343.0,440.5 339.7,441.3 336.3,442.3 C 336.3,442.3 333.0,443.3 329.8,444.3 C 329.8,444.3 326.7,445.3 323.5,446.5 C 323.5,446.5 320.3,447.7 317.2,448.7 C 317.2,448.7 314.0,449.7 311.0,451.2 C 311.0,451.2 308.0,452.7 305.0,454.3 C 305.0,454.3 302.0,456.0 299.2,457.8 C 299.2,457.8 296.3,459.7 293.7,461.8 C 293.7,461.8 291.0,464.0 288.7,466.3 C 288.7,466.3 286.3,468.7 284.2,471.5 C 284.2,471.5 282.0,474.3 280.3,477.2 C 280.3,477.2 278.7,480.0 277.3,483.2 C 277.3,483.2 276.0,486.3 275.0,489.5 C 275.0,489.5 274.0,492.7 273.0,496.0 C 273.0,496.0 272.0,499.3 271.2,502.7 C 271.2,502.7 270.3,506.0 269.7,509.7 C 269.7,509.7 269.0,513.3 268.5,517.2 C 268.5,517.2 268.0,521.0 267.5,524.8 C 267.5,524.8 267.0,528.7 266.5,532.2 C 266.5,532.2 266.0,535.7 265.5,539.0 C 265.5,539.0 265.0,542.3 264.5,545.3 C 264.5,545.3 264.0,548.3 263.7,551.3 C 263.7,551.3 263.3,554.3 263.2,556.8 C 263.2,556.8 263.0,559.3 262.8,561.5 C 262.8,561.5 262.7,563.7 262.5,565.3 C 262.5,565.3 262.3,567.0 262.3,568.5 C 262.3,568.5 262.3,570.0 262.7,571.5 C 262.7,571.5 263.0,573.0 263.7,574.5 C 263.7,574.5 264.3,576.0 265.2,577.5 C 265.2,577.5 266.0,579.0 267.0,580.3 C 267.0,580.3 268.0,581.7 269.3,582.8 C 269.3,582.8 270.7,584.0 272.3,584.8 C 272.3,584.8 274.0,585.7 276.0,586.2 C 276.0,586.2 278.0,586.7 279.8,586.7 C 279.8,586.7 281.7,586.7 283.5,586.2 C 283.5,586.2 285.3,585.7 287.0,584.8 C 287.0,584.8 288.7,584.0 290.3,582.7 C 290.3,582.7 292.0,581.3 293.5,579.8 C 293.5,579.8 295.0,578.3 296.5,576.3 C 296.5,576.3 298.0,574.3 299.7,572.3 C 299.7,572.3 301.3,570.3 303.0,568.0 C 303.0,568.0 304.7,565.7 306.5,563.3 C 306.5,563.3 308.3,561.0 310.3,558.5 C 310.3,558.5 312.3,556.0 314.3,553.7 C 314.3,553.7 316.3,551.3 318.3,549.0 C 318.3,549.0 320.3,546.7 322.2,544.3 C 322.2,544.3 324.0,542.0 326.0,539.7 C 326.0,539.7 328.0,537.3 330.0,535.0 C 330.0,535.0 332.0,532.7 333.8,530.5 C 333.8,530.5 335.7,528.3 337.3,526.3 C 337.3,526.3 339.0,524.3 340.7,522.7 C 340.7,522.7 342.3,521.0 344.0,519.7 C 344.0,519.7 345.7,518.3 347.5,517.0 C 347.5,517.0 349.3,515.7 351.2,514.7 C 351.2,514.7 353.0,513.7 355.0,513.0 C 355.0,513.0 357.0,512.3 359.2,512.2 C 359.2,512.2 361.3,512.0 363.7,512.2 C 363.7,512.2 366.0,512.3 368.3,513.0 C 368.3,513.0 370.7,513.7 372.8,514.7 C 372.8,514.7 375.0,515.7 376.7,517.2 C 376.7,517.2 378.3,518.7 380.0,520.3 C 380.0,520.3 381.7,522.0 383.0,524.0 C 383.0,524.0 384.3,526.0 385.8,528.2 C 385.8,528.2 387.3,530.3 388.5,532.7 C 388.5,532.7 389.7,535.0 390.7,537.7 C 390.7,537.7 391.7,540.3 392.2,543.3 C 392.2,543.3 392.7,546.3 392.7,549.3 C 392.7,549.3 392.7,552.3 392.3,555.3 C 392.3,555.3 392.0,558.3 391.5,561.0 C 391.5,561.0 391.0,563.7 390.0,566.5 C 390.0,566.5 389.0,569.3 387.7,572.0 C 387.7,572.0 386.3,574.7 384.5,577.3 C 384.5,577.3 382.7,580.0 380.8,582.5 C 380.8,582.5 379.0,585.0 376.8,587.8 C 376.8,587.8 374.7,590.7 372.3,593.5 C 372.3,593.5 370.0,596.3 367.5,599.5 C 367.5,599.5 365.0,602.7 362.5,605.7 C 362.5,605.7 360.0,608.7 357.5,611.7 C 357.5,611.7 355.0,614.7 352.5,617.7 C 352.5,617.7 350.0,620.7 347.7,623.7 C 347.7,623.7 345.3,626.7 342.8,629.7 C 342.8,629.7 340.3,632.7 337.8,635.5 C 337.8,635.5 335.3,638.3 332.8,641.2 C 332.8,641.2 330.3,644.0 327.8,646.8 C 327.8,646.8 325.3,649.7 322.8,652.3 C 322.8,652.3 320.3,655.0 317.5,657.5 C 317.5,657.5 314.7,660.0 311.8,662.3 C 311.8,662.3 309.0,664.7 306.0,666.8 C 306.0,666.8 303.0,669.0 299.8,670.8 C 299.8,670.8 296.7,672.7 293.3,674.3 C 293.3,674.3 290.0,676.0 286.5,677.3 C 286.5,677.3 283.0,678.7 279.3,679.7 C 279.3,679.7 275.7,680.7 272.0,681.3 C 272.0,681.3 268.3,682.0 264.5,682.3 C 264.5,682.3 260.7,682.7 256.8,682.8 C 256.8,682.8 253.0,683.0 249.2,682.8 C 249.2,682.8 245.3,682.7 241.5,682.2 C 241.5,682.2 237.7,681.7 234.0,680.8 C 234.0,680.8 230.3,680.0 226.5,678.8 C 226.5,678.8 222.7,677.7 219.0,676.2 C 219.0,676.2 215.3,674.7 211.5,672.7 C 211.5,672.7 207.7,670.7 204.0,668.3 C 204.0,668.3 200.3,666.0 196.8,663.3 C 196.8,663.3 193.3,660.7 190.3,657.8 C 190.3,657.8 187.3,655.0 184.7,651.8 C 184.7,651.8 182.0,648.7 179.7,645.3 C 179.7,645.3 177.3,642.0 175.3,638.5 C 175.3,638.5 173.3,635.0 171.7,631.3 C 171.7,631.3 170.0,627.7 168.5,623.7 C 168.5,623.7 167.0,619.7 165.5,615.2 C 165.5,615.2 164.0,610.7 162.5,605.8 C 162.5,605.8 161.0,601.0 159.5,596.2 C 159.5,596.2 158.0,591.3 156.5,586.3 C 156.5,586.3 155.0,581.3 153.7,576.2 C 153.7,576.2 152.3,571.0 150.8,565.3 C 150.8,565.3 149.3,559.7 147.8,554.2 C 147.8,554.2 146.3,548.7 144.5,542.8 C 144.5,542.8 142.7,537.0 141.0,531.3 C 141.0,531.3 139.3,525.7 137.5,519.5 C 137.5,519.5 135.7,513.3 134.0,507.5 C 134.0,507.5 132.3,501.7 130.5,495.3 C 130.5,495.3 128.7,489.0 127.0,482.8 C 127.0,482.8 125.3,476.7 123.5,470.2 C 123.5,470.2 121.7,463.7 118.8,453.8 L 116,444" stroke="#374151" stroke-width="8" fill="none" vector-effect="non-scaling-stroke"/><path d="M 353,438 C 351.5,438.5 350.0,439.0 348.2,439.3 C 348.2,439.3 346.3,439.7 343.0,440.5 C 343.0,440.5 339.7,441.3 336.3,442.3 C 336.3,442.3 333.0,443.3 329.8,444.3 C 329.8,444.3 326.7,445.3 323.5,446.5 C 323.5,446.5 320.3,447.7 317.2,448.7 C 317.2,448.7 314.0,449.7 311.0,451.2 C 311.0,451.2 308.0,452.7 305.0,454.3 C 305.0,454.3 302.0,456.0 299.2,457.8 C 299.2,457.8 296.3,459.7 293.7,461.8 C 293.7,461.8 291.0,464.0 288.7,466.3 C 288.7,466.3 286.3,468.7 284.2,471.5 C 284.2,471.5 282.0,474.3 280.3,477.2 C 280.3,477.2 278.7,480.0 277.3,483.2 C 277.3,483.2 276.0,486.3 275.0,489.5 C 275.0,489.5 274.0,492.7 273.0,496.0 C 273.0,496.0 272.0,499.3 271.2,502.7 C 271.2,502.7 270.3,506.0 269.7,509.7 C 269.7,509.7 269.0,513.3 268.5,517.2 C 268.5,517.2 268.0,521.0 267.5,524.8 C 267.5,524.8 267.0,528.7 266.5,532.2 C 266.5,532.2 266.0,535.7 265.5,539.0 C 265.5,539.0 265.0,542.3 264.5,545.3 C 264.5,545.3 264.0,548.3 263.7,551.3 C 263.7,551.3 263.3,554.3 263.2,556.8 C 263.2,556.8 263.0,559.3 262.8,561.5 C 262.8,561.5 262.7,563.7 262.5,565.3 C 262.5,565.3 262.3,567.0 262.3,568.5 C 262.3,568.5 262.3,570.0 262.7,571.5 C 262.7,571.5 263.0,573.0 263.7,574.5 C 263.7,574.5 264.3,576.0 265.2,577.5 C 265.2,577.5 266.0,579.0 267.0,580.3 C 267.0,580.3 268.0,581.7 269.3,582.8 C 269.3,582.8 270.7,584.0 272.3,584.8 C 272.3,584.8 274.0,585.7 276.0,586.2 C 276.0,586.2 278.0,586.7 279.8,586.7 C 279.8,586.7 281.7,586.7 283.5,586.2 C 283.5,586.2 285.3,585.7 287.0,584.8 C 287.0,584.8 288.7,584.0 290.3,582.7 C 290.3,582.7 292.0,581.3 293.5,579.8 C 293.5,579.8 295.0,578.3 296.5,576.3 C 296.5,576.3 298.0,574.3 299.7,572.3 C 299.7,572.3 301.3,570.3 303.0,568.0 C 303.0,568.0 304.7,565.7 306.5,563.3 C 306.5,563.3 308.3,561.0 310.3,558.5 C 310.3,558.5 312.3,556.0 314.3,553.7 C 314.3,553.7 316.3,551.3 318.3,549.0 C 318.3,549.0 320.3,546.7 322.2,544.3 C 322.2,544.3 324.0,542.0 326.0,539.7 C 326.0,539.7 328.0,537.3 330.0,535.0 C 330.0,535.0 332.0,532.7 333.8,530.5 C 333.8,530.5 335.7,528.3 337.3,526.3 C 337.3,526.3 339.0,524.3 340.7,522.7 C 340.7,522.7 342.3,521.0 344.0,519.7 C 344.0,519.7 345.7,518.3 347.5,517.0 C 347.5,517.0 349.3,515.7 351.2,514.7 C 351.2,514.7 353.0,513.7 355.0,513.0 C 355.0,513.0 357.0,512.3 359.2,512.2 C 359.2,512.2 361.3,512.0 363.7,512.2 C 363.7,512.2 366.0,512.3 368.3,513.0 C 368.3,513.0 370.7,513.7 372.8,514.7 C 372.8,514.7 375.0,515.7 376.7,517.2 C 376.7,517.2 378.3,518.7 380.0,520.3 C 380.0,520.3 381.7,522.0 383.0,524.0 C 383.0,524.0 384.3,526.0 385.8,528.2 C 385.8,528.2 387.3,530.3 388.5,532.7 C 388.5,532.7 389.7,535.0 390.7,537.7 C 390.7,537.7 391.7,540.3 392.2,543.3 C 392.2,543.3 392.7,546.3 392.7,549.3 C 392.7,549.3 392.7,552.3 392.3,555.3 C 392.3,555.3 392.0,558.3 391.5,561.0 C 391.5,561.0 391.0,563.7 390.0,566.5 C 390.0,566.5 389.0,569.3 387.7,572.0 C 387.7,572.0 386.3,574.7 384.5,577.3 C 384.5,577.3 382.7,580.0 380.8,582.5 C 380.8,582.5 379.0,585.0 376.8,587.8 C 376.8,587.8 374.7,590.7 372.3,593.5 C 372.3,593.5 370.0,596.3 367.5,599.5 C 367.5,599.5 365.0,602.7 362.5,605.7 C 362.5,605.7 360.0,608.7 357.5,611.7 C 357.5,611.7 355.0,614.7 352.5,617.7 C 352.5,617.7 350.0,620.7 347.7,623.7 C 347.7,623.7 345.3,626.7 342.8,629.7 C 342.8,629.7 340.3,632.7 337.8,635.5 C 337.8,635.5 335.3,638.3 332.8,641.2 C 332.8,641.2 330.3,644.0 327.8,646.8 C 327.8,646.8 325.3,649.7 322.8,652.3 C 322.8,652.3 320.3,655.0 317.5,657.5 C 317.5,657.5 314.7,660.0 311.8,662.3 C 311.8,662.3 309.0,664.7 306.0,666.8 C 306.0,666.8 303.0,669.0 299.8,670.8 C 299.8,670.8 296.7,672.7 293.3,674.3 C 293.3,674.3 290.0,676.0 286.5,677.3 C 286.5,677.3 283.0,678.7 279.3,679.7 C 279.3,679.7 275.7,680.7 272.0,681.3 C 272.0,681.3 268.3,682.0 264.5,682.3 C 264.5,682.3 260.7,682.7 256.8,682.8 C 256.8,682.8 253.0,683.0 249.2,682.8 C 249.2,682.8 245.3,682.7 241.5,682.2 C 241.5,682.2 237.7,681.7 234.0,680.8 C 234.0,680.8 230.3,680.0 226.5,678.8 C 226.5,678.8 222.7,677.7 219.0,676.2 C 219.0,676.2 215.3,674.7 211.5,672.7 C 211.5,672.7 207.7,670.7 204.0,668.3 C 204.0,668.3 200.3,666.0 196.8,663.3 C 196.8,663.3 193.3,660.7 190.3,657.8 C 190.3,657.8 187.3,655.0 184.7,651.8 C 184.7,651.8 182.0,648.7 179.7,645.3 C 179.7,645.3 177.3,642.0 175.3,638.5 C 175.3,638.5 173.3,635.0 171.7,631.3 C 171.7,631.3 170.0,627.7 168.5,623.7 C 168.5,623.7 167.0,619.7 165.5,615.2 C 165.5,615.2 164.0,610.7 162.5,605.8 C 162.5,605.8 161.0,601.0 159.5,596.2 C 159.5,596.2 158.0,591.3 156.5,586.3 C 156.5,586.3 155.0,581.3 153.7,576.2 C 153.7,576.2 152.3,571.0 150.8,565.3 C 150.8,565.3 149.3,559.7 147.8,554.2 C 147.8,554.2 146.3,548.7 144.5,542.8 C 144.5,542.8 142.7,537.0 141.0,531.3 C 141.0,531.3 139.3,525.7 137.5,519.5 C 137.5,519.5 135.7,513.3 134.0,507.5 C 134.0,507.5 132.3,501.7 130.5,495.3 C 130.5,495.3 128.7,489.0 127.0,482.8 C 127.0,482.8 125.3,476.7 123.5,470.2 C 123.5,470.2 121.7,463.7 118.8,453.8 L 116,444" stroke="#FBBF24" stroke-width="2" fill="none" vector-effect="non-scaling-stroke"/>
    <g id="moving-circle-group">
        <circle cx="116" cy="444" r="20" fill="#000000" vector-effect="non-scaling-stroke"/>
        <circle cx="116" cy="444" r="7" fill="#FFFFFF" vector-effect="non-scaling-stroke"/>
    </g></svg>