<svg id="minimap-svg" width="100%" height="100%" viewBox="0 0 599 700" xmlns="http://www.w3.org/2000/svg"><path d="M 177,528 C 175.0,524.5 173.0,521.0 171.0,517.5 C 171.0,517.5 169.0,514.0 165.0,507.0 C 165.0,507.0 161.0,500.0 157.0,492.8 C 157.0,492.8 153.0,485.7 149.0,478.3 C 149.0,478.3 145.0,471.0 141.0,463.5 C 141.0,463.5 137.0,456.0 132.8,448.5 C 132.8,448.5 128.7,441.0 124.3,433.3 C 124.3,433.3 120.0,425.7 115.7,418.0 C 115.7,418.0 111.3,410.3 107.0,402.5 C 107.0,402.5 102.7,394.7 98.3,387.0 C 98.3,387.0 94.0,379.3 89.7,371.5 C 89.7,371.5 85.3,363.7 81.0,356.0 C 81.0,356.0 76.7,348.3 72.3,340.3 C 72.3,340.3 68.0,332.3 63.5,324.5 C 63.5,324.5 59.0,316.7 54.5,308.7 C 54.5,308.7 50.0,300.7 45.7,293.2 C 45.7,293.2 41.3,285.7 37.5,279.0 C 37.5,279.0 33.7,272.3 30.7,267.0 C 30.7,267.0 27.7,261.7 25.5,257.7 C 25.5,257.7 23.3,253.7 21.8,250.7 C 21.8,250.7 20.3,247.7 19.5,245.2 C 19.5,245.2 18.7,242.7 18.3,240.5 C 18.3,240.5 18.0,238.3 18.0,236.0 C 18.0,236.0 18.0,233.7 18.2,231.3 C 18.2,231.3 18.3,229.0 19.0,226.5 C 19.0,226.5 19.7,224.0 20.8,221.7 C 20.8,221.7 22.0,219.3 23.8,217.2 C 23.8,217.2 25.7,215.0 28.0,213.2 C 28.0,213.2 30.3,211.3 33.2,209.8 C 33.2,209.8 36.0,208.3 39.2,207.3 C 39.2,207.3 42.3,206.3 45.7,206.2 C 45.7,206.2 49.0,206.0 52.5,206.8 C 52.5,206.8 56.0,207.7 59.5,209.3 C 59.5,209.3 63.0,211.0 66.7,213.3 C 66.7,213.3 70.3,215.7 74.3,218.2 C 74.3,218.2 78.3,220.7 82.8,223.5 C 82.8,223.5 87.3,226.3 91.8,229.0 C 91.8,229.0 96.3,231.7 100.3,234.2 C 100.3,234.2 104.3,236.7 107.5,238.8 C 107.5,238.8 110.7,241.0 113.3,242.7 C 113.3,242.7 116.0,244.3 118.5,245.7 C 118.5,245.7 121.0,247.0 123.5,248.0 C 123.5,248.0 126.0,249.0 128.5,249.7 C 128.5,249.7 131.0,250.3 133.7,250.5 C 133.7,250.5 136.3,250.7 139.0,250.3 C 139.0,250.3 141.7,250.0 144.3,249.2 C 144.3,249.2 147.0,248.3 149.3,247.0 C 149.3,247.0 151.7,245.7 153.8,243.7 C 153.8,243.7 156.0,241.7 157.7,239.2 C 157.7,239.2 159.3,236.7 160.5,233.7 C 160.5,233.7 161.7,230.7 162.2,227.3 C 162.2,227.3 162.7,224.0 162.8,220.3 C 162.8,220.3 163.0,216.7 162.8,212.7 C 162.8,212.7 162.7,208.7 162.3,204.2 C 162.3,204.2 162.0,199.7 161.7,194.5 C 161.7,194.5 161.3,189.3 161.2,184.2 C 161.2,184.2 161.0,179.0 161.2,174.2 C 161.2,174.2 161.3,169.3 161.8,165.2 C 161.8,165.2 162.3,161.0 163.2,157.2 C 163.2,157.2 164.0,153.3 165.3,149.7 C 165.3,149.7 166.7,146.0 168.5,142.7 C 168.5,142.7 170.3,139.3 173.0,136.0 C 173.0,136.0 175.7,132.7 178.7,129.3 C 178.7,129.3 181.7,126.0 185.2,122.3 C 185.2,122.3 188.7,118.7 192.3,114.7 C 192.3,114.7 196.0,110.7 200.2,106.2 C 200.2,106.2 204.3,101.7 208.5,96.8 C 208.5,96.8 212.7,92.0 217.2,87.0 C 217.2,87.0 221.7,82.0 226.2,77.0 C 226.2,77.0 230.7,72.0 235.3,66.7 C 235.3,66.7 240.0,61.3 244.7,56.0 C 244.7,56.0 249.3,50.7 253.7,45.8 C 253.7,45.8 258.0,41.0 261.7,37.3 C 261.7,37.3 265.3,33.7 268.0,31.0 C 268.0,31.0 270.7,28.3 273.0,26.5 C 273.0,26.5 275.3,24.7 277.7,23.3 C 277.7,23.3 280.0,22.0 282.5,21.3 C 282.5,21.3 285.0,20.7 287.7,20.3 C 287.7,20.3 290.3,20.0 293.2,20.2 C 293.2,20.2 296.0,20.3 298.8,21.0 C 298.8,21.0 301.7,21.7 304.3,23.0 C 304.3,23.0 307.0,24.3 309.7,26.3 C 309.7,26.3 312.3,28.3 315.2,30.8 C 315.2,30.8 318.0,33.3 321.2,36.0 C 321.2,36.0 324.3,38.7 327.3,41.3 C 327.3,41.3 330.3,44.0 332.8,46.5 C 332.8,46.5 335.3,49.0 337.2,51.7 C 337.2,51.7 339.0,54.3 340.0,57.2 C 340.0,57.2 341.0,60.0 341.5,63.0 C 341.5,63.0 342.0,66.0 342.0,69.0 C 342.0,69.0 342.0,72.0 341.5,75.0 C 341.5,75.0 341.0,78.0 339.7,81.0 C 339.7,81.0 338.3,84.0 336.2,87.2 C 336.2,87.2 334.0,90.3 331.3,93.5 C 331.3,93.5 328.7,96.7 325.5,100.2 C 325.5,100.2 322.3,103.7 318.8,107.3 C 318.8,107.3 315.3,111.0 311.5,115.2 C 311.5,115.2 307.7,119.3 299.8,128.2 L 292,137" stroke="#374151" stroke-width="8" fill="none" vector-effect="non-scaling-stroke"/><path d="M 177,528 C 175.0,524.5 173.0,521.0 171.0,517.5 C 171.0,517.5 169.0,514.0 165.0,507.0 C 165.0,507.0 161.0,500.0 157.0,492.8 C 157.0,492.8 153.0,485.7 149.0,478.3 C 149.0,478.3 145.0,471.0 141.0,463.5 C 141.0,463.5 137.0,456.0 132.8,448.5 C 132.8,448.5 128.7,441.0 124.3,433.3 C 124.3,433.3 120.0,425.7 115.7,418.0 C 115.7,418.0 111.3,410.3 107.0,402.5 C 107.0,402.5 102.7,394.7 98.3,387.0 C 98.3,387.0 94.0,379.3 89.7,371.5 C 89.7,371.5 85.3,363.7 81.0,356.0 C 81.0,356.0 76.7,348.3 72.3,340.3 C 72.3,340.3 68.0,332.3 63.5,324.5 C 63.5,324.5 59.0,316.7 54.5,308.7 C 54.5,308.7 50.0,300.7 45.7,293.2 C 45.7,293.2 41.3,285.7 37.5,279.0 C 37.5,279.0 33.7,272.3 30.7,267.0 C 30.7,267.0 27.7,261.7 25.5,257.7 C 25.5,257.7 23.3,253.7 21.8,250.7 C 21.8,250.7 20.3,247.7 19.5,245.2 C 19.5,245.2 18.7,242.7 18.3,240.5 C 18.3,240.5 18.0,238.3 18.0,236.0 C 18.0,236.0 18.0,233.7 18.2,231.3 C 18.2,231.3 18.3,229.0 19.0,226.5 C 19.0,226.5 19.7,224.0 20.8,221.7 C 20.8,221.7 22.0,219.3 23.8,217.2 C 23.8,217.2 25.7,215.0 28.0,213.2 C 28.0,213.2 30.3,211.3 33.2,209.8 C 33.2,209.8 36.0,208.3 39.2,207.3 C 39.2,207.3 42.3,206.3 45.7,206.2 C 45.7,206.2 49.0,206.0 52.5,206.8 C 52.5,206.8 56.0,207.7 59.5,209.3 C 59.5,209.3 63.0,211.0 66.7,213.3 C 66.7,213.3 70.3,215.7 74.3,218.2 C 74.3,218.2 78.3,220.7 82.8,223.5 C 82.8,223.5 87.3,226.3 91.8,229.0 C 91.8,229.0 96.3,231.7 100.3,234.2 C 100.3,234.2 104.3,236.7 107.5,238.8 C 107.5,238.8 110.7,241.0 113.3,242.7 C 113.3,242.7 116.0,244.3 118.5,245.7 C 118.5,245.7 121.0,247.0 123.5,248.0 C 123.5,248.0 126.0,249.0 128.5,249.7 C 128.5,249.7 131.0,250.3 133.7,250.5 C 133.7,250.5 136.3,250.7 139.0,250.3 C 139.0,250.3 141.7,250.0 144.3,249.2 C 144.3,249.2 147.0,248.3 149.3,247.0 C 149.3,247.0 151.7,245.7 153.8,243.7 C 153.8,243.7 156.0,241.7 157.7,239.2 C 157.7,239.2 159.3,236.7 160.5,233.7 C 160.5,233.7 161.7,230.7 162.2,227.3 C 162.2,227.3 162.7,224.0 162.8,220.3 C 162.8,220.3 163.0,216.7 162.8,212.7 C 162.8,212.7 162.7,208.7 162.3,204.2 C 162.3,204.2 162.0,199.7 161.7,194.5 C 161.7,194.5 161.3,189.3 161.2,184.2 C 161.2,184.2 161.0,179.0 161.2,174.2 C 161.2,174.2 161.3,169.3 161.8,165.2 C 161.8,165.2 162.3,161.0 163.2,157.2 C 163.2,157.2 164.0,153.3 165.3,149.7 C 165.3,149.7 166.7,146.0 168.5,142.7 C 168.5,142.7 170.3,139.3 173.0,136.0 C 173.0,136.0 175.7,132.7 178.7,129.3 C 178.7,129.3 181.7,126.0 185.2,122.3 C 185.2,122.3 188.7,118.7 192.3,114.7 C 192.3,114.7 196.0,110.7 200.2,106.2 C 200.2,106.2 204.3,101.7 208.5,96.8 C 208.5,96.8 212.7,92.0 217.2,87.0 C 217.2,87.0 221.7,82.0 226.2,77.0 C 226.2,77.0 230.7,72.0 235.3,66.7 C 235.3,66.7 240.0,61.3 244.7,56.0 C 244.7,56.0 249.3,50.7 253.7,45.8 C 253.7,45.8 258.0,41.0 261.7,37.3 C 261.7,37.3 265.3,33.7 268.0,31.0 C 268.0,31.0 270.7,28.3 273.0,26.5 C 273.0,26.5 275.3,24.7 277.7,23.3 C 277.7,23.3 280.0,22.0 282.5,21.3 C 282.5,21.3 285.0,20.7 287.7,20.3 C 287.7,20.3 290.3,20.0 293.2,20.2 C 293.2,20.2 296.0,20.3 298.8,21.0 C 298.8,21.0 301.7,21.7 304.3,23.0 C 304.3,23.0 307.0,24.3 309.7,26.3 C 309.7,26.3 312.3,28.3 315.2,30.8 C 315.2,30.8 318.0,33.3 321.2,36.0 C 321.2,36.0 324.3,38.7 327.3,41.3 C 327.3,41.3 330.3,44.0 332.8,46.5 C 332.8,46.5 335.3,49.0 337.2,51.7 C 337.2,51.7 339.0,54.3 340.0,57.2 C 340.0,57.2 341.0,60.0 341.5,63.0 C 341.5,63.0 342.0,66.0 342.0,69.0 C 342.0,69.0 342.0,72.0 341.5,75.0 C 341.5,75.0 341.0,78.0 339.7,81.0 C 339.7,81.0 338.3,84.0 336.2,87.2 C 336.2,87.2 334.0,90.3 331.3,93.5 C 331.3,93.5 328.7,96.7 325.5,100.2 C 325.5,100.2 322.3,103.7 318.8,107.3 C 318.8,107.3 315.3,111.0 311.5,115.2 C 311.5,115.2 307.7,119.3 299.8,128.2 L 292,137" stroke="#EF4444" stroke-width="2" fill="none" vector-effect="non-scaling-stroke"/><path d="M 292,137 C 290.2,139.0 288.5,141.0 287.1,142.7 C 287.1,142.7 285.7,144.3 283.0,147.3 C 283.0,147.3 280.3,150.3 278.3,152.5 C 278.3,152.5 276.3,154.7 274.7,156.5 C 274.7,156.5 273.0,158.3 272.0,160.2 C 272.0,160.2 271.0,162.0 270.5,164.0 C 270.5,164.0 270.0,166.0 270.3,168.0 C 270.3,168.0 270.7,170.0 271.5,172.0 C 271.5,172.0 272.3,174.0 273.8,175.7 C 273.8,175.7 275.3,177.3 277.3,178.5 C 277.3,178.5 279.3,179.7 281.5,180.0 C 281.5,180.0 283.7,180.3 286.0,180.0 C 286.0,180.0 288.3,179.7 290.7,178.8 C 290.7,178.8 293.0,178.0 295.7,176.8 C 295.7,176.8 298.3,175.7 301.5,174.3 C 301.5,174.3 304.7,173.0 308.3,171.5 C 308.3,171.5 312.0,170.0 316.3,168.3 C 316.3,168.3 320.7,166.7 325.3,164.8 C 325.3,164.8 330.0,163.0 335.2,160.8 C 335.2,160.8 340.3,158.7 345.8,156.5 C 345.8,156.5 351.3,154.3 357.2,151.8 C 357.2,151.8 363.0,149.3 369.0,146.8 C 369.0,146.8 375.0,144.3 380.8,141.8 C 380.8,141.8 386.7,139.3 391.7,137.5 C 391.7,137.5 396.7,135.7 400.7,134.3 C 400.7,134.3 404.7,133.0 407.8,132.3 C 407.8,132.3 411.0,131.7 413.8,131.5 C 413.8,131.5 416.7,131.3 419.3,131.7 C 419.3,131.7 422.0,132.0 424.5,132.8 C 424.5,132.8 427.0,133.7 429.5,135.0 C 429.5,135.0 432.0,136.3 434.2,138.5 C 434.2,138.5 436.3,140.7 438.2,143.2 C 438.2,143.2 440.0,145.7 441.2,148.7 C 441.2,148.7 442.3,151.7 443.0,154.8 C 443.0,154.8 443.7,158.0 443.3,161.5 C 443.3,161.5 443.0,165.0 441.7,168.2 C 441.7,168.2 440.3,171.3 438.2,174.0 C 438.2,174.0 436.0,176.7 433.5,179.0 C 433.5,179.0 431.0,181.3 428.3,183.8 C 428.3,183.8 425.7,186.3 422.8,189.2 C 422.8,189.2 420.0,192.0 417.2,195.2 C 417.2,195.2 414.3,198.3 411.7,201.8 C 411.7,201.8 409.0,205.3 406.7,209.2 C 406.7,209.2 404.3,213.0 402.2,217.2 C 402.2,217.2 400.0,221.3 398.2,225.7 C 398.2,225.7 396.3,230.0 394.7,234.7 C 394.7,234.7 393.0,239.3 391.8,243.7 C 391.8,243.7 390.7,248.0 389.7,251.8 C 389.7,251.8 388.7,255.7 387.8,258.7 C 387.8,258.7 387.0,261.7 385.8,264.2 C 385.8,264.2 384.7,266.7 383.2,269.0 C 383.2,269.0 381.7,271.3 379.7,273.3 C 379.7,273.3 377.7,275.3 375.3,277.2 C 375.3,277.2 373.0,279.0 370.2,280.3 C 370.2,280.3 367.3,281.7 364.2,282.8 C 364.2,282.8 361.0,284.0 357.2,285.0 C 357.2,285.0 353.3,286.0 349.0,287.0 C 349.0,287.0 344.7,288.0 339.8,289.2 C 339.8,289.2 335.0,290.3 330.3,291.3 C 330.3,291.3 325.7,292.3 321.7,293.3 C 321.7,293.3 317.7,294.3 314.3,295.2 C 314.3,295.2 311.0,296.0 308.2,297.2 C 308.2,297.2 305.3,298.3 302.8,299.8 C 302.8,299.8 300.3,301.3 298.2,303.3 C 298.2,303.3 296.0,305.3 294.3,307.7 C 294.3,307.7 292.7,310.0 291.7,312.7 C 291.7,312.7 290.7,315.3 290.7,318.0 C 290.7,318.0 290.7,320.7 291.5,323.5 C 291.5,323.5 292.3,326.3 294.0,329.2 C 294.0,329.2 295.7,332.0 297.8,334.8 C 297.8,334.8 300.0,337.7 302.7,340.3 C 302.7,340.3 305.3,343.0 308.2,345.3 C 308.2,345.3 311.0,347.7 314.2,350.0 C 314.2,350.0 317.3,352.3 320.8,354.7 C 320.8,354.7 324.3,357.0 328.2,359.5 C 328.2,359.5 332.0,362.0 336.0,364.3 C 336.0,364.3 340.0,366.7 344.2,368.8 C 344.2,368.8 348.3,371.0 352.8,372.8 C 352.8,372.8 357.3,374.7 362.2,376.2 C 362.2,376.2 367.0,377.7 372.0,378.8 C 372.0,378.8 377.0,380.0 382.2,381.0 C 382.2,381.0 387.3,382.0 392.5,382.7 C 392.5,382.7 397.7,383.3 403.0,383.7 C 403.0,383.7 408.3,384.0 413.7,383.8 C 413.7,383.8 419.0,383.7 424.7,383.2 C 424.7,383.2 430.3,382.7 436.2,381.8 C 436.2,381.8 442.0,381.0 448.0,380.2 C 448.0,380.2 454.0,379.3 466.5,377.7 L 479,376" stroke="#374151" stroke-width="8" fill="none" vector-effect="non-scaling-stroke"/><path d="M 292,137 C 290.2,139.0 288.5,141.0 287.1,142.7 C 287.1,142.7 285.7,144.3 283.0,147.3 C 283.0,147.3 280.3,150.3 278.3,152.5 C 278.3,152.5 276.3,154.7 274.7,156.5 C 274.7,156.5 273.0,158.3 272.0,160.2 C 272.0,160.2 271.0,162.0 270.5,164.0 C 270.5,164.0 270.0,166.0 270.3,168.0 C 270.3,168.0 270.7,170.0 271.5,172.0 C 271.5,172.0 272.3,174.0 273.8,175.7 C 273.8,175.7 275.3,177.3 277.3,178.5 C 277.3,178.5 279.3,179.7 281.5,180.0 C 281.5,180.0 283.7,180.3 286.0,180.0 C 286.0,180.0 288.3,179.7 290.7,178.8 C 290.7,178.8 293.0,178.0 295.7,176.8 C 295.7,176.8 298.3,175.7 301.5,174.3 C 301.5,174.3 304.7,173.0 308.3,171.5 C 308.3,171.5 312.0,170.0 316.3,168.3 C 316.3,168.3 320.7,166.7 325.3,164.8 C 325.3,164.8 330.0,163.0 335.2,160.8 C 335.2,160.8 340.3,158.7 345.8,156.5 C 345.8,156.5 351.3,154.3 357.2,151.8 C 357.2,151.8 363.0,149.3 369.0,146.8 C 369.0,146.8 375.0,144.3 380.8,141.8 C 380.8,141.8 386.7,139.3 391.7,137.5 C 391.7,137.5 396.7,135.7 400.7,134.3 C 400.7,134.3 404.7,133.0 407.8,132.3 C 407.8,132.3 411.0,131.7 413.8,131.5 C 413.8,131.5 416.7,131.3 419.3,131.7 C 419.3,131.7 422.0,132.0 424.5,132.8 C 424.5,132.8 427.0,133.7 429.5,135.0 C 429.5,135.0 432.0,136.3 434.2,138.5 C 434.2,138.5 436.3,140.7 438.2,143.2 C 438.2,143.2 440.0,145.7 441.2,148.7 C 441.2,148.7 442.3,151.7 443.0,154.8 C 443.0,154.8 443.7,158.0 443.3,161.5 C 443.3,161.5 443.0,165.0 441.7,168.2 C 441.7,168.2 440.3,171.3 438.2,174.0 C 438.2,174.0 436.0,176.7 433.5,179.0 C 433.5,179.0 431.0,181.3 428.3,183.8 C 428.3,183.8 425.7,186.3 422.8,189.2 C 422.8,189.2 420.0,192.0 417.2,195.2 C 417.2,195.2 414.3,198.3 411.7,201.8 C 411.7,201.8 409.0,205.3 406.7,209.2 C 406.7,209.2 404.3,213.0 402.2,217.2 C 402.2,217.2 400.0,221.3 398.2,225.7 C 398.2,225.7 396.3,230.0 394.7,234.7 C 394.7,234.7 393.0,239.3 391.8,243.7 C 391.8,243.7 390.7,248.0 389.7,251.8 C 389.7,251.8 388.7,255.7 387.8,258.7 C 387.8,258.7 387.0,261.7 385.8,264.2 C 385.8,264.2 384.7,266.7 383.2,269.0 C 383.2,269.0 381.7,271.3 379.7,273.3 C 379.7,273.3 377.7,275.3 375.3,277.2 C 375.3,277.2 373.0,279.0 370.2,280.3 C 370.2,280.3 367.3,281.7 364.2,282.8 C 364.2,282.8 361.0,284.0 357.2,285.0 C 357.2,285.0 353.3,286.0 349.0,287.0 C 349.0,287.0 344.7,288.0 339.8,289.2 C 339.8,289.2 335.0,290.3 330.3,291.3 C 330.3,291.3 325.7,292.3 321.7,293.3 C 321.7,293.3 317.7,294.3 314.3,295.2 C 314.3,295.2 311.0,296.0 308.2,297.2 C 308.2,297.2 305.3,298.3 302.8,299.8 C 302.8,299.8 300.3,301.3 298.2,303.3 C 298.2,303.3 296.0,305.3 294.3,307.7 C 294.3,307.7 292.7,310.0 291.7,312.7 C 291.7,312.7 290.7,315.3 290.7,318.0 C 290.7,318.0 290.7,320.7 291.5,323.5 C 291.5,323.5 292.3,326.3 294.0,329.2 C 294.0,329.2 295.7,332.0 297.8,334.8 C 297.8,334.8 300.0,337.7 302.7,340.3 C 302.7,340.3 305.3,343.0 308.2,345.3 C 308.2,345.3 311.0,347.7 314.2,350.0 C 314.2,350.0 317.3,352.3 320.8,354.7 C 320.8,354.7 324.3,357.0 328.2,359.5 C 328.2,359.5 332.0,362.0 336.0,364.3 C 336.0,364.3 340.0,366.7 344.2,368.8 C 344.2,368.8 348.3,371.0 352.8,372.8 C 352.8,372.8 357.3,374.7 362.2,376.2 C 362.2,376.2 367.0,377.7 372.0,378.8 C 372.0,378.8 377.0,380.0 382.2,381.0 C 382.2,381.0 387.3,382.0 392.5,382.7 C 392.5,382.7 397.7,383.3 403.0,383.7 C 403.0,383.7 408.3,384.0 413.7,383.8 C 413.7,383.8 419.0,383.7 424.7,383.2 C 424.7,383.2 430.3,382.7 436.2,381.8 C 436.2,381.8 442.0,381.0 448.0,380.2 C 448.0,380.2 454.0,379.3 466.5,377.7 L 479,376" stroke="#3B82F6" stroke-width="2" fill="none" vector-effect="non-scaling-stroke"/><path d="M 479,376 C 482.5,375.8 486.0,375.5 489.0,375.1 C 489.0,375.1 492.0,374.7 497.5,374.0 C 497.5,374.0 503.0,373.3 507.2,372.8 C 507.2,372.8 511.3,372.3 514.5,372.2 C 514.5,372.2 517.7,372.0 520.3,372.2 C 520.3,372.2 523.0,372.3 525.3,372.7 C 525.3,372.7 527.7,373.0 530.0,373.7 C 530.0,373.7 532.3,374.3 534.7,375.3 C 534.7,375.3 537.0,376.3 539.7,377.8 C 539.7,377.8 542.3,379.3 545.0,381.3 C 545.0,381.3 547.7,383.3 550.2,385.8 C 550.2,385.8 552.7,388.3 555.0,391.3 C 555.0,391.3 557.3,394.3 559.5,397.8 C 559.5,397.8 561.7,401.3 563.8,405.0 C 563.8,405.0 566.0,408.7 567.8,412.5 C 567.8,412.5 569.7,416.3 571.5,419.5 C 571.5,419.5 573.3,422.7 574.7,425.5 C 574.7,425.5 576.0,428.3 577.2,430.5 C 577.2,430.5 578.3,432.7 579.0,435.0 C 579.0,435.0 579.7,437.3 580.2,439.8 C 580.2,439.8 580.7,442.3 580.8,445.2 C 580.8,445.2 581.0,448.0 580.7,451.0 C 580.7,451.0 580.3,454.0 579.5,457.0 C 579.5,457.0 578.7,460.0 577.2,463.0 C 577.2,463.0 575.7,466.0 573.7,469.3 C 573.7,469.3 571.7,472.7 569.2,476.3 C 569.2,476.3 566.7,480.0 563.8,484.2 C 563.8,484.2 561.0,488.3 558.2,492.7 C 558.2,492.7 555.3,497.0 552.7,501.3 C 552.7,501.3 550.0,505.7 547.7,509.3 C 547.7,509.3 545.3,513.0 543.0,515.7 C 543.0,515.7 540.7,518.3 538.3,520.2 C 538.3,520.2 536.0,522.0 533.3,523.3 C 533.3,523.3 530.7,524.7 527.8,525.7 C 527.8,525.7 525.0,526.7 521.8,527.0 C 521.8,527.0 518.7,527.3 515.2,527.2 C 515.2,527.2 511.7,527.0 507.7,526.5 C 507.7,526.5 503.7,526.0 499.2,525.2 C 499.2,525.2 494.7,524.3 489.7,523.3 C 489.7,523.3 484.7,522.3 479.2,521.0 C 479.2,521.0 473.7,519.7 467.8,518.3 C 467.8,518.3 462.0,517.0 455.8,515.7 C 455.8,515.7 449.7,514.3 443.3,513.0 C 443.3,513.0 437.0,511.7 430.8,510.7 C 430.8,510.7 424.7,509.7 419.2,508.8 C 419.2,508.8 413.7,508.0 409.3,507.7 C 409.3,507.7 405.0,507.3 401.7,507.3 C 401.7,507.3 398.3,507.3 395.5,507.8 C 395.5,507.8 392.7,508.3 390.0,509.5 C 390.0,509.5 387.3,510.7 385.0,512.3 C 385.0,512.3 382.7,514.0 380.7,516.0 C 380.7,516.0 378.7,518.0 377.0,520.3 C 377.0,520.3 375.3,522.7 373.7,525.7 C 373.7,525.7 372.0,528.7 370.3,532.3 C 370.3,532.3 368.7,536.0 366.7,540.0 C 366.7,540.0 364.7,544.0 362.3,548.3 C 362.3,548.3 360.0,552.7 357.5,557.3 C 357.5,557.3 355.0,562.0 352.5,567.3 C 352.5,567.3 350.0,572.7 347.3,578.2 C 347.3,578.2 344.7,583.7 341.8,589.7 C 341.8,589.7 339.0,595.7 336.0,601.7 C 336.0,601.7 333.0,607.7 329.8,614.2 C 329.8,614.2 326.7,620.7 323.5,627.2 C 323.5,627.2 320.3,633.7 317.0,640.0 C 317.0,640.0 313.7,646.3 310.7,651.7 C 310.7,651.7 307.7,657.0 305.0,661.2 C 305.0,661.2 302.3,665.3 300.2,668.2 C 300.2,668.2 298.0,671.0 295.8,673.0 C 295.8,673.0 293.7,675.0 291.3,676.2 C 291.3,676.2 289.0,677.3 286.5,678.2 C 286.5,678.2 284.0,679.0 281.3,679.3 C 281.3,679.3 278.7,679.7 275.8,679.7 C 275.8,679.7 273.0,679.7 270.2,679.0 C 270.2,679.0 267.3,678.3 264.7,677.0 C 264.7,677.0 262.0,675.7 259.8,673.7 C 259.8,673.7 257.7,671.7 255.7,669.2 C 255.7,669.2 253.7,666.7 251.8,663.5 C 251.8,663.5 250.0,660.3 247.8,656.7 C 247.8,656.7 245.7,653.0 243.3,648.8 C 243.3,648.8 241.0,644.7 238.5,640.2 C 238.5,640.2 236.0,635.7 233.3,630.7 C 233.3,630.7 230.7,625.7 227.8,620.3 C 227.8,620.3 225.0,615.0 222.0,609.5 C 222.0,609.5 219.0,604.0 215.8,598.2 C 215.8,598.2 212.7,592.3 209.3,586.3 C 209.3,586.3 206.0,580.3 202.5,574.0 C 202.5,574.0 199.0,567.7 195.5,561.3 C 195.5,561.3 192.0,555.0 184.5,541.5 L 177,528" stroke="#374151" stroke-width="8" fill="none" vector-effect="non-scaling-stroke"/><path d="M 479,376 C 482.5,375.8 486.0,375.5 489.0,375.1 C 489.0,375.1 492.0,374.7 497.5,374.0 C 497.5,374.0 503.0,373.3 507.2,372.8 C 507.2,372.8 511.3,372.3 514.5,372.2 C 514.5,372.2 517.7,372.0 520.3,372.2 C 520.3,372.2 523.0,372.3 525.3,372.7 C 525.3,372.7 527.7,373.0 530.0,373.7 C 530.0,373.7 532.3,374.3 534.7,375.3 C 534.7,375.3 537.0,376.3 539.7,377.8 C 539.7,377.8 542.3,379.3 545.0,381.3 C 545.0,381.3 547.7,383.3 550.2,385.8 C 550.2,385.8 552.7,388.3 555.0,391.3 C 555.0,391.3 557.3,394.3 559.5,397.8 C 559.5,397.8 561.7,401.3 563.8,405.0 C 563.8,405.0 566.0,408.7 567.8,412.5 C 567.8,412.5 569.7,416.3 571.5,419.5 C 571.5,419.5 573.3,422.7 574.7,425.5 C 574.7,425.5 576.0,428.3 577.2,430.5 C 577.2,430.5 578.3,432.7 579.0,435.0 C 579.0,435.0 579.7,437.3 580.2,439.8 C 580.2,439.8 580.7,442.3 580.8,445.2 C 580.8,445.2 581.0,448.0 580.7,451.0 C 580.7,451.0 580.3,454.0 579.5,457.0 C 579.5,457.0 578.7,460.0 577.2,463.0 C 577.2,463.0 575.7,466.0 573.7,469.3 C 573.7,469.3 571.7,472.7 569.2,476.3 C 569.2,476.3 566.7,480.0 563.8,484.2 C 563.8,484.2 561.0,488.3 558.2,492.7 C 558.2,492.7 555.3,497.0 552.7,501.3 C 552.7,501.3 550.0,505.7 547.7,509.3 C 547.7,509.3 545.3,513.0 543.0,515.7 C 543.0,515.7 540.7,518.3 538.3,520.2 C 538.3,520.2 536.0,522.0 533.3,523.3 C 533.3,523.3 530.7,524.7 527.8,525.7 C 527.8,525.7 525.0,526.7 521.8,527.0 C 521.8,527.0 518.7,527.3 515.2,527.2 C 515.2,527.2 511.7,527.0 507.7,526.5 C 507.7,526.5 503.7,526.0 499.2,525.2 C 499.2,525.2 494.7,524.3 489.7,523.3 C 489.7,523.3 484.7,522.3 479.2,521.0 C 479.2,521.0 473.7,519.7 467.8,518.3 C 467.8,518.3 462.0,517.0 455.8,515.7 C 455.8,515.7 449.7,514.3 443.3,513.0 C 443.3,513.0 437.0,511.7 430.8,510.7 C 430.8,510.7 424.7,509.7 419.2,508.8 C 419.2,508.8 413.7,508.0 409.3,507.7 C 409.3,507.7 405.0,507.3 401.7,507.3 C 401.7,507.3 398.3,507.3 395.5,507.8 C 395.5,507.8 392.7,508.3 390.0,509.5 C 390.0,509.5 387.3,510.7 385.0,512.3 C 385.0,512.3 382.7,514.0 380.7,516.0 C 380.7,516.0 378.7,518.0 377.0,520.3 C 377.0,520.3 375.3,522.7 373.7,525.7 C 373.7,525.7 372.0,528.7 370.3,532.3 C 370.3,532.3 368.7,536.0 366.7,540.0 C 366.7,540.0 364.7,544.0 362.3,548.3 C 362.3,548.3 360.0,552.7 357.5,557.3 C 357.5,557.3 355.0,562.0 352.5,567.3 C 352.5,567.3 350.0,572.7 347.3,578.2 C 347.3,578.2 344.7,583.7 341.8,589.7 C 341.8,589.7 339.0,595.7 336.0,601.7 C 336.0,601.7 333.0,607.7 329.8,614.2 C 329.8,614.2 326.7,620.7 323.5,627.2 C 323.5,627.2 320.3,633.7 317.0,640.0 C 317.0,640.0 313.7,646.3 310.7,651.7 C 310.7,651.7 307.7,657.0 305.0,661.2 C 305.0,661.2 302.3,665.3 300.2,668.2 C 300.2,668.2 298.0,671.0 295.8,673.0 C 295.8,673.0 293.7,675.0 291.3,676.2 C 291.3,676.2 289.0,677.3 286.5,678.2 C 286.5,678.2 284.0,679.0 281.3,679.3 C 281.3,679.3 278.7,679.7 275.8,679.7 C 275.8,679.7 273.0,679.7 270.2,679.0 C 270.2,679.0 267.3,678.3 264.7,677.0 C 264.7,677.0 262.0,675.7 259.8,673.7 C 259.8,673.7 257.7,671.7 255.7,669.2 C 255.7,669.2 253.7,666.7 251.8,663.5 C 251.8,663.5 250.0,660.3 247.8,656.7 C 247.8,656.7 245.7,653.0 243.3,648.8 C 243.3,648.8 241.0,644.7 238.5,640.2 C 238.5,640.2 236.0,635.7 233.3,630.7 C 233.3,630.7 230.7,625.7 227.8,620.3 C 227.8,620.3 225.0,615.0 222.0,609.5 C 222.0,609.5 219.0,604.0 215.8,598.2 C 215.8,598.2 212.7,592.3 209.3,586.3 C 209.3,586.3 206.0,580.3 202.5,574.0 C 202.5,574.0 199.0,567.7 195.5,561.3 C 195.5,561.3 192.0,555.0 184.5,541.5 L 177,528" stroke="#FBBF24" stroke-width="2" fill="none" vector-effect="non-scaling-stroke"/>
    <g id="moving-circle-group">
        <circle cx="177" cy="528" r="20" fill="#000000" vector-effect="non-scaling-stroke"/>
        <circle cx="177" cy="528" r="7" fill="#FFFFFF" vector-effect="non-scaling-stroke"/>
    </g></svg>