<svg id="minimap-svg" width="100%" height="100%" viewBox="0 0 153 700" xmlns="http://www.w3.org/2000/svg"><path d="M 114,537 C 113.5,536.0 113.0,535.0 112.7,533.8 C 112.7,533.8 112.3,532.7 111.7,530.5 C 111.7,530.5 111.0,528.3 110.3,526.2 C 110.3,526.2 109.7,524.0 109.0,522.0 C 109.0,522.0 108.3,520.0 107.7,518.0 C 107.7,518.0 107.0,516.0 106.3,514.0 C 106.3,514.0 105.7,512.0 105.0,510.0 C 105.0,510.0 104.3,508.0 103.7,505.8 C 103.7,505.8 103.0,503.7 102.3,501.5 C 102.3,501.5 101.7,499.3 101.0,497.2 C 101.0,497.2 100.3,495.0 99.5,493.0 C 99.5,493.0 98.7,491.0 98.0,488.8 C 98.0,488.8 97.3,486.7 96.5,484.5 C 96.5,484.5 95.7,482.3 95.0,480.0 C 95.0,480.0 94.3,477.7 93.7,475.5 C 93.7,475.5 93.0,473.3 92.3,471.2 C 92.3,471.2 91.7,469.0 91.0,467.0 C 91.0,467.0 90.3,465.0 89.7,463.2 C 89.7,463.2 89.0,461.3 88.5,459.5 C 88.5,459.5 88.0,457.7 87.5,456.0 C 87.5,456.0 87.0,454.3 86.5,452.7 C 86.5,452.7 86.0,451.0 85.5,449.5 C 85.5,449.5 85.0,448.0 84.5,446.7 C 84.5,446.7 84.0,445.3 83.5,444.2 C 83.5,444.2 83.0,443.0 82.7,442.0 C 82.7,442.0 82.3,441.0 82.0,440.0 C 82.0,440.0 81.7,439.0 81.3,438.0 C 81.3,438.0 81.0,437.0 80.7,436.0 C 80.7,436.0 80.3,435.0 80.0,434.2 C 80.0,434.2 79.7,433.3 79.5,432.5 C 79.5,432.5 79.3,431.7 79.0,431.0 C 79.0,431.0 78.7,430.3 78.5,429.7 C 78.5,429.7 78.3,429.0 78.0,428.5 C 78.0,428.5 77.7,428.0 77.3,427.5 C 77.3,427.5 77.0,427.0 76.5,426.5 C 76.5,426.5 76.0,426.0 75.5,425.7 C 75.5,425.7 75.0,425.3 74.5,425.2 C 74.5,425.2 74.0,425.0 73.3,425.2 C 73.3,425.2 72.7,425.3 72.0,425.5 C 72.0,425.5 71.3,425.7 70.7,426.0 C 70.7,426.0 70.0,426.3 69.5,426.5 C 69.5,426.5 69.0,426.7 68.5,426.8 C 68.5,426.8 68.0,427.0 67.3,427.0 C 67.3,427.0 66.7,427.0 66.0,426.8 C 66.0,426.8 65.3,426.7 64.7,426.3 C 64.7,426.3 64.0,426.0 63.5,425.5 C 63.5,425.5 63.0,425.0 62.7,424.5 C 62.7,424.5 62.3,424.0 62.0,423.3 C 62.0,423.3 61.7,422.7 61.5,421.8 C 61.5,421.8 61.3,421.0 61.3,420.2 C 61.3,420.2 61.3,419.3 61.5,418.5 C 61.5,418.5 61.7,417.7 62.0,416.7 C 62.0,416.7 62.3,415.7 62.5,414.5 C 62.5,414.5 62.7,413.3 63.0,412.0 C 63.0,412.0 63.3,410.7 63.7,409.5 C 63.7,409.5 64.0,408.3 64.5,406.8 C 64.5,406.8 65.0,405.3 65.5,403.8 C 65.5,403.8 66.0,402.3 66.3,400.7 C 66.3,400.7 66.7,399.0 67.0,397.5 C 67.0,397.5 67.3,396.0 67.5,394.5 C 67.5,394.5 67.7,393.0 67.8,391.5 C 67.8,391.5 68.0,390.0 67.8,388.3 C 67.8,388.3 67.7,386.7 67.5,385.0 C 67.5,385.0 67.3,383.3 67.0,381.5 C 67.0,381.5 66.7,379.7 66.3,378.0 C 66.3,378.0 66.0,376.3 65.7,374.5 C 65.7,374.5 65.3,372.7 65.0,370.8 C 65.0,370.8 64.7,369.0 64.5,367.0 C 64.5,367.0 64.3,365.0 64.0,363.2 C 64.0,363.2 63.7,361.3 63.5,359.5 C 63.5,359.5 63.3,357.7 63.0,355.8 C 63.0,355.8 62.7,354.0 62.5,352.2 C 62.5,352.2 62.3,350.3 62.0,348.5 C 62.0,348.5 61.7,346.7 61.5,344.8 C 61.5,344.8 61.3,343.0 61.0,341.2 C 61.0,341.2 60.7,339.3 60.5,337.8 C 60.5,337.8 60.3,336.3 60.2,335.0 C 60.2,335.0 60.0,333.7 59.8,332.5 C 59.8,332.5 59.7,331.3 59.5,330.3 C 59.5,330.3 59.3,329.3 59.2,328.5 C 59.2,328.5 59.0,327.7 59.0,327.0 C 59.0,327.0 59.0,326.3 58.8,325.7 C 58.8,325.7 58.7,325.0 58.3,324.5 C 58.3,324.5 58.0,324.0 57.5,323.5 C 57.5,323.5 57.0,323.0 56.5,322.5 C 56.5,322.5 56.0,322.0 55.5,321.5 C 55.5,321.5 55.0,321.0 54.3,320.7 C 54.3,320.7 53.7,320.3 53.0,320.2 C 53.0,320.2 52.3,320.0 51.5,319.8 C 51.5,319.8 50.7,319.7 50.0,319.3 C 50.0,319.3 49.3,319.0 48.5,318.3 C 48.5,318.3 47.7,317.7 47.0,317.0 C 47.0,317.0 46.3,316.3 45.5,315.5 C 45.5,315.5 44.7,314.7 44.0,314.0 C 44.0,314.0 43.3,313.3 42.7,312.5 C 42.7,312.5 42.0,311.7 41.5,310.8 C 41.5,310.8 41.0,310.0 40.5,308.8 C 40.5,308.8 40.0,307.7 39.5,306.5 C 39.5,306.5 39.0,305.3 38.7,304.2 C 38.7,304.2 38.3,303.0 38.2,301.8 C 38.2,301.8 38.0,300.7 38.0,299.5 C 38.0,299.5 38.0,298.3 38.0,297.2 C 38.0,297.2 38.0,296.0 38.0,294.8 C 38.0,294.8 38.0,293.7 38.2,292.5 C 38.2,292.5 38.3,291.3 38.7,290.2 C 38.7,290.2 39.0,289.0 39.5,288.0 C 39.5,288.0 40.0,287.0 40.5,286.0 C 40.5,286.0 41.0,285.0 41.7,284.0 C 41.7,284.0 42.3,283.0 43.0,282.0 C 43.0,282.0 43.7,281.0 44.3,280.0 C 44.3,280.0 45.0,279.0 45.5,278.0 C 45.5,278.0 46.0,277.0 46.3,276.0 C 46.3,276.0 46.7,275.0 47.0,274.0 C 47.0,274.0 47.3,273.0 47.5,272.0 C 47.5,272.0 47.7,271.0 47.8,270.0 C 47.8,270.0 48.0,269.0 48.0,268.0 C 48.0,268.0 48.0,267.0 48.0,265.8 C 48.0,265.8 48.0,264.7 47.8,263.5 C 47.8,263.5 47.7,262.3 47.5,261.0 C 47.5,261.0 47.3,259.7 47.0,258.5 C 47.0,258.5 46.7,257.3 46.5,256.2 C 46.5,256.2 46.3,255.0 46.0,254.0 C 46.0,254.0 45.7,253.0 45.3,252.0 C 45.3,252.0 45.0,251.0 44.5,250.2 C 44.5,250.2 44.0,249.3 43.3,248.5 C 43.3,248.5 42.7,247.7 42.0,246.8 C 42.0,246.8 41.3,246.0 40.5,245.2 C 40.5,245.2 39.7,244.3 38.8,243.7 C 38.8,243.7 38.0,243.0 37.2,242.5 C 37.2,242.5 36.3,242.0 35.5,241.3 C 35.5,241.3 34.7,240.7 34.0,240.0 C 34.0,240.0 33.3,239.3 32.7,238.5 C 32.7,238.5 32.0,237.7 31.5,236.8 C 31.5,236.8 31.0,236.0 30.5,235.0 C 30.5,235.0 30.0,234.0 29.7,233.0 C 29.7,233.0 29.3,232.0 29.2,230.8 C 29.2,230.8 29.0,229.7 29.0,228.5 C 29.0,228.5 29.0,227.3 29.0,226.2 C 29.0,226.2 29.0,225.0 29.0,223.8 C 29.0,223.8 29.0,222.7 29.0,221.5 C 29.0,221.5 29.0,220.3 28.8,219.2 C 28.8,219.2 28.7,218.0 28.7,217.0 C 28.7,217.0 28.7,216.0 28.7,215.0 C 28.7,215.0 28.7,214.0 28.8,213.2 C 28.8,213.2 29.0,212.3 29.0,211.5 C 29.0,211.5 29.0,210.7 29.2,209.8 C 29.2,209.8 29.3,209.0 29.5,208.2 C 29.5,208.2 29.7,207.3 30.0,206.5 C 30.0,206.5 30.3,205.7 30.7,205.0 C 30.7,205.0 31.0,204.3 31.5,203.5 C 31.5,203.5 32.0,202.7 32.5,202.0 C 32.5,202.0 33.0,201.3 33.7,200.5 C 33.7,200.5 34.3,199.7 35.0,199.0 C 35.0,199.0 35.7,198.3 36.5,197.7 C 36.5,197.7 37.3,197.0 38.2,196.5 C 38.2,196.5 39.0,196.0 40.0,195.7 C 40.0,195.7 41.0,195.3 41.8,195.0 C 41.8,195.0 42.7,194.7 43.5,194.3 C 43.5,194.3 44.3,194.0 45.0,193.5 C 45.0,193.5 45.7,193.0 46.5,192.5 C 46.5,192.5 47.3,192.0 48.0,191.5 C 48.0,191.5 48.7,191.0 49.3,190.3 C 49.3,190.3 50.0,189.7 50.5,189.0 C 50.5,189.0 51.0,188.3 51.5,187.5 C 51.5,187.5 52.0,186.7 52.3,185.7 C 52.3,185.7 52.7,184.7 53.0,183.5 C 53.0,183.5 53.3,182.3 53.5,181.2 C 53.5,181.2 53.7,180.0 53.8,179.0 C 53.8,179.0 54.0,178.0 54.2,177.0 C 54.2,177.0 54.3,176.0 54.5,174.8 C 54.5,174.8 54.7,173.7 54.8,172.5 C 54.8,172.5 55.0,171.3 55.2,170.0 C 55.2,170.0 55.3,168.7 55.7,167.5 C 55.7,167.5 56.0,166.3 56.5,165.2 C 56.5,165.2 57.0,164.0 57.5,162.8 C 57.5,162.8 58.0,161.7 58.3,160.5 C 58.3,160.5 58.7,159.3 59.0,158.2 C 59.0,158.2 59.3,157.0 59.7,155.8 C 59.7,155.8 60.0,154.7 60.5,153.5 C 60.5,153.5 61.0,152.3 61.3,151.0 C 61.3,151.0 61.7,149.7 62.0,148.3 C 62.0,148.3 62.3,147.0 62.5,145.5 C 62.5,145.5 62.7,144.0 62.8,142.7 C 62.8,142.7 63.0,141.3 63.2,139.8 C 63.2,139.8 63.3,138.3 63.5,136.8 C 63.5,136.8 63.7,135.3 63.8,133.5 C 63.8,133.5 64.0,131.7 64.0,129.7 C 64.0,129.7 64.0,127.7 64.0,125.5 C 64.0,125.5 64.0,123.3 64.0,121.2 C 64.0,121.2 64.0,119.0 64.0,116.8 C 64.0,116.8 64.0,114.7 63.5,110.8 L 63,107" stroke="#374151" stroke-width="8" fill="none" vector-effect="non-scaling-stroke"/><path d="M 114,537 C 113.5,536.0 113.0,535.0 112.7,533.8 C 112.7,533.8 112.3,532.7 111.7,530.5 C 111.7,530.5 111.0,528.3 110.3,526.2 C 110.3,526.2 109.7,524.0 109.0,522.0 C 109.0,522.0 108.3,520.0 107.7,518.0 C 107.7,518.0 107.0,516.0 106.3,514.0 C 106.3,514.0 105.7,512.0 105.0,510.0 C 105.0,510.0 104.3,508.0 103.7,505.8 C 103.7,505.8 103.0,503.7 102.3,501.5 C 102.3,501.5 101.7,499.3 101.0,497.2 C 101.0,497.2 100.3,495.0 99.5,493.0 C 99.5,493.0 98.7,491.0 98.0,488.8 C 98.0,488.8 97.3,486.7 96.5,484.5 C 96.5,484.5 95.7,482.3 95.0,480.0 C 95.0,480.0 94.3,477.7 93.7,475.5 C 93.7,475.5 93.0,473.3 92.3,471.2 C 92.3,471.2 91.7,469.0 91.0,467.0 C 91.0,467.0 90.3,465.0 89.7,463.2 C 89.7,463.2 89.0,461.3 88.5,459.5 C 88.5,459.5 88.0,457.7 87.5,456.0 C 87.5,456.0 87.0,454.3 86.5,452.7 C 86.5,452.7 86.0,451.0 85.5,449.5 C 85.5,449.5 85.0,448.0 84.5,446.7 C 84.5,446.7 84.0,445.3 83.5,444.2 C 83.5,444.2 83.0,443.0 82.7,442.0 C 82.7,442.0 82.3,441.0 82.0,440.0 C 82.0,440.0 81.7,439.0 81.3,438.0 C 81.3,438.0 81.0,437.0 80.7,436.0 C 80.7,436.0 80.3,435.0 80.0,434.2 C 80.0,434.2 79.7,433.3 79.5,432.5 C 79.5,432.5 79.3,431.7 79.0,431.0 C 79.0,431.0 78.7,430.3 78.5,429.7 C 78.5,429.7 78.3,429.0 78.0,428.5 C 78.0,428.5 77.7,428.0 77.3,427.5 C 77.3,427.5 77.0,427.0 76.5,426.5 C 76.5,426.5 76.0,426.0 75.5,425.7 C 75.5,425.7 75.0,425.3 74.5,425.2 C 74.5,425.2 74.0,425.0 73.3,425.2 C 73.3,425.2 72.7,425.3 72.0,425.5 C 72.0,425.5 71.3,425.7 70.7,426.0 C 70.7,426.0 70.0,426.3 69.5,426.5 C 69.5,426.5 69.0,426.7 68.5,426.8 C 68.5,426.8 68.0,427.0 67.3,427.0 C 67.3,427.0 66.7,427.0 66.0,426.8 C 66.0,426.8 65.3,426.7 64.7,426.3 C 64.7,426.3 64.0,426.0 63.5,425.5 C 63.5,425.5 63.0,425.0 62.7,424.5 C 62.7,424.5 62.3,424.0 62.0,423.3 C 62.0,423.3 61.7,422.7 61.5,421.8 C 61.5,421.8 61.3,421.0 61.3,420.2 C 61.3,420.2 61.3,419.3 61.5,418.5 C 61.5,418.5 61.7,417.7 62.0,416.7 C 62.0,416.7 62.3,415.7 62.5,414.5 C 62.5,414.5 62.7,413.3 63.0,412.0 C 63.0,412.0 63.3,410.7 63.7,409.5 C 63.7,409.5 64.0,408.3 64.5,406.8 C 64.5,406.8 65.0,405.3 65.5,403.8 C 65.5,403.8 66.0,402.3 66.3,400.7 C 66.3,400.7 66.7,399.0 67.0,397.5 C 67.0,397.5 67.3,396.0 67.5,394.5 C 67.5,394.5 67.7,393.0 67.8,391.5 C 67.8,391.5 68.0,390.0 67.8,388.3 C 67.8,388.3 67.7,386.7 67.5,385.0 C 67.5,385.0 67.3,383.3 67.0,381.5 C 67.0,381.5 66.7,379.7 66.3,378.0 C 66.3,378.0 66.0,376.3 65.7,374.5 C 65.7,374.5 65.3,372.7 65.0,370.8 C 65.0,370.8 64.7,369.0 64.5,367.0 C 64.5,367.0 64.3,365.0 64.0,363.2 C 64.0,363.2 63.7,361.3 63.5,359.5 C 63.5,359.5 63.3,357.7 63.0,355.8 C 63.0,355.8 62.7,354.0 62.5,352.2 C 62.5,352.2 62.3,350.3 62.0,348.5 C 62.0,348.5 61.7,346.7 61.5,344.8 C 61.5,344.8 61.3,343.0 61.0,341.2 C 61.0,341.2 60.7,339.3 60.5,337.8 C 60.5,337.8 60.3,336.3 60.2,335.0 C 60.2,335.0 60.0,333.7 59.8,332.5 C 59.8,332.5 59.7,331.3 59.5,330.3 C 59.5,330.3 59.3,329.3 59.2,328.5 C 59.2,328.5 59.0,327.7 59.0,327.0 C 59.0,327.0 59.0,326.3 58.8,325.7 C 58.8,325.7 58.7,325.0 58.3,324.5 C 58.3,324.5 58.0,324.0 57.5,323.5 C 57.5,323.5 57.0,323.0 56.5,322.5 C 56.5,322.5 56.0,322.0 55.5,321.5 C 55.5,321.5 55.0,321.0 54.3,320.7 C 54.3,320.7 53.7,320.3 53.0,320.2 C 53.0,320.2 52.3,320.0 51.5,319.8 C 51.5,319.8 50.7,319.7 50.0,319.3 C 50.0,319.3 49.3,319.0 48.5,318.3 C 48.5,318.3 47.7,317.7 47.0,317.0 C 47.0,317.0 46.3,316.3 45.5,315.5 C 45.5,315.5 44.7,314.7 44.0,314.0 C 44.0,314.0 43.3,313.3 42.7,312.5 C 42.7,312.5 42.0,311.7 41.5,310.8 C 41.5,310.8 41.0,310.0 40.5,308.8 C 40.5,308.8 40.0,307.7 39.5,306.5 C 39.5,306.5 39.0,305.3 38.7,304.2 C 38.7,304.2 38.3,303.0 38.2,301.8 C 38.2,301.8 38.0,300.7 38.0,299.5 C 38.0,299.5 38.0,298.3 38.0,297.2 C 38.0,297.2 38.0,296.0 38.0,294.8 C 38.0,294.8 38.0,293.7 38.2,292.5 C 38.2,292.5 38.3,291.3 38.7,290.2 C 38.7,290.2 39.0,289.0 39.5,288.0 C 39.5,288.0 40.0,287.0 40.5,286.0 C 40.5,286.0 41.0,285.0 41.7,284.0 C 41.7,284.0 42.3,283.0 43.0,282.0 C 43.0,282.0 43.7,281.0 44.3,280.0 C 44.3,280.0 45.0,279.0 45.5,278.0 C 45.5,278.0 46.0,277.0 46.3,276.0 C 46.3,276.0 46.7,275.0 47.0,274.0 C 47.0,274.0 47.3,273.0 47.5,272.0 C 47.5,272.0 47.7,271.0 47.8,270.0 C 47.8,270.0 48.0,269.0 48.0,268.0 C 48.0,268.0 48.0,267.0 48.0,265.8 C 48.0,265.8 48.0,264.7 47.8,263.5 C 47.8,263.5 47.7,262.3 47.5,261.0 C 47.5,261.0 47.3,259.7 47.0,258.5 C 47.0,258.5 46.7,257.3 46.5,256.2 C 46.5,256.2 46.3,255.0 46.0,254.0 C 46.0,254.0 45.7,253.0 45.3,252.0 C 45.3,252.0 45.0,251.0 44.5,250.2 C 44.5,250.2 44.0,249.3 43.3,248.5 C 43.3,248.5 42.7,247.7 42.0,246.8 C 42.0,246.8 41.3,246.0 40.5,245.2 C 40.5,245.2 39.7,244.3 38.8,243.7 C 38.8,243.7 38.0,243.0 37.2,242.5 C 37.2,242.5 36.3,242.0 35.5,241.3 C 35.5,241.3 34.7,240.7 34.0,240.0 C 34.0,240.0 33.3,239.3 32.7,238.5 C 32.7,238.5 32.0,237.7 31.5,236.8 C 31.5,236.8 31.0,236.0 30.5,235.0 C 30.5,235.0 30.0,234.0 29.7,233.0 C 29.7,233.0 29.3,232.0 29.2,230.8 C 29.2,230.8 29.0,229.7 29.0,228.5 C 29.0,228.5 29.0,227.3 29.0,226.2 C 29.0,226.2 29.0,225.0 29.0,223.8 C 29.0,223.8 29.0,222.7 29.0,221.5 C 29.0,221.5 29.0,220.3 28.8,219.2 C 28.8,219.2 28.7,218.0 28.7,217.0 C 28.7,217.0 28.7,216.0 28.7,215.0 C 28.7,215.0 28.7,214.0 28.8,213.2 C 28.8,213.2 29.0,212.3 29.0,211.5 C 29.0,211.5 29.0,210.7 29.2,209.8 C 29.2,209.8 29.3,209.0 29.5,208.2 C 29.5,208.2 29.7,207.3 30.0,206.5 C 30.0,206.5 30.3,205.7 30.7,205.0 C 30.7,205.0 31.0,204.3 31.5,203.5 C 31.5,203.5 32.0,202.7 32.5,202.0 C 32.5,202.0 33.0,201.3 33.7,200.5 C 33.7,200.5 34.3,199.7 35.0,199.0 C 35.0,199.0 35.7,198.3 36.5,197.7 C 36.5,197.7 37.3,197.0 38.2,196.5 C 38.2,196.5 39.0,196.0 40.0,195.7 C 40.0,195.7 41.0,195.3 41.8,195.0 C 41.8,195.0 42.7,194.7 43.5,194.3 C 43.5,194.3 44.3,194.0 45.0,193.5 C 45.0,193.5 45.7,193.0 46.5,192.5 C 46.5,192.5 47.3,192.0 48.0,191.5 C 48.0,191.5 48.7,191.0 49.3,190.3 C 49.3,190.3 50.0,189.7 50.5,189.0 C 50.5,189.0 51.0,188.3 51.5,187.5 C 51.5,187.5 52.0,186.7 52.3,185.7 C 52.3,185.7 52.7,184.7 53.0,183.5 C 53.0,183.5 53.3,182.3 53.5,181.2 C 53.5,181.2 53.7,180.0 53.8,179.0 C 53.8,179.0 54.0,178.0 54.2,177.0 C 54.2,177.0 54.3,176.0 54.5,174.8 C 54.5,174.8 54.7,173.7 54.8,172.5 C 54.8,172.5 55.0,171.3 55.2,170.0 C 55.2,170.0 55.3,168.7 55.7,167.5 C 55.7,167.5 56.0,166.3 56.5,165.2 C 56.5,165.2 57.0,164.0 57.5,162.8 C 57.5,162.8 58.0,161.7 58.3,160.5 C 58.3,160.5 58.7,159.3 59.0,158.2 C 59.0,158.2 59.3,157.0 59.7,155.8 C 59.7,155.8 60.0,154.7 60.5,153.5 C 60.5,153.5 61.0,152.3 61.3,151.0 C 61.3,151.0 61.7,149.7 62.0,148.3 C 62.0,148.3 62.3,147.0 62.5,145.5 C 62.5,145.5 62.7,144.0 62.8,142.7 C 62.8,142.7 63.0,141.3 63.2,139.8 C 63.2,139.8 63.3,138.3 63.5,136.8 C 63.5,136.8 63.7,135.3 63.8,133.5 C 63.8,133.5 64.0,131.7 64.0,129.7 C 64.0,129.7 64.0,127.7 64.0,125.5 C 64.0,125.5 64.0,123.3 64.0,121.2 C 64.0,121.2 64.0,119.0 64.0,116.8 C 64.0,116.8 64.0,114.7 63.5,110.8 L 63,107" stroke="#EF4444" stroke-width="2" fill="none" vector-effect="non-scaling-stroke"/><path d="M 63,107 C 63.0,105.8 63.0,104.5 63.0,103.2 C 63.0,103.2 63.0,102.0 63.0,99.5 C 63.0,99.5 63.0,97.0 63.0,94.7 C 63.0,94.7 63.0,92.3 62.8,90.0 C 62.8,90.0 62.7,87.7 62.5,85.2 C 62.5,85.2 62.3,82.7 62.2,80.0 C 62.2,80.0 62.0,77.3 61.8,74.5 C 61.8,74.5 61.7,71.7 61.5,69.0 C 61.5,69.0 61.3,66.3 61.2,63.8 C 61.2,63.8 61.0,61.3 61.0,59.2 C 61.0,59.2 61.0,57.0 61.0,55.2 C 61.0,55.2 61.0,53.3 60.8,51.8 C 60.8,51.8 60.7,50.3 60.5,49.0 C 60.5,49.0 60.3,47.7 60.2,46.5 C 60.2,46.5 60.0,45.3 59.8,44.2 C 59.8,44.2 59.7,43.0 59.3,42.0 C 59.3,42.0 59.0,41.0 58.5,40.0 C 58.5,40.0 58.0,39.0 57.5,38.2 C 57.5,38.2 57.0,37.3 56.3,36.7 C 56.3,36.7 55.7,36.0 55.0,35.5 C 55.0,35.5 54.3,35.0 53.5,34.5 C 53.5,34.5 52.7,34.0 51.8,33.7 C 51.8,33.7 51.0,33.3 50.2,33.0 C 50.2,33.0 49.3,32.7 48.5,32.7 C 48.5,32.7 47.7,32.7 46.8,32.7 C 46.8,32.7 46.0,32.7 45.0,33.0 C 45.0,33.0 44.0,33.3 43.0,33.7 C 43.0,33.7 42.0,34.0 41.0,34.5 C 41.0,34.5 40.0,35.0 39.2,35.7 C 39.2,35.7 38.3,36.3 37.5,37.2 C 37.5,37.2 36.7,38.0 36.0,39.0 C 36.0,39.0 35.3,40.0 34.8,41.2 C 34.8,41.2 34.3,42.3 34.0,43.5 C 34.0,43.5 33.7,44.7 33.5,46.0 C 33.5,46.0 33.3,47.3 33.2,48.7 C 33.2,48.7 33.0,50.0 33.0,51.3 C 33.0,51.3 33.0,52.7 33.2,54.2 C 33.2,54.2 33.3,55.7 33.7,57.0 C 33.7,57.0 34.0,58.3 34.5,59.8 C 34.5,59.8 35.0,61.3 35.5,62.7 C 35.5,62.7 36.0,64.0 36.7,65.5 C 36.7,65.5 37.3,67.0 38.2,68.5 C 38.2,68.5 39.0,70.0 40.0,71.5 C 40.0,71.5 41.0,73.0 42.0,74.5 C 42.0,74.5 43.0,76.0 43.8,77.7 C 43.8,77.7 44.7,79.3 45.5,81.0 C 45.5,81.0 46.3,82.7 47.0,84.5 C 47.0,84.5 47.7,86.3 48.2,88.0 C 48.2,88.0 48.7,89.7 49.0,91.5 C 49.0,91.5 49.3,93.3 49.7,95.2 C 49.7,95.2 50.0,97.0 50.3,99.0 C 50.3,99.0 50.7,101.0 50.8,102.8 C 50.8,102.8 51.0,104.7 50.8,106.7 C 50.8,106.7 50.7,108.7 50.5,110.5 C 50.5,110.5 50.3,112.3 50.0,114.3 C 50.0,114.3 49.7,116.3 49.3,118.2 C 49.3,118.2 49.0,120.0 48.5,121.8 C 48.5,121.8 48.0,123.7 47.3,125.5 C 47.3,125.5 46.7,127.3 45.8,129.2 C 45.8,129.2 45.0,131.0 44.2,132.8 C 44.2,132.8 43.3,134.7 42.5,136.2 C 42.5,136.2 41.7,137.7 41.0,139.0 C 41.0,139.0 40.3,140.3 39.7,141.7 C 39.7,141.7 39.0,143.0 38.7,144.5 C 38.7,144.5 38.3,146.0 38.0,147.5 C 38.0,147.5 37.7,149.0 37.5,150.5 C 37.5,150.5 37.3,152.0 37.2,153.3 C 37.2,153.3 37.0,154.7 36.8,155.8 C 36.8,155.8 36.7,157.0 36.5,158.0 C 36.5,158.0 36.3,159.0 36.2,160.0 C 36.2,160.0 36.0,161.0 36.0,162.0 C 36.0,162.0 36.0,163.0 36.0,163.8 C 36.0,163.8 36.0,164.7 35.8,165.5 C 35.8,165.5 35.7,166.3 35.3,167.0 C 35.3,167.0 35.0,167.7 34.5,168.5 C 34.5,168.5 34.0,169.3 33.5,170.0 C 33.5,170.0 33.0,170.7 32.5,171.3 C 32.5,171.3 32.0,172.0 31.3,172.5 C 31.3,172.5 30.7,173.0 29.8,173.3 C 29.8,173.3 29.0,173.7 28.0,174.0 C 28.0,174.0 27.0,174.3 26.0,174.7 C 26.0,174.7 25.0,175.0 24.0,175.5 C 24.0,175.5 23.0,176.0 22.2,176.5 C 22.2,176.5 21.3,177.0 20.5,177.5 C 20.5,177.5 19.7,178.0 19.0,178.7 C 19.0,178.7 18.3,179.3 17.5,180.0 C 17.5,180.0 16.7,180.7 16.0,181.7 C 16.0,181.7 15.3,182.7 14.7,183.7 C 14.7,183.7 14.0,184.7 13.5,186.0 C 13.5,186.0 13.0,187.3 12.7,188.5 C 12.7,188.5 12.3,189.7 12.2,191.0 C 12.2,191.0 12.0,192.3 11.8,193.7 C 11.8,193.7 11.7,195.0 11.5,196.5 C 11.5,196.5 11.3,198.0 11.2,199.5 C 11.2,199.5 11.0,201.0 11.0,202.5 C 11.0,202.5 11.0,204.0 11.0,205.7 C 11.0,205.7 11.0,207.3 11.2,209.0 C 11.2,209.0 11.3,210.7 11.5,212.5 C 11.5,212.5 11.7,214.3 12.0,216.0 C 12.0,216.0 12.3,217.7 12.7,219.5 C 12.7,219.5 13.0,221.3 13.5,223.2 C 13.5,223.2 14.0,225.0 14.5,226.8 C 14.5,226.8 15.0,228.7 15.7,230.5 C 15.7,230.5 16.3,232.3 17.0,234.0 C 17.0,234.0 17.7,235.7 18.5,237.5 C 18.5,237.5 19.3,239.3 20.2,241.2 C 20.2,241.2 21.0,243.0 21.8,245.0 C 21.8,245.0 22.7,247.0 23.5,248.8 C 23.5,248.8 24.3,250.7 25.0,252.5 C 25.0,252.5 25.7,254.3 26.3,256.2 C 26.3,256.2 27.0,258.0 27.5,260.2 C 27.5,260.2 28.0,262.3 28.5,264.5 C 28.5,264.5 29.0,266.7 29.3,268.8 C 29.3,268.8 29.7,271.0 29.8,273.2 C 29.8,273.2 30.0,275.3 30.0,277.5 C 30.0,277.5 30.0,279.7 30.0,281.8 C 30.0,281.8 30.0,284.0 30.0,286.2 C 30.0,286.2 30.0,288.3 30.0,290.5 C 30.0,290.5 30.0,292.7 30.0,295.0 C 30.0,295.0 30.0,297.3 30.2,299.5 C 30.2,299.5 30.3,301.7 30.7,304.0 C 30.7,304.0 31.0,306.3 31.5,308.5 C 31.5,308.5 32.0,310.7 32.5,312.8 C 32.5,312.8 33.0,315.0 33.7,317.2 C 33.7,317.2 34.3,319.3 35.2,321.5 C 35.2,321.5 36.0,323.7 37.0,325.8 C 37.0,325.8 38.0,328.0 39.0,330.0 C 39.0,330.0 40.0,332.0 41.2,333.8 C 41.2,333.8 42.3,335.7 43.5,337.5 C 43.5,337.5 44.7,339.3 45.8,341.2 C 45.8,341.2 47.0,343.0 48.0,345.0 C 48.0,345.0 49.0,347.0 50.0,349.0 C 50.0,349.0 51.0,351.0 51.8,353.0 C 51.8,353.0 52.7,355.0 53.3,357.2 C 53.3,357.2 54.0,359.3 54.5,361.5 C 54.5,361.5 55.0,363.7 55.5,366.0 C 55.5,366.0 56.0,368.3 56.3,370.5 C 56.3,370.5 56.7,372.7 56.8,375.0 C 56.8,375.0 57.0,377.3 57.0,379.5 C 57.0,379.5 57.0,381.7 57.0,384.0 C 57.0,384.0 57.0,386.3 57.0,389.2 L 57,392" stroke="#374151" stroke-width="8" fill="none" vector-effect="non-scaling-stroke"/><path d="M 63,107 C 63.0,105.8 63.0,104.5 63.0,103.2 C 63.0,103.2 63.0,102.0 63.0,99.5 C 63.0,99.5 63.0,97.0 63.0,94.7 C 63.0,94.7 63.0,92.3 62.8,90.0 C 62.8,90.0 62.7,87.7 62.5,85.2 C 62.5,85.2 62.3,82.7 62.2,80.0 C 62.2,80.0 62.0,77.3 61.8,74.5 C 61.8,74.5 61.7,71.7 61.5,69.0 C 61.5,69.0 61.3,66.3 61.2,63.8 C 61.2,63.8 61.0,61.3 61.0,59.2 C 61.0,59.2 61.0,57.0 61.0,55.2 C 61.0,55.2 61.0,53.3 60.8,51.8 C 60.8,51.8 60.7,50.3 60.5,49.0 C 60.5,49.0 60.3,47.7 60.2,46.5 C 60.2,46.5 60.0,45.3 59.8,44.2 C 59.8,44.2 59.7,43.0 59.3,42.0 C 59.3,42.0 59.0,41.0 58.5,40.0 C 58.5,40.0 58.0,39.0 57.5,38.2 C 57.5,38.2 57.0,37.3 56.3,36.7 C 56.3,36.7 55.7,36.0 55.0,35.5 C 55.0,35.5 54.3,35.0 53.5,34.5 C 53.5,34.5 52.7,34.0 51.8,33.7 C 51.8,33.7 51.0,33.3 50.2,33.0 C 50.2,33.0 49.3,32.7 48.5,32.7 C 48.5,32.7 47.7,32.7 46.8,32.7 C 46.8,32.7 46.0,32.7 45.0,33.0 C 45.0,33.0 44.0,33.3 43.0,33.7 C 43.0,33.7 42.0,34.0 41.0,34.5 C 41.0,34.5 40.0,35.0 39.2,35.7 C 39.2,35.7 38.3,36.3 37.5,37.2 C 37.5,37.2 36.7,38.0 36.0,39.0 C 36.0,39.0 35.3,40.0 34.8,41.2 C 34.8,41.2 34.3,42.3 34.0,43.5 C 34.0,43.5 33.7,44.7 33.5,46.0 C 33.5,46.0 33.3,47.3 33.2,48.7 C 33.2,48.7 33.0,50.0 33.0,51.3 C 33.0,51.3 33.0,52.7 33.2,54.2 C 33.2,54.2 33.3,55.7 33.7,57.0 C 33.7,57.0 34.0,58.3 34.5,59.8 C 34.5,59.8 35.0,61.3 35.5,62.7 C 35.5,62.7 36.0,64.0 36.7,65.5 C 36.7,65.5 37.3,67.0 38.2,68.5 C 38.2,68.5 39.0,70.0 40.0,71.5 C 40.0,71.5 41.0,73.0 42.0,74.5 C 42.0,74.5 43.0,76.0 43.8,77.7 C 43.8,77.7 44.7,79.3 45.5,81.0 C 45.5,81.0 46.3,82.7 47.0,84.5 C 47.0,84.5 47.7,86.3 48.2,88.0 C 48.2,88.0 48.7,89.7 49.0,91.5 C 49.0,91.5 49.3,93.3 49.7,95.2 C 49.7,95.2 50.0,97.0 50.3,99.0 C 50.3,99.0 50.7,101.0 50.8,102.8 C 50.8,102.8 51.0,104.7 50.8,106.7 C 50.8,106.7 50.7,108.7 50.5,110.5 C 50.5,110.5 50.3,112.3 50.0,114.3 C 50.0,114.3 49.7,116.3 49.3,118.2 C 49.3,118.2 49.0,120.0 48.5,121.8 C 48.5,121.8 48.0,123.7 47.3,125.5 C 47.3,125.5 46.7,127.3 45.8,129.2 C 45.8,129.2 45.0,131.0 44.2,132.8 C 44.2,132.8 43.3,134.7 42.5,136.2 C 42.5,136.2 41.7,137.7 41.0,139.0 C 41.0,139.0 40.3,140.3 39.7,141.7 C 39.7,141.7 39.0,143.0 38.7,144.5 C 38.7,144.5 38.3,146.0 38.0,147.5 C 38.0,147.5 37.7,149.0 37.5,150.5 C 37.5,150.5 37.3,152.0 37.2,153.3 C 37.2,153.3 37.0,154.7 36.8,155.8 C 36.8,155.8 36.7,157.0 36.5,158.0 C 36.5,158.0 36.3,159.0 36.2,160.0 C 36.2,160.0 36.0,161.0 36.0,162.0 C 36.0,162.0 36.0,163.0 36.0,163.8 C 36.0,163.8 36.0,164.7 35.8,165.5 C 35.8,165.5 35.7,166.3 35.3,167.0 C 35.3,167.0 35.0,167.7 34.5,168.5 C 34.5,168.5 34.0,169.3 33.5,170.0 C 33.5,170.0 33.0,170.7 32.5,171.3 C 32.5,171.3 32.0,172.0 31.3,172.5 C 31.3,172.5 30.7,173.0 29.8,173.3 C 29.8,173.3 29.0,173.7 28.0,174.0 C 28.0,174.0 27.0,174.3 26.0,174.7 C 26.0,174.7 25.0,175.0 24.0,175.5 C 24.0,175.5 23.0,176.0 22.2,176.5 C 22.2,176.5 21.3,177.0 20.5,177.5 C 20.5,177.5 19.7,178.0 19.0,178.7 C 19.0,178.7 18.3,179.3 17.5,180.0 C 17.5,180.0 16.7,180.7 16.0,181.7 C 16.0,181.7 15.3,182.7 14.7,183.7 C 14.7,183.7 14.0,184.7 13.5,186.0 C 13.5,186.0 13.0,187.3 12.7,188.5 C 12.7,188.5 12.3,189.7 12.2,191.0 C 12.2,191.0 12.0,192.3 11.8,193.7 C 11.8,193.7 11.7,195.0 11.5,196.5 C 11.5,196.5 11.3,198.0 11.2,199.5 C 11.2,199.5 11.0,201.0 11.0,202.5 C 11.0,202.5 11.0,204.0 11.0,205.7 C 11.0,205.7 11.0,207.3 11.2,209.0 C 11.2,209.0 11.3,210.7 11.5,212.5 C 11.5,212.5 11.7,214.3 12.0,216.0 C 12.0,216.0 12.3,217.7 12.7,219.5 C 12.7,219.5 13.0,221.3 13.5,223.2 C 13.5,223.2 14.0,225.0 14.5,226.8 C 14.5,226.8 15.0,228.7 15.7,230.5 C 15.7,230.5 16.3,232.3 17.0,234.0 C 17.0,234.0 17.7,235.7 18.5,237.5 C 18.5,237.5 19.3,239.3 20.2,241.2 C 20.2,241.2 21.0,243.0 21.8,245.0 C 21.8,245.0 22.7,247.0 23.5,248.8 C 23.5,248.8 24.3,250.7 25.0,252.5 C 25.0,252.5 25.7,254.3 26.3,256.2 C 26.3,256.2 27.0,258.0 27.5,260.2 C 27.5,260.2 28.0,262.3 28.5,264.5 C 28.5,264.5 29.0,266.7 29.3,268.8 C 29.3,268.8 29.7,271.0 29.8,273.2 C 29.8,273.2 30.0,275.3 30.0,277.5 C 30.0,277.5 30.0,279.7 30.0,281.8 C 30.0,281.8 30.0,284.0 30.0,286.2 C 30.0,286.2 30.0,288.3 30.0,290.5 C 30.0,290.5 30.0,292.7 30.0,295.0 C 30.0,295.0 30.0,297.3 30.2,299.5 C 30.2,299.5 30.3,301.7 30.7,304.0 C 30.7,304.0 31.0,306.3 31.5,308.5 C 31.5,308.5 32.0,310.7 32.5,312.8 C 32.5,312.8 33.0,315.0 33.7,317.2 C 33.7,317.2 34.3,319.3 35.2,321.5 C 35.2,321.5 36.0,323.7 37.0,325.8 C 37.0,325.8 38.0,328.0 39.0,330.0 C 39.0,330.0 40.0,332.0 41.2,333.8 C 41.2,333.8 42.3,335.7 43.5,337.5 C 43.5,337.5 44.7,339.3 45.8,341.2 C 45.8,341.2 47.0,343.0 48.0,345.0 C 48.0,345.0 49.0,347.0 50.0,349.0 C 50.0,349.0 51.0,351.0 51.8,353.0 C 51.8,353.0 52.7,355.0 53.3,357.2 C 53.3,357.2 54.0,359.3 54.5,361.5 C 54.5,361.5 55.0,363.7 55.5,366.0 C 55.5,366.0 56.0,368.3 56.3,370.5 C 56.3,370.5 56.7,372.7 56.8,375.0 C 56.8,375.0 57.0,377.3 57.0,379.5 C 57.0,379.5 57.0,381.7 57.0,384.0 C 57.0,384.0 57.0,386.3 57.0,389.2 L 57,392" stroke="#3B82F6" stroke-width="2" fill="none" vector-effect="non-scaling-stroke"/><path d="M 57,392 C 57.0,393.2 57.0,394.5 56.8,395.8 C 56.8,395.8 56.7,397.0 56.5,399.2 C 56.5,399.2 56.3,401.3 56.0,403.3 C 56.0,403.3 55.7,405.3 55.3,407.2 C 55.3,407.2 55.0,409.0 54.7,410.7 C 54.7,410.7 54.3,412.3 54.0,413.8 C 54.0,413.8 53.7,415.3 53.5,416.7 C 53.5,416.7 53.3,418.0 53.2,419.3 C 53.2,419.3 53.0,420.7 53.0,421.8 C 53.0,421.8 53.0,423.0 53.0,424.0 C 53.0,424.0 53.0,425.0 53.2,426.0 C 53.2,426.0 53.3,427.0 53.7,428.0 C 53.7,428.0 54.0,429.0 54.5,429.8 C 54.5,429.8 55.0,430.7 55.7,431.5 C 55.7,431.5 56.3,432.3 57.2,433.0 C 57.2,433.0 58.0,433.7 59.0,434.3 C 59.0,434.3 60.0,435.0 60.8,435.7 C 60.8,435.7 61.7,436.3 62.5,437.2 C 62.5,437.2 63.3,438.0 64.2,439.0 C 64.2,439.0 65.0,440.0 66.0,441.2 C 66.0,441.2 67.0,442.3 67.8,443.7 C 67.8,443.7 68.7,445.0 69.3,446.5 C 69.3,446.5 70.0,448.0 70.3,449.5 C 70.3,449.5 70.7,451.0 71.0,452.5 C 71.0,452.5 71.3,454.0 71.7,455.5 C 71.7,455.5 72.0,457.0 72.3,458.7 C 72.3,458.7 72.7,460.3 72.8,462.0 C 72.8,462.0 73.0,463.7 73.0,465.3 C 73.0,465.3 73.0,467.0 73.0,468.5 C 73.0,468.5 73.0,470.0 72.8,471.7 C 72.8,471.7 72.7,473.3 71.5,476.3 C 71.5,476.3 70.3,479.3 67.7,484.7 C 67.7,484.7 65.0,490.0 62.0,495.8 C 62.0,495.8 59.0,501.7 56.8,506.3 C 56.8,506.3 54.7,511.0 53.8,513.5 C 53.8,513.5 53.0,516.0 52.5,518.0 C 52.5,518.0 52.0,520.0 51.5,522.0 C 51.5,522.0 51.0,524.0 50.5,526.0 C 50.5,526.0 50.0,528.0 49.7,530.0 C 49.7,530.0 49.3,532.0 49.2,534.0 C 49.2,534.0 49.0,536.0 49.0,538.0 C 49.0,538.0 49.0,540.0 49.2,542.0 C 49.2,542.0 49.3,544.0 49.5,546.0 C 49.5,546.0 49.7,548.0 50.0,550.0 C 50.0,550.0 50.3,552.0 50.7,554.0 C 50.7,554.0 51.0,556.0 51.5,558.2 C 51.5,558.2 52.0,560.3 52.7,562.5 C 52.7,562.5 53.3,564.7 54.0,566.8 C 54.0,566.8 54.7,569.0 55.3,571.0 C 55.3,571.0 56.0,573.0 56.5,575.0 C 56.5,575.0 57.0,577.0 57.5,579.2 C 57.5,579.2 58.0,581.3 58.7,583.5 C 58.7,583.5 59.3,585.7 60.0,587.8 C 60.0,587.8 60.7,590.0 61.5,592.0 C 61.5,592.0 62.3,594.0 63.2,596.0 C 63.2,596.0 64.0,598.0 65.0,600.0 C 65.0,600.0 66.0,602.0 67.0,604.0 C 67.0,604.0 68.0,606.0 69.2,608.0 C 69.2,608.0 70.3,610.0 71.5,611.8 C 71.5,611.8 72.7,613.7 73.8,615.5 C 73.8,615.5 75.0,617.3 76.2,619.0 C 76.2,619.0 77.3,620.7 78.5,622.5 C 78.5,622.5 79.7,624.3 81.2,626.0 C 81.2,626.0 82.7,627.7 84.2,629.3 C 84.2,629.3 85.7,631.0 87.3,632.7 C 87.3,632.7 89.0,634.3 90.5,636.0 C 90.5,636.0 92.0,637.7 93.5,639.3 C 93.5,639.3 95.0,641.0 96.7,642.5 C 96.7,642.5 98.3,644.0 100.0,645.5 C 100.0,645.5 101.7,647.0 103.5,648.3 C 103.5,648.3 105.3,649.7 107.0,651.0 C 107.0,651.0 108.7,652.3 110.5,653.5 C 110.5,653.5 112.3,654.7 114.0,656.0 C 114.0,656.0 115.7,657.3 117.3,658.5 C 117.3,658.5 119.0,659.7 120.5,660.8 C 120.5,660.8 122.0,662.0 123.3,662.8 C 123.3,662.8 124.7,663.7 125.7,664.3 C 125.7,664.3 126.7,665.0 127.5,665.5 C 127.5,665.5 128.3,666.0 129.0,666.3 C 129.0,666.3 129.7,666.7 130.5,667.0 C 130.5,667.0 131.3,667.3 132.2,667.5 C 132.2,667.5 133.0,667.7 133.8,667.7 C 133.8,667.7 134.7,667.7 135.5,667.3 C 135.5,667.3 136.3,667.0 137.0,666.5 C 137.0,666.5 137.7,666.0 138.3,665.5 C 138.3,665.5 139.0,665.0 139.5,664.5 C 139.5,664.5 140.0,664.0 140.5,663.3 C 140.5,663.3 141.0,662.7 141.3,661.8 C 141.3,661.8 141.7,661.0 141.8,660.0 C 141.8,660.0 142.0,659.0 142.0,658.0 C 142.0,658.0 142.0,657.0 141.8,656.0 C 141.8,656.0 141.7,655.0 141.5,654.0 C 141.5,654.0 141.3,653.0 141.0,651.8 C 141.0,651.8 140.7,650.7 139.8,647.0 C 139.8,647.0 139.0,643.3 137.7,636.7 C 137.7,636.7 136.3,630.0 135.0,623.2 C 135.0,623.2 133.7,616.3 132.8,611.5 C 132.8,611.5 132.0,606.7 131.5,604.3 C 131.5,604.3 131.0,602.0 130.3,599.5 C 130.3,599.5 129.7,597.0 129.0,594.5 C 129.0,594.5 128.3,592.0 127.7,589.5 C 127.7,589.5 127.0,587.0 126.5,584.3 C 126.5,584.3 126.0,581.7 125.5,578.8 C 125.5,578.8 125.0,576.0 124.3,573.2 C 124.3,573.2 123.7,570.3 123.0,567.7 C 123.0,567.7 122.3,565.0 121.5,562.3 C 121.5,562.3 120.7,559.7 120.0,557.0 C 120.0,557.0 119.3,554.3 118.5,551.5 C 118.5,551.5 117.7,548.7 116.8,546.0 C 116.8,546.0 116.0,543.3 115.0,540.2 L 114,537" stroke="#374151" stroke-width="8" fill="none" vector-effect="non-scaling-stroke"/><path d="M 57,392 C 57.0,393.2 57.0,394.5 56.8,395.8 C 56.8,395.8 56.7,397.0 56.5,399.2 C 56.5,399.2 56.3,401.3 56.0,403.3 C 56.0,403.3 55.7,405.3 55.3,407.2 C 55.3,407.2 55.0,409.0 54.7,410.7 C 54.7,410.7 54.3,412.3 54.0,413.8 C 54.0,413.8 53.7,415.3 53.5,416.7 C 53.5,416.7 53.3,418.0 53.2,419.3 C 53.2,419.3 53.0,420.7 53.0,421.8 C 53.0,421.8 53.0,423.0 53.0,424.0 C 53.0,424.0 53.0,425.0 53.2,426.0 C 53.2,426.0 53.3,427.0 53.7,428.0 C 53.7,428.0 54.0,429.0 54.5,429.8 C 54.5,429.8 55.0,430.7 55.7,431.5 C 55.7,431.5 56.3,432.3 57.2,433.0 C 57.2,433.0 58.0,433.7 59.0,434.3 C 59.0,434.3 60.0,435.0 60.8,435.7 C 60.8,435.7 61.7,436.3 62.5,437.2 C 62.5,437.2 63.3,438.0 64.2,439.0 C 64.2,439.0 65.0,440.0 66.0,441.2 C 66.0,441.2 67.0,442.3 67.8,443.7 C 67.8,443.7 68.7,445.0 69.3,446.5 C 69.3,446.5 70.0,448.0 70.3,449.5 C 70.3,449.5 70.7,451.0 71.0,452.5 C 71.0,452.5 71.3,454.0 71.7,455.5 C 71.7,455.5 72.0,457.0 72.3,458.7 C 72.3,458.7 72.7,460.3 72.8,462.0 C 72.8,462.0 73.0,463.7 73.0,465.3 C 73.0,465.3 73.0,467.0 73.0,468.5 C 73.0,468.5 73.0,470.0 72.8,471.7 C 72.8,471.7 72.7,473.3 71.5,476.3 C 71.5,476.3 70.3,479.3 67.7,484.7 C 67.7,484.7 65.0,490.0 62.0,495.8 C 62.0,495.8 59.0,501.7 56.8,506.3 C 56.8,506.3 54.7,511.0 53.8,513.5 C 53.8,513.5 53.0,516.0 52.5,518.0 C 52.5,518.0 52.0,520.0 51.5,522.0 C 51.5,522.0 51.0,524.0 50.5,526.0 C 50.5,526.0 50.0,528.0 49.7,530.0 C 49.7,530.0 49.3,532.0 49.2,534.0 C 49.2,534.0 49.0,536.0 49.0,538.0 C 49.0,538.0 49.0,540.0 49.2,542.0 C 49.2,542.0 49.3,544.0 49.5,546.0 C 49.5,546.0 49.7,548.0 50.0,550.0 C 50.0,550.0 50.3,552.0 50.7,554.0 C 50.7,554.0 51.0,556.0 51.5,558.2 C 51.5,558.2 52.0,560.3 52.7,562.5 C 52.7,562.5 53.3,564.7 54.0,566.8 C 54.0,566.8 54.7,569.0 55.3,571.0 C 55.3,571.0 56.0,573.0 56.5,575.0 C 56.5,575.0 57.0,577.0 57.5,579.2 C 57.5,579.2 58.0,581.3 58.7,583.5 C 58.7,583.5 59.3,585.7 60.0,587.8 C 60.0,587.8 60.7,590.0 61.5,592.0 C 61.5,592.0 62.3,594.0 63.2,596.0 C 63.2,596.0 64.0,598.0 65.0,600.0 C 65.0,600.0 66.0,602.0 67.0,604.0 C 67.0,604.0 68.0,606.0 69.2,608.0 C 69.2,608.0 70.3,610.0 71.5,611.8 C 71.5,611.8 72.7,613.7 73.8,615.5 C 73.8,615.5 75.0,617.3 76.2,619.0 C 76.2,619.0 77.3,620.7 78.5,622.5 C 78.5,622.5 79.7,624.3 81.2,626.0 C 81.2,626.0 82.7,627.7 84.2,629.3 C 84.2,629.3 85.7,631.0 87.3,632.7 C 87.3,632.7 89.0,634.3 90.5,636.0 C 90.5,636.0 92.0,637.7 93.5,639.3 C 93.5,639.3 95.0,641.0 96.7,642.5 C 96.7,642.5 98.3,644.0 100.0,645.5 C 100.0,645.5 101.7,647.0 103.5,648.3 C 103.5,648.3 105.3,649.7 107.0,651.0 C 107.0,651.0 108.7,652.3 110.5,653.5 C 110.5,653.5 112.3,654.7 114.0,656.0 C 114.0,656.0 115.7,657.3 117.3,658.5 C 117.3,658.5 119.0,659.7 120.5,660.8 C 120.5,660.8 122.0,662.0 123.3,662.8 C 123.3,662.8 124.7,663.7 125.7,664.3 C 125.7,664.3 126.7,665.0 127.5,665.5 C 127.5,665.5 128.3,666.0 129.0,666.3 C 129.0,666.3 129.7,666.7 130.5,667.0 C 130.5,667.0 131.3,667.3 132.2,667.5 C 132.2,667.5 133.0,667.7 133.8,667.7 C 133.8,667.7 134.7,667.7 135.5,667.3 C 135.5,667.3 136.3,667.0 137.0,666.5 C 137.0,666.5 137.7,666.0 138.3,665.5 C 138.3,665.5 139.0,665.0 139.5,664.5 C 139.5,664.5 140.0,664.0 140.5,663.3 C 140.5,663.3 141.0,662.7 141.3,661.8 C 141.3,661.8 141.7,661.0 141.8,660.0 C 141.8,660.0 142.0,659.0 142.0,658.0 C 142.0,658.0 142.0,657.0 141.8,656.0 C 141.8,656.0 141.7,655.0 141.5,654.0 C 141.5,654.0 141.3,653.0 141.0,651.8 C 141.0,651.8 140.7,650.7 139.8,647.0 C 139.8,647.0 139.0,643.3 137.7,636.7 C 137.7,636.7 136.3,630.0 135.0,623.2 C 135.0,623.2 133.7,616.3 132.8,611.5 C 132.8,611.5 132.0,606.7 131.5,604.3 C 131.5,604.3 131.0,602.0 130.3,599.5 C 130.3,599.5 129.7,597.0 129.0,594.5 C 129.0,594.5 128.3,592.0 127.7,589.5 C 127.7,589.5 127.0,587.0 126.5,584.3 C 126.5,584.3 126.0,581.7 125.5,578.8 C 125.5,578.8 125.0,576.0 124.3,573.2 C 124.3,573.2 123.7,570.3 123.0,567.7 C 123.0,567.7 122.3,565.0 121.5,562.3 C 121.5,562.3 120.7,559.7 120.0,557.0 C 120.0,557.0 119.3,554.3 118.5,551.5 C 118.5,551.5 117.7,548.7 116.8,546.0 C 116.8,546.0 116.0,543.3 115.0,540.2 L 114,537" stroke="#FBBF24" stroke-width="2" fill="none" vector-effect="non-scaling-stroke"/>
    <g id="moving-circle-group">
        <circle cx="114" cy="537" r="20" fill="#000000" vector-effect="non-scaling-stroke"/>
        <circle cx="114" cy="537" r="7" fill="#FFFFFF" vector-effect="non-scaling-stroke"/>
    </g></svg>