<svg id="minimap-svg" width="100%" height="100%" viewBox="0 0 415 700" xmlns="http://www.w3.org/2000/svg"><path d="M 36,482 C 36.8,480.8 37.5,479.5 38.4,478.1 C 38.4,478.1 39.3,476.7 42.8,471.7 C 42.8,471.7 46.3,466.7 53.3,456.7 C 53.3,456.7 60.3,446.7 68.2,435.7 C 68.2,435.7 76.0,424.7 82.2,415.8 C 82.2,415.8 88.3,407.0 91.2,403.2 C 91.2,403.2 94.0,399.3 96.0,396.7 C 96.0,396.7 98.0,394.0 99.8,391.5 C 99.8,391.5 101.7,389.0 103.3,386.7 C 103.3,386.7 105.0,384.3 106.5,382.2 C 106.5,382.2 108.0,380.0 109.5,378.0 C 109.5,378.0 111.0,376.0 112.5,374.0 C 112.5,374.0 114.0,372.0 115.3,370.0 C 115.3,370.0 116.7,368.0 118.0,366.2 C 118.0,366.2 119.3,364.3 120.5,362.7 C 120.5,362.7 121.7,361.0 123.2,359.5 C 123.2,359.5 124.7,358.0 126.3,356.7 C 126.3,356.7 128.0,355.3 129.8,354.2 C 129.8,354.2 131.7,353.0 133.5,352.2 C 133.5,352.2 135.3,351.3 137.3,350.7 C 137.3,350.7 139.3,350.0 141.5,349.7 C 141.5,349.7 143.7,349.3 146.0,349.2 C 146.0,349.2 148.3,349.0 150.8,349.2 C 150.8,349.2 153.3,349.3 156.0,349.7 C 156.0,349.7 158.7,350.0 161.3,350.5 C 161.3,350.5 164.0,351.0 166.5,351.3 C 166.5,351.3 169.0,351.7 171.5,352.0 C 171.5,352.0 174.0,352.3 176.7,352.5 C 176.7,352.5 179.3,352.7 181.8,353.0 C 181.8,353.0 184.3,353.3 186.8,353.5 C 186.8,353.5 189.3,353.7 191.7,353.7 C 191.7,353.7 194.0,353.7 196.7,353.5 C 196.7,353.5 199.3,353.3 201.8,353.0 C 201.8,353.0 204.3,352.7 206.8,352.3 C 206.8,352.3 209.3,352.0 211.7,351.3 C 211.7,351.3 214.0,350.7 216.5,349.8 C 216.5,349.8 219.0,349.0 221.3,347.8 C 221.3,347.8 223.7,346.7 226.0,345.3 C 226.0,345.3 228.3,344.0 230.7,342.5 C 230.7,342.5 233.0,341.0 235.3,339.3 C 235.3,339.3 237.7,337.7 239.8,335.8 C 239.8,335.8 242.0,334.0 244.2,332.0 C 244.2,332.0 246.3,330.0 248.3,328.2 C 248.3,328.2 250.3,326.3 252.3,324.7 C 252.3,324.7 254.3,323.0 256.0,321.3 C 256.0,321.3 257.7,319.7 259.5,318.0 C 259.5,318.0 261.3,316.3 263.0,314.7 C 263.0,314.7 264.7,313.0 266.3,311.7 C 266.3,311.7 268.0,310.3 269.5,309.2 C 269.5,309.2 271.0,308.0 272.3,307.0 C 272.3,307.0 273.7,306.0 274.8,305.0 C 274.8,305.0 276.0,304.0 277.0,303.2 C 277.0,303.2 278.0,302.3 278.8,301.5 C 278.8,301.5 279.7,300.7 280.5,300.0 C 280.5,300.0 281.3,299.3 282.2,298.7 C 282.2,298.7 283.0,298.0 284.0,297.5 C 284.0,297.5 285.0,297.0 286.0,296.5 C 286.0,296.5 287.0,296.0 288.0,295.7 C 288.0,295.7 289.0,295.3 290.0,295.2 C 290.0,295.2 291.0,295.0 292.0,295.0 C 292.0,295.0 293.0,295.0 294.2,295.2 C 294.2,295.2 295.3,295.3 296.5,295.8 C 296.5,295.8 297.7,296.3 298.7,297.2 C 298.7,297.2 299.7,298.0 300.5,299.0 C 300.5,299.0 301.3,300.0 302.0,301.2 C 302.0,301.2 302.7,302.3 303.3,303.7 C 303.3,303.7 304.0,305.0 304.3,306.7 C 304.3,306.7 304.7,308.3 305.0,310.0 C 305.0,310.0 305.3,311.7 305.7,313.3 C 305.7,313.3 306.0,315.0 306.5,316.5 C 306.5,316.5 307.0,318.0 307.5,319.3 C 307.5,319.3 308.0,320.7 308.3,322.0 C 308.3,322.0 308.7,323.3 309.0,324.5 C 309.0,324.5 309.3,325.7 309.7,326.8 C 309.7,326.8 310.0,328.0 310.5,329.0 C 310.5,329.0 311.0,330.0 311.3,331.0 C 311.3,331.0 311.7,332.0 312.0,332.8 C 312.0,332.8 312.3,333.7 312.7,334.5 C 312.7,334.5 313.0,335.3 313.5,336.0 C 313.5,336.0 314.0,336.7 314.7,337.3 C 314.7,337.3 315.3,338.0 316.2,338.5 C 316.2,338.5 317.0,339.0 318.2,339.5 C 318.2,339.5 319.3,340.0 320.5,340.3 C 320.5,340.3 321.7,340.7 322.8,340.7 C 322.8,340.7 324.0,340.7 325.0,340.3 C 325.0,340.3 326.0,340.0 326.8,339.3 C 326.8,339.3 327.7,338.7 328.5,337.7 C 328.5,337.7 329.3,336.7 330.0,335.5 C 330.0,335.5 330.7,334.3 331.3,333.0 C 331.3,333.0 332.0,331.7 332.5,330.3 C 332.5,330.3 333.0,329.0 333.7,327.5 C 333.7,327.5 334.3,326.0 335.0,324.5 C 335.0,324.5 335.7,323.0 336.3,321.3 C 336.3,321.3 337.0,319.7 337.5,318.0 C 337.5,318.0 338.0,316.3 338.5,314.5 C 338.5,314.5 339.0,312.7 339.3,310.8 C 339.3,310.8 339.7,309.0 340.0,307.0 C 340.0,307.0 340.3,305.0 340.7,303.0 C 340.7,303.0 341.0,301.0 341.3,299.2 C 341.3,299.2 341.7,297.3 342.0,295.3 C 342.0,295.3 342.3,293.3 342.5,291.5 C 342.5,291.5 342.7,289.7 342.8,287.7 C 342.8,287.7 343.0,285.7 342.8,283.8 C 342.8,283.8 342.7,282.0 342.3,280.0 C 342.3,280.0 342.0,278.0 341.5,276.2 C 341.5,276.2 341.0,274.3 340.2,272.5 C 340.2,272.5 339.3,270.7 338.3,269.0 C 338.3,269.0 337.3,267.3 336.0,265.7 C 336.0,265.7 334.7,264.0 333.2,262.5 C 333.2,262.5 331.7,261.0 330.0,259.5 C 330.0,259.5 328.3,258.0 326.3,256.3 C 326.3,256.3 324.3,254.7 322.3,252.8 C 322.3,252.8 320.3,251.0 318.0,249.0 C 318.0,249.0 315.7,247.0 313.3,245.0 C 313.3,245.0 311.0,243.0 308.5,240.8 C 308.5,240.8 306.0,238.7 303.5,236.5 C 303.5,236.5 301.0,234.3 298.3,232.0 C 298.3,232.0 295.7,229.7 292.8,227.3 C 292.8,227.3 290.0,225.0 287.0,222.3 C 287.0,222.3 284.0,219.7 281.2,217.2 C 281.2,217.2 278.3,214.7 275.3,212.0 C 275.3,212.0 272.3,209.3 269.3,206.8 C 269.3,206.8 266.3,204.3 263.2,201.7 C 263.2,201.7 260.0,199.0 257.0,196.3 C 257.0,196.3 254.0,193.7 250.8,190.8 C 250.8,190.8 247.7,188.0 244.3,185.0 C 244.3,185.0 241.0,182.0 237.5,179.0 C 237.5,179.0 234.0,176.0 230.7,173.2 C 230.7,173.2 227.3,170.3 224.0,167.5 C 224.0,167.5 220.7,164.7 217.5,162.0 C 217.5,162.0 214.3,159.3 211.3,156.7 C 211.3,156.7 208.3,154.0 205.7,151.7 C 205.7,151.7 203.0,149.3 200.5,147.0 C 200.5,147.0 198.0,144.7 195.5,142.5 C 195.5,142.5 193.0,140.3 189.5,137.7 L 186,135" stroke="#374151" stroke-width="8" fill="none" vector-effect="non-scaling-stroke"/><path d="M 36,482 C 36.8,480.8 37.5,479.5 38.4,478.1 C 38.4,478.1 39.3,476.7 42.8,471.7 C 42.8,471.7 46.3,466.7 53.3,456.7 C 53.3,456.7 60.3,446.7 68.2,435.7 C 68.2,435.7 76.0,424.7 82.2,415.8 C 82.2,415.8 88.3,407.0 91.2,403.2 C 91.2,403.2 94.0,399.3 96.0,396.7 C 96.0,396.7 98.0,394.0 99.8,391.5 C 99.8,391.5 101.7,389.0 103.3,386.7 C 103.3,386.7 105.0,384.3 106.5,382.2 C 106.5,382.2 108.0,380.0 109.5,378.0 C 109.5,378.0 111.0,376.0 112.5,374.0 C 112.5,374.0 114.0,372.0 115.3,370.0 C 115.3,370.0 116.7,368.0 118.0,366.2 C 118.0,366.2 119.3,364.3 120.5,362.7 C 120.5,362.7 121.7,361.0 123.2,359.5 C 123.2,359.5 124.7,358.0 126.3,356.7 C 126.3,356.7 128.0,355.3 129.8,354.2 C 129.8,354.2 131.7,353.0 133.5,352.2 C 133.5,352.2 135.3,351.3 137.3,350.7 C 137.3,350.7 139.3,350.0 141.5,349.7 C 141.5,349.7 143.7,349.3 146.0,349.2 C 146.0,349.2 148.3,349.0 150.8,349.2 C 150.8,349.2 153.3,349.3 156.0,349.7 C 156.0,349.7 158.7,350.0 161.3,350.5 C 161.3,350.5 164.0,351.0 166.5,351.3 C 166.5,351.3 169.0,351.7 171.5,352.0 C 171.5,352.0 174.0,352.3 176.7,352.5 C 176.7,352.5 179.3,352.7 181.8,353.0 C 181.8,353.0 184.3,353.3 186.8,353.5 C 186.8,353.5 189.3,353.7 191.7,353.7 C 191.7,353.7 194.0,353.7 196.7,353.5 C 196.7,353.5 199.3,353.3 201.8,353.0 C 201.8,353.0 204.3,352.7 206.8,352.3 C 206.8,352.3 209.3,352.0 211.7,351.3 C 211.7,351.3 214.0,350.7 216.5,349.8 C 216.5,349.8 219.0,349.0 221.3,347.8 C 221.3,347.8 223.7,346.7 226.0,345.3 C 226.0,345.3 228.3,344.0 230.7,342.5 C 230.7,342.5 233.0,341.0 235.3,339.3 C 235.3,339.3 237.7,337.7 239.8,335.8 C 239.8,335.8 242.0,334.0 244.2,332.0 C 244.2,332.0 246.3,330.0 248.3,328.2 C 248.3,328.2 250.3,326.3 252.3,324.7 C 252.3,324.7 254.3,323.0 256.0,321.3 C 256.0,321.3 257.7,319.7 259.5,318.0 C 259.5,318.0 261.3,316.3 263.0,314.7 C 263.0,314.7 264.7,313.0 266.3,311.7 C 266.3,311.7 268.0,310.3 269.5,309.2 C 269.5,309.2 271.0,308.0 272.3,307.0 C 272.3,307.0 273.7,306.0 274.8,305.0 C 274.8,305.0 276.0,304.0 277.0,303.2 C 277.0,303.2 278.0,302.3 278.8,301.5 C 278.8,301.5 279.7,300.7 280.5,300.0 C 280.5,300.0 281.3,299.3 282.2,298.7 C 282.2,298.7 283.0,298.0 284.0,297.5 C 284.0,297.5 285.0,297.0 286.0,296.5 C 286.0,296.5 287.0,296.0 288.0,295.7 C 288.0,295.7 289.0,295.3 290.0,295.2 C 290.0,295.2 291.0,295.0 292.0,295.0 C 292.0,295.0 293.0,295.0 294.2,295.2 C 294.2,295.2 295.3,295.3 296.5,295.8 C 296.5,295.8 297.7,296.3 298.7,297.2 C 298.7,297.2 299.7,298.0 300.5,299.0 C 300.5,299.0 301.3,300.0 302.0,301.2 C 302.0,301.2 302.7,302.3 303.3,303.7 C 303.3,303.7 304.0,305.0 304.3,306.7 C 304.3,306.7 304.7,308.3 305.0,310.0 C 305.0,310.0 305.3,311.7 305.7,313.3 C 305.7,313.3 306.0,315.0 306.5,316.5 C 306.5,316.5 307.0,318.0 307.5,319.3 C 307.5,319.3 308.0,320.7 308.3,322.0 C 308.3,322.0 308.7,323.3 309.0,324.5 C 309.0,324.5 309.3,325.7 309.7,326.8 C 309.7,326.8 310.0,328.0 310.5,329.0 C 310.5,329.0 311.0,330.0 311.3,331.0 C 311.3,331.0 311.7,332.0 312.0,332.8 C 312.0,332.8 312.3,333.7 312.7,334.5 C 312.7,334.5 313.0,335.3 313.5,336.0 C 313.5,336.0 314.0,336.7 314.7,337.3 C 314.7,337.3 315.3,338.0 316.2,338.5 C 316.2,338.5 317.0,339.0 318.2,339.5 C 318.2,339.5 319.3,340.0 320.5,340.3 C 320.5,340.3 321.7,340.7 322.8,340.7 C 322.8,340.7 324.0,340.7 325.0,340.3 C 325.0,340.3 326.0,340.0 326.8,339.3 C 326.8,339.3 327.7,338.7 328.5,337.7 C 328.5,337.7 329.3,336.7 330.0,335.5 C 330.0,335.5 330.7,334.3 331.3,333.0 C 331.3,333.0 332.0,331.7 332.5,330.3 C 332.5,330.3 333.0,329.0 333.7,327.5 C 333.7,327.5 334.3,326.0 335.0,324.5 C 335.0,324.5 335.7,323.0 336.3,321.3 C 336.3,321.3 337.0,319.7 337.5,318.0 C 337.5,318.0 338.0,316.3 338.5,314.5 C 338.5,314.5 339.0,312.7 339.3,310.8 C 339.3,310.8 339.7,309.0 340.0,307.0 C 340.0,307.0 340.3,305.0 340.7,303.0 C 340.7,303.0 341.0,301.0 341.3,299.2 C 341.3,299.2 341.7,297.3 342.0,295.3 C 342.0,295.3 342.3,293.3 342.5,291.5 C 342.5,291.5 342.7,289.7 342.8,287.7 C 342.8,287.7 343.0,285.7 342.8,283.8 C 342.8,283.8 342.7,282.0 342.3,280.0 C 342.3,280.0 342.0,278.0 341.5,276.2 C 341.5,276.2 341.0,274.3 340.2,272.5 C 340.2,272.5 339.3,270.7 338.3,269.0 C 338.3,269.0 337.3,267.3 336.0,265.7 C 336.0,265.7 334.7,264.0 333.2,262.5 C 333.2,262.5 331.7,261.0 330.0,259.5 C 330.0,259.5 328.3,258.0 326.3,256.3 C 326.3,256.3 324.3,254.7 322.3,252.8 C 322.3,252.8 320.3,251.0 318.0,249.0 C 318.0,249.0 315.7,247.0 313.3,245.0 C 313.3,245.0 311.0,243.0 308.5,240.8 C 308.5,240.8 306.0,238.7 303.5,236.5 C 303.5,236.5 301.0,234.3 298.3,232.0 C 298.3,232.0 295.7,229.7 292.8,227.3 C 292.8,227.3 290.0,225.0 287.0,222.3 C 287.0,222.3 284.0,219.7 281.2,217.2 C 281.2,217.2 278.3,214.7 275.3,212.0 C 275.3,212.0 272.3,209.3 269.3,206.8 C 269.3,206.8 266.3,204.3 263.2,201.7 C 263.2,201.7 260.0,199.0 257.0,196.3 C 257.0,196.3 254.0,193.7 250.8,190.8 C 250.8,190.8 247.7,188.0 244.3,185.0 C 244.3,185.0 241.0,182.0 237.5,179.0 C 237.5,179.0 234.0,176.0 230.7,173.2 C 230.7,173.2 227.3,170.3 224.0,167.5 C 224.0,167.5 220.7,164.7 217.5,162.0 C 217.5,162.0 214.3,159.3 211.3,156.7 C 211.3,156.7 208.3,154.0 205.7,151.7 C 205.7,151.7 203.0,149.3 200.5,147.0 C 200.5,147.0 198.0,144.7 195.5,142.5 C 195.5,142.5 193.0,140.3 189.5,137.7 L 186,135" stroke="#EF4444" stroke-width="2" fill="none" vector-effect="non-scaling-stroke"/><path d="M 186,135 C 185.0,134.0 184.0,133.0 183.0,132.2 C 183.0,132.2 182.0,131.3 180.0,129.7 C 180.0,129.7 178.0,128.0 176.2,126.5 C 176.2,126.5 174.3,125.0 172.7,123.5 C 172.7,123.5 171.0,122.0 169.5,120.5 C 169.5,120.5 168.0,119.0 166.5,117.7 C 166.5,117.7 165.0,116.3 163.5,115.2 C 163.5,115.2 162.0,114.0 160.7,113.0 C 160.7,113.0 159.3,112.0 158.2,111.0 C 158.2,111.0 157.0,110.0 155.8,109.0 C 155.8,109.0 154.7,108.0 153.3,107.2 C 153.3,107.2 152.0,106.3 150.7,105.7 C 150.7,105.7 149.3,105.0 148.2,104.7 C 148.2,104.7 147.0,104.3 145.8,104.0 C 145.8,104.0 144.7,103.7 143.3,103.5 C 143.3,103.5 142.0,103.3 140.7,103.2 C 140.7,103.2 139.3,103.0 138.0,103.0 C 138.0,103.0 136.7,103.0 135.3,103.0 C 135.3,103.0 134.0,103.0 132.7,103.2 C 132.7,103.2 131.3,103.3 130.0,103.7 C 130.0,103.7 128.7,104.0 127.3,104.5 C 127.3,104.5 126.0,105.0 124.7,105.7 C 124.7,105.7 123.3,106.3 122.2,107.2 C 122.2,107.2 121.0,108.0 120.0,109.0 C 120.0,109.0 119.0,110.0 118.2,111.2 C 118.2,111.2 117.3,112.3 116.7,113.5 C 116.7,113.5 116.0,114.7 115.7,116.0 C 115.7,116.0 115.3,117.3 115.0,118.5 C 115.0,118.5 114.7,119.7 114.5,121.0 C 114.5,121.0 114.3,122.3 114.2,123.7 C 114.2,123.7 114.0,125.0 114.0,126.5 C 114.0,126.5 114.0,128.0 113.8,129.5 C 113.8,129.5 113.7,131.0 113.5,132.5 C 113.5,132.5 113.3,134.0 113.2,135.3 C 113.2,135.3 113.0,136.7 112.8,138.0 C 112.8,138.0 112.7,139.3 112.5,140.5 C 112.5,140.5 112.3,141.7 112.2,143.0 C 112.2,143.0 112.0,144.3 111.8,145.5 C 111.8,145.5 111.7,146.7 111.3,148.0 C 111.3,148.0 111.0,149.3 110.3,150.5 C 110.3,150.5 109.7,151.7 108.8,152.8 C 108.8,152.8 108.0,154.0 107.0,154.8 C 107.0,154.8 106.0,155.7 105.2,156.5 C 105.2,156.5 104.3,157.3 103.5,158.0 C 103.5,158.0 102.7,158.7 101.7,159.2 C 101.7,159.2 100.7,159.7 99.3,160.0 C 99.3,160.0 98.0,160.3 96.7,160.5 C 96.7,160.5 95.3,160.7 94.2,160.8 C 94.2,160.8 93.0,161.0 92.0,160.8 C 92.0,160.8 91.0,160.7 90.0,160.5 C 90.0,160.5 89.0,160.3 87.8,160.0 C 87.8,160.0 86.7,159.7 85.5,159.2 C 85.5,159.2 84.3,158.7 83.3,158.0 C 83.3,158.0 82.3,157.3 81.5,156.7 C 81.5,156.7 80.7,156.0 79.8,155.3 C 79.8,155.3 79.0,154.7 78.2,153.8 C 78.2,153.8 77.3,153.0 76.7,152.0 C 76.7,152.0 76.0,151.0 75.5,149.8 C 75.5,149.8 75.0,148.7 74.5,147.5 C 74.5,147.5 74.0,146.3 73.7,145.0 C 73.7,145.0 73.3,143.7 73.2,142.3 C 73.2,142.3 73.0,141.0 73.2,139.5 C 73.2,139.5 73.3,138.0 73.7,136.5 C 73.7,136.5 74.0,135.0 74.5,133.5 C 74.5,133.5 75.0,132.0 75.7,130.5 C 75.7,130.5 76.3,129.0 77.0,127.3 C 77.0,127.3 77.7,125.7 78.5,123.8 C 78.5,123.8 79.3,122.0 80.2,120.0 C 80.2,120.0 81.0,118.0 82.0,116.0 C 82.0,116.0 83.0,114.0 84.0,112.0 C 84.0,112.0 85.0,110.0 86.0,107.8 C 86.0,107.8 87.0,105.7 87.8,103.3 C 87.8,103.3 88.7,101.0 89.7,98.7 C 89.7,98.7 90.7,96.3 91.7,94.2 C 91.7,94.2 92.7,92.0 93.8,90.0 C 93.8,90.0 95.0,88.0 96.2,85.8 C 96.2,85.8 97.3,83.7 98.7,81.7 C 98.7,81.7 100.0,79.7 101.5,77.7 C 101.5,77.7 103.0,75.7 104.7,73.8 C 104.7,73.8 106.3,72.0 108.2,70.0 C 108.2,70.0 110.0,68.0 111.8,66.2 C 111.8,66.2 113.7,64.3 115.3,62.7 C 115.3,62.7 117.0,61.0 118.8,59.3 C 118.8,59.3 120.7,57.7 122.7,56.0 C 122.7,56.0 124.7,54.3 127.0,52.7 C 127.0,52.7 129.3,51.0 131.5,49.7 C 131.5,49.7 133.7,48.3 136.2,47.2 C 136.2,47.2 138.7,46.0 141.2,45.0 C 141.2,45.0 143.7,44.0 146.3,43.2 C 146.3,43.2 149.0,42.3 151.5,41.7 C 151.5,41.7 154.0,41.0 156.7,40.5 C 156.7,40.5 159.3,40.0 162.0,39.5 C 162.0,39.5 164.7,39.0 167.3,38.5 C 167.3,38.5 170.0,38.0 172.8,37.7 C 172.8,37.7 175.7,37.3 178.5,37.0 C 178.5,37.0 181.3,36.7 184.3,36.3 C 184.3,36.3 187.3,36.0 190.2,35.5 C 190.2,35.5 193.0,35.0 196.0,34.5 C 196.0,34.5 199.0,34.0 202.0,33.5 C 202.0,33.5 205.0,33.0 207.8,32.7 C 207.8,32.7 210.7,32.3 213.5,32.0 C 213.5,32.0 216.3,31.7 219.2,31.5 C 219.2,31.5 222.0,31.3 224.8,31.0 C 224.8,31.0 227.7,30.7 230.5,30.3 C 230.5,30.3 233.3,30.0 236.3,29.5 C 236.3,29.5 239.3,29.0 242.5,28.7 C 242.5,28.7 245.7,28.3 248.7,28.0 C 248.7,28.0 251.7,27.7 254.5,27.5 C 254.5,27.5 257.3,27.3 260.2,27.0 C 260.2,27.0 263.0,26.7 265.8,26.3 C 265.8,26.3 268.7,26.0 271.3,25.7 C 271.3,25.7 274.0,25.3 276.5,25.2 C 276.5,25.2 279.0,25.0 281.5,24.8 C 281.5,24.8 284.0,24.7 286.5,24.3 C 286.5,24.3 289.0,24.0 291.3,23.7 C 291.3,23.7 293.7,23.3 295.7,23.2 C 295.7,23.2 297.7,23.0 299.5,23.0 C 299.5,23.0 301.3,23.0 303.0,22.8 C 303.0,22.8 304.7,22.7 306.3,22.5 C 306.3,22.5 308.0,22.3 309.7,22.3 C 309.7,22.3 311.3,22.3 313.0,22.5 C 313.0,22.5 314.7,22.7 316.3,23.2 C 316.3,23.2 318.0,23.7 319.5,24.2 C 319.5,24.2 321.0,24.7 322.7,25.3 C 322.7,25.3 324.3,26.0 326.0,26.7 C 326.0,26.7 327.7,27.3 329.3,28.2 C 329.3,28.2 331.0,29.0 332.5,30.2 C 332.5,30.2 334.0,31.3 335.3,32.7 C 335.3,32.7 336.7,34.0 337.8,35.5 C 337.8,35.5 339.0,37.0 340.0,38.7 C 340.0,38.7 341.0,40.3 342.0,42.2 C 342.0,42.2 343.0,44.0 343.8,46.0 C 343.8,46.0 344.7,48.0 345.5,50.0 C 345.5,50.0 346.3,52.0 347.2,54.2 C 347.2,54.2 348.0,56.3 348.8,58.7 C 348.8,58.7 349.7,61.0 350.5,63.5 C 350.5,63.5 351.3,66.0 352.0,68.5 C 352.0,68.5 352.7,71.0 353.5,73.5 C 353.5,73.5 354.3,76.0 355.0,78.5 C 355.0,78.5 355.7,81.0 356.5,83.7 C 356.5,83.7 357.3,86.3 358.0,89.2 C 358.0,89.2 358.7,92.0 359.3,94.8 C 359.3,94.8 360.0,97.7 360.5,100.5 C 360.5,100.5 361.0,103.3 361.5,106.0 C 361.5,106.0 362.0,108.7 362.5,111.5 C 362.5,111.5 363.0,114.3 363.5,117.3 C 363.5,117.3 364.0,120.3 364.5,123.5 C 364.5,123.5 365.0,126.7 365.5,129.8 C 365.5,129.8 366.0,133.0 366.3,136.0 C 366.3,136.0 366.7,139.0 367.0,141.8 C 367.0,141.8 367.3,144.7 367.5,147.5 C 367.5,147.5 367.7,150.3 367.8,153.0 C 367.8,153.0 368.0,155.7 368.2,158.5 C 368.2,158.5 368.3,161.3 368.5,164.2 C 368.5,164.2 368.7,167.0 369.0,169.8 C 369.0,169.8 369.3,172.7 369.5,175.3 C 369.5,175.3 369.7,178.0 369.8,180.5 C 369.8,180.5 370.0,183.0 370.0,185.3 C 370.0,185.3 370.0,187.7 370.2,190.0 C 370.2,190.0 370.3,192.3 370.5,194.5 C 370.5,194.5 370.7,196.7 370.8,198.8 C 370.8,198.8 371.0,201.0 371.2,203.0 C 371.2,203.0 371.3,205.0 371.7,206.8 C 371.7,206.8 372.0,208.7 372.5,210.5 C 372.5,210.5 373.0,212.3 373.7,214.3 C 373.7,214.3 374.3,216.3 375.0,218.3 C 375.0,218.3 375.7,220.3 376.5,222.3 C 376.5,222.3 377.3,224.3 378.2,226.2 C 378.2,226.2 379.0,228.0 380.2,229.8 C 380.2,229.8 381.3,231.7 382.3,233.5 C 382.3,233.5 383.3,235.3 384.3,237.2 C 384.3,237.2 385.3,239.0 386.2,240.8 C 386.2,240.8 387.0,242.7 387.8,244.5 C 387.8,244.5 388.7,246.3 389.3,248.2 C 389.3,248.2 390.0,250.0 390.3,252.0 C 390.3,252.0 390.7,254.0 390.7,256.0 C 390.7,256.0 390.7,258.0 390.3,260.0 C 390.3,260.0 390.0,262.0 389.5,264.0 C 389.5,264.0 389.0,266.0 388.3,268.2 C 388.3,268.2 387.7,270.3 387.0,272.5 C 387.0,272.5 386.3,274.7 385.7,276.8 C 385.7,276.8 385.0,279.0 384.3,281.0 C 384.3,281.0 383.7,283.0 383.0,284.8 C 383.0,284.8 382.3,286.7 381.7,288.5 C 381.7,288.5 381.0,290.3 380.5,292.0 C 380.5,292.0 380.0,293.7 379.5,295.5 C 379.5,295.5 379.0,297.3 378.7,299.0 C 378.7,299.0 378.3,300.7 378.2,302.7 C 378.2,302.7 378.0,304.7 378.0,306.5 C 378.0,306.5 378.0,308.3 378.2,310.3 C 378.2,310.3 378.3,312.3 378.8,314.2 C 378.8,314.2 379.3,316.0 380.0,317.8 C 380.0,317.8 380.7,319.7 381.5,321.5 C 381.5,321.5 382.3,323.3 383.3,325.0 C 383.3,325.0 384.3,326.7 385.5,328.3 C 385.5,328.3 386.7,330.0 388.0,331.5 C 388.0,331.5 389.3,333.0 390.5,334.5 C 390.5,334.5 391.7,336.0 392.8,337.5 C 392.8,337.5 394.0,339.0 395.0,340.5 C 395.0,340.5 396.0,342.0 396.8,343.7 C 396.8,343.7 397.7,345.3 398.2,347.0 C 398.2,347.0 398.7,348.7 399.0,350.5 C 399.0,350.5 399.3,352.3 399.5,354.2 C 399.5,354.2 399.7,356.0 399.7,357.8 C 399.7,357.8 399.7,359.7 399.3,361.5 C 399.3,361.5 399.0,363.3 398.3,365.2 C 398.3,365.2 397.7,367.0 396.8,368.8 C 396.8,368.8 396.0,370.7 394.8,372.3 C 394.8,372.3 393.7,374.0 392.3,375.5 C 392.3,375.5 391.0,377.0 389.3,378.3 C 389.3,378.3 387.7,379.7 385.8,381.0 C 385.8,381.0 384.0,382.3 382.0,383.5 C 382.0,383.5 380.0,384.7 378.0,386.0 C 378.0,386.0 376.0,387.3 374.0,388.7 C 374.0,388.7 372.0,390.0 370.0,391.5 C 370.0,391.5 368.0,393.0 366.0,394.5 C 366.0,394.5 364.0,396.0 362.0,397.7 C 362.0,397.7 360.0,399.3 358.2,401.2 C 358.2,401.2 356.3,403.0 354.7,405.0 C 354.7,405.0 353.0,407.0 351.5,409.3 C 351.5,409.3 350.0,411.7 348.5,414.2 C 348.5,414.2 347.0,416.7 345.5,419.5 C 345.5,419.5 344.0,422.3 341.5,426.7 L 339,431" stroke="#374151" stroke-width="8" fill="none" vector-effect="non-scaling-stroke"/><path d="M 186,135 C 185.0,134.0 184.0,133.0 183.0,132.2 C 183.0,132.2 182.0,131.3 180.0,129.7 C 180.0,129.7 178.0,128.0 176.2,126.5 C 176.2,126.5 174.3,125.0 172.7,123.5 C 172.7,123.5 171.0,122.0 169.5,120.5 C 169.5,120.5 168.0,119.0 166.5,117.7 C 166.5,117.7 165.0,116.3 163.5,115.2 C 163.5,115.2 162.0,114.0 160.7,113.0 C 160.7,113.0 159.3,112.0 158.2,111.0 C 158.2,111.0 157.0,110.0 155.8,109.0 C 155.8,109.0 154.7,108.0 153.3,107.2 C 153.3,107.2 152.0,106.3 150.7,105.7 C 150.7,105.7 149.3,105.0 148.2,104.7 C 148.2,104.7 147.0,104.3 145.8,104.0 C 145.8,104.0 144.7,103.7 143.3,103.5 C 143.3,103.5 142.0,103.3 140.7,103.2 C 140.7,103.2 139.3,103.0 138.0,103.0 C 138.0,103.0 136.7,103.0 135.3,103.0 C 135.3,103.0 134.0,103.0 132.7,103.2 C 132.7,103.2 131.3,103.3 130.0,103.7 C 130.0,103.7 128.7,104.0 127.3,104.5 C 127.3,104.5 126.0,105.0 124.7,105.7 C 124.7,105.7 123.3,106.3 122.2,107.2 C 122.2,107.2 121.0,108.0 120.0,109.0 C 120.0,109.0 119.0,110.0 118.2,111.2 C 118.2,111.2 117.3,112.3 116.7,113.5 C 116.7,113.5 116.0,114.7 115.7,116.0 C 115.7,116.0 115.3,117.3 115.0,118.5 C 115.0,118.5 114.7,119.7 114.5,121.0 C 114.5,121.0 114.3,122.3 114.2,123.7 C 114.2,123.7 114.0,125.0 114.0,126.5 C 114.0,126.5 114.0,128.0 113.8,129.5 C 113.8,129.5 113.7,131.0 113.5,132.5 C 113.5,132.5 113.3,134.0 113.2,135.3 C 113.2,135.3 113.0,136.7 112.8,138.0 C 112.8,138.0 112.7,139.3 112.5,140.5 C 112.5,140.5 112.3,141.7 112.2,143.0 C 112.2,143.0 112.0,144.3 111.8,145.5 C 111.8,145.5 111.7,146.7 111.3,148.0 C 111.3,148.0 111.0,149.3 110.3,150.5 C 110.3,150.5 109.7,151.7 108.8,152.8 C 108.8,152.8 108.0,154.0 107.0,154.8 C 107.0,154.8 106.0,155.7 105.2,156.5 C 105.2,156.5 104.3,157.3 103.5,158.0 C 103.5,158.0 102.7,158.7 101.7,159.2 C 101.7,159.2 100.7,159.7 99.3,160.0 C 99.3,160.0 98.0,160.3 96.7,160.5 C 96.7,160.5 95.3,160.7 94.2,160.8 C 94.2,160.8 93.0,161.0 92.0,160.8 C 92.0,160.8 91.0,160.7 90.0,160.5 C 90.0,160.5 89.0,160.3 87.8,160.0 C 87.8,160.0 86.7,159.7 85.5,159.2 C 85.5,159.2 84.3,158.7 83.3,158.0 C 83.3,158.0 82.3,157.3 81.5,156.7 C 81.5,156.7 80.7,156.0 79.8,155.3 C 79.8,155.3 79.0,154.7 78.2,153.8 C 78.2,153.8 77.3,153.0 76.7,152.0 C 76.7,152.0 76.0,151.0 75.5,149.8 C 75.5,149.8 75.0,148.7 74.5,147.5 C 74.5,147.5 74.0,146.3 73.7,145.0 C 73.7,145.0 73.3,143.7 73.2,142.3 C 73.2,142.3 73.0,141.0 73.2,139.5 C 73.2,139.5 73.3,138.0 73.7,136.5 C 73.7,136.5 74.0,135.0 74.5,133.5 C 74.5,133.5 75.0,132.0 75.7,130.5 C 75.7,130.5 76.3,129.0 77.0,127.3 C 77.0,127.3 77.7,125.7 78.5,123.8 C 78.5,123.8 79.3,122.0 80.2,120.0 C 80.2,120.0 81.0,118.0 82.0,116.0 C 82.0,116.0 83.0,114.0 84.0,112.0 C 84.0,112.0 85.0,110.0 86.0,107.8 C 86.0,107.8 87.0,105.7 87.8,103.3 C 87.8,103.3 88.7,101.0 89.7,98.7 C 89.7,98.7 90.7,96.3 91.7,94.2 C 91.7,94.2 92.7,92.0 93.8,90.0 C 93.8,90.0 95.0,88.0 96.2,85.8 C 96.2,85.8 97.3,83.7 98.7,81.7 C 98.7,81.7 100.0,79.7 101.5,77.7 C 101.5,77.7 103.0,75.7 104.7,73.8 C 104.7,73.8 106.3,72.0 108.2,70.0 C 108.2,70.0 110.0,68.0 111.8,66.2 C 111.8,66.2 113.7,64.3 115.3,62.7 C 115.3,62.7 117.0,61.0 118.8,59.3 C 118.8,59.3 120.7,57.7 122.7,56.0 C 122.7,56.0 124.7,54.3 127.0,52.7 C 127.0,52.7 129.3,51.0 131.5,49.7 C 131.5,49.7 133.7,48.3 136.2,47.2 C 136.2,47.2 138.7,46.0 141.2,45.0 C 141.2,45.0 143.7,44.0 146.3,43.2 C 146.3,43.2 149.0,42.3 151.5,41.7 C 151.5,41.7 154.0,41.0 156.7,40.5 C 156.7,40.5 159.3,40.0 162.0,39.5 C 162.0,39.5 164.7,39.0 167.3,38.5 C 167.3,38.5 170.0,38.0 172.8,37.7 C 172.8,37.7 175.7,37.3 178.5,37.0 C 178.5,37.0 181.3,36.7 184.3,36.3 C 184.3,36.3 187.3,36.0 190.2,35.5 C 190.2,35.5 193.0,35.0 196.0,34.5 C 196.0,34.5 199.0,34.0 202.0,33.5 C 202.0,33.5 205.0,33.0 207.8,32.7 C 207.8,32.7 210.7,32.3 213.5,32.0 C 213.5,32.0 216.3,31.7 219.2,31.5 C 219.2,31.5 222.0,31.3 224.8,31.0 C 224.8,31.0 227.7,30.7 230.5,30.3 C 230.5,30.3 233.3,30.0 236.3,29.5 C 236.3,29.5 239.3,29.0 242.5,28.7 C 242.5,28.7 245.7,28.3 248.7,28.0 C 248.7,28.0 251.7,27.7 254.5,27.5 C 254.5,27.5 257.3,27.3 260.2,27.0 C 260.2,27.0 263.0,26.7 265.8,26.3 C 265.8,26.3 268.7,26.0 271.3,25.7 C 271.3,25.7 274.0,25.3 276.5,25.2 C 276.5,25.2 279.0,25.0 281.5,24.8 C 281.5,24.8 284.0,24.7 286.5,24.3 C 286.5,24.3 289.0,24.0 291.3,23.7 C 291.3,23.7 293.7,23.3 295.7,23.2 C 295.7,23.2 297.7,23.0 299.5,23.0 C 299.5,23.0 301.3,23.0 303.0,22.8 C 303.0,22.8 304.7,22.7 306.3,22.5 C 306.3,22.5 308.0,22.3 309.7,22.3 C 309.7,22.3 311.3,22.3 313.0,22.5 C 313.0,22.5 314.7,22.7 316.3,23.2 C 316.3,23.2 318.0,23.7 319.5,24.2 C 319.5,24.2 321.0,24.7 322.7,25.3 C 322.7,25.3 324.3,26.0 326.0,26.7 C 326.0,26.7 327.7,27.3 329.3,28.2 C 329.3,28.2 331.0,29.0 332.5,30.2 C 332.5,30.2 334.0,31.3 335.3,32.7 C 335.3,32.7 336.7,34.0 337.8,35.5 C 337.8,35.5 339.0,37.0 340.0,38.7 C 340.0,38.7 341.0,40.3 342.0,42.2 C 342.0,42.2 343.0,44.0 343.8,46.0 C 343.8,46.0 344.7,48.0 345.5,50.0 C 345.5,50.0 346.3,52.0 347.2,54.2 C 347.2,54.2 348.0,56.3 348.8,58.7 C 348.8,58.7 349.7,61.0 350.5,63.5 C 350.5,63.5 351.3,66.0 352.0,68.5 C 352.0,68.5 352.7,71.0 353.5,73.5 C 353.5,73.5 354.3,76.0 355.0,78.5 C 355.0,78.5 355.7,81.0 356.5,83.7 C 356.5,83.7 357.3,86.3 358.0,89.2 C 358.0,89.2 358.7,92.0 359.3,94.8 C 359.3,94.8 360.0,97.7 360.5,100.5 C 360.5,100.5 361.0,103.3 361.5,106.0 C 361.5,106.0 362.0,108.7 362.5,111.5 C 362.5,111.5 363.0,114.3 363.5,117.3 C 363.5,117.3 364.0,120.3 364.5,123.5 C 364.5,123.5 365.0,126.7 365.5,129.8 C 365.5,129.8 366.0,133.0 366.3,136.0 C 366.3,136.0 366.7,139.0 367.0,141.8 C 367.0,141.8 367.3,144.7 367.5,147.5 C 367.5,147.5 367.7,150.3 367.8,153.0 C 367.8,153.0 368.0,155.7 368.2,158.5 C 368.2,158.5 368.3,161.3 368.5,164.2 C 368.5,164.2 368.7,167.0 369.0,169.8 C 369.0,169.8 369.3,172.7 369.5,175.3 C 369.5,175.3 369.7,178.0 369.8,180.5 C 369.8,180.5 370.0,183.0 370.0,185.3 C 370.0,185.3 370.0,187.7 370.2,190.0 C 370.2,190.0 370.3,192.3 370.5,194.5 C 370.5,194.5 370.7,196.7 370.8,198.8 C 370.8,198.8 371.0,201.0 371.2,203.0 C 371.2,203.0 371.3,205.0 371.7,206.8 C 371.7,206.8 372.0,208.7 372.5,210.5 C 372.5,210.5 373.0,212.3 373.7,214.3 C 373.7,214.3 374.3,216.3 375.0,218.3 C 375.0,218.3 375.7,220.3 376.5,222.3 C 376.5,222.3 377.3,224.3 378.2,226.2 C 378.2,226.2 379.0,228.0 380.2,229.8 C 380.2,229.8 381.3,231.7 382.3,233.5 C 382.3,233.5 383.3,235.3 384.3,237.2 C 384.3,237.2 385.3,239.0 386.2,240.8 C 386.2,240.8 387.0,242.7 387.8,244.5 C 387.8,244.5 388.7,246.3 389.3,248.2 C 389.3,248.2 390.0,250.0 390.3,252.0 C 390.3,252.0 390.7,254.0 390.7,256.0 C 390.7,256.0 390.7,258.0 390.3,260.0 C 390.3,260.0 390.0,262.0 389.5,264.0 C 389.5,264.0 389.0,266.0 388.3,268.2 C 388.3,268.2 387.7,270.3 387.0,272.5 C 387.0,272.5 386.3,274.7 385.7,276.8 C 385.7,276.8 385.0,279.0 384.3,281.0 C 384.3,281.0 383.7,283.0 383.0,284.8 C 383.0,284.8 382.3,286.7 381.7,288.5 C 381.7,288.5 381.0,290.3 380.5,292.0 C 380.5,292.0 380.0,293.7 379.5,295.5 C 379.5,295.5 379.0,297.3 378.7,299.0 C 378.7,299.0 378.3,300.7 378.2,302.7 C 378.2,302.7 378.0,304.7 378.0,306.5 C 378.0,306.5 378.0,308.3 378.2,310.3 C 378.2,310.3 378.3,312.3 378.8,314.2 C 378.8,314.2 379.3,316.0 380.0,317.8 C 380.0,317.8 380.7,319.7 381.5,321.5 C 381.5,321.5 382.3,323.3 383.3,325.0 C 383.3,325.0 384.3,326.7 385.5,328.3 C 385.5,328.3 386.7,330.0 388.0,331.5 C 388.0,331.5 389.3,333.0 390.5,334.5 C 390.5,334.5 391.7,336.0 392.8,337.5 C 392.8,337.5 394.0,339.0 395.0,340.5 C 395.0,340.5 396.0,342.0 396.8,343.7 C 396.8,343.7 397.7,345.3 398.2,347.0 C 398.2,347.0 398.7,348.7 399.0,350.5 C 399.0,350.5 399.3,352.3 399.5,354.2 C 399.5,354.2 399.7,356.0 399.7,357.8 C 399.7,357.8 399.7,359.7 399.3,361.5 C 399.3,361.5 399.0,363.3 398.3,365.2 C 398.3,365.2 397.7,367.0 396.8,368.8 C 396.8,368.8 396.0,370.7 394.8,372.3 C 394.8,372.3 393.7,374.0 392.3,375.5 C 392.3,375.5 391.0,377.0 389.3,378.3 C 389.3,378.3 387.7,379.7 385.8,381.0 C 385.8,381.0 384.0,382.3 382.0,383.5 C 382.0,383.5 380.0,384.7 378.0,386.0 C 378.0,386.0 376.0,387.3 374.0,388.7 C 374.0,388.7 372.0,390.0 370.0,391.5 C 370.0,391.5 368.0,393.0 366.0,394.5 C 366.0,394.5 364.0,396.0 362.0,397.7 C 362.0,397.7 360.0,399.3 358.2,401.2 C 358.2,401.2 356.3,403.0 354.7,405.0 C 354.7,405.0 353.0,407.0 351.5,409.3 C 351.5,409.3 350.0,411.7 348.5,414.2 C 348.5,414.2 347.0,416.7 345.5,419.5 C 345.5,419.5 344.0,422.3 341.5,426.7 L 339,431" stroke="#3B82F6" stroke-width="2" fill="none" vector-effect="non-scaling-stroke"/><path d="M 339,431 C 338.2,432.5 337.5,434.0 336.8,435.7 C 336.8,435.7 336.0,437.3 334.5,440.5 C 334.5,440.5 333.0,443.7 331.3,447.0 C 331.3,447.0 329.7,450.3 328.0,453.7 C 328.0,453.7 326.3,457.0 324.5,460.7 C 324.5,460.7 322.7,464.3 320.8,468.0 C 320.8,468.0 319.0,471.7 317.0,475.5 C 317.0,475.5 315.0,479.3 313.2,483.0 C 313.2,483.0 311.3,486.7 309.5,490.5 C 309.5,490.5 307.7,494.3 305.8,498.2 C 305.8,498.2 304.0,502.0 302.0,506.0 C 302.0,506.0 300.0,510.0 298.0,514.0 C 298.0,514.0 296.0,518.0 294.0,522.2 C 294.0,522.2 292.0,526.3 290.0,530.5 C 290.0,530.5 288.0,534.7 286.0,538.8 C 286.0,538.8 284.0,543.0 282.0,547.3 C 282.0,547.3 280.0,551.7 278.0,556.0 C 278.0,556.0 276.0,560.3 273.8,564.8 C 273.8,564.8 271.7,569.3 269.5,573.5 C 269.5,573.5 267.3,577.7 265.0,582.0 C 265.0,582.0 262.7,586.3 260.3,590.7 C 260.3,590.7 258.0,595.0 255.7,599.3 C 255.7,599.3 253.3,603.7 251.2,607.5 C 251.2,607.5 249.0,611.3 247.0,614.8 C 247.0,614.8 245.0,618.3 243.0,621.7 C 243.0,621.7 241.0,625.0 239.2,628.2 C 239.2,628.2 237.3,631.3 235.5,634.2 C 235.5,634.2 233.7,637.0 232.0,639.5 C 232.0,639.5 230.3,642.0 228.7,644.5 C 228.7,644.5 227.0,647.0 225.7,649.3 C 225.7,649.3 224.3,651.7 223.0,653.8 C 223.0,653.8 221.7,656.0 220.3,657.8 C 220.3,657.8 219.0,659.7 217.7,661.3 C 217.7,661.3 216.3,663.0 215.0,664.5 C 215.0,664.5 213.7,666.0 212.3,667.5 C 212.3,667.5 211.0,669.0 209.5,670.3 C 209.5,670.3 208.0,671.7 206.3,672.7 C 206.3,672.7 204.7,673.7 202.8,674.5 C 202.8,674.5 201.0,675.3 199.2,675.8 C 199.2,675.8 197.3,676.3 195.5,676.8 C 195.5,676.8 193.7,677.3 192.0,677.5 C 192.0,677.5 190.3,677.7 188.5,677.7 C 188.5,677.7 186.7,677.7 184.8,677.5 C 184.8,677.5 183.0,677.3 181.0,676.8 C 181.0,676.8 179.0,676.3 177.2,675.8 C 177.2,675.8 175.3,675.3 173.5,674.3 C 173.5,674.3 171.7,673.3 170.0,672.3 C 170.0,672.3 168.3,671.3 166.7,669.8 C 166.7,669.8 165.0,668.3 163.7,666.8 C 163.7,666.8 162.3,665.3 161.0,663.3 C 161.0,663.3 159.7,661.3 158.5,659.3 C 158.5,659.3 157.3,657.3 156.2,655.2 C 156.2,655.2 155.0,653.0 154.0,651.0 C 154.0,651.0 153.0,649.0 152.0,647.0 C 152.0,647.0 151.0,645.0 149.8,643.0 C 149.8,643.0 148.7,641.0 147.5,638.8 C 147.5,638.8 146.3,636.7 145.0,634.7 C 145.0,634.7 143.7,632.7 142.3,630.7 C 142.3,630.7 141.0,628.7 139.5,626.8 C 139.5,626.8 138.0,625.0 136.5,622.8 C 136.5,622.8 135.0,620.7 133.5,618.7 C 133.5,618.7 132.0,616.7 130.3,614.7 C 130.3,614.7 128.7,612.7 126.8,610.8 C 126.8,610.8 125.0,609.0 123.2,607.2 C 123.2,607.2 121.3,605.3 119.7,603.5 C 119.7,603.5 118.0,601.7 116.5,599.8 C 116.5,599.8 115.0,598.0 113.3,596.2 C 113.3,596.2 111.7,594.3 110.0,592.7 C 110.0,592.7 108.3,591.0 106.7,589.5 C 106.7,589.5 105.0,588.0 103.5,586.3 C 103.5,586.3 102.0,584.7 100.5,583.0 C 100.5,583.0 99.0,581.3 97.5,579.7 C 97.5,579.7 96.0,578.0 94.5,576.3 C 94.5,576.3 93.0,574.7 91.5,573.0 C 91.5,573.0 90.0,571.3 88.7,569.7 C 88.7,569.7 87.3,568.0 86.0,566.5 C 86.0,566.5 84.7,565.0 83.7,563.8 C 83.7,563.8 82.7,562.7 81.7,561.7 C 81.7,561.7 80.7,560.7 80.0,559.8 C 80.0,559.8 79.3,559.0 78.5,558.2 C 78.5,558.2 77.7,557.3 77.0,556.7 C 77.0,556.7 76.3,556.0 75.5,555.7 C 75.5,555.7 74.7,555.3 73.8,555.0 C 73.8,555.0 73.0,554.7 72.0,554.7 C 72.0,554.7 71.0,554.7 70.0,554.8 C 70.0,554.8 69.0,555.0 67.8,555.5 C 67.8,555.5 66.7,556.0 65.5,556.7 C 65.5,556.7 64.3,557.3 63.3,558.2 C 63.3,558.2 62.3,559.0 61.5,560.0 C 61.5,560.0 60.7,561.0 59.8,561.8 C 59.8,561.8 59.0,562.7 57.8,563.5 C 57.8,563.5 56.7,564.3 55.5,565.0 C 55.5,565.0 54.3,565.7 53.0,566.2 C 53.0,566.2 51.7,566.7 50.5,566.8 C 50.5,566.8 49.3,567.0 48.0,566.8 C 48.0,566.8 46.7,566.7 45.3,566.2 C 45.3,566.2 44.0,565.7 42.7,564.8 C 42.7,564.8 41.3,564.0 40.0,563.0 C 40.0,563.0 38.7,562.0 37.3,560.8 C 37.3,560.8 36.0,559.7 34.7,558.3 C 34.7,558.3 33.3,557.0 32.2,555.5 C 32.2,555.5 31.0,554.0 30.0,552.7 C 30.0,552.7 29.0,551.3 28.0,550.0 C 28.0,550.0 27.0,548.7 26.0,547.3 C 26.0,547.3 25.0,546.0 24.0,544.5 C 24.0,544.5 23.0,543.0 22.0,541.3 C 22.0,541.3 21.0,539.7 20.2,537.8 C 20.2,537.8 19.3,536.0 18.7,534.2 C 18.7,534.2 18.0,532.3 17.5,530.5 C 17.5,530.5 17.0,528.7 16.5,526.8 C 16.5,526.8 16.0,525.0 15.7,523.2 C 15.7,523.2 15.3,521.3 15.2,519.5 C 15.2,519.5 15.0,517.7 15.2,515.8 C 15.2,515.8 15.3,514.0 15.7,512.0 C 15.7,512.0 16.0,510.0 16.7,508.2 C 16.7,508.2 17.3,506.3 18.3,504.7 C 18.3,504.7 19.3,503.0 20.7,501.3 C 20.7,501.3 22.0,499.7 23.5,497.8 C 23.5,497.8 25.0,496.0 26.3,494.2 C 26.3,494.2 27.7,492.3 29.0,490.5 C 29.0,490.5 30.3,488.7 33.2,485.3 L 36,482" stroke="#374151" stroke-width="8" fill="none" vector-effect="non-scaling-stroke"/><path d="M 339,431 C 338.2,432.5 337.5,434.0 336.8,435.7 C 336.8,435.7 336.0,437.3 334.5,440.5 C 334.5,440.5 333.0,443.7 331.3,447.0 C 331.3,447.0 329.7,450.3 328.0,453.7 C 328.0,453.7 326.3,457.0 324.5,460.7 C 324.5,460.7 322.7,464.3 320.8,468.0 C 320.8,468.0 319.0,471.7 317.0,475.5 C 317.0,475.5 315.0,479.3 313.2,483.0 C 313.2,483.0 311.3,486.7 309.5,490.5 C 309.5,490.5 307.7,494.3 305.8,498.2 C 305.8,498.2 304.0,502.0 302.0,506.0 C 302.0,506.0 300.0,510.0 298.0,514.0 C 298.0,514.0 296.0,518.0 294.0,522.2 C 294.0,522.2 292.0,526.3 290.0,530.5 C 290.0,530.5 288.0,534.7 286.0,538.8 C 286.0,538.8 284.0,543.0 282.0,547.3 C 282.0,547.3 280.0,551.7 278.0,556.0 C 278.0,556.0 276.0,560.3 273.8,564.8 C 273.8,564.8 271.7,569.3 269.5,573.5 C 269.5,573.5 267.3,577.7 265.0,582.0 C 265.0,582.0 262.7,586.3 260.3,590.7 C 260.3,590.7 258.0,595.0 255.7,599.3 C 255.7,599.3 253.3,603.7 251.2,607.5 C 251.2,607.5 249.0,611.3 247.0,614.8 C 247.0,614.8 245.0,618.3 243.0,621.7 C 243.0,621.7 241.0,625.0 239.2,628.2 C 239.2,628.2 237.3,631.3 235.5,634.2 C 235.5,634.2 233.7,637.0 232.0,639.5 C 232.0,639.5 230.3,642.0 228.7,644.5 C 228.7,644.5 227.0,647.0 225.7,649.3 C 225.7,649.3 224.3,651.7 223.0,653.8 C 223.0,653.8 221.7,656.0 220.3,657.8 C 220.3,657.8 219.0,659.7 217.7,661.3 C 217.7,661.3 216.3,663.0 215.0,664.5 C 215.0,664.5 213.7,666.0 212.3,667.5 C 212.3,667.5 211.0,669.0 209.5,670.3 C 209.5,670.3 208.0,671.7 206.3,672.7 C 206.3,672.7 204.7,673.7 202.8,674.5 C 202.8,674.5 201.0,675.3 199.2,675.8 C 199.2,675.8 197.3,676.3 195.5,676.8 C 195.5,676.8 193.7,677.3 192.0,677.5 C 192.0,677.5 190.3,677.7 188.5,677.7 C 188.5,677.7 186.7,677.7 184.8,677.5 C 184.8,677.5 183.0,677.3 181.0,676.8 C 181.0,676.8 179.0,676.3 177.2,675.8 C 177.2,675.8 175.3,675.3 173.5,674.3 C 173.5,674.3 171.7,673.3 170.0,672.3 C 170.0,672.3 168.3,671.3 166.7,669.8 C 166.7,669.8 165.0,668.3 163.7,666.8 C 163.7,666.8 162.3,665.3 161.0,663.3 C 161.0,663.3 159.7,661.3 158.5,659.3 C 158.5,659.3 157.3,657.3 156.2,655.2 C 156.2,655.2 155.0,653.0 154.0,651.0 C 154.0,651.0 153.0,649.0 152.0,647.0 C 152.0,647.0 151.0,645.0 149.8,643.0 C 149.8,643.0 148.7,641.0 147.5,638.8 C 147.5,638.8 146.3,636.7 145.0,634.7 C 145.0,634.7 143.7,632.7 142.3,630.7 C 142.3,630.7 141.0,628.7 139.5,626.8 C 139.5,626.8 138.0,625.0 136.5,622.8 C 136.5,622.8 135.0,620.7 133.5,618.7 C 133.5,618.7 132.0,616.7 130.3,614.7 C 130.3,614.7 128.7,612.7 126.8,610.8 C 126.8,610.8 125.0,609.0 123.2,607.2 C 123.2,607.2 121.3,605.3 119.7,603.5 C 119.7,603.5 118.0,601.7 116.5,599.8 C 116.5,599.8 115.0,598.0 113.3,596.2 C 113.3,596.2 111.7,594.3 110.0,592.7 C 110.0,592.7 108.3,591.0 106.7,589.5 C 106.7,589.5 105.0,588.0 103.5,586.3 C 103.5,586.3 102.0,584.7 100.5,583.0 C 100.5,583.0 99.0,581.3 97.5,579.7 C 97.5,579.7 96.0,578.0 94.5,576.3 C 94.5,576.3 93.0,574.7 91.5,573.0 C 91.5,573.0 90.0,571.3 88.7,569.7 C 88.7,569.7 87.3,568.0 86.0,566.5 C 86.0,566.5 84.7,565.0 83.7,563.8 C 83.7,563.8 82.7,562.7 81.7,561.7 C 81.7,561.7 80.7,560.7 80.0,559.8 C 80.0,559.8 79.3,559.0 78.5,558.2 C 78.5,558.2 77.7,557.3 77.0,556.7 C 77.0,556.7 76.3,556.0 75.5,555.7 C 75.5,555.7 74.7,555.3 73.8,555.0 C 73.8,555.0 73.0,554.7 72.0,554.7 C 72.0,554.7 71.0,554.7 70.0,554.8 C 70.0,554.8 69.0,555.0 67.8,555.5 C 67.8,555.5 66.7,556.0 65.5,556.7 C 65.5,556.7 64.3,557.3 63.3,558.2 C 63.3,558.2 62.3,559.0 61.5,560.0 C 61.5,560.0 60.7,561.0 59.8,561.8 C 59.8,561.8 59.0,562.7 57.8,563.5 C 57.8,563.5 56.7,564.3 55.5,565.0 C 55.5,565.0 54.3,565.7 53.0,566.2 C 53.0,566.2 51.7,566.7 50.5,566.8 C 50.5,566.8 49.3,567.0 48.0,566.8 C 48.0,566.8 46.7,566.7 45.3,566.2 C 45.3,566.2 44.0,565.7 42.7,564.8 C 42.7,564.8 41.3,564.0 40.0,563.0 C 40.0,563.0 38.7,562.0 37.3,560.8 C 37.3,560.8 36.0,559.7 34.7,558.3 C 34.7,558.3 33.3,557.0 32.2,555.5 C 32.2,555.5 31.0,554.0 30.0,552.7 C 30.0,552.7 29.0,551.3 28.0,550.0 C 28.0,550.0 27.0,548.7 26.0,547.3 C 26.0,547.3 25.0,546.0 24.0,544.5 C 24.0,544.5 23.0,543.0 22.0,541.3 C 22.0,541.3 21.0,539.7 20.2,537.8 C 20.2,537.8 19.3,536.0 18.7,534.2 C 18.7,534.2 18.0,532.3 17.5,530.5 C 17.5,530.5 17.0,528.7 16.5,526.8 C 16.5,526.8 16.0,525.0 15.7,523.2 C 15.7,523.2 15.3,521.3 15.2,519.5 C 15.2,519.5 15.0,517.7 15.2,515.8 C 15.2,515.8 15.3,514.0 15.7,512.0 C 15.7,512.0 16.0,510.0 16.7,508.2 C 16.7,508.2 17.3,506.3 18.3,504.7 C 18.3,504.7 19.3,503.0 20.7,501.3 C 20.7,501.3 22.0,499.7 23.5,497.8 C 23.5,497.8 25.0,496.0 26.3,494.2 C 26.3,494.2 27.7,492.3 29.0,490.5 C 29.0,490.5 30.3,488.7 33.2,485.3 L 36,482" stroke="#FBBF24" stroke-width="2" fill="none" vector-effect="non-scaling-stroke"/>
    <g id="moving-circle-group">
        <circle cx="36" cy="482" r="20" fill="#000000" vector-effect="non-scaling-stroke"/>
        <circle cx="36" cy="482" r="7" fill="#FFFFFF" vector-effect="non-scaling-stroke"/>
    </g></svg>