<svg id="minimap-svg" width="100%" height="100%" viewBox="0 0 700 443" xmlns="http://www.w3.org/2000/svg"><path d="M 676,237 C 675.5,234.2 675.0,231.5 674.7,228.4 C 674.7,228.4 674.3,225.3 673.5,219.2 C 673.5,219.2 672.7,213.0 671.8,206.5 C 671.8,206.5 671.0,200.0 670.0,193.3 C 670.0,193.3 669.0,186.7 668.0,179.7 C 668.0,179.7 667.0,172.7 666.0,165.5 C 666.0,165.5 665.0,158.3 663.8,151.0 C 663.8,151.0 662.7,143.7 661.5,136.2 C 661.5,136.2 660.3,128.7 659.2,121.2 C 659.2,121.2 658.0,113.7 657.2,106.7 C 657.2,106.7 656.3,99.7 655.7,93.8 C 655.7,93.8 655.0,88.0 654.5,83.0 C 654.5,83.0 654.0,78.0 653.5,74.0 C 653.5,74.0 653.0,70.0 652.5,66.8 C 652.5,66.8 652.0,63.7 651.7,61.5 C 651.7,61.5 651.3,59.3 651.0,57.5 C 651.0,57.5 650.7,55.7 650.3,54.0 C 650.3,54.0 650.0,52.3 649.5,50.7 C 649.5,50.7 649.0,49.0 648.5,47.3 C 648.5,47.3 648.0,45.7 647.3,44.2 C 647.3,44.2 646.7,42.7 645.8,41.5 C 645.8,41.5 645.0,40.3 644.0,39.7 C 644.0,39.7 643.0,39.0 641.8,38.7 C 641.8,38.7 640.7,38.3 639.5,38.2 C 639.5,38.2 638.3,38.0 636.8,38.0 C 636.8,38.0 635.3,38.0 633.7,37.8 C 633.7,37.8 632.0,37.7 630.0,37.5 C 630.0,37.5 628.0,37.3 625.8,37.0 C 625.8,37.0 623.7,36.7 621.3,36.0 C 621.3,36.0 619.0,35.3 616.7,34.2 C 616.7,34.2 614.3,33.0 612.0,31.3 C 612.0,31.3 609.7,29.7 607.8,27.8 C 607.8,27.8 606.0,26.0 604.5,24.3 C 604.5,24.3 603.0,22.7 602.0,21.2 C 602.0,21.2 601.0,19.7 600.0,18.5 C 600.0,18.5 599.0,17.3 597.7,16.5 C 597.7,16.5 596.3,15.7 594.8,15.2 C 594.8,15.2 593.3,14.7 591.7,14.7 C 591.7,14.7 590.0,14.7 588.3,15.0 C 588.3,15.0 586.7,15.3 585.2,16.3 C 585.2,16.3 583.7,17.3 582.3,18.8 C 582.3,18.8 581.0,20.3 580.2,22.2 C 580.2,22.2 579.3,24.0 578.8,26.2 C 578.8,26.2 578.3,28.3 578.0,30.8 C 578.0,30.8 577.7,33.3 577.5,36.2 C 577.5,36.2 577.3,39.0 577.0,42.0 C 577.0,42.0 576.7,45.0 576.7,48.2 C 576.7,48.2 576.7,51.3 576.7,54.7 C 576.7,54.7 576.7,58.0 577.2,61.7 C 577.2,61.7 577.7,65.3 578.3,69.0 C 578.3,69.0 579.0,72.7 580.2,76.5 C 580.2,76.5 581.3,80.3 582.8,84.2 C 582.8,84.2 584.3,88.0 586.0,92.2 C 586.0,92.2 587.7,96.3 589.3,100.5 C 589.3,100.5 591.0,104.7 592.5,108.8 C 592.5,108.8 594.0,113.0 595.5,117.0 C 595.5,117.0 597.0,121.0 598.3,125.2 C 598.3,125.2 599.7,129.3 600.8,133.5 C 600.8,133.5 602.0,137.7 602.8,142.0 C 602.8,142.0 603.7,146.3 604.2,150.3 C 604.2,150.3 604.7,154.3 605.0,157.8 C 605.0,157.8 605.3,161.3 605.5,163.8 C 605.5,163.8 605.7,166.3 605.8,168.3 C 605.8,168.3 606.0,170.3 606.0,172.0 C 606.0,172.0 606.0,173.7 605.8,175.3 C 605.8,175.3 605.7,177.0 605.5,178.5 C 605.5,178.5 605.3,180.0 605.0,181.3 C 605.0,181.3 604.7,182.7 604.2,183.8 C 604.2,183.8 603.7,185.0 602.8,186.0 C 602.8,186.0 602.0,187.0 600.8,187.8 C 600.8,187.8 599.7,188.7 598.2,189.5 C 598.2,189.5 596.7,190.3 594.8,191.2 C 594.8,191.2 593.0,192.0 590.8,192.8 C 590.8,192.8 588.7,193.7 586.2,194.2 C 586.2,194.2 583.7,194.7 580.7,194.8 C 580.7,194.8 577.7,195.0 574.3,195.0 C 574.3,195.0 571.0,195.0 567.2,194.8 C 567.2,194.8 563.3,194.7 559.0,194.3 C 559.0,194.3 554.7,194.0 549.7,193.5 C 549.7,193.5 544.7,193.0 539.2,192.5 C 539.2,192.5 533.7,192.0 527.8,191.7 C 527.8,191.7 522.0,191.3 515.8,191.0 C 515.8,191.0 509.7,190.7 503.2,190.3 C 503.2,190.3 496.7,190.0 489.8,189.5 C 489.8,189.5 483.0,189.0 475.8,188.5 C 475.8,188.5 468.7,188.0 461.3,187.7 C 461.3,187.7 454.0,187.3 446.5,186.8 C 446.5,186.8 439.0,186.3 431.8,185.8 C 431.8,185.8 424.7,185.3 418.5,184.8 C 418.5,184.8 412.3,184.3 407.5,183.8 C 407.5,183.8 402.7,183.3 399.0,182.8 C 399.0,182.8 395.3,182.3 392.3,181.5 C 392.3,181.5 389.3,180.7 386.5,180.0 C 386.5,180.0 383.7,179.3 380.8,178.3 C 380.8,178.3 378.0,177.3 374.8,176.2 C 374.8,176.2 371.7,175.0 368.3,173.3 C 368.3,173.3 365.0,171.7 361.3,169.7 C 361.3,169.7 357.7,167.7 353.8,165.3 C 353.8,165.3 350.0,163.0 345.8,160.3 C 345.8,160.3 341.7,157.7 337.0,154.8 C 337.0,154.8 332.3,152.0 327.3,148.8 C 327.3,148.8 322.3,145.7 316.7,142.3 L 311,139" stroke="#374151" stroke-width="8" fill="none" vector-effect="non-scaling-stroke"/><path d="M 676,237 C 675.5,234.2 675.0,231.5 674.7,228.4 C 674.7,228.4 674.3,225.3 673.5,219.2 C 673.5,219.2 672.7,213.0 671.8,206.5 C 671.8,206.5 671.0,200.0 670.0,193.3 C 670.0,193.3 669.0,186.7 668.0,179.7 C 668.0,179.7 667.0,172.7 666.0,165.5 C 666.0,165.5 665.0,158.3 663.8,151.0 C 663.8,151.0 662.7,143.7 661.5,136.2 C 661.5,136.2 660.3,128.7 659.2,121.2 C 659.2,121.2 658.0,113.7 657.2,106.7 C 657.2,106.7 656.3,99.7 655.7,93.8 C 655.7,93.8 655.0,88.0 654.5,83.0 C 654.5,83.0 654.0,78.0 653.5,74.0 C 653.5,74.0 653.0,70.0 652.5,66.8 C 652.5,66.8 652.0,63.7 651.7,61.5 C 651.7,61.5 651.3,59.3 651.0,57.5 C 651.0,57.5 650.7,55.7 650.3,54.0 C 650.3,54.0 650.0,52.3 649.5,50.7 C 649.5,50.7 649.0,49.0 648.5,47.3 C 648.5,47.3 648.0,45.7 647.3,44.2 C 647.3,44.2 646.7,42.7 645.8,41.5 C 645.8,41.5 645.0,40.3 644.0,39.7 C 644.0,39.7 643.0,39.0 641.8,38.7 C 641.8,38.7 640.7,38.3 639.5,38.2 C 639.5,38.2 638.3,38.0 636.8,38.0 C 636.8,38.0 635.3,38.0 633.7,37.8 C 633.7,37.8 632.0,37.7 630.0,37.5 C 630.0,37.5 628.0,37.3 625.8,37.0 C 625.8,37.0 623.7,36.7 621.3,36.0 C 621.3,36.0 619.0,35.3 616.7,34.2 C 616.7,34.2 614.3,33.0 612.0,31.3 C 612.0,31.3 609.7,29.7 607.8,27.8 C 607.8,27.8 606.0,26.0 604.5,24.3 C 604.5,24.3 603.0,22.7 602.0,21.2 C 602.0,21.2 601.0,19.7 600.0,18.5 C 600.0,18.5 599.0,17.3 597.7,16.5 C 597.7,16.5 596.3,15.7 594.8,15.2 C 594.8,15.2 593.3,14.7 591.7,14.7 C 591.7,14.7 590.0,14.7 588.3,15.0 C 588.3,15.0 586.7,15.3 585.2,16.3 C 585.2,16.3 583.7,17.3 582.3,18.8 C 582.3,18.8 581.0,20.3 580.2,22.2 C 580.2,22.2 579.3,24.0 578.8,26.2 C 578.8,26.2 578.3,28.3 578.0,30.8 C 578.0,30.8 577.7,33.3 577.5,36.2 C 577.5,36.2 577.3,39.0 577.0,42.0 C 577.0,42.0 576.7,45.0 576.7,48.2 C 576.7,48.2 576.7,51.3 576.7,54.7 C 576.7,54.7 576.7,58.0 577.2,61.7 C 577.2,61.7 577.7,65.3 578.3,69.0 C 578.3,69.0 579.0,72.7 580.2,76.5 C 580.2,76.5 581.3,80.3 582.8,84.2 C 582.8,84.2 584.3,88.0 586.0,92.2 C 586.0,92.2 587.7,96.3 589.3,100.5 C 589.3,100.5 591.0,104.7 592.5,108.8 C 592.5,108.8 594.0,113.0 595.5,117.0 C 595.5,117.0 597.0,121.0 598.3,125.2 C 598.3,125.2 599.7,129.3 600.8,133.5 C 600.8,133.5 602.0,137.7 602.8,142.0 C 602.8,142.0 603.7,146.3 604.2,150.3 C 604.2,150.3 604.7,154.3 605.0,157.8 C 605.0,157.8 605.3,161.3 605.5,163.8 C 605.5,163.8 605.7,166.3 605.8,168.3 C 605.8,168.3 606.0,170.3 606.0,172.0 C 606.0,172.0 606.0,173.7 605.8,175.3 C 605.8,175.3 605.7,177.0 605.5,178.5 C 605.5,178.5 605.3,180.0 605.0,181.3 C 605.0,181.3 604.7,182.7 604.2,183.8 C 604.2,183.8 603.7,185.0 602.8,186.0 C 602.8,186.0 602.0,187.0 600.8,187.8 C 600.8,187.8 599.7,188.7 598.2,189.5 C 598.2,189.5 596.7,190.3 594.8,191.2 C 594.8,191.2 593.0,192.0 590.8,192.8 C 590.8,192.8 588.7,193.7 586.2,194.2 C 586.2,194.2 583.7,194.7 580.7,194.8 C 580.7,194.8 577.7,195.0 574.3,195.0 C 574.3,195.0 571.0,195.0 567.2,194.8 C 567.2,194.8 563.3,194.7 559.0,194.3 C 559.0,194.3 554.7,194.0 549.7,193.5 C 549.7,193.5 544.7,193.0 539.2,192.5 C 539.2,192.5 533.7,192.0 527.8,191.7 C 527.8,191.7 522.0,191.3 515.8,191.0 C 515.8,191.0 509.7,190.7 503.2,190.3 C 503.2,190.3 496.7,190.0 489.8,189.5 C 489.8,189.5 483.0,189.0 475.8,188.5 C 475.8,188.5 468.7,188.0 461.3,187.7 C 461.3,187.7 454.0,187.3 446.5,186.8 C 446.5,186.8 439.0,186.3 431.8,185.8 C 431.8,185.8 424.7,185.3 418.5,184.8 C 418.5,184.8 412.3,184.3 407.5,183.8 C 407.5,183.8 402.7,183.3 399.0,182.8 C 399.0,182.8 395.3,182.3 392.3,181.5 C 392.3,181.5 389.3,180.7 386.5,180.0 C 386.5,180.0 383.7,179.3 380.8,178.3 C 380.8,178.3 378.0,177.3 374.8,176.2 C 374.8,176.2 371.7,175.0 368.3,173.3 C 368.3,173.3 365.0,171.7 361.3,169.7 C 361.3,169.7 357.7,167.7 353.8,165.3 C 353.8,165.3 350.0,163.0 345.8,160.3 C 345.8,160.3 341.7,157.7 337.0,154.8 C 337.0,154.8 332.3,152.0 327.3,148.8 C 327.3,148.8 322.3,145.7 316.7,142.3 L 311,139" stroke="#EF4444" stroke-width="2" fill="none" vector-effect="non-scaling-stroke"/><path d="M 311,139 C 308.0,137.2 305.0,135.5 302.2,133.9 C 302.2,133.9 299.3,132.3 294.0,129.3 C 294.0,129.3 288.7,126.3 284.3,123.8 C 284.3,123.8 280.0,121.3 276.7,119.3 C 276.7,119.3 273.3,117.3 270.8,115.7 C 270.8,115.7 268.3,114.0 266.3,112.8 C 266.3,112.8 264.3,111.7 262.7,110.7 C 262.7,110.7 261.0,109.7 259.7,108.8 C 259.7,108.8 258.3,108.0 257.2,107.2 C 257.2,107.2 256.0,106.3 254.8,105.7 C 254.8,105.7 253.7,105.0 252.5,104.7 C 252.5,104.7 251.3,104.3 250.0,104.2 C 250.0,104.2 248.7,104.0 247.5,104.0 C 247.5,104.0 246.3,104.0 245.0,104.2 C 245.0,104.2 243.7,104.3 242.7,105.0 C 242.7,105.0 241.7,105.7 240.5,106.8 C 240.5,106.8 239.3,108.0 238.2,109.8 C 238.2,109.8 237.0,111.7 235.3,113.7 C 235.3,113.7 233.7,115.7 231.8,118.0 C 231.8,118.0 230.0,120.3 228.0,122.8 C 228.0,122.8 226.0,125.3 223.8,128.2 C 223.8,128.2 221.7,131.0 219.7,133.8 C 219.7,133.8 217.7,136.7 216.0,139.3 C 216.0,139.3 214.3,142.0 213.0,144.5 C 213.0,144.5 211.7,147.0 210.5,149.3 C 210.5,149.3 209.3,151.7 208.2,154.0 C 208.2,154.0 207.0,156.3 205.8,158.5 C 205.8,158.5 204.7,160.7 203.5,162.8 C 203.5,162.8 202.3,165.0 201.2,166.8 C 201.2,166.8 200.0,168.7 199.2,170.2 C 199.2,170.2 198.3,171.7 197.7,172.8 C 197.7,172.8 197.0,174.0 196.3,175.2 C 196.3,175.2 195.7,176.3 194.8,177.3 C 194.8,177.3 194.0,178.3 193.0,179.0 C 193.0,179.0 192.0,179.7 191.0,179.8 C 191.0,179.8 190.0,180.0 189.0,180.0 C 189.0,180.0 188.0,180.0 187.0,179.8 C 187.0,179.8 186.0,179.7 185.0,179.3 C 185.0,179.3 184.0,179.0 183.0,178.2 C 183.0,178.2 182.0,177.3 181.0,176.2 C 181.0,176.2 180.0,175.0 178.8,173.3 C 178.8,173.3 177.7,171.7 176.0,169.5 C 176.0,169.5 174.3,167.3 172.2,164.7 C 172.2,164.7 170.0,162.0 167.3,159.0 C 167.3,159.0 164.7,156.0 161.5,152.8 C 161.5,152.8 158.3,149.7 155.2,146.5 C 155.2,146.5 152.0,143.3 149.0,140.7 C 149.0,140.7 146.0,138.0 143.8,136.0 C 143.8,136.0 141.7,134.0 139.8,132.8 C 139.8,132.8 138.0,131.7 136.5,130.7 C 136.5,130.7 135.0,129.7 133.5,128.8 C 133.5,128.8 132.0,128.0 130.5,127.3 C 130.5,127.3 129.0,126.7 127.5,126.3 C 127.5,126.3 126.0,126.0 124.5,126.2 C 124.5,126.2 123.0,126.3 121.5,126.8 C 121.5,126.8 120.0,127.3 118.3,128.2 C 118.3,128.2 116.7,129.0 115.0,130.3 C 115.0,130.3 113.3,131.7 111.5,133.2 C 111.5,133.2 109.7,134.7 108.0,136.7 C 108.0,136.7 106.3,138.7 104.7,141.0 C 104.7,141.0 103.0,143.3 101.3,146.3 C 101.3,146.3 99.7,149.3 97.8,152.8 C 97.8,152.8 96.0,156.3 93.8,160.3 C 93.8,160.3 91.7,164.3 89.2,168.7 C 89.2,168.7 86.7,173.0 84.0,177.8 C 84.0,177.8 81.3,182.7 78.3,187.8 C 78.3,187.8 75.3,193.0 72.3,198.7 C 72.3,198.7 69.3,204.3 66.0,210.3 C 66.0,210.3 62.7,216.3 59.3,222.5 C 59.3,222.5 56.0,228.7 52.3,235.0 C 52.3,235.0 48.7,241.3 45.0,247.5 C 45.0,247.5 41.3,253.7 37.7,259.3 C 37.7,259.3 34.0,265.0 31.0,269.7 C 31.0,269.7 28.0,274.3 25.7,277.8 C 25.7,277.8 23.3,281.3 22.0,284.0 C 22.0,284.0 20.7,286.7 20.2,288.8 C 20.2,288.8 19.7,291.0 19.8,292.8 C 19.8,292.8 20.0,294.7 20.7,296.5 C 20.7,296.5 21.3,298.3 22.0,300.2 C 22.0,300.2 22.7,302.0 23.7,303.8 C 23.7,303.8 24.7,305.7 25.7,307.3 C 25.7,307.3 26.7,309.0 28.0,310.5 C 28.0,310.5 29.3,312.0 30.7,313.3 C 30.7,313.3 32.0,314.7 33.3,316.0 C 33.3,316.0 34.7,317.3 36.2,318.5 C 36.2,318.5 37.7,319.7 39.2,320.7 C 39.2,320.7 40.7,321.7 42.3,322.3 C 42.3,322.3 44.0,323.0 45.5,323.5 C 45.5,323.5 47.0,324.0 48.5,324.5 C 48.5,324.5 50.0,325.0 51.5,325.3 C 51.5,325.3 53.0,325.7 54.5,326.0 C 54.5,326.0 56.0,326.3 57.5,326.5 C 57.5,326.5 59.0,326.7 60.2,327.2 C 60.2,327.2 61.3,327.7 62.2,328.3 C 62.2,328.3 63.0,329.0 63.5,330.0 C 63.5,330.0 64.0,331.0 64.3,332.2 C 64.3,332.2 64.7,333.3 64.8,334.8 C 64.8,334.8 65.0,336.3 65.0,338.2 C 65.0,338.2 65.0,340.0 65.0,342.2 C 65.0,342.2 65.0,344.3 65.0,346.7 C 65.0,346.7 65.0,349.0 65.2,351.3 C 65.2,351.3 65.3,353.7 65.8,355.8 C 65.8,355.8 66.3,358.0 67.0,360.0 C 67.0,360.0 67.7,362.0 68.7,364.0 C 68.7,364.0 69.7,366.0 70.8,367.8 C 70.8,367.8 72.0,369.7 73.7,371.3 C 73.7,371.3 75.3,373.0 77.2,374.7 C 77.2,374.7 79.0,376.3 81.3,378.2 C 81.3,378.2 83.7,380.0 86.3,382.2 C 86.3,382.2 89.0,384.3 92.0,386.7 C 92.0,386.7 95.0,389.0 98.0,391.5 C 98.0,391.5 101.0,394.0 103.7,396.2 C 103.7,396.2 106.3,398.3 108.3,400.2 C 108.3,400.2 110.3,402.0 111.7,403.5 C 111.7,403.5 113.0,405.0 114.0,406.5 C 114.0,406.5 115.0,408.0 115.8,409.5 C 115.8,409.5 116.7,411.0 117.5,412.5 C 117.5,412.5 118.3,414.0 119.0,415.5 C 119.0,415.5 119.7,417.0 120.3,418.3 C 120.3,418.3 121.0,419.7 121.5,420.7 C 121.5,420.7 122.0,421.7 122.5,422.5 C 122.5,422.5 123.0,423.3 123.5,424.0 C 123.5,424.0 124.0,424.7 124.5,425.5 C 124.5,425.5 125.0,426.3 125.7,426.8 C 125.7,426.8 126.3,427.3 127.0,427.8 C 127.0,427.8 127.7,428.3 128.5,428.5 C 128.5,428.5 129.3,428.7 130.0,428.8 C 130.0,428.8 130.7,429.0 131.5,428.8 C 131.5,428.8 132.3,428.7 133.0,428.5 C 133.0,428.5 133.7,428.3 134.3,428.0 C 134.3,428.0 135.0,427.7 135.5,427.2 C 135.5,427.2 136.0,426.7 136.5,425.8 C 136.5,425.8 137.0,425.0 137.5,424.0 C 137.5,424.0 138.0,423.0 138.3,421.8 C 138.3,421.8 138.7,420.7 138.8,419.2 C 138.8,419.2 139.0,417.7 139.2,415.7 C 139.2,415.7 139.3,413.7 139.7,411.2 C 139.7,411.2 140.0,408.7 140.7,405.7 C 140.7,405.7 141.3,402.7 142.0,399.0 C 142.0,399.0 142.7,395.3 143.5,391.2 C 143.5,391.2 144.3,387.0 145.0,382.3 C 145.0,382.3 145.7,377.7 146.7,372.5 C 146.7,372.5 147.7,367.3 148.7,361.7 C 148.7,361.7 149.7,356.0 150.8,349.8 C 150.8,349.8 152.0,343.7 153.2,337.3 C 153.2,337.3 154.3,331.0 155.5,324.3 C 155.5,324.3 156.7,317.7 158.0,310.8 C 158.0,310.8 159.3,304.0 160.8,297.0 C 160.8,297.0 162.3,290.0 164.3,283.0 C 164.3,283.0 166.3,276.0 169.7,266.0 L 173,256" stroke="#374151" stroke-width="8" fill="none" vector-effect="non-scaling-stroke"/><path d="M 311,139 C 308.0,137.2 305.0,135.5 302.2,133.9 C 302.2,133.9 299.3,132.3 294.0,129.3 C 294.0,129.3 288.7,126.3 284.3,123.8 C 284.3,123.8 280.0,121.3 276.7,119.3 C 276.7,119.3 273.3,117.3 270.8,115.7 C 270.8,115.7 268.3,114.0 266.3,112.8 C 266.3,112.8 264.3,111.7 262.7,110.7 C 262.7,110.7 261.0,109.7 259.7,108.8 C 259.7,108.8 258.3,108.0 257.2,107.2 C 257.2,107.2 256.0,106.3 254.8,105.7 C 254.8,105.7 253.7,105.0 252.5,104.7 C 252.5,104.7 251.3,104.3 250.0,104.2 C 250.0,104.2 248.7,104.0 247.5,104.0 C 247.5,104.0 246.3,104.0 245.0,104.2 C 245.0,104.2 243.7,104.3 242.7,105.0 C 242.7,105.0 241.7,105.7 240.5,106.8 C 240.5,106.8 239.3,108.0 238.2,109.8 C 238.2,109.8 237.0,111.7 235.3,113.7 C 235.3,113.7 233.7,115.7 231.8,118.0 C 231.8,118.0 230.0,120.3 228.0,122.8 C 228.0,122.8 226.0,125.3 223.8,128.2 C 223.8,128.2 221.7,131.0 219.7,133.8 C 219.7,133.8 217.7,136.7 216.0,139.3 C 216.0,139.3 214.3,142.0 213.0,144.5 C 213.0,144.5 211.7,147.0 210.5,149.3 C 210.5,149.3 209.3,151.7 208.2,154.0 C 208.2,154.0 207.0,156.3 205.8,158.5 C 205.8,158.5 204.7,160.7 203.5,162.8 C 203.5,162.8 202.3,165.0 201.2,166.8 C 201.2,166.8 200.0,168.7 199.2,170.2 C 199.2,170.2 198.3,171.7 197.7,172.8 C 197.7,172.8 197.0,174.0 196.3,175.2 C 196.3,175.2 195.7,176.3 194.8,177.3 C 194.8,177.3 194.0,178.3 193.0,179.0 C 193.0,179.0 192.0,179.7 191.0,179.8 C 191.0,179.8 190.0,180.0 189.0,180.0 C 189.0,180.0 188.0,180.0 187.0,179.8 C 187.0,179.8 186.0,179.7 185.0,179.3 C 185.0,179.3 184.0,179.0 183.0,178.2 C 183.0,178.2 182.0,177.3 181.0,176.2 C 181.0,176.2 180.0,175.0 178.8,173.3 C 178.8,173.3 177.7,171.7 176.0,169.5 C 176.0,169.5 174.3,167.3 172.2,164.7 C 172.2,164.7 170.0,162.0 167.3,159.0 C 167.3,159.0 164.7,156.0 161.5,152.8 C 161.5,152.8 158.3,149.7 155.2,146.5 C 155.2,146.5 152.0,143.3 149.0,140.7 C 149.0,140.7 146.0,138.0 143.8,136.0 C 143.8,136.0 141.7,134.0 139.8,132.8 C 139.8,132.8 138.0,131.7 136.5,130.7 C 136.5,130.7 135.0,129.7 133.5,128.8 C 133.5,128.8 132.0,128.0 130.5,127.3 C 130.5,127.3 129.0,126.7 127.5,126.3 C 127.5,126.3 126.0,126.0 124.5,126.2 C 124.5,126.2 123.0,126.3 121.5,126.8 C 121.5,126.8 120.0,127.3 118.3,128.2 C 118.3,128.2 116.7,129.0 115.0,130.3 C 115.0,130.3 113.3,131.7 111.5,133.2 C 111.5,133.2 109.7,134.7 108.0,136.7 C 108.0,136.7 106.3,138.7 104.7,141.0 C 104.7,141.0 103.0,143.3 101.3,146.3 C 101.3,146.3 99.7,149.3 97.8,152.8 C 97.8,152.8 96.0,156.3 93.8,160.3 C 93.8,160.3 91.7,164.3 89.2,168.7 C 89.2,168.7 86.7,173.0 84.0,177.8 C 84.0,177.8 81.3,182.7 78.3,187.8 C 78.3,187.8 75.3,193.0 72.3,198.7 C 72.3,198.7 69.3,204.3 66.0,210.3 C 66.0,210.3 62.7,216.3 59.3,222.5 C 59.3,222.5 56.0,228.7 52.3,235.0 C 52.3,235.0 48.7,241.3 45.0,247.5 C 45.0,247.5 41.3,253.7 37.7,259.3 C 37.7,259.3 34.0,265.0 31.0,269.7 C 31.0,269.7 28.0,274.3 25.7,277.8 C 25.7,277.8 23.3,281.3 22.0,284.0 C 22.0,284.0 20.7,286.7 20.2,288.8 C 20.2,288.8 19.7,291.0 19.8,292.8 C 19.8,292.8 20.0,294.7 20.7,296.5 C 20.7,296.5 21.3,298.3 22.0,300.2 C 22.0,300.2 22.7,302.0 23.7,303.8 C 23.7,303.8 24.7,305.7 25.7,307.3 C 25.7,307.3 26.7,309.0 28.0,310.5 C 28.0,310.5 29.3,312.0 30.7,313.3 C 30.7,313.3 32.0,314.7 33.3,316.0 C 33.3,316.0 34.7,317.3 36.2,318.5 C 36.2,318.5 37.7,319.7 39.2,320.7 C 39.2,320.7 40.7,321.7 42.3,322.3 C 42.3,322.3 44.0,323.0 45.5,323.5 C 45.5,323.5 47.0,324.0 48.5,324.5 C 48.5,324.5 50.0,325.0 51.5,325.3 C 51.5,325.3 53.0,325.7 54.5,326.0 C 54.5,326.0 56.0,326.3 57.5,326.5 C 57.5,326.5 59.0,326.7 60.2,327.2 C 60.2,327.2 61.3,327.7 62.2,328.3 C 62.2,328.3 63.0,329.0 63.5,330.0 C 63.5,330.0 64.0,331.0 64.3,332.2 C 64.3,332.2 64.7,333.3 64.8,334.8 C 64.8,334.8 65.0,336.3 65.0,338.2 C 65.0,338.2 65.0,340.0 65.0,342.2 C 65.0,342.2 65.0,344.3 65.0,346.7 C 65.0,346.7 65.0,349.0 65.2,351.3 C 65.2,351.3 65.3,353.7 65.8,355.8 C 65.8,355.8 66.3,358.0 67.0,360.0 C 67.0,360.0 67.7,362.0 68.7,364.0 C 68.7,364.0 69.7,366.0 70.8,367.8 C 70.8,367.8 72.0,369.7 73.7,371.3 C 73.7,371.3 75.3,373.0 77.2,374.7 C 77.2,374.7 79.0,376.3 81.3,378.2 C 81.3,378.2 83.7,380.0 86.3,382.2 C 86.3,382.2 89.0,384.3 92.0,386.7 C 92.0,386.7 95.0,389.0 98.0,391.5 C 98.0,391.5 101.0,394.0 103.7,396.2 C 103.7,396.2 106.3,398.3 108.3,400.2 C 108.3,400.2 110.3,402.0 111.7,403.5 C 111.7,403.5 113.0,405.0 114.0,406.5 C 114.0,406.5 115.0,408.0 115.8,409.5 C 115.8,409.5 116.7,411.0 117.5,412.5 C 117.5,412.5 118.3,414.0 119.0,415.5 C 119.0,415.5 119.7,417.0 120.3,418.3 C 120.3,418.3 121.0,419.7 121.5,420.7 C 121.5,420.7 122.0,421.7 122.5,422.5 C 122.5,422.5 123.0,423.3 123.5,424.0 C 123.5,424.0 124.0,424.7 124.5,425.5 C 124.5,425.5 125.0,426.3 125.7,426.8 C 125.7,426.8 126.3,427.3 127.0,427.8 C 127.0,427.8 127.7,428.3 128.5,428.5 C 128.5,428.5 129.3,428.7 130.0,428.8 C 130.0,428.8 130.7,429.0 131.5,428.8 C 131.5,428.8 132.3,428.7 133.0,428.5 C 133.0,428.5 133.7,428.3 134.3,428.0 C 134.3,428.0 135.0,427.7 135.5,427.2 C 135.5,427.2 136.0,426.7 136.5,425.8 C 136.5,425.8 137.0,425.0 137.5,424.0 C 137.5,424.0 138.0,423.0 138.3,421.8 C 138.3,421.8 138.7,420.7 138.8,419.2 C 138.8,419.2 139.0,417.7 139.2,415.7 C 139.2,415.7 139.3,413.7 139.7,411.2 C 139.7,411.2 140.0,408.7 140.7,405.7 C 140.7,405.7 141.3,402.7 142.0,399.0 C 142.0,399.0 142.7,395.3 143.5,391.2 C 143.5,391.2 144.3,387.0 145.0,382.3 C 145.0,382.3 145.7,377.7 146.7,372.5 C 146.7,372.5 147.7,367.3 148.7,361.7 C 148.7,361.7 149.7,356.0 150.8,349.8 C 150.8,349.8 152.0,343.7 153.2,337.3 C 153.2,337.3 154.3,331.0 155.5,324.3 C 155.5,324.3 156.7,317.7 158.0,310.8 C 158.0,310.8 159.3,304.0 160.8,297.0 C 160.8,297.0 162.3,290.0 164.3,283.0 C 164.3,283.0 166.3,276.0 169.7,266.0 L 173,256" stroke="#3B82F6" stroke-width="2" fill="none" vector-effect="non-scaling-stroke"/><path d="M 173,256 C 174.2,252.8 175.5,249.5 176.4,246.8 C 176.4,246.8 177.3,244.0 179.2,239.0 C 179.2,239.0 181.0,234.0 182.3,230.2 C 182.3,230.2 183.7,226.3 184.8,223.2 C 184.8,223.2 186.0,220.0 187.0,217.5 C 187.0,217.5 188.0,215.0 188.7,213.0 C 188.7,213.0 189.3,211.0 189.8,209.7 C 189.8,209.7 190.3,208.3 190.7,207.0 C 190.7,207.0 191.0,205.7 191.5,204.3 C 191.5,204.3 192.0,203.0 192.7,201.7 C 192.7,201.7 193.3,200.3 194.0,199.2 C 194.0,199.2 194.7,198.0 195.5,197.3 C 195.5,197.3 196.3,196.7 197.2,196.2 C 197.2,196.2 198.0,195.7 199.0,195.5 C 199.0,195.5 200.0,195.3 201.0,195.3 C 201.0,195.3 202.0,195.3 203.0,195.7 C 203.0,195.7 204.0,196.0 205.2,196.7 C 205.2,196.7 206.3,197.3 207.7,198.2 C 207.7,198.2 209.0,199.0 210.8,200.3 C 210.8,200.3 212.7,201.7 214.8,203.3 C 214.8,203.3 217.0,205.0 219.7,207.2 C 219.7,207.2 222.3,209.3 225.3,211.8 C 225.3,211.8 228.3,214.3 231.7,217.3 C 231.7,217.3 235.0,220.3 238.8,223.7 C 238.8,223.7 242.7,227.0 246.7,230.5 C 246.7,230.5 250.7,234.0 254.5,237.3 C 254.5,237.3 258.3,240.7 261.7,243.7 C 261.7,243.7 265.0,246.7 268.2,249.3 C 268.2,249.3 271.3,252.0 274.7,254.5 C 274.7,254.5 278.0,257.0 281.7,259.3 C 281.7,259.3 285.3,261.7 289.0,263.5 C 289.0,263.5 292.7,265.3 296.5,266.5 C 296.5,266.5 300.3,267.7 304.3,268.2 C 304.3,268.2 308.3,268.7 312.7,269.0 C 312.7,269.0 317.0,269.3 321.8,269.7 C 321.8,269.7 326.7,270.0 331.8,270.5 C 331.8,270.5 337.0,271.0 342.7,271.3 C 342.7,271.3 348.3,271.7 354.3,272.0 C 354.3,272.0 360.3,272.3 366.7,272.7 C 366.7,272.7 373.0,273.0 379.7,273.5 C 379.7,273.5 386.3,274.0 393.3,274.3 C 393.3,274.3 400.3,274.7 407.7,275.0 C 407.7,275.0 415.0,275.3 422.5,275.7 C 422.5,275.7 430.0,276.0 437.5,276.5 C 437.5,276.5 445.0,277.0 452.2,277.5 C 452.2,277.5 459.3,278.0 465.5,278.3 C 465.5,278.3 471.7,278.7 476.3,279.0 C 476.3,279.0 481.0,279.3 484.5,279.5 C 484.5,279.5 488.0,279.7 490.7,279.8 C 490.7,279.8 493.3,280.0 495.5,280.0 C 495.5,280.0 497.7,280.0 499.3,280.0 C 499.3,280.0 501.0,280.0 502.7,280.2 C 502.7,280.2 504.3,280.3 506.0,280.7 C 506.0,280.7 507.7,281.0 509.2,281.7 C 509.2,281.7 510.7,282.3 511.7,283.2 C 511.7,283.2 512.7,284.0 513.3,285.3 C 513.3,285.3 514.0,286.7 514.5,288.3 C 514.5,288.3 515.0,290.0 515.3,292.2 C 515.3,292.2 515.7,294.3 515.8,296.5 C 515.8,296.5 516.0,298.7 516.3,300.8 C 516.3,300.8 516.7,303.0 517.5,305.0 C 517.5,305.0 518.3,307.0 520.0,308.8 C 520.0,308.8 521.7,310.7 523.8,312.3 C 523.8,312.3 526.0,314.0 528.7,315.2 C 528.7,315.2 531.3,316.3 534.2,317.2 C 534.2,317.2 537.0,318.0 540.3,318.5 C 540.3,318.5 543.7,319.0 547.5,319.3 C 547.5,319.3 551.3,319.7 556.0,320.0 C 556.0,320.0 560.7,320.3 565.8,320.7 C 565.8,320.7 571.0,321.0 576.5,321.3 C 576.5,321.3 582.0,321.7 587.8,322.0 C 587.8,322.0 593.7,322.3 599.8,322.7 C 599.8,322.7 606.0,323.0 611.8,323.3 C 611.8,323.3 617.7,323.7 622.5,323.8 C 622.5,323.8 627.3,324.0 630.8,324.0 C 630.8,324.0 634.3,324.0 637.2,324.0 C 637.2,324.0 640.0,324.0 642.2,324.0 C 642.2,324.0 644.3,324.0 646.2,324.0 C 646.2,324.0 648.0,324.0 649.5,323.8 C 649.5,323.8 651.0,323.7 652.3,323.3 C 652.3,323.3 653.7,323.0 654.8,322.5 C 654.8,322.5 656.0,322.0 657.2,321.2 C 657.2,321.2 658.3,320.3 659.7,319.0 C 659.7,319.0 661.0,317.7 662.5,315.8 C 662.5,315.8 664.0,314.0 665.7,311.7 C 665.7,311.7 667.3,309.3 669.2,306.7 C 669.2,306.7 671.0,304.0 672.8,301.2 C 672.8,301.2 674.7,298.3 676.2,295.5 C 676.2,295.5 677.7,292.7 678.7,289.8 C 678.7,289.8 679.7,287.0 680.2,284.2 C 680.2,284.2 680.7,281.3 680.7,278.5 C 680.7,278.5 680.7,275.7 680.3,272.8 C 680.3,272.8 680.0,270.0 679.5,266.7 C 679.5,266.7 679.0,263.3 678.5,259.7 C 678.5,259.7 678.0,256.0 677.0,246.5 L 676,237" stroke="#374151" stroke-width="8" fill="none" vector-effect="non-scaling-stroke"/><path d="M 173,256 C 174.2,252.8 175.5,249.5 176.4,246.8 C 176.4,246.8 177.3,244.0 179.2,239.0 C 179.2,239.0 181.0,234.0 182.3,230.2 C 182.3,230.2 183.7,226.3 184.8,223.2 C 184.8,223.2 186.0,220.0 187.0,217.5 C 187.0,217.5 188.0,215.0 188.7,213.0 C 188.7,213.0 189.3,211.0 189.8,209.7 C 189.8,209.7 190.3,208.3 190.7,207.0 C 190.7,207.0 191.0,205.7 191.5,204.3 C 191.5,204.3 192.0,203.0 192.7,201.7 C 192.7,201.7 193.3,200.3 194.0,199.2 C 194.0,199.2 194.7,198.0 195.5,197.3 C 195.5,197.3 196.3,196.7 197.2,196.2 C 197.2,196.2 198.0,195.7 199.0,195.5 C 199.0,195.5 200.0,195.3 201.0,195.3 C 201.0,195.3 202.0,195.3 203.0,195.7 C 203.0,195.7 204.0,196.0 205.2,196.7 C 205.2,196.7 206.3,197.3 207.7,198.2 C 207.7,198.2 209.0,199.0 210.8,200.3 C 210.8,200.3 212.7,201.7 214.8,203.3 C 214.8,203.3 217.0,205.0 219.7,207.2 C 219.7,207.2 222.3,209.3 225.3,211.8 C 225.3,211.8 228.3,214.3 231.7,217.3 C 231.7,217.3 235.0,220.3 238.8,223.7 C 238.8,223.7 242.7,227.0 246.7,230.5 C 246.7,230.5 250.7,234.0 254.5,237.3 C 254.5,237.3 258.3,240.7 261.7,243.7 C 261.7,243.7 265.0,246.7 268.2,249.3 C 268.2,249.3 271.3,252.0 274.7,254.5 C 274.7,254.5 278.0,257.0 281.7,259.3 C 281.7,259.3 285.3,261.7 289.0,263.5 C 289.0,263.5 292.7,265.3 296.5,266.5 C 296.5,266.5 300.3,267.7 304.3,268.2 C 304.3,268.2 308.3,268.7 312.7,269.0 C 312.7,269.0 317.0,269.3 321.8,269.7 C 321.8,269.7 326.7,270.0 331.8,270.5 C 331.8,270.5 337.0,271.0 342.7,271.3 C 342.7,271.3 348.3,271.7 354.3,272.0 C 354.3,272.0 360.3,272.3 366.7,272.7 C 366.7,272.7 373.0,273.0 379.7,273.5 C 379.7,273.5 386.3,274.0 393.3,274.3 C 393.3,274.3 400.3,274.7 407.7,275.0 C 407.7,275.0 415.0,275.3 422.5,275.7 C 422.5,275.7 430.0,276.0 437.5,276.5 C 437.5,276.5 445.0,277.0 452.2,277.5 C 452.2,277.5 459.3,278.0 465.5,278.3 C 465.5,278.3 471.7,278.7 476.3,279.0 C 476.3,279.0 481.0,279.3 484.5,279.5 C 484.5,279.5 488.0,279.7 490.7,279.8 C 490.7,279.8 493.3,280.0 495.5,280.0 C 495.5,280.0 497.7,280.0 499.3,280.0 C 499.3,280.0 501.0,280.0 502.7,280.2 C 502.7,280.2 504.3,280.3 506.0,280.7 C 506.0,280.7 507.7,281.0 509.2,281.7 C 509.2,281.7 510.7,282.3 511.7,283.2 C 511.7,283.2 512.7,284.0 513.3,285.3 C 513.3,285.3 514.0,286.7 514.5,288.3 C 514.5,288.3 515.0,290.0 515.3,292.2 C 515.3,292.2 515.7,294.3 515.8,296.5 C 515.8,296.5 516.0,298.7 516.3,300.8 C 516.3,300.8 516.7,303.0 517.5,305.0 C 517.5,305.0 518.3,307.0 520.0,308.8 C 520.0,308.8 521.7,310.7 523.8,312.3 C 523.8,312.3 526.0,314.0 528.7,315.2 C 528.7,315.2 531.3,316.3 534.2,317.2 C 534.2,317.2 537.0,318.0 540.3,318.5 C 540.3,318.5 543.7,319.0 547.5,319.3 C 547.5,319.3 551.3,319.7 556.0,320.0 C 556.0,320.0 560.7,320.3 565.8,320.7 C 565.8,320.7 571.0,321.0 576.5,321.3 C 576.5,321.3 582.0,321.7 587.8,322.0 C 587.8,322.0 593.7,322.3 599.8,322.7 C 599.8,322.7 606.0,323.0 611.8,323.3 C 611.8,323.3 617.7,323.7 622.5,323.8 C 622.5,323.8 627.3,324.0 630.8,324.0 C 630.8,324.0 634.3,324.0 637.2,324.0 C 637.2,324.0 640.0,324.0 642.2,324.0 C 642.2,324.0 644.3,324.0 646.2,324.0 C 646.2,324.0 648.0,324.0 649.5,323.8 C 649.5,323.8 651.0,323.7 652.3,323.3 C 652.3,323.3 653.7,323.0 654.8,322.5 C 654.8,322.5 656.0,322.0 657.2,321.2 C 657.2,321.2 658.3,320.3 659.7,319.0 C 659.7,319.0 661.0,317.7 662.5,315.8 C 662.5,315.8 664.0,314.0 665.7,311.7 C 665.7,311.7 667.3,309.3 669.2,306.7 C 669.2,306.7 671.0,304.0 672.8,301.2 C 672.8,301.2 674.7,298.3 676.2,295.5 C 676.2,295.5 677.7,292.7 678.7,289.8 C 678.7,289.8 679.7,287.0 680.2,284.2 C 680.2,284.2 680.7,281.3 680.7,278.5 C 680.7,278.5 680.7,275.7 680.3,272.8 C 680.3,272.8 680.0,270.0 679.5,266.7 C 679.5,266.7 679.0,263.3 678.5,259.7 C 678.5,259.7 678.0,256.0 677.0,246.5 L 676,237" stroke="#FBBF24" stroke-width="2" fill="none" vector-effect="non-scaling-stroke"/>
    <g id="moving-circle-group">
        <circle cx="676" cy="237" r="20" fill="#000000" vector-effect="non-scaling-stroke"/>
        <circle cx="676" cy="237" r="7" fill="#FFFFFF" vector-effect="non-scaling-stroke"/>
    </g></svg>