<svg id="minimap-svg" width="100%" height="100%" viewBox="0 0 437 700" xmlns="http://www.w3.org/2000/svg"><path d="M 143,134 C 142.0,132.0 141.0,130.0 139.8,128.0 C 139.8,128.0 138.7,126.0 136.2,122.0 C 136.2,122.0 133.7,118.0 131.0,113.8 C 131.0,113.8 128.3,109.7 125.5,105.3 C 125.5,105.3 122.7,101.0 120.0,96.5 C 120.0,96.5 117.3,92.0 114.5,87.3 C 114.5,87.3 111.7,82.7 108.8,78.0 C 108.8,78.0 106.0,73.3 103.2,69.0 C 103.2,69.0 100.3,64.7 98.0,61.2 C 98.0,61.2 95.7,57.7 94.0,55.0 C 94.0,55.0 92.3,52.3 91.0,50.2 C 91.0,50.2 89.7,48.0 88.7,46.3 C 88.7,46.3 87.7,44.7 86.8,43.5 C 86.8,43.5 86.0,42.3 85.5,41.5 C 85.5,41.5 85.0,40.7 84.5,39.8 C 84.5,39.8 84.0,39.0 83.3,38.0 C 83.3,38.0 82.7,37.0 82.2,36.0 C 82.2,36.0 81.7,35.0 81.3,33.8 C 81.3,33.8 81.0,32.7 81.0,31.7 C 81.0,31.7 81.0,30.7 81.2,29.7 C 81.2,29.7 81.3,28.7 81.8,28.0 C 81.8,28.0 82.3,27.3 83.0,26.7 C 83.0,26.7 83.7,26.0 84.5,25.8 C 84.5,25.8 85.3,25.7 86.2,25.7 C 86.2,25.7 87.0,25.7 87.8,26.2 C 87.8,26.2 88.7,26.7 89.7,27.2 C 89.7,27.2 90.7,27.7 91.8,28.3 C 91.8,28.3 93.0,29.0 94.7,29.7 C 94.7,29.7 96.3,30.3 98.2,31.0 C 98.2,31.0 100.0,31.7 102.2,32.7 C 102.2,32.7 104.3,33.7 106.8,34.7 C 106.8,34.7 109.3,35.7 112.2,37.0 C 112.2,37.0 115.0,38.3 118.0,39.7 C 118.0,39.7 121.0,41.0 124.2,42.5 C 124.2,42.5 127.3,44.0 130.5,45.7 C 130.5,45.7 133.7,47.3 137.2,49.2 C 137.2,49.2 140.7,51.0 144.2,53.2 C 144.2,53.2 147.7,55.3 151.3,57.8 C 151.3,57.8 155.0,60.3 158.7,63.2 C 158.7,63.2 162.3,66.0 166.0,69.0 C 166.0,69.0 169.7,72.0 173.3,75.2 C 173.3,75.2 177.0,78.3 180.5,81.7 C 180.5,81.7 184.0,85.0 187.3,88.7 C 187.3,88.7 190.7,92.3 194.0,96.2 C 194.0,96.2 197.3,100.0 200.7,104.0 C 200.7,104.0 204.0,108.0 207.7,112.0 C 207.7,112.0 211.3,116.0 214.8,120.0 C 214.8,120.0 218.3,124.0 221.7,127.5 C 221.7,127.5 225.0,131.0 227.5,133.8 C 227.5,133.8 230.0,136.7 232.2,138.7 C 232.2,138.7 234.3,140.7 235.8,142.3 C 235.8,142.3 237.3,144.0 239.0,145.5 C 239.0,145.5 240.7,147.0 242.2,148.5 C 242.2,148.5 243.7,150.0 245.5,151.3 C 245.5,151.3 247.3,152.7 249.2,154.0 C 249.2,154.0 251.0,155.3 253.0,156.5 C 253.0,156.5 255.0,157.7 257.2,159.0 C 257.2,159.0 259.3,160.3 261.3,161.7 C 261.3,161.7 263.3,163.0 265.2,164.7 C 265.2,164.7 267.0,166.3 268.5,168.2 C 268.5,168.2 270.0,170.0 271.3,172.0 C 271.3,172.0 272.7,174.0 274.0,176.2 C 274.0,176.2 275.3,178.3 276.3,180.7 C 276.3,180.7 277.3,183.0 278.2,185.5 C 278.2,185.5 279.0,188.0 279.5,190.5 C 279.5,190.5 280.0,193.0 280.5,195.5 C 280.5,195.5 281.0,198.0 281.5,200.5 C 281.5,200.5 282.0,203.0 282.7,205.5 C 282.7,205.5 283.3,208.0 284.3,210.3 C 284.3,210.3 285.3,212.7 286.7,214.7 C 286.7,214.7 288.0,216.7 289.3,218.5 C 289.3,218.5 290.7,220.3 292.0,222.2 C 292.0,222.2 293.3,224.0 294.7,226.2 C 294.7,226.2 296.0,228.3 297.7,230.7 C 297.7,230.7 299.3,233.0 301.2,235.7 C 301.2,235.7 303.0,238.3 305.2,241.3 C 305.2,241.3 307.3,244.3 309.7,247.5 C 309.7,247.5 312.0,250.7 314.5,254.2 C 314.5,254.2 317.0,257.7 319.5,261.3 C 319.5,261.3 322.0,265.0 324.5,269.0 C 324.5,269.0 327.0,273.0 329.5,277.2 C 329.5,277.2 332.0,281.3 334.5,285.7 C 334.5,285.7 337.0,290.0 339.3,294.7 C 339.3,294.7 341.7,299.3 343.7,304.2 C 343.7,304.2 345.7,309.0 347.5,314.2 C 347.5,314.2 349.3,319.3 351.2,324.7 C 351.2,324.7 353.0,330.0 354.8,335.3 C 354.8,335.3 356.7,340.7 358.5,346.2 C 358.5,346.2 360.3,351.7 362.0,357.2 C 362.0,357.2 363.7,362.7 365.7,368.3 C 365.7,368.3 367.7,374.0 369.5,379.7 C 369.5,379.7 371.3,385.3 373.3,391.2 C 373.3,391.2 375.3,397.0 377.2,403.0 C 377.2,403.0 379.0,409.0 381.0,415.0 C 381.0,415.0 383.0,421.0 385.0,427.0 C 385.0,427.0 387.0,433.0 389.0,439.0 C 389.0,439.0 391.0,445.0 393.0,451.0 C 393.0,451.0 395.0,457.0 397.0,463.0 C 397.0,463.0 399.0,469.0 401.0,475.2 C 401.0,475.2 403.0,481.3 405.0,487.3 C 405.0,487.3 407.0,493.3 409.5,500.7 L 412,508" stroke="#374151" stroke-width="8" fill="none" vector-effect="non-scaling-stroke"/><path d="M 143,134 C 142.0,132.0 141.0,130.0 139.8,128.0 C 139.8,128.0 138.7,126.0 136.2,122.0 C 136.2,122.0 133.7,118.0 131.0,113.8 C 131.0,113.8 128.3,109.7 125.5,105.3 C 125.5,105.3 122.7,101.0 120.0,96.5 C 120.0,96.5 117.3,92.0 114.5,87.3 C 114.5,87.3 111.7,82.7 108.8,78.0 C 108.8,78.0 106.0,73.3 103.2,69.0 C 103.2,69.0 100.3,64.7 98.0,61.2 C 98.0,61.2 95.7,57.7 94.0,55.0 C 94.0,55.0 92.3,52.3 91.0,50.2 C 91.0,50.2 89.7,48.0 88.7,46.3 C 88.7,46.3 87.7,44.7 86.8,43.5 C 86.8,43.5 86.0,42.3 85.5,41.5 C 85.5,41.5 85.0,40.7 84.5,39.8 C 84.5,39.8 84.0,39.0 83.3,38.0 C 83.3,38.0 82.7,37.0 82.2,36.0 C 82.2,36.0 81.7,35.0 81.3,33.8 C 81.3,33.8 81.0,32.7 81.0,31.7 C 81.0,31.7 81.0,30.7 81.2,29.7 C 81.2,29.7 81.3,28.7 81.8,28.0 C 81.8,28.0 82.3,27.3 83.0,26.7 C 83.0,26.7 83.7,26.0 84.5,25.8 C 84.5,25.8 85.3,25.7 86.2,25.7 C 86.2,25.7 87.0,25.7 87.8,26.2 C 87.8,26.2 88.7,26.7 89.7,27.2 C 89.7,27.2 90.7,27.7 91.8,28.3 C 91.8,28.3 93.0,29.0 94.7,29.7 C 94.7,29.7 96.3,30.3 98.2,31.0 C 98.2,31.0 100.0,31.7 102.2,32.7 C 102.2,32.7 104.3,33.7 106.8,34.7 C 106.8,34.7 109.3,35.7 112.2,37.0 C 112.2,37.0 115.0,38.3 118.0,39.7 C 118.0,39.7 121.0,41.0 124.2,42.5 C 124.2,42.5 127.3,44.0 130.5,45.7 C 130.5,45.7 133.7,47.3 137.2,49.2 C 137.2,49.2 140.7,51.0 144.2,53.2 C 144.2,53.2 147.7,55.3 151.3,57.8 C 151.3,57.8 155.0,60.3 158.7,63.2 C 158.7,63.2 162.3,66.0 166.0,69.0 C 166.0,69.0 169.7,72.0 173.3,75.2 C 173.3,75.2 177.0,78.3 180.5,81.7 C 180.5,81.7 184.0,85.0 187.3,88.7 C 187.3,88.7 190.7,92.3 194.0,96.2 C 194.0,96.2 197.3,100.0 200.7,104.0 C 200.7,104.0 204.0,108.0 207.7,112.0 C 207.7,112.0 211.3,116.0 214.8,120.0 C 214.8,120.0 218.3,124.0 221.7,127.5 C 221.7,127.5 225.0,131.0 227.5,133.8 C 227.5,133.8 230.0,136.7 232.2,138.7 C 232.2,138.7 234.3,140.7 235.8,142.3 C 235.8,142.3 237.3,144.0 239.0,145.5 C 239.0,145.5 240.7,147.0 242.2,148.5 C 242.2,148.5 243.7,150.0 245.5,151.3 C 245.5,151.3 247.3,152.7 249.2,154.0 C 249.2,154.0 251.0,155.3 253.0,156.5 C 253.0,156.5 255.0,157.7 257.2,159.0 C 257.2,159.0 259.3,160.3 261.3,161.7 C 261.3,161.7 263.3,163.0 265.2,164.7 C 265.2,164.7 267.0,166.3 268.5,168.2 C 268.5,168.2 270.0,170.0 271.3,172.0 C 271.3,172.0 272.7,174.0 274.0,176.2 C 274.0,176.2 275.3,178.3 276.3,180.7 C 276.3,180.7 277.3,183.0 278.2,185.5 C 278.2,185.5 279.0,188.0 279.5,190.5 C 279.5,190.5 280.0,193.0 280.5,195.5 C 280.5,195.5 281.0,198.0 281.5,200.5 C 281.5,200.5 282.0,203.0 282.7,205.5 C 282.7,205.5 283.3,208.0 284.3,210.3 C 284.3,210.3 285.3,212.7 286.7,214.7 C 286.7,214.7 288.0,216.7 289.3,218.5 C 289.3,218.5 290.7,220.3 292.0,222.2 C 292.0,222.2 293.3,224.0 294.7,226.2 C 294.7,226.2 296.0,228.3 297.7,230.7 C 297.7,230.7 299.3,233.0 301.2,235.7 C 301.2,235.7 303.0,238.3 305.2,241.3 C 305.2,241.3 307.3,244.3 309.7,247.5 C 309.7,247.5 312.0,250.7 314.5,254.2 C 314.5,254.2 317.0,257.7 319.5,261.3 C 319.5,261.3 322.0,265.0 324.5,269.0 C 324.5,269.0 327.0,273.0 329.5,277.2 C 329.5,277.2 332.0,281.3 334.5,285.7 C 334.5,285.7 337.0,290.0 339.3,294.7 C 339.3,294.7 341.7,299.3 343.7,304.2 C 343.7,304.2 345.7,309.0 347.5,314.2 C 347.5,314.2 349.3,319.3 351.2,324.7 C 351.2,324.7 353.0,330.0 354.8,335.3 C 354.8,335.3 356.7,340.7 358.5,346.2 C 358.5,346.2 360.3,351.7 362.0,357.2 C 362.0,357.2 363.7,362.7 365.7,368.3 C 365.7,368.3 367.7,374.0 369.5,379.7 C 369.5,379.7 371.3,385.3 373.3,391.2 C 373.3,391.2 375.3,397.0 377.2,403.0 C 377.2,403.0 379.0,409.0 381.0,415.0 C 381.0,415.0 383.0,421.0 385.0,427.0 C 385.0,427.0 387.0,433.0 389.0,439.0 C 389.0,439.0 391.0,445.0 393.0,451.0 C 393.0,451.0 395.0,457.0 397.0,463.0 C 397.0,463.0 399.0,469.0 401.0,475.2 C 401.0,475.2 403.0,481.3 405.0,487.3 C 405.0,487.3 407.0,493.3 409.5,500.7 L 412,508" stroke="#EF4444" stroke-width="2" fill="none" vector-effect="non-scaling-stroke"/><path d="M 412,508 C 412.8,510.2 413.5,512.5 413.9,514.2 C 413.9,514.2 414.3,516.0 415.3,519.3 C 415.3,519.3 416.3,522.7 417.0,525.2 C 417.0,525.2 417.7,527.7 418.2,529.5 C 418.2,529.5 418.7,531.3 418.8,532.7 C 418.8,532.7 419.0,534.0 419.0,535.0 C 419.0,535.0 419.0,536.0 419.0,537.0 C 419.0,537.0 419.0,538.0 418.8,539.0 C 418.8,539.0 418.7,540.0 418.3,541.0 C 418.3,541.0 418.0,542.0 417.3,543.2 C 417.3,543.2 416.7,544.3 415.8,545.5 C 415.8,545.5 415.0,546.7 413.8,547.7 C 413.8,547.7 412.7,548.7 411.5,549.5 C 411.5,549.5 410.3,550.3 409.2,551.2 C 409.2,551.2 408.0,552.0 407.0,553.0 C 407.0,553.0 406.0,554.0 405.2,555.2 C 405.2,555.2 404.3,556.3 403.7,557.7 C 403.7,557.7 403.0,559.0 402.5,560.7 C 402.5,560.7 402.0,562.3 401.8,564.0 C 401.8,564.0 401.7,565.7 401.8,567.5 C 401.8,567.5 402.0,569.3 402.5,571.2 C 402.5,571.2 403.0,573.0 403.5,575.0 C 403.5,575.0 404.0,577.0 404.7,578.8 C 404.7,578.8 405.3,580.7 406.0,582.5 C 406.0,582.5 406.7,584.3 407.3,586.0 C 407.3,586.0 408.0,587.7 408.3,589.5 C 408.3,589.5 408.7,591.3 409.0,593.0 C 409.0,593.0 409.3,594.7 409.5,596.5 C 409.5,596.5 409.7,598.3 409.8,600.0 C 409.8,600.0 410.0,601.7 409.8,603.3 C 409.8,603.3 409.7,605.0 409.2,606.7 C 409.2,606.7 408.7,608.3 407.8,609.8 C 407.8,609.8 407.0,611.3 405.8,612.8 C 405.8,612.8 404.7,614.3 403.3,615.5 C 403.3,615.5 402.0,616.7 400.3,618.0 C 400.3,618.0 398.7,619.3 396.7,620.8 C 396.7,620.8 394.7,622.3 392.3,624.2 C 392.3,624.2 390.0,626.0 387.3,628.0 C 387.3,628.0 384.7,630.0 381.8,632.2 C 381.8,632.2 379.0,634.3 375.8,636.7 C 375.8,636.7 372.7,639.0 369.3,641.5 C 369.3,641.5 366.0,644.0 362.5,646.7 C 362.5,646.7 359.0,649.3 355.3,652.2 C 355.3,652.2 351.7,655.0 348.2,657.8 C 348.2,657.8 344.7,660.7 341.5,663.0 C 341.5,663.0 338.3,665.3 336.0,667.2 C 336.0,667.2 333.7,669.0 331.8,670.3 C 331.8,670.3 330.0,671.7 328.5,672.5 C 328.5,672.5 327.0,673.3 325.5,673.8 C 325.5,673.8 324.0,674.3 322.3,674.3 C 322.3,674.3 320.7,674.3 319.0,674.2 C 319.0,674.2 317.3,674.0 315.7,673.5 C 315.7,673.5 314.0,673.0 312.5,672.3 C 312.5,672.3 311.0,671.7 309.7,670.5 C 309.7,670.5 308.3,669.3 307.2,667.8 C 307.2,667.8 306.0,666.3 305.3,664.5 C 305.3,664.5 304.7,662.7 304.5,660.8 C 304.5,660.8 304.3,659.0 304.8,657.0 C 304.8,657.0 305.3,655.0 306.2,653.2 C 306.2,653.2 307.0,651.3 308.2,649.7 C 308.2,649.7 309.3,648.0 310.8,646.5 C 310.8,646.5 312.3,645.0 314.2,643.7 C 314.2,643.7 316.0,642.3 317.8,641.2 C 317.8,641.2 319.7,640.0 321.7,638.8 C 321.7,638.8 323.7,637.7 325.8,636.2 C 325.8,636.2 328.0,634.7 330.5,633.0 C 330.5,633.0 333.0,631.3 335.2,629.8 C 335.2,629.8 337.3,628.3 339.0,627.2 C 339.0,627.2 340.7,626.0 342.0,625.0 C 342.0,625.0 343.3,624.0 344.3,623.0 C 344.3,623.0 345.3,622.0 346.3,620.8 C 346.3,620.8 347.3,619.7 348.0,618.3 C 348.0,618.3 348.7,617.0 349.2,615.5 C 349.2,615.5 349.7,614.0 349.8,612.3 C 349.8,612.3 350.0,610.7 349.7,609.0 C 349.7,609.0 349.3,607.3 348.8,605.5 C 348.8,605.5 348.3,603.7 347.5,601.7 C 347.5,601.7 346.7,599.7 345.8,597.3 C 345.8,597.3 345.0,595.0 344.0,592.2 C 344.0,592.2 343.0,589.3 341.8,586.3 C 341.8,586.3 340.7,583.3 339.5,579.8 C 339.5,579.8 338.3,576.3 337.0,572.7 C 337.0,572.7 335.7,569.0 334.5,564.8 C 334.5,564.8 333.3,560.7 332.0,556.3 C 332.0,556.3 330.7,552.0 329.5,547.3 C 329.5,547.3 328.3,542.7 326.8,537.2 C 326.8,537.2 325.3,531.7 324.0,525.8 C 324.0,525.8 322.7,520.0 321.3,514.0 C 321.3,514.0 320.0,508.0 319.0,502.5 C 319.0,502.5 318.0,497.0 317.0,491.8 C 317.0,491.8 316.0,486.7 315.0,482.2 C 315.0,482.2 314.0,477.7 313.0,474.2 C 313.0,474.2 312.0,470.7 311.0,468.0 C 311.0,468.0 310.0,465.3 308.8,463.2 C 308.8,463.2 307.7,461.0 306.3,459.2 C 306.3,459.2 305.0,457.3 303.5,455.7 C 303.5,455.7 302.0,454.0 300.3,452.7 C 300.3,452.7 298.7,451.3 296.8,450.2 C 296.8,450.2 295.0,449.0 293.0,448.2 C 293.0,448.2 291.0,447.3 289.0,446.7 C 289.0,446.7 287.0,446.0 284.8,445.7 C 284.8,445.7 282.7,445.3 280.2,445.2 C 280.2,445.2 277.7,445.0 274.8,445.0 C 274.8,445.0 272.0,445.0 269.2,445.0 C 269.2,445.0 266.3,445.0 263.5,445.2 C 263.5,445.2 260.7,445.3 258.0,445.8 C 258.0,445.8 255.3,446.3 252.7,447.2 C 252.7,447.2 250.0,448.0 247.5,449.2 C 247.5,449.2 245.0,450.3 242.5,451.7 C 242.5,451.7 240.0,453.0 237.5,454.7 C 237.5,454.7 235.0,456.3 232.8,458.3 C 232.8,458.3 230.7,460.3 228.7,462.7 C 228.7,462.7 226.7,465.0 225.2,467.7 C 225.2,467.7 223.7,470.3 222.3,473.2 C 222.3,473.2 221.0,476.0 219.8,479.0 C 219.8,479.0 218.7,482.0 217.5,485.2 C 217.5,485.2 216.3,488.3 215.0,491.8 C 215.0,491.8 213.7,495.3 212.5,499.2 C 212.5,499.2 211.3,503.0 209.8,507.0 C 209.8,507.0 208.3,511.0 206.8,515.2 C 206.8,515.2 205.3,519.3 203.7,523.8 C 203.7,523.8 202.0,528.3 200.3,533.0 C 200.3,533.0 198.7,537.7 197.0,542.5 C 197.0,542.5 195.3,547.3 193.8,551.7 C 193.8,551.7 192.3,556.0 191.0,559.7 C 191.0,559.7 189.7,563.3 188.5,566.0 C 188.5,566.0 187.3,568.7 186.2,570.7 C 186.2,570.7 185.0,572.7 184.0,574.3 C 184.0,574.3 183.0,576.0 181.8,577.3 C 181.8,577.3 180.7,578.7 179.2,579.8 C 179.2,579.8 177.7,581.0 175.8,581.8 C 175.8,581.8 174.0,582.7 171.8,583.3 C 171.8,583.3 169.7,584.0 167.5,584.2 C 167.5,584.2 165.3,584.3 163.2,584.2 C 163.2,584.2 161.0,584.0 159.0,583.3 C 159.0,583.3 157.0,582.7 155.0,581.8 C 155.0,581.8 153.0,581.0 151.0,580.0 C 151.0,580.0 149.0,579.0 147.0,578.2 C 147.0,578.2 145.0,577.3 143.0,576.7 C 143.0,576.7 141.0,576.0 139.0,575.7 C 139.0,575.7 137.0,575.3 135.0,575.3 C 135.0,575.3 133.0,575.3 131.0,575.7 C 131.0,575.7 129.0,576.0 127.0,576.8 C 127.0,576.8 125.0,577.7 123.0,578.7 C 123.0,578.7 121.0,579.7 119.2,581.2 C 119.2,581.2 117.3,582.7 115.8,584.3 C 115.8,584.3 114.3,586.0 113.0,588.2 C 113.0,588.2 111.7,590.3 110.3,592.7 C 110.3,592.7 109.0,595.0 107.3,597.8 C 107.3,597.8 105.7,600.7 103.8,603.7 C 103.8,603.7 102.0,606.7 100.0,610.2 C 100.0,610.2 98.0,613.7 96.0,617.2 C 96.0,617.2 94.0,620.7 92.2,624.2 C 92.2,624.2 90.3,627.7 88.7,630.5 C 88.7,630.5 87.0,633.3 85.7,635.5 C 85.7,635.5 84.3,637.7 83.2,639.2 C 83.2,639.2 82.0,640.7 80.8,641.8 C 80.8,641.8 79.7,643.0 78.3,643.8 C 78.3,643.8 77.0,644.7 75.5,645.2 C 75.5,645.2 74.0,645.7 72.3,645.8 C 72.3,645.8 70.7,646.0 69.0,645.8 C 69.0,645.8 67.3,645.7 65.7,645.3 C 65.7,645.3 64.0,645.0 62.3,644.2 C 62.3,644.2 60.7,643.3 58.8,642.3 C 58.8,642.3 57.0,641.3 54.8,639.8 C 54.8,639.8 52.7,638.3 49.3,636.2 L 46,634" stroke="#374151" stroke-width="8" fill="none" vector-effect="non-scaling-stroke"/><path d="M 412,508 C 412.8,510.2 413.5,512.5 413.9,514.2 C 413.9,514.2 414.3,516.0 415.3,519.3 C 415.3,519.3 416.3,522.7 417.0,525.2 C 417.0,525.2 417.7,527.7 418.2,529.5 C 418.2,529.5 418.7,531.3 418.8,532.7 C 418.8,532.7 419.0,534.0 419.0,535.0 C 419.0,535.0 419.0,536.0 419.0,537.0 C 419.0,537.0 419.0,538.0 418.8,539.0 C 418.8,539.0 418.7,540.0 418.3,541.0 C 418.3,541.0 418.0,542.0 417.3,543.2 C 417.3,543.2 416.7,544.3 415.8,545.5 C 415.8,545.5 415.0,546.7 413.8,547.7 C 413.8,547.7 412.7,548.7 411.5,549.5 C 411.5,549.5 410.3,550.3 409.2,551.2 C 409.2,551.2 408.0,552.0 407.0,553.0 C 407.0,553.0 406.0,554.0 405.2,555.2 C 405.2,555.2 404.3,556.3 403.7,557.7 C 403.7,557.7 403.0,559.0 402.5,560.7 C 402.5,560.7 402.0,562.3 401.8,564.0 C 401.8,564.0 401.7,565.7 401.8,567.5 C 401.8,567.5 402.0,569.3 402.5,571.2 C 402.5,571.2 403.0,573.0 403.5,575.0 C 403.5,575.0 404.0,577.0 404.7,578.8 C 404.7,578.8 405.3,580.7 406.0,582.5 C 406.0,582.5 406.7,584.3 407.3,586.0 C 407.3,586.0 408.0,587.7 408.3,589.5 C 408.3,589.5 408.7,591.3 409.0,593.0 C 409.0,593.0 409.3,594.7 409.5,596.5 C 409.5,596.5 409.7,598.3 409.8,600.0 C 409.8,600.0 410.0,601.7 409.8,603.3 C 409.8,603.3 409.7,605.0 409.2,606.7 C 409.2,606.7 408.7,608.3 407.8,609.8 C 407.8,609.8 407.0,611.3 405.8,612.8 C 405.8,612.8 404.7,614.3 403.3,615.5 C 403.3,615.5 402.0,616.7 400.3,618.0 C 400.3,618.0 398.7,619.3 396.7,620.8 C 396.7,620.8 394.7,622.3 392.3,624.2 C 392.3,624.2 390.0,626.0 387.3,628.0 C 387.3,628.0 384.7,630.0 381.8,632.2 C 381.8,632.2 379.0,634.3 375.8,636.7 C 375.8,636.7 372.7,639.0 369.3,641.5 C 369.3,641.5 366.0,644.0 362.5,646.7 C 362.5,646.7 359.0,649.3 355.3,652.2 C 355.3,652.2 351.7,655.0 348.2,657.8 C 348.2,657.8 344.7,660.7 341.5,663.0 C 341.5,663.0 338.3,665.3 336.0,667.2 C 336.0,667.2 333.7,669.0 331.8,670.3 C 331.8,670.3 330.0,671.7 328.5,672.5 C 328.5,672.5 327.0,673.3 325.5,673.8 C 325.5,673.8 324.0,674.3 322.3,674.3 C 322.3,674.3 320.7,674.3 319.0,674.2 C 319.0,674.2 317.3,674.0 315.7,673.5 C 315.7,673.5 314.0,673.0 312.5,672.3 C 312.5,672.3 311.0,671.7 309.7,670.5 C 309.7,670.5 308.3,669.3 307.2,667.8 C 307.2,667.8 306.0,666.3 305.3,664.5 C 305.3,664.5 304.7,662.7 304.5,660.8 C 304.5,660.8 304.3,659.0 304.8,657.0 C 304.8,657.0 305.3,655.0 306.2,653.2 C 306.2,653.2 307.0,651.3 308.2,649.7 C 308.2,649.7 309.3,648.0 310.8,646.5 C 310.8,646.5 312.3,645.0 314.2,643.7 C 314.2,643.7 316.0,642.3 317.8,641.2 C 317.8,641.2 319.7,640.0 321.7,638.8 C 321.7,638.8 323.7,637.7 325.8,636.2 C 325.8,636.2 328.0,634.7 330.5,633.0 C 330.5,633.0 333.0,631.3 335.2,629.8 C 335.2,629.8 337.3,628.3 339.0,627.2 C 339.0,627.2 340.7,626.0 342.0,625.0 C 342.0,625.0 343.3,624.0 344.3,623.0 C 344.3,623.0 345.3,622.0 346.3,620.8 C 346.3,620.8 347.3,619.7 348.0,618.3 C 348.0,618.3 348.7,617.0 349.2,615.5 C 349.2,615.5 349.7,614.0 349.8,612.3 C 349.8,612.3 350.0,610.7 349.7,609.0 C 349.7,609.0 349.3,607.3 348.8,605.5 C 348.8,605.5 348.3,603.7 347.5,601.7 C 347.5,601.7 346.7,599.7 345.8,597.3 C 345.8,597.3 345.0,595.0 344.0,592.2 C 344.0,592.2 343.0,589.3 341.8,586.3 C 341.8,586.3 340.7,583.3 339.5,579.8 C 339.5,579.8 338.3,576.3 337.0,572.7 C 337.0,572.7 335.7,569.0 334.5,564.8 C 334.5,564.8 333.3,560.7 332.0,556.3 C 332.0,556.3 330.7,552.0 329.5,547.3 C 329.5,547.3 328.3,542.7 326.8,537.2 C 326.8,537.2 325.3,531.7 324.0,525.8 C 324.0,525.8 322.7,520.0 321.3,514.0 C 321.3,514.0 320.0,508.0 319.0,502.5 C 319.0,502.5 318.0,497.0 317.0,491.8 C 317.0,491.8 316.0,486.7 315.0,482.2 C 315.0,482.2 314.0,477.7 313.0,474.2 C 313.0,474.2 312.0,470.7 311.0,468.0 C 311.0,468.0 310.0,465.3 308.8,463.2 C 308.8,463.2 307.7,461.0 306.3,459.2 C 306.3,459.2 305.0,457.3 303.5,455.7 C 303.5,455.7 302.0,454.0 300.3,452.7 C 300.3,452.7 298.7,451.3 296.8,450.2 C 296.8,450.2 295.0,449.0 293.0,448.2 C 293.0,448.2 291.0,447.3 289.0,446.7 C 289.0,446.7 287.0,446.0 284.8,445.7 C 284.8,445.7 282.7,445.3 280.2,445.2 C 280.2,445.2 277.7,445.0 274.8,445.0 C 274.8,445.0 272.0,445.0 269.2,445.0 C 269.2,445.0 266.3,445.0 263.5,445.2 C 263.5,445.2 260.7,445.3 258.0,445.8 C 258.0,445.8 255.3,446.3 252.7,447.2 C 252.7,447.2 250.0,448.0 247.5,449.2 C 247.5,449.2 245.0,450.3 242.5,451.7 C 242.5,451.7 240.0,453.0 237.5,454.7 C 237.5,454.7 235.0,456.3 232.8,458.3 C 232.8,458.3 230.7,460.3 228.7,462.7 C 228.7,462.7 226.7,465.0 225.2,467.7 C 225.2,467.7 223.7,470.3 222.3,473.2 C 222.3,473.2 221.0,476.0 219.8,479.0 C 219.8,479.0 218.7,482.0 217.5,485.2 C 217.5,485.2 216.3,488.3 215.0,491.8 C 215.0,491.8 213.7,495.3 212.5,499.2 C 212.5,499.2 211.3,503.0 209.8,507.0 C 209.8,507.0 208.3,511.0 206.8,515.2 C 206.8,515.2 205.3,519.3 203.7,523.8 C 203.7,523.8 202.0,528.3 200.3,533.0 C 200.3,533.0 198.7,537.7 197.0,542.5 C 197.0,542.5 195.3,547.3 193.8,551.7 C 193.8,551.7 192.3,556.0 191.0,559.7 C 191.0,559.7 189.7,563.3 188.5,566.0 C 188.5,566.0 187.3,568.7 186.2,570.7 C 186.2,570.7 185.0,572.7 184.0,574.3 C 184.0,574.3 183.0,576.0 181.8,577.3 C 181.8,577.3 180.7,578.7 179.2,579.8 C 179.2,579.8 177.7,581.0 175.8,581.8 C 175.8,581.8 174.0,582.7 171.8,583.3 C 171.8,583.3 169.7,584.0 167.5,584.2 C 167.5,584.2 165.3,584.3 163.2,584.2 C 163.2,584.2 161.0,584.0 159.0,583.3 C 159.0,583.3 157.0,582.7 155.0,581.8 C 155.0,581.8 153.0,581.0 151.0,580.0 C 151.0,580.0 149.0,579.0 147.0,578.2 C 147.0,578.2 145.0,577.3 143.0,576.7 C 143.0,576.7 141.0,576.0 139.0,575.7 C 139.0,575.7 137.0,575.3 135.0,575.3 C 135.0,575.3 133.0,575.3 131.0,575.7 C 131.0,575.7 129.0,576.0 127.0,576.8 C 127.0,576.8 125.0,577.7 123.0,578.7 C 123.0,578.7 121.0,579.7 119.2,581.2 C 119.2,581.2 117.3,582.7 115.8,584.3 C 115.8,584.3 114.3,586.0 113.0,588.2 C 113.0,588.2 111.7,590.3 110.3,592.7 C 110.3,592.7 109.0,595.0 107.3,597.8 C 107.3,597.8 105.7,600.7 103.8,603.7 C 103.8,603.7 102.0,606.7 100.0,610.2 C 100.0,610.2 98.0,613.7 96.0,617.2 C 96.0,617.2 94.0,620.7 92.2,624.2 C 92.2,624.2 90.3,627.7 88.7,630.5 C 88.7,630.5 87.0,633.3 85.7,635.5 C 85.7,635.5 84.3,637.7 83.2,639.2 C 83.2,639.2 82.0,640.7 80.8,641.8 C 80.8,641.8 79.7,643.0 78.3,643.8 C 78.3,643.8 77.0,644.7 75.5,645.2 C 75.5,645.2 74.0,645.7 72.3,645.8 C 72.3,645.8 70.7,646.0 69.0,645.8 C 69.0,645.8 67.3,645.7 65.7,645.3 C 65.7,645.3 64.0,645.0 62.3,644.2 C 62.3,644.2 60.7,643.3 58.8,642.3 C 58.8,642.3 57.0,641.3 54.8,639.8 C 54.8,639.8 52.7,638.3 49.3,636.2 L 46,634" stroke="#3B82F6" stroke-width="2" fill="none" vector-effect="non-scaling-stroke"/><path d="M 46,634 C 44.5,633.0 43.0,632.0 41.5,631.0 C 41.5,631.0 40.0,630.0 37.3,628.2 C 37.3,628.2 34.7,626.3 32.5,624.7 C 32.5,624.7 30.3,623.0 28.7,621.3 C 28.7,621.3 27.0,619.7 25.5,618.0 C 25.5,618.0 24.0,616.3 22.8,614.3 C 22.8,614.3 21.7,612.3 20.7,610.3 C 20.7,610.3 19.7,608.3 19.2,605.8 C 19.2,605.8 18.7,603.3 18.3,600.8 C 18.3,600.8 18.0,598.3 18.2,595.5 C 18.2,595.5 18.3,592.7 18.8,589.8 C 18.8,589.8 19.3,587.0 20.2,583.8 C 20.2,583.8 21.0,580.7 22.0,577.5 C 22.0,577.5 23.0,574.3 24.2,571.2 C 24.2,571.2 25.3,568.0 26.7,565.0 C 26.7,565.0 28.0,562.0 29.7,559.0 C 29.7,559.0 31.3,556.0 33.2,552.8 C 33.2,552.8 35.0,549.7 37.0,546.5 C 37.0,546.5 39.0,543.3 42.0,539.2 C 42.0,539.2 45.0,535.0 48.3,531.2 C 48.3,531.2 51.7,527.3 55.2,523.5 C 55.2,523.5 58.7,519.7 61.5,516.8 C 61.5,516.8 64.3,514.0 67.2,511.2 C 67.2,511.2 70.0,508.3 73.0,505.5 C 73.0,505.5 76.0,502.7 79.2,500.0 C 79.2,500.0 82.3,497.3 85.7,494.8 C 85.7,494.8 89.0,492.3 92.7,490.2 C 92.7,490.2 96.3,488.0 100.2,485.8 C 100.2,485.8 104.0,483.7 108.2,481.3 C 108.2,481.3 112.3,479.0 116.3,476.7 C 116.3,476.7 120.3,474.3 124.3,472.2 C 124.3,472.2 128.3,470.0 132.2,467.7 C 132.2,467.7 136.0,465.3 139.8,462.8 C 139.8,462.8 143.7,460.3 147.3,457.5 C 147.3,457.5 151.0,454.7 154.3,451.8 C 154.3,451.8 157.7,449.0 160.8,445.8 C 160.8,445.8 164.0,442.7 166.7,439.3 C 166.7,439.3 169.3,436.0 171.7,432.3 C 171.7,432.3 174.0,428.7 176.0,424.8 C 176.0,424.8 178.0,421.0 179.8,416.8 C 179.8,416.8 181.7,412.7 183.3,408.5 C 183.3,408.5 185.0,404.3 186.5,400.0 C 186.5,400.0 188.0,395.7 189.7,391.5 C 189.7,391.5 191.3,387.3 192.8,383.2 C 192.8,383.2 194.3,379.0 195.7,374.8 C 195.7,374.8 197.0,370.7 197.7,366.5 C 197.7,366.5 198.3,362.3 198.5,358.2 C 198.5,358.2 198.7,354.0 198.0,350.2 C 198.0,350.2 197.3,346.3 196.2,342.7 C 196.2,342.7 195.0,339.0 193.5,335.5 C 193.5,335.5 192.0,332.0 190.5,328.7 C 190.5,328.7 189.0,325.3 187.5,322.0 C 187.5,322.0 186.0,318.7 184.5,315.5 C 184.5,315.5 183.0,312.3 181.7,309.0 C 181.7,309.0 180.3,305.7 179.0,302.3 C 179.0,302.3 177.7,299.0 176.3,295.5 C 176.3,295.5 175.0,292.0 173.5,288.5 C 173.5,288.5 172.0,285.0 170.7,281.5 C 170.7,281.5 169.3,278.0 168.2,274.5 C 168.2,274.5 167.0,271.0 166.0,267.5 C 166.0,267.5 165.0,264.0 164.2,260.5 C 164.2,260.5 163.3,257.0 162.7,253.3 C 162.7,253.3 162.0,249.7 161.5,246.0 C 161.5,246.0 161.0,242.3 160.5,238.8 C 160.5,238.8 160.0,235.3 159.7,232.3 C 159.7,232.3 159.3,229.3 159.0,226.7 C 159.0,226.7 158.7,224.0 158.5,221.7 C 158.5,221.7 158.3,219.3 158.0,217.2 C 158.0,217.2 157.7,215.0 157.3,213.0 C 157.3,213.0 157.0,211.0 156.7,209.2 C 156.7,209.2 156.3,207.3 156.2,205.8 C 156.2,205.8 156.0,204.3 156.0,203.0 C 156.0,203.0 156.0,201.7 155.8,200.5 C 155.8,200.5 155.7,199.3 155.5,198.3 C 155.5,198.3 155.3,197.3 155.2,196.7 C 155.2,196.7 155.0,196.0 155.0,195.3 C 155.0,195.3 155.0,194.7 155.2,194.0 C 155.2,194.0 155.3,193.3 155.7,192.7 C 155.7,192.7 156.0,192.0 156.5,191.5 C 156.5,191.5 157.0,191.0 157.5,190.7 C 157.5,190.7 158.0,190.3 158.7,190.0 C 158.7,190.0 159.3,189.7 160.2,189.7 C 160.2,189.7 161.0,189.7 162.2,189.7 C 162.2,189.7 163.3,189.7 164.5,189.8 C 164.5,189.8 165.7,190.0 167.0,189.8 C 167.0,189.8 168.3,189.7 169.3,189.3 C 169.3,189.3 170.3,189.0 171.2,188.3 C 171.2,188.3 172.0,187.7 172.5,186.8 C 172.5,186.8 173.0,186.0 173.3,185.0 C 173.3,185.0 173.7,184.0 173.7,183.0 C 173.7,183.0 173.7,182.0 173.3,181.0 C 173.3,181.0 173.0,180.0 172.3,178.8 C 172.3,178.8 171.7,177.7 170.8,176.3 C 170.8,176.3 170.0,175.0 168.8,173.3 C 168.8,173.3 167.7,171.7 166.3,169.7 C 166.3,169.7 165.0,167.7 163.5,165.3 C 163.5,165.3 162.0,163.0 160.3,160.3 C 160.3,160.3 158.7,157.7 156.8,154.7 C 156.8,154.7 155.0,151.7 153.0,148.3 C 153.0,148.3 151.0,145.0 147.0,139.5 L 143,134" stroke="#374151" stroke-width="8" fill="none" vector-effect="non-scaling-stroke"/><path d="M 46,634 C 44.5,633.0 43.0,632.0 41.5,631.0 C 41.5,631.0 40.0,630.0 37.3,628.2 C 37.3,628.2 34.7,626.3 32.5,624.7 C 32.5,624.7 30.3,623.0 28.7,621.3 C 28.7,621.3 27.0,619.7 25.5,618.0 C 25.5,618.0 24.0,616.3 22.8,614.3 C 22.8,614.3 21.7,612.3 20.7,610.3 C 20.7,610.3 19.7,608.3 19.2,605.8 C 19.2,605.8 18.7,603.3 18.3,600.8 C 18.3,600.8 18.0,598.3 18.2,595.5 C 18.2,595.5 18.3,592.7 18.8,589.8 C 18.8,589.8 19.3,587.0 20.2,583.8 C 20.2,583.8 21.0,580.7 22.0,577.5 C 22.0,577.5 23.0,574.3 24.2,571.2 C 24.2,571.2 25.3,568.0 26.7,565.0 C 26.7,565.0 28.0,562.0 29.7,559.0 C 29.7,559.0 31.3,556.0 33.2,552.8 C 33.2,552.8 35.0,549.7 37.0,546.5 C 37.0,546.5 39.0,543.3 42.0,539.2 C 42.0,539.2 45.0,535.0 48.3,531.2 C 48.3,531.2 51.7,527.3 55.2,523.5 C 55.2,523.5 58.7,519.7 61.5,516.8 C 61.5,516.8 64.3,514.0 67.2,511.2 C 67.2,511.2 70.0,508.3 73.0,505.5 C 73.0,505.5 76.0,502.7 79.2,500.0 C 79.2,500.0 82.3,497.3 85.7,494.8 C 85.7,494.8 89.0,492.3 92.7,490.2 C 92.7,490.2 96.3,488.0 100.2,485.8 C 100.2,485.8 104.0,483.7 108.2,481.3 C 108.2,481.3 112.3,479.0 116.3,476.7 C 116.3,476.7 120.3,474.3 124.3,472.2 C 124.3,472.2 128.3,470.0 132.2,467.7 C 132.2,467.7 136.0,465.3 139.8,462.8 C 139.8,462.8 143.7,460.3 147.3,457.5 C 147.3,457.5 151.0,454.7 154.3,451.8 C 154.3,451.8 157.7,449.0 160.8,445.8 C 160.8,445.8 164.0,442.7 166.7,439.3 C 166.7,439.3 169.3,436.0 171.7,432.3 C 171.7,432.3 174.0,428.7 176.0,424.8 C 176.0,424.8 178.0,421.0 179.8,416.8 C 179.8,416.8 181.7,412.7 183.3,408.5 C 183.3,408.5 185.0,404.3 186.5,400.0 C 186.5,400.0 188.0,395.7 189.7,391.5 C 189.7,391.5 191.3,387.3 192.8,383.2 C 192.8,383.2 194.3,379.0 195.7,374.8 C 195.7,374.8 197.0,370.7 197.7,366.5 C 197.7,366.5 198.3,362.3 198.5,358.2 C 198.5,358.2 198.7,354.0 198.0,350.2 C 198.0,350.2 197.3,346.3 196.2,342.7 C 196.2,342.7 195.0,339.0 193.5,335.5 C 193.5,335.5 192.0,332.0 190.5,328.7 C 190.5,328.7 189.0,325.3 187.5,322.0 C 187.5,322.0 186.0,318.7 184.5,315.5 C 184.5,315.5 183.0,312.3 181.7,309.0 C 181.7,309.0 180.3,305.7 179.0,302.3 C 179.0,302.3 177.7,299.0 176.3,295.5 C 176.3,295.5 175.0,292.0 173.5,288.5 C 173.5,288.5 172.0,285.0 170.7,281.5 C 170.7,281.5 169.3,278.0 168.2,274.5 C 168.2,274.5 167.0,271.0 166.0,267.5 C 166.0,267.5 165.0,264.0 164.2,260.5 C 164.2,260.5 163.3,257.0 162.7,253.3 C 162.7,253.3 162.0,249.7 161.5,246.0 C 161.5,246.0 161.0,242.3 160.5,238.8 C 160.5,238.8 160.0,235.3 159.7,232.3 C 159.7,232.3 159.3,229.3 159.0,226.7 C 159.0,226.7 158.7,224.0 158.5,221.7 C 158.5,221.7 158.3,219.3 158.0,217.2 C 158.0,217.2 157.7,215.0 157.3,213.0 C 157.3,213.0 157.0,211.0 156.7,209.2 C 156.7,209.2 156.3,207.3 156.2,205.8 C 156.2,205.8 156.0,204.3 156.0,203.0 C 156.0,203.0 156.0,201.7 155.8,200.5 C 155.8,200.5 155.7,199.3 155.5,198.3 C 155.5,198.3 155.3,197.3 155.2,196.7 C 155.2,196.7 155.0,196.0 155.0,195.3 C 155.0,195.3 155.0,194.7 155.2,194.0 C 155.2,194.0 155.3,193.3 155.7,192.7 C 155.7,192.7 156.0,192.0 156.5,191.5 C 156.5,191.5 157.0,191.0 157.5,190.7 C 157.5,190.7 158.0,190.3 158.7,190.0 C 158.7,190.0 159.3,189.7 160.2,189.7 C 160.2,189.7 161.0,189.7 162.2,189.7 C 162.2,189.7 163.3,189.7 164.5,189.8 C 164.5,189.8 165.7,190.0 167.0,189.8 C 167.0,189.8 168.3,189.7 169.3,189.3 C 169.3,189.3 170.3,189.0 171.2,188.3 C 171.2,188.3 172.0,187.7 172.5,186.8 C 172.5,186.8 173.0,186.0 173.3,185.0 C 173.3,185.0 173.7,184.0 173.7,183.0 C 173.7,183.0 173.7,182.0 173.3,181.0 C 173.3,181.0 173.0,180.0 172.3,178.8 C 172.3,178.8 171.7,177.7 170.8,176.3 C 170.8,176.3 170.0,175.0 168.8,173.3 C 168.8,173.3 167.7,171.7 166.3,169.7 C 166.3,169.7 165.0,167.7 163.5,165.3 C 163.5,165.3 162.0,163.0 160.3,160.3 C 160.3,160.3 158.7,157.7 156.8,154.7 C 156.8,154.7 155.0,151.7 153.0,148.3 C 153.0,148.3 151.0,145.0 147.0,139.5 L 143,134" stroke="#FBBF24" stroke-width="2" fill="none" vector-effect="non-scaling-stroke"/>
    <g id="moving-circle-group">
        <circle cx="143" cy="134" r="20" fill="#000000" vector-effect="non-scaling-stroke"/>
        <circle cx="143" cy="134" r="7" fill="#FFFFFF" vector-effect="non-scaling-stroke"/>
    </g></svg>