<svg id="minimap-svg" width="100%" height="100%" viewBox="0 0 584 700" xmlns="http://www.w3.org/2000/svg"><path d="M 488,258 C 485.5,262.0 483.0,266.0 480.5,269.8 C 480.5,269.8 478.0,273.7 472.8,281.5 C 472.8,281.5 467.7,289.3 462.5,297.3 C 462.5,297.3 457.3,305.3 452.0,313.7 C 452.0,313.7 446.7,322.0 441.3,330.5 C 441.3,330.5 436.0,339.0 430.5,347.7 C 430.5,347.7 425.0,356.3 419.5,365.0 C 419.5,365.0 414.0,373.7 408.3,382.5 C 408.3,382.5 402.7,391.3 396.8,400.0 C 396.8,400.0 391.0,408.7 385.2,417.7 C 385.2,417.7 379.3,426.7 373.5,435.7 C 373.5,435.7 367.7,444.7 361.8,453.8 C 361.8,453.8 356.0,463.0 350.2,472.2 C 350.2,472.2 344.3,481.3 338.5,490.5 C 338.5,490.5 332.7,499.7 326.8,509.0 C 326.8,509.0 321.0,518.3 315.0,527.5 C 315.0,527.5 309.0,536.7 303.0,546.0 C 303.0,546.0 297.0,555.3 291.0,564.7 C 291.0,564.7 285.0,574.0 279.2,583.0 C 279.2,583.0 273.3,592.0 268.2,600.0 C 268.2,600.0 263.0,608.0 258.8,614.3 C 258.8,614.3 254.7,620.7 251.7,625.5 C 251.7,625.5 248.7,630.3 246.3,633.8 C 246.3,633.8 244.0,637.3 242.2,640.0 C 242.2,640.0 240.3,642.7 238.8,644.7 C 238.8,644.7 237.3,646.7 236.0,648.2 C 236.0,648.2 234.7,649.7 233.2,650.8 C 233.2,650.8 231.7,652.0 230.0,652.8 C 230.0,652.8 228.3,653.7 226.5,654.3 C 226.5,654.3 224.7,655.0 222.7,655.3 C 222.7,655.3 220.7,655.7 218.3,655.7 C 218.3,655.7 216.0,655.7 213.5,655.2 C 213.5,655.2 211.0,654.7 208.5,653.7 C 208.5,653.7 206.0,652.7 203.5,651.3 C 203.5,651.3 201.0,650.0 198.5,648.3 C 198.5,648.3 196.0,646.7 193.5,645.2 C 193.5,645.2 191.0,643.7 188.5,642.3 C 188.5,642.3 186.0,641.0 183.3,640.3 C 183.3,640.3 180.7,639.7 177.8,639.3 C 177.8,639.3 175.0,639.0 171.8,639.3 C 171.8,639.3 168.7,639.7 165.5,640.3 C 165.5,640.3 162.3,641.0 159.2,642.3 C 159.2,642.3 156.0,643.7 153.0,645.5 C 153.0,645.5 150.0,647.3 147.0,649.7 C 147.0,649.7 144.0,652.0 140.8,654.5 C 140.8,654.5 137.7,657.0 134.3,659.5 C 134.3,659.5 131.0,662.0 127.5,664.5 C 127.5,664.5 124.0,667.0 120.5,669.3 C 120.5,669.3 117.0,671.7 113.5,673.7 C 113.5,673.7 110.0,675.7 106.5,677.3 C 106.5,677.3 103.0,679.0 99.3,680.2 C 99.3,680.2 95.7,681.3 91.8,682.0 C 91.8,682.0 88.0,682.7 84.2,682.7 C 84.2,682.7 80.3,682.7 76.5,682.2 C 76.5,682.2 72.7,681.7 69.0,680.8 C 69.0,680.8 65.3,680.0 61.7,678.8 C 61.7,678.8 58.0,677.7 54.3,676.0 C 54.3,676.0 50.7,674.3 47.2,672.2 C 47.2,672.2 43.7,670.0 40.5,667.2 C 40.5,667.2 37.3,664.3 34.7,661.2 C 34.7,661.2 32.0,658.0 29.7,654.5 C 29.7,654.5 27.3,651.0 25.2,647.3 C 25.2,647.3 23.0,643.7 21.3,639.7 C 21.3,639.7 19.7,635.7 18.5,631.3 C 18.5,631.3 17.3,627.0 16.7,622.5 C 16.7,622.5 16.0,618.0 15.7,613.5 C 15.7,613.5 15.3,609.0 15.3,604.5 C 15.3,604.5 15.3,600.0 15.8,595.5 C 15.8,595.5 16.3,591.0 17.2,586.5 C 17.2,586.5 18.0,582.0 19.2,577.3 C 19.2,577.3 20.3,572.7 21.8,568.0 C 21.8,568.0 23.3,563.3 25.2,558.8 C 25.2,558.8 27.0,554.3 29.2,550.0 C 29.2,550.0 31.3,545.7 33.8,541.3 C 33.8,541.3 36.3,537.0 39.2,532.5 C 39.2,532.5 42.0,528.0 45.2,523.3 C 45.2,523.3 48.3,518.7 51.7,513.5 C 51.7,513.5 55.0,508.3 58.5,502.7 C 58.5,502.7 62.0,497.0 65.7,490.8 C 65.7,490.8 69.3,484.7 73.3,478.2 C 73.3,478.2 77.3,471.7 83.7,461.8 L 90,452" stroke="#374151" stroke-width="8" fill="none" vector-effect="non-scaling-stroke"/><path d="M 488,258 C 485.5,262.0 483.0,266.0 480.5,269.8 C 480.5,269.8 478.0,273.7 472.8,281.5 C 472.8,281.5 467.7,289.3 462.5,297.3 C 462.5,297.3 457.3,305.3 452.0,313.7 C 452.0,313.7 446.7,322.0 441.3,330.5 C 441.3,330.5 436.0,339.0 430.5,347.7 C 430.5,347.7 425.0,356.3 419.5,365.0 C 419.5,365.0 414.0,373.7 408.3,382.5 C 408.3,382.5 402.7,391.3 396.8,400.0 C 396.8,400.0 391.0,408.7 385.2,417.7 C 385.2,417.7 379.3,426.7 373.5,435.7 C 373.5,435.7 367.7,444.7 361.8,453.8 C 361.8,453.8 356.0,463.0 350.2,472.2 C 350.2,472.2 344.3,481.3 338.5,490.5 C 338.5,490.5 332.7,499.7 326.8,509.0 C 326.8,509.0 321.0,518.3 315.0,527.5 C 315.0,527.5 309.0,536.7 303.0,546.0 C 303.0,546.0 297.0,555.3 291.0,564.7 C 291.0,564.7 285.0,574.0 279.2,583.0 C 279.2,583.0 273.3,592.0 268.2,600.0 C 268.2,600.0 263.0,608.0 258.8,614.3 C 258.8,614.3 254.7,620.7 251.7,625.5 C 251.7,625.5 248.7,630.3 246.3,633.8 C 246.3,633.8 244.0,637.3 242.2,640.0 C 242.2,640.0 240.3,642.7 238.8,644.7 C 238.8,644.7 237.3,646.7 236.0,648.2 C 236.0,648.2 234.7,649.7 233.2,650.8 C 233.2,650.8 231.7,652.0 230.0,652.8 C 230.0,652.8 228.3,653.7 226.5,654.3 C 226.5,654.3 224.7,655.0 222.7,655.3 C 222.7,655.3 220.7,655.7 218.3,655.7 C 218.3,655.7 216.0,655.7 213.5,655.2 C 213.5,655.2 211.0,654.7 208.5,653.7 C 208.5,653.7 206.0,652.7 203.5,651.3 C 203.5,651.3 201.0,650.0 198.5,648.3 C 198.5,648.3 196.0,646.7 193.5,645.2 C 193.5,645.2 191.0,643.7 188.5,642.3 C 188.5,642.3 186.0,641.0 183.3,640.3 C 183.3,640.3 180.7,639.7 177.8,639.3 C 177.8,639.3 175.0,639.0 171.8,639.3 C 171.8,639.3 168.7,639.7 165.5,640.3 C 165.5,640.3 162.3,641.0 159.2,642.3 C 159.2,642.3 156.0,643.7 153.0,645.5 C 153.0,645.5 150.0,647.3 147.0,649.7 C 147.0,649.7 144.0,652.0 140.8,654.5 C 140.8,654.5 137.7,657.0 134.3,659.5 C 134.3,659.5 131.0,662.0 127.5,664.5 C 127.5,664.5 124.0,667.0 120.5,669.3 C 120.5,669.3 117.0,671.7 113.5,673.7 C 113.5,673.7 110.0,675.7 106.5,677.3 C 106.5,677.3 103.0,679.0 99.3,680.2 C 99.3,680.2 95.7,681.3 91.8,682.0 C 91.8,682.0 88.0,682.7 84.2,682.7 C 84.2,682.7 80.3,682.7 76.5,682.2 C 76.5,682.2 72.7,681.7 69.0,680.8 C 69.0,680.8 65.3,680.0 61.7,678.8 C 61.7,678.8 58.0,677.7 54.3,676.0 C 54.3,676.0 50.7,674.3 47.2,672.2 C 47.2,672.2 43.7,670.0 40.5,667.2 C 40.5,667.2 37.3,664.3 34.7,661.2 C 34.7,661.2 32.0,658.0 29.7,654.5 C 29.7,654.5 27.3,651.0 25.2,647.3 C 25.2,647.3 23.0,643.7 21.3,639.7 C 21.3,639.7 19.7,635.7 18.5,631.3 C 18.5,631.3 17.3,627.0 16.7,622.5 C 16.7,622.5 16.0,618.0 15.7,613.5 C 15.7,613.5 15.3,609.0 15.3,604.5 C 15.3,604.5 15.3,600.0 15.8,595.5 C 15.8,595.5 16.3,591.0 17.2,586.5 C 17.2,586.5 18.0,582.0 19.2,577.3 C 19.2,577.3 20.3,572.7 21.8,568.0 C 21.8,568.0 23.3,563.3 25.2,558.8 C 25.2,558.8 27.0,554.3 29.2,550.0 C 29.2,550.0 31.3,545.7 33.8,541.3 C 33.8,541.3 36.3,537.0 39.2,532.5 C 39.2,532.5 42.0,528.0 45.2,523.3 C 45.2,523.3 48.3,518.7 51.7,513.5 C 51.7,513.5 55.0,508.3 58.5,502.7 C 58.5,502.7 62.0,497.0 65.7,490.8 C 65.7,490.8 69.3,484.7 73.3,478.2 C 73.3,478.2 77.3,471.7 83.7,461.8 L 90,452" stroke="#EF4444" stroke-width="2" fill="none" vector-effect="non-scaling-stroke"/><path d="M 90,452 C 91.8,449.2 93.5,446.5 95.1,444.2 C 95.1,444.2 96.7,442.0 99.5,437.8 C 99.5,437.8 102.3,433.7 104.7,430.7 C 104.7,430.7 107.0,427.7 109.0,425.7 C 109.0,425.7 111.0,423.7 113.0,422.2 C 113.0,422.2 115.0,420.7 117.0,419.5 C 117.0,419.5 119.0,418.3 121.3,417.2 C 121.3,417.2 123.7,416.0 126.2,415.3 C 126.2,415.3 128.7,414.7 131.5,414.5 C 131.5,414.5 134.3,414.3 137.0,414.8 C 137.0,414.8 139.7,415.3 142.5,416.3 C 142.5,416.3 145.3,417.3 147.8,419.0 C 147.8,419.0 150.3,420.7 152.8,422.7 C 152.8,422.7 155.3,424.7 157.5,427.2 C 157.5,427.2 159.7,429.7 161.7,432.3 C 161.7,432.3 163.7,435.0 165.2,438.3 C 165.2,438.3 166.7,441.7 167.7,445.2 C 167.7,445.2 168.7,448.7 169.2,452.5 C 169.2,452.5 169.7,456.3 169.7,460.2 C 169.7,460.2 169.7,464.0 169.3,468.0 C 169.3,468.0 169.0,472.0 168.2,476.0 C 168.2,476.0 167.3,480.0 166.0,484.0 C 166.0,484.0 164.7,488.0 162.8,491.8 C 162.8,491.8 161.0,495.7 158.8,499.3 C 158.8,499.3 156.7,503.0 154.3,506.7 C 154.3,506.7 152.0,510.3 149.7,514.0 C 149.7,514.0 147.3,517.7 144.8,521.3 C 144.8,521.3 142.3,525.0 140.0,528.5 C 140.0,528.5 137.7,532.0 135.3,535.5 C 135.3,535.5 133.0,539.0 130.8,542.3 C 130.8,542.3 128.7,545.7 126.5,548.8 C 126.5,548.8 124.3,552.0 122.3,555.2 C 122.3,555.2 120.3,558.3 118.5,561.3 C 118.5,561.3 116.7,564.3 115.0,567.2 C 115.0,567.2 113.3,570.0 111.8,572.2 C 111.8,572.2 110.3,574.3 109.0,576.3 C 109.0,576.3 107.7,578.3 106.7,580.3 C 106.7,580.3 105.7,582.3 105.0,584.5 C 105.0,584.5 104.3,586.7 104.0,588.8 C 104.0,588.8 103.7,591.0 103.7,593.0 C 103.7,593.0 103.7,595.0 103.8,596.8 C 103.8,596.8 104.0,598.7 104.8,600.3 C 104.8,600.3 105.7,602.0 106.8,603.5 C 106.8,603.5 108.0,605.0 109.7,606.3 C 109.7,606.3 111.3,607.7 113.2,608.8 C 113.2,608.8 115.0,610.0 117.2,610.8 C 117.2,610.8 119.3,611.7 121.5,612.0 C 121.5,612.0 123.7,612.3 126.0,612.0 C 126.0,612.0 128.3,611.7 130.8,610.8 C 130.8,610.8 133.3,610.0 136.0,609.0 C 136.0,609.0 138.7,608.0 141.5,606.8 C 141.5,606.8 144.3,605.7 147.3,604.3 C 147.3,604.3 150.3,603.0 153.7,601.5 C 153.7,601.5 157.0,600.0 160.7,598.5 C 160.7,598.5 164.3,597.0 168.2,595.3 C 168.2,595.3 172.0,593.7 176.0,591.8 C 176.0,591.8 180.0,590.0 184.2,588.0 C 184.2,588.0 188.3,586.0 192.7,584.0 C 192.7,584.0 197.0,582.0 201.5,579.8 C 201.5,579.8 206.0,577.7 210.5,575.2 C 210.5,575.2 215.0,572.7 219.3,569.8 C 219.3,569.8 223.7,567.0 227.7,563.8 C 227.7,563.8 231.7,560.7 235.3,557.2 C 235.3,557.2 239.0,553.7 242.3,549.8 C 242.3,549.8 245.7,546.0 248.8,542.0 C 248.8,542.0 252.0,538.0 254.8,534.2 C 254.8,534.2 257.7,530.3 260.2,526.8 C 260.2,526.8 262.7,523.3 264.7,520.3 C 264.7,520.3 266.7,517.3 268.5,514.7 C 268.5,514.7 270.3,512.0 272.0,509.5 C 272.0,509.5 273.7,507.0 275.2,504.7 C 275.2,504.7 276.7,502.3 278.0,500.0 C 278.0,500.0 279.3,497.7 280.3,495.5 C 280.3,495.5 281.3,493.3 282.3,491.0 C 282.3,491.0 283.3,488.7 283.8,486.5 C 283.8,486.5 284.3,484.3 284.3,482.0 C 284.3,482.0 284.3,479.7 283.8,477.5 C 283.8,477.5 283.3,475.3 282.5,473.3 C 282.5,473.3 281.7,471.3 280.7,469.5 C 280.7,469.5 279.7,467.7 278.2,466.0 C 278.2,466.0 276.7,464.3 274.8,462.7 C 274.8,462.7 273.0,461.0 271.0,459.7 C 271.0,459.7 269.0,458.3 266.8,457.0 C 266.8,457.0 264.7,455.7 262.3,454.2 C 262.3,454.2 260.0,452.7 257.7,450.7 C 257.7,450.7 255.3,448.7 253.2,446.3 C 253.2,446.3 251.0,444.0 249.2,441.3 C 249.2,441.3 247.3,438.7 245.7,435.8 C 245.7,435.8 244.0,433.0 242.5,429.8 C 242.5,429.8 241.0,426.7 239.5,423.3 C 239.5,423.3 238.0,420.0 236.5,416.7 C 236.5,416.7 235.0,413.3 233.5,409.8 C 233.5,409.8 232.0,406.3 230.5,402.7 C 230.5,402.7 229.0,399.0 227.3,395.0 C 227.3,395.0 225.7,391.0 223.8,386.7 C 223.8,386.7 222.0,382.3 220.0,377.8 C 220.0,377.8 218.0,373.3 216.2,368.7 C 216.2,368.7 214.3,364.0 212.7,359.8 C 212.7,359.8 211.0,355.7 209.7,352.2 C 209.7,352.2 208.3,348.7 207.2,346.0 C 207.2,346.0 206.0,343.3 205.0,341.2 C 205.0,341.2 204.0,339.0 203.2,336.8 C 203.2,336.8 202.3,334.7 201.8,332.3 C 201.8,332.3 201.3,330.0 201.0,327.7 C 201.0,327.7 200.7,325.3 200.5,323.0 C 200.5,323.0 200.3,320.7 200.3,318.3 C 200.3,318.3 200.3,316.0 200.7,313.3 C 200.7,313.3 201.0,310.7 201.8,307.8 C 201.8,307.8 202.7,305.0 203.8,301.8 C 203.8,301.8 205.0,298.7 206.7,295.7 C 206.7,295.7 208.3,292.7 210.3,289.7 C 210.3,289.7 212.3,286.7 214.7,284.0 C 214.7,284.0 217.0,281.3 219.8,278.8 C 219.8,278.8 222.7,276.3 225.8,274.3 C 225.8,274.3 229.0,272.3 232.3,270.5 C 232.3,270.5 235.7,268.7 239.2,267.0 C 239.2,267.0 242.7,265.3 246.3,263.5 C 246.3,263.5 250.0,261.7 254.0,259.8 C 254.0,259.8 258.0,258.0 262.0,256.0 C 262.0,256.0 266.0,254.0 270.2,252.0 C 270.2,252.0 274.3,250.0 278.8,247.8 C 278.8,247.8 283.3,245.7 288.0,243.3 C 288.0,243.3 292.7,241.0 297.7,238.5 C 297.7,238.5 302.7,236.0 308.0,233.2 C 308.0,233.2 313.3,230.3 319.3,227.3 C 319.3,227.3 325.3,224.3 331.8,221.0 C 331.8,221.0 338.3,217.7 345.3,214.3 C 345.3,214.3 352.3,211.0 359.7,207.3 C 359.7,207.3 367.0,203.7 374.7,199.8 C 374.7,199.8 382.3,196.0 390.3,192.0 C 390.3,192.0 398.3,188.0 406.5,184.0 C 406.5,184.0 414.7,180.0 422.3,176.3 C 422.3,176.3 430.0,172.7 439.5,167.8 L 449,163" stroke="#374151" stroke-width="8" fill="none" vector-effect="non-scaling-stroke"/><path d="M 90,452 C 91.8,449.2 93.5,446.5 95.1,444.2 C 95.1,444.2 96.7,442.0 99.5,437.8 C 99.5,437.8 102.3,433.7 104.7,430.7 C 104.7,430.7 107.0,427.7 109.0,425.7 C 109.0,425.7 111.0,423.7 113.0,422.2 C 113.0,422.2 115.0,420.7 117.0,419.5 C 117.0,419.5 119.0,418.3 121.3,417.2 C 121.3,417.2 123.7,416.0 126.2,415.3 C 126.2,415.3 128.7,414.7 131.5,414.5 C 131.5,414.5 134.3,414.3 137.0,414.8 C 137.0,414.8 139.7,415.3 142.5,416.3 C 142.5,416.3 145.3,417.3 147.8,419.0 C 147.8,419.0 150.3,420.7 152.8,422.7 C 152.8,422.7 155.3,424.7 157.5,427.2 C 157.5,427.2 159.7,429.7 161.7,432.3 C 161.7,432.3 163.7,435.0 165.2,438.3 C 165.2,438.3 166.7,441.7 167.7,445.2 C 167.7,445.2 168.7,448.7 169.2,452.5 C 169.2,452.5 169.7,456.3 169.7,460.2 C 169.7,460.2 169.7,464.0 169.3,468.0 C 169.3,468.0 169.0,472.0 168.2,476.0 C 168.2,476.0 167.3,480.0 166.0,484.0 C 166.0,484.0 164.7,488.0 162.8,491.8 C 162.8,491.8 161.0,495.7 158.8,499.3 C 158.8,499.3 156.7,503.0 154.3,506.7 C 154.3,506.7 152.0,510.3 149.7,514.0 C 149.7,514.0 147.3,517.7 144.8,521.3 C 144.8,521.3 142.3,525.0 140.0,528.5 C 140.0,528.5 137.7,532.0 135.3,535.5 C 135.3,535.5 133.0,539.0 130.8,542.3 C 130.8,542.3 128.7,545.7 126.5,548.8 C 126.5,548.8 124.3,552.0 122.3,555.2 C 122.3,555.2 120.3,558.3 118.5,561.3 C 118.5,561.3 116.7,564.3 115.0,567.2 C 115.0,567.2 113.3,570.0 111.8,572.2 C 111.8,572.2 110.3,574.3 109.0,576.3 C 109.0,576.3 107.7,578.3 106.7,580.3 C 106.7,580.3 105.7,582.3 105.0,584.5 C 105.0,584.5 104.3,586.7 104.0,588.8 C 104.0,588.8 103.7,591.0 103.7,593.0 C 103.7,593.0 103.7,595.0 103.8,596.8 C 103.8,596.8 104.0,598.7 104.8,600.3 C 104.8,600.3 105.7,602.0 106.8,603.5 C 106.8,603.5 108.0,605.0 109.7,606.3 C 109.7,606.3 111.3,607.7 113.2,608.8 C 113.2,608.8 115.0,610.0 117.2,610.8 C 117.2,610.8 119.3,611.7 121.5,612.0 C 121.5,612.0 123.7,612.3 126.0,612.0 C 126.0,612.0 128.3,611.7 130.8,610.8 C 130.8,610.8 133.3,610.0 136.0,609.0 C 136.0,609.0 138.7,608.0 141.5,606.8 C 141.5,606.8 144.3,605.7 147.3,604.3 C 147.3,604.3 150.3,603.0 153.7,601.5 C 153.7,601.5 157.0,600.0 160.7,598.5 C 160.7,598.5 164.3,597.0 168.2,595.3 C 168.2,595.3 172.0,593.7 176.0,591.8 C 176.0,591.8 180.0,590.0 184.2,588.0 C 184.2,588.0 188.3,586.0 192.7,584.0 C 192.7,584.0 197.0,582.0 201.5,579.8 C 201.5,579.8 206.0,577.7 210.5,575.2 C 210.5,575.2 215.0,572.7 219.3,569.8 C 219.3,569.8 223.7,567.0 227.7,563.8 C 227.7,563.8 231.7,560.7 235.3,557.2 C 235.3,557.2 239.0,553.7 242.3,549.8 C 242.3,549.8 245.7,546.0 248.8,542.0 C 248.8,542.0 252.0,538.0 254.8,534.2 C 254.8,534.2 257.7,530.3 260.2,526.8 C 260.2,526.8 262.7,523.3 264.7,520.3 C 264.7,520.3 266.7,517.3 268.5,514.7 C 268.5,514.7 270.3,512.0 272.0,509.5 C 272.0,509.5 273.7,507.0 275.2,504.7 C 275.2,504.7 276.7,502.3 278.0,500.0 C 278.0,500.0 279.3,497.7 280.3,495.5 C 280.3,495.5 281.3,493.3 282.3,491.0 C 282.3,491.0 283.3,488.7 283.8,486.5 C 283.8,486.5 284.3,484.3 284.3,482.0 C 284.3,482.0 284.3,479.7 283.8,477.5 C 283.8,477.5 283.3,475.3 282.5,473.3 C 282.5,473.3 281.7,471.3 280.7,469.5 C 280.7,469.5 279.7,467.7 278.2,466.0 C 278.2,466.0 276.7,464.3 274.8,462.7 C 274.8,462.7 273.0,461.0 271.0,459.7 C 271.0,459.7 269.0,458.3 266.8,457.0 C 266.8,457.0 264.7,455.7 262.3,454.2 C 262.3,454.2 260.0,452.7 257.7,450.7 C 257.7,450.7 255.3,448.7 253.2,446.3 C 253.2,446.3 251.0,444.0 249.2,441.3 C 249.2,441.3 247.3,438.7 245.7,435.8 C 245.7,435.8 244.0,433.0 242.5,429.8 C 242.5,429.8 241.0,426.7 239.5,423.3 C 239.5,423.3 238.0,420.0 236.5,416.7 C 236.5,416.7 235.0,413.3 233.5,409.8 C 233.5,409.8 232.0,406.3 230.5,402.7 C 230.5,402.7 229.0,399.0 227.3,395.0 C 227.3,395.0 225.7,391.0 223.8,386.7 C 223.8,386.7 222.0,382.3 220.0,377.8 C 220.0,377.8 218.0,373.3 216.2,368.7 C 216.2,368.7 214.3,364.0 212.7,359.8 C 212.7,359.8 211.0,355.7 209.7,352.2 C 209.7,352.2 208.3,348.7 207.2,346.0 C 207.2,346.0 206.0,343.3 205.0,341.2 C 205.0,341.2 204.0,339.0 203.2,336.8 C 203.2,336.8 202.3,334.7 201.8,332.3 C 201.8,332.3 201.3,330.0 201.0,327.7 C 201.0,327.7 200.7,325.3 200.5,323.0 C 200.5,323.0 200.3,320.7 200.3,318.3 C 200.3,318.3 200.3,316.0 200.7,313.3 C 200.7,313.3 201.0,310.7 201.8,307.8 C 201.8,307.8 202.7,305.0 203.8,301.8 C 203.8,301.8 205.0,298.7 206.7,295.7 C 206.7,295.7 208.3,292.7 210.3,289.7 C 210.3,289.7 212.3,286.7 214.7,284.0 C 214.7,284.0 217.0,281.3 219.8,278.8 C 219.8,278.8 222.7,276.3 225.8,274.3 C 225.8,274.3 229.0,272.3 232.3,270.5 C 232.3,270.5 235.7,268.7 239.2,267.0 C 239.2,267.0 242.7,265.3 246.3,263.5 C 246.3,263.5 250.0,261.7 254.0,259.8 C 254.0,259.8 258.0,258.0 262.0,256.0 C 262.0,256.0 266.0,254.0 270.2,252.0 C 270.2,252.0 274.3,250.0 278.8,247.8 C 278.8,247.8 283.3,245.7 288.0,243.3 C 288.0,243.3 292.7,241.0 297.7,238.5 C 297.7,238.5 302.7,236.0 308.0,233.2 C 308.0,233.2 313.3,230.3 319.3,227.3 C 319.3,227.3 325.3,224.3 331.8,221.0 C 331.8,221.0 338.3,217.7 345.3,214.3 C 345.3,214.3 352.3,211.0 359.7,207.3 C 359.7,207.3 367.0,203.7 374.7,199.8 C 374.7,199.8 382.3,196.0 390.3,192.0 C 390.3,192.0 398.3,188.0 406.5,184.0 C 406.5,184.0 414.7,180.0 422.3,176.3 C 422.3,176.3 430.0,172.7 439.5,167.8 L 449,163" stroke="#3B82F6" stroke-width="2" fill="none" vector-effect="non-scaling-stroke"/><path d="M 449,163 C 451.0,162.0 453.0,161.0 454.8,160.0 C 454.8,160.0 456.7,159.0 460.0,157.3 C 460.0,157.3 463.3,155.7 466.0,154.2 C 466.0,154.2 468.7,152.7 470.8,151.5 C 470.8,151.5 473.0,150.3 475.0,149.0 C 475.0,149.0 477.0,147.7 478.8,146.3 C 478.8,146.3 480.7,145.0 482.2,143.2 C 482.2,143.2 483.7,141.3 484.7,139.3 C 484.7,139.3 485.7,137.3 486.2,135.0 C 486.2,135.0 486.7,132.7 486.5,130.3 C 486.5,130.3 486.3,128.0 485.7,125.7 C 485.7,125.7 485.0,123.3 483.7,121.2 C 483.7,121.2 482.3,119.0 480.7,117.2 C 480.7,117.2 479.0,115.3 476.7,113.7 C 476.7,113.7 474.3,112.0 471.8,110.7 C 471.8,110.7 469.3,109.3 466.7,108.3 C 466.7,108.3 464.0,107.3 461.2,106.7 C 461.2,106.7 458.3,106.0 455.3,105.5 C 455.3,105.5 452.3,105.0 449.2,104.7 C 449.2,104.7 446.0,104.3 442.8,104.3 C 442.8,104.3 439.7,104.3 436.5,104.7 C 436.5,104.7 433.3,105.0 430.2,105.8 C 430.2,105.8 427.0,106.7 424.2,107.7 C 424.2,107.7 421.3,108.7 418.7,110.0 C 418.7,110.0 416.0,111.3 413.7,112.8 C 413.7,112.8 411.3,114.3 409.2,116.0 C 409.2,116.0 407.0,117.7 405.2,119.3 C 405.2,119.3 403.3,121.0 401.5,122.5 C 401.5,122.5 399.7,124.0 397.8,125.3 C 397.8,125.3 396.0,126.7 394.0,127.8 C 394.0,127.8 392.0,129.0 390.0,130.0 C 390.0,130.0 388.0,131.0 386.0,131.8 C 386.0,131.8 384.0,132.7 381.8,133.3 C 381.8,133.3 379.7,134.0 377.3,134.3 C 377.3,134.3 375.0,134.7 372.5,134.7 C 372.5,134.7 370.0,134.7 367.5,134.2 C 367.5,134.2 365.0,133.7 362.5,132.8 C 362.5,132.8 360.0,132.0 357.7,130.7 C 357.7,130.7 355.3,129.3 353.2,127.7 C 353.2,127.7 351.0,126.0 349.2,123.8 C 349.2,123.8 347.3,121.7 345.8,119.3 C 345.8,119.3 344.3,117.0 343.3,114.3 C 343.3,114.3 342.3,111.7 341.7,108.8 C 341.7,108.8 341.0,106.0 341.0,103.0 C 341.0,103.0 341.0,100.0 341.5,96.8 C 341.5,96.8 342.0,93.7 343.3,90.7 C 343.3,90.7 344.7,87.7 346.3,84.8 C 346.3,84.8 348.0,82.0 350.3,79.5 C 350.3,79.5 352.7,77.0 355.2,74.5 C 355.2,74.5 357.7,72.0 360.3,69.7 C 360.3,69.7 363.0,67.3 365.8,65.0 C 365.8,65.0 368.7,62.7 371.5,60.3 C 371.5,60.3 374.3,58.0 377.5,55.7 C 377.5,55.7 380.7,53.3 383.8,51.0 C 383.8,51.0 387.0,48.7 390.3,46.2 C 390.3,46.2 393.7,43.7 396.8,41.2 C 396.8,41.2 400.0,38.7 402.8,36.3 C 402.8,36.3 405.7,34.0 408.2,32.2 C 408.2,32.2 410.7,30.3 412.8,28.7 C 412.8,28.7 415.0,27.0 417.0,25.7 C 417.0,25.7 419.0,24.3 421.0,23.2 C 421.0,23.2 423.0,22.0 425.2,21.0 C 425.2,21.0 427.3,20.0 429.7,19.2 C 429.7,19.2 432.0,18.3 434.7,17.8 C 434.7,17.8 437.3,17.3 440.2,17.2 C 440.2,17.2 443.0,17.0 446.0,17.2 C 446.0,17.2 449.0,17.3 452.2,17.8 C 452.2,17.8 455.3,18.3 458.7,19.3 C 458.7,19.3 462.0,20.3 465.5,21.8 C 465.5,21.8 469.0,23.3 472.7,25.3 C 472.7,25.3 476.3,27.3 480.0,29.7 C 480.0,29.7 483.7,32.0 487.5,34.5 C 487.5,34.5 491.3,37.0 495.2,39.5 C 495.2,39.5 499.0,42.0 503.2,44.5 C 503.2,44.5 507.3,47.0 511.5,49.7 C 511.5,49.7 515.7,52.3 520.0,55.0 C 520.0,55.0 524.3,57.7 528.3,60.5 C 528.3,60.5 532.3,63.3 535.8,65.7 C 535.8,65.7 539.3,68.0 542.0,70.0 C 542.0,70.0 544.7,72.0 546.8,73.7 C 546.8,73.7 549.0,75.3 551.0,77.0 C 551.0,77.0 553.0,78.7 554.8,80.7 C 554.8,80.7 556.7,82.7 558.3,84.7 C 558.3,84.7 560.0,86.7 561.3,89.2 C 561.3,89.2 562.7,91.7 564.0,94.5 C 564.0,94.5 565.3,97.3 566.3,100.7 C 566.3,100.7 567.3,104.0 568.0,107.5 C 568.0,107.5 568.7,111.0 568.8,114.5 C 568.8,114.5 569.0,118.0 568.5,121.7 C 568.5,121.7 568.0,125.3 567.2,129.0 C 567.2,129.0 566.3,132.7 564.8,136.3 C 564.8,136.3 563.3,140.0 561.5,143.7 C 561.5,143.7 559.7,147.3 557.2,151.3 C 557.2,151.3 554.7,155.3 551.7,159.8 C 551.7,159.8 548.7,164.3 545.5,169.2 C 545.5,169.2 542.3,174.0 538.8,179.3 C 538.8,179.3 535.3,184.7 531.5,190.7 C 531.5,190.7 527.7,196.7 523.5,203.2 C 523.5,203.2 519.3,209.7 514.8,216.7 C 514.8,216.7 510.3,223.7 505.8,230.7 C 505.8,230.7 501.3,237.7 494.7,247.8 L 488,258" stroke="#374151" stroke-width="8" fill="none" vector-effect="non-scaling-stroke"/><path d="M 449,163 C 451.0,162.0 453.0,161.0 454.8,160.0 C 454.8,160.0 456.7,159.0 460.0,157.3 C 460.0,157.3 463.3,155.7 466.0,154.2 C 466.0,154.2 468.7,152.7 470.8,151.5 C 470.8,151.5 473.0,150.3 475.0,149.0 C 475.0,149.0 477.0,147.7 478.8,146.3 C 478.8,146.3 480.7,145.0 482.2,143.2 C 482.2,143.2 483.7,141.3 484.7,139.3 C 484.7,139.3 485.7,137.3 486.2,135.0 C 486.2,135.0 486.7,132.7 486.5,130.3 C 486.5,130.3 486.3,128.0 485.7,125.7 C 485.7,125.7 485.0,123.3 483.7,121.2 C 483.7,121.2 482.3,119.0 480.7,117.2 C 480.7,117.2 479.0,115.3 476.7,113.7 C 476.7,113.7 474.3,112.0 471.8,110.7 C 471.8,110.7 469.3,109.3 466.7,108.3 C 466.7,108.3 464.0,107.3 461.2,106.7 C 461.2,106.7 458.3,106.0 455.3,105.5 C 455.3,105.5 452.3,105.0 449.2,104.7 C 449.2,104.7 446.0,104.3 442.8,104.3 C 442.8,104.3 439.7,104.3 436.5,104.7 C 436.5,104.7 433.3,105.0 430.2,105.8 C 430.2,105.8 427.0,106.7 424.2,107.7 C 424.2,107.7 421.3,108.7 418.7,110.0 C 418.7,110.0 416.0,111.3 413.7,112.8 C 413.7,112.8 411.3,114.3 409.2,116.0 C 409.2,116.0 407.0,117.7 405.2,119.3 C 405.2,119.3 403.3,121.0 401.5,122.5 C 401.5,122.5 399.7,124.0 397.8,125.3 C 397.8,125.3 396.0,126.7 394.0,127.8 C 394.0,127.8 392.0,129.0 390.0,130.0 C 390.0,130.0 388.0,131.0 386.0,131.8 C 386.0,131.8 384.0,132.7 381.8,133.3 C 381.8,133.3 379.7,134.0 377.3,134.3 C 377.3,134.3 375.0,134.7 372.5,134.7 C 372.5,134.7 370.0,134.7 367.5,134.2 C 367.5,134.2 365.0,133.7 362.5,132.8 C 362.5,132.8 360.0,132.0 357.7,130.7 C 357.7,130.7 355.3,129.3 353.2,127.7 C 353.2,127.7 351.0,126.0 349.2,123.8 C 349.2,123.8 347.3,121.7 345.8,119.3 C 345.8,119.3 344.3,117.0 343.3,114.3 C 343.3,114.3 342.3,111.7 341.7,108.8 C 341.7,108.8 341.0,106.0 341.0,103.0 C 341.0,103.0 341.0,100.0 341.5,96.8 C 341.5,96.8 342.0,93.7 343.3,90.7 C 343.3,90.7 344.7,87.7 346.3,84.8 C 346.3,84.8 348.0,82.0 350.3,79.5 C 350.3,79.5 352.7,77.0 355.2,74.5 C 355.2,74.5 357.7,72.0 360.3,69.7 C 360.3,69.7 363.0,67.3 365.8,65.0 C 365.8,65.0 368.7,62.7 371.5,60.3 C 371.5,60.3 374.3,58.0 377.5,55.7 C 377.5,55.7 380.7,53.3 383.8,51.0 C 383.8,51.0 387.0,48.7 390.3,46.2 C 390.3,46.2 393.7,43.7 396.8,41.2 C 396.8,41.2 400.0,38.7 402.8,36.3 C 402.8,36.3 405.7,34.0 408.2,32.2 C 408.2,32.2 410.7,30.3 412.8,28.7 C 412.8,28.7 415.0,27.0 417.0,25.7 C 417.0,25.7 419.0,24.3 421.0,23.2 C 421.0,23.2 423.0,22.0 425.2,21.0 C 425.2,21.0 427.3,20.0 429.7,19.2 C 429.7,19.2 432.0,18.3 434.7,17.8 C 434.7,17.8 437.3,17.3 440.2,17.2 C 440.2,17.2 443.0,17.0 446.0,17.2 C 446.0,17.2 449.0,17.3 452.2,17.8 C 452.2,17.8 455.3,18.3 458.7,19.3 C 458.7,19.3 462.0,20.3 465.5,21.8 C 465.5,21.8 469.0,23.3 472.7,25.3 C 472.7,25.3 476.3,27.3 480.0,29.7 C 480.0,29.7 483.7,32.0 487.5,34.5 C 487.5,34.5 491.3,37.0 495.2,39.5 C 495.2,39.5 499.0,42.0 503.2,44.5 C 503.2,44.5 507.3,47.0 511.5,49.7 C 511.5,49.7 515.7,52.3 520.0,55.0 C 520.0,55.0 524.3,57.7 528.3,60.5 C 528.3,60.5 532.3,63.3 535.8,65.7 C 535.8,65.7 539.3,68.0 542.0,70.0 C 542.0,70.0 544.7,72.0 546.8,73.7 C 546.8,73.7 549.0,75.3 551.0,77.0 C 551.0,77.0 553.0,78.7 554.8,80.7 C 554.8,80.7 556.7,82.7 558.3,84.7 C 558.3,84.7 560.0,86.7 561.3,89.2 C 561.3,89.2 562.7,91.7 564.0,94.5 C 564.0,94.5 565.3,97.3 566.3,100.7 C 566.3,100.7 567.3,104.0 568.0,107.5 C 568.0,107.5 568.7,111.0 568.8,114.5 C 568.8,114.5 569.0,118.0 568.5,121.7 C 568.5,121.7 568.0,125.3 567.2,129.0 C 567.2,129.0 566.3,132.7 564.8,136.3 C 564.8,136.3 563.3,140.0 561.5,143.7 C 561.5,143.7 559.7,147.3 557.2,151.3 C 557.2,151.3 554.7,155.3 551.7,159.8 C 551.7,159.8 548.7,164.3 545.5,169.2 C 545.5,169.2 542.3,174.0 538.8,179.3 C 538.8,179.3 535.3,184.7 531.5,190.7 C 531.5,190.7 527.7,196.7 523.5,203.2 C 523.5,203.2 519.3,209.7 514.8,216.7 C 514.8,216.7 510.3,223.7 505.8,230.7 C 505.8,230.7 501.3,237.7 494.7,247.8 L 488,258" stroke="#FBBF24" stroke-width="2" fill="none" vector-effect="non-scaling-stroke"/>
    <g id="moving-circle-group">
        <circle cx="488" cy="258" r="20" fill="#000000" vector-effect="non-scaling-stroke"/>
        <circle cx="488" cy="258" r="7" fill="#FFFFFF" vector-effect="non-scaling-stroke"/>
    </g></svg>