<svg id="minimap-svg" width="100%" height="100%" viewBox="0 0 700 414" xmlns="http://www.w3.org/2000/svg"><path d="M 63,264 C 65.0,265.2 67.0,266.5 69.0,267.9 C 69.0,267.9 71.0,269.3 75.0,272.3 C 75.0,272.3 79.0,275.3 83.2,278.5 C 83.2,278.5 87.3,281.7 91.7,285.0 C 91.7,285.0 96.0,288.3 100.5,291.7 C 100.5,291.7 105.0,295.0 109.7,298.5 C 109.7,298.5 114.3,302.0 119.2,305.5 C 119.2,305.5 124.0,309.0 129.0,312.7 C 129.0,312.7 134.0,316.3 139.0,320.0 C 139.0,320.0 144.0,323.7 149.0,327.5 C 149.0,327.5 154.0,331.3 159.2,335.2 C 159.2,335.2 164.3,339.0 169.5,343.0 C 169.5,343.0 174.7,347.0 180.0,350.8 C 180.0,350.8 185.3,354.7 190.5,358.5 C 190.5,358.5 195.7,362.3 200.8,366.2 C 200.8,366.2 206.0,370.0 210.7,373.5 C 210.7,373.5 215.3,377.0 219.2,379.8 C 219.2,379.8 223.0,382.7 226.0,384.7 C 226.0,384.7 229.0,386.7 231.2,388.2 C 231.2,388.2 233.3,389.7 235.0,390.7 C 235.0,390.7 236.7,391.7 237.7,392.2 C 237.7,392.2 238.7,392.7 239.5,393.0 C 239.5,393.0 240.3,393.3 241.0,393.7 C 241.0,393.7 241.7,394.0 242.5,394.5 C 242.5,394.5 243.3,395.0 244.0,395.5 C 244.0,395.5 244.7,396.0 245.5,396.5 C 245.5,396.5 246.3,397.0 247.2,397.3 C 247.2,397.3 248.0,397.7 249.0,397.8 C 249.0,397.8 250.0,398.0 251.0,398.0 C 251.0,398.0 252.0,398.0 253.0,397.8 C 253.0,397.8 254.0,397.7 254.8,397.3 C 254.8,397.3 255.7,397.0 256.3,396.3 C 256.3,396.3 257.0,395.7 257.3,394.8 C 257.3,394.8 257.7,394.0 257.8,393.0 C 257.8,393.0 258.0,392.0 257.8,391.0 C 257.8,391.0 257.7,390.0 257.3,388.8 C 257.3,388.8 257.0,387.7 256.5,386.2 C 256.5,386.2 256.0,384.7 255.3,382.8 C 255.3,382.8 254.7,381.0 253.8,378.8 C 253.8,378.8 253.0,376.7 252.0,374.2 C 252.0,374.2 251.0,371.7 249.8,368.7 C 249.8,368.7 248.7,365.7 247.3,362.2 C 247.3,362.2 246.0,358.7 244.5,354.8 C 244.5,354.8 243.0,351.0 241.7,347.2 C 241.7,347.2 240.3,343.3 239.3,339.8 C 239.3,339.8 238.3,336.3 237.8,333.2 C 237.8,333.2 237.3,330.0 237.5,327.0 C 237.5,327.0 237.7,324.0 238.3,321.0 C 238.3,321.0 239.0,318.0 240.2,315.0 C 240.2,315.0 241.3,312.0 242.8,309.2 C 242.8,309.2 244.3,306.3 246.3,303.7 C 246.3,303.7 248.3,301.0 250.7,298.7 C 250.7,298.7 253.0,296.3 255.7,294.2 C 255.7,294.2 258.3,292.0 261.2,290.0 C 261.2,290.0 264.0,288.0 267.0,286.0 C 267.0,286.0 270.0,284.0 273.0,282.2 C 273.0,282.2 276.0,280.3 279.2,278.5 C 279.2,278.5 282.3,276.7 285.5,274.8 C 285.5,274.8 288.7,273.0 291.5,271.2 C 291.5,271.2 294.3,269.3 296.8,267.7 C 296.8,267.7 299.3,266.0 301.5,264.5 C 301.5,264.5 303.7,263.0 305.8,261.3 C 305.8,261.3 308.0,259.7 309.8,258.0 C 309.8,258.0 311.7,256.3 313.2,254.3 C 313.2,254.3 314.7,252.3 315.8,250.3 C 315.8,250.3 317.0,248.3 317.8,246.0 C 317.8,246.0 318.7,243.7 319.5,241.5 C 319.5,241.5 320.3,239.3 321.2,237.3 C 321.2,237.3 322.0,235.3 322.8,233.7 C 322.8,233.7 323.7,232.0 324.7,230.5 C 324.7,230.5 325.7,229.0 326.8,227.7 C 326.8,227.7 328.0,226.3 329.3,225.0 C 329.3,225.0 330.7,223.7 332.2,222.5 C 332.2,222.5 333.7,221.3 335.3,220.3 C 335.3,220.3 337.0,219.3 339.0,218.5 C 339.0,218.5 341.0,217.7 343.0,216.8 C 343.0,216.8 345.0,216.0 347.0,214.8 C 347.0,214.8 349.0,213.7 350.8,212.3 C 350.8,212.3 352.7,211.0 354.2,209.3 C 354.2,209.3 355.7,207.7 356.5,206.0 C 356.5,206.0 357.3,204.3 357.8,202.3 C 357.8,202.3 358.3,200.3 358.7,198.3 C 358.7,198.3 359.0,196.3 359.3,194.2 C 359.3,194.2 359.7,192.0 360.0,190.0 C 360.0,190.0 360.3,188.0 360.7,186.0 C 360.7,186.0 361.0,184.0 361.5,182.2 C 361.5,182.2 362.0,180.3 362.7,178.5 C 362.7,178.5 363.3,176.7 364.3,174.8 C 364.3,174.8 365.3,173.0 366.7,171.0 C 366.7,171.0 368.0,169.0 369.7,167.2 C 369.7,167.2 371.3,165.3 373.2,163.7 C 373.2,163.7 375.0,162.0 377.2,160.5 C 377.2,160.5 379.3,159.0 381.7,157.5 C 381.7,157.5 384.0,156.0 386.7,154.8 C 386.7,154.8 389.3,153.7 392.2,152.8 C 392.2,152.8 395.0,152.0 397.8,151.8 C 397.8,151.8 400.7,151.7 403.5,152.0 C 403.5,152.0 406.3,152.3 409.0,153.0 C 409.0,153.0 411.7,153.7 414.3,154.7 C 414.3,154.7 417.0,155.7 421.5,157.3 L 426,159" stroke="#374151" stroke-width="8" fill="none" vector-effect="non-scaling-stroke"/><path d="M 63,264 C 65.0,265.2 67.0,266.5 69.0,267.9 C 69.0,267.9 71.0,269.3 75.0,272.3 C 75.0,272.3 79.0,275.3 83.2,278.5 C 83.2,278.5 87.3,281.7 91.7,285.0 C 91.7,285.0 96.0,288.3 100.5,291.7 C 100.5,291.7 105.0,295.0 109.7,298.5 C 109.7,298.5 114.3,302.0 119.2,305.5 C 119.2,305.5 124.0,309.0 129.0,312.7 C 129.0,312.7 134.0,316.3 139.0,320.0 C 139.0,320.0 144.0,323.7 149.0,327.5 C 149.0,327.5 154.0,331.3 159.2,335.2 C 159.2,335.2 164.3,339.0 169.5,343.0 C 169.5,343.0 174.7,347.0 180.0,350.8 C 180.0,350.8 185.3,354.7 190.5,358.5 C 190.5,358.5 195.7,362.3 200.8,366.2 C 200.8,366.2 206.0,370.0 210.7,373.5 C 210.7,373.5 215.3,377.0 219.2,379.8 C 219.2,379.8 223.0,382.7 226.0,384.7 C 226.0,384.7 229.0,386.7 231.2,388.2 C 231.2,388.2 233.3,389.7 235.0,390.7 C 235.0,390.7 236.7,391.7 237.7,392.2 C 237.7,392.2 238.7,392.7 239.5,393.0 C 239.5,393.0 240.3,393.3 241.0,393.7 C 241.0,393.7 241.7,394.0 242.5,394.5 C 242.5,394.5 243.3,395.0 244.0,395.5 C 244.0,395.5 244.7,396.0 245.5,396.5 C 245.5,396.5 246.3,397.0 247.2,397.3 C 247.2,397.3 248.0,397.7 249.0,397.8 C 249.0,397.8 250.0,398.0 251.0,398.0 C 251.0,398.0 252.0,398.0 253.0,397.8 C 253.0,397.8 254.0,397.7 254.8,397.3 C 254.8,397.3 255.7,397.0 256.3,396.3 C 256.3,396.3 257.0,395.7 257.3,394.8 C 257.3,394.8 257.7,394.0 257.8,393.0 C 257.8,393.0 258.0,392.0 257.8,391.0 C 257.8,391.0 257.7,390.0 257.3,388.8 C 257.3,388.8 257.0,387.7 256.5,386.2 C 256.5,386.2 256.0,384.7 255.3,382.8 C 255.3,382.8 254.7,381.0 253.8,378.8 C 253.8,378.8 253.0,376.7 252.0,374.2 C 252.0,374.2 251.0,371.7 249.8,368.7 C 249.8,368.7 248.7,365.7 247.3,362.2 C 247.3,362.2 246.0,358.7 244.5,354.8 C 244.5,354.8 243.0,351.0 241.7,347.2 C 241.7,347.2 240.3,343.3 239.3,339.8 C 239.3,339.8 238.3,336.3 237.8,333.2 C 237.8,333.2 237.3,330.0 237.5,327.0 C 237.5,327.0 237.7,324.0 238.3,321.0 C 238.3,321.0 239.0,318.0 240.2,315.0 C 240.2,315.0 241.3,312.0 242.8,309.2 C 242.8,309.2 244.3,306.3 246.3,303.7 C 246.3,303.7 248.3,301.0 250.7,298.7 C 250.7,298.7 253.0,296.3 255.7,294.2 C 255.7,294.2 258.3,292.0 261.2,290.0 C 261.2,290.0 264.0,288.0 267.0,286.0 C 267.0,286.0 270.0,284.0 273.0,282.2 C 273.0,282.2 276.0,280.3 279.2,278.5 C 279.2,278.5 282.3,276.7 285.5,274.8 C 285.5,274.8 288.7,273.0 291.5,271.2 C 291.5,271.2 294.3,269.3 296.8,267.7 C 296.8,267.7 299.3,266.0 301.5,264.5 C 301.5,264.5 303.7,263.0 305.8,261.3 C 305.8,261.3 308.0,259.7 309.8,258.0 C 309.8,258.0 311.7,256.3 313.2,254.3 C 313.2,254.3 314.7,252.3 315.8,250.3 C 315.8,250.3 317.0,248.3 317.8,246.0 C 317.8,246.0 318.7,243.7 319.5,241.5 C 319.5,241.5 320.3,239.3 321.2,237.3 C 321.2,237.3 322.0,235.3 322.8,233.7 C 322.8,233.7 323.7,232.0 324.7,230.5 C 324.7,230.5 325.7,229.0 326.8,227.7 C 326.8,227.7 328.0,226.3 329.3,225.0 C 329.3,225.0 330.7,223.7 332.2,222.5 C 332.2,222.5 333.7,221.3 335.3,220.3 C 335.3,220.3 337.0,219.3 339.0,218.5 C 339.0,218.5 341.0,217.7 343.0,216.8 C 343.0,216.8 345.0,216.0 347.0,214.8 C 347.0,214.8 349.0,213.7 350.8,212.3 C 350.8,212.3 352.7,211.0 354.2,209.3 C 354.2,209.3 355.7,207.7 356.5,206.0 C 356.5,206.0 357.3,204.3 357.8,202.3 C 357.8,202.3 358.3,200.3 358.7,198.3 C 358.7,198.3 359.0,196.3 359.3,194.2 C 359.3,194.2 359.7,192.0 360.0,190.0 C 360.0,190.0 360.3,188.0 360.7,186.0 C 360.7,186.0 361.0,184.0 361.5,182.2 C 361.5,182.2 362.0,180.3 362.7,178.5 C 362.7,178.5 363.3,176.7 364.3,174.8 C 364.3,174.8 365.3,173.0 366.7,171.0 C 366.7,171.0 368.0,169.0 369.7,167.2 C 369.7,167.2 371.3,165.3 373.2,163.7 C 373.2,163.7 375.0,162.0 377.2,160.5 C 377.2,160.5 379.3,159.0 381.7,157.5 C 381.7,157.5 384.0,156.0 386.7,154.8 C 386.7,154.8 389.3,153.7 392.2,152.8 C 392.2,152.8 395.0,152.0 397.8,151.8 C 397.8,151.8 400.7,151.7 403.5,152.0 C 403.5,152.0 406.3,152.3 409.0,153.0 C 409.0,153.0 411.7,153.7 414.3,154.7 C 414.3,154.7 417.0,155.7 421.5,157.3 L 426,159" stroke="#EF4444" stroke-width="2" fill="none" vector-effect="non-scaling-stroke"/><path d="M 426,159 C 427.2,159.5 428.5,160.0 429.6,160.5 C 429.6,160.5 430.7,161.0 432.8,162.0 C 432.8,162.0 435.0,163.0 436.8,163.8 C 436.8,163.8 438.7,164.7 440.5,165.3 C 440.5,165.3 442.3,166.0 444.0,166.3 C 444.0,166.3 445.7,166.7 447.3,166.8 C 447.3,166.8 449.0,167.0 450.5,166.7 C 450.5,166.7 452.0,166.3 453.5,165.7 C 453.5,165.7 455.0,165.0 456.7,164.0 C 456.7,164.0 458.3,163.0 460.2,161.7 C 460.2,161.7 462.0,160.3 464.0,158.8 C 464.0,158.8 466.0,157.3 468.0,155.2 C 468.0,155.2 470.0,153.0 472.0,150.7 C 472.0,150.7 474.0,148.3 475.8,146.0 C 475.8,146.0 477.7,143.7 479.2,141.8 C 479.2,141.8 480.7,140.0 481.8,138.7 C 481.8,138.7 483.0,137.3 484.0,136.3 C 484.0,136.3 485.0,135.3 486.2,134.7 C 486.2,134.7 487.3,134.0 488.7,133.5 C 488.7,133.5 490.0,133.0 491.5,132.7 C 491.5,132.7 493.0,132.3 494.7,132.2 C 494.7,132.2 496.3,132.0 498.0,132.2 C 498.0,132.2 499.7,132.3 501.5,132.7 C 501.5,132.7 503.3,133.0 505.0,133.7 C 505.0,133.7 506.7,134.3 508.3,135.3 C 508.3,135.3 510.0,136.3 511.3,137.8 C 511.3,137.8 512.7,139.3 513.7,140.8 C 513.7,140.8 514.7,142.3 515.5,143.5 C 515.5,143.5 516.3,144.7 517.2,145.5 C 517.2,145.5 518.0,146.3 519.0,147.0 C 519.0,147.0 520.0,147.7 521.2,148.2 C 521.2,148.2 522.3,148.7 523.8,148.8 C 523.8,148.8 525.3,149.0 527.2,148.8 C 527.2,148.8 529.0,148.7 531.0,148.3 C 531.0,148.3 533.0,148.0 535.2,147.3 C 535.2,147.3 537.3,146.7 539.8,146.0 C 539.8,146.0 542.3,145.3 545.2,144.7 C 545.2,144.7 548.0,144.0 551.2,143.3 C 551.2,143.3 554.3,142.7 557.8,141.8 C 557.8,141.8 561.3,141.0 565.0,140.0 C 565.0,140.0 568.7,139.0 572.0,138.2 C 572.0,138.2 575.3,137.3 578.0,136.7 C 578.0,136.7 580.7,136.0 582.7,135.5 C 582.7,135.5 584.7,135.0 586.3,134.3 C 586.3,134.3 588.0,133.7 589.7,132.7 C 589.7,132.7 591.3,131.7 593.0,130.3 C 593.0,130.3 594.7,129.0 596.3,127.3 C 596.3,127.3 598.0,125.7 599.5,123.7 C 599.5,123.7 601.0,121.7 602.7,119.3 C 602.7,119.3 604.3,117.0 606.3,114.3 C 606.3,114.3 608.3,111.7 610.7,108.8 C 610.7,108.8 613.0,106.0 615.7,102.7 C 615.7,102.7 618.3,99.3 621.2,95.7 C 621.2,95.7 624.0,92.0 627.2,88.2 C 627.2,88.2 630.3,84.3 633.7,80.3 C 633.7,80.3 637.0,76.3 640.5,72.2 C 640.5,72.2 644.0,68.0 647.3,63.7 C 647.3,63.7 650.7,59.3 653.8,55.5 C 653.8,55.5 657.0,51.7 659.5,48.5 C 659.5,48.5 662.0,45.3 664.0,43.0 C 664.0,43.0 666.0,40.7 667.3,38.8 C 667.3,38.8 668.7,37.0 670.0,35.5 C 670.0,35.5 671.3,34.0 672.3,32.5 C 672.3,32.5 673.3,31.0 674.3,29.5 C 674.3,29.5 675.3,28.0 675.8,26.5 C 675.8,26.5 676.3,25.0 676.7,23.7 C 676.7,23.7 677.0,22.3 676.7,21.0 C 676.7,21.0 676.3,19.7 675.7,18.7 C 675.7,18.7 675.0,17.7 674.0,17.0 C 674.0,17.0 673.0,16.3 672.0,16.2 C 672.0,16.2 671.0,16.0 669.7,16.2 C 669.7,16.2 668.3,16.3 666.8,16.7 C 666.8,16.7 665.3,17.0 663.3,17.7 C 663.3,17.7 661.3,18.3 659.2,19.0 C 659.2,19.0 657.0,19.7 654.2,20.7 C 654.2,20.7 651.3,21.7 648.2,22.7 C 648.2,22.7 645.0,23.7 641.3,25.0 C 641.3,25.0 637.7,26.3 633.7,27.7 C 633.7,27.7 629.7,29.0 625.2,30.5 C 625.2,30.5 620.7,32.0 615.8,33.5 C 615.8,33.5 611.0,35.0 606.0,36.5 C 606.0,36.5 601.0,38.0 595.8,39.7 C 595.8,39.7 590.7,41.3 585.3,43.0 C 585.3,43.0 580.0,44.7 574.3,46.5 C 574.3,46.5 568.7,48.3 563.0,50.0 C 563.0,50.0 557.3,51.7 551.5,53.3 C 551.5,53.3 545.7,55.0 539.8,56.7 C 539.8,56.7 534.0,58.3 527.8,60.0 C 527.8,60.0 521.7,61.7 515.3,63.3 C 515.3,63.3 509.0,65.0 502.7,66.5 C 502.7,66.5 496.3,68.0 490.0,69.5 C 490.0,69.5 483.7,71.0 477.3,72.5 C 477.3,72.5 471.0,74.0 464.3,75.3 C 464.3,75.3 457.7,76.7 451.0,78.0 C 451.0,78.0 444.3,79.3 437.5,80.5 C 437.5,80.5 430.7,81.7 424.0,82.8 C 424.0,82.8 417.3,84.0 410.5,85.0 C 410.5,85.0 403.7,86.0 396.8,87.2 C 396.8,87.2 390.0,88.3 383.2,89.3 C 383.2,89.3 376.3,90.3 369.2,91.5 C 369.2,91.5 362.0,92.7 354.8,93.5 C 354.8,93.5 347.7,94.3 340.3,95.3 C 340.3,95.3 333.0,96.3 326.2,97.2 C 326.2,97.2 319.3,98.0 312.8,98.8 C 312.8,98.8 306.3,99.7 300.8,100.3 C 300.8,100.3 295.3,101.0 291.0,101.5 C 291.0,101.5 286.7,102.0 283.7,102.5 C 283.7,102.5 280.7,103.0 278.2,103.5 C 278.2,103.5 275.7,104.0 273.7,104.5 C 273.7,104.5 271.7,105.0 270.0,105.3 C 270.0,105.3 268.3,105.7 267.2,106.0 C 267.2,106.0 266.0,106.3 265.0,106.5 C 265.0,106.5 264.0,106.7 263.0,107.0 C 263.0,107.0 262.0,107.3 261.0,107.7 C 261.0,107.7 260.0,108.0 259.3,108.7 C 259.3,108.7 258.7,109.3 258.2,110.0 C 258.2,110.0 257.7,110.7 257.7,111.5 C 257.7,111.5 257.7,112.3 257.7,113.0 C 257.7,113.0 257.7,113.7 258.2,114.5 C 258.2,114.5 258.7,115.3 259.3,116.2 C 259.3,116.2 260.0,117.0 261.0,118.2 C 261.0,118.2 262.0,119.3 263.2,120.7 C 263.2,120.7 264.3,122.0 265.8,123.8 C 265.8,123.8 267.3,125.7 269.2,127.8 C 269.2,127.8 271.0,130.0 273.0,132.5 C 273.0,132.5 275.0,135.0 279.5,141.0 L 284,147" stroke="#374151" stroke-width="8" fill="none" vector-effect="non-scaling-stroke"/><path d="M 426,159 C 427.2,159.5 428.5,160.0 429.6,160.5 C 429.6,160.5 430.7,161.0 432.8,162.0 C 432.8,162.0 435.0,163.0 436.8,163.8 C 436.8,163.8 438.7,164.7 440.5,165.3 C 440.5,165.3 442.3,166.0 444.0,166.3 C 444.0,166.3 445.7,166.7 447.3,166.8 C 447.3,166.8 449.0,167.0 450.5,166.7 C 450.5,166.7 452.0,166.3 453.5,165.7 C 453.5,165.7 455.0,165.0 456.7,164.0 C 456.7,164.0 458.3,163.0 460.2,161.7 C 460.2,161.7 462.0,160.3 464.0,158.8 C 464.0,158.8 466.0,157.3 468.0,155.2 C 468.0,155.2 470.0,153.0 472.0,150.7 C 472.0,150.7 474.0,148.3 475.8,146.0 C 475.8,146.0 477.7,143.7 479.2,141.8 C 479.2,141.8 480.7,140.0 481.8,138.7 C 481.8,138.7 483.0,137.3 484.0,136.3 C 484.0,136.3 485.0,135.3 486.2,134.7 C 486.2,134.7 487.3,134.0 488.7,133.5 C 488.7,133.5 490.0,133.0 491.5,132.7 C 491.5,132.7 493.0,132.3 494.7,132.2 C 494.7,132.2 496.3,132.0 498.0,132.2 C 498.0,132.2 499.7,132.3 501.5,132.7 C 501.5,132.7 503.3,133.0 505.0,133.7 C 505.0,133.7 506.7,134.3 508.3,135.3 C 508.3,135.3 510.0,136.3 511.3,137.8 C 511.3,137.8 512.7,139.3 513.7,140.8 C 513.7,140.8 514.7,142.3 515.5,143.5 C 515.5,143.5 516.3,144.7 517.2,145.5 C 517.2,145.5 518.0,146.3 519.0,147.0 C 519.0,147.0 520.0,147.7 521.2,148.2 C 521.2,148.2 522.3,148.7 523.8,148.8 C 523.8,148.8 525.3,149.0 527.2,148.8 C 527.2,148.8 529.0,148.7 531.0,148.3 C 531.0,148.3 533.0,148.0 535.2,147.3 C 535.2,147.3 537.3,146.7 539.8,146.0 C 539.8,146.0 542.3,145.3 545.2,144.7 C 545.2,144.7 548.0,144.0 551.2,143.3 C 551.2,143.3 554.3,142.7 557.8,141.8 C 557.8,141.8 561.3,141.0 565.0,140.0 C 565.0,140.0 568.7,139.0 572.0,138.2 C 572.0,138.2 575.3,137.3 578.0,136.7 C 578.0,136.7 580.7,136.0 582.7,135.5 C 582.7,135.5 584.7,135.0 586.3,134.3 C 586.3,134.3 588.0,133.7 589.7,132.7 C 589.7,132.7 591.3,131.7 593.0,130.3 C 593.0,130.3 594.7,129.0 596.3,127.3 C 596.3,127.3 598.0,125.7 599.5,123.7 C 599.5,123.7 601.0,121.7 602.7,119.3 C 602.7,119.3 604.3,117.0 606.3,114.3 C 606.3,114.3 608.3,111.7 610.7,108.8 C 610.7,108.8 613.0,106.0 615.7,102.7 C 615.7,102.7 618.3,99.3 621.2,95.7 C 621.2,95.7 624.0,92.0 627.2,88.2 C 627.2,88.2 630.3,84.3 633.7,80.3 C 633.7,80.3 637.0,76.3 640.5,72.2 C 640.5,72.2 644.0,68.0 647.3,63.7 C 647.3,63.7 650.7,59.3 653.8,55.5 C 653.8,55.5 657.0,51.7 659.5,48.5 C 659.5,48.5 662.0,45.3 664.0,43.0 C 664.0,43.0 666.0,40.7 667.3,38.8 C 667.3,38.8 668.7,37.0 670.0,35.5 C 670.0,35.5 671.3,34.0 672.3,32.5 C 672.3,32.5 673.3,31.0 674.3,29.5 C 674.3,29.5 675.3,28.0 675.8,26.5 C 675.8,26.5 676.3,25.0 676.7,23.7 C 676.7,23.7 677.0,22.3 676.7,21.0 C 676.7,21.0 676.3,19.7 675.7,18.7 C 675.7,18.7 675.0,17.7 674.0,17.0 C 674.0,17.0 673.0,16.3 672.0,16.2 C 672.0,16.2 671.0,16.0 669.7,16.2 C 669.7,16.2 668.3,16.3 666.8,16.7 C 666.8,16.7 665.3,17.0 663.3,17.7 C 663.3,17.7 661.3,18.3 659.2,19.0 C 659.2,19.0 657.0,19.7 654.2,20.7 C 654.2,20.7 651.3,21.7 648.2,22.7 C 648.2,22.7 645.0,23.7 641.3,25.0 C 641.3,25.0 637.7,26.3 633.7,27.7 C 633.7,27.7 629.7,29.0 625.2,30.5 C 625.2,30.5 620.7,32.0 615.8,33.5 C 615.8,33.5 611.0,35.0 606.0,36.5 C 606.0,36.5 601.0,38.0 595.8,39.7 C 595.8,39.7 590.7,41.3 585.3,43.0 C 585.3,43.0 580.0,44.7 574.3,46.5 C 574.3,46.5 568.7,48.3 563.0,50.0 C 563.0,50.0 557.3,51.7 551.5,53.3 C 551.5,53.3 545.7,55.0 539.8,56.7 C 539.8,56.7 534.0,58.3 527.8,60.0 C 527.8,60.0 521.7,61.7 515.3,63.3 C 515.3,63.3 509.0,65.0 502.7,66.5 C 502.7,66.5 496.3,68.0 490.0,69.5 C 490.0,69.5 483.7,71.0 477.3,72.5 C 477.3,72.5 471.0,74.0 464.3,75.3 C 464.3,75.3 457.7,76.7 451.0,78.0 C 451.0,78.0 444.3,79.3 437.5,80.5 C 437.5,80.5 430.7,81.7 424.0,82.8 C 424.0,82.8 417.3,84.0 410.5,85.0 C 410.5,85.0 403.7,86.0 396.8,87.2 C 396.8,87.2 390.0,88.3 383.2,89.3 C 383.2,89.3 376.3,90.3 369.2,91.5 C 369.2,91.5 362.0,92.7 354.8,93.5 C 354.8,93.5 347.7,94.3 340.3,95.3 C 340.3,95.3 333.0,96.3 326.2,97.2 C 326.2,97.2 319.3,98.0 312.8,98.8 C 312.8,98.8 306.3,99.7 300.8,100.3 C 300.8,100.3 295.3,101.0 291.0,101.5 C 291.0,101.5 286.7,102.0 283.7,102.5 C 283.7,102.5 280.7,103.0 278.2,103.5 C 278.2,103.5 275.7,104.0 273.7,104.5 C 273.7,104.5 271.7,105.0 270.0,105.3 C 270.0,105.3 268.3,105.7 267.2,106.0 C 267.2,106.0 266.0,106.3 265.0,106.5 C 265.0,106.5 264.0,106.7 263.0,107.0 C 263.0,107.0 262.0,107.3 261.0,107.7 C 261.0,107.7 260.0,108.0 259.3,108.7 C 259.3,108.7 258.7,109.3 258.2,110.0 C 258.2,110.0 257.7,110.7 257.7,111.5 C 257.7,111.5 257.7,112.3 257.7,113.0 C 257.7,113.0 257.7,113.7 258.2,114.5 C 258.2,114.5 258.7,115.3 259.3,116.2 C 259.3,116.2 260.0,117.0 261.0,118.2 C 261.0,118.2 262.0,119.3 263.2,120.7 C 263.2,120.7 264.3,122.0 265.8,123.8 C 265.8,123.8 267.3,125.7 269.2,127.8 C 269.2,127.8 271.0,130.0 273.0,132.5 C 273.0,132.5 275.0,135.0 279.5,141.0 L 284,147" stroke="#3B82F6" stroke-width="2" fill="none" vector-effect="non-scaling-stroke"/><path d="M 284,147 C 285.2,148.8 286.5,150.5 287.8,152.2 C 287.8,152.2 289.0,154.0 291.2,157.2 C 291.2,157.2 293.3,160.3 294.8,163.0 C 294.8,163.0 296.3,165.7 297.2,167.7 C 297.2,167.7 298.0,169.7 298.3,171.2 C 298.3,171.2 298.7,172.7 298.7,174.0 C 298.7,174.0 298.7,175.3 298.2,176.3 C 298.2,176.3 297.7,177.3 296.7,178.2 C 296.7,178.2 295.7,179.0 294.3,179.5 C 294.3,179.5 293.0,180.0 291.5,180.3 C 291.5,180.3 290.0,180.7 288.2,181.0 C 288.2,181.0 286.3,181.3 284.3,181.5 C 284.3,181.5 282.3,181.7 280.2,181.7 C 280.2,181.7 278.0,181.7 276.0,181.3 C 276.0,181.3 274.0,181.0 272.0,180.3 C 272.0,180.3 270.0,179.7 268.2,178.7 C 268.2,178.7 266.3,177.7 265.0,176.2 C 265.0,176.2 263.7,174.7 262.8,173.0 C 262.8,173.0 262.0,171.3 261.5,169.3 C 261.5,169.3 261.0,167.3 260.3,165.3 C 260.3,165.3 259.7,163.3 258.7,161.2 C 258.7,161.2 257.7,159.0 256.3,157.2 C 256.3,157.2 255.0,155.3 253.5,153.7 C 253.5,153.7 252.0,152.0 250.5,150.5 C 250.5,150.5 249.0,149.0 247.3,147.7 C 247.3,147.7 245.7,146.3 244.0,145.0 C 244.0,145.0 242.3,143.7 240.5,142.7 C 240.5,142.7 238.7,141.7 236.8,140.8 C 236.8,140.8 235.0,140.0 233.2,139.7 C 233.2,139.7 231.3,139.3 229.5,139.2 C 229.5,139.2 227.7,139.0 226.0,139.3 C 226.0,139.3 224.3,139.7 222.8,140.3 C 222.8,140.3 221.3,141.0 220.3,142.0 C 220.3,142.0 219.3,143.0 219.0,144.2 C 219.0,144.2 218.7,145.3 218.8,146.5 C 218.8,146.5 219.0,147.7 219.7,149.0 C 219.7,149.0 220.3,150.3 221.2,152.0 C 221.2,152.0 222.0,153.7 223.2,155.7 C 223.2,155.7 224.3,157.7 225.7,160.2 C 225.7,160.2 227.0,162.7 228.7,165.3 C 228.7,165.3 230.3,168.0 232.2,171.0 C 232.2,171.0 234.0,174.0 235.8,177.0 C 235.8,177.0 237.7,180.0 239.5,182.8 C 239.5,182.8 241.3,185.7 243.0,188.3 C 243.0,188.3 244.7,191.0 246.2,193.2 C 246.2,193.2 247.7,195.3 248.8,197.3 C 248.8,197.3 250.0,199.3 250.8,201.0 C 250.8,201.0 251.7,202.7 252.3,204.5 C 252.3,204.5 253.0,206.3 253.3,208.3 C 253.3,208.3 253.7,210.3 253.7,212.5 C 253.7,212.5 253.7,214.7 253.3,217.0 C 253.3,217.0 253.0,219.3 252.3,221.5 C 252.3,221.5 251.7,223.7 250.8,226.2 C 250.8,226.2 250.0,228.7 248.8,231.0 C 248.8,231.0 247.7,233.3 246.2,235.7 C 246.2,235.7 244.7,238.0 242.7,240.0 C 242.7,240.0 240.7,242.0 238.3,243.8 C 238.3,243.8 236.0,245.7 233.5,247.3 C 233.5,247.3 231.0,249.0 228.3,250.3 C 228.3,250.3 225.7,251.7 223.0,252.8 C 223.0,252.8 220.3,254.0 217.5,254.8 C 217.5,254.8 214.7,255.7 212.0,256.2 C 212.0,256.2 209.3,256.7 206.5,256.7 C 206.5,256.7 203.7,256.7 201.0,256.3 C 201.0,256.3 198.3,256.0 195.7,255.5 C 195.7,255.5 193.0,255.0 190.5,254.3 C 190.5,254.3 188.0,253.7 185.5,252.8 C 185.5,252.8 183.0,252.0 180.7,250.8 C 180.7,250.8 178.3,249.7 176.0,248.3 C 176.0,248.3 173.7,247.0 171.7,245.3 C 171.7,245.3 169.7,243.7 167.7,241.8 C 167.7,241.8 165.7,240.0 164.0,238.0 C 164.0,238.0 162.3,236.0 160.5,234.0 C 160.5,234.0 158.7,232.0 157.0,229.8 C 157.0,229.8 155.3,227.7 153.7,225.5 C 153.7,225.5 152.0,223.3 150.3,220.8 C 150.3,220.8 148.7,218.3 146.8,215.8 C 146.8,215.8 145.0,213.3 143.0,210.5 C 143.0,210.5 141.0,207.7 139.0,205.2 C 139.0,205.2 137.0,202.7 135.2,200.3 C 135.2,200.3 133.3,198.0 131.8,196.3 C 131.8,196.3 130.3,194.7 129.2,193.3 C 129.2,193.3 128.0,192.0 127.0,191.0 C 127.0,191.0 126.0,190.0 124.8,189.0 C 124.8,189.0 123.7,188.0 122.3,187.2 C 122.3,187.2 121.0,186.3 119.5,185.8 C 119.5,185.8 118.0,185.3 116.5,185.3 C 116.5,185.3 115.0,185.3 113.3,185.7 C 113.3,185.7 111.7,186.0 109.8,186.5 C 109.8,186.5 108.0,187.0 106.0,187.7 C 106.0,187.7 104.0,188.3 102.0,189.2 C 102.0,189.2 100.0,190.0 97.8,191.0 C 97.8,191.0 95.7,192.0 93.0,193.2 C 93.0,193.2 90.3,194.3 87.2,195.7 C 87.2,195.7 84.0,197.0 80.5,198.7 C 80.5,198.7 77.0,200.3 73.2,202.0 C 73.2,202.0 69.3,203.7 65.2,205.7 C 65.2,205.7 61.0,207.7 56.7,209.5 C 56.7,209.5 52.3,211.3 48.5,213.2 C 48.5,213.2 44.7,215.0 41.7,216.3 C 41.7,216.3 38.7,217.7 36.5,218.7 C 36.5,218.7 34.3,219.7 32.7,220.3 C 32.7,220.3 31.0,221.0 29.7,221.7 C 29.7,221.7 28.3,222.3 27.2,223.2 C 27.2,223.2 26.0,224.0 25.2,225.0 C 25.2,225.0 24.3,226.0 23.8,227.2 C 23.8,227.2 23.3,228.3 23.5,229.7 C 23.5,229.7 23.7,231.0 24.2,232.3 C 24.2,232.3 24.7,233.7 25.7,235.0 C 25.7,235.0 26.7,236.3 27.8,237.7 C 27.8,237.7 29.0,239.0 30.7,240.5 C 30.7,240.5 32.3,242.0 34.3,243.5 C 34.3,243.5 36.3,245.0 38.7,246.7 C 38.7,246.7 41.0,248.3 43.7,250.3 C 43.7,250.3 46.3,252.3 49.3,254.7 C 49.3,254.7 52.3,257.0 57.7,260.5 L 63,264" stroke="#374151" stroke-width="8" fill="none" vector-effect="non-scaling-stroke"/><path d="M 284,147 C 285.2,148.8 286.5,150.5 287.8,152.2 C 287.8,152.2 289.0,154.0 291.2,157.2 C 291.2,157.2 293.3,160.3 294.8,163.0 C 294.8,163.0 296.3,165.7 297.2,167.7 C 297.2,167.7 298.0,169.7 298.3,171.2 C 298.3,171.2 298.7,172.7 298.7,174.0 C 298.7,174.0 298.7,175.3 298.2,176.3 C 298.2,176.3 297.7,177.3 296.7,178.2 C 296.7,178.2 295.7,179.0 294.3,179.5 C 294.3,179.5 293.0,180.0 291.5,180.3 C 291.5,180.3 290.0,180.7 288.2,181.0 C 288.2,181.0 286.3,181.3 284.3,181.5 C 284.3,181.5 282.3,181.7 280.2,181.7 C 280.2,181.7 278.0,181.7 276.0,181.3 C 276.0,181.3 274.0,181.0 272.0,180.3 C 272.0,180.3 270.0,179.7 268.2,178.7 C 268.2,178.7 266.3,177.7 265.0,176.2 C 265.0,176.2 263.7,174.7 262.8,173.0 C 262.8,173.0 262.0,171.3 261.5,169.3 C 261.5,169.3 261.0,167.3 260.3,165.3 C 260.3,165.3 259.7,163.3 258.7,161.2 C 258.7,161.2 257.7,159.0 256.3,157.2 C 256.3,157.2 255.0,155.3 253.5,153.7 C 253.5,153.7 252.0,152.0 250.5,150.5 C 250.5,150.5 249.0,149.0 247.3,147.7 C 247.3,147.7 245.7,146.3 244.0,145.0 C 244.0,145.0 242.3,143.7 240.5,142.7 C 240.5,142.7 238.7,141.7 236.8,140.8 C 236.8,140.8 235.0,140.0 233.2,139.7 C 233.2,139.7 231.3,139.3 229.5,139.2 C 229.5,139.2 227.7,139.0 226.0,139.3 C 226.0,139.3 224.3,139.7 222.8,140.3 C 222.8,140.3 221.3,141.0 220.3,142.0 C 220.3,142.0 219.3,143.0 219.0,144.2 C 219.0,144.2 218.7,145.3 218.8,146.5 C 218.8,146.5 219.0,147.7 219.7,149.0 C 219.7,149.0 220.3,150.3 221.2,152.0 C 221.2,152.0 222.0,153.7 223.2,155.7 C 223.2,155.7 224.3,157.7 225.7,160.2 C 225.7,160.2 227.0,162.7 228.7,165.3 C 228.7,165.3 230.3,168.0 232.2,171.0 C 232.2,171.0 234.0,174.0 235.8,177.0 C 235.8,177.0 237.7,180.0 239.5,182.8 C 239.5,182.8 241.3,185.7 243.0,188.3 C 243.0,188.3 244.7,191.0 246.2,193.2 C 246.2,193.2 247.7,195.3 248.8,197.3 C 248.8,197.3 250.0,199.3 250.8,201.0 C 250.8,201.0 251.7,202.7 252.3,204.5 C 252.3,204.5 253.0,206.3 253.3,208.3 C 253.3,208.3 253.7,210.3 253.7,212.5 C 253.7,212.5 253.7,214.7 253.3,217.0 C 253.3,217.0 253.0,219.3 252.3,221.5 C 252.3,221.5 251.7,223.7 250.8,226.2 C 250.8,226.2 250.0,228.7 248.8,231.0 C 248.8,231.0 247.7,233.3 246.2,235.7 C 246.2,235.7 244.7,238.0 242.7,240.0 C 242.7,240.0 240.7,242.0 238.3,243.8 C 238.3,243.8 236.0,245.7 233.5,247.3 C 233.5,247.3 231.0,249.0 228.3,250.3 C 228.3,250.3 225.7,251.7 223.0,252.8 C 223.0,252.8 220.3,254.0 217.5,254.8 C 217.5,254.8 214.7,255.7 212.0,256.2 C 212.0,256.2 209.3,256.7 206.5,256.7 C 206.5,256.7 203.7,256.7 201.0,256.3 C 201.0,256.3 198.3,256.0 195.7,255.5 C 195.7,255.5 193.0,255.0 190.5,254.3 C 190.5,254.3 188.0,253.7 185.5,252.8 C 185.5,252.8 183.0,252.0 180.7,250.8 C 180.7,250.8 178.3,249.7 176.0,248.3 C 176.0,248.3 173.7,247.0 171.7,245.3 C 171.7,245.3 169.7,243.7 167.7,241.8 C 167.7,241.8 165.7,240.0 164.0,238.0 C 164.0,238.0 162.3,236.0 160.5,234.0 C 160.5,234.0 158.7,232.0 157.0,229.8 C 157.0,229.8 155.3,227.7 153.7,225.5 C 153.7,225.5 152.0,223.3 150.3,220.8 C 150.3,220.8 148.7,218.3 146.8,215.8 C 146.8,215.8 145.0,213.3 143.0,210.5 C 143.0,210.5 141.0,207.7 139.0,205.2 C 139.0,205.2 137.0,202.7 135.2,200.3 C 135.2,200.3 133.3,198.0 131.8,196.3 C 131.8,196.3 130.3,194.7 129.2,193.3 C 129.2,193.3 128.0,192.0 127.0,191.0 C 127.0,191.0 126.0,190.0 124.8,189.0 C 124.8,189.0 123.7,188.0 122.3,187.2 C 122.3,187.2 121.0,186.3 119.5,185.8 C 119.5,185.8 118.0,185.3 116.5,185.3 C 116.5,185.3 115.0,185.3 113.3,185.7 C 113.3,185.7 111.7,186.0 109.8,186.5 C 109.8,186.5 108.0,187.0 106.0,187.7 C 106.0,187.7 104.0,188.3 102.0,189.2 C 102.0,189.2 100.0,190.0 97.8,191.0 C 97.8,191.0 95.7,192.0 93.0,193.2 C 93.0,193.2 90.3,194.3 87.2,195.7 C 87.2,195.7 84.0,197.0 80.5,198.7 C 80.5,198.7 77.0,200.3 73.2,202.0 C 73.2,202.0 69.3,203.7 65.2,205.7 C 65.2,205.7 61.0,207.7 56.7,209.5 C 56.7,209.5 52.3,211.3 48.5,213.2 C 48.5,213.2 44.7,215.0 41.7,216.3 C 41.7,216.3 38.7,217.7 36.5,218.7 C 36.5,218.7 34.3,219.7 32.7,220.3 C 32.7,220.3 31.0,221.0 29.7,221.7 C 29.7,221.7 28.3,222.3 27.2,223.2 C 27.2,223.2 26.0,224.0 25.2,225.0 C 25.2,225.0 24.3,226.0 23.8,227.2 C 23.8,227.2 23.3,228.3 23.5,229.7 C 23.5,229.7 23.7,231.0 24.2,232.3 C 24.2,232.3 24.7,233.7 25.7,235.0 C 25.7,235.0 26.7,236.3 27.8,237.7 C 27.8,237.7 29.0,239.0 30.7,240.5 C 30.7,240.5 32.3,242.0 34.3,243.5 C 34.3,243.5 36.3,245.0 38.7,246.7 C 38.7,246.7 41.0,248.3 43.7,250.3 C 43.7,250.3 46.3,252.3 49.3,254.7 C 49.3,254.7 52.3,257.0 57.7,260.5 L 63,264" stroke="#FBBF24" stroke-width="2" fill="none" vector-effect="non-scaling-stroke"/>
    <g id="moving-circle-group">
        <circle cx="63" cy="264" r="20" fill="#000000" vector-effect="non-scaling-stroke"/>
        <circle cx="63" cy="264" r="7" fill="#FFFFFF" vector-effect="non-scaling-stroke"/>
    </g></svg>