<?xml version="1.0" encoding="UTF-8"?>
<svg id="minimap-svg" xmlns="http://www.w3.org/2000/svg" version="1.1" viewBox="0 0 1718.93 1080">
  <!-- Generator: Adobe Illustrator 30.0.0, SVG Export Plug-In . SVG Version: 2.1.1 Build 123)  -->
  <defs>
    <style>
      .st0 {
        stroke: #ef4444;
      }

      .st0, .st1, .st2, .st3 {
        fill: none;
        stroke-miterlimit: 9.71;
      }

      .st0, .st2, .st3 {
        stroke-width: 4.85px;
      }

      .st4 {
        fill: #fff;
      }

      .st1 {
        stroke: #000;
        stroke-width: 19.42px;
      }

      .st2 {
        stroke: #3b82f6;
      }

      .st3 {
        stroke: #fbbf24;
      }
    </style>
  </defs>
  <g>
    <path class="st1" d="M636.19,266.97c2.91,6.8,6.07,13.35,9.47,19.9,0,0,3.4,6.8,10.44,20.63,0,0,6.8,13.59,14.08,27.91,0,0,7.28,14.08,14.56,29.12,0,0,7.28,14.8,15.05,30.34,0,0,7.52,15.29,15.29,31.07,0,0,7.77,15.78,15.78,32.04,0,0,8.01,16.02,16.26,32.28,0,0,8.01,16.26,15.78,31.55,0,0,7.52,15.29,14.08,28.4,0,0,6.55,12.86,11.41,22.57l8.49,16.99s3.64,7.28,6.31,12.86c0,0,2.91,5.82,5.34,10.68,0,0,2.43,4.85,4.85,8.74,0,0,2.43,4.13,5.58,7.28,0,0,3.4,3.4,7.04,6.07,0,0,3.64,2.91,8.49,4.61,0,0,4.85,1.46,9.95,1.94,0,0,5.34.49,10.92-.49,0,0,5.82-.73,11.41-2.67,0,0,5.58-2.18,11.65-4.85,0,0,6.07-2.91,13.11-7.04,0,0,6.8-3.88,14.56-8.74,0,0,7.52-4.85,16.02-10.92,0,0,8.49-6.07,18.69-13.11,0,0,10.19-6.8,21.11-13.59,0,0,10.92-7.04,20.87-13.35,0,0,10.19-6.55,18.2-11.89,0,0,8.25-5.1,14.32-8.74,0,0,6.07-3.64,10.92-6.55,0,0,4.85-2.91,8.74-5.58,0,0,4.13-2.91,7.28-6.55,0,0,3.4-3.64,6.55-7.77,0,0,3.16-3.88,6.07-8.01,0,0,2.91-4.13,5.34-8.98,0,0,2.43-4.85,3.64-9.95,0,0,1.21-5.34,1.94-11.89,0,0,.73-6.31.73-13.59v-15.05s0-7.77-.73-16.26c0,0-.73-8.49-.73-16.99,0,0,0-8.49.24-17.23,0,0,.49-8.98,2.18-17.47,0,0,1.46-8.49,3.88-16.5,0,0,2.43-8.25,5.82-16.26,0,0,3.16-8.01,7.28-15.78,0,0,3.88-7.77,8.74-15.29,0,0,4.85-7.77,10.92-14.56,0,0,6.07-7.04,13.11-12.62,0,0,6.8-5.58,14.8-10.19,0,0,8.25-4.37,16.99-7.52,0,0,8.98-3.4,18.69-5.82,0,0,9.71-2.43,19.42-3.64,0,0,9.71-1.21,19.9-1.46,0,0,9.95-.49,20.14-.49,0,0,10.19,0,20.63-.49,0,0,10.44-.24,21.11-1.46,0,0,10.44-1.21,21.84-3.4,0,0,11.16-1.94,23.06-4.85,0,0,11.65-2.67,23.78-6.31,0,0,12.13-3.64,24.27-8.49,0,0,12.13-4.85,25-10.19,0,0,13.11-5.34,38.83-17.72l25.97-12.62" vector-effect="non-scaling-stroke"/>
    <path class="st1" d="M1451.65,199.01c7.28-2.91,14.56-6.07,21.84-9.47,0,0,7.28-3.4,21.11-9.95,0,0,13.59-6.55,25.73-12.62,0,0,12.13-6.07,22.81-11.16,0,0,10.44-5.34,19.66-9.71,0,0,9.47-4.61,18.2-8.49,0,0,8.98-4.13,16.75-7.77,0,0,7.52-3.64,14.08-6.55,0,0,6.55-2.67,11.41-5.1,0,0,4.85-2.43,8.74-4.61,0,0,4.13-1.94,7.77-4.37,0,0,3.64-2.43,6.8-5.34,0,0,3.4-2.67,5.82-6.07,0,0,2.43-3.16,3.88-7.28,0,0,1.7-3.88,2.43-8.01,0,0,.97-4.13.97-8.49,0,0,0-4.37-1.21-8.49,0,0-1.21-4.13-3.4-8.01,0,0-1.94-4.13-5.1-7.28,0,0-3.4-3.4-7.28-6.07,0,0-4.13-2.91-9.47-4.61,0,0-5.1-1.46-11.16-2.43,0,0-6.07-.73-13.11-.73h-33.01s-9.47,0-20.39.49c0,0-10.92.24-23.06,1.21,0,0-12.13.73-25.48,1.46,0,0-13.35.97-27.91,1.21,0,0-14.56.49-29.37.49h-30.82s-15.78,0-32.04.49c0,0-16.02.24-33.01.73,0,0-16.99.49-34.95.73,0,0-17.72.49-35.92.49h-395.6s-21.36,0-42.96.49c0,0-21.36.24-42.71.73,0,0-21.6.49-42.96,1.21,0,0-21.36.73-43.2,1.21,0,0-21.84.49-44.17.73,0,0-22.33.49-43.69.49h-186.39s-5.82,0-9.71.49c0,0-4.13.24-7.28.73,0,0-3.4.49-6.07,1.21,0,0-2.91.73-5.34,1.94,0,0-2.43,1.21-4.37,3.4,0,0-2.18,1.94-3.64,4.37,0,0-1.7,2.43-2.18,5.58,0,0-.24,3.4.49,7.04,0,0,.73,3.64,2.91,7.52,0,0,1.94,4.13,4.37,8.25,0,0,2.43,3.88,4.37,8.01,0,0,2.18,4.13,3.4,8.01,0,0,1.21,4.13.73,8.25,0,0-.49,3.88-1.94,8.01,0,0-1.7,4.13-4.61,7.77,0,0-2.67,3.64-6.8,6.8,0,0-4.13,3.16-9.22,6.55,0,0-5.34,3.16-11.41,7.28,0,0-6.07,3.88-12.13,8.01,0,0-6.07,4.13-12.13,8.49,0,0-6.07,4.37-12.13,8.49,0,0-6.07,4.13-12.13,8.98,0,0-6.07,4.85-12.62,9.71,0,0-6.31,4.85-13.35,10.92,0,0-6.8,6.07-13.59,12.38,0,0-7.04,6.55-13.83,14.32,0,0-6.8,7.52-13.35,16.02,0,0-6.55,8.49-12.86,18.2,0,0-6.55,9.71-12.62,20.39,0,0-6.07,10.44-12.13,21.84,0,0-6.07,11.16-11.65,23.06,0,0-5.82,11.65-10.92,24.27,0,0-5.34,12.38-10.19,25,0,0-4.85,12.62-10.19,26.21,0,0-5.1,13.83-10.44,27.91,0,0-5.34,14.32-10.92,29.61,0,0-5.58,15.29-10.92,31.07,0,0-5.34,15.78-10.92,32.52,0,0-5.58,16.5-10.92,33.98,0,0-5.34,17.23-10.92,34.71,0,0-5.58,17.47-10.92,35.68,0,0-5.34,18.2-10.19,36.4,0,0-4.85,18.2-9.22,37.13,0,0-4.37,18.93-8.01,38.35,0,0-3.64,19.42-7.28,39.32,0,0-3.64,19.9-8.25,51.69l-4.37,32.04" vector-effect="non-scaling-stroke"/>
    <path class="st1" d="M65.85,866.43c-.49,9.22-1.21,18.2-1.94,26.21,0,0-.49,7.77-1.21,22.33,0,0-.97,14.56-1.21,25.97,0,0-.49,11.16-.97,19.66,0,0-.24,8.49-.24,15.53,0,0,0,6.8.24,12.38,0,0,.49,5.82,2.43,10.92,0,0,2.18,5.34,4.85,9.71,0,0,2.91,4.61,6.55,8.49,0,0,3.64,4.13,8.01,7.77,0,0,4.61,3.64,9.71,6.8,0,0,5.34,3.4,11.41,5.82,0,0,6.07,2.43,12.62,3.64,0,0,6.31,1.21,13.59,1.46,0,0,7.28.49,15.05-.73,0,0,7.77-1.21,15.05-3.64,0,0,7.28-2.43,14.08-6.55,0,0,6.8-3.88,12.62-8.74,0,0,5.58-4.85,10.92-10.92,0,0,5.1-6.07,8.74-13.35,0,0,3.64-7.28,6.07-15.78,0,0,2.43-8.49,3.4-17.47,0,0,.73-8.98,0-17.72,0,0-.97-8.98-2.18-18.2,0,0-1.21-9.47-3.64-19.42,0,0-2.43-10.19-5.1-21.6,0,0-2.91-11.16-6.55-23.3,0,0-3.64-12.13-7.28-25.48,0,0-3.64-13.35-7.28-27.91,0,0-3.64-14.56-6.8-29.61,0,0-3.4-15.05-5.82-29.12,0,0-2.43-14.08-3.16-26.21,0,0-.73-12.13-.49-22.33,0,0,.49-10.19,2.18-19.9,0,0,1.46-9.71,3.64-18.93,0,0,1.94-9.22,4.85-18.93,0,0,2.67-9.71,5.1-17.96,0,0,2.43-8.01,4.85-14.8,0,0,2.43-7.04,4.61-12.13,0,0,1.94-5.34,4.85-10.19,0,0,2.67-4.85,6.07-9.22,0,0,3.16-4.61,7.28-8.98,0,0,3.88-4.37,8.74-8.49,0,0,4.85-4.13,10.92-8.49,0,0,6.07-4.37,13.35-8.98,0,0,7.28-4.37,15.05-9.22,0,0,7.77-4.85,15.05-8.98,0,0,7.28-3.88,13.35-7.28,0,0,6.07-3.16,11.16-4.85,0,0,5.34-1.46,9.71-1.94,0,0,4.61-.49,8.49,1.21,0,0,4.13,1.7,7.77,4.37,0,0,3.64,2.91,7.28,7.28,0,0,3.64,4.61,6.8,9.71,0,0,3.4,5.34,6.55,12.13,0,0,3.16,7.04,6.55,13.35,0,0,3.16,6.55,6.8,12.62,0,0,3.64,6.07,7.28,10.44,0,0,3.64,4.61,7.77,8.25,0,0,3.88,3.64,8.74,6.07,0,0,4.85,2.43,10.68,3.88,0,0,5.58,1.7,11.16,2.18,0,0,5.82.24,11.89-.49,0,0,6.07-.73,12.38-2.91,0,0,6.55-1.94,13.35-4.37,0,0,7.04-2.43,13.11-4.37,0,0,6.07-2.18,11.16-4.13,0,0,5.34-1.94,9.71-4.37,0,0,4.61-2.43,7.77-6.07,0,0,3.16-3.64,5.58-8.25,0,0,2.43-4.37,3.64-9.71,0,0,1.21-5.1,2.18-10.92,0,0,.73-5.58.24-11.65,0,0-.24-6.07-1.46-12.62,0,0-1.21-6.31-4.13-13.59,0,0-2.91-7.28-6.55-15.53,0,0-3.64-8.01-8.01-16.99l-9.22-18.44s-4.85-9.71-10.68-20.63c0,0-5.58-10.92-12.13-23.06,0,0-6.31-12.13-12.86-25.24,0,0-6.55-12.86-12.62-25,0,0-6.07-12.13-10.44-23.06,0,0-4.37-10.92-7.77-20.63,0,0-3.16-9.71-4.37-19.42,0,0-1.21-9.71-.73-18.93,0,0,.24-9.47,3.16-17.47,0,0,2.91-8.01,7.28-15.29,0,0,4.37-7.28,10.44-14.56,0,0,6.07-7.28,13.35-15.53,0,0,7.28-8.01,15.53-16.5l16.02-16.99s8.25-8.49,15.53-16.26c0,0,7.28-7.52,12.86-13.59,0,0,5.58-6.07,10.19-10.19,0,0,4.37-4.13,7.52-6.55,0,0,3.4-2.43,6.07-3.88,0,0,2.91-1.7,5.82-2.91,0,0,2.67-1.21,5.58-2.91,0,0,2.91-1.46,6.55-3.16,0,0,3.64-1.7,7.52-3.16,0,0,4.13-1.7,8.98-2.18,0,0,4.85-.24,8.98.49,0,0,3.88.73,7.28,3.16,0,0,3.16,2.43,6.07,6.55,0,0,2.67,4.13,5.58,9.22,0,0,2.91,5.34,6.55,11.89,0,0,3.64,6.31,7.28,14.08,0,0,3.64,7.77,8.49,16.5,0,0,4.85,8.98,9.71,19.42,0,0,4.85,10.68,10.92,21.84,0,0,6.07,11.41,12.38,24.76l6.55,13.35" vector-effect="non-scaling-stroke"/>
  </g>
  <path class="st0" d="M636.19,266.97c2.91,6.8,6.07,13.35,9.47,19.9,0,0,3.4,6.8,10.44,20.63,0,0,6.8,13.59,14.08,27.91,0,0,7.28,14.08,14.56,29.12,0,0,7.28,14.8,15.05,30.34,0,0,7.52,15.29,15.29,31.07,0,0,7.77,15.78,15.78,32.04,0,0,8.01,16.02,16.26,32.28,0,0,8.01,16.26,15.78,31.55,0,0,7.52,15.29,14.08,28.4,0,0,6.55,12.86,11.41,22.57l8.49,16.99s3.64,7.28,6.31,12.86c0,0,2.91,5.82,5.34,10.68,0,0,2.43,4.85,4.85,8.74,0,0,2.43,4.13,5.58,7.28,0,0,3.4,3.4,7.04,6.07,0,0,3.64,2.91,8.49,4.61,0,0,4.85,1.46,9.95,1.94,0,0,5.34.49,10.92-.49,0,0,5.82-.73,11.41-2.67,0,0,5.58-2.18,11.65-4.85,0,0,6.07-2.91,13.11-7.04,0,0,6.8-3.88,14.56-8.74,0,0,7.52-4.85,16.02-10.92,0,0,8.49-6.07,18.69-13.11,0,0,10.19-6.8,21.11-13.59,0,0,10.92-7.04,20.87-13.35,0,0,10.19-6.55,18.2-11.89,0,0,8.25-5.1,14.32-8.74,0,0,6.07-3.64,10.92-6.55,0,0,4.85-2.91,8.74-5.58,0,0,4.13-2.91,7.28-6.55,0,0,3.4-3.64,6.55-7.77,0,0,3.16-3.88,6.07-8.01,0,0,2.91-4.13,5.34-8.98,0,0,2.43-4.85,3.64-9.95,0,0,1.21-5.34,1.94-11.89,0,0,.73-6.31.73-13.59v-15.05s0-7.77-.73-16.26c0,0-.73-8.49-.73-16.99,0,0,0-8.49.24-17.23,0,0,.49-8.98,2.18-17.47,0,0,1.46-8.49,3.88-16.5,0,0,2.43-8.25,5.82-16.26,0,0,3.16-8.01,7.28-15.78,0,0,3.88-7.77,8.74-15.29,0,0,4.85-7.77,10.92-14.56,0,0,6.07-7.04,13.11-12.62,0,0,6.8-5.58,14.8-10.19,0,0,8.25-4.37,16.99-7.52,0,0,8.98-3.4,18.69-5.82,0,0,9.71-2.43,19.42-3.64,0,0,9.71-1.21,19.9-1.46,0,0,9.95-.49,20.14-.49,0,0,10.19,0,20.63-.49,0,0,10.44-.24,21.11-1.46,0,0,10.44-1.21,21.84-3.4,0,0,11.16-1.94,23.06-4.85,0,0,11.65-2.67,23.78-6.31,0,0,12.13-3.64,24.27-8.49,0,0,12.13-4.85,25-10.19,0,0,13.11-5.34,38.83-17.72l25.97-12.62" vector-effect="non-scaling-stroke"/>
  <path class="st2" d="M1451.65,199.01c7.28-2.91,14.56-6.07,21.84-9.47,0,0,7.28-3.4,21.11-9.95,0,0,13.59-6.55,25.73-12.62,0,0,12.13-6.07,22.81-11.16,0,0,10.44-5.34,19.66-9.71,0,0,9.47-4.61,18.2-8.49,0,0,8.98-4.13,16.75-7.77,0,0,7.52-3.64,14.08-6.55,0,0,6.55-2.67,11.41-5.1,0,0,4.85-2.43,8.74-4.61,0,0,4.13-1.94,7.77-4.37,0,0,3.64-2.43,6.8-5.34,0,0,3.4-2.67,5.82-6.07,0,0,2.43-3.16,3.88-7.28,0,0,1.7-3.88,2.43-8.01,0,0,.97-4.13.97-8.49,0,0,0-4.37-1.21-8.49,0,0-1.21-4.13-3.4-8.01,0,0-1.94-4.13-5.1-7.28,0,0-3.4-3.4-7.28-6.07,0,0-4.13-2.91-9.47-4.61,0,0-5.1-1.46-11.16-2.43,0,0-6.07-.73-13.11-.73h-33.01s-9.47,0-20.39.49c0,0-10.92.24-23.06,1.21,0,0-12.13.73-25.48,1.46,0,0-13.35.97-27.91,1.21,0,0-14.56.49-29.37.49h-30.82s-15.78,0-32.04.49c0,0-16.02.24-33.01.73,0,0-16.99.49-34.95.73,0,0-17.72.49-35.92.49h-395.6s-21.36,0-42.96.49c0,0-21.36.24-42.71.73,0,0-21.6.49-42.96,1.21,0,0-21.36.73-43.2,1.21,0,0-21.84.49-44.17.73,0,0-22.33.49-43.69.49h-186.39s-5.82,0-9.71.49c0,0-4.13.24-7.28.73,0,0-3.4.49-6.07,1.21,0,0-2.91.73-5.34,1.94,0,0-2.43,1.21-4.37,3.4,0,0-2.18,1.94-3.64,4.37,0,0-1.7,2.43-2.18,5.58,0,0-.24,3.4.49,7.04,0,0,.73,3.64,2.91,7.52,0,0,1.94,4.13,4.37,8.25,0,0,2.43,3.88,4.37,8.01,0,0,2.18,4.13,3.4,8.01,0,0,1.21,4.13.73,8.25,0,0-.49,3.88-1.94,8.01,0,0-1.7,4.13-4.61,7.77,0,0-2.67,3.64-6.8,6.8,0,0-4.13,3.16-9.22,6.55,0,0-5.34,3.16-11.41,7.28,0,0-6.07,3.88-12.13,8.01,0,0-6.07,4.13-12.13,8.49,0,0-6.07,4.37-12.13,8.49,0,0-6.07,4.13-12.13,8.98,0,0-6.07,4.85-12.62,9.71,0,0-6.31,4.85-13.35,10.92,0,0-6.8,6.07-13.59,12.38,0,0-7.04,6.55-13.83,14.32,0,0-6.8,7.52-13.35,16.02,0,0-6.55,8.49-12.86,18.2,0,0-6.55,9.71-12.62,20.39,0,0-6.07,10.44-12.13,21.84,0,0-6.07,11.16-11.65,23.06,0,0-5.82,11.65-10.92,24.27,0,0-5.34,12.38-10.19,25,0,0-4.85,12.62-10.19,26.21,0,0-5.1,13.83-10.44,27.91,0,0-5.34,14.32-10.92,29.61,0,0-5.58,15.29-10.92,31.07,0,0-5.34,15.78-10.92,32.52,0,0-5.58,16.5-10.92,33.98,0,0-5.34,17.23-10.92,34.71,0,0-5.58,17.47-10.92,35.68,0,0-5.34,18.2-10.19,36.4,0,0-4.85,18.2-9.22,37.13,0,0-4.37,18.93-8.01,38.35,0,0-3.64,19.42-7.28,39.32,0,0-3.64,19.9-8.25,51.69l-4.37,32.04" vector-effect="non-scaling-stroke"/>
  <path class="st3" d="M65.85,866.43c-.49,9.22-1.21,18.2-1.94,26.21,0,0-.49,7.77-1.21,22.33,0,0-.97,14.56-1.21,25.97,0,0-.49,11.16-.97,19.66,0,0-.24,8.49-.24,15.53,0,0,0,6.8.24,12.38,0,0,.49,5.82,2.43,10.92,0,0,2.18,5.34,4.85,9.71,0,0,2.91,4.61,6.55,8.49,0,0,3.64,4.13,8.01,7.77,0,0,4.61,3.64,9.71,6.8,0,0,5.34,3.4,11.41,5.82,0,0,6.07,2.43,12.62,3.64,0,0,6.31,1.21,13.59,1.46,0,0,7.28.49,15.05-.73,0,0,7.77-1.21,15.05-3.64,0,0,7.28-2.43,14.08-6.55,0,0,6.8-3.88,12.62-8.74,0,0,5.58-4.85,10.92-10.92,0,0,5.1-6.07,8.74-13.35,0,0,3.64-7.28,6.07-15.78,0,0,2.43-8.49,3.4-17.47,0,0,.73-8.98,0-17.72,0,0-.97-8.98-2.18-18.2,0,0-1.21-9.47-3.64-19.42,0,0-2.43-10.19-5.1-21.6,0,0-2.91-11.16-6.55-23.3,0,0-3.64-12.13-7.28-25.48,0,0-3.64-13.35-7.28-27.91,0,0-3.64-14.56-6.8-29.61,0,0-3.4-15.05-5.82-29.12,0,0-2.43-14.08-3.16-26.21,0,0-.73-12.13-.49-22.33,0,0,.49-10.19,2.18-19.9,0,0,1.46-9.71,3.64-18.93,0,0,1.94-9.22,4.85-18.93,0,0,2.67-9.71,5.1-17.96,0,0,2.43-8.01,4.85-14.8,0,0,2.43-7.04,4.61-12.13,0,0,1.94-5.34,4.85-10.19,0,0,2.67-4.85,6.07-9.22,0,0,3.16-4.61,7.28-8.98,0,0,3.88-4.37,8.74-8.49,0,0,4.85-4.13,10.92-8.49,0,0,6.07-4.37,13.35-8.98,0,0,7.28-4.37,15.05-9.22,0,0,7.77-4.85,15.05-8.98,0,0,7.28-3.88,13.35-7.28,0,0,6.07-3.16,11.16-4.85,0,0,5.34-1.46,9.71-1.94,0,0,4.61-.49,8.49,1.21,0,0,4.13,1.7,7.77,4.37,0,0,3.64,2.91,7.28,7.28,0,0,3.64,4.61,6.8,9.71,0,0,3.4,5.34,6.55,12.13,0,0,3.16,7.04,6.55,13.35,0,0,3.16,6.55,6.8,12.62,0,0,3.64,6.07,7.28,10.44,0,0,3.64,4.61,7.77,8.25,0,0,3.88,3.64,8.74,6.07,0,0,4.85,2.43,10.68,3.88,0,0,5.58,1.7,11.16,2.18,0,0,5.82.24,11.89-.49,0,0,6.07-.73,12.38-2.91,0,0,6.55-1.94,13.35-4.37,0,0,7.04-2.43,13.11-4.37,0,0,6.07-2.18,11.16-4.13,0,0,5.34-1.94,9.71-4.37,0,0,4.61-2.43,7.77-6.07,0,0,3.16-3.64,5.58-8.25,0,0,2.43-4.37,3.64-9.71,0,0,1.21-5.1,2.18-10.92,0,0,.73-5.58.24-11.65,0,0-.24-6.07-1.46-12.62,0,0-1.21-6.31-4.13-13.59,0,0-2.91-7.28-6.55-15.53,0,0-3.64-8.01-8.01-16.99l-9.22-18.44s-4.85-9.71-10.68-20.63c0,0-5.58-10.92-12.13-23.06,0,0-6.31-12.13-12.86-25.24,0,0-6.55-12.86-12.62-25,0,0-6.07-12.13-10.44-23.06,0,0-4.37-10.92-7.77-20.63,0,0-3.16-9.71-4.37-19.42,0,0-1.21-9.71-.73-18.93,0,0,.24-9.47,3.16-17.47,0,0,2.91-8.01,7.28-15.29,0,0,4.37-7.28,10.44-14.56,0,0,6.07-7.28,13.35-15.53,0,0,7.28-8.01,15.53-16.5l16.02-16.99s8.25-8.49,15.53-16.26c0,0,7.28-7.52,12.86-13.59,0,0,5.58-6.07,10.19-10.19,0,0,4.37-4.13,7.52-6.55,0,0,3.4-2.43,6.07-3.88,0,0,2.91-1.7,5.82-2.91,0,0,2.67-1.21,5.58-2.91,0,0,2.91-1.46,6.55-3.16,0,0,3.64-1.7,7.52-3.16,0,0,4.13-1.7,8.98-2.18,0,0,4.85-.24,8.98.49,0,0,3.88.73,7.28,3.16,0,0,3.16,2.43,6.07,6.55,0,0,2.67,4.13,5.58,9.22,0,0,2.91,5.34,6.55,11.89,0,0,3.64,6.31,7.28,14.08,0,0,3.64,7.77,8.49,16.5,0,0,4.85,8.98,9.71,19.42,0,0,4.85,10.68,10.92,21.84,0,0,6.07,11.41,12.38,24.76l6.55,13.35" vector-effect="non-scaling-stroke"/>
  <g id="moving-circle-group">
    <circle cx="636.19" cy="266.97" r="48.54" vector-effect="non-scaling-stroke"/>
    <circle class="st4" cx="636.19" cy="266.97" r="16.99" vector-effect="non-scaling-stroke"/>
  </g>
</svg>