<?xml version="1.0" encoding="UTF-8"?>
<svg id="minimap-svg" xmlns="http://www.w3.org/2000/svg" version="1.1" viewBox="0 0 1726.99 1080">
  <!-- Generator: Adobe Illustrator 30.0.0, SVG Export Plug-In . SVG Version: 2.1.1 Build 123)  -->
  <defs>
    <style>
      .st0 {
        stroke: #ef4444;
      }

      .st0, .st1, .st2, .st3 {
        fill: none;
        stroke-miterlimit: 9.91;
      }

      .st0, .st2, .st3 {
        stroke-width: 4.95px;
      }

      .st4 {
        fill: #fff;
      }

      .st1 {
        stroke: #000;
        stroke-width: 19.82px;
      }

      .st2 {
        stroke: #3b82f6;
      }

      .st3 {
        stroke: #fbbf24;
      }
    </style>
  </defs>
  <g>
    <path class="st1" d="M1311.84,886.79c-6.19,1.98-12.39,3.72-19.07,5.45,0,0-6.44,1.98-19.32,5.7,0,0-12.88,3.72-26.75,7.93,0,0-14.12,3.96-28.24,8.17,0,0-13.87,4.21-29.23,8.67,0,0-15.36,4.46-30.22,8.67,0,0-14.86,4.21-29.97,8.67,0,0-15.36,4.46-29.48,8.67,0,0-13.87,4.21-27.25,8.17,0,0-13.13,4.21-25.51,7.93,0,0-12.39,3.72-24.77,6.94,0,0-12.39,3.47-24.03,6.69,0,0-11.39,3.22-22.29,6.19,0,0-10.65,2.97-20.56,6.19,0,0-9.91,3.22-19.32,6.19,0,0-9.66,2.97-18.33,5.45,0,0-8.67,2.48-16.35,4.46,0,0-7.93,1.98-14.86,4.21,0,0-7.18,1.98-13.62,3.96,0,0-6.69,2.23-12.88,4.21,0,0-6.19,1.98-11.89,3.72,0,0-5.95,1.73-11.64,3.22,0,0-5.7,1.73-11.15,2.97,0,0-5.45,1.24-10.65,2.48,0,0-5.45,1.24-10.4,2.48,0,0-4.95,1.24-9.41,2.97,0,0-4.71,1.49-8.67,3.22,0,0-4.21,1.73-7.93,3.22,0,0-3.72,1.73-7.93,2.48,0,0-3.96.99-8.17,1.24,0,0-4.21.5-8.17,0,0,0-4.21-.25-7.93-1.24,0,0-3.72-.74-6.94-2.72,0,0-3.47-2.23-6.69-4.95,0,0-3.22-2.97-6.19-6.69,0,0-2.97-3.72-5.7-8.17,0,0-2.97-4.71-5.95-9.66,0,0-2.72-4.95-5.7-10.16,0,0-2.97-5.45-6.19-10.4,0,0-3.22-4.95-6.94-10.4,0,0-3.72-5.2-8.42-11.15,0,0-4.46-5.7-9.91-12.39,0,0-5.2-6.44-11.15-13.87,0,0-5.7-7.43-11.89-15.36,0,0-6.19-7.93-12.39-16.6,0,0-6.19-8.67-12.88-17.34,0,0-6.44-8.67-13.13-18.08,0,0-6.69-9.41-13.62-19.07,0,0-6.94-9.41-14.37-19.82,0,0-7.43-10.16-15.36-21.06,0,0-7.93-10.65-16.1-21.8,0,0-8.17-11.15-16.1-21.8,0,0-7.93-10.9-16.1-22.29,0,0-8.17-11.64-16.6-23.53,0,0-8.17-12.14-16.1-24.52,0,0-7.68-12.39-15.11-24.77,0,0-7.43-12.39-14.12-25.02,0,0-6.69-12.88-13.13-26.01,0,0-6.69-13.38-12.88-26.5,0,0-6.19-13.13-12.88-26.75,0,0-6.44-13.62-13.13-27.74,0,0-6.69-14.12-13.62-27.99,0,0-6.94-14.12-13.62-27.25,0,0-6.69-13.38-13.13-26.5,0,0-6.69-13.13-12.88-25.51,0,0-6.19-12.39-12.88-24.77,0,0-6.44-12.39-13.62-24.03,0,0-6.94-11.64-13.87-22.79,0,0-7.18-11.15-14.12-21.3,0,0-6.94-10.4-13.62-19.82,0,0-6.69-9.66-13.62-18.33,0,0-6.94-8.67-13.62-16.84,0,0-6.69-8.17-13.62-16.1,0,0-6.94-7.93-19.07-19.32l-11.89-11.64" vector-effect="non-scaling-stroke"/>
    <path class="st1" d="M216.98,245.23l-10.65-10.65-10.4-10.4-13.62-13.62s-6.69-6.69-13.62-12.88c0,0-6.94-6.19-13.13-11.89,0,0-6.19-5.7-12.39-11.15,0,0-6.19-5.45-12.14-11.64,0,0-5.7-6.19-11.89-11.39,0,0-6.19-5.45-11.89-10.9,0,0-5.94-5.2-10.9-9.91,0,0-4.95-4.46-8.92-8.92,0,0-4.21-4.71-7.93-8.42,0,0-3.72-3.72-6.69-6.19,0,0-2.72-2.48-5.2-4.46,0,0-2.48-1.98-4.71-4.21l-3.96-3.96-3.72-3.72s-1.73-1.73-3.47-2.97c0,0-1.49-1.24-3.22-2.97,0,0-1.73-1.49-2.97-3.22,0,0-1.24-1.73-1.98-3.22,0,0-.74-1.73-1.24-2.97,0,0-.5-1.24-.74-2.97,0,0-.5-1.49-.5-3.22v-3.72s0-1.98.5-3.72c0,0,.25-1.73,1.24-3.22,0,0,.74-1.73,1.98-2.48,0,0,1.24-.99,2.48-1.73,0,0,1.24-.74,2.97-1.24,0,0,1.49-.5,3.72-1.24,0,0,1.98-.74,4.95-1.24,0,0,2.72-.5,6.19-.74,0,0,3.22-.5,7.43-.99,0,0,3.96-.25,8.67-.74,0,0,4.46-.5,9.91-1.24,0,0,5.2-.74,11.15-1.73,0,0,5.7-.74,12.39-1.49,0,0,6.44-.99,13.62-2.23,0,0,6.94-1.24,14.37-1.98,0,0,7.43-.74,14.86-1.98,0,0,7.43-1.24,15.36-1.73,0,0,7.68-.5,16.35-1.24,0,0,8.67-.74,17.34-1.24,0,0,8.67-.5,17.83-.74,0,0,9.17-.5,18.08-.5h19.07s9.91,0,19.32.5c0,0,9.66.25,19.07.74,0,0,9.41.5,19.07,1.24,0,0,9.41.74,19.32,1.73,0,0,9.91.74,20.31,1.98,0,0,10.16,1.24,21.06,2.97,0,0,10.65,1.49,21.3,3.22,0,0,10.9,1.73,21.55,3.22,0,0,10.65,1.73,21.55,3.47,0,0,10.65,1.49,21.3,3.22,0,0,10.9,1.73,22.05,3.72,0,0,11.15,1.98,22.29,3.72,0,0,11.15,1.73,22.54,3.72,0,0,11.64,1.98,23.28,3.72,0,0,11.39,1.73,23.53,3.72,0,0,11.89,1.98,23.53,3.72,0,0,11.39,1.73,22.54,3.72,0,0,11.15,1.98,22.05,3.72,0,0,10.65,1.73,21.3,3.72,0,0,10.9,1.98,21.55,3.72,0,0,10.65,1.73,21.55,3.72,0,0,10.65,1.98,22.29,3.72,0,0,11.39,1.73,22.29,2.97,0,0,10.65,1.24,21.8,1.98,0,0,11.15.74,21.8,1.24,0,0,10.9.5,22.79.74,0,0,11.89.5,23.53.99,0,0,11.64.25,22.79.74,0,0,11.15.5,22.29.74,0,0,11.15.5,21.3.5h65.39s6.19,0,11.39.5c0,0,5.45.25,10.4.74,0,0,4.95.5,9.41.74,0,0,4.71.5,8.67.5h22.29s3.47,0,6.69.5c0,0,3.22.25,6.19,1.24,0,0,2.97.74,6.19,1.98,0,0,3.22,1.24,6.19,2.97,0,0,2.97,1.49,5.7,3.96,0,0,2.97,2.48,5.45,5.45,0,0,2.48,2.97,4.46,6.19,0,0,2.23,3.22,3.47,6.94,0,0,1.24,3.72,1.49,8.42,0,0,.5,4.46-.25,8.92,0,0-.99,4.71-2.48,9.66,0,0-1.73,4.95-4.21,9.41,0,0-2.48,4.46-5.45,9.41,0,0-2.72,4.95-6.19,9.66,0,0-3.22,4.46-6.94,9.41l-7.43,9.91s-3.72,4.95-8.17,10.4c0,0-4.71,5.2-9.66,10.16,0,0-4.95,4.95-10.65,9.91,0,0-5.7,4.95-11.64,9.66,0,0-5.7,4.46-11.89,8.92,0,0-6.19,4.71-12.88,8.67,0,0-6.44,4.21-13.62,7.93,0,0-6.94,3.72-14.37,7.43,0,0-7.43,3.72-15.36,6.94,0,0-7.68,3.47-16.1,5.94,0,0-8.17,2.48-16.84,4.46,0,0-8.67,1.98-17.34,3.22,0,0-8.67,1.24-16.84,2.23,0,0-8.42.74-16.6.74h-16.6s-8.17,0-16.84-.5c0,0-8.67-.25-17.83-1.24,0,0-8.92-.74-18.58-1.98,0,0-9.41-1.24-18.58-2.48,0,0-8.92-1.24-17.59-2.48,0,0-8.67-1.24-16.6-2.48,0,0-7.93-1.24-16.1-2.48,0,0-8.17-1.24-16.1-2.48,0,0-7.93-1.24-15.36-1.98,0,0-7.43-.99-13.87-1.73,0,0-6.69-.74-12.88-1.73,0,0-6.19-.74-11.89-1.98,0,0-5.95-1.24-11.15-1.98,0,0-5.45-.99-10.4-1.73,0,0-4.95-.74-9.91-1.24,0,0-4.95-.5-9.41-.74,0,0-4.71-.5-8.67-.5,0,0-4.21,0-8.42.5,0,0-3.96.25-8.17,1.24,0,0-4.21.74-8.67,2.48,0,0-4.46,1.49-9.17,3.22,0,0-4.46,1.73-8.92,3.72,0,0-4.71,1.98-8.67,4.46,0,0-4.21,2.48-8.42,5.45,0,0-3.96,2.97-8.17,6.69,0,0-4.21,3.72-7.93,7.43,0,0-3.72,3.72-6.94,8.67,0,0-3.22,4.95-6.19,9.91,0,0-2.97,4.95-5.7,10.16,0,0-2.97,5.45-4.71,11.15,0,0-1.49,5.94-2.72,11.64,0,0-1.24,5.7-1.24,11.89v12.39s0,6.19,1.24,12.39c0,0,1.24,6.19,2.72,12.88,0,0,1.73,6.69,4.71,12.39,0,0,2.72,5.7,6.19,12.39,0,0,3.22,6.69,6.94,12.39,0,0,3.72,5.7,7.43,12.39,0,0,3.72,6.69,7.43,12.88,0,0,3.72,6.19,7.43,12.63,0,0,3.72,6.69,7.43,12.88,0,0,3.72,6.19,7.43,11.89,0,0,3.72,5.94,9.91,17.34l6.19,11.64" vector-effect="non-scaling-stroke"/>
    <path class="st1" d="M573.68,547.43c1.98,2.97,3.72,6.19,5.45,9.41,0,0,1.98,2.97,5.2,8.42,0,0,3.47,5.2,6.19,10.16,0,0,2.97,4.95,5.94,9.66,0,0,2.72,4.46,6.19,8.92,0,0,3.22,4.71,6.44,8.67,0,0,3.47,4.21,6.69,7.93,0,0,3.22,3.72,6.69,7.43,0,0,3.22,3.72,7.43,6.94,0,0,3.96,3.47,8.67,6.19,0,0,4.46,2.97,8.92,4.95,0,0,4.71,2.23,9.66,3.72,0,0,4.95,1.73,9.91,2.97,0,0,4.95,1.24,11.15,1.98,0,0,6.19.99,11.89,1.24,0,0,5.7.5,11.89,0,0,0,6.19-.25,12.14-1.49,0,0,5.7-1.24,11.39-3.47,0,0,5.95-1.98,11.15-4.46,0,0,5.45-2.48,10.9-5.7,0,0,5.2-3.47,10.16-7.43,0,0,4.95-4.21,9.66-9.17,0,0,4.46-4.95,8.17-9.91,0,0,3.72-4.95,7.93-10.4,0,0,3.96-5.2,8.67-10.65,0,0,4.46-5.45,9.41-10.65,0,0,4.95-5.45,10.4-10.4,0,0,5.2-4.95,11.15-10.4,0,0,5.7-5.2,11.89-10.16,0,0,6.19-4.95,12.88-9.66,0,0,6.44-4.46,13.62-8.67,0,0,6.94-3.96,14.86-7.68,0,0,7.68-3.72,16.1-7.18,0,0,8.17-3.22,16.35-5.7,0,0,8.42-2.48,17.09-4.95,0,0,8.67-2.48,17.59-4.46,0,0,9.17-2.23,18.58-3.47,0,0,9.66-1.24,19.57-1.49,0,0,9.91-.5,20.06-.99,0,0,10.4-.25,22.05-1.24,0,0,11.39-.74,23.53-1.49,0,0,11.89-.99,24.77-1.24,0,0,12.63-.5,25.51-.99,0,0,12.88-.25,26.5-.74,0,0,13.62-.5,27.25-.74,0,0,13.62-.5,27.99-.99,0,0,14.37-.25,27.99-.74,0,0,13.62-.5,27.25-1.24,0,0,13.62-.74,25.76-1.24,0,0,11.89-.5,23.78-.74,0,0,12.14-.5,22.29-.99,0,0,10.4-.25,20.31-.74,0,0,9.91-.5,19.07-.74,0,0,8.92-.5,17.59-.5,0,0,8.67,0,17.34-.5,0,0,8.67-.25,17.09-.74,0,0,8.17-.5,16.84-.74,0,0,8.67-.5,16.84-.99,0,0,8.42-.25,16.6-.74,0,0,8.17-.5,16.1-.74,0,0,7.93-.5,15.36-.5h59.45s4.95,0,10.16.5c0,0,5.45.25,10.4,1.24,0,0,4.95.74,9.41,1.98,0,0,4.71,1.24,8.67,2.97,0,0,4.21,1.49,7.93,3.96,0,0,3.72,2.48,7.43,5.45,0,0,3.72,2.97,6.94,6.19,0,0,3.47,3.22,6.69,6.69,0,0,3.22,3.22,6.19,7.43,0,0,2.97,3.96,5.7,8.67,0,0,2.97,4.46,5.45,9.41,0,0,2.48,4.95,4.95,10.65,0,0,2.48,5.94,4.46,11.64,0,0,2.23,5.7,4.71,12.39,0,0,2.48,6.69,4.46,12.88,0,0,1.98,6.19,4.46,12.63,0,0,2.48,6.69,4.21,12.88,0,0,1.73,6.19,3.72,12.39,0,0,1.98,6.19,3.72,12.39,0,0,1.73,6.19,3.72,11.89,0,0,1.98,5.94,4.21,11.64,0,0,1.98,5.7,3.96,11.64,0,0,2.23,5.7,3.72,11.39,0,0,1.73,5.95,2.97,10.9,0,0,1.24,4.95,2.48,8.92l2.48,8.42s1.24,3.96,1.98,8.17c0,0,.99,4.21,1.24,8.17,0,0,.5,4.21,0,7.93,0,0-.25,3.72-1.24,7.93,0,0-.74,3.96-2.72,8.67,0,0-2.23,4.46-5.45,8.67,0,0-3.22,3.96-7.43,8.17,0,0-4.21,4.21-8.67,7.43,0,0-4.46,3.22-9.41,6.94,0,0-4.95,3.72-10.4,6.69,0,0-5.45,2.97-11.64,6.69,0,0-6.19,3.72-12.63,7.43,0,0-6.69,3.72-14.61,7.43,0,0-7.68,3.72-16.1,6.94,0,0-8.17,3.22-17.34,6.69,0,0-8.92,3.22-18.83,6.94,0,0-9.91,3.72-20.81,6.94,0,0-10.65,3.47-22.29,6.69,0,0-11.39,3.22-23.04,6.69,0,0-11.64,3.22-23.53,6.94,0,0-11.89,3.72-24.28,7.43,0,0-12.39,3.72-25.27,7.43,0,0-12.88,3.72-25.51,7.43l-25.76,7.43s-12.63,3.72-29.72,8.67l-16.84,4.95" vector-effect="non-scaling-stroke"/>
  </g>
  <path class="st0" d="M1311.84,886.79c-6.19,1.98-12.39,3.72-19.07,5.45,0,0-6.44,1.98-19.32,5.7,0,0-12.88,3.72-26.75,7.93,0,0-14.12,3.96-28.24,8.17,0,0-13.87,4.21-29.23,8.67,0,0-15.36,4.46-30.22,8.67,0,0-14.86,4.21-29.97,8.67,0,0-15.36,4.46-29.48,8.67,0,0-13.87,4.21-27.25,8.17,0,0-13.13,4.21-25.51,7.93,0,0-12.39,3.72-24.77,6.94,0,0-12.39,3.47-24.03,6.69,0,0-11.39,3.22-22.29,6.19,0,0-10.65,2.97-20.56,6.19,0,0-9.91,3.22-19.32,6.19,0,0-9.66,2.97-18.33,5.45,0,0-8.67,2.48-16.35,4.46,0,0-7.93,1.98-14.86,4.21,0,0-7.18,1.98-13.62,3.96,0,0-6.69,2.23-12.88,4.21,0,0-6.19,1.98-11.89,3.72,0,0-5.95,1.73-11.64,3.22,0,0-5.7,1.73-11.15,2.97,0,0-5.45,1.24-10.65,2.48,0,0-5.45,1.24-10.4,2.48,0,0-4.95,1.24-9.41,2.97,0,0-4.71,1.49-8.67,3.22,0,0-4.21,1.73-7.93,3.22,0,0-3.72,1.73-7.93,2.48,0,0-3.96.99-8.17,1.24,0,0-4.21.5-8.17,0,0,0-4.21-.25-7.93-1.24,0,0-3.72-.74-6.94-2.72,0,0-3.47-2.23-6.69-4.95,0,0-3.22-2.97-6.19-6.69,0,0-2.97-3.72-5.7-8.17,0,0-2.97-4.71-5.95-9.66,0,0-2.72-4.95-5.7-10.16,0,0-2.97-5.45-6.19-10.4,0,0-3.22-4.95-6.94-10.4,0,0-3.72-5.2-8.42-11.15,0,0-4.46-5.7-9.91-12.39,0,0-5.2-6.44-11.15-13.87,0,0-5.7-7.43-11.89-15.36,0,0-6.19-7.93-12.39-16.6,0,0-6.19-8.67-12.88-17.34,0,0-6.44-8.67-13.13-18.08,0,0-6.69-9.41-13.62-19.07,0,0-6.94-9.41-14.37-19.82,0,0-7.43-10.16-15.36-21.06,0,0-7.93-10.65-16.1-21.8,0,0-8.17-11.15-16.1-21.8,0,0-7.93-10.9-16.1-22.29,0,0-8.17-11.64-16.6-23.53,0,0-8.17-12.14-16.1-24.52,0,0-7.68-12.39-15.11-24.77,0,0-7.43-12.39-14.12-25.02,0,0-6.69-12.88-13.13-26.01,0,0-6.69-13.38-12.88-26.5,0,0-6.19-13.13-12.88-26.75,0,0-6.44-13.62-13.13-27.74,0,0-6.69-14.12-13.62-27.99,0,0-6.94-14.12-13.62-27.25,0,0-6.69-13.38-13.13-26.5,0,0-6.69-13.13-12.88-25.51,0,0-6.19-12.39-12.88-24.77,0,0-6.44-12.39-13.62-24.03,0,0-6.94-11.64-13.87-22.79,0,0-7.18-11.15-14.12-21.3,0,0-6.94-10.4-13.62-19.82,0,0-6.69-9.66-13.62-18.33,0,0-6.94-8.67-13.62-16.84,0,0-6.69-8.17-13.62-16.1,0,0-6.94-7.93-19.07-19.32l-11.89-11.64" vector-effect="non-scaling-stroke"/>
  <path class="st2" d="M216.98,245.23l-10.65-10.65-10.4-10.4-13.62-13.62s-6.69-6.69-13.62-12.88c0,0-6.94-6.19-13.13-11.89,0,0-6.19-5.7-12.39-11.15,0,0-6.19-5.45-12.14-11.64,0,0-5.7-6.19-11.89-11.39,0,0-6.19-5.45-11.89-10.9,0,0-5.94-5.2-10.9-9.91,0,0-4.95-4.46-8.92-8.92,0,0-4.21-4.71-7.93-8.42,0,0-3.72-3.72-6.69-6.19,0,0-2.72-2.48-5.2-4.46,0,0-2.48-1.98-4.71-4.21l-3.96-3.96-3.72-3.72s-1.73-1.73-3.47-2.97c0,0-1.49-1.24-3.22-2.97,0,0-1.73-1.49-2.97-3.22,0,0-1.24-1.73-1.98-3.22,0,0-.74-1.73-1.24-2.97,0,0-.5-1.24-.74-2.97,0,0-.5-1.49-.5-3.22v-3.72s0-1.98.5-3.72c0,0,.25-1.73,1.24-3.22,0,0,.74-1.73,1.98-2.48,0,0,1.24-.99,2.48-1.73,0,0,1.24-.74,2.97-1.24,0,0,1.49-.5,3.72-1.24,0,0,1.98-.74,4.95-1.24,0,0,2.72-.5,6.19-.74,0,0,3.22-.5,7.43-.99,0,0,3.96-.25,8.67-.74,0,0,4.46-.5,9.91-1.24,0,0,5.2-.74,11.15-1.73,0,0,5.7-.74,12.39-1.49,0,0,6.44-.99,13.62-2.23,0,0,6.94-1.24,14.37-1.98,0,0,7.43-.74,14.86-1.98,0,0,7.43-1.24,15.36-1.73,0,0,7.68-.5,16.35-1.24,0,0,8.67-.74,17.34-1.24,0,0,8.67-.5,17.83-.74,0,0,9.17-.5,18.08-.5h19.07s9.91,0,19.32.5c0,0,9.66.25,19.07.74,0,0,9.41.5,19.07,1.24,0,0,9.41.74,19.32,1.73,0,0,9.91.74,20.31,1.98,0,0,10.16,1.24,21.06,2.97,0,0,10.65,1.49,21.3,3.22,0,0,10.9,1.73,21.55,3.22,0,0,10.65,1.73,21.55,3.47,0,0,10.65,1.49,21.3,3.22,0,0,10.9,1.73,22.05,3.72,0,0,11.15,1.98,22.29,3.72,0,0,11.15,1.73,22.54,3.72,0,0,11.64,1.98,23.28,3.72,0,0,11.39,1.73,23.53,3.72,0,0,11.89,1.98,23.53,3.72,0,0,11.39,1.73,22.54,3.72,0,0,11.15,1.98,22.05,3.72,0,0,10.65,1.73,21.3,3.72,0,0,10.9,1.98,21.55,3.72,0,0,10.65,1.73,21.55,3.72,0,0,10.65,1.98,22.29,3.72,0,0,11.39,1.73,22.29,2.97,0,0,10.65,1.24,21.8,1.98,0,0,11.15.74,21.8,1.24,0,0,10.9.5,22.79.74,0,0,11.89.5,23.53.99,0,0,11.64.25,22.79.74,0,0,11.15.5,22.29.74,0,0,11.15.5,21.3.5h65.39s6.19,0,11.39.5c0,0,5.45.25,10.4.74,0,0,4.95.5,9.41.74,0,0,4.71.5,8.67.5h22.29s3.47,0,6.69.5c0,0,3.22.25,6.19,1.24,0,0,2.97.74,6.19,1.98,0,0,3.22,1.24,6.19,2.97,0,0,2.97,1.49,5.7,3.96,0,0,2.97,2.48,5.45,5.45,0,0,2.48,2.97,4.46,6.19,0,0,2.23,3.22,3.47,6.94,0,0,1.24,3.72,1.49,8.42,0,0,.5,4.46-.25,8.92,0,0-.99,4.71-2.48,9.66,0,0-1.73,4.95-4.21,9.41,0,0-2.48,4.46-5.45,9.41,0,0-2.72,4.95-6.19,9.66,0,0-3.22,4.46-6.94,9.41l-7.43,9.91s-3.72,4.95-8.17,10.4c0,0-4.71,5.2-9.66,10.16,0,0-4.95,4.95-10.65,9.91,0,0-5.7,4.95-11.64,9.66,0,0-5.7,4.46-11.89,8.92,0,0-6.19,4.71-12.88,8.67,0,0-6.44,4.21-13.62,7.93,0,0-6.94,3.72-14.37,7.43,0,0-7.43,3.72-15.36,6.94,0,0-7.68,3.47-16.1,5.94,0,0-8.17,2.48-16.84,4.46,0,0-8.67,1.98-17.34,3.22,0,0-8.67,1.24-16.84,2.23,0,0-8.42.74-16.6.74h-16.6s-8.17,0-16.84-.5c0,0-8.67-.25-17.83-1.24,0,0-8.92-.74-18.58-1.98,0,0-9.41-1.24-18.58-2.48,0,0-8.92-1.24-17.59-2.48,0,0-8.67-1.24-16.6-2.48,0,0-7.93-1.24-16.1-2.48,0,0-8.17-1.24-16.1-2.48,0,0-7.93-1.24-15.36-1.98,0,0-7.43-.99-13.87-1.73,0,0-6.69-.74-12.88-1.73,0,0-6.19-.74-11.89-1.98,0,0-5.95-1.24-11.15-1.98,0,0-5.45-.99-10.4-1.73,0,0-4.95-.74-9.91-1.24,0,0-4.95-.5-9.41-.74,0,0-4.71-.5-8.67-.5,0,0-4.21,0-8.42.5,0,0-3.96.25-8.17,1.24,0,0-4.21.74-8.67,2.48,0,0-4.46,1.49-9.17,3.22,0,0-4.46,1.73-8.92,3.72,0,0-4.71,1.98-8.67,4.46,0,0-4.21,2.48-8.42,5.45,0,0-3.96,2.97-8.17,6.69,0,0-4.21,3.72-7.93,7.43,0,0-3.72,3.72-6.94,8.67,0,0-3.22,4.95-6.19,9.91,0,0-2.97,4.95-5.7,10.16,0,0-2.97,5.45-4.71,11.15,0,0-1.49,5.94-2.72,11.64,0,0-1.24,5.7-1.24,11.89v12.39s0,6.19,1.24,12.39c0,0,1.24,6.19,2.72,12.88,0,0,1.73,6.69,4.71,12.39,0,0,2.72,5.7,6.19,12.39,0,0,3.22,6.69,6.94,12.39,0,0,3.72,5.7,7.43,12.39,0,0,3.72,6.69,7.43,12.88,0,0,3.72,6.19,7.43,12.63,0,0,3.72,6.69,7.43,12.88,0,0,3.72,6.19,7.43,11.89,0,0,3.72,5.94,9.91,17.34l6.19,11.64" vector-effect="non-scaling-stroke"/>
  <path class="st3" d="M573.68,547.43c1.98,2.97,3.72,6.19,5.45,9.41,0,0,1.98,2.97,5.2,8.42,0,0,3.47,5.2,6.19,10.16,0,0,2.97,4.95,5.94,9.66,0,0,2.72,4.46,6.19,8.92,0,0,3.22,4.71,6.44,8.67,0,0,3.47,4.21,6.69,7.93,0,0,3.22,3.72,6.69,7.43,0,0,3.22,3.72,7.43,6.94,0,0,3.96,3.47,8.67,6.19,0,0,4.46,2.97,8.92,4.95,0,0,4.71,2.23,9.66,3.72,0,0,4.95,1.73,9.91,2.97,0,0,4.95,1.24,11.15,1.98,0,0,6.19.99,11.89,1.24,0,0,5.7.5,11.89,0,0,0,6.19-.25,12.14-1.49,0,0,5.7-1.24,11.39-3.47,0,0,5.95-1.98,11.15-4.46,0,0,5.45-2.48,10.9-5.7,0,0,5.2-3.47,10.16-7.43,0,0,4.95-4.21,9.66-9.17,0,0,4.46-4.95,8.17-9.91,0,0,3.72-4.95,7.93-10.4,0,0,3.96-5.2,8.67-10.65,0,0,4.46-5.45,9.41-10.65,0,0,4.95-5.45,10.4-10.4,0,0,5.2-4.95,11.15-10.4,0,0,5.7-5.2,11.89-10.16,0,0,6.19-4.95,12.88-9.66,0,0,6.44-4.46,13.62-8.67,0,0,6.94-3.96,14.86-7.68,0,0,7.68-3.72,16.1-7.18,0,0,8.17-3.22,16.35-5.7,0,0,8.42-2.48,17.09-4.95,0,0,8.67-2.48,17.59-4.46,0,0,9.17-2.23,18.58-3.47,0,0,9.66-1.24,19.57-1.49,0,0,9.91-.5,20.06-.99,0,0,10.4-.25,22.05-1.24,0,0,11.39-.74,23.53-1.49,0,0,11.89-.99,24.77-1.24,0,0,12.63-.5,25.51-.99,0,0,12.88-.25,26.5-.74,0,0,13.62-.5,27.25-.74,0,0,13.62-.5,27.99-.99,0,0,14.37-.25,27.99-.74,0,0,13.62-.5,27.25-1.24,0,0,13.62-.74,25.76-1.24,0,0,11.89-.5,23.78-.74,0,0,12.14-.5,22.29-.99,0,0,10.4-.25,20.31-.74,0,0,9.91-.5,19.07-.74,0,0,8.92-.5,17.59-.5,0,0,8.67,0,17.34-.5,0,0,8.67-.25,17.09-.74,0,0,8.17-.5,16.84-.74,0,0,8.67-.5,16.84-.99,0,0,8.42-.25,16.6-.74,0,0,8.17-.5,16.1-.74,0,0,7.93-.5,15.36-.5h59.45s4.95,0,10.16.5c0,0,5.45.25,10.4,1.24,0,0,4.95.74,9.41,1.98,0,0,4.71,1.24,8.67,2.97,0,0,4.21,1.49,7.93,3.96,0,0,3.72,2.48,7.43,5.45,0,0,3.72,2.97,6.94,6.19,0,0,3.47,3.22,6.69,6.69,0,0,3.22,3.22,6.19,7.43,0,0,2.97,3.96,5.7,8.67,0,0,2.97,4.46,5.45,9.41,0,0,2.48,4.95,4.95,10.65,0,0,2.48,5.94,4.46,11.64,0,0,2.23,5.7,4.71,12.39,0,0,2.48,6.69,4.46,12.88,0,0,1.98,6.19,4.46,12.63,0,0,2.48,6.69,4.21,12.88,0,0,1.73,6.19,3.72,12.39,0,0,1.98,6.19,3.72,12.39,0,0,1.73,6.19,3.72,11.89,0,0,1.98,5.94,4.21,11.64,0,0,1.98,5.7,3.96,11.64,0,0,2.23,5.7,3.72,11.39,0,0,1.73,5.95,2.97,10.9,0,0,1.24,4.95,2.48,8.92l2.48,8.42s1.24,3.96,1.98,8.17c0,0,.99,4.21,1.24,8.17,0,0,.5,4.21,0,7.93,0,0-.25,3.72-1.24,7.93,0,0-.74,3.96-2.72,8.67,0,0-2.23,4.46-5.45,8.67,0,0-3.22,3.96-7.43,8.17,0,0-4.21,4.21-8.67,7.43,0,0-4.46,3.22-9.41,6.94,0,0-4.95,3.72-10.4,6.69,0,0-5.45,2.97-11.64,6.69,0,0-6.19,3.72-12.63,7.43,0,0-6.69,3.72-14.61,7.43,0,0-7.68,3.72-16.1,6.94,0,0-8.17,3.22-17.34,6.69,0,0-8.92,3.22-18.83,6.94,0,0-9.91,3.72-20.81,6.94,0,0-10.65,3.47-22.29,6.69,0,0-11.39,3.22-23.04,6.69,0,0-11.64,3.22-23.53,6.94,0,0-11.89,3.72-24.28,7.43,0,0-12.39,3.72-25.27,7.43,0,0-12.88,3.72-25.51,7.43l-25.76,7.43s-12.63,3.72-29.72,8.67l-16.84,4.95" vector-effect="non-scaling-stroke"/>
  <g id="moving-circle-group">
    <circle cx="1311.84" cy="886.79" r="49.54" vector-effect="non-scaling-stroke"/>
    <circle class="st4" cx="1311.84" cy="886.79" r="17.34" vector-effect="non-scaling-stroke"/>
  </g>
</svg>