<?xml version="1.0" encoding="UTF-8"?>
<svg id="minimap-svg" xmlns="http://www.w3.org/2000/svg" version="1.1" viewBox="0 0 912.76 1080">
  <!-- Generator: Adobe Illustrator 30.0.0, SVG Export Plug-In . SVG Version: 2.1.1 Build 123)  -->
  <defs>
    <style>
      .st0 {
        stroke: #ef4444;
      }

      .st0, .st1, .st2, .st3 {
        fill: none;
        stroke-miterlimit: 6.17;
      }

      .st0, .st2, .st3 {
        stroke-width: 3.09px;
      }

      .st1 {
        stroke: #000;
        stroke-width: 12.34px;
      }

      .st2 {
        stroke: #3b82f6;
      }

      .st3 {
        stroke: #fbbf24;
      }

      .st4 {
        fill: #fff;
      }
    </style>
  </defs>
  <g>
    <path class="st1" d="M390.81,805.37c-3.86-3.39-7.71-6.94-11.57-10.49,0,0-3.86-3.39-11.57-10.65,0,0-7.71-7.1-15.43-14.66,0,0-7.71-7.41-15.43-15.12,0,0-7.71-7.71-15.74-15.43,0,0-7.87-7.71-15.89-15.43,0,0-8.02-7.71-15.74-15.12,0,0-7.71-7.56-14.35-14.19,0,0-6.63-6.63-12.03-12.03,0,0-5.4-5.4-9.57-9.57,0,0-4.17-4.17-6.94-6.94,0,0-2.78-2.78-4.94-4.94,0,0-2.01-2.01-3.24-3.86,0,0-1.39-1.7-2.16-3.86,0,0-.77-2.01-.93-4.01,0,0-.31-2.16,0-4.17,0,0,.15-2.01.93-4.17,0,0,.77-2.01,1.85-4.63,0,0,1.08-2.47,2.62-8.18,0,0,1.54-5.71,2.47-12.03,0,0,1.08-6.48,1.39-13.42,0,0,.15-6.94-.77-11.57,0,0-1.08-4.63-2.93-9.26,0,0-1.7-4.63-4.32-9.26,0,0-2.62-4.63-6.17-9.26,0,0-3.55-4.63-8.02-8.95,0,0-4.32-4.47-8.95-8.49,0,0-4.63-4.17-9.57-8.33,0,0-4.78-4.01-9.72-8.49,0,0-4.94-4.32-10.03-9.26,0,0-5.09-4.78-10.34-9.72,0,0-5.09-4.94-10.49-10.03,0,0-5.4-5.09-10.8-10.49,0,0-5.4-5.4-10.8-11.42,0,0-5.4-5.86-10.49-12.03,0,0-5.25-6.17-10.34-12.65,0,0-5.09-6.33-10.34-13.11,0,0-5.09-6.63-10.18-13.58,0,0-5.25-6.94-10.34-13.89,0,0-5.09-6.94-10.03-14.19,0,0-4.94-7.1-9.72-14.35,0,0-4.94-7.25-9.1-14.19,0,0-4.01-6.94-7.41-12.5,0,0-3.39-5.71-5.86-10.34,0,0-2.62-4.63-4.63-8.02,0,0-2.16-3.24-3.7-6.17,0,0-1.54-2.78-2.78-4.78,0,0-1.23-2.16-2.31-3.86,0,0-1.08-1.85-2.01-3.39,0,0-1.08-1.54-1.54-3.39,0,0-.62-1.7-.77-3.55,0,0-.31-1.85,0-3.55,0,0,.15-1.85.77-3.09,0,0,.46-1.39,1.54-2.62,0,0,.93-1.23,2.47-2.31,0,0,1.54-1.08,3.86-2.01,0,0,2.31-1.08,5.4-1.54,0,0,3.09-.62,6.48-1.39,0,0,3.39-.77,6.94-1.23,0,0,3.55-.46,7.25-1.23,0,0,3.55-.77,7.1-1.39,0,0,3.7-.46,6.94-1.23,0,0,3.39-.77,6.48-1.54,0,0,3.09-.77,6.17-1.85,0,0,3.09-.93,5.86-2.47,0,0,2.93-1.54,5.4-3.7,0,0,2.62-2.01,4.47-4.63,0,0,1.7-2.47,2.47-5.09,0,0,.77-2.62.77-5.4,0,0,0-2.78-.15-5.86,0,0-.31-3.09-.31-6.48,0,0,0-3.39-.31-6.94,0,0-.15-3.55-.46-7.41,0,0-.31-3.86-.77-8.02,0,0-.46-4.17-.77-8.79,0,0-.31-4.63-.46-9.72,0,0-.31-5.09-.62-11.11,0,0-.15-5.86-.46-11.57,0,0-.31-5.55-.46-10.49,0,0-.31-4.94-.31-8.49,0,0,0-3.55.31-6.17,0,0,.15-2.62.77-4.63,0,0,.46-2.01,1.23-4.17,0,0,.77-2.01,1.85-4.32,0,0,.93-2.31,2.31-4.32,0,0,1.23-2.16,3.09-4.17,0,0,1.7-2.01,4.01-4.17,0,0,2.31-2.01,5.25-4.32,0,0,2.78-2.31,5.55-4.32,0,0,2.93-2.16,5.71-4.17,0,0,2.78-2.01,5.71-4.17,0,0,2.78-2.01,6.17-4.32,0,0,3.24-2.31,6.63-4.63,0,0,3.39-2.31,6.94-4.94,0,0,3.55-2.47,7.25-5.09,0,0,3.55-2.62,7.41-5.09,0,0,3.86-2.62,8.02-4.94,0,0,4.01-2.31,8.49-4.63,0,0,4.32-2.31,9.26-4.63,0,0,4.78-2.31,9.72-4.32,0,0,4.94-2.16,9.72-4.17,0,0,4.94-2.01,14.97-6.48l10.03-4.32" vector-effect="non-scaling-stroke"/>
    <path class="st1" d="M245.78,66.34c2.78-.77,5.4-1.54,7.56-2.31,0,0,2.16-.77,6.63-2.31,0,0,4.32-1.54,7.87-3.39,0,0,3.7-1.7,6.94-3.55,0,0,3.39-1.85,6.48-3.55,0,0,3.09-1.85,5.86-3.39,0,0,2.93-1.54,5.25-3.09,0,0,2.31-1.54,4.32-3.09,0,0,2.01-1.54,4.17-2.78,0,0,2.01-1.39,4.32-2.31,0,0,2.31-1.08,4.63-1.54,0,0,2.31-.62,4.94-.31,0,0,2.47.31,5.09,1.08,0,0,2.62.77,5.09,2.31,0,0,2.62,1.54,5.25,3.24,0,0,2.47,1.85,5.4,3.86,0,0,2.78,2.16,5.86,4.17,0,0,3.09,2.01,6.48,3.86,0,0,3.24,1.85,6.63,3.39,0,0,3.39,1.54,7.71,2.78,0,0,4.32,1.23,8.79,2.01,0,0,4.32.77,9.26,1.39,0,0,4.78.46,8.95.77,0,0,4.17.15,8.49.46,0,0,4.32.31,8.79.77,0,0,4.32.46,8.95,1.23,0,0,4.63.77,9.26,2.31,0,0,4.63,1.54,9.26,3.7,0,0,4.63,2.01,9.26,4.63,0,0,4.63,2.47,9.26,5.55,0,0,4.63,3.09,9.26,6.94,0,0,4.63,3.86,8.95,8.33,0,0,4.47,4.32,8.33,9.26,0,0,3.86,4.78,7.1,10.18,0,0,3.39,5.4,6.17,11.42,0,0,2.93,5.86,5.25,12.34,0,0,2.31,6.33,4.01,13.11,0,0,1.85,6.63,3.09,13.27,0,0,1.39,6.79,2.62,13.42,0,0,1.23,6.63,2.62,13.11,0,0,1.23,6.48,2.47,12.65,0,0,1.39,6.17,2.31,11.57,0,0,1.08,5.4,1.54,10.49,0,0,.62,5.09.77,10.34,0,0,.31,5.09.31,10.49,0,0,0,5.4-.31,11.11,0,0-.15,5.55-.93,11.26,0,0-.77,5.71-2.31,11.57,0,0-1.54,5.86-4.47,14.19,0,0-2.78,8.18-5.86,16.66l-6.17,16.97s-3.09,8.49-5.4,14.97c0,0-2.31,6.33-4.63,12.81,0,0-2.31,6.48-4.63,12.81l-4.63,12.96s-2.31,6.33-4.32,12.81c0,0-2.16,6.48-3.7,13.11,0,0-1.54,6.63-2.47,13.42,0,0-1.08,6.63-1.54,13.58,0,0-.62,6.94-.77,13.89,0,0-.31,6.94,0,13.89,0,0,.15,6.94.93,13.58,0,0,.77,6.79,1.85,13.42,0,0,1.08,6.63,2.62,13.42,0,0,1.54,6.63,3.24,13.11,0,0,1.85,6.33,4.47,12.81,0,0,2.47,6.48,5.4,12.65,0,0,2.78,6.17,5.86,12.34,0,0,3.09,6.17,6.63,12.03,0,0,3.7,5.86,7.56,11.26,0,0,3.86,5.4,8.49,10.8,0,0,4.63,5.4,9.26,10.34,0,0,4.63,4.94,9.72,9.72,0,0,5.09,4.94,11.11,10.34l5.86,5.4" vector-effect="non-scaling-stroke"/>
    <path class="st1" d="M548.18,626.4c2.78,1.85,5.4,3.86,8.02,6.02,0,0,2.78,2.16,7.87,6.33,0,0,5.25,4.17,9.87,8.18,0,0,4.63,4.17,8.49,7.56,0,0,3.86,3.24,6.94,5.86,0,0,3.09,2.62,5.55,4.32,0,0,2.62,1.85,4.94,3.39l4.63,3.09s2.31,1.54,4.94,2.78c0,0,2.47,1.39,5.4,2.16,0,0,2.78.77,5.86.77,0,0,3.09,0,6.17-.62,0,0,3.09-.46,6.48-1.23,0,0,3.24-.77,6.63-1.23,0,0,3.39-.62,6.94-1.08,0,0,3.55-.46,7.25-1.08,0,0,3.55-.46,6.94-.93,0,0,3.24-.62,6.33-1.08,0,0,3.09-.46,5.71-.46,0,0,2.62,0,5.09.15,0,0,2.62.31,4.94,1.39,0,0,2.31.93,4.63,2.31,0,0,2.31,1.23,4.63,2.78,0,0,2.31,1.54,4.63,3.39,0,0,2.31,1.7,4.94,3.86,0,0,2.47,2.01,5.55,4.63,0,0,3.09,2.47,6.48,5.4,0,0,3.39,2.78,6.94,5.86,0,0,3.55,3.09,7.25,6.17,0,0,3.55,3.09,7.71,6.48,0,0,4.01,3.24,8.18,6.63,0,0,4.17,3.39,8.49,7.25,0,0,4.32,3.86,8.79,7.71,0,0,4.32,3.86,8.95,7.87,0,0,4.63,4.17,9.26,8.02,0,0,4.63,3.86,8.95,7.71,0,0,4.47,3.86,8.33,7.71,0,0,3.86,3.86,7.41,7.71,0,0,3.55,3.86,6.63,8.02,0,0,3.09,4.01,6.17,8.64,0,0,3.09,4.63,5.71,9.57,0,0,2.62,4.94,4.94,10.03,0,0,2.31,5.09,4.32,10.49,0,0,2.01,5.4,4.17,11.11,0,0,2.01,5.71,3.86,11.57,0,0,1.7,5.86,3.55,11.88,0,0,1.85,5.86,3.39,12.03,0,0,1.54,6.17,3.55,12.34,0,0,2.01,6.17,3.86,12.34,0,0,1.85,6.17,3.55,12.34l3.7,12.34s1.7,6.17,3.55,12.65c0,0,1.85,6.33,3.55,12.81,0,0,1.85,6.48,3.39,12.65,0,0,1.54,6.17,3.09,11.57,0,0,1.54,5.4,2.62,10.03,0,0,.93,4.63,1.7,8.18,0,0,.77,3.55,1.39,6.48,0,0,.46,2.78.93,4.78,0,0,.62,2.16.77,3.7,0,0,.31,1.54.31,2.78,0,0,0,1.23-.31,2.31,0,0-.15,1.08-.46,2.31,0,0-.31,1.23-.77,2.01,0,0-.46.77-1.23,1.54,0,0-.77.77-2.16,1.39,0,0-1.23.46-2.78.93,0,0-1.54.62-3.09,1.08,0,0-1.54.46-3.39.77,0,0-1.7.31-4.01.77,0,0-2.31.46-5.4,1.08,0,0-3.09.46-6.48,1.54,0,0-3.39.93-7.25,2.01,0,0-3.86,1.08-7.87,2.31,0,0-4.17,1.23-8.79,2.31,0,0-4.63,1.08-9.26,2.31,0,0-4.63,1.23-9.57,2.62,0,0-4.78,1.23-9.72,2.78,0,0-4.94,1.54-9.72,3.09,0,0-4.94,1.54-9.26,3.09,0,0-4.47,1.54-8.33,2.78,0,0-3.86,1.39-6.94,2.31,0,0-3.09,1.08-5.55,1.85,0,0-2.62.77-5.25,1.23,0,0-2.47.62-5.4.62,0,0-2.78,0-5.86-.62,0,0-3.09-.46-6.17-1.7,0,0-3.09-1.39-5.86-3.09,0,0-2.93-1.85-5.71-4.17,0,0-2.78-2.31-5.09-4.94,0,0-2.31-2.47-4.63-5.55,0,0-2.31-3.09-4.47-6.79,0,0-2.01-3.55-4.32-7.41l-4.63-7.71s-2.31-3.86-4.63-8.02c0,0-2.31-4.01-4.63-8.18,0,0-2.31-4.17-4.63-8.49,0,0-2.31-4.32-4.63-8.49,0,0-2.31-4.17-4.32-8.02,0,0-2.16-3.86-3.86-6.94,0,0-1.85-3.09-3.39-5.55,0,0-1.54-2.62-3.09-4.63,0,0-1.54-2.16-3.09-3.86,0,0-1.54-1.85-3.39-3.39,0,0-1.7-1.54-3.55-3.09,0,0-1.85-1.54-3.39-2.62,0,0-1.54-.93-2.47-1.54,0,0-1.08-.46-1.85-.46,0,0-.77,0-1.85.31,0,0-.93.15-2.01.77,0,0-1.08.46-2.01,1.54,0,0-1.08.93-2.16,2.31,0,0-.93,1.23-2.31,2.78,0,0-1.23,1.54-2.78,3.39,0,0-1.54,1.7-3.39,3.86,0,0-1.7,2.01-3.86,4.63,0,0-2.01,2.47-4.32,5.4l-4.63,5.55s-2.31,2.93-4.63,5.4c0,0-2.31,2.62-4.63,4.94,0,0-2.31,2.31-4.94,4.17,0,0-2.47,1.7-5.4,3.09,0,0-2.78,1.23-5.86,2.01,0,0-3.09.77-6.17,1.23,0,0-3.09.62-6.17.31,0,0-3.09-.31-6.48-1.23,0,0-3.24-1.08-6.33-2.93,0,0-3.09-1.7-6.17-3.86,0,0-3.09-2.01-6.02-4.63,0,0-2.78-2.47-5.86-5.4,0,0-3.09-2.78-6.17-5.86l-6.48-6.48s-3.24-3.24-6.94-6.63c0,0-3.55-3.39-7.41-6.94,0,0-3.86-3.55-8.02-7.41,0,0-4.01-3.86-8.64-8.33,0,0-4.63-4.32-9.87-9.41,0,0-5.09-5.25-10.49-10.65,0,0-5.4-5.4-11.11-10.95,0,0-5.55-5.71-11.57-11.42,0,0-5.86-5.55-12.34-11.57,0,0-6.33-5.86-13.11-12.34,0,0-6.63-6.33-13.58-12.81,0,0-6.94-6.48-13.89-13.11,0,0-6.94-6.63-15.43-15.74l-8.49-8.95" vector-effect="non-scaling-stroke"/>
  </g>
  <path class="st0" d="M390.81,805.37c-3.86-3.39-7.71-6.94-11.57-10.49,0,0-3.86-3.39-11.57-10.65,0,0-7.71-7.1-15.43-14.66,0,0-7.71-7.41-15.43-15.12,0,0-7.71-7.71-15.74-15.43,0,0-7.87-7.71-15.89-15.43,0,0-8.02-7.71-15.74-15.12,0,0-7.71-7.56-14.35-14.19,0,0-6.63-6.63-12.03-12.03,0,0-5.4-5.4-9.57-9.57,0,0-4.17-4.17-6.94-6.94,0,0-2.78-2.78-4.94-4.94,0,0-2.01-2.01-3.24-3.86,0,0-1.39-1.7-2.16-3.86,0,0-.77-2.01-.93-4.01,0,0-.31-2.16,0-4.17,0,0,.15-2.01.93-4.17,0,0,.77-2.01,1.85-4.63,0,0,1.08-2.47,2.62-8.18,0,0,1.54-5.71,2.47-12.03,0,0,1.08-6.48,1.39-13.42,0,0,.15-6.94-.77-11.57,0,0-1.08-4.63-2.93-9.26,0,0-1.7-4.63-4.32-9.26,0,0-2.62-4.63-6.17-9.26,0,0-3.55-4.63-8.02-8.95,0,0-4.32-4.47-8.95-8.49,0,0-4.63-4.17-9.57-8.33,0,0-4.78-4.01-9.72-8.49,0,0-4.94-4.32-10.03-9.26,0,0-5.09-4.78-10.34-9.72,0,0-5.09-4.94-10.49-10.03,0,0-5.4-5.09-10.8-10.49,0,0-5.4-5.4-10.8-11.42,0,0-5.4-5.86-10.49-12.03,0,0-5.25-6.17-10.34-12.65,0,0-5.09-6.33-10.34-13.11,0,0-5.09-6.63-10.18-13.58,0,0-5.25-6.94-10.34-13.89,0,0-5.09-6.94-10.03-14.19,0,0-4.94-7.1-9.72-14.35,0,0-4.94-7.25-9.1-14.19,0,0-4.01-6.94-7.41-12.5,0,0-3.39-5.71-5.86-10.34,0,0-2.62-4.63-4.63-8.02,0,0-2.16-3.24-3.7-6.17,0,0-1.54-2.78-2.78-4.78,0,0-1.23-2.16-2.31-3.86,0,0-1.08-1.85-2.01-3.39,0,0-1.08-1.54-1.54-3.39,0,0-.62-1.7-.77-3.55,0,0-.31-1.85,0-3.55,0,0,.15-1.85.77-3.09,0,0,.46-1.39,1.54-2.62,0,0,.93-1.23,2.47-2.31,0,0,1.54-1.08,3.86-2.01,0,0,2.31-1.08,5.4-1.54,0,0,3.09-.62,6.48-1.39,0,0,3.39-.77,6.94-1.23,0,0,3.55-.46,7.25-1.23,0,0,3.55-.77,7.1-1.39,0,0,3.7-.46,6.94-1.23,0,0,3.39-.77,6.48-1.54,0,0,3.09-.77,6.17-1.85,0,0,3.09-.93,5.86-2.47,0,0,2.93-1.54,5.4-3.7,0,0,2.62-2.01,4.47-4.63,0,0,1.7-2.47,2.47-5.09,0,0,.77-2.62.77-5.4,0,0,0-2.78-.15-5.86,0,0-.31-3.09-.31-6.48,0,0,0-3.39-.31-6.94,0,0-.15-3.55-.46-7.41,0,0-.31-3.86-.77-8.02,0,0-.46-4.17-.77-8.79,0,0-.31-4.63-.46-9.72,0,0-.31-5.09-.62-11.11,0,0-.15-5.86-.46-11.57,0,0-.31-5.55-.46-10.49,0,0-.31-4.94-.31-8.49,0,0,0-3.55.31-6.17,0,0,.15-2.62.77-4.63,0,0,.46-2.01,1.23-4.17,0,0,.77-2.01,1.85-4.32,0,0,.93-2.31,2.31-4.32,0,0,1.23-2.16,3.09-4.17,0,0,1.7-2.01,4.01-4.17,0,0,2.31-2.01,5.25-4.32,0,0,2.78-2.31,5.55-4.32,0,0,2.93-2.16,5.71-4.17,0,0,2.78-2.01,5.71-4.17,0,0,2.78-2.01,6.17-4.32,0,0,3.24-2.31,6.63-4.63,0,0,3.39-2.31,6.94-4.94,0,0,3.55-2.47,7.25-5.09,0,0,3.55-2.62,7.41-5.09,0,0,3.86-2.62,8.02-4.94,0,0,4.01-2.31,8.49-4.63,0,0,4.32-2.31,9.26-4.63,0,0,4.78-2.31,9.72-4.32,0,0,4.94-2.16,9.72-4.17,0,0,4.94-2.01,14.97-6.48l10.03-4.32" vector-effect="non-scaling-stroke"/>
  <path class="st2" d="M245.78,66.34c2.78-.77,5.4-1.54,7.56-2.31,0,0,2.16-.77,6.63-2.31,0,0,4.32-1.54,7.87-3.39,0,0,3.7-1.7,6.94-3.55,0,0,3.39-1.85,6.48-3.55,0,0,3.09-1.85,5.86-3.39,0,0,2.93-1.54,5.25-3.09,0,0,2.31-1.54,4.32-3.09,0,0,2.01-1.54,4.17-2.78,0,0,2.01-1.39,4.32-2.31,0,0,2.31-1.08,4.63-1.54,0,0,2.31-.62,4.94-.31,0,0,2.47.31,5.09,1.08,0,0,2.62.77,5.09,2.31,0,0,2.62,1.54,5.25,3.24,0,0,2.47,1.85,5.4,3.86,0,0,2.78,2.16,5.86,4.17,0,0,3.09,2.01,6.48,3.86,0,0,3.24,1.85,6.63,3.39,0,0,3.39,1.54,7.71,2.78,0,0,4.32,1.23,8.79,2.01,0,0,4.32.77,9.26,1.39,0,0,4.78.46,8.95.77,0,0,4.17.15,8.49.46,0,0,4.32.31,8.79.77,0,0,4.32.46,8.95,1.23,0,0,4.63.77,9.26,2.31,0,0,4.63,1.54,9.26,3.7,0,0,4.63,2.01,9.26,4.63,0,0,4.63,2.47,9.26,5.55,0,0,4.63,3.09,9.26,6.94,0,0,4.63,3.86,8.95,8.33,0,0,4.47,4.32,8.33,9.26,0,0,3.86,4.78,7.1,10.18,0,0,3.39,5.4,6.17,11.42,0,0,2.93,5.86,5.25,12.34,0,0,2.31,6.33,4.01,13.11,0,0,1.85,6.63,3.09,13.27,0,0,1.39,6.79,2.62,13.42,0,0,1.23,6.63,2.62,13.11,0,0,1.23,6.48,2.47,12.65,0,0,1.39,6.17,2.31,11.57,0,0,1.08,5.4,1.54,10.49,0,0,.62,5.09.77,10.34,0,0,.31,5.09.31,10.49,0,0,0,5.4-.31,11.11,0,0-.15,5.55-.93,11.26,0,0-.77,5.71-2.31,11.57,0,0-1.54,5.86-4.47,14.19,0,0-2.78,8.18-5.86,16.66l-6.17,16.97s-3.09,8.49-5.4,14.97c0,0-2.31,6.33-4.63,12.81,0,0-2.31,6.48-4.63,12.81l-4.63,12.96s-2.31,6.33-4.32,12.81c0,0-2.16,6.48-3.7,13.11,0,0-1.54,6.63-2.47,13.42,0,0-1.08,6.63-1.54,13.58,0,0-.62,6.94-.77,13.89,0,0-.31,6.94,0,13.89,0,0,.15,6.94.93,13.58,0,0,.77,6.79,1.85,13.42,0,0,1.08,6.63,2.62,13.42,0,0,1.54,6.63,3.24,13.11,0,0,1.85,6.33,4.47,12.81,0,0,2.47,6.48,5.4,12.65,0,0,2.78,6.17,5.86,12.34,0,0,3.09,6.17,6.63,12.03,0,0,3.7,5.86,7.56,11.26,0,0,3.86,5.4,8.49,10.8,0,0,4.63,5.4,9.26,10.34,0,0,4.63,4.94,9.72,9.72,0,0,5.09,4.94,11.11,10.34l5.86,5.4" vector-effect="non-scaling-stroke"/>
  <path class="st3" d="M548.18,626.4c2.78,1.85,5.4,3.86,8.02,6.02,0,0,2.78,2.16,7.87,6.33,0,0,5.25,4.17,9.87,8.18,0,0,4.63,4.17,8.49,7.56,0,0,3.86,3.24,6.94,5.86,0,0,3.09,2.62,5.55,4.32,0,0,2.62,1.85,4.94,3.39l4.63,3.09s2.31,1.54,4.94,2.78c0,0,2.47,1.39,5.4,2.16,0,0,2.78.77,5.86.77,0,0,3.09,0,6.17-.62,0,0,3.09-.46,6.48-1.23,0,0,3.24-.77,6.63-1.23,0,0,3.39-.62,6.94-1.08,0,0,3.55-.46,7.25-1.08,0,0,3.55-.46,6.94-.93,0,0,3.24-.62,6.33-1.08,0,0,3.09-.46,5.71-.46,0,0,2.62,0,5.09.15,0,0,2.62.31,4.94,1.39,0,0,2.31.93,4.63,2.31,0,0,2.31,1.23,4.63,2.78,0,0,2.31,1.54,4.63,3.39,0,0,2.31,1.7,4.94,3.86,0,0,2.47,2.01,5.55,4.63,0,0,3.09,2.47,6.48,5.4,0,0,3.39,2.78,6.94,5.86,0,0,3.55,3.09,7.25,6.17,0,0,3.55,3.09,7.71,6.48,0,0,4.01,3.24,8.18,6.63,0,0,4.17,3.39,8.49,7.25,0,0,4.32,3.86,8.79,7.71,0,0,4.32,3.86,8.95,7.87,0,0,4.63,4.17,9.26,8.02,0,0,4.63,3.86,8.95,7.71,0,0,4.47,3.86,8.33,7.71,0,0,3.86,3.86,7.41,7.71,0,0,3.55,3.86,6.63,8.02,0,0,3.09,4.01,6.17,8.64,0,0,3.09,4.63,5.71,9.57,0,0,2.62,4.94,4.94,10.03,0,0,2.31,5.09,4.32,10.49,0,0,2.01,5.4,4.17,11.11,0,0,2.01,5.71,3.86,11.57,0,0,1.7,5.86,3.55,11.88,0,0,1.85,5.86,3.39,12.03,0,0,1.54,6.17,3.55,12.34,0,0,2.01,6.17,3.86,12.34,0,0,1.85,6.17,3.55,12.34l3.7,12.34s1.7,6.17,3.55,12.65c0,0,1.85,6.33,3.55,12.81,0,0,1.85,6.48,3.39,12.65,0,0,1.54,6.17,3.09,11.57,0,0,1.54,5.4,2.62,10.03,0,0,.93,4.63,1.7,8.18,0,0,.77,3.55,1.39,6.48,0,0,.46,2.78.93,4.78,0,0,.62,2.16.77,3.7,0,0,.31,1.54.31,2.78,0,0,0,1.23-.31,2.31,0,0-.15,1.08-.46,2.31,0,0-.31,1.23-.77,2.01,0,0-.46.77-1.23,1.54,0,0-.77.77-2.16,1.39,0,0-1.23.46-2.78.93,0,0-1.54.62-3.09,1.08,0,0-1.54.46-3.39.77,0,0-1.7.31-4.01.77,0,0-2.31.46-5.4,1.08,0,0-3.09.46-6.48,1.54,0,0-3.39.93-7.25,2.01,0,0-3.86,1.08-7.87,2.31,0,0-4.17,1.23-8.79,2.31,0,0-4.63,1.08-9.26,2.31,0,0-4.63,1.23-9.57,2.62,0,0-4.78,1.23-9.72,2.78,0,0-4.94,1.54-9.72,3.09,0,0-4.94,1.54-9.26,3.09,0,0-4.47,1.54-8.33,2.78,0,0-3.86,1.39-6.94,2.31,0,0-3.09,1.08-5.55,1.85,0,0-2.62.77-5.25,1.23,0,0-2.47.62-5.4.62,0,0-2.78,0-5.86-.62,0,0-3.09-.46-6.17-1.7,0,0-3.09-1.39-5.86-3.09,0,0-2.93-1.85-5.71-4.17,0,0-2.78-2.31-5.09-4.94,0,0-2.31-2.47-4.63-5.55,0,0-2.31-3.09-4.47-6.79,0,0-2.01-3.55-4.32-7.41l-4.63-7.71s-2.31-3.86-4.63-8.02c0,0-2.31-4.01-4.63-8.18,0,0-2.31-4.17-4.63-8.49,0,0-2.31-4.32-4.63-8.49,0,0-2.31-4.17-4.32-8.02,0,0-2.16-3.86-3.86-6.94,0,0-1.85-3.09-3.39-5.55,0,0-1.54-2.62-3.09-4.63,0,0-1.54-2.16-3.09-3.86,0,0-1.54-1.85-3.39-3.39,0,0-1.7-1.54-3.55-3.09,0,0-1.85-1.54-3.39-2.62,0,0-1.54-.93-2.47-1.54,0,0-1.08-.46-1.85-.46,0,0-.77,0-1.85.31,0,0-.93.15-2.01.77,0,0-1.08.46-2.01,1.54,0,0-1.08.93-2.16,2.31,0,0-.93,1.23-2.31,2.78,0,0-1.23,1.54-2.78,3.39,0,0-1.54,1.7-3.39,3.86,0,0-1.7,2.01-3.86,4.63,0,0-2.01,2.47-4.32,5.4l-4.63,5.55s-2.31,2.93-4.63,5.4c0,0-2.31,2.62-4.63,4.94,0,0-2.31,2.31-4.94,4.17,0,0-2.47,1.7-5.4,3.09,0,0-2.78,1.23-5.86,2.01,0,0-3.09.77-6.17,1.23,0,0-3.09.62-6.17.31,0,0-3.09-.31-6.48-1.23,0,0-3.24-1.08-6.33-2.93,0,0-3.09-1.7-6.17-3.86,0,0-3.09-2.01-6.02-4.63,0,0-2.78-2.47-5.86-5.4,0,0-3.09-2.78-6.17-5.86l-6.48-6.48s-3.24-3.24-6.94-6.63c0,0-3.55-3.39-7.41-6.94,0,0-3.86-3.55-8.02-7.41,0,0-4.01-3.86-8.64-8.33,0,0-4.63-4.32-9.87-9.41,0,0-5.09-5.25-10.49-10.65,0,0-5.4-5.4-11.11-10.95,0,0-5.55-5.71-11.57-11.42,0,0-5.86-5.55-12.34-11.57,0,0-6.33-5.86-13.11-12.34,0,0-6.63-6.33-13.58-12.81,0,0-6.94-6.48-13.89-13.11,0,0-6.94-6.63-15.43-15.74l-8.49-8.95" vector-effect="non-scaling-stroke"/>
  <g id="moving-circle-group">
    <circle cx="390.81" cy="805.37" r="30.86" vector-effect="non-scaling-stroke"/>
    <circle class="st4" cx="390.81" cy="805.37" r="10.8" vector-effect="non-scaling-stroke"/>
  </g>
</svg>