<?xml version="1.0" encoding="UTF-8"?>
<svg id="minimap-svg" xmlns="http://www.w3.org/2000/svg" version="1.1" viewBox="0 0 1472.58 1080">
  <!-- Generator: Adobe Illustrator 30.0.0, SVG Export Plug-In . SVG Version: 2.1.1 Build 123)  -->
  <defs>
    <style>
      .st0 {
        stroke: #ef4444;
      }

      .st0, .st1, .st2, .st3 {
        fill: none;
        stroke-miterlimit: 8.61;
      }

      .st0, .st2, .st3 {
        stroke-width: 4.3px;
      }

      .st4 {
        fill: #fff;
      }

      .st1 {
        stroke: #000;
        stroke-width: 17.21px;
      }

      .st2 {
        stroke: #fbbf24;
      }

      .st3 {
        stroke: #3b82f6;
      }
    </style>
  </defs>
  <g>
    <path class="st1" d="M1239.71,337.77c6.88-2.15,13.98-4.3,20.65-6.88,0,0,6.67-2.37,19.79-7.53,0,0,13.34-4.95,26.25-10.33,0,0,12.91-5.38,25.17-10.33,0,0,12.05-5.16,22.59-9.47,0,0,10.33-4.3,18.29-7.53,0,0,7.74-3.23,13.55-5.38,0,0,5.81-2.15,10.11-3.87,0,0,4.3-1.72,8.18-3.23,0,0,3.87-1.51,7.1-3.23,0,0,3.23-1.72,6.24-3.23,0,0,2.8-1.51,4.95-2.8,0,0,2.15-1.51,4.3-2.58,0,0,2.15-1.08,3.66-2.58,0,0,1.29-1.29,2.15-3.44,0,0,.65-2.15.65-4.73,0,0,0-2.58-.43-5.81,0,0-.22-3.23-1.29-6.67,0,0-1.08-3.66-2.58-7.96,0,0-1.51-4.3-3.66-9.25,0,0-2.15-5.16-4.3-10.76,0,0-2.15-5.81-5.38-12.69,0,0-3.23-6.67-6.45-13.98,0,0-3.23-7.1-6.67-15.06,0,0-3.66-7.75-7.31-16.14,0,0-3.44-8.18-7.1-17.21,0,0-3.66-8.82-7.53-18.29,0,0-3.87-9.25-7.53-18.29,0,0-3.66-8.82-6.88-16.35,0,0-3.23-7.53-5.59-13.34,0,0-2.58-5.81-4.73-10.11,0,0-2.15-4.3-3.66-7.53,0,0-1.29-3.23-2.8-4.95,0,0-1.51-1.72-2.8-2.58,0,0-1.51-.65-3.23-.65,0,0-1.94,0-3.66.43,0,0-1.72.22-3.87,1.08,0,0-2.15.65-5.16,1.72,0,0-2.8,1.08-6.45,2.58,0,0-3.44,1.29-7.74,3.23,0,0-4.3,1.72-9.68,3.87,0,0-5.38,2.15-11.62,4.3,0,0-6.02,2.15-12.91,4.73,0,0-6.67,2.37-13.98,4.95,0,0-7.1,2.58-15.27,5.81,0,0-8.39,3.23-17.21,6.45,0,0-9.04,3.23-18.72,6.67l-19.36,7.31s-9.68,3.44-19.36,7.1c0,0-9.68,3.66-19.79,7.53,0,0-9.9,3.87-20.44,7.96,0,0-10.33,3.87-21.08,8.61,0,0-10.76,4.52-21.94,9.25,0,0-10.97,4.73-22.16,9.25,0,0-11.19,4.73-22.59,9.47,0,0-11.4,4.52-23.02,9.25,0,0-11.4,4.73-23.24,9.68,0,0-11.83,4.95-23.67,10.11,0,0-11.83,4.95-23.67,10.33,0,0-11.83,5.38-23.67,10.33,0,0-11.83,5.16-23.02,9.68,0,0-10.97,4.73-20.65,8.61,0,0-9.68,4.09-17.21,7.31,0,0-7.53,3.23-13.34,5.59,0,0-5.81,2.58-10.11,4.73,0,0-4.3,2.15-7.74,3.87,0,0-3.66,1.94-6.88,3.23,0,0-3.23,1.51-6.45,2.58,0,0-3.23,1.08-6.02,2.58,0,0-3.01,1.29-5.16,2.37,0,0-2.15,1.08-3.87,2.58,0,0-1.72,1.51-2.8,2.58,0,0-1.08,1.08-2.15,2.8,0,0-1.08,1.72-1.08,3.23v3.23s0,1.72.65,3.66c0,0,.65,1.72,1.51,4.52,0,0,.65,3.01,1.72,5.81,0,0,1.08,2.8,2.15,6.45,0,0,1.08,3.66,2.58,7.1,0,0,1.29,3.66,2.8,8.39,0,0,1.51,4.52,3.66,9.68,0,0,2.15,4.95,4.3,10.33,0,0,2.15,5.38,4.52,10.76,0,0,2.58,5.38,4.73,10.76,0,0,2.15,5.38,4.3,10.33,0,0,2.15,5.16,4.3,9.68,0,0,2.15,4.73,3.87,8.39,0,0,1.94,3.44,3.01,6.45,0,0,1.08,2.8,1.72,4.95,0,0,.65,2.15,1.51,4.3l1.29,4.3s.86,2.15,1.51,3.87c0,0,.65,1.94.65,3.23v2.58s0,1.08-.65,2.15c0,0-.65,1.08-1.51,1.72,0,0-.65.86-2.15,1.51,0,0-1.29.65-3.23,1.51,0,0-1.72.65-4.3,1.72,0,0-2.37,1.08-5.59,2.15,0,0-3.23,1.08-7.31,2.58,0,0-3.87,1.29-8.61,3.23,0,0-4.52,1.72-9.9,3.87,0,0-5.38,2.15-11.62,4.73,0,0-6.02,2.37-12.91,5.38,0,0-6.67,2.8-13.98,6.02,0,0-7.1,3.23-14.2,6.88,0,0-7.31,3.44-13.77,7.1,0,0-6.45,3.66-12.48,7.1,0,0-6.02,3.66-11.4,6.45,0,0-5.38,3.01-10.54,5.38,0,0-4.95,2.58-8.82,4.73,0,0-4.09,2.15-8.61,4.3l-4.73,2.15" vector-effect="non-scaling-stroke"/>
    <path class="st1" d="M691.11,486.22c-1.08,1.08-2.15,2.15-3.23,2.8,0,0-1.08.86-3.66,2.15,0,0-2.37,1.51-4.95,3.01,0,0-2.58,1.29-4.95,2.8,0,0-2.58,1.51-4.3,2.8,0,0-1.94,1.51-3.66,3.01,0,0-1.72,1.29-2.8,3.44,0,0-1.08,2.15-2.15,4.73,0,0-1.08,2.58-1.51,4.95,0,0-.43,2.58-.43,4.73,0,0,0,2.15.86,4.3,0,0,.65,2.15,1.72,4.3,0,0,1.08,2.15,2.15,3.87,0,0,1.08,1.94,2.15,3.66,0,0,1.08,1.72,1.72,3.66,0,0,.86,1.72,1.08,3.44,0,0,.43,1.94.43,3.66,0,0,0,1.72-.43,3.23,0,0-.22,1.51-1.08,2.8,0,0-.65,1.51-2.15,2.58,0,0-1.29,1.08-3.23,2.58,0,0-1.72,1.29-4.3,3.23,0,0-2.37,1.72-5.59,3.87,0,0-3.23,2.15-6.88,4.73,0,0-3.66,2.37-7.96,5.38,0,0-4.3,2.8-8.82,6.45,0,0-4.73,3.44-10.54,7.74,0,0-5.59,4.3-11.83,9.04,0,0-6.02,4.73-12.91,9.68,0,0-6.67,4.95-14.2,10.33,0,0-7.53,5.38-15.49,11.19,0,0-7.96,5.81-15.71,11.83,0,0-7.96,6.02-15.49,11.83,0,0-7.53,5.81-13.98,10.76,0,0-6.45,4.95-11.83,9.04,0,0-5.38,3.87-9.04,6.67,0,0-3.44,3.01-6.45,5.16,0,0-2.8,2.15-4.95,3.44l-4.3,3.01s-2.15,1.29-3.87,2.8c0,0-1.94,1.51-3.23,2.8,0,0-1.51,1.51-2.58,2.58l-2.15,2.15-2.15,2.15-2.15,2.15s-1.08,1.08-2.15,1.72c0,0-1.08.86-2.15,1.08,0,0-1.08.43-2.15.43,0,0-1.08,0-2.15-.43,0,0-1.08-.22-2.15-1.08,0,0-1.08-.65-2.15-1.72,0,0-1.08-1.08-1.72-2.15,0,0-.86-1.08-1.51-2.15,0,0-.65-1.08-1.51-2.58,0,0-.65-1.29-1.29-3.23,0,0-.86-1.72-1.51-4.3,0,0-.65-2.37-1.51-5.38,0,0-.65-2.8-2.15-6.45,0,0-1.29-3.44-3.23-8.18,0,0-1.72-4.73-3.44-10.11,0,0-1.94-5.38-3.66-11.83,0,0-1.72-6.45-3.66-12.91,0,0-1.72-6.45-3.44-12.48,0,0-1.94-6.02-3.23-10.33,0,0-1.51-4.3-2.58-7.31,0,0-1.08-2.8-1.72-4.95,0,0-.86-2.15-1.51-4.3,0,0-.65-2.15-1.08-4.3,0,0-.43-2.15-1.08-3.87,0,0-.65-1.94-1.51-3.23,0,0-.65-1.51-1.72-2.58l-2.15-2.15s-1.08-1.08-2.15-1.72c0,0-1.08-.86-2.58-1.08,0,0-1.29-.43-3.87-1.08,0,0-2.58-.86-4.95-1.94,0,0-2.58-1.08-5.16-2.37,0,0-2.37-1.51-3.87-2.15,0,0-1.51-.86-3.23-1.51,0,0-1.72-.65-3.23-1.08,0,0-1.51-.43-3.23-.65,0,0-1.72-.43-3.66-.43h-17.86s-1.08,0-2.15-.43c0,0-1.08-.22-2.15-.65,0,0-1.08-.43-2.15-1.08,0,0-1.08-.65-1.72-1.51,0,0-.86-.65-1.51-1.72,0,0-.65-1.08-1.08-2.58,0,0-.43-1.29-1.08-3.23,0,0-.65-1.72-1.51-4.3,0,0-.65-2.37-1.72-4.95,0,0-1.08-2.58-2.58-5.38,0,0-1.29-2.8-3.23-4.95,0,0-1.72-2.15-3.87-4.09,0,0-2.15-1.72-4.3-2.8,0,0-2.15-1.08-4.3-1.51,0,0-2.15-.22-4.73-.22,0,0-2.37,0-5.38.65,0,0-2.8.65-6.45,1.72,0,0-3.44,1.08-7.53,2.58,0,0-3.87,1.51-8.61,2.8,0,0-4.52,1.51-9.68,3.01,0,0-4.95,1.29-10.76,3.23,0,0-5.59,1.72-11.4,4.3,0,0-5.81,2.37-11.83,4.95,0,0-6.02,2.58-12.48,5.38,0,0-6.45,2.8-13.77,5.81,0,0-7.1,2.8-14.63,6.45,0,0-7.53,3.44-15.49,7.53,0,0-7.75,3.87-16.14,8.18l-16.35,8.61s-8.39,4.3-16.14,8.61c0,0-7.96,4.3-14.84,8.18,0,0-6.67,4.09-12.91,7.53,0,0-6.02,3.66-10.97,7.31,0,0-5.16,3.44-9.47,7.74,0,0-4.3,4.3-7.53,9.47,0,0-3.23,4.95-5.59,10.33,0,0-2.58,5.38-4.73,10.76,0,0-2.15,5.38-3.87,10.76,0,0-1.94,5.38-3.66,11.19,0,0-1.72,5.59-3.66,11.83,0,0-1.72,6.02-3.87,12.48l-4.3,12.91s-2.15,6.45-3.87,12.26c0,0-1.94,5.59-3.66,10.97,0,0-1.72,5.38-3.23,10.11,0,0-1.51,4.73-2.58,9.68,0,0-1.08,4.95-1.29,9.68,0,0-.43,4.73-.43,9.68,0,0,0,4.95.43,10.33,0,0,.22,5.38.65,11.83,0,0,.43,6.45.65,13.77,0,0,.43,7.1.86,13.98,0,0,.22,6.67.65,12.91,0,0,.43,6.02.65,10.76,0,0,.43,4.52.43,8.82,0,0,0,4.3.43,7.96,0,0,.22,3.66.65,7.53,0,0,.43,3.87.65,7.53,0,0,.43,3.66.43,7.1v11.83s0,2.58-.43,4.73c0,0-.22,2.15-.65,3.87,0,0-.43,1.94-.43,3.23,0,0,0,1.51.43,2.58,0,0,.43,1.08,1.08,2.15,0,0,.65,1.08,1.51,2.15,0,0,.65,1.08,1.72,2.15,0,0,1.08,1.08,2.58,1.72,0,0,1.29.86,3.23,1.94,0,0,1.72,1.08,4.52,2.15,0,0,3.01,1.08,6.45,2.8,0,0,3.66,1.72,8.39,3.87,0,0,4.52,2.15,9.68,5.16,0,0,4.95,2.8,10.76,6.02,0,0,5.59,3.23,12.05,6.88,0,0,6.45,3.44,13.77,7.53,0,0,7.1,3.87,15.06,8.18,0,0,7.75,4.3,16.14,8.61,0,0,8.18,4.3,17.21,8.61,0,0,8.82,4.3,17.43,8.61,0,0,8.61,4.3,16.14,8.18,0,0,7.53,4.09,12.91,7.31,0,0,5.38,3.23,11.62,6.67l6.02,3.66" vector-effect="non-scaling-stroke"/>
    <path class="st1" d="M232.86,1028.37c1.08,1.08,2.15,2.15,3.66,2.8,0,0,1.29.86,3.44,2.15,0,0,2.15,1.51,4.73,2.15,0,0,2.58.86,4.73,1.08,0,0,2.15.43,4.52,0,0,0,2.58-.22,5.16-1.29,0,0,2.37-1.08,4.52-3.01,0,0,2.15-1.72,4.09-4.3,0,0,1.72-2.37,2.8-5.38,0,0,1.08-2.8,2.58-6.02,0,0,1.29-3.23,3.23-7.1,0,0,1.72-4.09,3.87-8.61,0,0,2.15-4.73,4.73-10.11,0,0,2.37-5.38,5.38-11.4,0,0,2.8-6.24,6.45-12.91,0,0,3.44-6.88,7.53-14.41,0,0,3.87-7.53,8.61-15.06,0,0,4.52-7.53,9.9-14.41,0,0,5.38-6.67,11.62-12.91,0,0,6.02-6.02,12.48-11.4,0,0,6.45-5.38,12.48-11.19,0,0,6.24-5.59,12.26-11.4,0,0,6.02-5.81,12.26-11.4,0,0,6.02-5.81,12.05-10.76,0,0,6.24-5.16,11.83-10.11,0,0,5.81-4.95,10.76-9.68,0,0,5.16-4.73,9.47-9.04,0,0,4.3-4.3,7.53-7.74,0,0,3.23-3.66,5.59-7.31,0,0,2.58-3.44,4.3-7.53,0,0,1.94-3.87,3.23-8.18,0,0,1.51-4.3,2.15-9.04,0,0,.86-4.52,1.51-9.68,0,0,.65-4.95,1.51-10.76,0,0,.65-5.59,2.15-11.4,0,0,1.29-5.81,3.23-11.4,0,0,1.72-5.81,3.87-10.76,0,0,2.15-5.16,4.95-10.11,0,0,3.01-4.95,6.45-9.25,0,0,3.66-4.3,7.96-8.61,0,0,4.3-4.3,9.04-8.39,0,0,4.52-3.87,9.9-8.18,0,0,5.38-4.3,11.62-8.61,0,0,6.02-4.3,12.48-9.04,0,0,6.45-4.52,13.34-9.68,0,0,6.67-4.95,13.98-10.33,0,0,7.1-5.38,14.63-11.19,0,0,7.53-5.59,15.49-11.83,0,0,7.74-6.02,15.27-11.83,0,0,7.53-5.59,14.84-10.97,0,0,7.1-5.38,13.55-10.11,0,0,6.45-4.73,12.91-9.04,0,0,6.45-4.3,12.91-7.74,0,0,6.45-3.66,12.91-6.88,0,0,6.45-3.23,13.34-6.45,0,0,6.67-3.23,13.98-6.45,0,0,7.1-3.23,15.06-6.45,0,0,7.74-3.23,16.14-6.45,0,0,8.18-3.23,17.21-6.88,0,0,8.82-3.44,18.29-7.1,0,0,9.25-3.66,19.36-7.53,0,0,9.9-3.87,20.44-7.96,0,0,10.33-3.87,21.08-8.18l21.51-8.61,21.51-8.61s10.76-4.3,21.94-9.04c0,0,10.97-4.52,22.16-9.25,0,0,11.19-4.73,22.59-9.25,0,0,11.4-4.73,23.02-9.47,0,0,11.4-4.52,23.24-9.25,0,0,11.83-4.73,24.1-9.68,0,0,12.05-4.95,24.31-9.68,0,0,12.26-4.73,24.31-9.68,0,0,12.26-4.95,25.17-10.11,0,0,12.91-4.95,25.82-10.33,0,0,12.91-5.38,26.25-10.33,0,0,13.12-5.16,26.03-10.11,0,0,12.91-4.95,26.25-10.11,0,0,13.34-4.95,37.22-14.63l24.1-9.68" vector-effect="non-scaling-stroke"/>
  </g>
  <path class="st0" d="M1239.71,337.77c6.88-2.15,13.98-4.3,20.65-6.88,0,0,6.67-2.37,19.79-7.53,0,0,13.34-4.95,26.25-10.33,0,0,12.91-5.38,25.17-10.33,0,0,12.05-5.16,22.59-9.47,0,0,10.33-4.3,18.29-7.53,0,0,7.74-3.23,13.55-5.38,0,0,5.81-2.15,10.11-3.87,0,0,4.3-1.72,8.18-3.23,0,0,3.87-1.51,7.1-3.23,0,0,3.23-1.72,6.24-3.23,0,0,2.8-1.51,4.95-2.8,0,0,2.15-1.51,4.3-2.58,0,0,2.15-1.08,3.66-2.58,0,0,1.29-1.29,2.15-3.44,0,0,.65-2.15.65-4.73,0,0,0-2.58-.43-5.81,0,0-.22-3.23-1.29-6.67,0,0-1.08-3.66-2.58-7.96,0,0-1.51-4.3-3.66-9.25,0,0-2.15-5.16-4.3-10.76,0,0-2.15-5.81-5.38-12.69,0,0-3.23-6.67-6.45-13.98,0,0-3.23-7.1-6.67-15.06,0,0-3.66-7.75-7.31-16.14,0,0-3.44-8.18-7.1-17.21,0,0-3.66-8.82-7.53-18.29,0,0-3.87-9.25-7.53-18.29,0,0-3.66-8.82-6.88-16.35,0,0-3.23-7.53-5.59-13.34,0,0-2.58-5.81-4.73-10.11,0,0-2.15-4.3-3.66-7.53,0,0-1.29-3.23-2.8-4.95,0,0-1.51-1.72-2.8-2.58,0,0-1.51-.65-3.23-.65,0,0-1.94,0-3.66.43,0,0-1.72.22-3.87,1.08,0,0-2.15.65-5.16,1.72,0,0-2.8,1.08-6.45,2.58,0,0-3.44,1.29-7.74,3.23,0,0-4.3,1.72-9.68,3.87,0,0-5.38,2.15-11.62,4.3,0,0-6.02,2.15-12.91,4.73,0,0-6.67,2.37-13.98,4.95,0,0-7.1,2.58-15.27,5.81,0,0-8.39,3.23-17.21,6.45,0,0-9.04,3.23-18.72,6.67l-19.36,7.31s-9.68,3.44-19.36,7.1c0,0-9.68,3.66-19.79,7.53,0,0-9.9,3.87-20.44,7.96,0,0-10.33,3.87-21.08,8.61,0,0-10.76,4.52-21.94,9.25,0,0-10.97,4.73-22.16,9.25,0,0-11.19,4.73-22.59,9.47,0,0-11.4,4.52-23.02,9.25,0,0-11.4,4.73-23.24,9.68,0,0-11.83,4.95-23.67,10.11,0,0-11.83,4.95-23.67,10.33,0,0-11.83,5.38-23.67,10.33,0,0-11.83,5.16-23.02,9.68,0,0-10.97,4.73-20.65,8.61,0,0-9.68,4.09-17.21,7.31,0,0-7.53,3.23-13.34,5.59,0,0-5.81,2.58-10.11,4.73,0,0-4.3,2.15-7.74,3.87,0,0-3.66,1.94-6.88,3.23,0,0-3.23,1.51-6.45,2.58,0,0-3.23,1.08-6.02,2.58,0,0-3.01,1.29-5.16,2.37,0,0-2.15,1.08-3.87,2.58,0,0-1.72,1.51-2.8,2.58,0,0-1.08,1.08-2.15,2.8,0,0-1.08,1.72-1.08,3.23v3.23s0,1.72.65,3.66c0,0,.65,1.72,1.51,4.52,0,0,.65,3.01,1.72,5.81,0,0,1.08,2.8,2.15,6.45,0,0,1.08,3.66,2.58,7.1,0,0,1.29,3.66,2.8,8.39,0,0,1.51,4.52,3.66,9.68,0,0,2.15,4.95,4.3,10.33,0,0,2.15,5.38,4.52,10.76,0,0,2.58,5.38,4.73,10.76,0,0,2.15,5.38,4.3,10.33,0,0,2.15,5.16,4.3,9.68,0,0,2.15,4.73,3.87,8.39,0,0,1.94,3.44,3.01,6.45,0,0,1.08,2.8,1.72,4.95,0,0,.65,2.15,1.51,4.3l1.29,4.3s.86,2.15,1.51,3.87c0,0,.65,1.94.65,3.23v2.58s0,1.08-.65,2.15c0,0-.65,1.08-1.51,1.72,0,0-.65.86-2.15,1.51,0,0-1.29.65-3.23,1.51,0,0-1.72.65-4.3,1.72,0,0-2.37,1.08-5.59,2.15,0,0-3.23,1.08-7.31,2.58,0,0-3.87,1.29-8.61,3.23,0,0-4.52,1.72-9.9,3.87,0,0-5.38,2.15-11.62,4.73,0,0-6.02,2.37-12.91,5.38,0,0-6.67,2.8-13.98,6.02,0,0-7.1,3.23-14.2,6.88,0,0-7.31,3.44-13.77,7.1,0,0-6.45,3.66-12.48,7.1,0,0-6.02,3.66-11.4,6.45,0,0-5.38,3.01-10.54,5.38,0,0-4.95,2.58-8.82,4.73,0,0-4.09,2.15-8.61,4.3l-4.73,2.15" vector-effect="non-scaling-stroke"/>
  <path class="st3" d="M691.11,486.22c-1.08,1.08-2.15,2.15-3.23,2.8,0,0-1.08.86-3.66,2.15,0,0-2.37,1.51-4.95,3.01,0,0-2.58,1.29-4.95,2.8,0,0-2.58,1.51-4.3,2.8,0,0-1.94,1.51-3.66,3.01,0,0-1.72,1.29-2.8,3.44,0,0-1.08,2.15-2.15,4.73,0,0-1.08,2.58-1.51,4.95,0,0-.43,2.58-.43,4.73,0,0,0,2.15.86,4.3,0,0,.65,2.15,1.72,4.3,0,0,1.08,2.15,2.15,3.87,0,0,1.08,1.94,2.15,3.66,0,0,1.08,1.72,1.72,3.66,0,0,.86,1.72,1.08,3.44,0,0,.43,1.94.43,3.66,0,0,0,1.72-.43,3.23,0,0-.22,1.51-1.08,2.8,0,0-.65,1.51-2.15,2.58,0,0-1.29,1.08-3.23,2.58,0,0-1.72,1.29-4.3,3.23,0,0-2.37,1.72-5.59,3.87,0,0-3.23,2.15-6.88,4.73,0,0-3.66,2.37-7.96,5.38,0,0-4.3,2.8-8.82,6.45,0,0-4.73,3.44-10.54,7.74,0,0-5.59,4.3-11.83,9.04,0,0-6.02,4.73-12.91,9.68,0,0-6.67,4.95-14.2,10.33,0,0-7.53,5.38-15.49,11.19,0,0-7.96,5.81-15.71,11.83,0,0-7.96,6.02-15.49,11.83,0,0-7.53,5.81-13.98,10.76,0,0-6.45,4.95-11.83,9.04,0,0-5.38,3.87-9.04,6.67,0,0-3.44,3.01-6.45,5.16,0,0-2.8,2.15-4.95,3.44l-4.3,3.01s-2.15,1.29-3.87,2.8c0,0-1.94,1.51-3.23,2.8,0,0-1.51,1.51-2.58,2.58l-2.15,2.15-2.15,2.15-2.15,2.15s-1.08,1.08-2.15,1.72c0,0-1.08.86-2.15,1.08,0,0-1.08.43-2.15.43,0,0-1.08,0-2.15-.43,0,0-1.08-.22-2.15-1.08,0,0-1.08-.65-2.15-1.72,0,0-1.08-1.08-1.72-2.15,0,0-.86-1.08-1.51-2.15,0,0-.65-1.08-1.51-2.58,0,0-.65-1.29-1.29-3.23,0,0-.86-1.72-1.51-4.3,0,0-.65-2.37-1.51-5.38,0,0-.65-2.8-2.15-6.45,0,0-1.29-3.44-3.23-8.18,0,0-1.72-4.73-3.44-10.11,0,0-1.94-5.38-3.66-11.83,0,0-1.72-6.45-3.66-12.91,0,0-1.72-6.45-3.44-12.48,0,0-1.94-6.02-3.23-10.33,0,0-1.51-4.3-2.58-7.31,0,0-1.08-2.8-1.72-4.95,0,0-.86-2.15-1.51-4.3,0,0-.65-2.15-1.08-4.3,0,0-.43-2.15-1.08-3.87,0,0-.65-1.94-1.51-3.23,0,0-.65-1.51-1.72-2.58l-2.15-2.15s-1.08-1.08-2.15-1.72c0,0-1.08-.86-2.58-1.08,0,0-1.29-.43-3.87-1.08,0,0-2.58-.86-4.95-1.94,0,0-2.58-1.08-5.16-2.37,0,0-2.37-1.51-3.87-2.15,0,0-1.51-.86-3.23-1.51,0,0-1.72-.65-3.23-1.08,0,0-1.51-.43-3.23-.65,0,0-1.72-.43-3.66-.43h-17.86s-1.08,0-2.15-.43c0,0-1.08-.22-2.15-.65,0,0-1.08-.43-2.15-1.08,0,0-1.08-.65-1.72-1.51,0,0-.86-.65-1.51-1.72,0,0-.65-1.08-1.08-2.58,0,0-.43-1.29-1.08-3.23,0,0-.65-1.72-1.51-4.3,0,0-.65-2.37-1.72-4.95,0,0-1.08-2.58-2.58-5.38,0,0-1.29-2.8-3.23-4.95,0,0-1.72-2.15-3.87-4.09,0,0-2.15-1.72-4.3-2.8,0,0-2.15-1.08-4.3-1.51,0,0-2.15-.22-4.73-.22,0,0-2.37,0-5.38.65,0,0-2.8.65-6.45,1.72,0,0-3.44,1.08-7.53,2.58,0,0-3.87,1.51-8.61,2.8,0,0-4.52,1.51-9.68,3.01,0,0-4.95,1.29-10.76,3.23,0,0-5.59,1.72-11.4,4.3,0,0-5.81,2.37-11.83,4.95,0,0-6.02,2.58-12.48,5.38,0,0-6.45,2.8-13.77,5.81,0,0-7.1,2.8-14.63,6.45,0,0-7.53,3.44-15.49,7.53,0,0-7.75,3.87-16.14,8.18l-16.35,8.61s-8.39,4.3-16.14,8.61c0,0-7.96,4.3-14.84,8.18,0,0-6.67,4.09-12.91,7.53,0,0-6.02,3.66-10.97,7.31,0,0-5.16,3.44-9.47,7.74,0,0-4.3,4.3-7.53,9.47,0,0-3.23,4.95-5.59,10.33,0,0-2.58,5.38-4.73,10.76,0,0-2.15,5.38-3.87,10.76,0,0-1.94,5.38-3.66,11.19,0,0-1.72,5.59-3.66,11.83,0,0-1.72,6.02-3.87,12.48l-4.3,12.91s-2.15,6.45-3.87,12.26c0,0-1.94,5.59-3.66,10.97,0,0-1.72,5.38-3.23,10.11,0,0-1.51,4.73-2.58,9.68,0,0-1.08,4.95-1.29,9.68,0,0-.43,4.73-.43,9.68,0,0,0,4.95.43,10.33,0,0,.22,5.38.65,11.83,0,0,.43,6.45.65,13.77,0,0,.43,7.1.86,13.98,0,0,.22,6.67.65,12.91,0,0,.43,6.02.65,10.76,0,0,.43,4.52.43,8.82,0,0,0,4.3.43,7.96,0,0,.22,3.66.65,7.53,0,0,.43,3.87.65,7.53,0,0,.43,3.66.43,7.1v11.83s0,2.58-.43,4.73c0,0-.22,2.15-.65,3.87,0,0-.43,1.94-.43,3.23,0,0,0,1.51.43,2.58,0,0,.43,1.08,1.08,2.15,0,0,.65,1.08,1.51,2.15,0,0,.65,1.08,1.72,2.15,0,0,1.08,1.08,2.58,1.72,0,0,1.29.86,3.23,1.94,0,0,1.72,1.08,4.52,2.15,0,0,3.01,1.08,6.45,2.8,0,0,3.66,1.72,8.39,3.87,0,0,4.52,2.15,9.68,5.16,0,0,4.95,2.8,10.76,6.02,0,0,5.59,3.23,12.05,6.88,0,0,6.45,3.44,13.77,7.53,0,0,7.1,3.87,15.06,8.18,0,0,7.75,4.3,16.14,8.61,0,0,8.18,4.3,17.21,8.61,0,0,8.82,4.3,17.43,8.61,0,0,8.61,4.3,16.14,8.18,0,0,7.53,4.09,12.91,7.31,0,0,5.38,3.23,11.62,6.67l6.02,3.66" vector-effect="non-scaling-stroke"/>
  <path class="st2" d="M232.86,1028.37c1.08,1.08,2.15,2.15,3.66,2.8,0,0,1.29.86,3.44,2.15,0,0,2.15,1.51,4.73,2.15,0,0,2.58.86,4.73,1.08,0,0,2.15.43,4.52,0,0,0,2.58-.22,5.16-1.29,0,0,2.37-1.08,4.52-3.01,0,0,2.15-1.72,4.09-4.3,0,0,1.72-2.37,2.8-5.38,0,0,1.08-2.8,2.58-6.02,0,0,1.29-3.23,3.23-7.1,0,0,1.72-4.09,3.87-8.61,0,0,2.15-4.73,4.73-10.11,0,0,2.37-5.38,5.38-11.4,0,0,2.8-6.24,6.45-12.91,0,0,3.44-6.88,7.53-14.41,0,0,3.87-7.53,8.61-15.06,0,0,4.52-7.53,9.9-14.41,0,0,5.38-6.67,11.62-12.91,0,0,6.02-6.02,12.48-11.4,0,0,6.45-5.38,12.48-11.19,0,0,6.24-5.59,12.26-11.4,0,0,6.02-5.81,12.26-11.4,0,0,6.02-5.81,12.05-10.76,0,0,6.24-5.16,11.83-10.11,0,0,5.81-4.95,10.76-9.68,0,0,5.16-4.73,9.47-9.04,0,0,4.3-4.3,7.53-7.74,0,0,3.23-3.66,5.59-7.31,0,0,2.58-3.44,4.3-7.53,0,0,1.94-3.87,3.23-8.18,0,0,1.51-4.3,2.15-9.04,0,0,.86-4.52,1.51-9.68,0,0,.65-4.95,1.51-10.76,0,0,.65-5.59,2.15-11.4,0,0,1.29-5.81,3.23-11.4,0,0,1.72-5.81,3.87-10.76,0,0,2.15-5.16,4.95-10.11,0,0,3.01-4.95,6.45-9.25,0,0,3.66-4.3,7.96-8.61,0,0,4.3-4.3,9.04-8.39,0,0,4.52-3.87,9.9-8.18,0,0,5.38-4.3,11.62-8.61,0,0,6.02-4.3,12.48-9.04,0,0,6.45-4.52,13.34-9.68,0,0,6.67-4.95,13.98-10.33,0,0,7.1-5.38,14.63-11.19,0,0,7.53-5.59,15.49-11.83,0,0,7.74-6.02,15.27-11.83,0,0,7.53-5.59,14.84-10.97,0,0,7.1-5.38,13.55-10.11,0,0,6.45-4.73,12.91-9.04,0,0,6.45-4.3,12.91-7.74,0,0,6.45-3.66,12.91-6.88,0,0,6.45-3.23,13.34-6.45,0,0,6.67-3.23,13.98-6.45,0,0,7.1-3.23,15.06-6.45,0,0,7.74-3.23,16.14-6.45,0,0,8.18-3.23,17.21-6.88,0,0,8.82-3.44,18.29-7.1,0,0,9.25-3.66,19.36-7.53,0,0,9.9-3.87,20.44-7.96,0,0,10.33-3.87,21.08-8.18l21.51-8.61,21.51-8.61s10.76-4.3,21.94-9.04c0,0,10.97-4.52,22.16-9.25,0,0,11.19-4.73,22.59-9.25,0,0,11.4-4.73,23.02-9.47,0,0,11.4-4.52,23.24-9.25,0,0,11.83-4.73,24.1-9.68,0,0,12.05-4.95,24.31-9.68,0,0,12.26-4.73,24.31-9.68,0,0,12.26-4.95,25.17-10.11,0,0,12.91-4.95,25.82-10.33,0,0,12.91-5.38,26.25-10.33,0,0,13.12-5.16,26.03-10.11,0,0,12.91-4.95,26.25-10.11,0,0,13.34-4.95,37.22-14.63l24.1-9.68" vector-effect="non-scaling-stroke"/>
  <g id="moving-circle-group">
    <circle cx="1239.71" cy="337.77" r="43.03" vector-effect="non-scaling-stroke"/>
    <circle class="st4" cx="1239.71" cy="337.77" r="15.06" vector-effect="non-scaling-stroke"/>
  </g>
</svg>