<?xml version="1.0" encoding="UTF-8"?>
<svg id="minimap-svg" xmlns="http://www.w3.org/2000/svg" version="1.1" viewBox="0 0 762.96 1080">
  <!-- Generator: Adobe Illustrator 30.0.0, SVG Export Plug-In . SVG Version: 2.1.1 Build 123)  -->
  <defs>
    <style>
      .st0 {
        stroke: #ef4444;
      }

      .st0, .st1, .st2, .st3 {
        fill: none;
        stroke-miterlimit: 6.17;
      }

      .st0, .st2, .st3 {
        stroke-width: 3.09px;
      }

      .st1 {
        stroke: #000;
        stroke-width: 12.34px;
      }

      .st2 {
        stroke: #3b82f6;
      }

      .st3 {
        stroke: #fbbf24;
      }

      .st4 {
        fill: #fff;
      }
    </style>
  </defs>
  <g>
    <path class="st1" d="M48.22,658.8c.31-8.02.77-16.2,1.23-24.38,0,0,.31-8.02,1.08-24.53,0,0,.77-16.35,1.54-32.55,0,0,.77-16.2,1.23-32.71,0,0,.62-16.51,1.08-32.86,0,0,.46-16.51,1.23-33.48,0,0,.77-16.97,1.54-34.25,0,0,.77-17.13,1.54-34.1,0,0,.77-16.97,1.39-33.17,0,0,.46-16.2.93-31.47,0,0,.62-15.12,1.08-29.47,0,0,.46-14.5,1.08-28.08,0,0,.46-13.58,1.23-26.69,0,0,.77-13.11,1.23-25.77,0,0,.62-12.65,1.08-25.15,0,0,.46-12.65.77-24.22,0,0,.31-11.57.77-22.06,0,0,.46-10.65.77-19.59,0,0,.31-8.95.46-16.97,0,0,.31-8.02.31-15.12,0,0,0-7.25.31-13.73,0,0,.15-6.33.46-12.34,0,0,.31-5.86.46-10.95,0,0,.31-5.25.31-10.03,0,0,0-4.94.46-9.1,0,0,.62-4.01,1.08-7.87,0,0,.46-3.86,1.54-7.25,0,0,1.08-3.39,2.31-6.48,0,0,1.23-3.09,3.55-4.78,0,0,2.31-1.85,4.94-2.62,0,0,2.62-.77,5.09-.31,0,0,2.62.62,4.63,1.54,0,0,2.16,1.08,4.47,3.09,0,0,2.31,2.16,4.78,4.63,0,0,2.62,2.62,6.02,5.71,0,0,3.24,3.09,6.63,6.48,0,0,3.39,3.24,6.63,6.63,0,0,3.39,3.39,6.48,6.48,0,0,3.09,3.09,6.17,5.4,0,0,3.09,2.31,6.48,3.55,0,0,3.24,1.23,6.94,1.85,0,0,3.55.46,7.41.15,0,0,3.86-.15,8.18-.93,0,0,4.47-.77,9.26-2.16,0,0,4.94-1.23,10.8-3.09,0,0,6.02-1.7,12.65-3.86,0,0,6.63-2.01,14.19-4.01,0,0,7.41-2.16,14.81-3.7,0,0,7.56-1.54,14.66-2.31,0,0,7.25-.77,14.19-.46,0,0,6.94.31,14.19,1.08,0,0,7.1.77,15.12,2.01,0,0,8.02,1.23,16.97,2.62,0,0,8.95,1.23,18.82,3.09,0,0,9.72,1.7,20.21,3.86,0,0,10.65,2.01,21.91,4.32,0,0,11.26,2.31,23.45,4.63,0,0,12.03,2.31,24.69,4.63,0,0,12.5,2.31,25.46,4.94,0,0,12.81,2.47,26.38,5.4,0,0,13.73,2.78,27.77,5.55,0,0,14.19,2.93,28.85,5.71,0,0,14.66,2.78,29.31,5.71,0,0,14.66,2.78,28.85,5.55,0,0,14.04,2.93,26.69,5.4,0,0,12.65,2.62,23.45,4.63,0,0,10.8,2.16,19.75,3.86,0,0,8.95,1.85,16.97,3.39,0,0,8.02,1.54,14.35,2.78,0,0,6.48,1.39,11.57,2.31,0,0,5.25,1.08,9.57,2.16,0,0,4.32.93,8.49,2.31,0,0,4.17,1.23,7.71,3.09,0,0,3.55,1.7,5.86,4.32,0,0,2.31,2.62,3.39,5.71,0,0,1.08,3.09,1.08,6.94,0,0,0,3.86-.62,7.87,0,0-.46,4.17-1.7,9.1,0,0-1.39,4.78-3.7,9.41,0,0-2.31,4.63-5.86,8.79,0,0-3.55,4.17-8.18,7.71,0,0-4.63,3.55-10.03,7.41,0,0-5.4,3.86-11.57,8.79,0,0-6.17,4.94-13.11,10.49,0,0-6.94,5.71-14.19,12.19,0,0-7.25,6.33-14.35,12.81,0,0-7.25,6.48-13.89,13.11,0,0-6.79,6.63-13.11,13.11,0,0-6.48,6.48-17.28,19.75l-10.8,13.42" vector-effect="non-scaling-stroke"/>
    <path class="st1" d="M588.22,311.66c-2.31,3.09-4.63,6.17-6.48,9.57,0,0-1.7,3.24-5.4,10.03,0,0-3.55,6.63-6.63,13.11,0,0-3.09,6.33-6.63,12.34,0,0-3.7,5.86-7.56,10.8,0,0-3.86,4.78-8.64,8.64,0,0-4.94,3.86-9.87,6.48,0,0-4.78,2.62-10.18,3.86,0,0-5.4,1.23-10.65,1.85,0,0-5.09.46-10.8.15,0,0-5.55-.15-11.57-.93l-11.73-1.54s-6.02-.77-11.57-1.54c0,0-5.71-.77-11.11-.77,0,0-5.4,0-10.49.77,0,0-5.25.77-9.87,2.47,0,0-4.63,1.85-8.49,4.47,0,0-3.86,2.47-7.71,5.55,0,0-3.86,3.09-7.87,7.25,0,0-4.17,4.17-8.79,8.95,0,0-4.63,4.94-9.72,11.11,0,0-5.25,6.17-10.65,13.11,0,0-5.4,6.94-11.26,14.97,0,0-5.86,7.87-11.88,15.89,0,0-5.86,8.02-11.57,15.43,0,0-5.55,7.41-10.49,13.58,0,0-4.94,6.17-8.79,11.42,0,0-3.86,5.09-6.94,9.26,0,0-3.09,4.01-5.86,7.41,0,0-2.78,3.39-5.4,5.71,0,0-2.62,2.31-5.4,3.86,0,0-2.78,1.54-5.71,2.01,0,0-2.78.46-5.55,0,0,0-2.93-.46-5.4-2.31,0,0-2.62-1.85-4.63-4.63,0,0-2.16-2.78-3.39-6.48,0,0-1.23-3.55-1.85-8.18,0,0-.46-4.63-.46-10.03,0,0,0-5.4.31-11.57,0,0,.15-6.17,1.23-13.11,0,0,1.08-6.94,2.62-14.97,0,0,1.54-7.87,3.24-17.13,0,0,1.85-9.26,3.39-19.29,0,0,1.54-10.03,3.39-20.83,0,0,1.7-10.8,3.86-22.22l4.01-22.53s2.16-11.42,3.86-21.6c0,0,1.85-10.34,3.39-19.13,0,0,1.54-8.64,2.78-15.89,0,0,1.39-7.25,2.31-13.58,0,0,1.08-6.48,1.85-12.34,0,0,.77-6.02,1.08-11.88,0,0,.15-5.86.15-11.57,0,0,0-5.71-.77-11.11,0,0-.77-5.4-1.7-10.18,0,0-1.08-4.94-2.93-9.26,0,0-1.7-4.47-4.01-8.79,0,0-2.31-4.32-5.25-8.18,0,0-2.78-3.86-5.86-7.56,0,0-3.09-3.55-6.17-6.33,0,0-3.09-2.93-5.86-5.4,0,0-2.93-2.62-5.71-4.63,0,0-2.78-2.16-5.4-3.86,0,0-2.62-1.85-5.09-3.39,0,0-2.62-1.54-4.94-2.62,0,0-2.31-.93-4.63-1.23,0,0-2.31-.31-4.32.46,0,0-2.16.77-3.7,2.62,0,0-1.54,1.85-2.47,4.32,0,0-1.08,2.62-1.85,6.02,0,0-.77,3.24-1.54,7.71,0,0-.77,4.32-1.54,9.72,0,0-.77,5.4-1.85,11.88,0,0-.93,6.33-2.01,13.58,0,0-1.08,7.25-2.31,15.43,0,0-1.23,8.18-2.31,17.43,0,0-1.08,9.26-2.01,19.59,0,0-1.08,10.34-1.85,21.29,0,0-.77,11.11-1.54,23.14,0,0-.77,12.19-1.54,24.69,0,0-.77,12.65-1.23,26.07,0,0-.62,13.27-1.08,27,0,0-.46,13.58-1.08,27.77,0,0-.46,14.04-1.23,28.54,0,0-.77,14.35-1.54,29.31,0,0-.77,14.81-1.54,30.09,0,0-.77,15.12-1.54,30.86,0,0-.77,15.58-1.54,31.63,0,0-.77,15.89-1.54,32.4,0,0-.77,16.35-1.54,32.4,0,0-.77,15.89-1.23,30.24,0,0-.62,14.5-1.08,26.07,0,0-.46,11.57-.77,20.52,0,0-.31,8.95-.46,15.74,0,0-.31,6.63-.31,12.03,0,0,0,5.4.31,10.03,0,0,.15,4.63,1.23,8.95,0,0,1.08,4.47,3.09,8.49,0,0,2.01,4.17,5.4,7.56,0,0,3.39,3.24,7.71,6.17,0,0,4.32,2.78,9.72,4.78,0,0,5.4,2.16,11.88,3.39,0,0,6.48,1.23,13.58,1.23,0,0,7.25,0,15.27-1.23,0,0,7.87-1.23,15.89-3.86,0,0,8.02-2.62,15.43-6.17,0,0,7.41-3.55,13.89-8.18,0,0,6.48-4.63,11.57-10.03,0,0,5.09-5.4,9.57-11.42,0,0,4.32-5.86,8.49-12.34,0,0,4.01-6.33,7.87-13.58,0,0,3.86-7.25,7.71-15.12,0,0,3.86-8.02,7.25-16.51,0,0,3.39-8.49,6.94-16.97,0,0,3.55-8.49,7.41-16.51,0,0,3.86-7.87,8.49-15.12,0,0,4.63-7.25,10.03-13.11,0,0,5.4-5.86,11.88-11.11,0,0,6.48-5.09,13.89-9.26,0,0,7.41-4.01,15.89-7.41,0,0,8.49-3.39,17.74-5.09,0,0,9.26-1.85,19.29-2.16,0,0,10.03-.15,20.37,1.54,0,0,10.34,1.85,20.52,5.25,0,0,10.34,3.24,28.08,11.57l17.74,8.18" vector-effect="non-scaling-stroke"/>
    <path class="st1" d="M575.88,635.66c3.86,1.85,7.71,3.86,11.26,5.86,0,0,3.7,1.85,10.8,5.71,0,0,7.25,3.86,13.73,8.02,0,0,6.33,4.01,12.03,8.49,0,0,5.71,4.32,10.34,9.26,0,0,4.63,4.78,8.49,10.03,0,0,3.86,5.09,6.63,10.49,0,0,2.78,5.4,4.17,10.8,0,0,1.23,5.4.46,10.34,0,0-.77,4.78-3.39,9.41,0,0-2.47,4.63-6.33,9.1,0,0-3.86,4.32-9.1,8.95,0,0-5.09,4.63-11.57,9.26,0,0-6.33,4.63-13.89,9.57,0,0-7.41,4.78-15.58,9.72,0,0-8.33,4.94-17.28,10.34,0,0-8.95,5.4-18.98,10.8,0,0-10.03,5.4-20.67,11.26,0,0-10.49,5.86-21.6,12.03,0,0-10.95,6.17-22.37,12.96,0,0-11.26,6.63-23.14,13.27,0,0-11.73,6.79-23.91,13.73,0,0-12.03,6.94-24.69,13.89,0,0-12.5,6.94-25.46,14.35,0,0-12.81,7.41-25.92,14.97,0,0-13.11,7.41-26.54,15.12,0,0-13.27,7.71-27,15.43,0,0-13.58,7.71-27.46,15.43l-27.77,15.43s-13.89,7.71-28.08,15.43c0,0-14.04,7.71-28.23,15.43,0,0-14.19,7.71-27.31,14.97,0,0-13.11,7.1-24.07,13.27,0,0-11.11,6.17-19.9,10.8,0,0-8.64,4.63-15.58,8.33,0,0-6.94,3.55-12.34,6.17,0,0-5.4,2.47-9.87,4.63,0,0-4.32,2.01-7.87,3.09,0,0-3.7.93-7.25,1.23,0,0-3.55.31-6.63-.46,0,0-3.09-.77-6.02-2.31,0,0-2.78-1.54-5.09-3.86,0,0-2.31-2.31-4.63-5.4,0,0-2.31-3.09-4.94-6.94,0,0-2.47-3.86-5.09-8.79,0,0-2.62-4.94-4.94-10.8,0,0-2.31-5.86-3.86-13.11,0,0-1.54-7.25-2.31-15.12,0,0-.77-8.02-.77-17.28,0,0,0-9.26.31-19.29,0,0,.31-10.03.77-20.83,0,0,.46-10.8.77-22.37,0,0,.31-11.57.77-23.61,0,0,.46-12.19.77-25.3,0,0,.31-13.11.77-26.38,0,0,.46-13.42.77-27.31,0,0,.31-13.89,1.08-28.08,0,0,.77-14.04,1.23-28.54,0,0,.46-14.35,1.23-29.47,0,0,.77-15.27,2.16-37.03l1.23-21.91" vector-effect="non-scaling-stroke"/>
  </g>
  <path class="st0" d="M48.22,658.8c.31-8.02.77-16.2,1.23-24.38,0,0,.31-8.02,1.08-24.53,0,0,.77-16.35,1.54-32.55,0,0,.77-16.2,1.23-32.71,0,0,.62-16.51,1.08-32.86,0,0,.46-16.51,1.23-33.48,0,0,.77-16.97,1.54-34.25,0,0,.77-17.13,1.54-34.1,0,0,.77-16.97,1.39-33.17,0,0,.46-16.2.93-31.47,0,0,.62-15.12,1.08-29.47,0,0,.46-14.5,1.08-28.08,0,0,.46-13.58,1.23-26.69,0,0,.77-13.11,1.23-25.77,0,0,.62-12.65,1.08-25.15,0,0,.46-12.65.77-24.22,0,0,.31-11.57.77-22.06,0,0,.46-10.65.77-19.59,0,0,.31-8.95.46-16.97,0,0,.31-8.02.31-15.12,0,0,0-7.25.31-13.73,0,0,.15-6.33.46-12.34,0,0,.31-5.86.46-10.95,0,0,.31-5.25.31-10.03,0,0,0-4.94.46-9.1,0,0,.62-4.01,1.08-7.87,0,0,.46-3.86,1.54-7.25,0,0,1.08-3.39,2.31-6.48,0,0,1.23-3.09,3.55-4.78,0,0,2.31-1.85,4.94-2.62,0,0,2.62-.77,5.09-.31,0,0,2.62.62,4.63,1.54,0,0,2.16,1.08,4.47,3.09,0,0,2.31,2.16,4.78,4.63,0,0,2.62,2.62,6.02,5.71,0,0,3.24,3.09,6.63,6.48,0,0,3.39,3.24,6.63,6.63,0,0,3.39,3.39,6.48,6.48,0,0,3.09,3.09,6.17,5.4,0,0,3.09,2.31,6.48,3.55,0,0,3.24,1.23,6.94,1.85,0,0,3.55.46,7.41.15,0,0,3.86-.15,8.18-.93,0,0,4.47-.77,9.26-2.16,0,0,4.94-1.23,10.8-3.09,0,0,6.02-1.7,12.65-3.86,0,0,6.63-2.01,14.19-4.01,0,0,7.41-2.16,14.81-3.7,0,0,7.56-1.54,14.66-2.31,0,0,7.25-.77,14.19-.46,0,0,6.94.31,14.19,1.08,0,0,7.1.77,15.12,2.01,0,0,8.02,1.23,16.97,2.62,0,0,8.95,1.23,18.82,3.09,0,0,9.72,1.7,20.21,3.86,0,0,10.65,2.01,21.91,4.32,0,0,11.26,2.31,23.45,4.63,0,0,12.03,2.31,24.69,4.63,0,0,12.5,2.31,25.46,4.94,0,0,12.81,2.47,26.38,5.4,0,0,13.73,2.78,27.77,5.55,0,0,14.19,2.93,28.85,5.71,0,0,14.66,2.78,29.31,5.71,0,0,14.66,2.78,28.85,5.55,0,0,14.04,2.93,26.69,5.4,0,0,12.65,2.62,23.45,4.63,0,0,10.8,2.16,19.75,3.86,0,0,8.95,1.85,16.97,3.39,0,0,8.02,1.54,14.35,2.78,0,0,6.48,1.39,11.57,2.31,0,0,5.25,1.08,9.57,2.16,0,0,4.32.93,8.49,2.31,0,0,4.17,1.23,7.71,3.09,0,0,3.55,1.7,5.86,4.32,0,0,2.31,2.62,3.39,5.71,0,0,1.08,3.09,1.08,6.94,0,0,0,3.86-.62,7.87,0,0-.46,4.17-1.7,9.1,0,0-1.39,4.78-3.7,9.41,0,0-2.31,4.63-5.86,8.79,0,0-3.55,4.17-8.18,7.71,0,0-4.63,3.55-10.03,7.41,0,0-5.4,3.86-11.57,8.79,0,0-6.17,4.94-13.11,10.49,0,0-6.94,5.71-14.19,12.19,0,0-7.25,6.33-14.35,12.81,0,0-7.25,6.48-13.89,13.11,0,0-6.79,6.63-13.11,13.11,0,0-6.48,6.48-17.28,19.75l-10.8,13.42" vector-effect="non-scaling-stroke"/>
  <path class="st2" d="M588.22,311.66c-2.31,3.09-4.63,6.17-6.48,9.57,0,0-1.7,3.24-5.4,10.03,0,0-3.55,6.63-6.63,13.11,0,0-3.09,6.33-6.63,12.34,0,0-3.7,5.86-7.56,10.8,0,0-3.86,4.78-8.64,8.64,0,0-4.94,3.86-9.87,6.48,0,0-4.78,2.62-10.18,3.86,0,0-5.4,1.23-10.65,1.85,0,0-5.09.46-10.8.15,0,0-5.55-.15-11.57-.93l-11.73-1.54s-6.02-.77-11.57-1.54c0,0-5.71-.77-11.11-.77,0,0-5.4,0-10.49.77,0,0-5.25.77-9.87,2.47,0,0-4.63,1.85-8.49,4.47,0,0-3.86,2.47-7.71,5.55,0,0-3.86,3.09-7.87,7.25,0,0-4.17,4.17-8.79,8.95,0,0-4.63,4.94-9.72,11.11,0,0-5.25,6.17-10.65,13.11,0,0-5.4,6.94-11.26,14.97,0,0-5.86,7.87-11.88,15.89,0,0-5.86,8.02-11.57,15.43,0,0-5.55,7.41-10.49,13.58,0,0-4.94,6.17-8.79,11.42,0,0-3.86,5.09-6.94,9.26,0,0-3.09,4.01-5.86,7.41,0,0-2.78,3.39-5.4,5.71,0,0-2.62,2.31-5.4,3.86,0,0-2.78,1.54-5.71,2.01,0,0-2.78.46-5.55,0,0,0-2.93-.46-5.4-2.31,0,0-2.62-1.85-4.63-4.63,0,0-2.16-2.78-3.39-6.48,0,0-1.23-3.55-1.85-8.18,0,0-.46-4.63-.46-10.03,0,0,0-5.4.31-11.57,0,0,.15-6.17,1.23-13.11,0,0,1.08-6.94,2.62-14.97,0,0,1.54-7.87,3.24-17.13,0,0,1.85-9.26,3.39-19.29,0,0,1.54-10.03,3.39-20.83,0,0,1.7-10.8,3.86-22.22l4.01-22.53s2.16-11.42,3.86-21.6c0,0,1.85-10.34,3.39-19.13,0,0,1.54-8.64,2.78-15.89,0,0,1.39-7.25,2.31-13.58,0,0,1.08-6.48,1.85-12.34,0,0,.77-6.02,1.08-11.88,0,0,.15-5.86.15-11.57,0,0,0-5.71-.77-11.11,0,0-.77-5.4-1.7-10.18,0,0-1.08-4.94-2.93-9.26,0,0-1.7-4.47-4.01-8.79,0,0-2.31-4.32-5.25-8.18,0,0-2.78-3.86-5.86-7.56,0,0-3.09-3.55-6.17-6.33,0,0-3.09-2.93-5.86-5.4,0,0-2.93-2.62-5.71-4.63,0,0-2.78-2.16-5.4-3.86,0,0-2.62-1.85-5.09-3.39,0,0-2.62-1.54-4.94-2.62,0,0-2.31-.93-4.63-1.23,0,0-2.31-.31-4.32.46,0,0-2.16.77-3.7,2.62,0,0-1.54,1.85-2.47,4.32,0,0-1.08,2.62-1.85,6.02,0,0-.77,3.24-1.54,7.71,0,0-.77,4.32-1.54,9.72,0,0-.77,5.4-1.85,11.88,0,0-.93,6.33-2.01,13.58,0,0-1.08,7.25-2.31,15.43,0,0-1.23,8.18-2.31,17.43,0,0-1.08,9.26-2.01,19.59,0,0-1.08,10.34-1.85,21.29,0,0-.77,11.11-1.54,23.14,0,0-.77,12.19-1.54,24.69,0,0-.77,12.65-1.23,26.07,0,0-.62,13.27-1.08,27,0,0-.46,13.58-1.08,27.77,0,0-.46,14.04-1.23,28.54,0,0-.77,14.35-1.54,29.31,0,0-.77,14.81-1.54,30.09,0,0-.77,15.12-1.54,30.86,0,0-.77,15.58-1.54,31.63,0,0-.77,15.89-1.54,32.4,0,0-.77,16.35-1.54,32.4,0,0-.77,15.89-1.23,30.24,0,0-.62,14.5-1.08,26.07,0,0-.46,11.57-.77,20.52,0,0-.31,8.95-.46,15.74,0,0-.31,6.63-.31,12.03,0,0,0,5.4.31,10.03,0,0,.15,4.63,1.23,8.95,0,0,1.08,4.47,3.09,8.49,0,0,2.01,4.17,5.4,7.56,0,0,3.39,3.24,7.71,6.17,0,0,4.32,2.78,9.72,4.78,0,0,5.4,2.16,11.88,3.39,0,0,6.48,1.23,13.58,1.23,0,0,7.25,0,15.27-1.23,0,0,7.87-1.23,15.89-3.86,0,0,8.02-2.62,15.43-6.17,0,0,7.41-3.55,13.89-8.18,0,0,6.48-4.63,11.57-10.03,0,0,5.09-5.4,9.57-11.42,0,0,4.32-5.86,8.49-12.34,0,0,4.01-6.33,7.87-13.58,0,0,3.86-7.25,7.71-15.12,0,0,3.86-8.02,7.25-16.51,0,0,3.39-8.49,6.94-16.97,0,0,3.55-8.49,7.41-16.51,0,0,3.86-7.87,8.49-15.12,0,0,4.63-7.25,10.03-13.11,0,0,5.4-5.86,11.88-11.11,0,0,6.48-5.09,13.89-9.26,0,0,7.41-4.01,15.89-7.41,0,0,8.49-3.39,17.74-5.09,0,0,9.26-1.85,19.29-2.16,0,0,10.03-.15,20.37,1.54,0,0,10.34,1.85,20.52,5.25,0,0,10.34,3.24,28.08,11.57l17.74,8.18" vector-effect="non-scaling-stroke"/>
  <path class="st3" d="M575.88,635.66c3.86,1.85,7.71,3.86,11.26,5.86,0,0,3.7,1.85,10.8,5.71,0,0,7.25,3.86,13.73,8.02,0,0,6.33,4.01,12.03,8.49,0,0,5.71,4.32,10.34,9.26,0,0,4.63,4.78,8.49,10.03,0,0,3.86,5.09,6.63,10.49,0,0,2.78,5.4,4.17,10.8,0,0,1.23,5.4.46,10.34,0,0-.77,4.78-3.39,9.41,0,0-2.47,4.63-6.33,9.1,0,0-3.86,4.32-9.1,8.95,0,0-5.09,4.63-11.57,9.26,0,0-6.33,4.63-13.89,9.57,0,0-7.41,4.78-15.58,9.72,0,0-8.33,4.94-17.28,10.34,0,0-8.95,5.4-18.98,10.8,0,0-10.03,5.4-20.67,11.26,0,0-10.49,5.86-21.6,12.03,0,0-10.95,6.17-22.37,12.96,0,0-11.26,6.63-23.14,13.27,0,0-11.73,6.79-23.91,13.73,0,0-12.03,6.94-24.69,13.89,0,0-12.5,6.94-25.46,14.35,0,0-12.81,7.41-25.92,14.97,0,0-13.11,7.41-26.54,15.12,0,0-13.27,7.71-27,15.43,0,0-13.58,7.71-27.46,15.43l-27.77,15.43s-13.89,7.71-28.08,15.43c0,0-14.04,7.71-28.23,15.43,0,0-14.19,7.71-27.31,14.97,0,0-13.11,7.1-24.07,13.27,0,0-11.11,6.17-19.9,10.8,0,0-8.64,4.63-15.58,8.33,0,0-6.94,3.55-12.34,6.17,0,0-5.4,2.47-9.87,4.63,0,0-4.32,2.01-7.87,3.09,0,0-3.7.93-7.25,1.23,0,0-3.55.31-6.63-.46,0,0-3.09-.77-6.02-2.31,0,0-2.78-1.54-5.09-3.86,0,0-2.31-2.31-4.63-5.4,0,0-2.31-3.09-4.94-6.94,0,0-2.47-3.86-5.09-8.79,0,0-2.62-4.94-4.94-10.8,0,0-2.31-5.86-3.86-13.11,0,0-1.54-7.25-2.31-15.12,0,0-.77-8.02-.77-17.28,0,0,0-9.26.31-19.29,0,0,.31-10.03.77-20.83,0,0,.46-10.8.77-22.37,0,0,.31-11.57.77-23.61,0,0,.46-12.19.77-25.3,0,0,.31-13.11.77-26.38,0,0,.46-13.42.77-27.31,0,0,.31-13.89,1.08-28.08,0,0,.77-14.04,1.23-28.54,0,0,.46-14.35,1.23-29.47,0,0,.77-15.27,2.16-37.03l1.23-21.91" vector-effect="non-scaling-stroke"/>
  <g id="moving-circle-group">
    <circle cx="48.22" cy="658.8" r="30.86" vector-effect="non-scaling-stroke"/>
    <circle class="st4" cx="48.22" cy="658.8" r="10.8" vector-effect="non-scaling-stroke"/>
  </g>
</svg>