<?xml version="1.0" encoding="UTF-8"?>
<svg id="minimap-svg" xmlns="http://www.w3.org/2000/svg" version="1.1" viewBox="0 0 697.8 1080">
  <!-- Generator: Adobe Illustrator 30.0.0, SVG Export Plug-In . SVG Version: 2.1.1 Build 123)  -->
  <defs>
    <style>
      .st0 {
        stroke: #ef4444;
      }

      .st0, .st1, .st2, .st3 {
        fill: none;
        stroke-miterlimit: 6.17;
      }

      .st0, .st2, .st3 {
        stroke-width: 3.09px;
      }

      .st1 {
        stroke: #000;
        stroke-width: 12.34px;
      }

      .st2 {
        stroke: #3b82f6;
      }

      .st3 {
        stroke: #fbbf24;
      }

      .st4 {
        fill: #fff;
      }
    </style>
  </defs>
  <g>
    <path class="st1" d="M82.76,760.63c2.31,9.26,4.63,18.51,6.94,27.46,0,0,2.31,9.1,6.63,27.31,0,0,4.47,18.21,8.79,36.26,0,0,4.32,18.05,8.95,36.26,0,0,4.63,18.21,9.26,35.49,0,0,4.63,17.28,8.79,32.71,0,0,4.17,15.43,7.71,27.46,0,0,3.55,12.03,6.94,21.29,0,0,3.39,9.26,6.63,16.05,0,0,3.39,6.63,6.79,11.73,0,0,3.24,5.25,6.94,8.79,0,0,3.55,3.55,7.71,6.48,0,0,4.01,2.78,8.49,4.63,0,0,4.32,1.7,8.95,2.31,0,0,4.63.46,8.95-.31,0,0,4.47-.77,8.79-2.62,0,0,4.32-1.7,8.79-4.63,0,0,4.32-2.78,8.64-6.33,0,0,4.47-3.7,8.79-8.02,0,0,4.32-4.32,8.79-8.49,0,0,4.32-4.17,8.95-7.41,0,0,4.63-3.39,9.57-5.4,0,0,4.78-2.16,10.03-2.31,0,0,5.09-.31,10.03.93,0,0,4.78,1.39,9.72,3.86,0,0,4.94,2.62,10.03,5.71,0,0,5.09,3.09,11.26,5.86,0,0,6.17,2.93,12.65,5.4,0,0,6.48,2.62,13.42,4.63,0,0,6.94,2.16,14.04,3.7,0,0,7.25,1.54,15.27,2.01,0,0,7.87.46,16.2.31,0,0,8.18-.31,16.97-1.85,0,0,8.64-1.54,17.43-3.86,0,0,8.79-2.31,17.43-5.86,0,0,8.79-3.7,16.97-8.33,0,0,8.33-4.63,16.05-10.8,0,0,7.71-6.17,14.66-13.58,0,0,6.94-7.41,12.81-16.2,0,0,5.86-8.79,11.11-18.21,0,0,5.09-9.57,9.41-20.06,0,0,4.47-10.65,8.49-21.91,0,0,4.17-11.26,7.71-23.61,0,0,3.7-12.34,6.94-25.77,0,0,3.39-13.42,6.94-27.46,0,0,3.7-14.19,7.56-29.16,0,0,3.86-14.81,7.87-30.09,0,0,4.17-15.12,8.02-30.86,0,0,3.86-15.58,8.02-31.78,0,0,4.01-16.2,8.18-33.02,0,0,4.17-16.66,8.18-33.63,0,0,4.17-16.97,8.33-34.25,0,0,4.01-17.13,8.49-34.71,0,0,4.32-17.43,10.49-39.03l6.17-21.6" vector-effect="non-scaling-stroke"/>
    <path class="st1" d="M630.47,526.11c2.31-8.95,4.63-17.74,6.94-26.54,0,0,2.31-8.95,6.94-25.92,0,0,4.63-16.97,8.95-32.09,0,0,4.47-15.27,8.02-27.77,0,0,3.55-12.65,6.17-22.37,0,0,2.62-9.87,4.32-17.28,0,0,1.85-7.41,2.93-13.42,0,0,.93-5.86,1.54-10.95,0,0,.46-5.25,0-10.03,0,0-.62-4.94-1.85-9.57,0,0-1.23-4.63-3.55-9.57,0,0-2.31-4.78-6.02-9.41,0,0-3.55-4.63-8.49-8.49,0,0-4.78-3.86-10.95-6.48,0,0-6.17-2.62-13.11-4.32,0,0-6.94-1.85-14.97-3.39,0,0-8.02-1.54-16.97-3.09,0,0-8.95-1.54-18.82-2.78,0,0-9.72-1.39-20.06-2.16,0,0-10.18-.77-20.52-.46,0,0-10.34.31-20.37,2.01,0,0-10.03,1.85-19.29,5.71,0,0-9.26,3.86-17.9,9.57,0,0-8.79,5.55-16.97,12.5,0,0-8.33,6.94-16.05,14.66,0,0-7.71,7.71-14.81,16.51,0,0-7.25,8.79-14.19,18.21,0,0-6.94,9.57-14.35,20.06,0,0-7.56,10.65-15.43,21.6,0,0-8.02,11.11-16.51,22.99,0,0-8.49,11.73-16.97,23.91,0,0-8.49,12.03-17.28,24.69,0,0-8.64,12.5-17.74,25.46,0,0-8.95,12.81-18.51,25.92,0,0-9.41,13.11-18.21,24.99,0,0-8.79,11.73-16.66,21.75,0,0-8.02,10.03-14.5,16.97,0,0-6.33,6.94-12.03,11.88,0,0-5.71,4.94-10.8,8.02,0,0-5.09,3.09-10.34,5.09,0,0-5.09,2.01-10.95,3.09,0,0-6.02,1.08-12.65,1.08,0,0-6.63,0-14.19-1.08,0,0-7.41-1.08-15.12-3.09,0,0-7.71-2.01-15.43-5.09,0,0-7.71-3.09-14.97-7.25,0,0-7.1-4.17-13.89-8.95,0,0-6.63-4.94-12.34-11.11,0,0-5.55-6.17-9.72-13.11,0,0-4.17-6.94-6.63-14.97,0,0-2.62-7.87-4.17-15.58,0,0-1.54-7.71-3.09-15.74,0,0-1.54-8.02-2.78-15.12,0,0-1.39-7.25-2.31-14.19,0,0-1.08-6.94-1.85-12.81,0,0-.77-6.02-1.23-11.42,0,0-.62-5.4-.77-10.49,0,0-.31-5.09,0-10.34,0,0,.15-5.09,1.23-10.18,0,0,1.08-5.25,3.39-9.87,0,0,2.31-4.63,5.55-7.87,0,0,3.39-3.39,7.25-5.25,0,0,3.86-1.7,8.02-1.7,0,0,4.01,0,8.18,1.23,0,0,4.17,1.23,8.18,3.55,0,0,4.17,2.31,8.33,5.25,0,0,4.01,2.78,8.49,5.4,0,0,4.32,2.47,8.64,4.63,0,0,4.47,2.01,9.1,3.24,0,0,4.63,1.39,8.95,2.16,0,0,4.32.77,8.95.93,0,0,4.63.31,9.1-.46,0,0,4.32-.77,8.49-2.31,0,0,4.01-1.54,7.71-4.32,0,0,3.55-2.93,6.33-6.17,0,0,2.93-3.39,5.25-7.71,0,0,2.31-4.47,3.55-9.26,0,0,1.23-4.94,1.23-10.34,0,0,0-5.4-1.23-10.8,0,0-1.23-5.4-3.86-10.49,0,0-2.62-5.25-6.17-10.03,0,0-3.55-4.94-8.18-9.87,0,0-4.63-4.78-9.87-10.03,0,0-5.09-5.09-10.8-10.95,0,0-5.55-6.02-11.57-12.34,0,0-5.86-6.48-11.57-13.42,0,0-5.55-6.94-10.49-14.35,0,0-4.94-7.56-8.79-15.43,0,0-3.86-8.02-6.63-16.2,0,0-2.78-8.33-4.63-15.43,0,0-1.85-7.25-2.78-12.96,0,0-1.08-5.55-1.85-9.72,0,0-.77-4.17-1.23-7.71,0,0-.62-3.55-.77-7.25,0,0-.31-3.55.15-7.1,0,0,.62-3.7,1.85-6.94,0,0,1.23-3.39,3.86-6.17,0,0,2.62-2.93,5.86-5.25,0,0,3.39-2.31,7.56-3.55,0,0,4.01-1.23,8.18-1.08,0,0,4.17.31,7.71,2.31,0,0,3.55,2.16,6.63,5.4,0,0,3.09,3.39,6.17,7.56,0,0,3.09,4.01,6.94,8.64,0,0,3.86,4.63,8.49,9.87,0,0,4.63,5.09,9.57,10.8,0,0,4.94,5.55,10.03,11.26,0,0,5.09,5.71,10.49,11.11,0,0,5.4,5.4,11.11,10.18,0,0,5.71,4.94,11.57,9.1,0,0,5.86,4.01,11.88,7.41,0,0,5.86,3.39,12.34,5.71,0,0,6.33,2.31,13.11,4.01,0,0,6.63,1.85,13.58,2.62,0,0,6.94.77,14.35.31,0,0,7.56-.62,14.97-2.62,0,0,7.41-2.01,14.97-5.4,0,0,7.41-3.39,14.04-7.71,0,0,6.79-4.32,12.96-10.03,0,0,6.17-5.71,11.73-12.34,0,0,5.71-6.63,11.11-14.19,0,0,5.4-7.41,10.8-15.58,0,0,5.4-8.33,16.2-24.69l10.8-16.51" vector-effect="non-scaling-stroke"/>
    <path class="st1" d="M414.47,177.43c3.09-5.4,6.17-10.8,8.95-15.74,0,0,2.93-4.78,8.02-13.58,0,0,5.09-8.79,8.95-15.43,0,0,3.86-6.63,6.94-11.57,0,0,3.09-4.94,5.4-9.26,0,0,2.31-4.32,4.47-8.49,0,0,2.01-4.17,3.24-8.79,0,0,1.39-4.63,1.85-9.26,0,0,.46-4.63-.46-8.95,0,0-1.08-4.32-3.7-7.71,0,0-2.47-3.39-6.33-6.17,0,0-3.86-2.78-8.49-5.4,0,0-4.63-2.62-10.03-5.4,0,0-5.4-2.78-11.57-5.4,0,0-6.17-2.62-12.96-5.4,0,0-6.63-2.78-13.58-5.09,0,0-6.94-2.31-14.19-4.47,0,0-7.1-2.01-14.66-3.55,0,0-7.41-1.54-15.43-2.31,0,0-7.87-.77-15.89-.77,0,0-8.02,0-16.51,1.08,0,0-8.49.93-17.43,2.47,0,0-8.95,1.54-18.82,3.86,0,0-9.72,2.31-20.21,5.4,0,0-10.65,3.09-21.6,6.94,0,0-11.11,3.86-22.99,8.79,0,0-11.73,4.94-23.61,10.8,0,0-11.88,5.86-23.61,12.81,0,0-11.88,6.94-22.99,14.66,0,0-10.95,7.71-20.98,16.51,0,0-10.03,8.79-18.36,18.51,0,0-8.18,9.72-14.35,20.37,0,0-6.17,10.49-10.8,21.6,0,0-4.63,10.95-8.02,22.53,0,0-3.24,11.57-6.33,23.76,0,0-3.09,12.03-6.02,24.84,0,0-2.78,12.96-6.17,26.23,0,0-3.24,13.42-6.63,27.77,0,0-3.39,14.5-6.63,29.31,0,0-3.39,14.97-6.48,30.7,0,0-3.09,15.58-6.17,31.63,0,0-3.09,15.89-5.09,32.4,0,0-2.16,16.35-2.93,33.33,0,0-.77,16.97.62,34.25,0,0,1.23,17.28,3.55,34.71,0,0,2.31,17.43,5.86,35.02,0,0,3.7,17.43,7.71,35.18,0,0,4.17,17.74,8.79,35.49,0,0,4.63,17.74,8.95,35.49,0,0,4.47,17.74,9.1,35.79,0,0,4.63,17.9,10.18,40.89l5.71,22.83" vector-effect="non-scaling-stroke"/>
  </g>
  <path class="st0" d="M82.76,760.63c2.31,9.26,4.63,18.51,6.94,27.46,0,0,2.31,9.1,6.63,27.31,0,0,4.47,18.21,8.79,36.26,0,0,4.32,18.05,8.95,36.26,0,0,4.63,18.21,9.26,35.49,0,0,4.63,17.28,8.79,32.71,0,0,4.17,15.43,7.71,27.46,0,0,3.55,12.03,6.94,21.29,0,0,3.39,9.26,6.63,16.05,0,0,3.39,6.63,6.79,11.73,0,0,3.24,5.25,6.94,8.79,0,0,3.55,3.55,7.71,6.48,0,0,4.01,2.78,8.49,4.63,0,0,4.32,1.7,8.95,2.31,0,0,4.63.46,8.95-.31,0,0,4.47-.77,8.79-2.62,0,0,4.32-1.7,8.79-4.63,0,0,4.32-2.78,8.64-6.33,0,0,4.47-3.7,8.79-8.02,0,0,4.32-4.32,8.79-8.49,0,0,4.32-4.17,8.95-7.41,0,0,4.63-3.39,9.57-5.4,0,0,4.78-2.16,10.03-2.31,0,0,5.09-.31,10.03.93,0,0,4.78,1.39,9.72,3.86,0,0,4.94,2.62,10.03,5.71,0,0,5.09,3.09,11.26,5.86,0,0,6.17,2.93,12.65,5.4,0,0,6.48,2.62,13.42,4.63,0,0,6.94,2.16,14.04,3.7,0,0,7.25,1.54,15.27,2.01,0,0,7.87.46,16.2.31,0,0,8.18-.31,16.97-1.85,0,0,8.64-1.54,17.43-3.86,0,0,8.79-2.31,17.43-5.86,0,0,8.79-3.7,16.97-8.33,0,0,8.33-4.63,16.05-10.8,0,0,7.71-6.17,14.66-13.58,0,0,6.94-7.41,12.81-16.2,0,0,5.86-8.79,11.11-18.21,0,0,5.09-9.57,9.41-20.06,0,0,4.47-10.65,8.49-21.91,0,0,4.17-11.26,7.71-23.61,0,0,3.7-12.34,6.94-25.77,0,0,3.39-13.42,6.94-27.46,0,0,3.7-14.19,7.56-29.16,0,0,3.86-14.81,7.87-30.09,0,0,4.17-15.12,8.02-30.86,0,0,3.86-15.58,8.02-31.78,0,0,4.01-16.2,8.18-33.02,0,0,4.17-16.66,8.18-33.63,0,0,4.17-16.97,8.33-34.25,0,0,4.01-17.13,8.49-34.71,0,0,4.32-17.43,10.49-39.03l6.17-21.6" vector-effect="non-scaling-stroke"/>
  <path class="st2" d="M630.47,526.11c2.31-8.95,4.63-17.74,6.94-26.54,0,0,2.31-8.95,6.94-25.92,0,0,4.63-16.97,8.95-32.09,0,0,4.47-15.27,8.02-27.77,0,0,3.55-12.65,6.17-22.37,0,0,2.62-9.87,4.32-17.28,0,0,1.85-7.41,2.93-13.42,0,0,.93-5.86,1.54-10.95,0,0,.46-5.25,0-10.03,0,0-.62-4.94-1.85-9.57,0,0-1.23-4.63-3.55-9.57,0,0-2.31-4.78-6.02-9.41,0,0-3.55-4.63-8.49-8.49,0,0-4.78-3.86-10.95-6.48,0,0-6.17-2.62-13.11-4.32,0,0-6.94-1.85-14.97-3.39,0,0-8.02-1.54-16.97-3.09,0,0-8.95-1.54-18.82-2.78,0,0-9.72-1.39-20.06-2.16,0,0-10.18-.77-20.52-.46,0,0-10.34.31-20.37,2.01,0,0-10.03,1.85-19.29,5.71,0,0-9.26,3.86-17.9,9.57,0,0-8.79,5.55-16.97,12.5,0,0-8.33,6.94-16.05,14.66,0,0-7.71,7.71-14.81,16.51,0,0-7.25,8.79-14.19,18.21,0,0-6.94,9.57-14.35,20.06,0,0-7.56,10.65-15.43,21.6,0,0-8.02,11.11-16.51,22.99,0,0-8.49,11.73-16.97,23.91,0,0-8.49,12.03-17.28,24.69,0,0-8.64,12.5-17.74,25.46,0,0-8.95,12.81-18.51,25.92,0,0-9.41,13.11-18.21,24.99,0,0-8.79,11.73-16.66,21.75,0,0-8.02,10.03-14.5,16.97,0,0-6.33,6.94-12.03,11.88,0,0-5.71,4.94-10.8,8.02,0,0-5.09,3.09-10.34,5.09,0,0-5.09,2.01-10.95,3.09,0,0-6.02,1.08-12.65,1.08,0,0-6.63,0-14.19-1.08,0,0-7.41-1.08-15.12-3.09,0,0-7.71-2.01-15.43-5.09,0,0-7.71-3.09-14.97-7.25,0,0-7.1-4.17-13.89-8.95,0,0-6.63-4.94-12.34-11.11,0,0-5.55-6.17-9.72-13.11,0,0-4.17-6.94-6.63-14.97,0,0-2.62-7.87-4.17-15.58,0,0-1.54-7.71-3.09-15.74,0,0-1.54-8.02-2.78-15.12,0,0-1.39-7.25-2.31-14.19,0,0-1.08-6.94-1.85-12.81,0,0-.77-6.02-1.23-11.42,0,0-.62-5.4-.77-10.49,0,0-.31-5.09,0-10.34,0,0,.15-5.09,1.23-10.18,0,0,1.08-5.25,3.39-9.87,0,0,2.31-4.63,5.55-7.87,0,0,3.39-3.39,7.25-5.25,0,0,3.86-1.7,8.02-1.7,0,0,4.01,0,8.18,1.23,0,0,4.17,1.23,8.18,3.55,0,0,4.17,2.31,8.33,5.25,0,0,4.01,2.78,8.49,5.4,0,0,4.32,2.47,8.64,4.63,0,0,4.47,2.01,9.1,3.24,0,0,4.63,1.39,8.95,2.16,0,0,4.32.77,8.95.93,0,0,4.63.31,9.1-.46,0,0,4.32-.77,8.49-2.31,0,0,4.01-1.54,7.71-4.32,0,0,3.55-2.93,6.33-6.17,0,0,2.93-3.39,5.25-7.71,0,0,2.31-4.47,3.55-9.26,0,0,1.23-4.94,1.23-10.34,0,0,0-5.4-1.23-10.8,0,0-1.23-5.4-3.86-10.49,0,0-2.62-5.25-6.17-10.03,0,0-3.55-4.94-8.18-9.87,0,0-4.63-4.78-9.87-10.03,0,0-5.09-5.09-10.8-10.95,0,0-5.55-6.02-11.57-12.34,0,0-5.86-6.48-11.57-13.42,0,0-5.55-6.94-10.49-14.35,0,0-4.94-7.56-8.79-15.43,0,0-3.86-8.02-6.63-16.2,0,0-2.78-8.33-4.63-15.43,0,0-1.85-7.25-2.78-12.96,0,0-1.08-5.55-1.85-9.72,0,0-.77-4.17-1.23-7.71,0,0-.62-3.55-.77-7.25,0,0-.31-3.55.15-7.1,0,0,.62-3.7,1.85-6.94,0,0,1.23-3.39,3.86-6.17,0,0,2.62-2.93,5.86-5.25,0,0,3.39-2.31,7.56-3.55,0,0,4.01-1.23,8.18-1.08,0,0,4.17.31,7.71,2.31,0,0,3.55,2.16,6.63,5.4,0,0,3.09,3.39,6.17,7.56,0,0,3.09,4.01,6.94,8.64,0,0,3.86,4.63,8.49,9.87,0,0,4.63,5.09,9.57,10.8,0,0,4.94,5.55,10.03,11.26,0,0,5.09,5.71,10.49,11.11,0,0,5.4,5.4,11.11,10.18,0,0,5.71,4.94,11.57,9.1,0,0,5.86,4.01,11.88,7.41,0,0,5.86,3.39,12.34,5.71,0,0,6.33,2.31,13.11,4.01,0,0,6.63,1.85,13.58,2.62,0,0,6.94.77,14.35.31,0,0,7.56-.62,14.97-2.62,0,0,7.41-2.01,14.97-5.4,0,0,7.41-3.39,14.04-7.71,0,0,6.79-4.32,12.96-10.03,0,0,6.17-5.71,11.73-12.34,0,0,5.71-6.63,11.11-14.19,0,0,5.4-7.41,10.8-15.58,0,0,5.4-8.33,16.2-24.69l10.8-16.51" vector-effect="non-scaling-stroke"/>
  <path class="st3" d="M414.47,177.43c3.09-5.4,6.17-10.8,8.95-15.74,0,0,2.93-4.78,8.02-13.58,0,0,5.09-8.79,8.95-15.43,0,0,3.86-6.63,6.94-11.57,0,0,3.09-4.94,5.4-9.26,0,0,2.31-4.32,4.47-8.49,0,0,2.01-4.17,3.24-8.79,0,0,1.39-4.63,1.85-9.26,0,0,.46-4.63-.46-8.95,0,0-1.08-4.32-3.7-7.71,0,0-2.47-3.39-6.33-6.17,0,0-3.86-2.78-8.49-5.4,0,0-4.63-2.62-10.03-5.4,0,0-5.4-2.78-11.57-5.4,0,0-6.17-2.62-12.96-5.4,0,0-6.63-2.78-13.58-5.09,0,0-6.94-2.31-14.19-4.47,0,0-7.1-2.01-14.66-3.55,0,0-7.41-1.54-15.43-2.31,0,0-7.87-.77-15.89-.77,0,0-8.02,0-16.51,1.08,0,0-8.49.93-17.43,2.47,0,0-8.95,1.54-18.82,3.86,0,0-9.72,2.31-20.21,5.4,0,0-10.65,3.09-21.6,6.94,0,0-11.11,3.86-22.99,8.79,0,0-11.73,4.94-23.61,10.8,0,0-11.88,5.86-23.61,12.81,0,0-11.88,6.94-22.99,14.66,0,0-10.95,7.71-20.98,16.51,0,0-10.03,8.79-18.36,18.51,0,0-8.18,9.72-14.35,20.37,0,0-6.17,10.49-10.8,21.6,0,0-4.63,10.95-8.02,22.53,0,0-3.24,11.57-6.33,23.76,0,0-3.09,12.03-6.02,24.84,0,0-2.78,12.96-6.17,26.23,0,0-3.24,13.42-6.63,27.77,0,0-3.39,14.5-6.63,29.31,0,0-3.39,14.97-6.48,30.7,0,0-3.09,15.58-6.17,31.63,0,0-3.09,15.89-5.09,32.4,0,0-2.16,16.35-2.93,33.33,0,0-.77,16.97.62,34.25,0,0,1.23,17.28,3.55,34.71,0,0,2.31,17.43,5.86,35.02,0,0,3.7,17.43,7.71,35.18,0,0,4.17,17.74,8.79,35.49,0,0,4.63,17.74,8.95,35.49,0,0,4.47,17.74,9.1,35.79,0,0,4.63,17.9,10.18,40.89l5.71,22.83" vector-effect="non-scaling-stroke"/>
  <g id="moving-circle-group">
    <circle cx="82.76" cy="760.63" r="30.86" vector-effect="non-scaling-stroke"/>
    <circle class="st4" cx="82.76" cy="760.63" r="10.8" vector-effect="non-scaling-stroke"/>
  </g>
</svg>