<?xml version="1.0" encoding="UTF-8"?>
<svg id="minimap-svg" xmlns="http://www.w3.org/2000/svg" version="1.1" viewBox="0 0 376.34 1080">
  <!-- Generator: Adobe Illustrator 30.0.0, SVG Export Plug-In . SVG Version: 2.1.1 Build 123)  -->
  <defs>
    <style>
      .st0 {
        stroke: #ef4444;
      }

      .st0, .st1, .st2, .st3 {
        fill: none;
        stroke-miterlimit: 6.17;
      }

      .st0, .st2, .st3 {
        stroke-width: 3.09px;
      }

      .st1 {
        stroke: #000;
        stroke-width: 12.34px;
      }

      .st2 {
        stroke: #3b82f6;
      }

      .st3 {
        stroke: #fbbf24;
      }

      .st4 {
        fill: #fff;
      }
    </style>
  </defs>
  <g>
    <path class="st1" d="M317.77,864c.31,2.78.77,5.4,1.23,7.87,0,0,.31,2.47,1.08,6.79,0,0,.77,4.32,1.23,8.02,0,0,.62,3.55,1.08,6.63,0,0,.46,3.09.77,5.86,0,0,.31,2.93.46,5.71,0,0,.31,2.78.31,5.71,0,0,0,2.78-.31,6.17,0,0-.15,3.24-.46,6.94,0,0-.31,3.55-.46,7.41l-.62,7.71s-.15,3.86-.77,7.71c0,0-.46,3.86-.93,7.41,0,0-.62,3.7-1.08,7.25,0,0-.46,3.55-.77,6.94,0,0-.31,3.39-.77,6.48,0,0-.46,3.09-.77,5.4,0,0-.31,2.31-.46,4.01,0,0-.31,1.85-.31,3.7v3.55s0,1.85.31,3.55c0,0,.15,1.85.77,3.09,0,0,.46,1.39,1.54,2.31,0,0,.93,1.08,2.01,1.85,0,0,1.08.77,2.31,1.54,0,0,1.23.77,2.31,1.23,0,0,1.08.62,2.31,1.08,0,0,1.23.46,2.62,1.08,0,0,1.23.46,2.78,1.23,0,0,1.54.77,3.09,1.85,0,0,1.54.93,3.09,2.01,0,0,1.54,1.08,2.78,2.31,0,0,1.39,1.23,2.31,2.62,0,0,1.08,1.23,1.85,2.78,0,0,.77,1.54,1.23,3.09,0,0,.62,1.54.62,2.78,0,0,0,1.39-.31,2.62,0,0-.31,1.23-.77,2.31,0,0-.46,1.08-1.08,2.31,0,0-.46,1.23-1.54,2.31,0,0-.93,1.08-2.31,2.01,0,0-1.23,1.08-2.78,1.85,0,0-1.54.77-3.55,1.54,0,0-2.16.77-4.47,1.23,0,0-2.31.62-5.4.62,0,0-3.09,0-6.17-.62,0,0-3.09-.46-6.63-1.54,0,0-3.55-.93-7.25-2.31,0,0-3.55-1.23-7.41-2.47,0,0-3.86-1.39-7.71-2.62,0,0-3.86-1.23-8.02-2.62,0,0-4.01-1.23-7.87-2.78,0,0-3.86-1.54-7.71-3.39,0,0-3.86-1.7-7.25-3.86,0,0-3.39-2.01-6.63-4.32l-6.79-4.63s-3.24-2.31-6.63-4.94c0,0-3.39-2.47-6.94-5.4,0,0-3.55-2.78-6.94-5.86,0,0-3.39-3.09-6.94-6.17,0,0-3.55-3.09-6.63-6.17,0,0-3.09-3.09-6.02-5.86,0,0-2.78-2.93-4.78-5.25,0,0-2.16-2.31-3.86-3.86,0,0-1.85-1.54-3.09-2.47,0,0-1.39-1.08-2.31-2.16,0,0-1.08-.93-1.85-2.01,0,0-.77-1.08-1.54-2.01l-1.54-2.16s-.77-.93-1.23-2.01c0,0-.62-1.08-1.08-2.01,0,0-.46-1.08-.77-2.16,0,0-.31-.93-.31-2.01,0,0,0-1.08.31-2.01,0,0,.31-1.08.77-2.16,0,0,.46-.93.77-2.31,0,0,.31-1.23.77-2.78,0,0,.46-1.54,1.08-3.39,0,0,.46-1.7.93-3.55,0,0,.62-1.85.62-3.86,0,0,0-2.01-.62-3.86,0,0-.46-1.85-1.23-3.86,0,0-.77-2.01-1.85-3.86,0,0-.93-1.85-2.31-3.86,0,0-1.23-2.01-3.09-4.32,0,0-1.7-2.31-3.86-5.25,0,0-2.01-2.78-4.63-5.86,0,0-2.47-3.09-5.09-6.17,0,0-2.62-3.09-5.09-6.17,0,0-2.62-3.09-4.94-5.86,0,0-2.31-2.93-4.63-5.4l-4.63-5.25s-2.31-2.47-4.63-4.78c0,0-2.31-2.31-4.63-4.47,0,0-2.31-2.01-4.63-3.55,0,0-2.31-1.54-4.32-2.78,0,0-2.16-1.39-3.86-2.62,0,0-1.85-1.23-3.7-2.78,0,0-1.7-1.54-3.55-3.7,0,0-1.85-2.01-3.55-4.32,0,0-1.85-2.31-3.09-4.94,0,0-1.39-2.47-2.62-5.4,0,0-1.23-2.78-2.31-5.86,0,0-1.08-3.09-2.01-6.48,0,0-1.08-3.24-1.54-6.63,0,0-.62-3.39-.77-8.18l-.31-4.94" vector-effect="non-scaling-stroke"/>
    <path class="st1" d="M101.77,797.66v-30.86s0-3.09.31-6.17c0,0,.15-3.09.46-6.17,0,0,.31-3.09.46-6.17,0,0,.31-3.09.31-5.86v-13.89s0-1.85-.31-3.39c0,0-.15-1.54-.46-3.09,0,0-.31-1.54-.77-3.09,0,0-.46-1.54-1.08-2.78,0,0-.46-1.39-1.23-2.31,0,0-.77-1.08-1.85-1.85,0,0-.93-.77-2.01-1.54,0,0-1.08-.77-2.31-1.23,0,0-1.23-.62-2.62-.77,0,0-1.23-.31-2.78-.31,0,0-1.54,0-2.78.31,0,0-1.39.15-2.62.46,0,0-1.23.31-2.62.46,0,0-1.23.31-2.47.31h-8.02s-1.54,0-3.39-.31c0,0-1.7-.15-3.86-.93,0,0-2.01-.77-4.01-2.16,0,0-2.16-1.23-4.17-3.09,0,0-2.01-1.7-3.86-4.01,0,0-1.85-2.31-3.55-5.25,0,0-1.85-2.78-3.39-6.17,0,0-1.54-3.24-2.78-6.94,0,0-1.39-3.55-2.31-7.41,0,0-1.08-3.86-1.85-8.02,0,0-.77-4.01-1.54-8.49,0,0-.77-4.32-1.23-9.26,0,0-.62-4.78-1.08-10.18,0,0-.46-5.4-.77-11.42,0,0-.31-5.86-.46-12.03,0,0-.31-6.17-.62-12.65,0,0-.15-6.33-.46-12.81,0,0-.31-6.48-.77-13.42,0,0-.46-6.94-.46-13.89v-14.35s0-7.41.46-14.97c0,0,.46-7.41,1.08-15.12,0,0,.46-7.71,1.23-15.43,0,0,.77-7.71,1.85-15.74,0,0,.93-7.87,2.31-15.89,0,0,1.23-8.02,3.09-16.2,0,0,1.7-8.18,3.55-16.2,0,0,1.85-8.02,3.55-15.43,0,0,1.85-7.41,3.39-13.58,0,0,1.54-6.17,2.78-10.8,0,0,1.39-4.63,2.31-8.33,0,0,1.08-3.55,1.54-6.17,0,0,.62-2.47,1.08-4.78,0,0,.46-2.31,1.08-4.17,0,0,.46-1.85,1.54-3.55,0,0,.93-1.85,2.31-3.09,0,0,1.23-1.39,2.78-2.31,0,0,1.54-1.08,3.09-1.54,0,0,1.54-.62,2.78-.77,0,0,1.39-.31,2.62-.31,0,0,1.23,0,2.62-.31,0,0,1.23-.15,2.78-.77,0,0,1.54-.46,3.39-1.23,0,0,1.7-.77,3.55-1.85,0,0,1.85-.93,3.55-2.31,0,0,1.85-1.23,3.39-3.24,0,0,1.54-2.16,3.09-4.47,0,0,1.54-2.31,3.09-5.09,0,0,1.54-2.78,2.78-5.86,0,0,1.39-3.09,2.62-6.48,0,0,1.23-3.39,2.31-6.94,0,0,1.08-3.55,2.01-7.25,0,0,1.08-3.55,1.85-7.71,0,0,.77-4.01,1.54-8.18,0,0,.77-4.17,1.85-8.49,0,0,.93-4.32,2.01-8.79,0,0,1.08-4.32,2.01-8.95,0,0,1.08-4.63,1.85-9.26,0,0,.77-4.63,1.85-9.57,0,0,.93-4.78,2.01-10.18,0,0,1.08-5.4,2.31-11.42,0,0,1.23-5.86,2.31-12.34,0,0,1.08-6.33,2.01-12.81,0,0,1.08-6.48,1.85-13.11,0,0,.77-6.63,1.23-13.42,0,0,.62-6.63,1.08-13.58,0,0,.46-6.94,1.08-15.43l.46-8.49" vector-effect="non-scaling-stroke"/>
    <path class="st1" d="M135.71,145.03c-.31-3.39-.77-6.94-1.23-10.49,0,0-.31-3.39-1.39-10.03,0,0-.93-6.79-2.01-12.96,0,0-1.08-6.17-2.01-11.26,0,0-1.08-5.09-1.85-9.57,0,0-.77-4.32-1.54-7.71,0,0-.77-3.24-1.54-6.17,0,0-.77-2.78-1.23-4.78,0,0-.62-2.16-1.08-4.17,0,0-.46-2.01-.77-3.86,0,0-.31-1.85-.77-3.55,0,0-.46-1.85-.77-3.39,0,0-.31-1.54-.46-2.78,0,0-.31-1.39-.62-2.62,0,0-.15-1.23-.15-2.31v-2.31s0-1.23.46-2.31c0,0,.46-1.08,1.08-2.01,0,0,.46-1.08,1.23-1.85l1.54-1.54s.77-.77,1.54-1.23c0,0,.77-.62,1.85-.77,0,0,.93-.31,2.01,0,0,0,1.08.15,2.31.77,0,0,1.23.46,2.31,1.54,0,0,1.08.93,1.85,2.31,0,0,.77,1.23,1.23,2.78,0,0,.46,1.54,1.08,3.09,0,0,.46,1.54,1.23,3.55,0,0,.77,2.16,1.23,4.63,0,0,.62,2.62,1.08,5.71,0,0,.46,3.09.77,6.48,0,0,.31,3.24.46,6.63,0,0,.31,3.39.62,6.94,0,0,.15,3.55.77,7.25,0,0,.46,3.55,1.54,7.41,0,0,.93,3.86,2.31,7.41,0,0,1.23,3.7,3.09,7.25,0,0,1.7,3.55,3.55,7.25,0,0,1.85,3.55,3.86,7.71,0,0,2.01,4.01,3.86,8.49,0,0,1.85,4.32,3.86,8.95,0,0,2.01,4.63,3.86,9.57,0,0,1.85,4.78,3.86,10.18,0,0,2.01,5.4,4.17,11.11,0,0,2.01,5.71,4.32,11.57,0,0,2.31,5.86,4.94,12.03,0,0,2.47,6.17,5.09,12.96,0,0,2.62,6.63,5.09,13.58,0,0,2.62,6.94,5.25,14.19,0,0,2.47,7.1,5.09,14.35,0,0,2.62,7.25,4.94,14.35,0,0,2.31,7.25,4.01,14.19,0,0,1.85,6.94,3.39,14.19,0,0,1.54,7.1,3.09,14.35,0,0,1.54,7.25,3.09,14.66,0,0,1.54,7.41,3.09,14.97,0,0,1.54,7.41,3.09,15.43,0,0,1.54,7.87,3.09,16.2l3.09,16.35s1.54,8.33,3.39,16.51c0,0,1.7,8.18,3.55,16.51,0,0,1.85,8.18,3.55,16.66l3.7,16.97s1.7,8.49,3.55,16.97c0,0,1.85,8.49,3.55,17.28,0,0,1.85,8.64,3.7,17.43,0,0,1.7,8.79,3.55,17.74,0,0,1.85,8.95,3.86,18.05,0,0,2.01,8.95,3.86,17.74,0,0,1.85,8.64,3.39,16.35,0,0,1.54,7.71,2.78,13.89,0,0,1.23,6.17,2.01,10.8,0,0,.77,4.63,1.54,8.02,0,0,.77,3.39,1.08,5.71,0,0,.31,2.31.77,4.01,0,0,.46,1.85.77,3.7,0,0,.31,1.7.77,3.55,0,0,.46,1.85.77,3.55,0,0,.31,1.85.31,3.39,0,0,0,1.54-.31,2.78,0,0-.31,1.39-.77,2.62,0,0-.46,1.23-1.23,2.31,0,0-.77,1.08-1.85,1.85,0,0-1.08.77-2.01,1.23,0,0-1.08.46-1.85,1.08,0,0-.77.46-1.54,1.23,0,0-.77.77-1.23,1.85,0,0-.62.93-1.08,2.01,0,0-.46,1.08-.77,2.31,0,0-.31,1.23-.31,2.62,0,0,0,1.23.31,2.78,0,0,.31,1.54.77,3.55,0,0,.46,2.16,1.08,4.47,0,0,.46,2.31,1.23,5.4,0,0,.77,3.09,1.23,6.33,0,0,.62,3.39,1.39,7.71,0,0,.77,4.47,1.54,9.1,0,0,.77,4.63,2.01,10.03,0,0,1.23,5.4,2.31,10.95,0,0,1.08,5.71,2.31,11.88,0,0,1.23,6.17,2.62,12.34,0,0,1.23,6.17,3.86,17.74,0,0,2.47,11.57,5.09,23.61,0,0,2.62,12.19,5.09,24.53,0,0,2.62,12.34,4.17,19.75,0,0,1.54,7.41,3.09,14.66,0,0,1.54,7.25,3.09,15.89l1.54,8.79" vector-effect="non-scaling-stroke"/>
  </g>
  <path class="st0" d="M317.77,864c.31,2.78.77,5.4,1.23,7.87,0,0,.31,2.47,1.08,6.79,0,0,.77,4.32,1.23,8.02,0,0,.62,3.55,1.08,6.63,0,0,.46,3.09.77,5.86,0,0,.31,2.93.46,5.71,0,0,.31,2.78.31,5.71,0,0,0,2.78-.31,6.17,0,0-.15,3.24-.46,6.94,0,0-.31,3.55-.46,7.41l-.62,7.71s-.15,3.86-.77,7.71c0,0-.46,3.86-.93,7.41,0,0-.62,3.7-1.08,7.25,0,0-.46,3.55-.77,6.94,0,0-.31,3.39-.77,6.48,0,0-.46,3.09-.77,5.4,0,0-.31,2.31-.46,4.01,0,0-.31,1.85-.31,3.7v3.55s0,1.85.31,3.55c0,0,.15,1.85.77,3.09,0,0,.46,1.39,1.54,2.31,0,0,.93,1.08,2.01,1.85,0,0,1.08.77,2.31,1.54,0,0,1.23.77,2.31,1.23,0,0,1.08.62,2.31,1.08,0,0,1.23.46,2.62,1.08,0,0,1.23.46,2.78,1.23,0,0,1.54.77,3.09,1.85,0,0,1.54.93,3.09,2.01,0,0,1.54,1.08,2.78,2.31,0,0,1.39,1.23,2.31,2.62,0,0,1.08,1.23,1.85,2.78,0,0,.77,1.54,1.23,3.09,0,0,.62,1.54.62,2.78,0,0,0,1.39-.31,2.62,0,0-.31,1.23-.77,2.31,0,0-.46,1.08-1.08,2.31,0,0-.46,1.23-1.54,2.31,0,0-.93,1.08-2.31,2.01,0,0-1.23,1.08-2.78,1.85,0,0-1.54.77-3.55,1.54,0,0-2.16.77-4.47,1.23,0,0-2.31.62-5.4.62,0,0-3.09,0-6.17-.62,0,0-3.09-.46-6.63-1.54,0,0-3.55-.93-7.25-2.31,0,0-3.55-1.23-7.41-2.47,0,0-3.86-1.39-7.71-2.62,0,0-3.86-1.23-8.02-2.62,0,0-4.01-1.23-7.87-2.78,0,0-3.86-1.54-7.71-3.39,0,0-3.86-1.7-7.25-3.86,0,0-3.39-2.01-6.63-4.32l-6.79-4.63s-3.24-2.31-6.63-4.94c0,0-3.39-2.47-6.94-5.4,0,0-3.55-2.78-6.94-5.86,0,0-3.39-3.09-6.94-6.17,0,0-3.55-3.09-6.63-6.17,0,0-3.09-3.09-6.02-5.86,0,0-2.78-2.93-4.78-5.25,0,0-2.16-2.31-3.86-3.86,0,0-1.85-1.54-3.09-2.47,0,0-1.39-1.08-2.31-2.16,0,0-1.08-.93-1.85-2.01,0,0-.77-1.08-1.54-2.01l-1.54-2.16s-.77-.93-1.23-2.01c0,0-.62-1.08-1.08-2.01,0,0-.46-1.08-.77-2.16,0,0-.31-.93-.31-2.01,0,0,0-1.08.31-2.01,0,0,.31-1.08.77-2.16,0,0,.46-.93.77-2.31,0,0,.31-1.23.77-2.78,0,0,.46-1.54,1.08-3.39,0,0,.46-1.7.93-3.55,0,0,.62-1.85.62-3.86,0,0,0-2.01-.62-3.86,0,0-.46-1.85-1.23-3.86,0,0-.77-2.01-1.85-3.86,0,0-.93-1.85-2.31-3.86,0,0-1.23-2.01-3.09-4.32,0,0-1.7-2.31-3.86-5.25,0,0-2.01-2.78-4.63-5.86,0,0-2.47-3.09-5.09-6.17,0,0-2.62-3.09-5.09-6.17,0,0-2.62-3.09-4.94-5.86,0,0-2.31-2.93-4.63-5.4l-4.63-5.25s-2.31-2.47-4.63-4.78c0,0-2.31-2.31-4.63-4.47,0,0-2.31-2.01-4.63-3.55,0,0-2.31-1.54-4.32-2.78,0,0-2.16-1.39-3.86-2.62,0,0-1.85-1.23-3.7-2.78,0,0-1.7-1.54-3.55-3.7,0,0-1.85-2.01-3.55-4.32,0,0-1.85-2.31-3.09-4.94,0,0-1.39-2.47-2.62-5.4,0,0-1.23-2.78-2.31-5.86,0,0-1.08-3.09-2.01-6.48,0,0-1.08-3.24-1.54-6.63,0,0-.62-3.39-.77-8.18l-.31-4.94" vector-effect="non-scaling-stroke"/>
  <path class="st2" d="M101.77,797.66v-30.86s0-3.09.31-6.17c0,0,.15-3.09.46-6.17,0,0,.31-3.09.46-6.17,0,0,.31-3.09.31-5.86v-13.89s0-1.85-.31-3.39c0,0-.15-1.54-.46-3.09,0,0-.31-1.54-.77-3.09,0,0-.46-1.54-1.08-2.78,0,0-.46-1.39-1.23-2.31,0,0-.77-1.08-1.85-1.85,0,0-.93-.77-2.01-1.54,0,0-1.08-.77-2.31-1.23,0,0-1.23-.62-2.62-.77,0,0-1.23-.31-2.78-.31,0,0-1.54,0-2.78.31,0,0-1.39.15-2.62.46,0,0-1.23.31-2.62.46,0,0-1.23.31-2.47.31h-8.02s-1.54,0-3.39-.31c0,0-1.7-.15-3.86-.93,0,0-2.01-.77-4.01-2.16,0,0-2.16-1.23-4.17-3.09,0,0-2.01-1.7-3.86-4.01,0,0-1.85-2.31-3.55-5.25,0,0-1.85-2.78-3.39-6.17,0,0-1.54-3.24-2.78-6.94,0,0-1.39-3.55-2.31-7.41,0,0-1.08-3.86-1.85-8.02,0,0-.77-4.01-1.54-8.49,0,0-.77-4.32-1.23-9.26,0,0-.62-4.78-1.08-10.18,0,0-.46-5.4-.77-11.42,0,0-.31-5.86-.46-12.03,0,0-.31-6.17-.62-12.65,0,0-.15-6.33-.46-12.81,0,0-.31-6.48-.77-13.42,0,0-.46-6.94-.46-13.89v-14.35s0-7.41.46-14.97c0,0,.46-7.41,1.08-15.12,0,0,.46-7.71,1.23-15.43,0,0,.77-7.71,1.85-15.74,0,0,.93-7.87,2.31-15.89,0,0,1.23-8.02,3.09-16.2,0,0,1.7-8.18,3.55-16.2,0,0,1.85-8.02,3.55-15.43,0,0,1.85-7.41,3.39-13.58,0,0,1.54-6.17,2.78-10.8,0,0,1.39-4.63,2.31-8.33,0,0,1.08-3.55,1.54-6.17,0,0,.62-2.47,1.08-4.78,0,0,.46-2.31,1.08-4.17,0,0,.46-1.85,1.54-3.55,0,0,.93-1.85,2.31-3.09,0,0,1.23-1.39,2.78-2.31,0,0,1.54-1.08,3.09-1.54,0,0,1.54-.62,2.78-.77,0,0,1.39-.31,2.62-.31,0,0,1.23,0,2.62-.31,0,0,1.23-.15,2.78-.77,0,0,1.54-.46,3.39-1.23,0,0,1.7-.77,3.55-1.85,0,0,1.85-.93,3.55-2.31,0,0,1.85-1.23,3.39-3.24,0,0,1.54-2.16,3.09-4.47,0,0,1.54-2.31,3.09-5.09,0,0,1.54-2.78,2.78-5.86,0,0,1.39-3.09,2.62-6.48,0,0,1.23-3.39,2.31-6.94,0,0,1.08-3.55,2.01-7.25,0,0,1.08-3.55,1.85-7.71,0,0,.77-4.01,1.54-8.18,0,0,.77-4.17,1.85-8.49,0,0,.93-4.32,2.01-8.79,0,0,1.08-4.32,2.01-8.95,0,0,1.08-4.63,1.85-9.26,0,0,.77-4.63,1.85-9.57,0,0,.93-4.78,2.01-10.18,0,0,1.08-5.4,2.31-11.42,0,0,1.23-5.86,2.31-12.34,0,0,1.08-6.33,2.01-12.81,0,0,1.08-6.48,1.85-13.11,0,0,.77-6.63,1.23-13.42,0,0,.62-6.63,1.08-13.58,0,0,.46-6.94,1.08-15.43l.46-8.49" vector-effect="non-scaling-stroke"/>
  <path class="st3" d="M135.71,145.03c-.31-3.39-.77-6.94-1.23-10.49,0,0-.31-3.39-1.39-10.03,0,0-.93-6.79-2.01-12.96,0,0-1.08-6.17-2.01-11.26,0,0-1.08-5.09-1.85-9.57,0,0-.77-4.32-1.54-7.71,0,0-.77-3.24-1.54-6.17,0,0-.77-2.78-1.23-4.78,0,0-.62-2.16-1.08-4.17,0,0-.46-2.01-.77-3.86,0,0-.31-1.85-.77-3.55,0,0-.46-1.85-.77-3.39,0,0-.31-1.54-.46-2.78,0,0-.31-1.39-.62-2.62,0,0-.15-1.23-.15-2.31v-2.31s0-1.23.46-2.31c0,0,.46-1.08,1.08-2.01,0,0,.46-1.08,1.23-1.85l1.54-1.54s.77-.77,1.54-1.23c0,0,.77-.62,1.85-.77,0,0,.93-.31,2.01,0,0,0,1.08.15,2.31.77,0,0,1.23.46,2.31,1.54,0,0,1.08.93,1.85,2.31,0,0,.77,1.23,1.23,2.78,0,0,.46,1.54,1.08,3.09,0,0,.46,1.54,1.23,3.55,0,0,.77,2.16,1.23,4.63,0,0,.62,2.62,1.08,5.71,0,0,.46,3.09.77,6.48,0,0,.31,3.24.46,6.63,0,0,.31,3.39.62,6.94,0,0,.15,3.55.77,7.25,0,0,.46,3.55,1.54,7.41,0,0,.93,3.86,2.31,7.41,0,0,1.23,3.7,3.09,7.25,0,0,1.7,3.55,3.55,7.25,0,0,1.85,3.55,3.86,7.71,0,0,2.01,4.01,3.86,8.49,0,0,1.85,4.32,3.86,8.95,0,0,2.01,4.63,3.86,9.57,0,0,1.85,4.78,3.86,10.18,0,0,2.01,5.4,4.17,11.11,0,0,2.01,5.71,4.32,11.57,0,0,2.31,5.86,4.94,12.03,0,0,2.47,6.17,5.09,12.96,0,0,2.62,6.63,5.09,13.58,0,0,2.62,6.94,5.25,14.19,0,0,2.47,7.1,5.09,14.35,0,0,2.62,7.25,4.94,14.35,0,0,2.31,7.25,4.01,14.19,0,0,1.85,6.94,3.39,14.19,0,0,1.54,7.1,3.09,14.35,0,0,1.54,7.25,3.09,14.66,0,0,1.54,7.41,3.09,14.97,0,0,1.54,7.41,3.09,15.43,0,0,1.54,7.87,3.09,16.2l3.09,16.35s1.54,8.33,3.39,16.51c0,0,1.7,8.18,3.55,16.51,0,0,1.85,8.18,3.55,16.66l3.7,16.97s1.7,8.49,3.55,16.97c0,0,1.85,8.49,3.55,17.28,0,0,1.85,8.64,3.7,17.43,0,0,1.7,8.79,3.55,17.74,0,0,1.85,8.95,3.86,18.05,0,0,2.01,8.95,3.86,17.74,0,0,1.85,8.64,3.39,16.35,0,0,1.54,7.71,2.78,13.89,0,0,1.23,6.17,2.01,10.8,0,0,.77,4.63,1.54,8.02,0,0,.77,3.39,1.08,5.71,0,0,.31,2.31.77,4.01,0,0,.46,1.85.77,3.7,0,0,.31,1.7.77,3.55,0,0,.46,1.85.77,3.55,0,0,.31,1.85.31,3.39,0,0,0,1.54-.31,2.78,0,0-.31,1.39-.77,2.62,0,0-.46,1.23-1.23,2.31,0,0-.77,1.08-1.85,1.85,0,0-1.08.77-2.01,1.23,0,0-1.08.46-1.85,1.08,0,0-.77.46-1.54,1.23,0,0-.77.77-1.23,1.85,0,0-.62.93-1.08,2.01,0,0-.46,1.08-.77,2.31,0,0-.31,1.23-.31,2.62,0,0,0,1.23.31,2.78,0,0,.31,1.54.77,3.55,0,0,.46,2.16,1.08,4.47,0,0,.46,2.31,1.23,5.4,0,0,.77,3.09,1.23,6.33,0,0,.62,3.39,1.39,7.71,0,0,.77,4.47,1.54,9.1,0,0,.77,4.63,2.01,10.03,0,0,1.23,5.4,2.31,10.95,0,0,1.08,5.71,2.31,11.88,0,0,1.23,6.17,2.62,12.34,0,0,1.23,6.17,3.86,17.74,0,0,2.47,11.57,5.09,23.61,0,0,2.62,12.19,5.09,24.53,0,0,2.62,12.34,4.17,19.75,0,0,1.54,7.41,3.09,14.66,0,0,1.54,7.25,3.09,15.89l1.54,8.79" vector-effect="non-scaling-stroke"/>
  <g id="moving-circle-group">
    <circle cx="317.77" cy="864" r="30.86" vector-effect="non-scaling-stroke"/>
    <circle class="st4" cx="317.77" cy="864" r="10.8" vector-effect="non-scaling-stroke"/>
  </g>
</svg>