<?xml version="1.0" encoding="UTF-8"?>
<svg id="minimap-svg" xmlns="http://www.w3.org/2000/svg" version="1.1" viewBox="0 0 1234.9 1080">
  <!-- Generator: Adobe Illustrator 30.0.0, SVG Export Plug-In . SVG Version: 2.1.1 Build 123)  -->
  <defs>
    <style>
      .st0 {
        stroke: #ef4444;
      }

      .st0, .st1, .st2, .st3 {
        fill: none;
        stroke-miterlimit: 7.04;
      }

      .st0, .st2, .st3 {
        stroke-width: 3.52px;
      }

      .st1 {
        stroke: #000;
        stroke-width: 14.07px;
      }

      .st2 {
        stroke: #3b82f6;
      }

      .st3 {
        stroke: #fbbf24;
      }

      .st4 {
        fill: #fff;
      }
    </style>
  </defs>
  <g>
    <path class="st1" d="M714.19,853.09c-5.63,1.76-11.43,3.52-16.89,4.75,0,0-5.45,1.06-16.18,3.69,0,0-10.91,2.64-21.81,5.1,0,0-10.73,2.29-21.99,4.93,0,0-11.08,2.64-21.99,5.28,0,0-10.73,2.64-21.64,5.28,0,0-10.91,2.64-21.64,5.28,0,0-10.91,2.64-22.34,4.93,0,0-11.43,2.46-22.51,4.75,0,0-11.26,2.29-21.81,4.75,0,0-10.55,2.29-20.76,4.93,0,0-10.2,2.64-20.58,4.93,0,0-10.2,2.46-20.76,5.1,0,0-10.55,2.64-20.58,4.93,0,0-9.85,2.29-19.52,4.75,0,0-9.67,2.29-18.29,4.4,0,0-8.44,1.93-16.89,4.05,0,0-8.62,2.11-16.18,4.05,0,0-7.56,2.11-15.3,3.87,0,0-7.56,1.76-14.6,3.52,0,0-7.04,1.76-13.72,3.17,0,0-6.86,1.58-13.19,2.99,0,0-6.51,1.41-12.31,2.64,0,0-5.98,1.23-11.26,2.29,0,0-5.28,1.23-10.55,2.11,0,0-5.28.88-10.55,1.41,0,0-5.28.7-10.2.88,0,0-4.93.35-9.67,0,0,0-4.75-.18-9.15-.88,0,0-4.4-.53-8.79-1.76,0,0-4.4-1.06-8.09-2.64,0,0-3.87-1.41-7.74-3.17,0,0-3.69-1.76-7.56-3.87,0,0-3.87-1.93-7.56-4.05,0,0-3.87-2.11-7.39-4.75,0,0-3.52-2.64-6.68-5.45,0,0-3.34-2.99-6.16-6.51,0,0-2.99-3.52-5.28-7.39,0,0-2.46-3.69-4.4-7.56,0,0-2.11-3.87-3.52-7.92,0,0-1.58-4.05-2.64-8.27,0,0-1.23-4.05-1.76-8.09,0,0-.7-4.22-.88-8.27,0,0-.35-4.05-.35-8.27,0,0,0-4.05.35-8.44,0,0,.18-4.4,1.06-8.27,0,0,.88-3.69,2.46-7.21,0,0,1.41-3.52,3.17-6.51,0,0,1.76-2.99,3.87-6.16,0,0,1.93-3.17,4.4-5.8,0,0,2.29-2.64,4.93-5.1,0,0,2.64-2.29,5.28-4.05,0,0,2.64-1.76,5.28-3.17,0,0,2.64-1.58,5.28-2.64,0,0,2.64-1.23,5.28-1.76,0,0,2.64-.7,5.28-.88,0,0,2.64-.35,5.28-.35h5.28s2.64,0,5.28.35c0,0,2.64.18,5.28,1.06,0,0,2.64.88,4.93,2.46,0,0,2.46,1.41,4.75,3.17,0,0,2.29,1.76,4.05,3.52,0,0,1.76,1.76,3.52,4.05,0,0,1.76,2.46,2.64,4.75,0,0,.88,2.29,1.76,5.28,0,0,.88,2.99.88,5.28v5.28s0,2.99-.53,5.28c0,0-.53,2.29-1.23,4.93,0,0-.53,2.64-1.41,5.1,0,0-.88,2.29-2.11,4.93,0,0-1.06,2.64-1.93,5.28,0,0-.88,2.64-1.58,5.28,0,0-.53,2.64-.18,5.28,0,0,.18,2.64.88,4.93,0,0,.53,2.46,1.76,4.75,0,0,1.06,2.29,2.64,4.75,0,0,1.41,2.29,3.52,4.4,0,0,1.93,1.93,4.05,3.69,0,0,2.11,1.76,4.75,2.99,0,0,2.64,1.23,5.28,2.11,0,0,2.64.88,5.8,1.06,0,0,3.17.35,6.16-.18,0,0,2.99-.7,6.16-2.11,0,0,3.17-1.41,6.16-3.87,0,0,2.99-2.29,5.8-4.93,0,0,2.99-2.64,5.1-5.63,0,0,1.93-2.81,3.69-6.16,0,0,1.76-3.17,3.34-7.04,0,0,1.41-3.69,2.81-7.92,0,0,1.58-4.05,2.64-8.44,0,0,1.23-4.4,1.76-9.15,0,0,.7-4.57.7-9.32,0,0,0-4.75-.7-9.32,0,0-.53-4.75-1.93-9.5,0,0-1.58-4.57-3.34-9.32,0,0-1.76-4.75-4.4-9.32,0,0-2.64-4.75-5.28-8.79,0,0-2.64-4.22-5.8-8.27,0,0-3.17-4.05-6.51-7.92,0,0-3.17-3.87-6.68-7.92,0,0-3.52-4.05-7.39-8.27,0,0-3.69-4.05-8.09-8.79,0,0-4.4-4.57-9.5-9.85,0,0-4.93-5.28-10.2-11.26l-10.55-11.61s-5.28-5.98-10.91-12.31c0,0-5.45-6.51-11.08-13.02,0,0-5.63-6.33-11.43-13.19,0,0-5.8-6.68-11.43-12.84,0,0-5.63-6.16-11.08-12.31,0,0-5.63-6.16-10.91-12.31,0,0-5.28-6.16-10.2-11.96,0,0-5.1-5.98-9.67-11.79,0,0-4.75-5.8-9.15-11.79,0,0-4.4-5.8-8.44-11.96,0,0-4.22-6.16-7.74-12.66,0,0-3.52-6.33-6.33-12.84,0,0-2.99-6.51-5.63-12.84l-5.28-13.02s-2.64-6.33-5.28-14.07l-2.64-7.56" vector-effect="non-scaling-stroke"/>
    <path class="st1" d="M79.21,531.21c-.88-3.17-1.76-6.16-2.99-9.5,0,0-1.06-3.34-3.17-9.85,0,0-2.11-6.51-4.4-12.84,0,0-2.29-6.51-4.4-12.66,0,0-2.11-6.16-4.05-11.96,0,0-2.11-5.98-3.87-11.26,0,0-1.76-5.28-3.52-9.85,0,0-1.76-4.75-3.17-8.79,0,0-1.58-4.22-2.64-7.92,0,0-1.23-3.87-2.11-6.86,0,0-.88-2.81-1.76-5.28,0,0-.88-2.29-1.76-4.4,0,0-.88-1.93-1.76-4.05,0,0-.88-2.11-1.76-4.4,0,0-.88-2.29-1.76-4.4,0,0-.88-2.11-1.41-4.05,0,0-.7-2.11-1.23-4.22,0,0-.53-1.93-.88-4.05,0,0-.35-2.11-.35-4.4,0,0,0-2.29.7-4.75,0,0,.53-2.29,1.76-4.4,0,0,1.06-1.93,2.64-3.69,0,0,1.41-1.76,3.52-2.99,0,0,1.93-1.23,4.4-2.11,0,0,2.29-.88,4.93-.88,0,0,2.64,0,5.28.7,0,0,2.64.53,4.93,1.41,0,0,2.46.88,5.1,2.11,0,0,2.64,1.06,5.45,2.81,0,0,2.99,1.76,6.51,4.4,0,0,3.52,2.64,7.39,5.98,0,0,3.69,3.17,7.21,6.68,0,0,3.52,3.52,7.74,7.04,0,0,4.05,3.52,8.09,7.56,0,0,4.22,4.22,8.79,9.15,0,0,4.75,4.93,9.15,10.91,0,0,4.4,5.8,8.79,12.31,0,0,4.4,6.33,8.79,13.19,0,0,4.4,6.68,8.79,13.72,0,0,4.4,7.04,8.44,14.07,0,0,4.22,7.04,7.92,14.07,0,0,3.87,7.04,7.39,13.72,0,0,3.52,6.86,7.04,13.54,0,0,3.52,6.68,7.04,13.19,0,0,3.52,6.51,7.04,12.84,0,0,3.52,6.51,7.04,12.66,0,0,3.52,6.16,6.68,11.79,0,0,3.34,5.45,6.51,10.55,0,0,3.17,4.93,5.8,8.97,0,0,2.64,4.22,5.98,8.27,0,0,3.17,4.05,6.16,7.92,0,0,2.81,3.87,6.68,7.56,0,0,3.87,3.87,7.39,7.04,0,0,3.52,3.34,7.56,6.16,0,0,4.05,2.99,8.27,5.63,0,0,4.05,2.64,8.79,4.93,0,0,4.57,2.46,9.67,4.4,0,0,4.93,2.11,10.2,3.87,0,0,5.28,1.76,10.55,2.99,0,0,5.28,1.06,10.55,1.93,0,0,5.28.88,10.55.88h10.91s5.45,0,11.08-.88c0,0,5.63-.88,11.08-1.93,0,0,5.63-1.23,10.55-2.99,0,0,5.1-1.76,10.03-3.87,0,0,4.93-1.93,10.03-4.57,0,0,4.93-2.64,9.85-5.98,0,0,5.1-3.17,9.5-7.04,0,0,4.4-3.69,8.44-7.92,0,0,4.05-4.05,7.56-8.79,0,0,3.52-4.57,6.86-9.67,0,0,3.17-4.93,5.8-10.2,0,0,2.64-5.28,5.28-10.91,0,0,2.64-5.45,4.93-10.73,0,0,2.46-5.28,4.75-10.55,0,0,2.29-5.28,4.4-10.03,0,0,2.11-4.75,4.05-8.79,0,0,2.11-4.05,4.22-7.92,0,0,1.93-3.87,4.05-7.39,0,0,2.11-3.52,4.75-7.21,0,0,2.64-3.87,5.28-7.39,0,0,2.64-3.52,5.8-6.68,0,0,3.17-3.34,6.16-6.16,0,0,2.99-2.99,6.51-5.28,0,0,3.52-2.46,7.21-4.4,0,0,3.87-2.11,8.27-3.87,0,0,4.4-1.76,8.79-2.99,0,0,4.4-1.06,8.79-1.93,0,0,4.4-.88,8.44-1.23,0,0,4.22-.35,8.62-.35,0,0,4.4,0,8.97.7,0,0,4.75.53,9.5,1.93,0,0,4.57,1.58,8.97,3.52,0,0,4.4,2.11,8.62,5.1,0,0,4.05,2.81,8.09,6.16,0,0,4.22,3.17,7.74,6.68,0,0,3.52,3.52,6.33,7.39,0,0,2.99,3.69,5.28,7.92,0,0,2.46,4.05,4.4,8.09,0,0,2.11,4.22,3.87,7.92,0,0,1.76,3.87,3.52,7.39l3.52,7.04s1.76,3.52,3.17,6.68c0,0,1.58,3.34,2.64,5.98,0,0,1.23,2.64,2.46,4.57,0,0,1.06,2.11,2.29,4.22,0,0,1.23,1.93,2.29,4.05,0,0,1.23,2.11,2.46,4.05,0,0,1.06,2.11,2.64,3.87,0,0,1.41,1.76,3.52,3.52,0,0,1.93,1.76,4.4,3.17,0,0,2.29,1.58,4.57,2.64,0,0,2.46,1.23,4.75,2.11,0,0,2.29.88,4.75,1.41,0,0,2.29.7,4.93.7,0,0,2.64,0,5.28-.7,0,0,2.64-.53,4.93-1.76,0,0,2.46-1.06,5.1-2.81,0,0,2.64-1.76,4.93-4.22,0,0,2.29-2.29,5.28-4.93,0,0,2.99-2.64,5.28-5.28,0,0,2.29-2.64,4.93-5.63,0,0,2.64-2.81,4.75-5.8,0,0,2.11-2.99,4.4-5.8,0,0,2.29-2.99,4.4-5.63,0,0,2.11-2.64,4.05-5.63,0,0,2.11-2.81,3.52-6.16,0,0,1.58-3.17,2.46-6.68,0,0,.88-3.52,1.06-7.39,0,0,.35-3.69,0-7.56,0,0-.18-3.87-.88-7.56,0,0-.53-3.87-1.76-7.74,0,0-1.06-3.69-3.17-7.92,0,0-2.11-4.05-4.75-8.44,0,0-2.64-4.4-5.45-9.15,0,0-2.99-4.57-6.16-9.67,0,0-3.34-4.93-6.86-10.55,0,0-3.52-5.45-7.21-11.43,0,0-3.87-5.8-7.92-12.49,0,0-4.22-6.86-8.27-13.54,0,0-4.05-6.68-8.44-14.07,0,0-4.4-7.39-8.79-14.6,0,0-4.4-7.39-9.5-15.3,0,0-4.93-7.92-10.2-16.18,0,0-5.28-8.09-10.2-16.71,0,0-5.1-8.44-10.03-17.24,0,0-4.93-8.79-10.03-17.24,0,0-4.93-8.62-10.2-17.41,0,0-5.28-8.79-12.31-19.52l-7.04-10.91" vector-effect="non-scaling-stroke"/>
    <path class="st1" d="M582.27,262.08c-2.64-4.93-5.28-9.67-7.39-13.37,0,0-1.93-3.69-6.33-11.26,0,0-4.4-7.56-8.27-13.72,0,0-3.87-6.16-7.39-12.14,0,0-3.52-5.8-6.33-10.73,0,0-2.99-5.1-5.63-9.5,0,0-2.64-4.4-4.93-8.09,0,0-2.46-3.87-4.22-7.04,0,0-1.76-3.34-3.17-5.98,0,0-1.41-2.64-2.99-4.93,0,0-1.41-2.29-2.81-4.4,0,0-1.58-2.11-2.64-4.05,0,0-1.23-2.11-2.46-3.87,0,0-1.06-1.76-2.64-3.52,0,0-1.41-1.76-3.17-3.17,0,0-1.76-1.58-3.52-2.64,0,0-1.76-1.23-3.87-2.11,0,0-1.93-.88-4.4-1.23,0,0-2.29-.18-4.93,0,0,0-2.64.35-4.93,1.23,0,0-2.46.88-4.75,2.29,0,0-2.29,1.58-4.4,3.34,0,0-2.11,1.76-4.05,4.05,0,0-2.11,2.29-4.22,4.75,0,0-1.93,2.29-4.05,4.57,0,0-2.11,2.46-4.4,4.75,0,0-2.29,2.29-4.93,4.05,0,0-2.64,1.76-5.63,3.34,0,0-2.99,1.41-6.16,1.93,0,0-3.17.7-6.68.88,0,0-3.52.35-7.04,0,0,0-3.52-.18-7.04-1.06,0,0-3.52-.88-6.51-2.64,0,0-2.99-1.76-5.8-4.22,0,0-2.99-2.29-5.63-5.28,0,0-2.64-2.81-4.93-6.33,0,0-2.46-3.52-4.22-7.39,0,0-1.76-3.87-3.17-7.56,0,0-1.41-3.87-2.64-7.74,0,0-1.23-3.69-2.29-7.56,0,0-1.23-3.87-1.76-7.92,0,0-.7-4.05-.7-8.27,0,0,0-4.05.7-8.44,0,0,.53-4.4,1.76-8.44,0,0,1.06-4.22,2.29-7.92,0,0,1.23-3.87,2.64-7.39,0,0,1.41-3.52,3.17-7.04,0,0,1.76-3.52,4.22-7.04,0,0,2.29-3.52,5.28-6.68,0,0,2.81-3.34,6.16-6.16,0,0,3.17-2.99,6.33-5.28,0,0,3.34-2.46,6.86-4.4,0,0,3.52-2.11,7.04-3.87,0,0,3.52-1.76,7.56-3.17,0,0,4.05-1.58,8.27-2.64,0,0,4.05-1.23,8.09-1.76,0,0,4.22-.7,8.62-.88,0,0,4.4-.35,8.44-.35,0,0,4.05,0,8.79.35,0,0,4.75.18,9.15.88,0,0,4.4.53,9.32,1.93,0,0,4.93,1.58,9.67,3.34,0,0,4.75,1.76,9.32,4.05,0,0,4.75,2.29,9.5,4.75,0,0,4.57,2.29,8.97,5.28,0,0,4.4,2.81,8.62,6.16,0,0,4.05,3.17,7.56,7.04,0,0,3.52,3.69,7.04,7.56,0,0,3.52,3.87,7.04,8.27,0,0,3.52,4.4,6.68,8.97,0,0,3.34,4.75,6.86,9.67,0,0,3.52,5.1,7.04,10.55,0,0,3.52,5.63,7.56,11.43,0,0,4.05,5.98,7.92,12.31,0,0,3.87,6.51,8.27,13.02,0,0,4.4,6.33,8.79,13.19,0,0,4.4,6.68,9.32,14.07,0,0,4.93,7.21,10.03,14.95,0,0,4.93,7.56,10.2,15.48l10.55,15.83s5.28,7.92,10.55,16.18c0,0,5.28,8.09,10.91,16.71,0,0,5.45,8.44,11.08,17.24,0,0,5.63,8.79,11.79,18.12,0,0,6.16,9.5,11.96,18.82,0,0,5.8,9.32,11.96,19,0,0,6.16,9.67,12.14,18.82,0,0,5.8,9.15,11.96,18.47,0,0,6.16,9.32,12.66,18.82,0,0,6.33,9.32,13.19,19.35,0,0,6.68,9.85,13.37,19.52,0,0,6.86,9.67,13.19,19.7,0,0,6.51,10.03,12.66,19.7,0,0,6.16,9.67,12.66,19.88,0,0,6.33,10.2,12.84,19.88,0,0,6.51,9.67,13.19,19.7,0,0,6.68,10.03,13.54,19.88,0,0,6.68,10.03,13.19,19.7,0,0,6.33,9.67,12.84,19.88,0,0,6.51,10.38,12.84,20.23,0,0,6.51,10.03,13.54,20.93,0,0,7.04,10.73,14.07,21.28l14.07,21.11,14.07,21.11s7.04,10.55,14.07,20.93c0,0,7.04,10.2,14.07,21.11,0,0,7.04,10.73,14.07,21.11,0,0,7.04,10.2,13.72,20.23,0,0,6.86,9.85,13.02,18.64,0,0,6.16,8.79,11.61,17.59,0,0,5.63,8.79,10.55,16.71,0,0,5.1,7.92,9.67,15.65,0,0,4.75,7.56,9.5,14.95,0,0,4.57,7.21,9.32,14.25,0,0,4.75,7.04,9.15,13.54,0,0,4.4,6.51,8.09,11.96,0,0,3.87,5.63,7.39,10.91,0,0,3.52,5.28,6.68,10.55,0,0,3.34,5.28,6.51,10.55,0,0,3.17,5.28,6.51,10.2,0,0,3.17,5.1,6.68,10.03,0,0,3.52,4.93,7.04,9.67,0,0,3.52,4.75,6.68,9.32,0,0,3.34,4.75,6.16,9.15,0,0,2.99,4.4,5.63,8.44,0,0,2.64,4.22,5.28,7.92,0,0,2.64,3.87,4.93,7.39,0,0,2.46,3.52,4.22,6.51,0,0,1.76,2.81,3.52,5.45,0,0,1.76,2.64,3.17,4.75,0,0,1.41,2.11,2.99,4.4,0,0,1.41,2.29,2.64,4.05,0,0,1.06,1.76,2.29,3.87,0,0,1.23,2.11,2.29,3.52,0,0,1.23,1.41,2.11,3.17,0,0,.88,1.76,1.76,3.34,0,0,.88,1.41,1.41,3.17,0,0,.7,1.76.88,3.52,0,0,.35,1.76,0,3.52,0,0-.18,1.76-.88,3.52,0,0-.53,1.76-1.76,3.17,0,0-1.06,1.58-2.64,2.46,0,0-1.41.88-3.17,1.06,0,0-1.76.35-3.52.35,0,0-1.76,0-3.87-.35,0,0-1.93-.18-4.05-.88,0,0-2.11-.53-4.4-1.76,0,0-2.29-1.06-4.75-2.64,0,0-2.29-1.41-5.28-3.17,0,0-2.81-1.76-6.33-4.05,0,0-3.52-2.46-7.39-5.1,0,0-3.87-2.64-7.92-5.8,0,0-4.05-3.17-7.92-6.51,0,0-3.87-3.17-7.56-7.04,0,0-3.87-3.69-7.39-7.56,0,0-3.52-3.87-7.04-8.27,0,0-3.52-4.4-7.04-8.97,0,0-3.52-4.75-7.04-9.67,0,0-3.52-5.1-7.39-10.38,0,0-3.69-5.28-7.56-10.55,0,0-3.87-5.28-7.56-11.08,0,0-3.87-5.8-7.74-11.43,0,0-3.69-5.63-7.56-11.08,0,0-3.87-5.63-7.56-10.91,0,0-3.87-5.28-7.39-10.55l-7.04-10.55s-3.52-5.28-7.04-10.2c0,0-3.52-5.1-7.04-10.03,0,0-3.52-4.93-7.04-9.67,0,0-3.52-4.75-6.68-9.32,0,0-3.34-4.75-6.16-8.79,0,0-2.99-4.22-5.63-7.92,0,0-2.64-3.87-4.93-7.04,0,0-2.46-3.34-4.4-6.16,0,0-2.11-2.99-3.87-5.63,0,0-1.76-2.64-3.87-5.28,0,0-1.93-2.64-4.4-4.93,0,0-2.29-2.46-4.93-4.22,0,0-2.64-1.76-5.63-3.17,0,0-2.81-1.41-5.8-2.29,0,0-2.99-.88-6.16-1.58,0,0-3.17-.53-6.68-.18,0,0-3.52.18-7.39.88,0,0-3.87.53-7.92,1.41,0,0-4.05.88-8.27,1.76,0,0-4.05.88-8.97,2.11,0,0-5.1,1.06-10.38,2.29,0,0-5.28,1.23-11.08,2.64,0,0-5.8,1.41-11.96,2.99,0,0-6.16,1.41-13.19,3.17,0,0-7.04,1.76-14.78,3.87,0,0-7.56,1.93-15.48,4.05,0,0-7.92,2.11-16.36,4.4,0,0-8.62,2.29-17.41,4.4,0,0-8.79,2.11-18.12,4.05,0,0-9.32,2.11-18.47,4.22,0,0-9.15,1.93-18.47,4.4,0,0-9.32,2.29-24.98,5.8l-15.48,3.52" vector-effect="non-scaling-stroke"/>
  </g>
  <path class="st0" d="M714.19,853.09c-5.63,1.76-11.43,3.52-16.89,4.75,0,0-5.45,1.06-16.18,3.69,0,0-10.91,2.64-21.81,5.1,0,0-10.73,2.29-21.99,4.93,0,0-11.08,2.64-21.99,5.28,0,0-10.73,2.64-21.64,5.28,0,0-10.91,2.64-21.64,5.28,0,0-10.91,2.64-22.34,4.93,0,0-11.43,2.46-22.51,4.75,0,0-11.26,2.29-21.81,4.75,0,0-10.55,2.29-20.76,4.93,0,0-10.2,2.64-20.58,4.93,0,0-10.2,2.46-20.76,5.1,0,0-10.55,2.64-20.58,4.93,0,0-9.85,2.29-19.52,4.75,0,0-9.67,2.29-18.29,4.4,0,0-8.44,1.93-16.89,4.05,0,0-8.62,2.11-16.18,4.05,0,0-7.56,2.11-15.3,3.87,0,0-7.56,1.76-14.6,3.52,0,0-7.04,1.76-13.72,3.17,0,0-6.86,1.58-13.19,2.99,0,0-6.51,1.41-12.31,2.64,0,0-5.98,1.23-11.26,2.29,0,0-5.28,1.23-10.55,2.11,0,0-5.28.88-10.55,1.41,0,0-5.28.7-10.2.88,0,0-4.93.35-9.67,0,0,0-4.75-.18-9.15-.88,0,0-4.4-.53-8.79-1.76,0,0-4.4-1.06-8.09-2.64,0,0-3.87-1.41-7.74-3.17,0,0-3.69-1.76-7.56-3.87,0,0-3.87-1.93-7.56-4.05,0,0-3.87-2.11-7.39-4.75,0,0-3.52-2.64-6.68-5.45,0,0-3.34-2.99-6.16-6.51,0,0-2.99-3.52-5.28-7.39,0,0-2.46-3.69-4.4-7.56,0,0-2.11-3.87-3.52-7.92,0,0-1.58-4.05-2.64-8.27,0,0-1.23-4.05-1.76-8.09,0,0-.7-4.22-.88-8.27,0,0-.35-4.05-.35-8.27,0,0,0-4.05.35-8.44,0,0,.18-4.4,1.06-8.27,0,0,.88-3.69,2.46-7.21,0,0,1.41-3.52,3.17-6.51,0,0,1.76-2.99,3.87-6.16,0,0,1.93-3.17,4.4-5.8,0,0,2.29-2.64,4.93-5.1,0,0,2.64-2.29,5.28-4.05,0,0,2.64-1.76,5.28-3.17,0,0,2.64-1.58,5.28-2.64,0,0,2.64-1.23,5.28-1.76,0,0,2.64-.7,5.28-.88,0,0,2.64-.35,5.28-.35h5.28s2.64,0,5.28.35c0,0,2.64.18,5.28,1.06,0,0,2.64.88,4.93,2.46,0,0,2.46,1.41,4.75,3.17,0,0,2.29,1.76,4.05,3.52,0,0,1.76,1.76,3.52,4.05,0,0,1.76,2.46,2.64,4.75,0,0,.88,2.29,1.76,5.28,0,0,.88,2.99.88,5.28v5.28s0,2.99-.53,5.28c0,0-.53,2.29-1.23,4.93,0,0-.53,2.64-1.41,5.1,0,0-.88,2.29-2.11,4.93,0,0-1.06,2.64-1.93,5.28,0,0-.88,2.64-1.58,5.28,0,0-.53,2.64-.18,5.28,0,0,.18,2.64.88,4.93,0,0,.53,2.46,1.76,4.75,0,0,1.06,2.29,2.64,4.75,0,0,1.41,2.29,3.52,4.4,0,0,1.93,1.93,4.05,3.69,0,0,2.11,1.76,4.75,2.99,0,0,2.64,1.23,5.28,2.11,0,0,2.64.88,5.8,1.06,0,0,3.17.35,6.16-.18,0,0,2.99-.7,6.16-2.11,0,0,3.17-1.41,6.16-3.87,0,0,2.99-2.29,5.8-4.93,0,0,2.99-2.64,5.1-5.63,0,0,1.93-2.81,3.69-6.16,0,0,1.76-3.17,3.34-7.04,0,0,1.41-3.69,2.81-7.92,0,0,1.58-4.05,2.64-8.44,0,0,1.23-4.4,1.76-9.15,0,0,.7-4.57.7-9.32,0,0,0-4.75-.7-9.32,0,0-.53-4.75-1.93-9.5,0,0-1.58-4.57-3.34-9.32,0,0-1.76-4.75-4.4-9.32,0,0-2.64-4.75-5.28-8.79,0,0-2.64-4.22-5.8-8.27,0,0-3.17-4.05-6.51-7.92,0,0-3.17-3.87-6.68-7.92,0,0-3.52-4.05-7.39-8.27,0,0-3.69-4.05-8.09-8.79,0,0-4.4-4.57-9.5-9.85,0,0-4.93-5.28-10.2-11.26l-10.55-11.61s-5.28-5.98-10.91-12.31c0,0-5.45-6.51-11.08-13.02,0,0-5.63-6.33-11.43-13.19,0,0-5.8-6.68-11.43-12.84,0,0-5.63-6.16-11.08-12.31,0,0-5.63-6.16-10.91-12.31,0,0-5.28-6.16-10.2-11.96,0,0-5.1-5.98-9.67-11.79,0,0-4.75-5.8-9.15-11.79,0,0-4.4-5.8-8.44-11.96,0,0-4.22-6.16-7.74-12.66,0,0-3.52-6.33-6.33-12.84,0,0-2.99-6.51-5.63-12.84l-5.28-13.02s-2.64-6.33-5.28-14.07l-2.64-7.56" vector-effect="non-scaling-stroke"/>
  <path class="st2" d="M79.21,531.21c-.88-3.17-1.76-6.16-2.99-9.5,0,0-1.06-3.34-3.17-9.85,0,0-2.11-6.51-4.4-12.84,0,0-2.29-6.51-4.4-12.66,0,0-2.11-6.16-4.05-11.96,0,0-2.11-5.98-3.87-11.26,0,0-1.76-5.28-3.52-9.85,0,0-1.76-4.75-3.17-8.79,0,0-1.58-4.22-2.64-7.92,0,0-1.23-3.87-2.11-6.86,0,0-.88-2.81-1.76-5.28,0,0-.88-2.29-1.76-4.4,0,0-.88-1.93-1.76-4.05,0,0-.88-2.11-1.76-4.4,0,0-.88-2.29-1.76-4.4,0,0-.88-2.11-1.41-4.05,0,0-.7-2.11-1.23-4.22,0,0-.53-1.93-.88-4.05,0,0-.35-2.11-.35-4.4,0,0,0-2.29.7-4.75,0,0,.53-2.29,1.76-4.4,0,0,1.06-1.93,2.64-3.69,0,0,1.41-1.76,3.52-2.99,0,0,1.93-1.23,4.4-2.11,0,0,2.29-.88,4.93-.88,0,0,2.64,0,5.28.7,0,0,2.64.53,4.93,1.41,0,0,2.46.88,5.1,2.11,0,0,2.64,1.06,5.45,2.81,0,0,2.99,1.76,6.51,4.4,0,0,3.52,2.64,7.39,5.98,0,0,3.69,3.17,7.21,6.68,0,0,3.52,3.52,7.74,7.04,0,0,4.05,3.52,8.09,7.56,0,0,4.22,4.22,8.79,9.15,0,0,4.75,4.93,9.15,10.91,0,0,4.4,5.8,8.79,12.31,0,0,4.4,6.33,8.79,13.19,0,0,4.4,6.68,8.79,13.72,0,0,4.4,7.04,8.44,14.07,0,0,4.22,7.04,7.92,14.07,0,0,3.87,7.04,7.39,13.72,0,0,3.52,6.86,7.04,13.54,0,0,3.52,6.68,7.04,13.19,0,0,3.52,6.51,7.04,12.84,0,0,3.52,6.51,7.04,12.66,0,0,3.52,6.16,6.68,11.79,0,0,3.34,5.45,6.51,10.55,0,0,3.17,4.93,5.8,8.97,0,0,2.64,4.22,5.98,8.27,0,0,3.17,4.05,6.16,7.92,0,0,2.81,3.87,6.68,7.56,0,0,3.87,3.87,7.39,7.04,0,0,3.52,3.34,7.56,6.16,0,0,4.05,2.99,8.27,5.63,0,0,4.05,2.64,8.79,4.93,0,0,4.57,2.46,9.67,4.4,0,0,4.93,2.11,10.2,3.87,0,0,5.28,1.76,10.55,2.99,0,0,5.28,1.06,10.55,1.93,0,0,5.28.88,10.55.88h10.91s5.45,0,11.08-.88c0,0,5.63-.88,11.08-1.93,0,0,5.63-1.23,10.55-2.99,0,0,5.1-1.76,10.03-3.87,0,0,4.93-1.93,10.03-4.57,0,0,4.93-2.64,9.85-5.98,0,0,5.1-3.17,9.5-7.04,0,0,4.4-3.69,8.44-7.92,0,0,4.05-4.05,7.56-8.79,0,0,3.52-4.57,6.86-9.67,0,0,3.17-4.93,5.8-10.2,0,0,2.64-5.28,5.28-10.91,0,0,2.64-5.45,4.93-10.73,0,0,2.46-5.28,4.75-10.55,0,0,2.29-5.28,4.4-10.03,0,0,2.11-4.75,4.05-8.79,0,0,2.11-4.05,4.22-7.92,0,0,1.93-3.87,4.05-7.39,0,0,2.11-3.52,4.75-7.21,0,0,2.64-3.87,5.28-7.39,0,0,2.64-3.52,5.8-6.68,0,0,3.17-3.34,6.16-6.16,0,0,2.99-2.99,6.51-5.28,0,0,3.52-2.46,7.21-4.4,0,0,3.87-2.11,8.27-3.87,0,0,4.4-1.76,8.79-2.99,0,0,4.4-1.06,8.79-1.93,0,0,4.4-.88,8.44-1.23,0,0,4.22-.35,8.62-.35,0,0,4.4,0,8.97.7,0,0,4.75.53,9.5,1.93,0,0,4.57,1.58,8.97,3.52,0,0,4.4,2.11,8.62,5.1,0,0,4.05,2.81,8.09,6.16,0,0,4.22,3.17,7.74,6.68,0,0,3.52,3.52,6.33,7.39,0,0,2.99,3.69,5.28,7.92,0,0,2.46,4.05,4.4,8.09,0,0,2.11,4.22,3.87,7.92,0,0,1.76,3.87,3.52,7.39l3.52,7.04s1.76,3.52,3.17,6.68c0,0,1.58,3.34,2.64,5.98,0,0,1.23,2.64,2.46,4.57,0,0,1.06,2.11,2.29,4.22,0,0,1.23,1.93,2.29,4.05,0,0,1.23,2.11,2.46,4.05,0,0,1.06,2.11,2.64,3.87,0,0,1.41,1.76,3.52,3.52,0,0,1.93,1.76,4.4,3.17,0,0,2.29,1.58,4.57,2.64,0,0,2.46,1.23,4.75,2.11,0,0,2.29.88,4.75,1.41,0,0,2.29.7,4.93.7,0,0,2.64,0,5.28-.7,0,0,2.64-.53,4.93-1.76,0,0,2.46-1.06,5.1-2.81,0,0,2.64-1.76,4.93-4.22,0,0,2.29-2.29,5.28-4.93,0,0,2.99-2.64,5.28-5.28,0,0,2.29-2.64,4.93-5.63,0,0,2.64-2.81,4.75-5.8,0,0,2.11-2.99,4.4-5.8,0,0,2.29-2.99,4.4-5.63,0,0,2.11-2.64,4.05-5.63,0,0,2.11-2.81,3.52-6.16,0,0,1.58-3.17,2.46-6.68,0,0,.88-3.52,1.06-7.39,0,0,.35-3.69,0-7.56,0,0-.18-3.87-.88-7.56,0,0-.53-3.87-1.76-7.74,0,0-1.06-3.69-3.17-7.92,0,0-2.11-4.05-4.75-8.44,0,0-2.64-4.4-5.45-9.15,0,0-2.99-4.57-6.16-9.67,0,0-3.34-4.93-6.86-10.55,0,0-3.52-5.45-7.21-11.43,0,0-3.87-5.8-7.92-12.49,0,0-4.22-6.86-8.27-13.54,0,0-4.05-6.68-8.44-14.07,0,0-4.4-7.39-8.79-14.6,0,0-4.4-7.39-9.5-15.3,0,0-4.93-7.92-10.2-16.18,0,0-5.28-8.09-10.2-16.71,0,0-5.1-8.44-10.03-17.24,0,0-4.93-8.79-10.03-17.24,0,0-4.93-8.62-10.2-17.41,0,0-5.28-8.79-12.31-19.52l-7.04-10.91" vector-effect="non-scaling-stroke"/>
  <path class="st3" d="M582.27,262.08c-2.64-4.93-5.28-9.67-7.39-13.37,0,0-1.93-3.69-6.33-11.26,0,0-4.4-7.56-8.27-13.72,0,0-3.87-6.16-7.39-12.14,0,0-3.52-5.8-6.33-10.73,0,0-2.99-5.1-5.63-9.5,0,0-2.64-4.4-4.93-8.09,0,0-2.46-3.87-4.22-7.04,0,0-1.76-3.34-3.17-5.98,0,0-1.41-2.64-2.99-4.93,0,0-1.41-2.29-2.81-4.4,0,0-1.58-2.11-2.64-4.05,0,0-1.23-2.11-2.46-3.87,0,0-1.06-1.76-2.64-3.52,0,0-1.41-1.76-3.17-3.17,0,0-1.76-1.58-3.52-2.64,0,0-1.76-1.23-3.87-2.11,0,0-1.93-.88-4.4-1.23,0,0-2.29-.18-4.93,0,0,0-2.64.35-4.93,1.23,0,0-2.46.88-4.75,2.29,0,0-2.29,1.58-4.4,3.34,0,0-2.11,1.76-4.05,4.05,0,0-2.11,2.29-4.22,4.75,0,0-1.93,2.29-4.05,4.57,0,0-2.11,2.46-4.4,4.75,0,0-2.29,2.29-4.93,4.05,0,0-2.64,1.76-5.63,3.34,0,0-2.99,1.41-6.16,1.93,0,0-3.17.7-6.68.88,0,0-3.52.35-7.04,0,0,0-3.52-.18-7.04-1.06,0,0-3.52-.88-6.51-2.64,0,0-2.99-1.76-5.8-4.22,0,0-2.99-2.29-5.63-5.28,0,0-2.64-2.81-4.93-6.33,0,0-2.46-3.52-4.22-7.39,0,0-1.76-3.87-3.17-7.56,0,0-1.41-3.87-2.64-7.74,0,0-1.23-3.69-2.29-7.56,0,0-1.23-3.87-1.76-7.92,0,0-.7-4.05-.7-8.27,0,0,0-4.05.7-8.44,0,0,.53-4.4,1.76-8.44,0,0,1.06-4.22,2.29-7.92,0,0,1.23-3.87,2.64-7.39,0,0,1.41-3.52,3.17-7.04,0,0,1.76-3.52,4.22-7.04,0,0,2.29-3.52,5.28-6.68,0,0,2.81-3.34,6.16-6.16,0,0,3.17-2.99,6.33-5.28,0,0,3.34-2.46,6.86-4.4,0,0,3.52-2.11,7.04-3.87,0,0,3.52-1.76,7.56-3.17,0,0,4.05-1.58,8.27-2.64,0,0,4.05-1.23,8.09-1.76,0,0,4.22-.7,8.62-.88,0,0,4.4-.35,8.44-.35,0,0,4.05,0,8.79.35,0,0,4.75.18,9.15.88,0,0,4.4.53,9.32,1.93,0,0,4.93,1.58,9.67,3.34,0,0,4.75,1.76,9.32,4.05,0,0,4.75,2.29,9.5,4.75,0,0,4.57,2.29,8.97,5.28,0,0,4.4,2.81,8.62,6.16,0,0,4.05,3.17,7.56,7.04,0,0,3.52,3.69,7.04,7.56,0,0,3.52,3.87,7.04,8.27,0,0,3.52,4.4,6.68,8.97,0,0,3.34,4.75,6.86,9.67,0,0,3.52,5.1,7.04,10.55,0,0,3.52,5.63,7.56,11.43,0,0,4.05,5.98,7.92,12.31,0,0,3.87,6.51,8.27,13.02,0,0,4.4,6.33,8.79,13.19,0,0,4.4,6.68,9.32,14.07,0,0,4.93,7.21,10.03,14.95,0,0,4.93,7.56,10.2,15.48l10.55,15.83s5.28,7.92,10.55,16.18c0,0,5.28,8.09,10.91,16.71,0,0,5.45,8.44,11.08,17.24,0,0,5.63,8.79,11.79,18.12,0,0,6.16,9.5,11.96,18.82,0,0,5.8,9.32,11.96,19,0,0,6.16,9.67,12.14,18.82,0,0,5.8,9.15,11.96,18.47,0,0,6.16,9.32,12.66,18.82,0,0,6.33,9.32,13.19,19.35,0,0,6.68,9.85,13.37,19.52,0,0,6.86,9.67,13.19,19.7,0,0,6.51,10.03,12.66,19.7,0,0,6.16,9.67,12.66,19.88,0,0,6.33,10.2,12.84,19.88,0,0,6.51,9.67,13.19,19.7,0,0,6.68,10.03,13.54,19.88,0,0,6.68,10.03,13.19,19.7,0,0,6.33,9.67,12.84,19.88,0,0,6.51,10.38,12.84,20.23,0,0,6.51,10.03,13.54,20.93,0,0,7.04,10.73,14.07,21.28l14.07,21.11,14.07,21.11s7.04,10.55,14.07,20.93c0,0,7.04,10.2,14.07,21.11,0,0,7.04,10.73,14.07,21.11,0,0,7.04,10.2,13.72,20.23,0,0,6.86,9.85,13.02,18.64,0,0,6.16,8.79,11.61,17.59,0,0,5.63,8.79,10.55,16.71,0,0,5.1,7.92,9.67,15.65,0,0,4.75,7.56,9.5,14.95,0,0,4.57,7.21,9.32,14.25,0,0,4.75,7.04,9.15,13.54,0,0,4.4,6.51,8.09,11.96,0,0,3.87,5.63,7.39,10.91,0,0,3.52,5.28,6.68,10.55,0,0,3.34,5.28,6.51,10.55,0,0,3.17,5.28,6.51,10.2,0,0,3.17,5.1,6.68,10.03,0,0,3.52,4.93,7.04,9.67,0,0,3.52,4.75,6.68,9.32,0,0,3.34,4.75,6.16,9.15,0,0,2.99,4.4,5.63,8.44,0,0,2.64,4.22,5.28,7.92,0,0,2.64,3.87,4.93,7.39,0,0,2.46,3.52,4.22,6.51,0,0,1.76,2.81,3.52,5.45,0,0,1.76,2.64,3.17,4.75,0,0,1.41,2.11,2.99,4.4,0,0,1.41,2.29,2.64,4.05,0,0,1.06,1.76,2.29,3.87,0,0,1.23,2.11,2.29,3.52,0,0,1.23,1.41,2.11,3.17,0,0,.88,1.76,1.76,3.34,0,0,.88,1.41,1.41,3.17,0,0,.7,1.76.88,3.52,0,0,.35,1.76,0,3.52,0,0-.18,1.76-.88,3.52,0,0-.53,1.76-1.76,3.17,0,0-1.06,1.58-2.64,2.46,0,0-1.41.88-3.17,1.06,0,0-1.76.35-3.52.35,0,0-1.76,0-3.87-.35,0,0-1.93-.18-4.05-.88,0,0-2.11-.53-4.4-1.76,0,0-2.29-1.06-4.75-2.64,0,0-2.29-1.41-5.28-3.17,0,0-2.81-1.76-6.33-4.05,0,0-3.52-2.46-7.39-5.1,0,0-3.87-2.64-7.92-5.8,0,0-4.05-3.17-7.92-6.51,0,0-3.87-3.17-7.56-7.04,0,0-3.87-3.69-7.39-7.56,0,0-3.52-3.87-7.04-8.27,0,0-3.52-4.4-7.04-8.97,0,0-3.52-4.75-7.04-9.67,0,0-3.52-5.1-7.39-10.38,0,0-3.69-5.28-7.56-10.55,0,0-3.87-5.28-7.56-11.08,0,0-3.87-5.8-7.74-11.43,0,0-3.69-5.63-7.56-11.08,0,0-3.87-5.63-7.56-10.91,0,0-3.87-5.28-7.39-10.55l-7.04-10.55s-3.52-5.28-7.04-10.2c0,0-3.52-5.1-7.04-10.03,0,0-3.52-4.93-7.04-9.67,0,0-3.52-4.75-6.68-9.32,0,0-3.34-4.75-6.16-8.79,0,0-2.99-4.22-5.63-7.92,0,0-2.64-3.87-4.93-7.04,0,0-2.46-3.34-4.4-6.16,0,0-2.11-2.99-3.87-5.63,0,0-1.76-2.64-3.87-5.28,0,0-1.93-2.64-4.4-4.93,0,0-2.29-2.46-4.93-4.22,0,0-2.64-1.76-5.63-3.17,0,0-2.81-1.41-5.8-2.29,0,0-2.99-.88-6.16-1.58,0,0-3.17-.53-6.68-.18,0,0-3.52.18-7.39.88,0,0-3.87.53-7.92,1.41,0,0-4.05.88-8.27,1.76,0,0-4.05.88-8.97,2.11,0,0-5.1,1.06-10.38,2.29,0,0-5.28,1.23-11.08,2.64,0,0-5.8,1.41-11.96,2.99,0,0-6.16,1.41-13.19,3.17,0,0-7.04,1.76-14.78,3.87,0,0-7.56,1.93-15.48,4.05,0,0-7.92,2.11-16.36,4.4,0,0-8.62,2.29-17.41,4.4,0,0-8.79,2.11-18.12,4.05,0,0-9.32,2.11-18.47,4.22,0,0-9.15,1.93-18.47,4.4,0,0-9.32,2.29-24.98,5.8l-15.48,3.52" vector-effect="non-scaling-stroke"/>
  <g id="moving-circle-group">
    <circle cx="714.19" cy="853.09" r="35.18" vector-effect="non-scaling-stroke"/>
    <circle class="st4" cx="714.19" cy="853.09" r="12.31" vector-effect="non-scaling-stroke"/>
  </g>
</svg>