<?xml version="1.0" encoding="UTF-8"?>
<svg id="minimap-svg" xmlns="http://www.w3.org/2000/svg" version="1.1" viewBox="0 0 997.63 1080">
  <!-- Generator: Adobe Illustrator 30.0.0, SVG Export Plug-In . SVG Version: 2.1.1 Build 123)  -->
  <defs>
    <style>
      .st0 {
        stroke: #ef4444;
      }

      .st0, .st1, .st2, .st3 {
        fill: none;
        stroke-miterlimit: 6.17;
      }

      .st0, .st2, .st3 {
        stroke-width: 3.09px;
      }

      .st1 {
        stroke: #000;
        stroke-width: 12.34px;
      }

      .st2 {
        stroke: #3b82f6;
      }

      .st3 {
        stroke: #fbbf24;
      }

      .st4 {
        fill: #fff;
      }
    </style>
  </defs>
  <g>
    <path class="st1" d="M437.11,933.43c-3.39-3.09-6.94-6.17-10.49-8.95,0,0-3.39-2.93-10.03-8.49,0,0-6.79-5.71-13.73-11.42,0,0-6.94-5.55-14.04-11.57,0,0-7.25-5.86-14.97-12.03,0,0-7.71-6.17-15.74-12.34,0,0-7.87-6.17-15.58-12.34,0,0-7.71-6.17-15.74-12.65,0,0-8.02-6.33-15.43-12.81,0,0-7.41-6.48-15.43-12.81,0,0-8.02-6.48-15.74-12.96,0,0-7.71-6.33-15.58-12.81,0,0-8.02-6.48-15.27-12.65,0,0-7.1-6.17-14.35-12.03,0,0-7.25-5.86-14.19-11.88,0,0-6.94-5.86-14.04-12.03,0,0-7.25-6.17-13.89-11.88,0,0-6.79-5.55-13.11-10.95,0,0-6.48-5.4-12.65-10.34,0,0-6.17-4.94-12.34-10.03,0,0-6.17-5.09-12.03-10.03,0,0-6.02-4.94-11.57-9.57,0,0-5.71-4.63-11.11-8.95,0,0-5.4-4.32-10.34-8.18,0,0-4.78-3.86-8.95-7.56,0,0-4.17-3.55-7.25-6.17,0,0-3.09-2.47-5.86-4.78,0,0-2.78-2.31-5.09-4.47l-4.63-4.01s-2.31-2.16-4.47-3.86c0,0-2.01-1.85-4.32-3.39,0,0-2.31-1.54-4.32-3.39,0,0-2.16-1.7-3.86-3.55l-3.39-3.39-3.09-3.09-3.09-3.09s-1.54-1.54-2.78-3.55c0,0-1.39-2.01-2.16-4.32,0,0-.77-2.31-.93-4.94,0,0-.31-2.62-.31-5.09,0,0,0-2.62.31-4.94,0,0,.15-2.31,1.23-4.32,0,0,1.08-2.16,2.62-3.86,0,0,1.54-1.85,3.55-3.39,0,0,2.01-1.54,4.32-2.78,0,0,2.31-1.39,5.4-2.16,0,0,3.09-.77,6.48-.93,0,0,3.39-.31,6.94-.31,0,0,3.55,0,7.25.31,0,0,3.55.15,7.71.77,0,0,4.01.46,8.49.93,0,0,4.32.62,8.95,1.08,0,0,4.63.46,9.57,1.08,0,0,4.78.46,10.03,1.23,0,0,5.09.77,10.49,1.85,0,0,5.4.93,10.8,2.47,0,0,5.4,1.54,11.11,3.7,0,0,5.55,2.01,11.26,4.63,0,0,5.71,2.47,11.57,5.4,0,0,5.86,2.78,11.57,5.86,0,0,5.71,3.09,11.11,6.48,0,0,5.4,3.24,10.49,6.94,0,0,5.09,3.55,10.03,7.41,0,0,4.94,3.86,10.34,8.02,0,0,5.4,4.01,10.8,8.49l10.8,8.64s5.4,4.47,10.49,8.79c0,0,5.09,4.32,10.03,8.49,0,0,4.94,4.17,9.72,8.18,0,0,4.94,4.17,9.57,8.02,0,0,4.63,3.86,8.95,7.41,0,0,4.47,3.7,8.49,6.94,0,0,4.17,3.39,7.71,6.48,0,0,3.7,3.09,7.25,6.17,0,0,3.55,3.09,6.94,6.17,0,0,3.39,3.09,6.63,5.71,0,0,3.39,2.47,6.17,4.78,0,0,2.93,2.31,5.71,4.47,0,0,2.78,2.01,5.4,3.86,0,0,2.62,1.7,5.4,3.24,0,0,2.78,1.54,5.71,2.62,0,0,2.78,1.08,5.55,2.01,0,0,2.93,1.08,5.71,1.39,0,0,2.78.15,5.86.15,0,0,3.09,0,6.48-.46,0,0,3.39-.46,6.48-1.23,0,0,3.09-.77,5.55-2.31,0,0,2.62-1.54,4.94-3.7,0,0,2.31-2.01,4.63-4.32,0,0,2.31-2.31,4.32-4.94,0,0,2.16-2.47,3.86-5.55,0,0,1.85-3.09,2.93-6.48,0,0,.93-3.39,1.54-6.94,0,0,.46-3.55.15-7.25,0,0-.15-3.55-.93-7.41,0,0-.77-3.86-1.85-7.41,0,0-1.08-3.7-2.62-6.94l-3.09-6.79s-1.54-3.24-3.55-6.63c0,0-2.01-3.39-4.17-6.94,0,0-2.01-3.55-4.01-7.25,0,0-2.16-3.55-4.17-7.1,0,0-2.01-3.7-3.86-6.94,0,0-1.85-3.39-3.55-6.48,0,0-1.85-3.09-3.39-6.17,0,0-1.54-3.09-2.78-6.17,0,0-1.39-3.09-2.62-6.48,0,0-1.23-3.24-2.31-6.94,0,0-1.08-3.55-1.85-7.41,0,0-.77-3.86-.46-7.71,0,0,.31-3.86,1.08-8.02,0,0,.77-4.01,2.01-8.18,0,0,1.23-4.17,2.78-8.49,0,0,1.54-4.32,3.86-8.79,0,0,2.31-4.32,4.94-9.26,0,0,2.62-4.78,5.4-10.03,0,0,2.78-5.09,5.71-10.49,0,0,2.78-5.4,5.86-11.26,0,0,3.09-6.02,6.17-12.19,0,0,3.09-6.17,6.48-12.5,0,0,3.24-6.48,6.94-13.11,0,0,3.55-6.79,7.41-13.73,0,0,3.86-6.94,7.71-14.35,0,0,3.86-7.41,7.71-14.66,0,0,3.86-7.25,7.41-14.19,0,0,3.7-6.94,6.94-13.27,0,0,3.39-6.48,6.48-12.34,0,0,3.09-6.02,6.17-11.88,0,0,3.09-5.86,6.17-11.88,0,0,3.09-5.86,5.86-11.57,0,0,2.93-5.55,5.71-10.8,0,0,2.78-5.09,5.4-9.72,0,0,2.62-4.63,5.09-8.95,0,0,2.62-4.47,4.94-9.26l2.31-4.94" vector-effect="non-scaling-stroke"/>
    <path class="st1" d="M521.96,314.74c1.23-1.85,2.31-3.86,3.7-5.86,0,0,1.39-1.85,4.32-5.71,0,0,2.78-3.86,5.55-7.41,0,0,2.93-3.7,5.71-7.25,0,0,2.78-3.55,5.71-6.94,0,0,2.78-3.39,5.55-6.63,0,0,2.93-3.39,5.4-6.48,0,0,2.62-3.09,5.25-5.86,0,0,2.47-2.93,4.78-5.71,0,0,2.31-2.78,4.47-5.4,0,0,2.01-2.62,3.55-5.4,0,0,1.54-2.78,2.62-5.86,0,0,.93-3.09,1.54-6.79,0,0,.46-3.55.46-7.41,0,0,0-3.86-.46-8.02,0,0-.62-4.01-1.39-8.18,0,0-.77-4.17-2.01-8.79,0,0-1.23-4.63-2.31-9.41,0,0-1.08-4.94-2.62-10.34,0,0-1.54-5.4-2.78-10.8,0,0-1.23-5.4-2.78-10.8,0,0-1.54-5.4-2.93-11.11,0,0-1.23-5.55-2.78-11.57,0,0-1.54-5.86-2.78-11.57,0,0-1.39-5.55-2.62-10.95,0,0-1.23-5.4-2.31-10.03,0,0-1.08-4.63-2.01-8.79,0,0-1.08-4.17-1.54-7.71,0,0-.62-3.55-.77-6.94,0,0-.31-3.39,0-6.63,0,0,.15-3.39.77-6.79,0,0,.46-3.24,1.54-6.33,0,0,.93-3.09,2.47-6.17,0,0,1.54-3.09,3.7-5.71,0,0,2.01-2.62,4.32-5.09,0,0,2.31-2.62,5.09-4.94,0,0,2.93-2.31,6.02-4.32,0,0,3.09-2.16,6.63-3.7,0,0,3.55-1.54,7.41-2.47,0,0,3.86-1.08,8.02-1.39,0,0,4.17-.15,8.18,0,0,0,4.17.31,8.33,1.39,0,0,4.01.93,7.87,2.47,0,0,3.86,1.54,8.02,3.7,0,0,4.17,2.01,8.02,4.32,0,0,3.86,2.31,7.87,4.94,0,0,4.17,2.47,8.33,5.4,0,0,4.01,2.78,8.18,6.17,0,0,4.17,3.24,8.49,6.94,0,0,4.32,3.55,8.49,7.41,0,0,4.17,3.86,8.18,8.18,0,0,4.17,4.47,8.33,8.79,0,0,4.01,4.32,8.18,8.95,0,0,4.17,4.63,8.49,9.26,0,0,4.32,4.63,8.18,9.26,0,0,3.86,4.63,8.02,9.26,0,0,4.17,4.63,8.02,9.1,0,0,3.86,4.32,7.71,8.49,0,0,3.86,4.01,6.94,7.71,0,0,3.09,3.55,5.4,6.33,0,0,2.31,2.93,4.01,4.94,0,0,1.85,2.01,3.39,3.86,0,0,1.54,1.85,2.78,3.09,0,0,1.39,1.23,2.31,3.09,0,0,1.08,1.85,1.85,3.39,0,0,.77,1.54,1.54,3.24,0,0,.77,1.85,1.23,3.7,0,0,.62,1.7.62,3.86,0,0,0,2.01-.62,4.32,0,0-.46,2.31-1.54,4.32,0,0-.93,2.16-2.47,3.86l-3.09,3.7s-1.54,1.7-3.09,3.86c0,0-1.54,2.01-2.31,4.63,0,0-.77,2.47-1.39,5.09,0,0-.46,2.62-.15,5.71,0,0,.15,3.09.77,6.33,0,0,.46,3.39,1.23,7.25,0,0,.77,3.86,1.85,8.02,0,0,.93,4.01,2.01,8.64,0,0,1.08,4.63,2.31,10.03,0,0,1.23,5.4,2.31,10.8,0,0,1.08,5.4,2.31,10.8,0,0,1.23,5.4,2.31,10.03,0,0,1.08,4.63,2.01,9.1,0,0,1.08,4.32,1.85,8.49,0,0,.77,4.01,1.85,8.18,0,0,.93,4.17,2.31,8.18,0,0,1.23,4.17,2.78,7.71,0,0,1.54,3.7,3.39,6.94,0,0,1.7,3.39,3.86,6.17,0,0,2.01,2.93,4.63,5.4,0,0,2.47,2.62,5.4,4.47,0,0,2.78,1.7,6.33,3.24,0,0,3.7,1.54,7.56,2.31,0,0,3.86.77,8.49,1.85,0,0,4.63,1.08,8.95,1.54,0,0,4.32.46,8.95,1.23,0,0,4.63.77,8.79,1.08,0,0,4.17.31,8.18.77,0,0,4.17.46,8.02,1.23,0,0,3.86.77,7.41,2.16,0,0,3.7,1.23,7.25,2.78,0,0,3.55,1.54,6.63,3.55,0,0,3.09,2.16,6.17,4.63,0,0,3.09,2.62,5.25,5.71,0,0,2.01,3.09,4.01,6.48,0,0,2.16,3.24,3.09,7.1,0,0,1.08,3.86,1.85,8.02,0,0,.77,4.17.46,8.18,0,0-.15,4.17-1.54,11.88,0,0-1.23,7.71-3.86,22.06,0,0-2.47,14.5-5.4,30.7,0,0-2.78,16.2-4.78,28.54,0,0-2.16,12.34-2.93,18.21,0,0-.77,5.86-.77,10.03,0,0,0,4.17.62,8.49,0,0,.46,4.32,1.54,8.49,0,0,.93,4.17,2.01,8.18,0,0,1.08,4.17,2.62,8.33,0,0,1.54,4.01,3.24,8.49,0,0,1.85,4.32,4.47,8.64,0,0,2.47,4.47,5.09,8.79,0,0,2.62,4.32,5.4,8.79,0,0,2.78,4.32,5.71,8.64,0,0,2.78,4.47,5.86,9.1,0,0,3.09,4.63,5.86,8.95,0,0,2.93,4.32,5.4,8.49,0,0,2.62,4.17,4.63,7.71,0,0,2.16,3.55,4.17,7.25,0,0,2.01,3.55,3.55,7.41,0,0,1.54,3.86,2.62,7.71,0,0,1.08,3.86,1.23,7.71,0,0,.31,3.86.31,8.02,0,0,0,4.01-.31,8.18,0,0-.15,4.17-1.23,8.18,0,0-1.08,4.17-2.78,8.33,0,0-1.85,4.01-4.17,7.87,0,0-2.31,3.86-5.09,7.71,0,0-2.93,3.86-6.17,7.56,0,0-3.39,3.55-6.94,7.71,0,0-3.7,4.01-7.56,8.18,0,0-3.86,4.17-7.87,8.79,0,0-4.17,4.63-8.79,9.26,0,0-4.63,4.63-10.8,10.95l-6.17,6.48" vector-effect="non-scaling-stroke"/>
    <path class="st1" d="M884.53,788.4c-2.78,3.09-5.4,6.17-8.33,9.26,0,0-2.93,3.09-8.64,9.26,0,0-5.71,6.17-11.11,12.03,0,0-5.4,6.02-10.8,11.88,0,0-5.4,5.86-10.95,11.88,0,0-5.71,5.86-11.57,12.34,0,0-6.02,6.33-11.88,12.5,0,0-5.86,6.17-11.26,12.19,0,0-5.4,5.86-10.34,10.8,0,0-4.94,4.78-8.95,9.41,0,0-4.17,4.63-8.02,8.79,0,0-3.86,4.17-7.41,8.02,0,0-3.7,3.86-6.79,7.1,0,0-3.09,3.39-5.55,6.17,0,0-2.62,2.93-4.94,5.4,0,0-2.31,2.62-4.32,4.63l-4.17,4.17s-2.01,2.01-4.17,3.55c0,0-2.01,1.54-4.32,2.93,0,0-2.31,1.23-4.94,1.7,0,0-2.47.62-5.09.77,0,0-2.62.31-5.4-.15,0,0-2.78-.62-5.4-1.39,0,0-2.62-.77-5.09-2.47,0,0-2.62-1.85-4.94-3.86,0,0-2.31-2.16-4.63-4.94,0,0-2.31-2.78-5.09-5.86,0,0-2.93-3.09-6.02-6.94,0,0-3.09-3.86-6.94-8.33,0,0-3.86-4.32-7.71-8.95,0,0-3.86-4.63-8.18-9.26,0,0-4.32-4.63-8.49-8.95,0,0-4.17-4.47-8.18-8.79,0,0-4.17-4.32-8.02-8.18,0,0-3.86-3.86-7.71-7.56,0,0-3.86-3.55-7.71-6.63,0,0-3.86-3.09-7.25-5.86,0,0-3.24-2.93-6.33-5.4,0,0-3.09-2.62-6.02-4.63,0,0-2.78-2.16-5.4-3.86,0,0-2.47-1.85-5.09-3.39,0,0-2.62-1.54-4.94-2.62,0,0-2.31-.93-4.78-1.7,0,0-2.62-.77-4.94-1.08,0,0-2.31-.31-4.63-.31,0,0-2.31,0-4.63.62,0,0-2.31.46-4.63,1.54,0,0-2.31.93-4.63,2.47,0,0-2.31,1.54-4.63,3.39,0,0-2.31,1.85-4.32,3.86,0,0-2.16,2.01-3.7,4.32,0,0-1.54,2.31-2.31,4.94,0,0-.77,2.62-1.23,5.71,0,0-.46,3.09-.46,6.17,0,0,0,3.09.15,6.17,0,0,.31,3.09,1.39,6.17,0,0,.93,3.09,2.47,5.86,0,0,1.54,2.78,3.7,5.86,0,0,2.01,3.09,4.32,5.4l4.94,4.94s2.47,2.62,5.55,4.94c0,0,3.09,2.31,6.48,5.09,0,0,3.39,2.78,6.94,5.4,0,0,3.55,2.62,6.94,5.4,0,0,3.39,2.78,6.94,5.71,0,0,3.55,2.78,7.25,5.86,0,0,3.55,3.09,7.41,5.86,0,0,3.86,2.93,7.71,5.71,0,0,3.86,2.78,7.41,5.4,0,0,3.7,2.62,6.79,5.09,0,0,3.09,2.62,5.86,4.94,0,0,2.78,2.31,5.4,4.63,0,0,2.62,2.31,4.94,4.94,0,0,2.31,2.47,3.86,5.4,0,0,1.54,2.78,2.78,5.86,0,0,1.23,3.09,2.31,6.17,0,0,1.08,3.09,1.85,6.48,0,0,.77,3.24.93,6.63,0,0,.31,3.39-.15,7.25,0,0-.62,3.86-1.39,7.41,0,0-.77,3.55-2.01,7.25,0,0-1.23,3.55-2.78,6.63,0,0-1.54,3.09-4.17,6.17,0,0-2.62,3.09-5.71,5.86,0,0-3.09,2.93-6.33,5.25,0,0-3.39,2.31-6.79,3.86,0,0-3.24,1.54-7.1,2.47,0,0-3.86,1.08-8.02,1.54,0,0-4.17.62-8.49.62,0,0-4.32,0-8.79-.77,0,0-4.32-.77-8.64-2.16,0,0-4.47-1.23-8.49-3.24,0,0-4.17-2.16-8.02-4.63,0,0-3.86-2.62-8.02-5.71,0,0-4.01-3.09-8.18-6.48,0,0-4.17-3.24-8.79-7.1,0,0-4.63-3.86-9.41-8.33,0,0-4.94-4.32-10.34-8.95l-10.8-9.26s-5.4-4.63-11.26-9.57c0,0-6.02-4.78-11.88-10.03,0,0-5.86-5.09-12.34-10.18,0,0-6.48-5.25-12.65-10.34,0,0-6.17-5.09-17.13-14.19l-11.11-8.95" vector-effect="non-scaling-stroke"/>
  </g>
  <path class="st0" d="M437.11,933.43c-3.39-3.09-6.94-6.17-10.49-8.95,0,0-3.39-2.93-10.03-8.49,0,0-6.79-5.71-13.73-11.42,0,0-6.94-5.55-14.04-11.57,0,0-7.25-5.86-14.97-12.03,0,0-7.71-6.17-15.74-12.34,0,0-7.87-6.17-15.58-12.34,0,0-7.71-6.17-15.74-12.65,0,0-8.02-6.33-15.43-12.81,0,0-7.41-6.48-15.43-12.81,0,0-8.02-6.48-15.74-12.96,0,0-7.71-6.33-15.58-12.81,0,0-8.02-6.48-15.27-12.65,0,0-7.1-6.17-14.35-12.03,0,0-7.25-5.86-14.19-11.88,0,0-6.94-5.86-14.04-12.03,0,0-7.25-6.17-13.89-11.88,0,0-6.79-5.55-13.11-10.95,0,0-6.48-5.4-12.65-10.34,0,0-6.17-4.94-12.34-10.03,0,0-6.17-5.09-12.03-10.03,0,0-6.02-4.94-11.57-9.57,0,0-5.71-4.63-11.11-8.95,0,0-5.4-4.32-10.34-8.18,0,0-4.78-3.86-8.95-7.56,0,0-4.17-3.55-7.25-6.17,0,0-3.09-2.47-5.86-4.78,0,0-2.78-2.31-5.09-4.47l-4.63-4.01s-2.31-2.16-4.47-3.86c0,0-2.01-1.85-4.32-3.39,0,0-2.31-1.54-4.32-3.39,0,0-2.16-1.7-3.86-3.55l-3.39-3.39-3.09-3.09-3.09-3.09s-1.54-1.54-2.78-3.55c0,0-1.39-2.01-2.16-4.32,0,0-.77-2.31-.93-4.94,0,0-.31-2.62-.31-5.09,0,0,0-2.62.31-4.94,0,0,.15-2.31,1.23-4.32,0,0,1.08-2.16,2.62-3.86,0,0,1.54-1.85,3.55-3.39,0,0,2.01-1.54,4.32-2.78,0,0,2.31-1.39,5.4-2.16,0,0,3.09-.77,6.48-.93,0,0,3.39-.31,6.94-.31,0,0,3.55,0,7.25.31,0,0,3.55.15,7.71.77,0,0,4.01.46,8.49.93,0,0,4.32.62,8.95,1.08,0,0,4.63.46,9.57,1.08,0,0,4.78.46,10.03,1.23,0,0,5.09.77,10.49,1.85,0,0,5.4.93,10.8,2.47,0,0,5.4,1.54,11.11,3.7,0,0,5.55,2.01,11.26,4.63,0,0,5.71,2.47,11.57,5.4,0,0,5.86,2.78,11.57,5.86,0,0,5.71,3.09,11.11,6.48,0,0,5.4,3.24,10.49,6.94,0,0,5.09,3.55,10.03,7.41,0,0,4.94,3.86,10.34,8.02,0,0,5.4,4.01,10.8,8.49l10.8,8.64s5.4,4.47,10.49,8.79c0,0,5.09,4.32,10.03,8.49,0,0,4.94,4.17,9.72,8.18,0,0,4.94,4.17,9.57,8.02,0,0,4.63,3.86,8.95,7.41,0,0,4.47,3.7,8.49,6.94,0,0,4.17,3.39,7.71,6.48,0,0,3.7,3.09,7.25,6.17,0,0,3.55,3.09,6.94,6.17,0,0,3.39,3.09,6.63,5.71,0,0,3.39,2.47,6.17,4.78,0,0,2.93,2.31,5.71,4.47,0,0,2.78,2.01,5.4,3.86,0,0,2.62,1.7,5.4,3.24,0,0,2.78,1.54,5.71,2.62,0,0,2.78,1.08,5.55,2.01,0,0,2.93,1.08,5.71,1.39,0,0,2.78.15,5.86.15,0,0,3.09,0,6.48-.46,0,0,3.39-.46,6.48-1.23,0,0,3.09-.77,5.55-2.31,0,0,2.62-1.54,4.94-3.7,0,0,2.31-2.01,4.63-4.32,0,0,2.31-2.31,4.32-4.94,0,0,2.16-2.47,3.86-5.55,0,0,1.85-3.09,2.93-6.48,0,0,.93-3.39,1.54-6.94,0,0,.46-3.55.15-7.25,0,0-.15-3.55-.93-7.41,0,0-.77-3.86-1.85-7.41,0,0-1.08-3.7-2.62-6.94l-3.09-6.79s-1.54-3.24-3.55-6.63c0,0-2.01-3.39-4.17-6.94,0,0-2.01-3.55-4.01-7.25,0,0-2.16-3.55-4.17-7.1,0,0-2.01-3.7-3.86-6.94,0,0-1.85-3.39-3.55-6.48,0,0-1.85-3.09-3.39-6.17,0,0-1.54-3.09-2.78-6.17,0,0-1.39-3.09-2.62-6.48,0,0-1.23-3.24-2.31-6.94,0,0-1.08-3.55-1.85-7.41,0,0-.77-3.86-.46-7.71,0,0,.31-3.86,1.08-8.02,0,0,.77-4.01,2.01-8.18,0,0,1.23-4.17,2.78-8.49,0,0,1.54-4.32,3.86-8.79,0,0,2.31-4.32,4.94-9.26,0,0,2.62-4.78,5.4-10.03,0,0,2.78-5.09,5.71-10.49,0,0,2.78-5.4,5.86-11.26,0,0,3.09-6.02,6.17-12.19,0,0,3.09-6.17,6.48-12.5,0,0,3.24-6.48,6.94-13.11,0,0,3.55-6.79,7.41-13.73,0,0,3.86-6.94,7.71-14.35,0,0,3.86-7.41,7.71-14.66,0,0,3.86-7.25,7.41-14.19,0,0,3.7-6.94,6.94-13.27,0,0,3.39-6.48,6.48-12.34,0,0,3.09-6.02,6.17-11.88,0,0,3.09-5.86,6.17-11.88,0,0,3.09-5.86,5.86-11.57,0,0,2.93-5.55,5.71-10.8,0,0,2.78-5.09,5.4-9.72,0,0,2.62-4.63,5.09-8.95,0,0,2.62-4.47,4.94-9.26l2.31-4.94" vector-effect="non-scaling-stroke"/>
  <path class="st2" d="M521.96,314.74c1.23-1.85,2.31-3.86,3.7-5.86,0,0,1.39-1.85,4.32-5.71,0,0,2.78-3.86,5.55-7.41,0,0,2.93-3.7,5.71-7.25,0,0,2.78-3.55,5.71-6.94,0,0,2.78-3.39,5.55-6.63,0,0,2.93-3.39,5.4-6.48,0,0,2.62-3.09,5.25-5.86,0,0,2.47-2.93,4.78-5.71,0,0,2.31-2.78,4.47-5.4,0,0,2.01-2.62,3.55-5.4,0,0,1.54-2.78,2.62-5.86,0,0,.93-3.09,1.54-6.79,0,0,.46-3.55.46-7.41,0,0,0-3.86-.46-8.02,0,0-.62-4.01-1.39-8.18,0,0-.77-4.17-2.01-8.79,0,0-1.23-4.63-2.31-9.41,0,0-1.08-4.94-2.62-10.34,0,0-1.54-5.4-2.78-10.8,0,0-1.23-5.4-2.78-10.8,0,0-1.54-5.4-2.93-11.11,0,0-1.23-5.55-2.78-11.57,0,0-1.54-5.86-2.78-11.57,0,0-1.39-5.55-2.62-10.95,0,0-1.23-5.4-2.31-10.03,0,0-1.08-4.63-2.01-8.79,0,0-1.08-4.17-1.54-7.71,0,0-.62-3.55-.77-6.94,0,0-.31-3.39,0-6.63,0,0,.15-3.39.77-6.79,0,0,.46-3.24,1.54-6.33,0,0,.93-3.09,2.47-6.17,0,0,1.54-3.09,3.7-5.71,0,0,2.01-2.62,4.32-5.09,0,0,2.31-2.62,5.09-4.94,0,0,2.93-2.31,6.02-4.32,0,0,3.09-2.16,6.63-3.7,0,0,3.55-1.54,7.41-2.47,0,0,3.86-1.08,8.02-1.39,0,0,4.17-.15,8.18,0,0,0,4.17.31,8.33,1.39,0,0,4.01.93,7.87,2.47,0,0,3.86,1.54,8.02,3.7,0,0,4.17,2.01,8.02,4.32,0,0,3.86,2.31,7.87,4.94,0,0,4.17,2.47,8.33,5.4,0,0,4.01,2.78,8.18,6.17,0,0,4.17,3.24,8.49,6.94,0,0,4.32,3.55,8.49,7.41,0,0,4.17,3.86,8.18,8.18,0,0,4.17,4.47,8.33,8.79,0,0,4.01,4.32,8.18,8.95,0,0,4.17,4.63,8.49,9.26,0,0,4.32,4.63,8.18,9.26,0,0,3.86,4.63,8.02,9.26,0,0,4.17,4.63,8.02,9.1,0,0,3.86,4.32,7.71,8.49,0,0,3.86,4.01,6.94,7.71,0,0,3.09,3.55,5.4,6.33,0,0,2.31,2.93,4.01,4.94,0,0,1.85,2.01,3.39,3.86,0,0,1.54,1.85,2.78,3.09,0,0,1.39,1.23,2.31,3.09,0,0,1.08,1.85,1.85,3.39,0,0,.77,1.54,1.54,3.24,0,0,.77,1.85,1.23,3.7,0,0,.62,1.7.62,3.86,0,0,0,2.01-.62,4.32,0,0-.46,2.31-1.54,4.32,0,0-.93,2.16-2.47,3.86l-3.09,3.7s-1.54,1.7-3.09,3.86c0,0-1.54,2.01-2.31,4.63,0,0-.77,2.47-1.39,5.09,0,0-.46,2.62-.15,5.71,0,0,.15,3.09.77,6.33,0,0,.46,3.39,1.23,7.25,0,0,.77,3.86,1.85,8.02,0,0,.93,4.01,2.01,8.64,0,0,1.08,4.63,2.31,10.03,0,0,1.23,5.4,2.31,10.8,0,0,1.08,5.4,2.31,10.8,0,0,1.23,5.4,2.31,10.03,0,0,1.08,4.63,2.01,9.1,0,0,1.08,4.32,1.85,8.49,0,0,.77,4.01,1.85,8.18,0,0,.93,4.17,2.31,8.18,0,0,1.23,4.17,2.78,7.71,0,0,1.54,3.7,3.39,6.94,0,0,1.7,3.39,3.86,6.17,0,0,2.01,2.93,4.63,5.4,0,0,2.47,2.62,5.4,4.47,0,0,2.78,1.7,6.33,3.24,0,0,3.7,1.54,7.56,2.31,0,0,3.86.77,8.49,1.85,0,0,4.63,1.08,8.95,1.54,0,0,4.32.46,8.95,1.23,0,0,4.63.77,8.79,1.08,0,0,4.17.31,8.18.77,0,0,4.17.46,8.02,1.23,0,0,3.86.77,7.41,2.16,0,0,3.7,1.23,7.25,2.78,0,0,3.55,1.54,6.63,3.55,0,0,3.09,2.16,6.17,4.63,0,0,3.09,2.62,5.25,5.71,0,0,2.01,3.09,4.01,6.48,0,0,2.16,3.24,3.09,7.1,0,0,1.08,3.86,1.85,8.02,0,0,.77,4.17.46,8.18,0,0-.15,4.17-1.54,11.88,0,0-1.23,7.71-3.86,22.06,0,0-2.47,14.5-5.4,30.7,0,0-2.78,16.2-4.78,28.54,0,0-2.16,12.34-2.93,18.21,0,0-.77,5.86-.77,10.03,0,0,0,4.17.62,8.49,0,0,.46,4.32,1.54,8.49,0,0,.93,4.17,2.01,8.18,0,0,1.08,4.17,2.62,8.33,0,0,1.54,4.01,3.24,8.49,0,0,1.85,4.32,4.47,8.64,0,0,2.47,4.47,5.09,8.79,0,0,2.62,4.32,5.4,8.79,0,0,2.78,4.32,5.71,8.64,0,0,2.78,4.47,5.86,9.1,0,0,3.09,4.63,5.86,8.95,0,0,2.93,4.32,5.4,8.49,0,0,2.62,4.17,4.63,7.71,0,0,2.16,3.55,4.17,7.25,0,0,2.01,3.55,3.55,7.41,0,0,1.54,3.86,2.62,7.71,0,0,1.08,3.86,1.23,7.71,0,0,.31,3.86.31,8.02,0,0,0,4.01-.31,8.18,0,0-.15,4.17-1.23,8.18,0,0-1.08,4.17-2.78,8.33,0,0-1.85,4.01-4.17,7.87,0,0-2.31,3.86-5.09,7.71,0,0-2.93,3.86-6.17,7.56,0,0-3.39,3.55-6.94,7.71,0,0-3.7,4.01-7.56,8.18,0,0-3.86,4.17-7.87,8.79,0,0-4.17,4.63-8.79,9.26,0,0-4.63,4.63-10.8,10.95l-6.17,6.48" vector-effect="non-scaling-stroke"/>
  <path class="st3" d="M884.53,788.4c-2.78,3.09-5.4,6.17-8.33,9.26,0,0-2.93,3.09-8.64,9.26,0,0-5.71,6.17-11.11,12.03,0,0-5.4,6.02-10.8,11.88,0,0-5.4,5.86-10.95,11.88,0,0-5.71,5.86-11.57,12.34,0,0-6.02,6.33-11.88,12.5,0,0-5.86,6.17-11.26,12.19,0,0-5.4,5.86-10.34,10.8,0,0-4.94,4.78-8.95,9.41,0,0-4.17,4.63-8.02,8.79,0,0-3.86,4.17-7.41,8.02,0,0-3.7,3.86-6.79,7.1,0,0-3.09,3.39-5.55,6.17,0,0-2.62,2.93-4.94,5.4,0,0-2.31,2.62-4.32,4.63l-4.17,4.17s-2.01,2.01-4.17,3.55c0,0-2.01,1.54-4.32,2.93,0,0-2.31,1.23-4.94,1.7,0,0-2.47.62-5.09.77,0,0-2.62.31-5.4-.15,0,0-2.78-.62-5.4-1.39,0,0-2.62-.77-5.09-2.47,0,0-2.62-1.85-4.94-3.86,0,0-2.31-2.16-4.63-4.94,0,0-2.31-2.78-5.09-5.86,0,0-2.93-3.09-6.02-6.94,0,0-3.09-3.86-6.94-8.33,0,0-3.86-4.32-7.71-8.95,0,0-3.86-4.63-8.18-9.26,0,0-4.32-4.63-8.49-8.95,0,0-4.17-4.47-8.18-8.79,0,0-4.17-4.32-8.02-8.18,0,0-3.86-3.86-7.71-7.56,0,0-3.86-3.55-7.71-6.63,0,0-3.86-3.09-7.25-5.86,0,0-3.24-2.93-6.33-5.4,0,0-3.09-2.62-6.02-4.63,0,0-2.78-2.16-5.4-3.86,0,0-2.47-1.85-5.09-3.39,0,0-2.62-1.54-4.94-2.62,0,0-2.31-.93-4.78-1.7,0,0-2.62-.77-4.94-1.08,0,0-2.31-.31-4.63-.31,0,0-2.31,0-4.63.62,0,0-2.31.46-4.63,1.54,0,0-2.31.93-4.63,2.47,0,0-2.31,1.54-4.63,3.39,0,0-2.31,1.85-4.32,3.86,0,0-2.16,2.01-3.7,4.32,0,0-1.54,2.31-2.31,4.94,0,0-.77,2.62-1.23,5.71,0,0-.46,3.09-.46,6.17,0,0,0,3.09.15,6.17,0,0,.31,3.09,1.39,6.17,0,0,.93,3.09,2.47,5.86,0,0,1.54,2.78,3.7,5.86,0,0,2.01,3.09,4.32,5.4l4.94,4.94s2.47,2.62,5.55,4.94c0,0,3.09,2.31,6.48,5.09,0,0,3.39,2.78,6.94,5.4,0,0,3.55,2.62,6.94,5.4,0,0,3.39,2.78,6.94,5.71,0,0,3.55,2.78,7.25,5.86,0,0,3.55,3.09,7.41,5.86,0,0,3.86,2.93,7.71,5.71,0,0,3.86,2.78,7.41,5.4,0,0,3.7,2.62,6.79,5.09,0,0,3.09,2.62,5.86,4.94,0,0,2.78,2.31,5.4,4.63,0,0,2.62,2.31,4.94,4.94,0,0,2.31,2.47,3.86,5.4,0,0,1.54,2.78,2.78,5.86,0,0,1.23,3.09,2.31,6.17,0,0,1.08,3.09,1.85,6.48,0,0,.77,3.24.93,6.63,0,0,.31,3.39-.15,7.25,0,0-.62,3.86-1.39,7.41,0,0-.77,3.55-2.01,7.25,0,0-1.23,3.55-2.78,6.63,0,0-1.54,3.09-4.17,6.17,0,0-2.62,3.09-5.71,5.86,0,0-3.09,2.93-6.33,5.25,0,0-3.39,2.31-6.79,3.86,0,0-3.24,1.54-7.1,2.47,0,0-3.86,1.08-8.02,1.54,0,0-4.17.62-8.49.62,0,0-4.32,0-8.79-.77,0,0-4.32-.77-8.64-2.16,0,0-4.47-1.23-8.49-3.24,0,0-4.17-2.16-8.02-4.63,0,0-3.86-2.62-8.02-5.71,0,0-4.01-3.09-8.18-6.48,0,0-4.17-3.24-8.79-7.1,0,0-4.63-3.86-9.41-8.33,0,0-4.94-4.32-10.34-8.95l-10.8-9.26s-5.4-4.63-11.26-9.57c0,0-6.02-4.78-11.88-10.03,0,0-5.86-5.09-12.34-10.18,0,0-6.48-5.25-12.65-10.34,0,0-6.17-5.09-17.13-14.19l-11.11-8.95" vector-effect="non-scaling-stroke"/>
  <g id="moving-circle-group">
    <circle cx="437.11" cy="933.43" r="30.86" vector-effect="non-scaling-stroke"/>
    <circle class="st4" cx="437.11" cy="933.43" r="10.8" vector-effect="non-scaling-stroke"/>
  </g>
</svg>