<?xml version="1.0" encoding="UTF-8"?>
<svg id="minimap-svg" xmlns="http://www.w3.org/2000/svg" version="1.1" viewBox="0 0 1920 1080">
  <!-- Generator: Adobe Illustrator 30.0.0, SVG Export Plug-In . SVG Version: 2.1.1 Build 123)  -->
  <defs>
    <style>
      .st0 {
        stroke: #000;
        stroke-width: 21.94px;
      }

      .st0, .st1, .st2, .st3 {
        fill: none;
        stroke-miterlimit: 10.97;
      }

      .st1 {
        stroke: #ef4444;
      }

      .st1, .st2, .st3 {
        stroke-width: 5.49px;
      }

      .st4 {
        fill: #fff;
      }

      .st2 {
        stroke: #3b82f6;
      }

      .st3 {
        stroke: #fbbf24;
      }
    </style>
  </defs>
  <g>
    <path class="st0" d="M1418.06,191.66h-137.69s-15.91,0-32.91-.55c0,0-16.73-.27-34.29-1.37,0,0-17.28-.82-34.56-2.19,0,0-17.55-1.37-34.01-3.57,0,0-16.46-2.47-32.37-5.49,0,0-15.91-3.29-32.09-6.86,0,0-15.91-3.84-32.91-7.41,0,0-16.73-3.57-33.74-6.86,0,0-17.01-3.29-33.74-6.31,0,0-17.01-3.29-32.64-5.49,0,0-15.36-2.47-29.62-3.84,0,0-14.26-1.37-27.43-2.19,0,0-13.17-.82-26.06-.82,0,0-12.89,0-26.06.27,0,0-13.17.55-26.06,1.92,0,0-12.89,1.37-25.51,2.19,0,0-12.89,1.1-25.78,1.92,0,0-12.62.82-25.51,2.19,0,0-12.89,1.37-25.51,3.29,0,0-12.89,1.92-24.69,3.57,0,0-12.07,1.92-23.31,3.29,0,0-11.52,1.37-21.94,3.29,0,0-10.7,1.65-20.3,3.57,0,0-9.6,1.92-17.28,3.57,0,0-7.68,1.92-14.26,3.29,0,0-6.31,1.37-11.25,2.74,0,0-5.21,1.37-9.6,2.74,0,0-4.66,1.37-8.78,2.74,0,0-4.11,1.37-7.68,2.74,0,0-3.84,1.37-6.86,3.29,0,0-3.29,1.65-5.49,4.11,0,0-2.47,2.19-4.11,5.49,0,0-1.92,3.02-3.29,7.13,0,0-1.37,4.11-2.74,9.33,0,0-1.37,4.94-3.29,10.42,0,0-1.65,5.49-4.11,10.42,0,0-2.19,5.21-5.49,9.6,0,0-3.02,4.66-7.68,8.23,0,0-4.66,3.84-10.15,6.86,0,0-5.49,3.29-11.79,6.58,0,0-6.31,3.02-13.17,6.31,0,0-6.86,3.29-14.26,6.86,0,0-7.41,3.57-14.54,7.41,0,0-7.41,3.57-14.26,7.68,0,0-6.86,4.11-13.17,8.78,0,0-6.58,4.39-12.07,9.87,0,0-5.49,5.49-9.6,12.34,0,0-4.11,6.86-7.68,14.81,0,0-3.57,7.68-7.41,16.73,0,0-3.57,9.33-7.68,19.2,0,0-4.11,10.15-8.23,21.67,0,0-4.11,11.25-8.78,23.31,0,0-4.39,11.79-9.6,24.14,0,0-4.94,12.34-10.42,25.23,0,0-5.49,12.62-10.97,26.33,0,0-5.49,13.71-11.52,27.98,0,0-5.76,14.26-12.34,28.8,0,0-6.31,14.54-12.62,29.35,0,0-6.58,14.54-12.34,29.62,0,0-6.03,15.09-10.97,28.8,0,0-5.21,13.71-9.33,24.69,0,0-4.11,10.97-6.31,19.2,0,0-2.19,8.23-3.29,14.54,0,0-.82,6.58-.27,12.07,0,0,.27,5.49,1.65,10.42,0,0,1.37,4.94,3.29,9.6,0,0,1.92,4.66,3.29,9.6,0,0,1.37,4.94,2.19,9.6,0,0,.82,4.66,1.37,9.6,0,0,.55,4.94.82,9.6,0,0,.55,4.66-.27,9.05,0,0-1.1,4.66-2.74,8.78,0,0-1.92,4.11-5.21,8.23,0,0-3.02,4.11-7.13,8.23,0,0-4.11,4.11-9.6,8.78,0,0-5.49,4.39-12.34,9.6,0,0-6.86,4.94-14.81,10.97,0,0-7.68,5.76-15.91,12.62,0,0-8.23,6.86-27.43,23.04l-19.2,15.91" vector-effect="non-scaling-stroke"/>
    <path class="st0" d="M142.63,882.86c-4.94,4.11-9.6,8.23-13.99,11.79,0,0-4.39,3.84-12.07,10.15,0,0-7.68,6.31-13.71,10.97,0,0-6.03,4.66-10.42,8.23,0,0-4.66,3.57-8.23,6.86,0,0-3.84,3.29-6.86,6.86,0,0-3.29,3.57-5.49,6.86,0,0-2.47,3.29-4.11,6.86,0,0-1.92,3.57-2.47,7.68,0,0-.27,4.11,0,8.78,0,0,.55,4.66,2.74,9.05,0,0,2.47,4.66,5.49,8.23,0,0,3.29,3.84,7.41,6.58,0,0,4.11,2.74,8.78,4.11,0,0,4.39,1.37,9.87,1.65,0,0,5.49.55,11.52,0,0,0,6.03-.27,12.34-1.37,0,0,6.31-.82,13.17-2.19,0,0,6.86-1.37,15.09-2.74,0,0,8.23-1.37,17.83-2.19,0,0,9.6-1.1,20.3-2.47,0,0,10.42-1.37,21.94-2.74,0,0,11.25-1.37,23.59-3.02,0,0,12.34-1.92,25.78-3.29,0,0,13.17-1.37,27.43-3.29,0,0,13.99-1.65,28.8-3.57,0,0,14.54-1.92,29.07-3.57,0,0,14.81-1.92,27.43-3.29,0,0,12.89-1.37,23.86-2.19,0,0,10.97-1.1,20.02-1.37,0,0,9.33-.55,18.38-.55h18.38s9.05,0,18.65.82c0,0,9.6,1.1,19.2,2.47,0,0,9.6,1.37,18.65,3.57,0,0,9.33,2.19,18.93,4.11,0,0,9.6,1.92,19.2,3.57,0,0,9.6,1.92,19.2,3.29,0,0,9.6,1.37,17.83,3.29,0,0,8.23,1.65,15.36,3.02,0,0,7.41,1.37,13.71,2.47,0,0,6.58.82,12.34.27,0,0,6.03-.27,11.52-1.37,0,0,5.49-.82,10.97-2.74,0,0,5.49-1.65,10.15-4.39,0,0,4.39-2.74,8.5-6.58,0,0,4.11-3.57,7.41-8.23,0,0,3.29-4.39,6.31-9.6,0,0,3.29-4.94,6.03-10.42,0,0,2.74-5.49,5.49-11.52,0,0,2.74-5.76,5.49-12.34,0,0,2.74-6.31,5.49-13.17,0,0,2.74-6.86,5.49-14.26,0,0,2.74-7.13,4.94-14.54,0,0,2.47-7.41,4.11-14.54,0,0,1.92-7.41,2.74-14.81,0,0,1.1-7.13,1.37-15.09,0,0,.55-7.68,0-15.91,0,0-.27-8.23-1.65-16.46,0,0-1.37-8.23-3.29-16.46,0,0-1.92-8.23-4.11-17.01,0,0-2.19-8.5-4.66-18.1,0,0-2.19-9.6-4.94-20.57,0,0-2.74-10.97-5.49-22.49,0,0-2.74-11.52-4.94-22.49,0,0-2.47-10.97-4.11-19.47,0,0-1.92-8.78-2.74-15.63,0,0-1.1-6.86-1.37-11.79,0,0-.55-5.21-.55-10.15,0,0,0-4.94.55-9.6,0,0,.27-4.66,1.65-9.6,0,0,1.37-4.94,4.11-9.6,0,0,2.74-4.66,6.03-9.6,0,0,3.29-4.94,6.86-10.15,0,0,3.57-4.94,6.86-10.42,0,0,3.29-5.49,6.31-10.42,0,0,3.29-5.21,6.03-9.33,0,0,2.74-4.11,5.49-7.13,0,0,2.74-3.29,6.03-5.49,0,0,3.02-2.47,6.86-3.84,0,0,3.57-1.37,7.68-1.65,0,0,4.11-.55,8.23,0,0,0,4.11.27,8.78,1.65,0,0,4.39,1.37,9.05,3.29,0,0,4.66,1.92,9.05,3.57,0,0,4.66,1.92,9.33,3.29,0,0,4.39,1.37,9.6,2.19,0,0,4.94,1.1,9.87,1.37,0,0,5.21.55,10.15.55h84.48s8.23,0,17.55-.55c0,0,9.05-.27,19.2-.82,0,0,9.87-.55,21.39-.82,0,0,11.52-.55,23.86-.55h57.05" vector-effect="non-scaling-stroke"/>
    <path class="st0" d="M1047.77,542.74h21.12s7.13,0,20.85-.55c0,0,13.71-.27,26.06-.82,0,0,12.34-.55,21.94-.82,0,0,9.6-.55,17.55-.55,0,0,7.68,0,13.99.55,0,0,6.58.27,12.34.82,0,0,6.03.55,10.7.82,0,0,4.39.55,8.23.55h24.14s2.19,0,4.11.55c0,0,1.92.27,3.29,1.37,0,0,1.37.82,2.19,2.19,0,0,.82,1.37,1.37,2.74,0,0,.55,1.37,1.37,2.74,0,0,.82,1.37,1.37,2.74,0,0,.55,1.37,1.37,3.29,0,0,.82,1.65,1.92,3.57,0,0,.82,1.92,2.19,3.57,0,0,1.37,1.92,2.74,2.74,0,0,1.37,1.1,2.74,1.37,0,0,1.37.55,3.29.55h3.57s1.92,0,4.11-.55c0,0,2.19-.27,4.94-1.37,0,0,2.74-.82,6.58-2.74,0,0,3.57-1.65,8.23-3.57,0,0,4.39-1.92,9.87-4.11,0,0,5.49-2.19,12.34-4.94,0,0,6.86-2.74,15.09-6.58,0,0,8.23-3.57,17.55-7.68,0,0,9.05-4.11,19.2-8.23,0,0,9.87-4.11,20.57-8.78,0,0,10.42-4.39,20.85-9.05,0,0,10.7-4.66,20.57-9.6,0,0,10.15-4.94,19.75-10.15,0,0,9.6-4.94,19.2-10.97,0,0,9.6-5.76,19.2-12.34,0,0,9.6-6.31,18.65-13.17,0,0,9.33-6.86,18.38-14.26,0,0,9.05-7.13,17.83-15.09,0,0,8.78-7.68,17.83-15.91,0,0,9.05-8.23,17.83-16.46,0,0,8.78-8.23,17.83-16.46,0,0,9.05-8.23,17.83-17.01,0,0,8.78-8.5,17.83-17.28,0,0,9.05-8.78,17.83-17.28,0,0,8.78-8.78,17.01-16.46,0,0,8.23-7.95,15.09-14.81,0,0,6.86-6.86,13.17-12.34,0,0,6.31-5.49,13.17-9.87,0,0,6.86-4.66,14.81-8.78,0,0,7.68-4.11,15.91-8.23,0,0,8.23-4.11,17.01-8.23,0,0,8.5-4.11,17.83-7.68,0,0,9.05-3.84,18.65-7.41,0,0,9.6-3.57,18.38-6.86,0,0,8.5-3.29,15.91-6.31,0,0,7.41-3.29,12.89-5.49,0,0,5.49-2.47,9.6-4.66,0,0,4.11-2.19,7.13-4.66,0,0,3.29-2.19,5.49-5.49,0,0,2.47-3.02,4.11-6.86,0,0,1.92-3.57,2.47-7.68,0,0,.27-4.11,0-8.78,0,0-.55-4.39-2.47-9.05,0,0-1.65-4.66-4.11-10.15,0,0-2.19-5.49-4.94-10.97,0,0-2.74-5.49-5.49-11.79,0,0-2.74-6.31-4.94-11.79,0,0-2.47-5.49-4.66-10.15,0,0-2.19-4.66-4.66-8.23,0,0-2.19-3.57-4.94-6.86,0,0-2.74-3.29-6.03-6.03,0,0-3.02-2.74-6.86-4.39,0,0-3.57-1.92-7.68-2.74,0,0-4.11-1.1-8.78-1.37,0,0-4.39-.55-9.6.27,0,0-4.94,1.1-10.97,2.74,0,0-5.76,1.92-12.62,4.66,0,0-6.86,2.74-15.09,6.03,0,0-8.23,3.02-17.55,6.31,0,0-9.05,3.29-19.2,7.41,0,0-9.87,4.11-20.85,8.23,0,0-10.97,4.11-23.31,9.05,0,0-12.34,4.94-25.23,9.6,0,0-12.89,4.66-26.06,9.6,0,0-13.17,4.94-26.61,9.6,0,0-13.17,4.66-26.33,9.05,0,0-13.44,4.66-26.61,8.23,0,0-13.17,3.84-26.88,6.86,0,0-13.71,3.29-27.98,5.49,0,0-14.26,2.47-35.11,4.11l-21.12,1.92" vector-effect="non-scaling-stroke"/>
  </g>
  <path class="st1" d="M1418.06,191.66h-137.69s-15.91,0-32.91-.55c0,0-16.73-.27-34.29-1.37,0,0-17.28-.82-34.56-2.19,0,0-17.55-1.37-34.01-3.57,0,0-16.46-2.47-32.37-5.49,0,0-15.91-3.29-32.09-6.86,0,0-15.91-3.84-32.91-7.41,0,0-16.73-3.57-33.74-6.86,0,0-17.01-3.29-33.74-6.31,0,0-17.01-3.29-32.64-5.49,0,0-15.36-2.47-29.62-3.84,0,0-14.26-1.37-27.43-2.19,0,0-13.17-.82-26.06-.82,0,0-12.89,0-26.06.27,0,0-13.17.55-26.06,1.92,0,0-12.89,1.37-25.51,2.19,0,0-12.89,1.1-25.78,1.92,0,0-12.62.82-25.51,2.19,0,0-12.89,1.37-25.51,3.29,0,0-12.89,1.92-24.69,3.57,0,0-12.07,1.92-23.31,3.29,0,0-11.52,1.37-21.94,3.29,0,0-10.7,1.65-20.3,3.57,0,0-9.6,1.92-17.28,3.57,0,0-7.68,1.92-14.26,3.29,0,0-6.31,1.37-11.25,2.74,0,0-5.21,1.37-9.6,2.74,0,0-4.66,1.37-8.78,2.74,0,0-4.11,1.37-7.68,2.74,0,0-3.84,1.37-6.86,3.29,0,0-3.29,1.65-5.49,4.11,0,0-2.47,2.19-4.11,5.49,0,0-1.92,3.02-3.29,7.13,0,0-1.37,4.11-2.74,9.33,0,0-1.37,4.94-3.29,10.42,0,0-1.65,5.49-4.11,10.42,0,0-2.19,5.21-5.49,9.6,0,0-3.02,4.66-7.68,8.23,0,0-4.66,3.84-10.15,6.86,0,0-5.49,3.29-11.79,6.58,0,0-6.31,3.02-13.17,6.31,0,0-6.86,3.29-14.26,6.86,0,0-7.41,3.57-14.54,7.41,0,0-7.41,3.57-14.26,7.68,0,0-6.86,4.11-13.17,8.78,0,0-6.58,4.39-12.07,9.87,0,0-5.49,5.49-9.6,12.34,0,0-4.11,6.86-7.68,14.81,0,0-3.57,7.68-7.41,16.73,0,0-3.57,9.33-7.68,19.2,0,0-4.11,10.15-8.23,21.67,0,0-4.11,11.25-8.78,23.31,0,0-4.39,11.79-9.6,24.14,0,0-4.94,12.34-10.42,25.23,0,0-5.49,12.62-10.97,26.33,0,0-5.49,13.71-11.52,27.98,0,0-5.76,14.26-12.34,28.8,0,0-6.31,14.54-12.62,29.35,0,0-6.58,14.54-12.34,29.62,0,0-6.03,15.09-10.97,28.8,0,0-5.21,13.71-9.33,24.69,0,0-4.11,10.97-6.31,19.2,0,0-2.19,8.23-3.29,14.54,0,0-.82,6.58-.27,12.07,0,0,.27,5.49,1.65,10.42,0,0,1.37,4.94,3.29,9.6,0,0,1.92,4.66,3.29,9.6,0,0,1.37,4.94,2.19,9.6,0,0,.82,4.66,1.37,9.6,0,0,.55,4.94.82,9.6,0,0,.55,4.66-.27,9.05,0,0-1.1,4.66-2.74,8.78,0,0-1.92,4.11-5.21,8.23,0,0-3.02,4.11-7.13,8.23,0,0-4.11,4.11-9.6,8.78,0,0-5.49,4.39-12.34,9.6,0,0-6.86,4.94-14.81,10.97,0,0-7.68,5.76-15.91,12.62,0,0-8.23,6.86-27.43,23.04l-19.2,15.91" vector-effect="non-scaling-stroke"/>
  <path class="st2" d="M142.63,882.86c-4.94,4.11-9.6,8.23-13.99,11.79,0,0-4.39,3.84-12.07,10.15,0,0-7.68,6.31-13.71,10.97,0,0-6.03,4.66-10.42,8.23,0,0-4.66,3.57-8.23,6.86,0,0-3.84,3.29-6.86,6.86,0,0-3.29,3.57-5.49,6.86,0,0-2.47,3.29-4.11,6.86,0,0-1.92,3.57-2.47,7.68,0,0-.27,4.11,0,8.78,0,0,.55,4.66,2.74,9.05,0,0,2.47,4.66,5.49,8.23,0,0,3.29,3.84,7.41,6.58,0,0,4.11,2.74,8.78,4.11,0,0,4.39,1.37,9.87,1.65,0,0,5.49.55,11.52,0,0,0,6.03-.27,12.34-1.37,0,0,6.31-.82,13.17-2.19,0,0,6.86-1.37,15.09-2.74,0,0,8.23-1.37,17.83-2.19,0,0,9.6-1.1,20.3-2.47,0,0,10.42-1.37,21.94-2.74,0,0,11.25-1.37,23.59-3.02,0,0,12.34-1.92,25.78-3.29,0,0,13.17-1.37,27.43-3.29,0,0,13.99-1.65,28.8-3.57,0,0,14.54-1.92,29.07-3.57,0,0,14.81-1.92,27.43-3.29,0,0,12.89-1.37,23.86-2.19,0,0,10.97-1.1,20.02-1.37,0,0,9.33-.55,18.38-.55h18.38s9.05,0,18.65.82c0,0,9.6,1.1,19.2,2.47,0,0,9.6,1.37,18.65,3.57,0,0,9.33,2.19,18.93,4.11,0,0,9.6,1.92,19.2,3.57,0,0,9.6,1.92,19.2,3.29,0,0,9.6,1.37,17.83,3.29,0,0,8.23,1.65,15.36,3.02,0,0,7.41,1.37,13.71,2.47,0,0,6.58.82,12.34.27,0,0,6.03-.27,11.52-1.37,0,0,5.49-.82,10.97-2.74,0,0,5.49-1.65,10.15-4.39,0,0,4.39-2.74,8.5-6.58,0,0,4.11-3.57,7.41-8.23,0,0,3.29-4.39,6.31-9.6,0,0,3.29-4.94,6.03-10.42,0,0,2.74-5.49,5.49-11.52,0,0,2.74-5.76,5.49-12.34,0,0,2.74-6.31,5.49-13.17,0,0,2.74-6.86,5.49-14.26,0,0,2.74-7.13,4.94-14.54,0,0,2.47-7.41,4.11-14.54,0,0,1.92-7.41,2.74-14.81,0,0,1.1-7.13,1.37-15.09,0,0,.55-7.68,0-15.91,0,0-.27-8.23-1.65-16.46,0,0-1.37-8.23-3.29-16.46,0,0-1.92-8.23-4.11-17.01,0,0-2.19-8.5-4.66-18.1,0,0-2.19-9.6-4.94-20.57,0,0-2.74-10.97-5.49-22.49,0,0-2.74-11.52-4.94-22.49,0,0-2.47-10.97-4.11-19.47,0,0-1.92-8.78-2.74-15.63,0,0-1.1-6.86-1.37-11.79,0,0-.55-5.21-.55-10.15,0,0,0-4.94.55-9.6,0,0,.27-4.66,1.65-9.6,0,0,1.37-4.94,4.11-9.6,0,0,2.74-4.66,6.03-9.6,0,0,3.29-4.94,6.86-10.15,0,0,3.57-4.94,6.86-10.42,0,0,3.29-5.49,6.31-10.42,0,0,3.29-5.21,6.03-9.33,0,0,2.74-4.11,5.49-7.13,0,0,2.74-3.29,6.03-5.49,0,0,3.02-2.47,6.86-3.84,0,0,3.57-1.37,7.68-1.65,0,0,4.11-.55,8.23,0,0,0,4.11.27,8.78,1.65,0,0,4.39,1.37,9.05,3.29,0,0,4.66,1.92,9.05,3.57,0,0,4.66,1.92,9.33,3.29,0,0,4.39,1.37,9.6,2.19,0,0,4.94,1.1,9.87,1.37,0,0,5.21.55,10.15.55h84.48s8.23,0,17.55-.55c0,0,9.05-.27,19.2-.82,0,0,9.87-.55,21.39-.82,0,0,11.52-.55,23.86-.55h57.05" vector-effect="non-scaling-stroke"/>
  <path class="st3" d="M1047.77,542.74h21.12s7.13,0,20.85-.55c0,0,13.71-.27,26.06-.82,0,0,12.34-.55,21.94-.82,0,0,9.6-.55,17.55-.55,0,0,7.68,0,13.99.55,0,0,6.58.27,12.34.82,0,0,6.03.55,10.7.82,0,0,4.39.55,8.23.55h24.14s2.19,0,4.11.55c0,0,1.92.27,3.29,1.37,0,0,1.37.82,2.19,2.19,0,0,.82,1.37,1.37,2.74,0,0,.55,1.37,1.37,2.74,0,0,.82,1.37,1.37,2.74,0,0,.55,1.37,1.37,3.29,0,0,.82,1.65,1.92,3.57,0,0,.82,1.92,2.19,3.57,0,0,1.37,1.92,2.74,2.74,0,0,1.37,1.1,2.74,1.37,0,0,1.37.55,3.29.55h3.57s1.92,0,4.11-.55c0,0,2.19-.27,4.94-1.37,0,0,2.74-.82,6.58-2.74,0,0,3.57-1.65,8.23-3.57,0,0,4.39-1.92,9.87-4.11,0,0,5.49-2.19,12.34-4.94,0,0,6.86-2.74,15.09-6.58,0,0,8.23-3.57,17.55-7.68,0,0,9.05-4.11,19.2-8.23,0,0,9.87-4.11,20.57-8.78,0,0,10.42-4.39,20.85-9.05,0,0,10.7-4.66,20.57-9.6,0,0,10.15-4.94,19.75-10.15,0,0,9.6-4.94,19.2-10.97,0,0,9.6-5.76,19.2-12.34,0,0,9.6-6.31,18.65-13.17,0,0,9.33-6.86,18.38-14.26,0,0,9.05-7.13,17.83-15.09,0,0,8.78-7.68,17.83-15.91,0,0,9.05-8.23,17.83-16.46,0,0,8.78-8.23,17.83-16.46,0,0,9.05-8.23,17.83-17.01,0,0,8.78-8.5,17.83-17.28,0,0,9.05-8.78,17.83-17.28,0,0,8.78-8.78,17.01-16.46,0,0,8.23-7.95,15.09-14.81,0,0,6.86-6.86,13.17-12.34,0,0,6.31-5.49,13.17-9.87,0,0,6.86-4.66,14.81-8.78,0,0,7.68-4.11,15.91-8.23,0,0,8.23-4.11,17.01-8.23,0,0,8.5-4.11,17.83-7.68,0,0,9.05-3.84,18.65-7.41,0,0,9.6-3.57,18.38-6.86,0,0,8.5-3.29,15.91-6.31,0,0,7.41-3.29,12.89-5.49,0,0,5.49-2.47,9.6-4.66,0,0,4.11-2.19,7.13-4.66,0,0,3.29-2.19,5.49-5.49,0,0,2.47-3.02,4.11-6.86,0,0,1.92-3.57,2.47-7.68,0,0,.27-4.11,0-8.78,0,0-.55-4.39-2.47-9.05,0,0-1.65-4.66-4.11-10.15,0,0-2.19-5.49-4.94-10.97,0,0-2.74-5.49-5.49-11.79,0,0-2.74-6.31-4.94-11.79,0,0-2.47-5.49-4.66-10.15,0,0-2.19-4.66-4.66-8.23,0,0-2.19-3.57-4.94-6.86,0,0-2.74-3.29-6.03-6.03,0,0-3.02-2.74-6.86-4.39,0,0-3.57-1.92-7.68-2.74,0,0-4.11-1.1-8.78-1.37,0,0-4.39-.55-9.6.27,0,0-4.94,1.1-10.97,2.74,0,0-5.76,1.92-12.62,4.66,0,0-6.86,2.74-15.09,6.03,0,0-8.23,3.02-17.55,6.31,0,0-9.05,3.29-19.2,7.41,0,0-9.87,4.11-20.85,8.23,0,0-10.97,4.11-23.31,9.05,0,0-12.34,4.94-25.23,9.6,0,0-12.89,4.66-26.06,9.6,0,0-13.17,4.94-26.61,9.6,0,0-13.17,4.66-26.33,9.05,0,0-13.44,4.66-26.61,8.23,0,0-13.17,3.84-26.88,6.86,0,0-13.71,3.29-27.98,5.49,0,0-14.26,2.47-35.11,4.11l-21.12,1.92" vector-effect="non-scaling-stroke"/>
  <g id="moving-circle-group">
    <circle cx="1418.06" cy="191.66" r="54.86" vector-effect="non-scaling-stroke"/>
    <circle class="st4" cx="1418.06" cy="191.66" r="19.2" vector-effect="non-scaling-stroke"/>
  </g>
</svg>