<?xml version="1.0" encoding="UTF-8"?>
<svg id="minimap-svg" xmlns="http://www.w3.org/2000/svg" version="1.1" viewBox="0 0 1920 991.85">
  <!-- Generator: Adobe Illustrator 30.0.0, SVG Export Plug-In . SVG Version: 2.1.1 Build 123)  -->
  <defs>
    <style>
      .st0 {
        stroke: #000;
        stroke-width: 21.94px;
      }

      .st0, .st1, .st2, .st3 {
        fill: none;
        stroke-miterlimit: 10.97;
      }

      .st1 {
        stroke: #ef4444;
      }

      .st1, .st2, .st3 {
        stroke-width: 5.49px;
      }

      .st4 {
        fill: #fff;
      }

      .st2 {
        stroke: #3b82f6;
      }

      .st3 {
        stroke: #fbbf24;
      }
    </style>
  </defs>
  <g>
    <path class="st0" d="M1445.49,360.18c4.11,5.49,8.23,10.97,12.89,15.91,0,0,4.39,5.21,13.71,15.63,0,0,9.05,10.42,18.65,21.39,0,0,9.6,10.97,19.75,22.49,0,0,9.87,11.52,20.02,23.31,0,0,10.15,11.79,20.57,23.31,0,0,10.42,11.52,20.57,23.31,0,0,10.15,11.79,20.57,23.86,0,0,10.42,11.79,21.12,24.14,0,0,10.42,12.34,21.94,24.69,0,0,11.25,12.34,22.22,24.69,0,0,10.97,12.34,22.49,24.69,0,0,11.52,12.34,22.49,24.69,0,0,10.97,12.34,22.22,24.69,0,0,11.52,12.34,22.49,24.69,0,0,10.97,12.34,21.12,24.14,0,0,9.87,12.07,18.65,21.94,0,0,8.78,10.15,15.09,17.83,0,0,6.31,7.95,10.97,13.44,0,0,4.66,5.49,7.68,9.6,0,0,3.29,4.11,6.58,7.68,0,0,3.02,3.57,5.76,7.41,0,0,2.74,3.57,5.49,7.68,0,0,2.74,4.11,4.66,8.78,0,0,1.92,4.39,3.57,9.6,0,0,1.92,4.94,2.74,10.97,0,0,1.1,5.76,1.37,11.79,0,0,.55,6.03,0,12.34,0,0-.27,6.31-1.65,12.89,0,0-1.37,6.31-3.29,12.62,0,0-1.92,6.58-3.57,12.07,0,0-1.92,5.49-3.84,9.6,0,0-1.65,4.11-4.11,7.68,0,0-2.19,3.57-4.94,6.86,0,0-2.74,3.29-5.49,6.03,0,0-2.74,2.74-6.03,4.39,0,0-3.02,1.92-6.86,3.29,0,0-3.57,1.37-7.68,2.74,0,0-4.11,1.37-8.78,2.19,0,0-4.39,1.1-9.6,1.1,0,0-4.94,0-9.87-1.1,0,0-5.21-.82-9.6-3.02,0,0-4.66-2.47-8.78-5.49,0,0-4.11-3.29-8.23-7.95,0,0-4.11-4.39-8.23-9.05,0,0-4.11-4.66-8.23-10.15,0,0-4.11-5.49-7.68-10.42,0,0-3.84-4.94-7.41-10.97,0,0-3.57-6.03-7.41-11.52,0,0-3.57-5.49-7.68-11.79,0,0-4.11-6.31-8.23-12.34,0,0-4.11-6.03-8.23-11.52,0,0-4.11-5.49-7.68-10.42,0,0-3.84-4.94-6.86-9.05,0,0-3.29-4.11-6.03-8.23,0,0-2.74-4.11-5.49-7.41,0,0-2.74-3.29-5.49-6.03,0,0-2.74-2.74-5.49-4.94,0,0-2.74-2.19-6.03-4.11,0,0-3.02-1.92-6.86-3.57,0,0-3.57-1.92-7.68-2.74,0,0-4.11-1.1-8.23-1.37,0,0-4.11-.55-8.78-.55h-18.1s-4.66,0-8.78-.55c0,0-4.11-.27-8.23-.82,0,0-4.11-.55-7.68-1.37,0,0-3.84-.82-6.86-1.92,0,0-3.29-.82-6.58-2.74,0,0-3.02-1.65-6.31-3.57,0,0-3.29-1.92-6.31-4.66,0,0-3.29-2.74-6.03-5.76,0,0-2.74-3.29-5.49-7.41,0,0-2.74-4.11-4.94-8.23,0,0-2.47-4.11-4.66-9.05,0,0-2.19-5.21-4.11-10.15,0,0-1.92-4.94-3.57-10.97,0,0-1.92-6.03-3.29-11.52,0,0-1.37-5.49-2.74-10.42,0,0-1.37-4.94-2.74-9.05,0,0-1.37-4.11-2.74-7.95,0,0-1.37-3.57-3.29-7.13,0,0-1.65-3.84-4.11-7.41,0,0-2.19-3.57-4.94-6.86,0,0-2.74-3.29-6.03-6.31,0,0-3.02-3.29-6.86-5.49,0,0-3.57-2.47-7.13-4.11,0,0-3.84-1.92-7.95-3.29l-8.23-2.74s-4.11-1.37-9.05-2.19c0,0-4.94-1.1-10.15-1.37,0,0-4.94-.55-9.87-.55h-20.3s-4.94,0-9.87-.55c0,0-5.21-.27-9.6-.82,0,0-4.66-.55-8.78-1.37,0,0-4.11-.82-8.23-2.19,0,0-4.11-1.37-7.68-3.29,0,0-3.84-1.92-7.41-4.11,0,0-3.57-2.19-6.86-4.94,0,0-3.29-2.74-6.03-6.03,0,0-2.74-3.29-4.94-6.86,0,0-2.19-3.57-4.11-7.41,0,0-1.92-3.57-3.57-8.23,0,0-1.92-4.39-3.29-9.05,0,0-1.37-4.66-2.19-9.6,0,0-1.1-4.94-1.1-10.15,0,0,0-4.94,1.1-10.42,0,0,.82-5.49,2.19-11.52,0,0,1.37-5.76,3.29-11.79,0,0,1.65-6.03,3.57-11.79,0,0,1.92-6.03,3.57-11.52,0,0,1.92-5.49,3.29-10.42,0,0,1.37-5.21,2.19-10.15,0,0,1.1-4.94,1.37-9.05,0,0,.55-4.11.55-8.23v-7.95s0-3.57-.55-7.68c0,0-.27-4.11-1.37-8.23,0,0-.82-4.11-2.74-7.68,0,0-1.65-3.84-4.11-6.86,0,0-2.19-3.29-4.94-6.03l-5.49-5.49s-2.74-2.74-6.03-5.49c0,0-3.02-2.74-6.86-4.94,0,0-3.57-2.47-7.68-4.66,0,0-4.11-2.19-8.23-4.11,0,0-4.11-1.92-8.78-4.11,0,0-4.39-2.19-9.05-4.11,0,0-4.66-1.92-9.05-3.57,0,0-4.66-1.92-9.33-3.29,0,0-4.39-1.37-9.6-2.74,0,0-4.94-1.37-10.42-2.74,0,0-5.49-1.37-10.42-2.19,0,0-5.21-1.1-10.7-1.37,0,0-5.49-.55-10.97-.55h-22.77s-5.49,0-11.52.55c0,0-5.76.27-11.79,1.37,0,0-6.03.82-11.79,2.74,0,0-6.03,1.65-11.52,4.11,0,0-5.49,2.19-10.97,4.94l-10.97,5.49-10.97,5.49s-5.49,2.74-10.97,6.03c0,0-5.49,3.02-10.97,6.86,0,0-5.49,3.57-10.42,7.68,0,0-5.21,4.11-9.6,8.78,0,0-4.66,4.39-8.78,9.05,0,0-4.11,4.66-8.23,9.6,0,0-4.11,4.94-8.23,10.15,0,0-4.11,4.94-8.23,10.42l-8.23,10.97s-4.11,5.49-9.6,12.34l-5.49,6.86" vector-effect="non-scaling-stroke"/>
    <path class="st0" d="M1003.89,489.1c-2.19,2.74-4.11,5.49-6.03,8.23,0,0-2.19,2.74-5.76,7.68,0,0-3.84,5.21-6.86,9.33,0,0-3.29,4.11-6.03,7.13,0,0-2.74,3.29-4.94,6.03,0,0-2.47,2.74-4.11,4.94,0,0-1.92,2.47-3.29,4.66,0,0-1.37,2.19-3.29,4.11,0,0-1.65,1.92-3.57,3.29,0,0-1.92,1.37-4.11,2.19,0,0-2.19.82-4.11,1.92,0,0-1.92.82-4.66,1.65,0,0-2.74,1.1-5.49,1.92,0,0-2.74.82-6.86,1.37,0,0-4.11.55-8.23,1.37,0,0-4.11.82-9.6,1.37,0,0-5.49.55-11.25,1.37,0,0-6.03.82-12.34,1.37,0,0-6.58.55-12.34.82,0,0-6.03.55-10.97,1.1,0,0-5.21.27-9.6.82,0,0-4.66.55-8.78.82l-8.23,1.1s-4.11.27-7.68.82c0,0-3.84.55-6.86.55,0,0-3.29,0-6.03-1.1,0,0-2.74-.82-5.49-2.74,0,0-2.74-1.65-4.94-4.11,0,0-2.47-2.19-4.11-4.94,0,0-1.92-2.74-3.29-5.49,0,0-1.37-2.74-2.19-6.03,0,0-1.1-3.02-2.74-11.25,0,0-1.92-8.23-3.84-17.83,0,0-1.65-9.6-4.11-19.75,0,0-2.19-10.15-3.57-17.01l-2.74-13.71s-1.37-6.86-3.29-13.99c0,0-1.65-7.41-3.57-14.26,0,0-1.92-6.86-3.57-14.26,0,0-1.92-7.13-3.84-15.09,0,0-1.65-7.68-3.57-15.91,0,0-1.92-8.23-4.11-16.46,0,0-2.19-8.23-4.11-15.91,0,0-1.92-7.95-3.57-14.81,0,0-1.92-6.86-2.74-12.34,0,0-1.1-5.49-1.37-9.87,0,0-.55-4.66-1.1-8.23,0,0-.27-3.84-.82-7.41,0,0-.55-3.57-.82-7.41,0,0-.55-3.57-.55-7.13,0,0,0-3.84.55-7.95,0,0,.27-4.11,1.37-8.23,0,0,.82-4.11,2.19-9.05,0,0,1.37-4.94,3.29-9.6,0,0,1.65-4.66,3.57-8.78,0,0,1.92-4.11,3.57-7.13,0,0,1.92-3.29,3.29-6.58,0,0,1.37-3.02,2.74-5.76l2.74-5.49s1.37-2.74,2.19-5.21c0,0,1.1-2.19,1.92-4.94,0,0,.82-2.74,1.92-5.49l1.65-5.49s1.1-2.74,1.92-4.94c0,0,.82-2.47.82-4.66v-4.11s0-1.92-.82-4.11c0,0-.82-2.19-1.92-4.11,0,0-.82-1.92-2.74-3.57,0,0-1.65-1.92-3.57-3.29,0,0-1.92-1.37-4.11-2.19,0,0-2.19-1.1-4.94-1.37,0,0-2.74-.55-6.03,0,0,0-3.29.27-6.03,1.65,0,0-2.74,1.37-4.39,4.11,0,0-1.92,2.74-3.29,6.03,0,0-1.37,3.29-3.29,6.86,0,0-1.65,3.57-4.11,7.41,0,0-2.19,3.57-4.94,8.23,0,0-2.74,4.39-6.03,9.6,0,0-3.02,4.94-6.86,10.97,0,0-3.57,5.76-7.13,12.34,0,0-3.84,6.31-7.41,13.17,0,0-3.57,6.86-7.68,13.71,0,0-4.11,6.86-8.78,13.17,0,0-4.66,6.58-9.6,12.89,0,0-4.94,6.31-10.15,11.79,0,0-4.94,5.49-10.42,10.97,0,0-5.49,5.49-11.52,10.15,0,0-5.76,4.66-11.79,9.05,0,0-6.03,4.66-12.89,8.23,0,0-6.86,3.84-13.71,6.58,0,0-6.86,2.74-14.54,4.39,0,0-7.68,1.92-15.63,2.74,0,0-7.68,1.1-15.36,1.37,0,0-7.95.55-15.63.55h-15.63s-7.68,0-15.91-.55c0,0-8.23-.27-17.01-1.37,0,0-8.5-.82-17.28-2.19,0,0-8.78-1.37-17.28-3.29,0,0-8.78-1.65-17.01-4.11,0,0-8.23-2.19-16.46-4.94,0,0-8.23-2.74-16.46-6.03,0,0-8.23-3.02-16.46-6.86,0,0-8.23-3.57-16.46-7.68,0,0-8.23-4.11-16.46-8.78,0,0-8.23-4.39-15.91-9.6,0,0-7.95-4.94-15.09-10.97,0,0-7.41-5.76-13.71-12.34,0,0-6.58-6.31-12.34-13.17,0,0-6.03-6.86-10.97-14.26,0,0-5.21-7.13-10.15-15.09,0,0-4.94-7.68-9.6-15.91,0,0-4.66-8.23-8.78-16.46,0,0-4.11-8.23-7.68-16.46,0,0-3.57-8.23-6.86-15.91,0,0-3.29-7.95-6.31-15.09,0,0-3.29-7.41-6.03-13.44,0,0-2.74-5.76-5.49-11.25,0,0-2.74-5.49-4.94-10.15,0,0-2.47-4.66-4.66-9.05,0,0-2.19-4.66-4.66-8.23,0,0-2.19-3.84-5.49-7.41,0,0-3.02-3.57-6.31-6.31,0,0-3.29-2.74-6.86-5.21,0,0-3.57-2.19-7.41-3.57,0,0-3.57-1.37-7.68-2.74,0,0-4.11-1.37-8.78-2.19,0,0-4.39-1.1-9.05-1.37,0,0-4.66-.55-9.6-.55,0,0-4.94,0-10.15.55,0,0-4.94.27-10.42,1.37,0,0-5.49.82-10.42,2.19,0,0-5.21,1.37-10.15,2.74,0,0-4.94,1.37-9.6,3.29,0,0-4.66,1.65-9.05,4.11,0,0-4.66,2.19-8.78,4.94,0,0-4.11,2.74-7.41,6.03,0,0-3.02,3.02-5.76,6.86,0,0-2.74,3.57-4.66,8.23,0,0-1.92,4.39-3.29,9.6,0,0-1.37,4.94-1.37,10.42,0,0,0,5.49,1.1,10.97,0,0,.82,5.49,2.74,10.42,0,0,1.65,5.21,4.11,10.15,0,0,2.19,4.94,5.76,10.15,0,0,3.84,4.94,7.95,9.87,0,0,4.11,5.21,9.05,9.6,0,0,4.94,4.66,10.15,9.33,0,0,4.94,4.39,10.42,8.5,0,0,5.49,4.11,11.52,8.78,0,0,5.76,4.66,12.34,8.78,0,0,6.31,4.11,13.17,8.5l13.71,9.33s6.86,4.39,13.71,9.05c0,0,6.86,4.66,14.26,9.6,0,0,7.13,4.94,15.36,10.15,0,0,8.23,4.94,17.55,10.42,0,0,9.05,5.49,19.2,10.97,0,0,9.87,5.49,20.57,10.97,0,0,10.42,5.49,21.94,10.97,0,0,11.25,5.49,23.31,10.97,0,0,11.79,5.49,24.69,10.97,0,0,12.62,5.49,26.06,10.42,0,0,13.17,5.21,27.43,9.6,0,0,13.99,4.66,28.25,9.33,0,0,14.26,4.39,28.8,9.05,0,0,14.54,4.66,28.8,9.05,0,0,14.26,4.66,28.25,9.33,0,0,14.26,4.39,28.8,9.05,0,0,14.81,4.66,29.35,9.05,0,0,14.54,4.66,40.32,12.89l25.51,8.23" vector-effect="non-scaling-stroke"/>
    <path class="st0" d="M633.6,434.24c7.68,2.19,15.09,4.11,22.49,6.03,0,0,7.68,2.19,22.77,6.86,0,0,15.09,4.39,30.17,9.05,0,0,15.09,4.66,29.35,9.05,0,0,13.99,4.66,26.33,8.78,0,0,12.34,4.11,22.49,7.41,0,0,10.15,3.02,17.83,5.49,0,0,7.68,2.19,13.71,3.02,0,0,6.03,1.1,10.42,1.37,0,0,4.66.55,9.33.55,0,0,4.39,0,9.05-.55,0,0,4.66-.27,9.6-1.65,0,0,4.94-1.37,9.6-3.29,0,0,4.66-1.92,9.6-3.57,0,0,4.94-1.92,9.6-3.84,0,0,4.66-1.65,9.6-4.11,0,0,4.94-2.19,9.6-4.94,0,0,4.66-2.74,9.6-5.49,0,0,4.94-2.74,10.15-5.49,0,0,4.94-2.74,10.42-6.03,0,0,5.49-3.02,10.97-6.86,0,0,5.49-3.57,10.97-7.68,0,0,5.49-4.11,10.42-8.23,0,0,5.21-4.11,10.15-8.78,0,0,4.94-4.39,10.15-9.05,0,0,4.94-4.66,9.87-9.6,0,0,5.21-4.94,10.15-9.6,0,0,4.94-4.66,9.6-9.6,0,0,4.66-4.94,9.6-9.05,0,0,4.94-4.11,9.05-8.23,0,0,4.11-4.11,8.23-7.95,0,0,4.11-3.57,7.95-7.68,0,0,3.57-4.11,7.68-7.68,0,0,4.11-3.84,8.23-7.41,0,0,4.11-3.57,7.68-6.86,0,0,3.84-3.29,6.86-6.31,0,0,3.29-3.29,6.03-6.03,0,0,2.74-2.74,5.49-4.94,0,0,2.74-2.47,5.49-4.66,0,0,2.74-2.19,5.49-4.11,0,0,2.74-1.92,4.94-3.57,0,0,2.47-1.92,4.11-3.29,0,0,1.92-1.37,3.29-2.74,0,0,1.37-1.37,3.29-2.74,0,0,1.65-1.37,3.02-2.74,0,0,1.37-1.37,3.29-2.19,0,0,1.92-1.1,3.29-1.37,0,0,1.37-.55,3.02-.55h3.29s1.37,0,2.74.55c0,0,1.37.27,3.29,1.37,0,0,1.65.82,3.57,2.19,0,0,1.92,1.37,3.57,2.74,0,0,1.92,1.37,3.84,3.29,0,0,1.65,1.65,4.11,3.57,0,0,2.19,1.92,4.94,3.57,0,0,2.74,1.92,5.49,2.74,0,0,2.74,1.1,5.49,1.37,0,0,2.74.55,5.49,0,0,0,2.74-.27,5.49-1.65,0,0,2.74-1.37,6.03-3.84,0,0,3.02-2.19,6.86-4.94,0,0,3.57-2.74,7.68-6.03,0,0,4.11-3.02,8.23-6.31,0,0,4.11-3.29,8.78-6.31,0,0,4.39-3.29,9.87-5.49,0,0,5.49-2.47,11.52-4.66,0,0,6.03-2.19,12.34-3.57,0,0,6.31-1.37,12.89-2.47,0,0,6.31-.82,13.17-.27,0,0,6.86.27,13.71,1.37,0,0,6.86.82,13.71,2.74,0,0,6.86,1.65,13.71,4.39,0,0,6.86,2.74,13.71,6.58,0,0,6.86,3.57,14.26,7.68,0,0,7.13,4.11,14.54,8.78,0,0,7.41,4.39,14.54,9.6,0,0,7.41,4.94,14.26,10.97,0,0,6.86,5.76,13.71,12.34,0,0,6.86,6.31,21.94,21.39l15.09,15.09" vector-effect="non-scaling-stroke"/>
  </g>
  <path class="st1" d="M1445.49,360.18c4.11,5.49,8.23,10.97,12.89,15.91,0,0,4.39,5.21,13.71,15.63,0,0,9.05,10.42,18.65,21.39,0,0,9.6,10.97,19.75,22.49,0,0,9.87,11.52,20.02,23.31,0,0,10.15,11.79,20.57,23.31,0,0,10.42,11.52,20.57,23.31,0,0,10.15,11.79,20.57,23.86,0,0,10.42,11.79,21.12,24.14,0,0,10.42,12.34,21.94,24.69,0,0,11.25,12.34,22.22,24.69,0,0,10.97,12.34,22.49,24.69,0,0,11.52,12.34,22.49,24.69,0,0,10.97,12.34,22.22,24.69,0,0,11.52,12.34,22.49,24.69,0,0,10.97,12.34,21.12,24.14,0,0,9.87,12.07,18.65,21.94,0,0,8.78,10.15,15.09,17.83,0,0,6.31,7.95,10.97,13.44,0,0,4.66,5.49,7.68,9.6,0,0,3.29,4.11,6.58,7.68,0,0,3.02,3.57,5.76,7.41,0,0,2.74,3.57,5.49,7.68,0,0,2.74,4.11,4.66,8.78,0,0,1.92,4.39,3.57,9.6,0,0,1.92,4.94,2.74,10.97,0,0,1.1,5.76,1.37,11.79,0,0,.55,6.03,0,12.34,0,0-.27,6.31-1.65,12.89,0,0-1.37,6.31-3.29,12.62,0,0-1.92,6.58-3.57,12.07,0,0-1.92,5.49-3.84,9.6,0,0-1.65,4.11-4.11,7.68,0,0-2.19,3.57-4.94,6.86,0,0-2.74,3.29-5.49,6.03,0,0-2.74,2.74-6.03,4.39,0,0-3.02,1.92-6.86,3.29,0,0-3.57,1.37-7.68,2.74,0,0-4.11,1.37-8.78,2.19,0,0-4.39,1.1-9.6,1.1,0,0-4.94,0-9.87-1.1,0,0-5.21-.82-9.6-3.02,0,0-4.66-2.47-8.78-5.49,0,0-4.11-3.29-8.23-7.95,0,0-4.11-4.39-8.23-9.05,0,0-4.11-4.66-8.23-10.15,0,0-4.11-5.49-7.68-10.42,0,0-3.84-4.94-7.41-10.97,0,0-3.57-6.03-7.41-11.52,0,0-3.57-5.49-7.68-11.79,0,0-4.11-6.31-8.23-12.34,0,0-4.11-6.03-8.23-11.52,0,0-4.11-5.49-7.68-10.42,0,0-3.84-4.94-6.86-9.05,0,0-3.29-4.11-6.03-8.23,0,0-2.74-4.11-5.49-7.41,0,0-2.74-3.29-5.49-6.03,0,0-2.74-2.74-5.49-4.94,0,0-2.74-2.19-6.03-4.11,0,0-3.02-1.92-6.86-3.57,0,0-3.57-1.92-7.68-2.74,0,0-4.11-1.1-8.23-1.37,0,0-4.11-.55-8.78-.55h-18.1s-4.66,0-8.78-.55c0,0-4.11-.27-8.23-.82,0,0-4.11-.55-7.68-1.37,0,0-3.84-.82-6.86-1.92,0,0-3.29-.82-6.58-2.74,0,0-3.02-1.65-6.31-3.57,0,0-3.29-1.92-6.31-4.66,0,0-3.29-2.74-6.03-5.76,0,0-2.74-3.29-5.49-7.41,0,0-2.74-4.11-4.94-8.23,0,0-2.47-4.11-4.66-9.05,0,0-2.19-5.21-4.11-10.15,0,0-1.92-4.94-3.57-10.97,0,0-1.92-6.03-3.29-11.52,0,0-1.37-5.49-2.74-10.42,0,0-1.37-4.94-2.74-9.05,0,0-1.37-4.11-2.74-7.95,0,0-1.37-3.57-3.29-7.13,0,0-1.65-3.84-4.11-7.41,0,0-2.19-3.57-4.94-6.86,0,0-2.74-3.29-6.03-6.31,0,0-3.02-3.29-6.86-5.49,0,0-3.57-2.47-7.13-4.11,0,0-3.84-1.92-7.95-3.29l-8.23-2.74s-4.11-1.37-9.05-2.19c0,0-4.94-1.1-10.15-1.37,0,0-4.94-.55-9.87-.55h-20.3s-4.94,0-9.87-.55c0,0-5.21-.27-9.6-.82,0,0-4.66-.55-8.78-1.37,0,0-4.11-.82-8.23-2.19,0,0-4.11-1.37-7.68-3.29,0,0-3.84-1.92-7.41-4.11,0,0-3.57-2.19-6.86-4.94,0,0-3.29-2.74-6.03-6.03,0,0-2.74-3.29-4.94-6.86,0,0-2.19-3.57-4.11-7.41,0,0-1.92-3.57-3.57-8.23,0,0-1.92-4.39-3.29-9.05,0,0-1.37-4.66-2.19-9.6,0,0-1.1-4.94-1.1-10.15,0,0,0-4.94,1.1-10.42,0,0,.82-5.49,2.19-11.52,0,0,1.37-5.76,3.29-11.79,0,0,1.65-6.03,3.57-11.79,0,0,1.92-6.03,3.57-11.52,0,0,1.92-5.49,3.29-10.42,0,0,1.37-5.21,2.19-10.15,0,0,1.1-4.94,1.37-9.05,0,0,.55-4.11.55-8.23v-7.95s0-3.57-.55-7.68c0,0-.27-4.11-1.37-8.23,0,0-.82-4.11-2.74-7.68,0,0-1.65-3.84-4.11-6.86,0,0-2.19-3.29-4.94-6.03l-5.49-5.49s-2.74-2.74-6.03-5.49c0,0-3.02-2.74-6.86-4.94,0,0-3.57-2.47-7.68-4.66,0,0-4.11-2.19-8.23-4.11,0,0-4.11-1.92-8.78-4.11,0,0-4.39-2.19-9.05-4.11,0,0-4.66-1.92-9.05-3.57,0,0-4.66-1.92-9.33-3.29,0,0-4.39-1.37-9.6-2.74,0,0-4.94-1.37-10.42-2.74,0,0-5.49-1.37-10.42-2.19,0,0-5.21-1.1-10.7-1.37,0,0-5.49-.55-10.97-.55h-22.77s-5.49,0-11.52.55c0,0-5.76.27-11.79,1.37,0,0-6.03.82-11.79,2.74,0,0-6.03,1.65-11.52,4.11,0,0-5.49,2.19-10.97,4.94l-10.97,5.49-10.97,5.49s-5.49,2.74-10.97,6.03c0,0-5.49,3.02-10.97,6.86,0,0-5.49,3.57-10.42,7.68,0,0-5.21,4.11-9.6,8.78,0,0-4.66,4.39-8.78,9.05,0,0-4.11,4.66-8.23,9.6,0,0-4.11,4.94-8.23,10.15,0,0-4.11,4.94-8.23,10.42l-8.23,10.97s-4.11,5.49-9.6,12.34l-5.49,6.86" vector-effect="non-scaling-stroke"/>
  <path class="st2" d="M1003.89,489.1c-2.19,2.74-4.11,5.49-6.03,8.23,0,0-2.19,2.74-5.76,7.68,0,0-3.84,5.21-6.86,9.33,0,0-3.29,4.11-6.03,7.13,0,0-2.74,3.29-4.94,6.03,0,0-2.47,2.74-4.11,4.94,0,0-1.92,2.47-3.29,4.66,0,0-1.37,2.19-3.29,4.11,0,0-1.65,1.92-3.57,3.29,0,0-1.92,1.37-4.11,2.19,0,0-2.19.82-4.11,1.92,0,0-1.92.82-4.66,1.65,0,0-2.74,1.1-5.49,1.92,0,0-2.74.82-6.86,1.37,0,0-4.11.55-8.23,1.37,0,0-4.11.82-9.6,1.37,0,0-5.49.55-11.25,1.37,0,0-6.03.82-12.34,1.37,0,0-6.58.55-12.34.82,0,0-6.03.55-10.97,1.1,0,0-5.21.27-9.6.82,0,0-4.66.55-8.78.82l-8.23,1.1s-4.11.27-7.68.82c0,0-3.84.55-6.86.55,0,0-3.29,0-6.03-1.1,0,0-2.74-.82-5.49-2.74,0,0-2.74-1.65-4.94-4.11,0,0-2.47-2.19-4.11-4.94,0,0-1.92-2.74-3.29-5.49,0,0-1.37-2.74-2.19-6.03,0,0-1.1-3.02-2.74-11.25,0,0-1.92-8.23-3.84-17.83,0,0-1.65-9.6-4.11-19.75,0,0-2.19-10.15-3.57-17.01l-2.74-13.71s-1.37-6.86-3.29-13.99c0,0-1.65-7.41-3.57-14.26,0,0-1.92-6.86-3.57-14.26,0,0-1.92-7.13-3.84-15.09,0,0-1.65-7.68-3.57-15.91,0,0-1.92-8.23-4.11-16.46,0,0-2.19-8.23-4.11-15.91,0,0-1.92-7.95-3.57-14.81,0,0-1.92-6.86-2.74-12.34,0,0-1.1-5.49-1.37-9.87,0,0-.55-4.66-1.1-8.23,0,0-.27-3.84-.82-7.41,0,0-.55-3.57-.82-7.41,0,0-.55-3.57-.55-7.13,0,0,0-3.84.55-7.95,0,0,.27-4.11,1.37-8.23,0,0,.82-4.11,2.19-9.05,0,0,1.37-4.94,3.29-9.6,0,0,1.65-4.66,3.57-8.78,0,0,1.92-4.11,3.57-7.13,0,0,1.92-3.29,3.29-6.58,0,0,1.37-3.02,2.74-5.76l2.74-5.49s1.37-2.74,2.19-5.21c0,0,1.1-2.19,1.92-4.94,0,0,.82-2.74,1.92-5.49l1.65-5.49s1.1-2.74,1.92-4.94c0,0,.82-2.47.82-4.66v-4.11s0-1.92-.82-4.11c0,0-.82-2.19-1.92-4.11,0,0-.82-1.92-2.74-3.57,0,0-1.65-1.92-3.57-3.29,0,0-1.92-1.37-4.11-2.19,0,0-2.19-1.1-4.94-1.37,0,0-2.74-.55-6.03,0,0,0-3.29.27-6.03,1.65,0,0-2.74,1.37-4.39,4.11,0,0-1.92,2.74-3.29,6.03,0,0-1.37,3.29-3.29,6.86,0,0-1.65,3.57-4.11,7.41,0,0-2.19,3.57-4.94,8.23,0,0-2.74,4.39-6.03,9.6,0,0-3.02,4.94-6.86,10.97,0,0-3.57,5.76-7.13,12.34,0,0-3.84,6.31-7.41,13.17,0,0-3.57,6.86-7.68,13.71,0,0-4.11,6.86-8.78,13.17,0,0-4.66,6.58-9.6,12.89,0,0-4.94,6.31-10.15,11.79,0,0-4.94,5.49-10.42,10.97,0,0-5.49,5.49-11.52,10.15,0,0-5.76,4.66-11.79,9.05,0,0-6.03,4.66-12.89,8.23,0,0-6.86,3.84-13.71,6.58,0,0-6.86,2.74-14.54,4.39,0,0-7.68,1.92-15.63,2.74,0,0-7.68,1.1-15.36,1.37,0,0-7.95.55-15.63.55h-15.63s-7.68,0-15.91-.55c0,0-8.23-.27-17.01-1.37,0,0-8.5-.82-17.28-2.19,0,0-8.78-1.37-17.28-3.29,0,0-8.78-1.65-17.01-4.11,0,0-8.23-2.19-16.46-4.94,0,0-8.23-2.74-16.46-6.03,0,0-8.23-3.02-16.46-6.86,0,0-8.23-3.57-16.46-7.68,0,0-8.23-4.11-16.46-8.78,0,0-8.23-4.39-15.91-9.6,0,0-7.95-4.94-15.09-10.97,0,0-7.41-5.76-13.71-12.34,0,0-6.58-6.31-12.34-13.17,0,0-6.03-6.86-10.97-14.26,0,0-5.21-7.13-10.15-15.09,0,0-4.94-7.68-9.6-15.91,0,0-4.66-8.23-8.78-16.46,0,0-4.11-8.23-7.68-16.46,0,0-3.57-8.23-6.86-15.91,0,0-3.29-7.95-6.31-15.09,0,0-3.29-7.41-6.03-13.44,0,0-2.74-5.76-5.49-11.25,0,0-2.74-5.49-4.94-10.15,0,0-2.47-4.66-4.66-9.05,0,0-2.19-4.66-4.66-8.23,0,0-2.19-3.84-5.49-7.41,0,0-3.02-3.57-6.31-6.31,0,0-3.29-2.74-6.86-5.21,0,0-3.57-2.19-7.41-3.57,0,0-3.57-1.37-7.68-2.74,0,0-4.11-1.37-8.78-2.19,0,0-4.39-1.1-9.05-1.37,0,0-4.66-.55-9.6-.55,0,0-4.94,0-10.15.55,0,0-4.94.27-10.42,1.37,0,0-5.49.82-10.42,2.19,0,0-5.21,1.37-10.15,2.74,0,0-4.94,1.37-9.6,3.29,0,0-4.66,1.65-9.05,4.11,0,0-4.66,2.19-8.78,4.94,0,0-4.11,2.74-7.41,6.03,0,0-3.02,3.02-5.76,6.86,0,0-2.74,3.57-4.66,8.23,0,0-1.92,4.39-3.29,9.6,0,0-1.37,4.94-1.37,10.42,0,0,0,5.49,1.1,10.97,0,0,.82,5.49,2.74,10.42,0,0,1.65,5.21,4.11,10.15,0,0,2.19,4.94,5.76,10.15,0,0,3.84,4.94,7.95,9.87,0,0,4.11,5.21,9.05,9.6,0,0,4.94,4.66,10.15,9.33,0,0,4.94,4.39,10.42,8.5,0,0,5.49,4.11,11.52,8.78,0,0,5.76,4.66,12.34,8.78,0,0,6.31,4.11,13.17,8.5l13.71,9.33s6.86,4.39,13.71,9.05c0,0,6.86,4.66,14.26,9.6,0,0,7.13,4.94,15.36,10.15,0,0,8.23,4.94,17.55,10.42,0,0,9.05,5.49,19.2,10.97,0,0,9.87,5.49,20.57,10.97,0,0,10.42,5.49,21.94,10.97,0,0,11.25,5.49,23.31,10.97,0,0,11.79,5.49,24.69,10.97,0,0,12.62,5.49,26.06,10.42,0,0,13.17,5.21,27.43,9.6,0,0,13.99,4.66,28.25,9.33,0,0,14.26,4.39,28.8,9.05,0,0,14.54,4.66,28.8,9.05,0,0,14.26,4.66,28.25,9.33,0,0,14.26,4.39,28.8,9.05,0,0,14.81,4.66,29.35,9.05,0,0,14.54,4.66,40.32,12.89l25.51,8.23" vector-effect="non-scaling-stroke"/>
  <path class="st3" d="M633.6,434.24c7.68,2.19,15.09,4.11,22.49,6.03,0,0,7.68,2.19,22.77,6.86,0,0,15.09,4.39,30.17,9.05,0,0,15.09,4.66,29.35,9.05,0,0,13.99,4.66,26.33,8.78,0,0,12.34,4.11,22.49,7.41,0,0,10.15,3.02,17.83,5.49,0,0,7.68,2.19,13.71,3.02,0,0,6.03,1.1,10.42,1.37,0,0,4.66.55,9.33.55,0,0,4.39,0,9.05-.55,0,0,4.66-.27,9.6-1.65,0,0,4.94-1.37,9.6-3.29,0,0,4.66-1.92,9.6-3.57,0,0,4.94-1.92,9.6-3.84,0,0,4.66-1.65,9.6-4.11,0,0,4.94-2.19,9.6-4.94,0,0,4.66-2.74,9.6-5.49,0,0,4.94-2.74,10.15-5.49,0,0,4.94-2.74,10.42-6.03,0,0,5.49-3.02,10.97-6.86,0,0,5.49-3.57,10.97-7.68,0,0,5.49-4.11,10.42-8.23,0,0,5.21-4.11,10.15-8.78,0,0,4.94-4.39,10.15-9.05,0,0,4.94-4.66,9.87-9.6,0,0,5.21-4.94,10.15-9.6,0,0,4.94-4.66,9.6-9.6,0,0,4.66-4.94,9.6-9.05,0,0,4.94-4.11,9.05-8.23,0,0,4.11-4.11,8.23-7.95,0,0,4.11-3.57,7.95-7.68,0,0,3.57-4.11,7.68-7.68,0,0,4.11-3.84,8.23-7.41,0,0,4.11-3.57,7.68-6.86,0,0,3.84-3.29,6.86-6.31,0,0,3.29-3.29,6.03-6.03,0,0,2.74-2.74,5.49-4.94,0,0,2.74-2.47,5.49-4.66,0,0,2.74-2.19,5.49-4.11,0,0,2.74-1.92,4.94-3.57,0,0,2.47-1.92,4.11-3.29,0,0,1.92-1.37,3.29-2.74,0,0,1.37-1.37,3.29-2.74,0,0,1.65-1.37,3.02-2.74,0,0,1.37-1.37,3.29-2.19,0,0,1.92-1.1,3.29-1.37,0,0,1.37-.55,3.02-.55h3.29s1.37,0,2.74.55c0,0,1.37.27,3.29,1.37,0,0,1.65.82,3.57,2.19,0,0,1.92,1.37,3.57,2.74,0,0,1.92,1.37,3.84,3.29,0,0,1.65,1.65,4.11,3.57,0,0,2.19,1.92,4.94,3.57,0,0,2.74,1.92,5.49,2.74,0,0,2.74,1.1,5.49,1.37,0,0,2.74.55,5.49,0,0,0,2.74-.27,5.49-1.65,0,0,2.74-1.37,6.03-3.84,0,0,3.02-2.19,6.86-4.94,0,0,3.57-2.74,7.68-6.03,0,0,4.11-3.02,8.23-6.31,0,0,4.11-3.29,8.78-6.31,0,0,4.39-3.29,9.87-5.49,0,0,5.49-2.47,11.52-4.66,0,0,6.03-2.19,12.34-3.57,0,0,6.31-1.37,12.89-2.47,0,0,6.31-.82,13.17-.27,0,0,6.86.27,13.71,1.37,0,0,6.86.82,13.71,2.74,0,0,6.86,1.65,13.71,4.39,0,0,6.86,2.74,13.71,6.58,0,0,6.86,3.57,14.26,7.68,0,0,7.13,4.11,14.54,8.78,0,0,7.41,4.39,14.54,9.6,0,0,7.41,4.94,14.26,10.97,0,0,6.86,5.76,13.71,12.34,0,0,6.86,6.31,21.94,21.39l15.09,15.09" vector-effect="non-scaling-stroke"/>
  <g id="moving-circle-group">
    <circle cx="1445.49" cy="360.18" r="54.86" vector-effect="non-scaling-stroke"/>
    <circle class="st4" cx="1445.49" cy="360.18" r="19.2" vector-effect="non-scaling-stroke"/>
  </g>
</svg>