<?xml version="1.0" encoding="UTF-8"?>
<svg id="minimap-svg" xmlns="http://www.w3.org/2000/svg" version="1.1" viewBox="0 0 645.47 1080">
  <!-- Generator: Adobe Illustrator 30.0.0, SVG Export Plug-In . SVG Version: 2.1.1 Build 123)  -->
  <defs>
    <style>
      .st0 {
        stroke: #ef4444;
      }

      .st0, .st1, .st2, .st3 {
        fill: none;
        stroke-miterlimit: 6.17;
      }

      .st0, .st2, .st3 {
        stroke-width: 3.09px;
      }

      .st1 {
        stroke: #000;
        stroke-width: 12.34px;
      }

      .st2 {
        stroke: #3b82f6;
      }

      .st3 {
        stroke: #fbbf24;
      }

      .st4 {
        fill: #fff;
      }
    </style>
  </defs>
  <g>
    <path class="st1" d="M514.05,999.77c1.85-1.85,3.86-3.86,5.86-6.02,0,0,1.85-2.16,6.02-6.79,0,0,4.01-4.63,8.49-9.87,0,0,4.32-5.09,9.26-10.49,0,0,4.78-5.4,10.03-11.11,0,0,5.09-5.55,10.49-11.57,0,0,5.4-5.86,10.34-11.57,0,0,4.78-5.55,9.26-10.49,0,0,4.32-4.94,7.71-8.49,0,0,3.24-3.55,6.17-6.63,0,0,2.78-3.09,4.78-5.4,0,0,2.16-2.31,3.86-4.47,0,0,1.85-2.01,3.09-3.55,0,0,1.39-1.54,2.31-3.09,0,0,1.08-1.54,1.54-3.39,0,0,.62-1.7.77-3.55,0,0,.31-1.85,0-3.86,0,0-.15-2.01-.77-4.17,0,0-.46-2.01-1.54-4.32,0,0-.93-2.31-2.47-4.32,0,0-1.54-2.16-3.86-3.86,0,0-2.31-1.85-4.94-3.09,0,0-2.62-1.39-5.4-2.16,0,0-2.78-.77-5.71-.93,0,0-2.78-.31-5.86,0,0,0-3.09.15-6.17.77,0,0-3.09.46-6.17,1.54,0,0-3.09.93-6.17,2.31,0,0-3.09,1.23-6.17,3.09,0,0-3.09,1.7-6.17,3.86,0,0-3.09,2.01-6.17,4.63,0,0-3.09,2.47-5.86,5.09,0,0-2.93,2.62-5.4,5.09l-4.94,4.94s-2.31,2.31-4.63,4.32c0,0-2.31,2.16-4.63,3.7,0,0-2.31,1.54-4.94,2.31,0,0-2.47.77-5.09.93,0,0-2.62.31-5.4.31,0,0-2.78,0-5.71-.31,0,0-2.78-.15-5.86-.77,0,0-3.09-.46-6.17-1.54,0,0-3.09-.93-6.48-2.47,0,0-3.24-1.54-6.33-3.7,0,0-3.09-2.01-6.17-4.32,0,0-3.09-2.31-5.71-5.09,0,0-2.62-2.93-4.94-6.17,0,0-2.31-3.39-4.01-7.25,0,0-1.85-3.86-3.09-7.71,0,0-1.39-3.86-2.16-8.02,0,0-.77-4.01-1.23-8.49,0,0-.46-4.32-.77-9.26,0,0-.31-4.78-.46-10.18,0,0-.31-5.4-.31-11.57v-12.96s0-6.63.31-13.58c0,0,.15-6.94.15-14.19v-14.81s0-7.71-.46-16.05c0,0-.46-8.18-.77-16.97,0,0-.31-8.64-.77-17.43,0,0-.46-8.79-.77-17.74,0,0-.31-8.95-.77-18.05,0,0-.46-8.95-.77-18.21,0,0-.31-9.26-.46-18.82,0,0-.31-9.41-.62-19.29,0,0-.15-9.72-.46-19.75,0,0-.31-10.03-.46-20.06,0,0-.31-10.03-.31-20.37,0,0,0-10.18-.31-20.52,0,0-.15-10.34-.46-20.37,0,0-.31-10.03-.46-18.67,0,0-.31-8.79-.31-15.74v-54.77s0-1.54.31-3.09c0,0,.15-1.54.77-2.78,0,0,.46-1.39,1.23-2.62,0,0,.77-1.23,1.85-2.31,0,0,.93-1.08,2.31-2.01,0,0,1.23-1.08,3.09-1.85,0,0,1.7-.77,3.86-1.23,0,0,2.01-.62,4.78-.77,0,0,2.93-.31,6.17-.31h40.42" vector-effect="non-scaling-stroke"/>
    <path class="st1" d="M503.25,407.31h19.59s6.63,0,13.27-.46c0,0,6.79-.62,13.11-1.85,0,0,6.48-1.23,12.34-3.39,0,0,6.02-2.01,11.57-4.78,0,0,5.71-2.93,10.8-6.17,0,0,5.25-3.39,9.87-7.71,0,0,4.63-4.47,8.49-9.26,0,0,3.86-4.94,6.94-10.34,0,0,3.09-5.4,5.4-10.49,0,0,2.31-5.25,3.86-9.57,0,0,1.54-4.32,2.47-7.71,0,0,1.08-3.39,1.54-5.86,0,0,.62-2.62.77-4.94,0,0,.31-2.31.31-4.63v-4.32s0-2.16-.31-3.86c0,0-.15-1.85-.77-3.09,0,0-.46-1.39-1.23-2.62,0,0-.77-1.23-1.54-2.31,0,0-.77-1.08-1.85-1.85,0,0-.93-.77-2.01-.93,0,0-1.08-.31-2.01-.31,0,0-1.08,0-2.16.31,0,0-.93.15-2.01.46,0,0-1.08.31-2.31.31,0,0-1.23,0-2.31-.62,0,0-1.08-.46-2.01-1.23,0,0-1.08-.77-2.16-1.85,0,0-.93-.93-2.01-2.31,0,0-1.08-1.23-1.85-3.09,0,0-.77-1.7-.93-3.86,0,0-.31-2.01-.31-4.63,0,0,0-2.47.46-5.55,0,0,.62-3.09,1.54-6.17,0,0,1.08-3.09,2.62-6.02,0,0,1.54-2.78,2.78-4.78,0,0,1.39-2.16,2.31-3.86,0,0,1.08-1.85,1.85-3.39,0,0,.77-1.54,1.54-2.78,0,0,.77-1.39,1.54-2.62,0,0,.77-1.23,1.54-2.62,0,0,.77-1.23,1.23-2.78,0,0,.62-1.54.77-2.78,0,0,.31-1.39,0-2.62,0,0-.15-1.23-.46-2.62,0,0-.31-1.23-.77-2.47,0,0-.46-1.39-1.23-2.31,0,0-.77-1.08-1.85-1.85,0,0-1.08-.77-2.31-1.54,0,0-1.23-.77-2.62-1.23,0,0-1.23-.62-2.78-.77,0,0-1.54-.31-3.39-.31h-4.01s-2.31,0-5.4-.31c0,0-3.09-.15-6.94-.46,0,0-3.86-.31-8.49-.46,0,0-4.63-.31-9.87-.31h-35.49s-6.63,0-13.89-.31c0,0-7.1-.15-14.66-.46,0,0-7.41-.31-14.81-.46,0,0-7.56-.31-14.66-.31,0,0-7.25,0-13.89-.31,0,0-6.79-.15-12.65-.77,0,0-5.86-.46-11.11-1.23,0,0-5.09-.77-9.41-1.54,0,0-4.47-.77-8.49-1.85,0,0-4.17-.93-8.02-2.01,0,0-3.86-1.08-7.71-2.31,0,0-3.86-1.23-7.71-2.78,0,0-3.86-1.54-8.02-3.7,0,0-4.01-2.01-7.87-4.32,0,0-3.86-2.31-7.71-5.09,0,0-3.86-2.93-7.25-6.17,0,0-3.39-3.39-6.63-7.25,0,0-3.39-3.86-6.48-8.02,0,0-3.09-4.01-5.86-8.49,0,0-2.93-4.32-5.25-8.95,0,0-2.31-4.63-4.32-9.57,0,0-2.01-4.78-3.86-10.03,0,0-1.85-5.09-3.86-10.49,0,0-2.01-5.4-4.17-10.8,0,0-2.01-5.4-4.63-10.8,0,0-2.47-5.4-5.4-10.49,0,0-2.78-5.25-6.33-9.87,0,0-3.7-4.63-7.71-8.64,0,0-4.17-4.17-8.79-8.02,0,0-4.63-3.86-9.26-7.41,0,0-4.63-3.7-9.57-6.79,0,0-4.78-3.09-10.03-5.09,0,0-5.09-2.01-10.18-3.39,0,0-5.25-1.23-9.57-2.01,0,0-4.32-.77-8.02-1.54,0,0-3.55-.77-6.33-1.23,0,0-2.93-.62-5.71-1.08,0,0-2.78-.46-5.09-.77,0,0-2.31-.31-4.47-.46,0,0-2.01-.31-3.55-.31,0,0-1.54,0-3.09-.31,0,0-1.54-.15-3.09-.46,0,0-1.54-.31-3.09-.46,0,0-1.54-.31-3.09,0,0,0-1.54.15-2.78.77,0,0-1.39.46-2.31,1.54,0,0-1.08.93-1.54,2.31,0,0-.62,1.23-1.08,2.78,0,0-.46,1.54-1.08,3.55,0,0-.46,2.16-1.54,4.63,0,0-.93,2.62-2.31,6.02,0,0-1.23,3.24-3.09,6.94,0,0-1.7,3.55-3.86,7.87,0,0-2.01,4.47-4.63,9.1,0,0-2.47,4.63-6.17,10.95l-3.55,6.48" vector-effect="non-scaling-stroke"/>
    <path class="st1" d="M159.19,100.29c-1.54,2.78-3.09,5.4-4.63,8.64,0,0-1.54,3.24-4.63,9.41,0,0-3.09,6.17-6.48,12.81,0,0-3.24,6.63-6.94,13.42,0,0-3.55,6.63-7.41,13.89,0,0-3.86,7.1-8.02,14.35,0,0-4.01,7.25-8.49,14.66,0,0-4.32,7.41-8.64,15.12,0,0-4.47,7.71-8.49,15.74,0,0-4.17,8.02-8.02,16.51,0,0-3.86,8.49-7.41,16.97,0,0-3.7,8.49-6.94,17.13,0,0-3.39,8.79-6.17,17.74,0,0-2.93,9.1-5.71,18.36,0,0-2.78,9.26-5.4,18.67,0,0-2.62,9.57-5.09,19.13,0,0-2.62,9.41-4.63,19.29,0,0-2.16,9.72-3.86,19.75,0,0-1.85,10.03-3.39,20.06l-3.09,20.06s-1.54,10.03-2.78,20.06c0,0-1.39,10.03-2.31,20.52,0,0-1.08,10.65-1.54,21.14,0,0-.62,10.49-.77,21.29,0,0-.31,10.8-.31,21.45v42.12s0,10.49.31,20.83c0,0,.15,10.34.46,20.83,0,0,.31,10.49.46,21.14,0,0,.31,10.49,0,21.29,0,0-.15,10.8-.77,21.6l-.93,21.6s-.62,10.8-1.08,21.6c0,0-.46,10.8-.77,21.6,0,0-.31,10.8-.77,21.6,0,0-.46,10.8-.77,21.6,0,0-.31,10.8-.46,21.6,0,0-.31,10.8-.62,21.91,0,0-.15,10.95-.46,22.06,0,0-.31,11.11-.46,22.37,0,0-.31,11.26-.31,22.37v105.22s0,1.54.31,2.78c0,0,.15,1.23.46,2.62,0,0,.31,1.23.77,2.47,0,0,.46,1.39.77,2.31,0,0,.31,1.08,1.08,1.85l1.54,1.54s.77.77,2.01,1.23c0,0,1.23.62,2.62.77,0,0,1.23.31,3.09.31,0,0,1.7,0,3.86.31,0,0,2.01.15,4.32.77,0,0,2.31.46,4.63,1.7,0,0,2.31,1.39,4.63,3.09,0,0,2.31,1.85,4.63,4.47,0,0,2.31,2.47,4.94,4.78,0,0,2.47,2.31,5.09,4.47,0,0,2.62,2.01,5.4,3.55,0,0,2.78,1.54,5.86,2.78,0,0,3.09,1.39,6.79,2.16,0,0,3.55.77,7.71.93,0,0,4.01.31,8.49,0,0,0,4.32-.15,9.41-.46,0,0,5.25-.31,10.8-.46,0,0,5.71-.31,12.19-.31h89.95s8.49,0,17.28-.31c0,0,8.64-.15,17.74-.46,0,0,8.95-.31,18.21-.46,0,0,9.26-.31,18.51-.31h18.51s9.26,0,18.51.31c0,0,9.26.15,18.82.46,0,0,9.41.31,19.29.46,0,0,9.72.31,19.29,0,0,0,9.41-.15,17.9-.46,0,0,8.49-.31,15.43-.46,0,0,6.94-.31,12.34-.31,0,0,5.4,0,9.57-.31,0,0,4.17-.15,7.71-.77,0,0,3.55-.46,7.25-1.54,0,0,3.55-.93,7.1-2.31,0,0,3.7-1.23,7.25-2.78,0,0,3.55-1.54,7.25-3.39,0,0,3.55-1.7,7.1-4.01,0,0,3.7-2.31,7.25-5.25,0,0,3.55-2.78,6.94-6.33,0,0,3.39-3.7,7.41-8.49l4.17-4.94" vector-effect="non-scaling-stroke"/>
  </g>
  <g>
    <path class="st0" d="M514.05,999.77c1.85-1.85,3.86-3.86,5.86-6.02,0,0,1.85-2.16,6.02-6.79,0,0,4.01-4.63,8.49-9.87,0,0,4.32-5.09,9.26-10.49,0,0,4.78-5.4,10.03-11.11,0,0,5.09-5.55,10.49-11.57,0,0,5.4-5.86,10.34-11.57,0,0,4.78-5.55,9.26-10.49,0,0,4.32-4.94,7.71-8.49,0,0,3.24-3.55,6.17-6.63,0,0,2.78-3.09,4.78-5.4,0,0,2.16-2.31,3.86-4.47,0,0,1.85-2.01,3.09-3.55,0,0,1.39-1.54,2.31-3.09,0,0,1.08-1.54,1.54-3.39,0,0,.62-1.7.77-3.55,0,0,.31-1.85,0-3.86,0,0-.15-2.01-.77-4.17,0,0-.46-2.01-1.54-4.32,0,0-.93-2.31-2.47-4.32,0,0-1.54-2.16-3.86-3.86,0,0-2.31-1.85-4.94-3.09,0,0-2.62-1.39-5.4-2.16,0,0-2.78-.77-5.71-.93,0,0-2.78-.31-5.86,0,0,0-3.09.15-6.17.77,0,0-3.09.46-6.17,1.54,0,0-3.09.93-6.17,2.31,0,0-3.09,1.23-6.17,3.09,0,0-3.09,1.7-6.17,3.86,0,0-3.09,2.01-6.17,4.63,0,0-3.09,2.47-5.86,5.09,0,0-2.93,2.62-5.4,5.09l-4.94,4.94s-2.31,2.31-4.63,4.32c0,0-2.31,2.16-4.63,3.7,0,0-2.31,1.54-4.94,2.31,0,0-2.47.77-5.09.93,0,0-2.62.31-5.4.31,0,0-2.78,0-5.71-.31,0,0-2.78-.15-5.86-.77,0,0-3.09-.46-6.17-1.54,0,0-3.09-.93-6.48-2.47,0,0-3.24-1.54-6.33-3.7,0,0-3.09-2.01-6.17-4.32,0,0-3.09-2.31-5.71-5.09,0,0-2.62-2.93-4.94-6.17,0,0-2.31-3.39-4.01-7.25,0,0-1.85-3.86-3.09-7.71,0,0-1.39-3.86-2.16-8.02,0,0-.77-4.01-1.23-8.49,0,0-.46-4.32-.77-9.26,0,0-.31-4.78-.46-10.18,0,0-.31-5.4-.31-11.57v-12.96s0-6.63.31-13.58c0,0,.15-6.94.15-14.19v-14.81s0-7.71-.46-16.05c0,0-.46-8.18-.77-16.97,0,0-.31-8.64-.77-17.43,0,0-.46-8.79-.77-17.74,0,0-.31-8.95-.77-18.05,0,0-.46-8.95-.77-18.21,0,0-.31-9.26-.46-18.82,0,0-.31-9.41-.62-19.29,0,0-.15-9.72-.46-19.75,0,0-.31-10.03-.46-20.06,0,0-.31-10.03-.31-20.37,0,0,0-10.18-.31-20.52,0,0-.15-10.34-.46-20.37,0,0-.31-10.03-.46-18.67,0,0-.31-8.79-.31-15.74v-54.77s0-1.54.31-3.09c0,0,.15-1.54.77-2.78,0,0,.46-1.39,1.23-2.62,0,0,.77-1.23,1.85-2.31,0,0,.93-1.08,2.31-2.01,0,0,1.23-1.08,3.09-1.85,0,0,1.7-.77,3.86-1.23,0,0,2.01-.62,4.78-.77,0,0,2.93-.31,6.17-.31h40.42" vector-effect="non-scaling-stroke"/>
    <path class="st2" d="M503.25,407.31h19.59s6.63,0,13.27-.46c0,0,6.79-.62,13.11-1.85,0,0,6.48-1.23,12.34-3.39,0,0,6.02-2.01,11.57-4.78,0,0,5.71-2.93,10.8-6.17,0,0,5.25-3.39,9.87-7.71,0,0,4.63-4.47,8.49-9.26,0,0,3.86-4.94,6.94-10.34,0,0,3.09-5.4,5.4-10.49,0,0,2.31-5.25,3.86-9.57,0,0,1.54-4.32,2.47-7.71,0,0,1.08-3.39,1.54-5.86,0,0,.62-2.62.77-4.94,0,0,.31-2.31.31-4.63v-4.32s0-2.16-.31-3.86c0,0-.15-1.85-.77-3.09,0,0-.46-1.39-1.23-2.62,0,0-.77-1.23-1.54-2.31,0,0-.77-1.08-1.85-1.85,0,0-.93-.77-2.01-.93,0,0-1.08-.31-2.01-.31,0,0-1.08,0-2.16.31,0,0-.93.15-2.01.46,0,0-1.08.31-2.31.31,0,0-1.23,0-2.31-.62,0,0-1.08-.46-2.01-1.23,0,0-1.08-.77-2.16-1.85,0,0-.93-.93-2.01-2.31,0,0-1.08-1.23-1.85-3.09,0,0-.77-1.7-.93-3.86,0,0-.31-2.01-.31-4.63,0,0,0-2.47.46-5.55,0,0,.62-3.09,1.54-6.17,0,0,1.08-3.09,2.62-6.02,0,0,1.54-2.78,2.78-4.78,0,0,1.39-2.16,2.31-3.86,0,0,1.08-1.85,1.85-3.39,0,0,.77-1.54,1.54-2.78,0,0,.77-1.39,1.54-2.62,0,0,.77-1.23,1.54-2.62,0,0,.77-1.23,1.23-2.78,0,0,.62-1.54.77-2.78,0,0,.31-1.39,0-2.62,0,0-.15-1.23-.46-2.62,0,0-.31-1.23-.77-2.47,0,0-.46-1.39-1.23-2.31,0,0-.77-1.08-1.85-1.85,0,0-1.08-.77-2.31-1.54,0,0-1.23-.77-2.62-1.23,0,0-1.23-.62-2.78-.77,0,0-1.54-.31-3.39-.31h-4.01s-2.31,0-5.4-.31c0,0-3.09-.15-6.94-.46,0,0-3.86-.31-8.49-.46,0,0-4.63-.31-9.87-.31h-35.49s-6.63,0-13.89-.31c0,0-7.1-.15-14.66-.46,0,0-7.41-.31-14.81-.46,0,0-7.56-.31-14.66-.31,0,0-7.25,0-13.89-.31,0,0-6.79-.15-12.65-.77,0,0-5.86-.46-11.11-1.23,0,0-5.09-.77-9.41-1.54,0,0-4.47-.77-8.49-1.85,0,0-4.17-.93-8.02-2.01,0,0-3.86-1.08-7.71-2.31,0,0-3.86-1.23-7.71-2.78,0,0-3.86-1.54-8.02-3.7,0,0-4.01-2.01-7.87-4.32,0,0-3.86-2.31-7.71-5.09,0,0-3.86-2.93-7.25-6.17,0,0-3.39-3.39-6.63-7.25,0,0-3.39-3.86-6.48-8.02,0,0-3.09-4.01-5.86-8.49,0,0-2.93-4.32-5.25-8.95,0,0-2.31-4.63-4.32-9.57,0,0-2.01-4.78-3.86-10.03,0,0-1.85-5.09-3.86-10.49,0,0-2.01-5.4-4.17-10.8,0,0-2.01-5.4-4.63-10.8,0,0-2.47-5.4-5.4-10.49,0,0-2.78-5.25-6.33-9.87,0,0-3.7-4.63-7.71-8.64,0,0-4.17-4.17-8.79-8.02,0,0-4.63-3.86-9.26-7.41,0,0-4.63-3.7-9.57-6.79,0,0-4.78-3.09-10.03-5.09,0,0-5.09-2.01-10.18-3.39,0,0-5.25-1.23-9.57-2.01,0,0-4.32-.77-8.02-1.54,0,0-3.55-.77-6.33-1.23,0,0-2.93-.62-5.71-1.08,0,0-2.78-.46-5.09-.77,0,0-2.31-.31-4.47-.46,0,0-2.01-.31-3.55-.31,0,0-1.54,0-3.09-.31,0,0-1.54-.15-3.09-.46,0,0-1.54-.31-3.09-.46,0,0-1.54-.31-3.09,0,0,0-1.54.15-2.78.77,0,0-1.39.46-2.31,1.54,0,0-1.08.93-1.54,2.31,0,0-.62,1.23-1.08,2.78,0,0-.46,1.54-1.08,3.55,0,0-.46,2.16-1.54,4.63,0,0-.93,2.62-2.31,6.02,0,0-1.23,3.24-3.09,6.94,0,0-1.7,3.55-3.86,7.87,0,0-2.01,4.47-4.63,9.1,0,0-2.47,4.63-6.17,10.95l-3.55,6.48" vector-effect="non-scaling-stroke"/>
    <path class="st3" d="M159.19,100.29c-1.54,2.78-3.09,5.4-4.63,8.64,0,0-1.54,3.24-4.63,9.41,0,0-3.09,6.17-6.48,12.81,0,0-3.24,6.63-6.94,13.42,0,0-3.55,6.63-7.41,13.89,0,0-3.86,7.1-8.02,14.35,0,0-4.01,7.25-8.49,14.66,0,0-4.32,7.41-8.64,15.12,0,0-4.47,7.71-8.49,15.74,0,0-4.17,8.02-8.02,16.51,0,0-3.86,8.49-7.41,16.97,0,0-3.7,8.49-6.94,17.13,0,0-3.39,8.79-6.17,17.74,0,0-2.93,9.1-5.71,18.36,0,0-2.78,9.26-5.4,18.67,0,0-2.62,9.57-5.09,19.13,0,0-2.62,9.41-4.63,19.29,0,0-2.16,9.72-3.86,19.75,0,0-1.85,10.03-3.39,20.06l-3.09,20.06s-1.54,10.03-2.78,20.06c0,0-1.39,10.03-2.31,20.52,0,0-1.08,10.65-1.54,21.14,0,0-.62,10.49-.77,21.29,0,0-.31,10.8-.31,21.45v42.12s0,10.49.31,20.83c0,0,.15,10.34.46,20.83,0,0,.31,10.49.46,21.14,0,0,.31,10.49,0,21.29,0,0-.15,10.8-.77,21.6l-.93,21.6s-.62,10.8-1.08,21.6c0,0-.46,10.8-.77,21.6,0,0-.31,10.8-.77,21.6,0,0-.46,10.8-.77,21.6,0,0-.31,10.8-.46,21.6,0,0-.31,10.8-.62,21.91,0,0-.15,10.95-.46,22.06,0,0-.31,11.11-.46,22.37,0,0-.31,11.26-.31,22.37v105.22s0,1.54.31,2.78c0,0,.15,1.23.46,2.62,0,0,.31,1.23.77,2.47,0,0,.46,1.39.77,2.31,0,0,.31,1.08,1.08,1.85l1.54,1.54s.77.77,2.01,1.23c0,0,1.23.62,2.62.77,0,0,1.23.31,3.09.31,0,0,1.7,0,3.86.31,0,0,2.01.15,4.32.77,0,0,2.31.46,4.63,1.7,0,0,2.31,1.39,4.63,3.09,0,0,2.31,1.85,4.63,4.47,0,0,2.31,2.47,4.94,4.78,0,0,2.47,2.31,5.09,4.47,0,0,2.62,2.01,5.4,3.55,0,0,2.78,1.54,5.86,2.78,0,0,3.09,1.39,6.79,2.16,0,0,3.55.77,7.71.93,0,0,4.01.31,8.49,0,0,0,4.32-.15,9.41-.46,0,0,5.25-.31,10.8-.46,0,0,5.71-.31,12.19-.31h89.95s8.49,0,17.28-.31c0,0,8.64-.15,17.74-.46,0,0,8.95-.31,18.21-.46,0,0,9.26-.31,18.51-.31h18.51s9.26,0,18.51.31c0,0,9.26.15,18.82.46,0,0,9.41.31,19.29.46,0,0,9.72.31,19.29,0,0,0,9.41-.15,17.9-.46,0,0,8.49-.31,15.43-.46,0,0,6.94-.31,12.34-.31,0,0,5.4,0,9.57-.31,0,0,4.17-.15,7.71-.77,0,0,3.55-.46,7.25-1.54,0,0,3.55-.93,7.1-2.31,0,0,3.7-1.23,7.25-2.78,0,0,3.55-1.54,7.25-3.39,0,0,3.55-1.7,7.1-4.01,0,0,3.7-2.31,7.25-5.25,0,0,3.55-2.78,6.94-6.33,0,0,3.39-3.7,7.41-8.49l4.17-4.94" vector-effect="non-scaling-stroke"/>
  </g>
  <g id="moving-circle-group">
    <circle cx="514.05" cy="999.77" r="30.86" vector-effect="non-scaling-stroke"/>
    <circle class="st4" cx="514.05" cy="999.77" r="10.8" vector-effect="non-scaling-stroke"/>
  </g>
</svg>