<?xml version="1.0" encoding="UTF-8"?>
<svg id="minimap-svg" xmlns="http://www.w3.org/2000/svg" version="1.1" viewBox="0 0 1520.83 1080">
  <!-- Generator: Adobe Illustrator 30.0.0, SVG Export Plug-In . SVG Version: 2.1.1 Build 123)  -->
  <defs>
    <style>
      .st0 {
        stroke: #ef4444;
      }

      .st0, .st1, .st2, .st3 {
        fill: none;
        stroke-miterlimit: 8.64;
      }

      .st0, .st2, .st3 {
        stroke-width: 4.32px;
      }

      .st4 {
        fill: #fff;
      }

      .st1 {
        stroke: #000;
        stroke-width: 17.28px;
      }

      .st2 {
        stroke: #3b82f6;
      }

      .st3 {
        stroke: #fbbf24;
      }
    </style>
  </defs>
  <g>
    <path class="st1" d="M250.65,43.2c6.48,1.08,12.96,2.16,19.87,3.24,0,0,6.7,1.08,20.52,3.24,0,0,13.61,2.16,27.65,4.32,0,0,14.04,2.16,28.73,4.32,0,0,14.9,2.16,30.02,4.32,0,0,15.12,2.16,30.46,4.32,0,0,15.55,2.16,31.1,4.75,0,0,15.34,2.38,31.32,4.97,0,0,15.77,2.59,31.97,4.97,0,0,16.2,2.59,32.83,4.75,0,0,16.42,2.16,33.48,4.32,0,0,16.85,2.16,34.56,4.32,0,0,17.5,2.16,35.21,4.32,0,0,17.71,2.16,35.64,4.75,0,0,17.93,2.38,36.07,4.97,0,0,17.93,2.59,36.29,4.97,0,0,18.36,2.59,36.72,4.75,0,0,18.36,2.16,37.15,4.32,0,0,18.58,2.16,37.37,3.89,0,0,18.79,1.94,37.8,4.1,0,0,19.01,2.16,38.23,3.89,0,0,19.01,1.73,38.02,3.89,0,0,19.22,2.16,38.23,4.32,0,0,19.01,2.16,38.23,4.75,0,0,19.01,2.59,38.45,5.4,0,0,19.44,2.81,38.88,5.4,0,0,19.44,2.59,38.88,5.4,0,0,19.44,2.81,38.88,5.4,0,0,19.44,2.59,38.45,5.4,0,0,19.22,2.81,37.58,5.4,0,0,18.36,2.59,34.56,4.97,0,0,16.2,2.59,29.38,4.75,0,0,13.39,2.16,23.54,3.89,0,0,9.94,1.94,17.28,3.67,0,0,7.13,1.73,12.53,3.24,0,0,5.4,1.51,9.07,2.59,0,0,3.46,1.08,6.7,1.73,0,0,3.24.65,5.83,1.51,0,0,2.59.65,4.97,1.73,0,0,2.59,1.08,4.75,2.59,0,0,2.16,1.3,3.67,3.24,0,0,1.3,1.73,2.38,3.89,0,0,1.08,2.16,1.51,4.75,0,0,.43,2.38.43,5.62,0,0,0,3.24-.43,7.56,0,0-.43,4.32-1.08,9.5,0,0-.65,4.97-1.51,10.37,0,0-.65,5.4-1.73,10.37,0,0-1.08,5.18-1.73,9.07,0,0-.86,3.89-1.08,7.13,0,0-.43,3.24,0,5.83,0,0,.22,2.59,1.3,4.97,0,0,1.08,2.59,2.59,4.32,0,0,1.51,1.94,3.67,3.24,0,0,2.16,1.51,4.54,3.02,0,0,2.59,1.3,6.26,3.24,0,0,3.46,1.73,7.13,3.89,0,0,3.67,2.16,6.91,4.75,0,0,3.24,2.38,5.4,5.4,0,0,2.16,2.81,3.46,6.05,0,0,1.51,3.24,1.94,6.48,0,0,.22,3.24.22,6.91,0,0,0,3.46-.65,8.21,0,0-.65,4.75-1.51,10.37,0,0-.65,5.83-2.16,12.31,0,0-1.3,6.48-3.46,13.39,0,0-2.16,6.7-5.18,14.04,0,0-2.81,7.13-6.05,15.12,0,0-3.24,7.78-6.91,16.2,0,0-3.46,8.21-7.56,17.28,0,0-3.89,8.86-8.64,17.93,0,0-4.54,9.07-9.94,18.79,0,0-5.4,9.72-11.66,19.66,0,0-6.05,10.15-12.53,20.95,0,0-6.48,10.8-13.39,22.25,0,0-6.7,11.66-14.04,23.54,0,0-7.13,11.88-14.69,24.41,0,0-7.56,12.53-15.55,25.27,0,0-7.78,12.53-15.77,25.92,0,0-7.99,13.18-16.63,27,0,0-8.64,13.61-17.28,27.65,0,0-8.64,14.04-17.5,28.51,0,0-9.07,14.26-18.14,28.73,0,0-8.86,14.47-24.84,38.45l-15.77,24.19" vector-effect="non-scaling-stroke"/>
    <path class="st1" d="M1211.85,820.8c-4.75,6.48-9.72,12.96-13.39,18.36,0,0-3.89,5.4-11.02,15.55,0,0-7.34,9.94-12.31,17.5,0,0-4.97,7.56-9.07,12.96,0,0-3.89,5.4-6.48,9.07,0,0-2.38,3.67-4.54,6.05,0,0-2.16,2.59-3.24,4.75l-2.16,4.32s-1.08,2.16-1.51,4.32c0,0-.43,2.16-.65,4.32,0,0-.43,2.16,0,4.32,0,0,.22,2.16,1.08,3.89,0,0,.65,1.94,2.16,3.67,0,0,1.3,1.73,3.24,3.24,0,0,1.73,1.51,4.32,2.81,0,0,2.38,1.51,5.4,3.02,0,0,2.81,1.3,6.7,3.24,0,0,4.1,1.73,7.99,4.32,0,0,3.89,2.38,7.56,4.97,0,0,3.67,2.59,5.83,5.4,0,0,2.16,2.81,3.24,5.83,0,0,1.08,2.81,1.3,5.62,0,0,.43,3.02-.22,5.4,0,0-.86,2.59-2.59,5.18,0,0-1.73,2.38-4.97,5.4,0,0-3.24,2.81-7.34,6.05,0,0-3.89,3.24-8.64,6.91,0,0-4.54,3.46-9.94,7.78,0,0-5.4,4.32-11.23,8.64,0,0-5.83,4.32-11.23,8.42,0,0-5.4,3.89-9.72,6.7,0,0-4.32,3.02-7.56,5.4,0,0-3.24,2.59-6.05,4.32,0,0-2.81,1.94-5.83,3.24,0,0-2.81,1.51-5.62,2.16,0,0-3.02.86-5.83,1.08,0,0-2.81.43-5.4-.22,0,0-2.59-.86-5.4-1.94,0,0-2.81-1.08-5.4-2.81,0,0-2.59-1.73-4.75-3.89,0,0-2.16-2.16-3.24-4.75,0,0-1.08-2.59-1.3-5.4,0,0-.43-2.81-.43-5.83,0,0,0-2.81.43-6.7,0,0,.22-4.1,1.08-9.07,0,0,.65-4.97,1.73-11.23,0,0,1.08-6.05,2.16-13.18,0,0,1.08-7.34,2.16-15.55,0,0,1.08-8.21,2.16-17.93,0,0,1.08-9.72,2.59-20.3,0,0,1.3-10.37,2.81-21.82,0,0,1.51-11.66,3.24-23.76,0,0,1.73-12.31,3.67-25.27,0,0,1.73-12.96,3.46-25.27,0,0,1.94-12.1,3.24-22.25,0,0,1.51-10.15,2.59-17.93,0,0,1.08-7.99,2.16-14.47,0,0,1.08-6.48,1.73-12.53,0,0,.86-6.26.86-11.88,0,0,0-5.83-.86-11.23,0,0-.65-5.4-2.16-10.37,0,0-1.3-5.18-3.89-9.5,0,0-2.59-4.32-6.05-7.56,0,0-3.67-3.24-8.42-6.05,0,0-4.54-2.81-9.29-5.83,0,0-4.75-2.81-9.72-6.05,0,0-4.97-3.24-10.15-6.91,0,0-4.97-3.46-9.94-7.56,0,0-5.18-3.89-9.72-8.21,0,0-4.75-4.32-8.64-9.07,0,0-4.1-4.54-7.34-9.94,0,0-3.24-5.4-5.62-11.23,0,0-2.59-5.83-4.32-11.23,0,0-1.94-5.4-3.67-9.72,0,0-1.73-4.32-3.89-8.21,0,0-2.16-3.89-4.75-7.56,0,0-2.59-3.67-5.83-7.13,0,0-3.24-3.67-6.48-6.91,0,0-3.24-3.24-7.56-6.05,0,0-4.32-3.02-8.86-5.4,0,0-4.75-2.59-10.58-4.32,0,0-5.62-1.94-11.88-3.24,0,0-6.05-1.51-13.18-2.59,0,0-7.34-1.08-16.2-2.16,0,0-9.07-1.08-19.22-2.16,0,0-9.94-1.08-19.66-2.59,0,0-9.72-1.3-17.71-2.38,0,0-7.99-1.08-14.04-2.59,0,0-6.05-1.51-10.8-2.81,0,0-4.75-1.51-8.64-3.67,0,0-3.89-2.16-7.56-4.75,0,0-3.67-2.38-7.56-5.4,0,0-3.89-2.81-7.56-6.48,0,0-3.67-3.46-7.13-7.56,0,0-3.67-3.89-6.48-8.64,0,0-3.02-4.54-5.4-9.94,0,0-2.59-5.4-4.32-11.66,0,0-1.94-6.05-4.1-11.88,0,0-2.16-5.62-4.54-10.8,0,0-2.59-4.97-6.26-9.29,0,0-3.46-4.32-7.78-7.99,0,0-4.32-3.46-9.07-6.48,0,0-4.75-2.81-10.15-5.4,0,0-5.4-2.38-11.02-5.62,0,0-5.83-3.24-12.96-7.34,0,0-7.34-3.89-15.12-8.21,0,0-7.99-4.32-17.06-9.07,0,0-8.86-4.54-17.93-9.29,0,0-9.07-4.75-17.93-9.29,0,0-9.07-4.75-18.14-8.64,0,0-8.86-4.1-17.93-7.34,0,0-9.07-3.24-18.36-5.62,0,0-9.29-2.59-18.79-4.32,0,0-9.29-1.94-19.44-3.24,0,0-9.94-1.51-20.74-3.02,0,0-10.8-1.3-33.26-4.32l-22.25-2.81" vector-effect="non-scaling-stroke"/>
    <path class="st1" d="M481.77,356.4c-6.48-1.08-12.96-2.16-19.87-3.24,0,0-6.7-1.08-20.52-3.24,0,0-13.61-2.16-27.65-4.32,0,0-14.04-2.16-28.51-4.32,0,0-14.26-2.16-28.73-4.32,0,0-14.47-2.16-27.43-3.89,0,0-12.96-1.94-22.9-3.24,0,0-10.15-1.51-17.28-2.16,0,0-7.34-.86-12.31-1.51,0,0-4.97-.65-8.64-1.08,0,0-3.67-.43-6.05-.65l-5.18-.86s-2.38-.22-4.54-1.3c0,0-2.16-1.08-4.32-2.59,0,0-2.16-1.51-3.67-3.24,0,0-1.51-1.73-2.81-3.89,0,0-1.51-2.16-2.59-5.4,0,0-1.08-3.24-1.73-7.56,0,0-.86-4.32-1.51-9.72,0,0-.65-5.4-1.08-11.88,0,0-.43-6.48-1.08-14.04,0,0-.65-7.56-1.51-15.98l-1.3-16.42s-.86-8.42-1.51-15.12c0,0-.65-6.91-1.08-12.31,0,0-.43-5.4-1.08-10.15,0,0-.65-4.54-1.08-8.86,0,0-.43-4.32-1.08-8.64,0,0-.65-4.32-1.08-7.99,0,0-.43-3.67-1.51-6.91,0,0-1.08-3.24-2.38-5.4,0,0-1.51-2.16-4.1-3.46,0,0-2.38-1.51-5.4-2.16,0,0-2.81-.86-5.62-.86,0,0-3.02,0-5.4,1.51,0,0-2.59,1.51-4.75,3.67,0,0-2.16,2.16-4.32,4.97,0,0-2.16,2.81-4.32,5.4,0,0-2.16,2.59-4.75,4.75,0,0-2.38,2.16-5.4,3.46,0,0-2.81,1.51-5.62,2.16,0,0-3.02.86-5.83,1.08,0,0-2.81.43-5.83,0,0,0-2.81-.22-6.05-1.08,0,0-3.24-.65-6.48-1.73l-6.48-2.16s-3.24-1.08-6.91-2.16c0,0-3.46-1.08-7.13-1.73,0,0-3.67-.86-7.56-1.51,0,0-3.89-.65-8.21-1.08,0,0-4.32-.43-9.07-1.08,0,0-4.75-.65-9.07-1.08,0,0-4.32-.43-7.78-1.08,0,0-3.67-.65-6.91-1.08,0,0-3.24-.43-6.05-1.08,0,0-3.02-.65-5.83-1.51,0,0-2.81-.65-5.4-2.16,0,0-2.59-1.3-4.75-3.46,0,0-2.16-2.16-3.46-4.75,0,0-1.51-2.59-2.16-4.97,0,0-.86-2.59-.86-5.18,0,0,0-2.38.43-4.97,0,0,.43-2.59,1.08-5.83,0,0,.65-3.24,1.73-6.48,0,0,1.08-3.24,2.59-7.56,0,0,1.51-4.32,3.67-8.21,0,0,2.16-3.89,4.54-8.64,0,0,2.59-4.75,6.26-9.07,0,0,3.46-4.32,7.78-9.29,0,0,4.32-4.97,9.5-9.72,0,0,4.97-4.75,11.02-9.07,0,0,6.26-4.32,12.96-7.78,0,0,6.91-3.67,14.47-6.26,0,0,7.56-2.38,15.55-4.54,0,0,7.78-2.16,16.2-3.24,0,0,8.21-1.08,17.28-1.94,0,0,8.86-.65,18.36,0,0,0,9.29.86,19.01,1.94,0,0,9.72,1.08,24.84,3.46l15.12,2.59" vector-effect="non-scaling-stroke"/>
  </g>
  <path class="st0" d="M250.65,43.2c6.48,1.08,12.96,2.16,19.87,3.24,0,0,6.7,1.08,20.52,3.24,0,0,13.61,2.16,27.65,4.32,0,0,14.04,2.16,28.73,4.32,0,0,14.9,2.16,30.02,4.32,0,0,15.12,2.16,30.46,4.32,0,0,15.55,2.16,31.1,4.75,0,0,15.34,2.38,31.32,4.97,0,0,15.77,2.59,31.97,4.97,0,0,16.2,2.59,32.83,4.75,0,0,16.42,2.16,33.48,4.32,0,0,16.85,2.16,34.56,4.32,0,0,17.5,2.16,35.21,4.32,0,0,17.71,2.16,35.64,4.75,0,0,17.93,2.38,36.07,4.97,0,0,17.93,2.59,36.29,4.97,0,0,18.36,2.59,36.72,4.75,0,0,18.36,2.16,37.15,4.32,0,0,18.58,2.16,37.37,3.89,0,0,18.79,1.94,37.8,4.1,0,0,19.01,2.16,38.23,3.89,0,0,19.01,1.73,38.02,3.89,0,0,19.22,2.16,38.23,4.32,0,0,19.01,2.16,38.23,4.75,0,0,19.01,2.59,38.45,5.4,0,0,19.44,2.81,38.88,5.4,0,0,19.44,2.59,38.88,5.4,0,0,19.44,2.81,38.88,5.4,0,0,19.44,2.59,38.45,5.4,0,0,19.22,2.81,37.58,5.4,0,0,18.36,2.59,34.56,4.97,0,0,16.2,2.59,29.38,4.75,0,0,13.39,2.16,23.54,3.89,0,0,9.94,1.94,17.28,3.67,0,0,7.13,1.73,12.53,3.24,0,0,5.4,1.51,9.07,2.59,0,0,3.46,1.08,6.7,1.73,0,0,3.24.65,5.83,1.51,0,0,2.59.65,4.97,1.73,0,0,2.59,1.08,4.75,2.59,0,0,2.16,1.3,3.67,3.24,0,0,1.3,1.73,2.38,3.89,0,0,1.08,2.16,1.51,4.75,0,0,.43,2.38.43,5.62,0,0,0,3.24-.43,7.56,0,0-.43,4.32-1.08,9.5,0,0-.65,4.97-1.51,10.37,0,0-.65,5.4-1.73,10.37,0,0-1.08,5.18-1.73,9.07,0,0-.86,3.89-1.08,7.13,0,0-.43,3.24,0,5.83,0,0,.22,2.59,1.3,4.97,0,0,1.08,2.59,2.59,4.32,0,0,1.51,1.94,3.67,3.24,0,0,2.16,1.51,4.54,3.02,0,0,2.59,1.3,6.26,3.24,0,0,3.46,1.73,7.13,3.89,0,0,3.67,2.16,6.91,4.75,0,0,3.24,2.38,5.4,5.4,0,0,2.16,2.81,3.46,6.05,0,0,1.51,3.24,1.94,6.48,0,0,.22,3.24.22,6.91,0,0,0,3.46-.65,8.21,0,0-.65,4.75-1.51,10.37,0,0-.65,5.83-2.16,12.31,0,0-1.3,6.48-3.46,13.39,0,0-2.16,6.7-5.18,14.04,0,0-2.81,7.13-6.05,15.12,0,0-3.24,7.78-6.91,16.2,0,0-3.46,8.21-7.56,17.28,0,0-3.89,8.86-8.64,17.93,0,0-4.54,9.07-9.94,18.79,0,0-5.4,9.72-11.66,19.66,0,0-6.05,10.15-12.53,20.95,0,0-6.48,10.8-13.39,22.25,0,0-6.7,11.66-14.04,23.54,0,0-7.13,11.88-14.69,24.41,0,0-7.56,12.53-15.55,25.27,0,0-7.78,12.53-15.77,25.92,0,0-7.99,13.18-16.63,27,0,0-8.64,13.61-17.28,27.65,0,0-8.64,14.04-17.5,28.51,0,0-9.07,14.26-18.14,28.73,0,0-8.86,14.47-24.84,38.45l-15.77,24.19" vector-effect="non-scaling-stroke"/>
  <path class="st2" d="M1211.85,820.8c-4.75,6.48-9.72,12.96-13.39,18.36,0,0-3.89,5.4-11.02,15.55,0,0-7.34,9.94-12.31,17.5,0,0-4.97,7.56-9.07,12.96,0,0-3.89,5.4-6.48,9.07,0,0-2.38,3.67-4.54,6.05,0,0-2.16,2.59-3.24,4.75l-2.16,4.32s-1.08,2.16-1.51,4.32c0,0-.43,2.16-.65,4.32,0,0-.43,2.16,0,4.32,0,0,.22,2.16,1.08,3.89,0,0,.65,1.94,2.16,3.67,0,0,1.3,1.73,3.24,3.24,0,0,1.73,1.51,4.32,2.81,0,0,2.38,1.51,5.4,3.02,0,0,2.81,1.3,6.7,3.24,0,0,4.1,1.73,7.99,4.32,0,0,3.89,2.38,7.56,4.97,0,0,3.67,2.59,5.83,5.4,0,0,2.16,2.81,3.24,5.83,0,0,1.08,2.81,1.3,5.62,0,0,.43,3.02-.22,5.4,0,0-.86,2.59-2.59,5.18,0,0-1.73,2.38-4.97,5.4,0,0-3.24,2.81-7.34,6.05,0,0-3.89,3.24-8.64,6.91,0,0-4.54,3.46-9.94,7.78,0,0-5.4,4.32-11.23,8.64,0,0-5.83,4.32-11.23,8.42,0,0-5.4,3.89-9.72,6.7,0,0-4.32,3.02-7.56,5.4,0,0-3.24,2.59-6.05,4.32,0,0-2.81,1.94-5.83,3.24,0,0-2.81,1.51-5.62,2.16,0,0-3.02.86-5.83,1.08,0,0-2.81.43-5.4-.22,0,0-2.59-.86-5.4-1.94,0,0-2.81-1.08-5.4-2.81,0,0-2.59-1.73-4.75-3.89,0,0-2.16-2.16-3.24-4.75,0,0-1.08-2.59-1.3-5.4,0,0-.43-2.81-.43-5.83,0,0,0-2.81.43-6.7,0,0,.22-4.1,1.08-9.07,0,0,.65-4.97,1.73-11.23,0,0,1.08-6.05,2.16-13.18,0,0,1.08-7.34,2.16-15.55,0,0,1.08-8.21,2.16-17.93,0,0,1.08-9.72,2.59-20.3,0,0,1.3-10.37,2.81-21.82,0,0,1.51-11.66,3.24-23.76,0,0,1.73-12.31,3.67-25.27,0,0,1.73-12.96,3.46-25.27,0,0,1.94-12.1,3.24-22.25,0,0,1.51-10.15,2.59-17.93,0,0,1.08-7.99,2.16-14.47,0,0,1.08-6.48,1.73-12.53,0,0,.86-6.26.86-11.88,0,0,0-5.83-.86-11.23,0,0-.65-5.4-2.16-10.37,0,0-1.3-5.18-3.89-9.5,0,0-2.59-4.32-6.05-7.56,0,0-3.67-3.24-8.42-6.05,0,0-4.54-2.81-9.29-5.83,0,0-4.75-2.81-9.72-6.05,0,0-4.97-3.24-10.15-6.91,0,0-4.97-3.46-9.94-7.56,0,0-5.18-3.89-9.72-8.21,0,0-4.75-4.32-8.64-9.07,0,0-4.1-4.54-7.34-9.94,0,0-3.24-5.4-5.62-11.23,0,0-2.59-5.83-4.32-11.23,0,0-1.94-5.4-3.67-9.72,0,0-1.73-4.32-3.89-8.21,0,0-2.16-3.89-4.75-7.56,0,0-2.59-3.67-5.83-7.13,0,0-3.24-3.67-6.48-6.91,0,0-3.24-3.24-7.56-6.05,0,0-4.32-3.02-8.86-5.4,0,0-4.75-2.59-10.58-4.32,0,0-5.62-1.94-11.88-3.24,0,0-6.05-1.51-13.18-2.59,0,0-7.34-1.08-16.2-2.16,0,0-9.07-1.08-19.22-2.16,0,0-9.94-1.08-19.66-2.59,0,0-9.72-1.3-17.71-2.38,0,0-7.99-1.08-14.04-2.59,0,0-6.05-1.51-10.8-2.81,0,0-4.75-1.51-8.64-3.67,0,0-3.89-2.16-7.56-4.75,0,0-3.67-2.38-7.56-5.4,0,0-3.89-2.81-7.56-6.48,0,0-3.67-3.46-7.13-7.56,0,0-3.67-3.89-6.48-8.64,0,0-3.02-4.54-5.4-9.94,0,0-2.59-5.4-4.32-11.66,0,0-1.94-6.05-4.1-11.88,0,0-2.16-5.62-4.54-10.8,0,0-2.59-4.97-6.26-9.29,0,0-3.46-4.32-7.78-7.99,0,0-4.32-3.46-9.07-6.48,0,0-4.75-2.81-10.15-5.4,0,0-5.4-2.38-11.02-5.62,0,0-5.83-3.24-12.96-7.34,0,0-7.34-3.89-15.12-8.21,0,0-7.99-4.32-17.06-9.07,0,0-8.86-4.54-17.93-9.29,0,0-9.07-4.75-17.93-9.29,0,0-9.07-4.75-18.14-8.64,0,0-8.86-4.1-17.93-7.34,0,0-9.07-3.24-18.36-5.62,0,0-9.29-2.59-18.79-4.32,0,0-9.29-1.94-19.44-3.24,0,0-9.94-1.51-20.74-3.02,0,0-10.8-1.3-33.26-4.32l-22.25-2.81" vector-effect="non-scaling-stroke"/>
  <path class="st3" d="M481.77,356.4c-6.48-1.08-12.96-2.16-19.87-3.24,0,0-6.7-1.08-20.52-3.24,0,0-13.61-2.16-27.65-4.32,0,0-14.04-2.16-28.51-4.32,0,0-14.26-2.16-28.73-4.32,0,0-14.47-2.16-27.43-3.89,0,0-12.96-1.94-22.9-3.24,0,0-10.15-1.51-17.28-2.16,0,0-7.34-.86-12.31-1.51,0,0-4.97-.65-8.64-1.08,0,0-3.67-.43-6.05-.65l-5.18-.86s-2.38-.22-4.54-1.3c0,0-2.16-1.08-4.32-2.59,0,0-2.16-1.51-3.67-3.24,0,0-1.51-1.73-2.81-3.89,0,0-1.51-2.16-2.59-5.4,0,0-1.08-3.24-1.73-7.56,0,0-.86-4.32-1.51-9.72,0,0-.65-5.4-1.08-11.88,0,0-.43-6.48-1.08-14.04,0,0-.65-7.56-1.51-15.98l-1.3-16.42s-.86-8.42-1.51-15.12c0,0-.65-6.91-1.08-12.31,0,0-.43-5.4-1.08-10.15,0,0-.65-4.54-1.08-8.86,0,0-.43-4.32-1.08-8.64,0,0-.65-4.32-1.08-7.99,0,0-.43-3.67-1.51-6.91,0,0-1.08-3.24-2.38-5.4,0,0-1.51-2.16-4.1-3.46,0,0-2.38-1.51-5.4-2.16,0,0-2.81-.86-5.62-.86,0,0-3.02,0-5.4,1.51,0,0-2.59,1.51-4.75,3.67,0,0-2.16,2.16-4.32,4.97,0,0-2.16,2.81-4.32,5.4,0,0-2.16,2.59-4.75,4.75,0,0-2.38,2.16-5.4,3.46,0,0-2.81,1.51-5.62,2.16,0,0-3.02.86-5.83,1.08,0,0-2.81.43-5.83,0,0,0-2.81-.22-6.05-1.08,0,0-3.24-.65-6.48-1.73l-6.48-2.16s-3.24-1.08-6.91-2.16c0,0-3.46-1.08-7.13-1.73,0,0-3.67-.86-7.56-1.51,0,0-3.89-.65-8.21-1.08,0,0-4.32-.43-9.07-1.08,0,0-4.75-.65-9.07-1.08,0,0-4.32-.43-7.78-1.08,0,0-3.67-.65-6.91-1.08,0,0-3.24-.43-6.05-1.08,0,0-3.02-.65-5.83-1.51,0,0-2.81-.65-5.4-2.16,0,0-2.59-1.3-4.75-3.46,0,0-2.16-2.16-3.46-4.75,0,0-1.51-2.59-2.16-4.97,0,0-.86-2.59-.86-5.18,0,0,0-2.38.43-4.97,0,0,.43-2.59,1.08-5.83,0,0,.65-3.24,1.73-6.48,0,0,1.08-3.24,2.59-7.56,0,0,1.51-4.32,3.67-8.21,0,0,2.16-3.89,4.54-8.64,0,0,2.59-4.75,6.26-9.07,0,0,3.46-4.32,7.78-9.29,0,0,4.32-4.97,9.5-9.72,0,0,4.97-4.75,11.02-9.07,0,0,6.26-4.32,12.96-7.78,0,0,6.91-3.67,14.47-6.26,0,0,7.56-2.38,15.55-4.54,0,0,7.78-2.16,16.2-3.24,0,0,8.21-1.08,17.28-1.94,0,0,8.86-.65,18.36,0,0,0,9.29.86,19.01,1.94,0,0,9.72,1.08,24.84,3.46l15.12,2.59" vector-effect="non-scaling-stroke"/>
  <g id="moving-circle-group">
    <circle cx="250.65" cy="43.2" r="43.2" vector-effect="non-scaling-stroke"/>
    <circle class="st4" cx="250.65" cy="43.2" r="15.12" vector-effect="non-scaling-stroke"/>
  </g>
</svg>