<?xml version="1.0" encoding="UTF-8"?>
<svg id="minimap-svg" xmlns="http://www.w3.org/2000/svg" version="1.1" viewBox="0 0 1920 836.57">
  <!-- Generator: Adobe Illustrator 30.0.0, SVG Export Plug-In . SVG Version: 2.1.1 Build 123)  -->
  <defs>
    <style>
      .st0 {
        stroke: #000;
        stroke-width: 21.94px;
      }

      .st0, .st1, .st2, .st3 {
        fill: none;
        stroke-miterlimit: 10.97;
      }

      .st1 {
        stroke: #ef4444;
      }

      .st1, .st2, .st3 {
        stroke-width: 5.49px;
      }

      .st4 {
        fill: #fff;
      }

      .st2 {
        stroke: #3b82f6;
      }

      .st3 {
        stroke: #fbbf24;
      }
    </style>
  </defs>
  <g>
    <path class="st0" d="M743.31,139.89c4.11,2.74,8.23,5.49,12.34,7.68,0,0,4.11,2.47,12.34,6.86l16.46,9.33s8.23,4.39,16.46,9.6c0,0,8.23,4.94,16.46,10.42,0,0,8.23,5.49,17.01,10.42,0,0,8.5,5.21,17.28,10.15,0,0,8.78,4.94,17.83,10.15,0,0,9.05,4.94,17.83,10.42,0,0,8.78,5.49,17.28,10.42,0,0,8.78,5.21,17.83,10.7,0,0,9.33,5.49,18.93,10.97,0,0,9.6,5.49,19.47,11.79,0,0,10.15,6.31,19.75,12.34,0,0,9.6,6.03,19.75,11.79,0,0,9.87,6.03,19.47,11.52,0,0,9.6,5.49,18.93,10.42,0,0,9.05,5.21,17.28,10.15,0,0,8.23,4.94,15.91,9.6,0,0,7.95,4.66,15.09,9.05,0,0,7.41,4.66,13.71,8.78,0,0,6.58,4.11,12.34,7.68,0,0,6.03,3.84,11.52,6.86,0,0,5.49,3.29,10.42,6.03,0,0,5.21,2.74,9.6,5.49,0,0,4.66,2.74,8.78,4.94,0,0,4.11,2.47,8.23,4.66,0,0,4.11,2.19,7.68,4.11,0,0,3.84,1.92,6.86,4.11,0,0,3.29,2.19,6.03,4.66,0,0,2.74,2.19,4.94,4.94,0,0,2.47,2.74,4.11,5.49,0,0,1.92,2.74,2.74,5.49,0,0,1.1,2.74,1.37,5.49,0,0,.55,2.74,0,6.03,0,0-.27,3.02-1.37,6.31,0,0-.82,3.29-2.74,6.31,0,0-1.65,3.29-4.39,6.58,0,0-2.74,3.02-6.03,5.76,0,0-3.29,2.74-6.86,5.49,0,0-3.57,2.74-7.41,5.49,0,0-3.57,2.74-7.68,6.03,0,0-4.11,3.29-7.68,6.31,0,0-3.84,3.29-6.86,6.58,0,0-3.29,3.02-6.03,6.86,0,0-2.74,3.57-5.49,7.68,0,0-2.74,4.11-4.94,7.68,0,0-2.47,3.84-4.11,7.95,0,0-1.92,4.11-2.74,8.23,0,0-1.1,4.11-1.37,9.05,0,0-.55,4.94,0,9.6,0,0,.27,4.66.82,9.6,0,0,.55,4.94,1.37,10.15,0,0,.82,4.94.82,10.97,0,0,0,5.76-.27,11.79,0,0-.55,6.03-1.92,11.52,0,0-1.37,5.49-2.74,10.42,0,0-1.37,4.94-3.57,10.15,0,0-2.47,4.94-5.49,10.42,0,0-3.29,5.49-6.86,10.15,0,0-3.84,4.39-7.95,9.05,0,0-4.11,4.66-8.5,8.23,0,0-4.66,3.57-10.7,7.68,0,0-5.76,4.11-11.79,7.41,0,0-6.03,3.29-12.34,6.31,0,0-6.31,3.29-12.89,6.03,0,0-6.31,2.74-13.17,4.94,0,0-6.86,2.47-13.71,4.11,0,0-6.86,1.92-13.71,3.29l-13.71,2.74s-6.86,1.37-14.26,2.19c0,0-7.13,1.1-15.09,1.37,0,0-7.68.55-15.36.55,0,0-7.95,0-15.63-.55,0,0-7.68-.27-15.09-1.37,0,0-7.41-.82-15.09-2.19,0,0-7.68-1.37-15.09-3.29,0,0-7.41-1.65-15.09-4.11,0,0-7.68-2.19-15.09-5.49,0,0-7.41-3.02-15.09-6.86,0,0-7.68-3.57-15.09-7.13,0,0-7.41-3.84-15.09-7.95,0,0-7.68-4.11-14.54-8.23,0,0-6.86-4.11-13.71-8.5,0,0-6.86-4.66-13.71-8.78,0,0-6.86-4.11-14.26-8.23,0,0-7.41-4.11-14.26-8.23l-13.71-8.23s-6.86-4.11-13.99-8.23c0,0-7.41-4.11-15.09-8.23,0,0-7.95-4.11-15.09-8.78,0,0-7.41-4.39-14.26-9.05,0,0-6.86-4.66-13.71-8.78,0,0-6.86-4.11-13.71-7.68,0,0-6.86-3.57-13.17-7.41,0,0-6.58-3.57-12.34-7.13,0,0-6.03-3.84-11.52-6.86,0,0-5.49-3.29-10.42-6.03,0,0-5.21-2.74-10.15-5.49,0,0-4.94-2.74-9.6-4.94,0,0-4.66-2.47-9.6-4.11,0,0-4.94-1.92-10.42-2.74,0,0-5.49-1.1-11.52-1.37,0,0-6.03-.55-11.79-.55h-11.52s-5.49,0-11.52.55c0,0-5.76.27-11.79,1.37,0,0-6.03.82-11.79,2.74,0,0-6.03,1.65-11.52,4.11,0,0-5.49,2.19-10.42,5.49,0,0-5.21,3.02-10.15,6.31,0,0-4.94,3.29-10.15,6.86,0,0-4.94,3.57-10.42,6.86,0,0-5.49,3.29-10.97,6.31,0,0-5.49,3.29-11.52,5.49,0,0-5.76,2.47-11.79,3.84,0,0-6.03,1.37-11.79,1.65,0,0-6.03.55-12.07.55,0,0-5.76,0-11.79-.55,0,0-6.03-.27-11.79-1.37,0,0-6.03-.82-11.52-2.74,0,0-5.49-1.65-10.97-4.11,0,0-5.49-2.19-10.97-5.76,0,0-5.49-3.84-10.42-7.95,0,0-5.21-4.11-9.6-8.5l-8.78-8.78s-4.11-4.11-8.78-7.68c0,0-4.39-3.84-9.05-6.86,0,0-4.66-3.29-9.6-6.58,0,0-4.94-3.02-10.15-5.76,0,0-4.94-2.74-9.87-5.21,0,0-5.21-2.19-10.15-3.57,0,0-4.94-1.37-10.15-2.19,0,0-4.94-1.1-10.42-1.37,0,0-5.49-.55-10.97,0,0,0-5.49.27-10.97,1.37,0,0-5.49.82-10.97,2.19,0,0-5.49,1.37-10.42,2.74,0,0-5.21,1.37-10.15,2.74,0,0-4.94,1.37-10.15,3.29,0,0-4.94,1.65-9.87,3.57,0,0-5.21,1.92-9.6,4.11,0,0-4.66,2.19-8.78,4.66,0,0-4.11,2.19-7.68,4.94,0,0-3.84,2.74-7.41,6.03,0,0-3.57,3.02-6.86,6.31,0,0-3.29,3.29-6.31,7.41,0,0-3.29,4.11-6.03,8.5,0,0-2.74,4.66-5.49,9.6,0,0-2.74,5.21-4.94,10.15,0,0-2.47,4.94-4.11,9.6,0,0-1.92,4.66-2.74,9.6,0,0-1.1,4.94-1.37,10.15,0,0-.55,4.94-.55,9.87,0,0,0,5.21.82,10.15,0,0,1.1,4.94,2.47,9.6,0,0,1.37,4.66,3.57,9.05,0,0,2.19,4.66,4.94,8.23,0,0,2.74,3.84,6.58,6.86,0,0,3.57,3.29,8.23,5.49,0,0,4.39,2.47,9.05,3.84,0,0,4.66,1.37,9.6,1.65,0,0,4.94.55,9.6,0,0,0,4.66-.27,9.6-.82,0,0,4.94-.55,10.15-1.37,0,0,4.94-.82,10.42-1.37,0,0,5.49-.55,10.97-.82,0,0,5.49-.55,11.52-.55,0,0,5.76,0,12.34.55,0,0,6.31.27,12.62,1.37,0,0,6.58.82,12.89,2.19,0,0,6.31,1.37,13.17,2.74,0,0,6.86,1.37,18.93,4.11l11.79,2.74" vector-effect="non-scaling-stroke"/>
    <path class="st0" d="M244.11,666.52c4.94.55,9.6,1.37,13.99,2.19,0,0,4.39.55,12.89,2.47,0,0,8.78,1.65,17.01,3.57,0,0,8.23,1.92,16.46,3.57,0,0,8.23,1.92,16.46,3.29,0,0,8.23,1.37,17.01,2.74,0,0,8.5,1.37,17.83,2.19,0,0,9.05,1.1,18.65,1.1,0,0,9.6,0,18.65-.55,0,0,9.33-.55,18.38-.82,0,0,9.05-.55,18.38-.55,0,0,9.05,0,18.65-.55,0,0,9.6-.27,19.2-.82,0,0,9.6-.55,19.75-.82,0,0,9.87-.55,20.02-.55,0,0,10.15,0,20.57-.55,0,0,10.42-.27,20.57-.82,0,0,10.15-.55,20.57-.82,0,0,10.42-.55,21.12-.55,0,0,10.42,0,20.85-.55,0,0,10.7-.27,21.12-.82,0,0,10.42-.55,20.57-.55,0,0,10.15,0,21.12,1.1,0,0,10.97.82,21.39,2.19,0,0,10.42,1.37,21.12,3.29,0,0,10.42,1.65,20.57,4.39,0,0,9.87,2.74,20.02,6.03,0,0,10.15,3.29,20.57,6.86,0,0,10.42,3.57,21.12,7.41,0,0,10.42,3.57,21.39,7.13,0,0,10.97,3.84,21.94,7.41,0,0,10.97,3.57,21.39,7.41,0,0,10.7,3.57,21.12,7.13,0,0,10.42,3.84,20.57,6.86,0,0,10.15,3.29,21.12,6.03,0,0,10.97,2.74,21.94,4.94,0,0,10.97,2.47,22.22,4.11,0,0,11.52,1.92,22.49,3.29,0,0,10.97,1.37,22.49,2.19,0,0,11.25,1.1,22.77,1.37,0,0,11.52.55,22.77.55,0,0,11.52,0,22.49-.55,0,0,10.97-.27,21.94-1.37,0,0,10.97-.82,22.49-2.19,0,0,11.25-1.37,22.22-3.29,0,0,10.97-1.65,21.94-4.11,0,0,10.97-2.19,21.67-4.94,0,0,10.42-2.74,21.39-6.03,0,0,10.97-3.02,21.94-6.86,0,0,10.97-3.57,21.94-7.68,0,0,10.97-4.11,21.39-7.68,0,0,10.7-3.84,21.12-7.41,0,0,10.42-3.57,21.12-6.86,0,0,10.42-3.29,20.57-6.86,0,0,9.87-3.57,19.47-6.86,0,0,9.6-3.29,18.38-6.86,0,0,8.78-3.57,18.38-6.86,0,0,9.6-3.29,18.65-6.86,0,0,9.05-3.57,18.38-6.86,0,0,9.05-3.29,17.28-6.31l16.46-6.58s8.23-3.02,17.01-6.86c0,0,8.5-3.57,17.28-7.13,0,0,8.78-3.84,17.01-7.41,0,0,8.23-3.57,15.91-6.86,0,0,7.68-3.29,15.63-6.86,0,0,7.68-3.57,15.91-7.41,0,0,8.23-3.57,16.46-7.68l16.46-8.23s8.23-4.11,15.91-8.23c0,0,7.95-4.11,19.2-10.42,0,0,11.52-6.58,27.15-15.63,0,0,15.36-9.05,31.54-18.65,0,0,15.91-9.6,26.33-16.46,0,0,10.7-6.86,15.09-10.15,0,0,4.66-3.29,7.41-5.49,0,0,2.74-2.19,4.94-4.11,0,0,2.47-1.92,4.11-4.66,0,0,1.92-2.74,2.74-5.49,0,0,1.1-2.74,1.37-5.76,0,0,.55-3.29,0-6.03,0,0-.27-2.74-1.37-5.49,0,0-.82-2.74-3.02-5.49,0,0-2.47-2.74-5.21-5.49,0,0-2.74-2.74-6.31-4.94,0,0-3.57-2.47-6.86-4.11,0,0-3.29-1.92-7.41-3.84,0,0-4.11-1.65-7.68-4.11,0,0-3.57-2.19-7.41-5.49,0,0-3.57-3.02-6.31-6.31,0,0-2.74-3.29-5.49-6.86,0,0-2.74-3.57-4.94-7.41,0,0-2.47-3.57-4.11-7.68,0,0-1.92-4.11-3.29-8.23,0,0-1.37-4.11-2.19-8.23,0,0-1.1-4.11-1.1-8.23,0,0,0-4.11,1.1-8.23,0,0,.82-4.11,2.19-8.23l2.74-8.23s1.37-4.11,3.57-7.68c0,0,2.47-3.84,5.21-6.86,0,0,2.74-3.29,6.31-5.49,0,0,3.57-2.47,7.41-4.11,0,0,3.57-1.92,7.68-2.74,0,0,4.11-1.1,8.23-1.37,0,0,4.11-.55,8.23-.55,0,0,4.11,0,8.23.55,0,0,4.11.27,8.23.82,0,0,4.11.55,8.23.82,0,0,4.11.55,8.78.55h9.05s4.66,0,8.78-.55c0,0,4.11-.27,7.68-1.37,0,0,3.57-.82,7.41-2.19,0,0,3.57-1.37,7.68-3.57,0,0,4.11-2.47,7.68-5.21,0,0,3.84-2.74,6.86-5.76,0,0,3.29-3.29,5.49-6.58,0,0,2.47-3.02,4.66-6.31,0,0,2.19-3.29,4.11-6.31,0,0,1.92-3.29,4.11-6.03,0,0,2.19-2.74,4.11-5.49,0,0,1.92-2.74,3.57-5.49,0,0,1.92-2.74,2.74-4.94,0,0,1.1-2.47,1.92-4.11,0,0,.82-1.92,1.92-3.29,0,0,.82-1.37,2.19-2.74,0,0,1.37-1.37,2.19-3.29,0,0,1.1-1.65,1.37-3.57,0,0,.55-1.92.55-3.57v-3.29s0-1.37-.55-2.74c0,0-.27-1.37-1.37-2.74,0,0-.82-1.37-2.19-2.74,0,0-1.37-1.37-2.19-2.19,0,0-1.1-1.1-1.92-1.37,0,0-.82-.55-1.92-1.1,0,0-.82-.27-2.19-.82,0,0-1.37-.55-2.74-1.37,0,0-1.37-.82-2.74-1.37,0,0-1.37-.55-2.19-1.37,0,0-1.1-.82-1.92-1.92,0,0-.82-.82-1.92-2.74,0,0-.82-1.65-1.65-3.57,0,0-1.1-1.92-1.37-4.11,0,0-.55-2.19,0-4.11,0,0,.27-1.92.82-4.11,0,0,.55-2.19,1.37-4.66,0,0,.82-2.19,1.92-4.94,0,0,.82-2.74,1.65-6.03,0,0,1.1-3.02,1.92-6.86,0,0,.82-3.57,1.92-7.13,0,0,.82-3.84,2.19-7.41,0,0,1.37-3.57,2.19-6.86,0,0,1.1-3.29,1.92-6.31,0,0,.82-3.29,1.37-6.03,0,0,.55-2.74,1.37-4.94,0,0,.82-2.47,1.37-4.66,0,0,.55-2.19.82-4.66,0,0,.55-2.19.55-4.39,0,0,0-2.47-.55-4.66,0,0-.27-2.19-1.37-4.11,0,0-.82-1.92-2.19-3.57,0,0-1.37-1.92-2.74-3.29,0,0-1.37-1.37-3.29-2.74,0,0-1.65-1.37-4.11-2.19,0,0-2.19-1.1-4.94-1.92,0,0-2.74-.82-6.03-1.37,0,0-3.02-.55-6.86-.82,0,0-3.57-.55-8.23-.55h-55.68" vector-effect="non-scaling-stroke"/>
    <path class="st0" d="M1763.66,120.69c-4.11-.55-8.23-1.37-12.89-1.65,0,0-4.39-.27-13.71-.55,0,0-9.05-.55-18.1-.55,0,0-9.33,0-18.93-.55,0,0-9.6-.27-19.47-.82,0,0-10.15-.55-21.67-.82,0,0-11.25-.55-23.31-1.1,0,0-11.79-.27-24.14-.82,0,0-12.34-.55-25.23-1.37,0,0-12.62-.82-25.51-1.37,0,0-12.89-.55-26.06-.82,0,0-13.17-.55-26.88-.55,0,0-13.71,0-27.98-.55,0,0-14.26-.27-28.25-.82,0,0-14.26-.55-27.98-1.37,0,0-13.71-.82-27.98-1.37,0,0-13.99-.55-27.7-.82,0,0-13.71-.55-27.98-1.1,0,0-14.26-.27-26.88-.82,0,0-12.89-.55-25.78-.82,0,0-12.62-.55-24.14-.55h-118.77s-11.52,0-23.04-.55c0,0-11.25-.27-23.31-.82,0,0-11.79-.55-24.14-.82,0,0-12.34-.55-24.14-1.1,0,0-12.07-.27-23.86-.82,0,0-11.79-.55-23.31-1.37,0,0-11.52-.82-22.77-1.37,0,0-11.52-.55-23.31-.82,0,0-12.07-.55-24.41-.55h-24.96s-12.89,0-24.69-.55c0,0-12.07-.27-23.86-.82,0,0-11.79-.55-23.31-.82,0,0-11.52-.55-23.31-1.1,0,0-11.79-.27-23.31-.82,0,0-11.52-.55-23.86-1.37,0,0-12.34-.82-23.59-1.37,0,0-11.52-.55-23.04-.82,0,0-11.25-.55-21.94-.55,0,0-10.42,0-20.85-.55,0,0-10.7-.27-20.57-.82,0,0-10.15-.55-19.75-.82,0,0-9.6-.55-18.65-.55,0,0-9.33,0-17.83-.55,0,0-8.78-.27-17.01-.82,0,0-8.23-.55-15.91-.82,0,0-7.95-.55-15.09-1.1,0,0-7.41-.27-14.81-.82,0,0-7.13-.55-14.54-.82,0,0-7.41-.55-14.54-1.1,0,0-7.41-.27-14.26-.82,0,0-6.86-.55-13.17-.82,0,0-6.58-.55-12.89-.55h-62.54s-6.03,0-11.52-.55c0,0-5.49-.27-10.42-.82,0,0-5.21-.55-9.6-.82,0,0-4.66-.55-8.78-.55h-16.46s-4.11,0-7.68-.55c0,0-3.84-.27-6.86-.82,0,0-3.29-.55-6.58-.82,0,0-3.02-.55-6.31-.55h-26.61s-2.19,0-4.39.55c0,0-2.47.27-4.66,1.37,0,0-2.19.82-4.11,2.19,0,0-1.92,1.37-3.57,2.74,0,0-1.92,1.37-3.29,3.29,0,0-1.37,1.65-2.19,3.57,0,0-1.1,1.92-1.37,4.11,0,0-.55,2.19-.55,4.11,0,0,0,1.92.55,4.11,0,0,.27,2.19,1.37,4.11,0,0,.82,1.92,1.65,4.11,0,0,1.1,2.19,2.47,4.11,0,0,1.37,1.92,3.02,4.11,0,0,1.92,2.19,5.21,4.66,0,0,3.02,2.19,6.31,4.94,0,0,3.29,2.74,7.41,6.03,0,0,4.11,3.02,8.23,6.31,0,0,4.11,3.29,9.05,6.86,0,0,4.94,3.57,10.42,7.41,0,0,5.49,3.57,11.52,7.13,0,0,6.03,3.84,12.34,7.41,0,0,6.31,3.57,13.17,6.31,0,0,6.86,2.74,14.26,5.21,0,0,7.41,2.19,15.09,3.57,0,0,7.68,1.37,15.63,1.92,0,0,7.68.27,15.91,0,0,0,8.23-.55,16.46-2.74,0,0,8.23-2.47,15.91-5.21,0,0,7.95-2.74,15.63-6.31,0,0,7.68-3.57,15.63-7.41,0,0,7.68-3.57,15.91-7.68,0,0,8.23-4.11,17.01-8.23,0,0,8.5-4.11,17.83-7.68,0,0,9.05-3.84,18.65-6.58,0,0,9.6-2.74,18.65-4.39,0,0,9.33-1.92,18.38-3.29,0,0,9.05-1.37,18.38-2.19,0,0,9.05-1.1,19.2-1.37,0,0,9.87-.55,19.47,0,0,0,9.6.27,20.3,1.65,0,0,10.42,1.37,20.57,4.11,0,0,9.87,2.74,20.57,6.58,0,0,10.42,3.57,21.39,7.68l10.97,4.11" vector-effect="non-scaling-stroke"/>
  </g>
  <path class="st1" d="M743.31,139.89c4.11,2.74,8.23,5.49,12.34,7.68,0,0,4.11,2.47,12.34,6.86l16.46,9.33s8.23,4.39,16.46,9.6c0,0,8.23,4.94,16.46,10.42,0,0,8.23,5.49,17.01,10.42,0,0,8.5,5.21,17.28,10.15,0,0,8.78,4.94,17.83,10.15,0,0,9.05,4.94,17.83,10.42,0,0,8.78,5.49,17.28,10.42,0,0,8.78,5.21,17.83,10.7,0,0,9.33,5.49,18.93,10.97,0,0,9.6,5.49,19.47,11.79,0,0,10.15,6.31,19.75,12.34,0,0,9.6,6.03,19.75,11.79,0,0,9.87,6.03,19.47,11.52,0,0,9.6,5.49,18.93,10.42,0,0,9.05,5.21,17.28,10.15,0,0,8.23,4.94,15.91,9.6,0,0,7.95,4.66,15.09,9.05,0,0,7.41,4.66,13.71,8.78,0,0,6.58,4.11,12.34,7.68,0,0,6.03,3.84,11.52,6.86,0,0,5.49,3.29,10.42,6.03,0,0,5.21,2.74,9.6,5.49,0,0,4.66,2.74,8.78,4.94,0,0,4.11,2.47,8.23,4.66,0,0,4.11,2.19,7.68,4.11,0,0,3.84,1.92,6.86,4.11,0,0,3.29,2.19,6.03,4.66,0,0,2.74,2.19,4.94,4.94,0,0,2.47,2.74,4.11,5.49,0,0,1.92,2.74,2.74,5.49,0,0,1.1,2.74,1.37,5.49,0,0,.55,2.74,0,6.03,0,0-.27,3.02-1.37,6.31,0,0-.82,3.29-2.74,6.31,0,0-1.65,3.29-4.39,6.58,0,0-2.74,3.02-6.03,5.76,0,0-3.29,2.74-6.86,5.49,0,0-3.57,2.74-7.41,5.49,0,0-3.57,2.74-7.68,6.03,0,0-4.11,3.29-7.68,6.31,0,0-3.84,3.29-6.86,6.58,0,0-3.29,3.02-6.03,6.86,0,0-2.74,3.57-5.49,7.68,0,0-2.74,4.11-4.94,7.68,0,0-2.47,3.84-4.11,7.95,0,0-1.92,4.11-2.74,8.23,0,0-1.1,4.11-1.37,9.05,0,0-.55,4.94,0,9.6,0,0,.27,4.66.82,9.6,0,0,.55,4.94,1.37,10.15,0,0,.82,4.94.82,10.97,0,0,0,5.76-.27,11.79,0,0-.55,6.03-1.92,11.52,0,0-1.37,5.49-2.74,10.42,0,0-1.37,4.94-3.57,10.15,0,0-2.47,4.94-5.49,10.42,0,0-3.29,5.49-6.86,10.15,0,0-3.84,4.39-7.95,9.05,0,0-4.11,4.66-8.5,8.23,0,0-4.66,3.57-10.7,7.68,0,0-5.76,4.11-11.79,7.41,0,0-6.03,3.29-12.34,6.31,0,0-6.31,3.29-12.89,6.03,0,0-6.31,2.74-13.17,4.94,0,0-6.86,2.47-13.71,4.11,0,0-6.86,1.92-13.71,3.29l-13.71,2.74s-6.86,1.37-14.26,2.19c0,0-7.13,1.1-15.09,1.37,0,0-7.68.55-15.36.55,0,0-7.95,0-15.63-.55,0,0-7.68-.27-15.09-1.37,0,0-7.41-.82-15.09-2.19,0,0-7.68-1.37-15.09-3.29,0,0-7.41-1.65-15.09-4.11,0,0-7.68-2.19-15.09-5.49,0,0-7.41-3.02-15.09-6.86,0,0-7.68-3.57-15.09-7.13,0,0-7.41-3.84-15.09-7.95,0,0-7.68-4.11-14.54-8.23,0,0-6.86-4.11-13.71-8.5,0,0-6.86-4.66-13.71-8.78,0,0-6.86-4.11-14.26-8.23,0,0-7.41-4.11-14.26-8.23l-13.71-8.23s-6.86-4.11-13.99-8.23c0,0-7.41-4.11-15.09-8.23,0,0-7.95-4.11-15.09-8.78,0,0-7.41-4.39-14.26-9.05,0,0-6.86-4.66-13.71-8.78,0,0-6.86-4.11-13.71-7.68,0,0-6.86-3.57-13.17-7.41,0,0-6.58-3.57-12.34-7.13,0,0-6.03-3.84-11.52-6.86,0,0-5.49-3.29-10.42-6.03,0,0-5.21-2.74-10.15-5.49,0,0-4.94-2.74-9.6-4.94,0,0-4.66-2.47-9.6-4.11,0,0-4.94-1.92-10.42-2.74,0,0-5.49-1.1-11.52-1.37,0,0-6.03-.55-11.79-.55h-11.52s-5.49,0-11.52.55c0,0-5.76.27-11.79,1.37,0,0-6.03.82-11.79,2.74,0,0-6.03,1.65-11.52,4.11,0,0-5.49,2.19-10.42,5.49,0,0-5.21,3.02-10.15,6.31,0,0-4.94,3.29-10.15,6.86,0,0-4.94,3.57-10.42,6.86,0,0-5.49,3.29-10.97,6.31,0,0-5.49,3.29-11.52,5.49,0,0-5.76,2.47-11.79,3.84,0,0-6.03,1.37-11.79,1.65,0,0-6.03.55-12.07.55,0,0-5.76,0-11.79-.55,0,0-6.03-.27-11.79-1.37,0,0-6.03-.82-11.52-2.74,0,0-5.49-1.65-10.97-4.11,0,0-5.49-2.19-10.97-5.76,0,0-5.49-3.84-10.42-7.95,0,0-5.21-4.11-9.6-8.5l-8.78-8.78s-4.11-4.11-8.78-7.68c0,0-4.39-3.84-9.05-6.86,0,0-4.66-3.29-9.6-6.58,0,0-4.94-3.02-10.15-5.76,0,0-4.94-2.74-9.87-5.21,0,0-5.21-2.19-10.15-3.57,0,0-4.94-1.37-10.15-2.19,0,0-4.94-1.1-10.42-1.37,0,0-5.49-.55-10.97,0,0,0-5.49.27-10.97,1.37,0,0-5.49.82-10.97,2.19,0,0-5.49,1.37-10.42,2.74,0,0-5.21,1.37-10.15,2.74,0,0-4.94,1.37-10.15,3.29,0,0-4.94,1.65-9.87,3.57,0,0-5.21,1.92-9.6,4.11,0,0-4.66,2.19-8.78,4.66,0,0-4.11,2.19-7.68,4.94,0,0-3.84,2.74-7.41,6.03,0,0-3.57,3.02-6.86,6.31,0,0-3.29,3.29-6.31,7.41,0,0-3.29,4.11-6.03,8.5,0,0-2.74,4.66-5.49,9.6,0,0-2.74,5.21-4.94,10.15,0,0-2.47,4.94-4.11,9.6,0,0-1.92,4.66-2.74,9.6,0,0-1.1,4.94-1.37,10.15,0,0-.55,4.94-.55,9.87,0,0,0,5.21.82,10.15,0,0,1.1,4.94,2.47,9.6,0,0,1.37,4.66,3.57,9.05,0,0,2.19,4.66,4.94,8.23,0,0,2.74,3.84,6.58,6.86,0,0,3.57,3.29,8.23,5.49,0,0,4.39,2.47,9.05,3.84,0,0,4.66,1.37,9.6,1.65,0,0,4.94.55,9.6,0,0,0,4.66-.27,9.6-.82,0,0,4.94-.55,10.15-1.37,0,0,4.94-.82,10.42-1.37,0,0,5.49-.55,10.97-.82,0,0,5.49-.55,11.52-.55,0,0,5.76,0,12.34.55,0,0,6.31.27,12.62,1.37,0,0,6.58.82,12.89,2.19,0,0,6.31,1.37,13.17,2.74,0,0,6.86,1.37,18.93,4.11l11.79,2.74" vector-effect="non-scaling-stroke"/>
  <path class="st2" d="M244.11,666.52c4.94.55,9.6,1.37,13.99,2.19,0,0,4.39.55,12.89,2.47,0,0,8.78,1.65,17.01,3.57,0,0,8.23,1.92,16.46,3.57,0,0,8.23,1.92,16.46,3.29,0,0,8.23,1.37,17.01,2.74,0,0,8.5,1.37,17.83,2.19,0,0,9.05,1.1,18.65,1.1,0,0,9.6,0,18.65-.55,0,0,9.33-.55,18.38-.82,0,0,9.05-.55,18.38-.55,0,0,9.05,0,18.65-.55,0,0,9.6-.27,19.2-.82,0,0,9.6-.55,19.75-.82,0,0,9.87-.55,20.02-.55,0,0,10.15,0,20.57-.55,0,0,10.42-.27,20.57-.82,0,0,10.15-.55,20.57-.82,0,0,10.42-.55,21.12-.55,0,0,10.42,0,20.85-.55,0,0,10.7-.27,21.12-.82,0,0,10.42-.55,20.57-.55,0,0,10.15,0,21.12,1.1,0,0,10.97.82,21.39,2.19,0,0,10.42,1.37,21.12,3.29,0,0,10.42,1.65,20.57,4.39,0,0,9.87,2.74,20.02,6.03,0,0,10.15,3.29,20.57,6.86,0,0,10.42,3.57,21.12,7.41,0,0,10.42,3.57,21.39,7.13,0,0,10.97,3.84,21.94,7.41,0,0,10.97,3.57,21.39,7.41,0,0,10.7,3.57,21.12,7.13,0,0,10.42,3.84,20.57,6.86,0,0,10.15,3.29,21.12,6.03,0,0,10.97,2.74,21.94,4.94,0,0,10.97,2.47,22.22,4.11,0,0,11.52,1.92,22.49,3.29,0,0,10.97,1.37,22.49,2.19,0,0,11.25,1.1,22.77,1.37,0,0,11.52.55,22.77.55,0,0,11.52,0,22.49-.55,0,0,10.97-.27,21.94-1.37,0,0,10.97-.82,22.49-2.19,0,0,11.25-1.37,22.22-3.29,0,0,10.97-1.65,21.94-4.11,0,0,10.97-2.19,21.67-4.94,0,0,10.42-2.74,21.39-6.03,0,0,10.97-3.02,21.94-6.86,0,0,10.97-3.57,21.94-7.68,0,0,10.97-4.11,21.39-7.68,0,0,10.7-3.84,21.12-7.41,0,0,10.42-3.57,21.12-6.86,0,0,10.42-3.29,20.57-6.86,0,0,9.87-3.57,19.47-6.86,0,0,9.6-3.29,18.38-6.86,0,0,8.78-3.57,18.38-6.86,0,0,9.6-3.29,18.65-6.86,0,0,9.05-3.57,18.38-6.86,0,0,9.05-3.29,17.28-6.31l16.46-6.58s8.23-3.02,17.01-6.86c0,0,8.5-3.57,17.28-7.13,0,0,8.78-3.84,17.01-7.41,0,0,8.23-3.57,15.91-6.86,0,0,7.68-3.29,15.63-6.86,0,0,7.68-3.57,15.91-7.41,0,0,8.23-3.57,16.46-7.68l16.46-8.23s8.23-4.11,15.91-8.23c0,0,7.95-4.11,19.2-10.42,0,0,11.52-6.58,27.15-15.63,0,0,15.36-9.05,31.54-18.65,0,0,15.91-9.6,26.33-16.46,0,0,10.7-6.86,15.09-10.15,0,0,4.66-3.29,7.41-5.49,0,0,2.74-2.19,4.94-4.11,0,0,2.47-1.92,4.11-4.66,0,0,1.92-2.74,2.74-5.49,0,0,1.1-2.74,1.37-5.76,0,0,.55-3.29,0-6.03,0,0-.27-2.74-1.37-5.49,0,0-.82-2.74-3.02-5.49,0,0-2.47-2.74-5.21-5.49,0,0-2.74-2.74-6.31-4.94,0,0-3.57-2.47-6.86-4.11,0,0-3.29-1.92-7.41-3.84,0,0-4.11-1.65-7.68-4.11,0,0-3.57-2.19-7.41-5.49,0,0-3.57-3.02-6.31-6.31,0,0-2.74-3.29-5.49-6.86,0,0-2.74-3.57-4.94-7.41,0,0-2.47-3.57-4.11-7.68,0,0-1.92-4.11-3.29-8.23,0,0-1.37-4.11-2.19-8.23,0,0-1.1-4.11-1.1-8.23,0,0,0-4.11,1.1-8.23,0,0,.82-4.11,2.19-8.23l2.74-8.23s1.37-4.11,3.57-7.68c0,0,2.47-3.84,5.21-6.86,0,0,2.74-3.29,6.31-5.49,0,0,3.57-2.47,7.41-4.11,0,0,3.57-1.92,7.68-2.74,0,0,4.11-1.1,8.23-1.37,0,0,4.11-.55,8.23-.55,0,0,4.11,0,8.23.55,0,0,4.11.27,8.23.82,0,0,4.11.55,8.23.82,0,0,4.11.55,8.78.55h9.05s4.66,0,8.78-.55c0,0,4.11-.27,7.68-1.37,0,0,3.57-.82,7.41-2.19,0,0,3.57-1.37,7.68-3.57,0,0,4.11-2.47,7.68-5.21,0,0,3.84-2.74,6.86-5.76,0,0,3.29-3.29,5.49-6.58,0,0,2.47-3.02,4.66-6.31,0,0,2.19-3.29,4.11-6.31,0,0,1.92-3.29,4.11-6.03,0,0,2.19-2.74,4.11-5.49,0,0,1.92-2.74,3.57-5.49,0,0,1.92-2.74,2.74-4.94,0,0,1.1-2.47,1.92-4.11,0,0,.82-1.92,1.92-3.29,0,0,.82-1.37,2.19-2.74,0,0,1.37-1.37,2.19-3.29,0,0,1.1-1.65,1.37-3.57,0,0,.55-1.92.55-3.57v-3.29s0-1.37-.55-2.74c0,0-.27-1.37-1.37-2.74,0,0-.82-1.37-2.19-2.74,0,0-1.37-1.37-2.19-2.19,0,0-1.1-1.1-1.92-1.37,0,0-.82-.55-1.92-1.1,0,0-.82-.27-2.19-.82,0,0-1.37-.55-2.74-1.37,0,0-1.37-.82-2.74-1.37,0,0-1.37-.55-2.19-1.37,0,0-1.1-.82-1.92-1.92,0,0-.82-.82-1.92-2.74,0,0-.82-1.65-1.65-3.57,0,0-1.1-1.92-1.37-4.11,0,0-.55-2.19,0-4.11,0,0,.27-1.92.82-4.11,0,0,.55-2.19,1.37-4.66,0,0,.82-2.19,1.92-4.94,0,0,.82-2.74,1.65-6.03,0,0,1.1-3.02,1.92-6.86,0,0,.82-3.57,1.92-7.13,0,0,.82-3.84,2.19-7.41,0,0,1.37-3.57,2.19-6.86,0,0,1.1-3.29,1.92-6.31,0,0,.82-3.29,1.37-6.03,0,0,.55-2.74,1.37-4.94,0,0,.82-2.47,1.37-4.66,0,0,.55-2.19.82-4.66,0,0,.55-2.19.55-4.39,0,0,0-2.47-.55-4.66,0,0-.27-2.19-1.37-4.11,0,0-.82-1.92-2.19-3.57,0,0-1.37-1.92-2.74-3.29,0,0-1.37-1.37-3.29-2.74,0,0-1.65-1.37-4.11-2.19,0,0-2.19-1.1-4.94-1.92,0,0-2.74-.82-6.03-1.37,0,0-3.02-.55-6.86-.82,0,0-3.57-.55-8.23-.55h-55.68" vector-effect="non-scaling-stroke"/>
  <path class="st3" d="M1763.66,120.69c-4.11-.55-8.23-1.37-12.89-1.65,0,0-4.39-.27-13.71-.55,0,0-9.05-.55-18.1-.55,0,0-9.33,0-18.93-.55,0,0-9.6-.27-19.47-.82,0,0-10.15-.55-21.67-.82,0,0-11.25-.55-23.31-1.1,0,0-11.79-.27-24.14-.82,0,0-12.34-.55-25.23-1.37,0,0-12.62-.82-25.51-1.37,0,0-12.89-.55-26.06-.82,0,0-13.17-.55-26.88-.55,0,0-13.71,0-27.98-.55,0,0-14.26-.27-28.25-.82,0,0-14.26-.55-27.98-1.37,0,0-13.71-.82-27.98-1.37,0,0-13.99-.55-27.7-.82,0,0-13.71-.55-27.98-1.1,0,0-14.26-.27-26.88-.82,0,0-12.89-.55-25.78-.82,0,0-12.62-.55-24.14-.55h-118.77s-11.52,0-23.04-.55c0,0-11.25-.27-23.31-.82,0,0-11.79-.55-24.14-.82,0,0-12.34-.55-24.14-1.1,0,0-12.07-.27-23.86-.82,0,0-11.79-.55-23.31-1.37,0,0-11.52-.82-22.77-1.37,0,0-11.52-.55-23.31-.82,0,0-12.07-.55-24.41-.55h-24.96s-12.89,0-24.69-.55c0,0-12.07-.27-23.86-.82,0,0-11.79-.55-23.31-.82,0,0-11.52-.55-23.31-1.1,0,0-11.79-.27-23.31-.82,0,0-11.52-.55-23.86-1.37,0,0-12.34-.82-23.59-1.37,0,0-11.52-.55-23.04-.82,0,0-11.25-.55-21.94-.55,0,0-10.42,0-20.85-.55,0,0-10.7-.27-20.57-.82,0,0-10.15-.55-19.75-.82,0,0-9.6-.55-18.65-.55,0,0-9.33,0-17.83-.55,0,0-8.78-.27-17.01-.82,0,0-8.23-.55-15.91-.82,0,0-7.95-.55-15.09-1.1,0,0-7.41-.27-14.81-.82,0,0-7.13-.55-14.54-.82,0,0-7.41-.55-14.54-1.1,0,0-7.41-.27-14.26-.82,0,0-6.86-.55-13.17-.82,0,0-6.58-.55-12.89-.55h-62.54s-6.03,0-11.52-.55c0,0-5.49-.27-10.42-.82,0,0-5.21-.55-9.6-.82,0,0-4.66-.55-8.78-.55h-16.46s-4.11,0-7.68-.55c0,0-3.84-.27-6.86-.82,0,0-3.29-.55-6.58-.82,0,0-3.02-.55-6.31-.55h-26.61s-2.19,0-4.39.55c0,0-2.47.27-4.66,1.37,0,0-2.19.82-4.11,2.19,0,0-1.92,1.37-3.57,2.74,0,0-1.92,1.37-3.29,3.29,0,0-1.37,1.65-2.19,3.57,0,0-1.1,1.92-1.37,4.11,0,0-.55,2.19-.55,4.11,0,0,0,1.92.55,4.11,0,0,.27,2.19,1.37,4.11,0,0,.82,1.92,1.65,4.11,0,0,1.1,2.19,2.47,4.11,0,0,1.37,1.92,3.02,4.11,0,0,1.92,2.19,5.21,4.66,0,0,3.02,2.19,6.31,4.94,0,0,3.29,2.74,7.41,6.03,0,0,4.11,3.02,8.23,6.31,0,0,4.11,3.29,9.05,6.86,0,0,4.94,3.57,10.42,7.41,0,0,5.49,3.57,11.52,7.13,0,0,6.03,3.84,12.34,7.41,0,0,6.31,3.57,13.17,6.31,0,0,6.86,2.74,14.26,5.21,0,0,7.41,2.19,15.09,3.57,0,0,7.68,1.37,15.63,1.92,0,0,7.68.27,15.91,0,0,0,8.23-.55,16.46-2.74,0,0,8.23-2.47,15.91-5.21,0,0,7.95-2.74,15.63-6.31,0,0,7.68-3.57,15.63-7.41,0,0,7.68-3.57,15.91-7.68,0,0,8.23-4.11,17.01-8.23,0,0,8.5-4.11,17.83-7.68,0,0,9.05-3.84,18.65-6.58,0,0,9.6-2.74,18.65-4.39,0,0,9.33-1.92,18.38-3.29,0,0,9.05-1.37,18.38-2.19,0,0,9.05-1.1,19.2-1.37,0,0,9.87-.55,19.47,0,0,0,9.6.27,20.3,1.65,0,0,10.42,1.37,20.57,4.11,0,0,9.87,2.74,20.57,6.58,0,0,10.42,3.57,21.39,7.68l10.97,4.11" vector-effect="non-scaling-stroke"/>
  <g id="moving-circle-group">
    <circle cx="743.31" cy="139.89" r="54.86" vector-effect="non-scaling-stroke"/>
    <circle class="st4" cx="743.31" cy="139.89" r="19.2" vector-effect="non-scaling-stroke"/>
  </g>
</svg>