<?xml version="1.0" encoding="UTF-8"?>
<svg id="minimap-svg" xmlns="http://www.w3.org/2000/svg" version="1.1" viewBox="0 0 910.24 1080">
  <!-- Generator: Adobe Illustrator 30.0.0, SVG Export Plug-In . SVG Version: 2.1.1 Build 123)  -->
  <defs>
    <style>
      .st0 {
        stroke: #ef4444;
      }

      .st0, .st1, .st2, .st3 {
        fill: none;
        stroke-miterlimit: 6.17;
      }

      .st0, .st2, .st3 {
        stroke-width: 3.09px;
      }

      .st1 {
        stroke: #000;
        stroke-width: 12.34px;
      }

      .st2 {
        stroke: #3b82f6;
      }

      .st3 {
        stroke: #fbbf24;
      }

      .st4 {
        fill: #fff;
      }
    </style>
  </defs>
  <g>
    <path class="st1" d="M55.52,740.57c0-3.39,0-6.94-.31-10.65,0,0-.15-3.7-.77-10.95,0,0-.46-7.25-1.23-14.66,0,0-.77-7.41-1.23-14.97,0,0-.62-7.41-.77-14.81,0,0-.31-7.56,0-15.27,0,0,.15-7.71.93-15.43,0,0,.77-7.71,1.85-15.58,0,0,1.08-8.02,2.31-15.74,0,0,1.23-7.71,2.62-15.12,0,0,1.23-7.56,2.78-14.5,0,0,1.54-6.94,3.09-13.11,0,0,1.54-6.17,2.78-11.57,0,0,1.39-5.4,2.31-10.03,0,0,1.08-4.63,1.54-8.18,0,0,.62-3.55.77-6.48,0,0,.31-2.78.62-4.78,0,0,.15-2.16.77-3.86,0,0,.46-1.85,1.23-3.39,0,0,.77-1.54,1.85-3.39,0,0,.93-1.7,2.01-3.55,0,0,1.08-1.85,2.62-3.55,0,0,1.54-1.85,3.24-3.09,0,0,1.85-1.39,4.47-2.31,0,0,2.47-1.08,5.55-1.85,0,0,3.09-.77,6.79-1.54,0,0,3.55-.77,7.87-1.54,0,0,4.47-.77,9.26-1.23,0,0,4.94-.62,10.34-1.08,0,0,5.4-.46,10.8-1.08,0,0,5.4-.46,11.26-1.23,0,0,6.02-.77,12.19-1.85,0,0,6.17-.93,12.81-2.01,0,0,6.63-1.08,13.42-2.31,0,0,6.63-1.23,13.58-2.62,0,0,6.94-1.23,14.19-3.09,0,0,7.1-1.7,14.35-3.55,0,0,7.25-1.85,14.35-3.86,0,0,7.25-2.01,14.66-4.17,0,0,7.56-2.01,15.27-4.01,0,0,7.71-2.16,15.89-3.86,0,0,8.18-1.85,16.2-3.09,0,0,8.02-1.39,16.2-2.62,0,0,8.18-1.23,16.2-2.62,0,0,8.02-1.23,16.2-2.78,0,0,8.18-1.54,16.51-3.55,0,0,8.18-2.16,16.35-5.25,0,0,8.33-3.09,16.82-6.94,0,0,8.49-3.86,16.66-7.71,0,0,8.18-3.86,16.97-7.1,0,0,8.79-3.39,17.28-6.17,0,0,8.49-2.93,16.97-5.25,0,0,8.49-2.31,16.35-3.86,0,0,8.02-1.54,16.05-2.78,0,0,7.87-1.23,15.89-2.31,0,0,8.02-1.08,15.12-2.01,0,0,7.25-1.08,13.42-2.16,0,0,6.17-.93,11.57-2.01,0,0,5.4-1.08,10.49-2.62,0,0,5.25-1.54,10.03-3.24,0,0,4.94-1.85,9.1-4.47,0,0,4.01-2.47,7.87-5.4,0,0,3.86-2.78,7.56-5.86,0,0,3.55-3.09,6.94-6.48,0,0,3.24-3.24,6.33-6.94,0,0,3.09-3.55,5.4-7.41,0,0,2.31-3.86,4.17-8.02,0,0,1.85-4.01,2.62-8.18,0,0,.77-4.17.93-8.18,0,0,.31-4.17,0-8.49,0,0-.15-4.47-.77-8.49,0,0-.46-4.17-1.54-8.79,0,0-.93-4.63-2.31-8.79,0,0-1.23-4.01-3.09-8.49,0,0-1.7-4.32-4.01-8.18,0,0-2.31-3.86-4.94-7.41,0,0-2.62-3.7-5.4-6.94,0,0-2.78-3.39-5.4-6.17,0,0-2.62-2.93-5.09-5.25,0,0-2.62-2.31-4.94-4.32,0,0-2.31-2.01-4.32-3.86,0,0-2.16-1.85-3.86-3.86,0,0-1.85-2.01-3.39-4.32,0,0-1.54-2.31-2.78-5.25,0,0-1.39-2.78-2.16-5.86,0,0-.77-3.09-.93-6.17,0,0-.31-3.09.15-6.48,0,0,.62-3.24,1.54-6.94,0,0,1.08-3.55,2.93-7.71,0,0,1.7-4.01,3.86-8.18,0,0,2.01-4.17,4.63-8.18,0,0,2.47-4.17,5.4-8.33,0,0,2.78-4.01,6.17-8.49,0,0,3.24-4.32,6.63-8.95,0,0,3.39-4.63,6.94-9.57,0,0,3.55-4.78,7.25-9.72,0,0,3.55-4.94,7.41-9.72l7.71-9.87s3.86-4.78,7.41-9.41c0,0,3.7-4.63,7.25-9.57,0,0,3.55-4.94,9.57-12.81l5.86-8.02" vector-effect="non-scaling-stroke"/>
    <path class="st1" d="M669.58,77.14c1.85-1.85,3.86-3.86,5.55-5.86,0,0,1.7-1.85,4.94-5.4,0,0,3.39-3.7,6.17-7.25,0,0,2.93-3.55,5.25-6.63,0,0,2.31-3.09,4.01-6.02,0,0,1.85-2.78,3.39-4.78,0,0,1.54-2.16,3.09-3.86,0,0,1.54-1.85,2.78-3.39,0,0,1.39-1.54,2.62-3.09,0,0,1.23-1.54,2.78-3.09,0,0,1.54-1.54,3.39-2.62,0,0,1.85-.93,4.17-1.54,0,0,2.31-.46,4.63-.46,0,0,2.31,0,4.63.46,0,0,2.31.62,4.32,1.54,0,0,2.01,1.08,3.86,2.93,0,0,1.85,1.7,3.55,3.55,0,0,1.85,1.85,3.09,4.17,0,0,1.39,2.31,2.31,4.63,0,0,1.08,2.31,1.54,5.4,0,0,.62,3.09,1.08,5.86,0,0,.46,2.78.77,5.86,0,0,.31,3.09,1.08,5.71,0,0,.77,2.62,1.23,5.4,0,0,.46,2.78,1.54,5.4,0,0,1.08,2.62,2.01,5.09,0,0,1.08,2.62,2.62,5.25,0,0,1.54,2.47,3.09,5.4l3.09,5.55s1.54,2.93,2.78,5.25c0,0,1.39,2.31,2.62,4.32,0,0,1.23,2.01,2.31,3.55,0,0,1.08,1.54,2.01,3.39,0,0,1.08,1.85,1.85,3.09,0,0,.77,1.23,1.54,2.78,0,0,.77,1.54,1.54,2.62,0,0,.77,1.08,1.54,2.62,0,0,.77,1.54,1.85,2.78,0,0,.93,1.23,2.31,2.62,0,0,1.23,1.23,2.78,1.7,0,0,1.54.62,2.78.77,0,0,1.39.31,2.62,0,0,0,1.23-.15,2.31-.77,0,0,1.08-.46,2.01-1.23,0,0,1.08-.77,1.85-1.54,0,0,.77-.77,1.23-1.54,0,0,.62-.77,1.08-1.54,0,0,.46-.77.77-1.54,0,0,.31-.77.46-1.54,0,0,.31-.77,0-1.54,0,0-.15-.77-.77-1.85,0,0-.46-.93-.93-2.01,0,0-.62-1.08-1.08-2.31,0,0-.46-1.23-1.08-2.31,0,0-.46-1.08-1.7-2.31,0,0-1.39-1.23-2.62-2.62,0,0-1.23-1.23-2.78-2.78,0,0-1.54-1.54-3.09-3.39,0,0-1.54-1.7-3.7-4.01,0,0-2.01-2.31-4.01-4.94,0,0-2.16-2.62-3.86-4.94,0,0-1.85-2.31-3.39-4.01,0,0-1.54-1.85-2.78-3.7,0,0-1.39-1.7-2.31-3.86,0,0-1.08-2.01-1.85-4.32,0,0-.77-2.31-1.08-4.32,0,0-.15-2.16,0-4.17,0,0,.31-2.01,1.08-3.86,0,0,.77-1.85,1.85-3.55,0,0,.93-1.85,2.31-3.39,0,0,1.23-1.54,3.09-2.78,0,0,1.7-1.39,4.01-2.62,0,0,2.31-1.23,4.94-2.31,0,0,2.62-1.08,5.4-2.31,0,0,2.78-1.23,5.86-2.62,0,0,3.09-1.23,6.79-2.47,0,0,3.55-1.39,7.1-2.62,0,0,3.7-1.23,6.94-2.31,0,0,3.39-1.08,6.48-2.01,0,0,3.09-1.08,5.86-1.54,0,0,2.93-.62,5.4-.77,0,0,2.62-.31,4.94-.31h4.63s2.31,0,4.63.46c0,0,2.31.62,4.32,1.54,0,0,2.16,1.08,3.7,2.93,0,0,1.54,1.7,2.78,3.86,0,0,1.23,2.01,2.01,4.63,0,0,.77,2.47,1.39,5.55,0,0,.46,3.09.15,6.48,0,0-.15,3.39-.77,7.41,0,0-.46,4.17-1.23,8.49,0,0-.77,4.47-1.23,9.87,0,0-.62,5.4-1.39,10.95,0,0-.77,5.71-1.23,12.34,0,0-.46,6.79-1.54,13.89,0,0-1.08,7.25-1.85,14.97,0,0-.77,7.71-2.01,15.12,0,0-1.23,7.56-2.62,14.66,0,0-1.23,7.25-2.78,14.5,0,0-1.54,7.1-3.39,14.35,0,0-1.7,7.25-4.01,14.97,0,0-2.31,7.71-4.94,15.12,0,0-2.62,7.41-5.09,15.12,0,0-2.62,7.71-5.25,14.97,0,0-2.47,7.25-5.4,14.35,0,0-2.78,7.25-5.86,13.89,0,0-3.09,6.79-6.48,13.73,0,0-3.24,6.94-6.94,13.89,0,0-3.55,6.94-7.41,13.58,0,0-3.86,6.63-8.18,12.65,0,0-4.47,5.86-9.26,10.95,0,0-4.94,5.25-10.8,10.03,0,0-6.02,4.94-12.19,9.1,0,0-6.17,4.01-12.81,7.87,0,0-6.63,3.86-13.42,7.56,0,0-6.63,3.55-13.58,7.41,0,0-6.94,3.86-14.19,7.71,0,0-7.1,3.86-14.66,7.71l-14.81,7.71s-7.56,3.86-14.66,7.71c0,0-7.25,3.86-14.19,7.41,0,0-6.94,3.7-13.89,6.79l-13.89,6.17s-6.94,3.09-13.58,5.55c0,0-6.79,2.62-13.11,5.25,0,0-6.48,2.47-12.96,4.32,0,0-6.33,1.85-12.81,3.86,0,0-6.48,2.01-12.65,3.86,0,0-6.17,1.85-12.34,3.55,0,0-6.17,1.85-12.03,3.09,0,0-5.86,1.39-12.03,2.31,0,0-6.17,1.08-11.57,2.16,0,0-5.4.93-10.65,2.01,0,0-5.09,1.08-9.41,1.85,0,0-4.47.77-8.02,1.23,0,0-3.55.46-6.48.77,0,0-2.78.31-4.78.77,0,0-2.16.46-3.86.77,0,0-1.85.31-3.39.46,0,0-1.54.31-3.09.31,0,0-1.54,0-3.09.31,0,0-1.54.15-3.09.46,0,0-1.54.31-2.78.77,0,0-1.39.46-2.62,1.08,0,0-1.23.46-2.31,1.23,0,0-1.08.77-2.31,1.85,0,0-1.23.93-2.01,2.01,0,0-.77,1.08-1.39,2.31,0,0-.46,1.23-.46,2.31,0,0,0,1.08-.31,2.31,0,0-.15,1.23-.46,2.31,0,0-.31,1.08-.77,2.01,0,0-.46,1.08-.77,2.16,0,0-.31.93-1.08,2.01,0,0-.77,1.08-1.54,2.31,0,0-.77,1.23-2.01,2.01,0,0-1.23.77-2.62,1.54,0,0-1.23.77-2.78,1.39l-3.09.93s-1.54.62-3.39.77c0,0-1.7.31-3.55,0,0,0-1.85-.15-3.55-.77,0,0-1.85-.46-3.7-1.23,0,0-1.7-.77-3.55-1.85,0,0-1.85-.93-3.86-1.7,0,0-2.01-.77-4.32-1.54,0,0-2.31-.77-5.25-1.08,0,0-2.78-.31-6.33-.46,0,0-3.7-.31-7.71,0,0,0-4.17.15-8.79.46,0,0-4.63.31-9.57.77,0,0-4.78.46-10.49,1.23,0,0-5.71.77-11.57,1.54,0,0-5.86.77-12.34,1.54,0,0-6.48.77-12.81,1.39,0,0-6.48.46-13.11,1.23,0,0-6.79.77-13.11,1.54,0,0-6.48.77-12.19,1.23,0,0-5.55.62-10.95,1.08,0,0-5.4.46-10.65,1.08,0,0-5.09.46-10.18,1.23,0,0-5.25.77-10.03,1.23,0,0-4.94.62-9.57,1.08,0,0-4.63.46-8.79,1.08,0,0-4.01.46-8.18.93,0,0-4.17.62-7.71,1.08,0,0-3.55.46-7.25.77,0,0-3.55.31-6.94.77,0,0-3.24.46-6.63,1.08,0,0-3.39.46-6.94,1.54,0,0-3.55.93-6.63,2.31,0,0-3.09,1.23-6.17,3.09,0,0-3.09,1.7-5.71,4.01,0,0-2.62,2.31-5.09,4.94,0,0-2.62,2.62-4.94,5.71,0,0-2.31,3.09-4.63,6.63,0,0-2.31,3.55-4.32,7.71,0,0-2.16,4.17-3.86,8.18,0,0-1.85,4.17-3.7,8.49,0,0-1.7,4.47-3.55,9.26,0,0-1.85,4.94-3.39,10.03,0,0-1.54,5.25-2.47,10.8l-1.08,5.71" vector-effect="non-scaling-stroke"/>
    <path class="st1" d="M100.26,610.97c-.31,2.78-.77,5.4-1.23,8.02,0,0-.31,2.78-.77,7.87,0,0-.62,5.25-1.08,9.87,0,0-.46,4.63-.77,8.95,0,0-.31,4.32-.31,8.79,0,0,0,4.32.62,8.64,0,0,.46,4.47,1.23,8.49,0,0,.77,4.17,2.01,8.02,0,0,1.39,3.86,3.09,7.41,0,0,1.85,3.7,4.47,7.25,0,0,2.47,3.55,5.55,7.25,0,0,3.09,3.55,6.17,7.71,0,0,3.09,4.01,6.02,8.18,0,0,2.78,4.17,4.63,8.49,0,0,1.7,4.32,3.24,8.95,0,0,1.54,4.63,2.62,9.87,0,0,1.08,5.09,2.31,10.49,0,0,1.23,5.4,2.31,10.49,0,0,1.08,5.25,2.01,10.34,0,0,1.08,5.09,1.85,10.03,0,0,.77,4.94,1.54,9.57,0,0,.77,4.63,1.23,8.18,0,0,.62,3.55,1.08,6.63,0,0,.46,3.09,1.08,5.4,0,0,.46,2.31,1.23,4.94,0,0,.77,2.62,1.23,4.94,0,0,.62,2.31.77,4.78,0,0,.31,2.62,0,4.63,0,0-.15,2.16-.93,4.17,0,0-.77,2.01-2.16,4.32,0,0-1.23,2.31-2.78,4.63l-3.09,4.63s-1.54,2.31-3.09,4.17c0,0-1.54,1.85-2.78,3.55,0,0-1.39,1.85-2.62,3.39,0,0-1.23,1.54-2.01,3.39,0,0-.77,1.7-1.39,3.55,0,0-.46,1.85-.46,4.17v4.78s0,2.62.46,6.02c0,0,.62,3.24,1.39,7.1,0,0,.77,3.86,2.01,8.02,0,0,1.23,4.17,2.62,8.49,0,0,1.23,4.32,3.09,8.95,0,0,1.7,4.63,4.01,9.57,0,0,2.31,4.94,4.63,9.72,0,0,2.31,4.94,4.94,9.26,0,0,2.62,4.47,4.94,8.49,0,0,2.31,4.17,5.09,8.33,0,0,2.78,4.01,5.71,8.18,0,0,2.78,4.17,5.86,7.71,0,0,3.09,3.55,6.17,6.63,0,0,3.09,3.09,6.48,5.71,0,0,3.24,2.62,6.94,5.09,0,0,3.55,2.62,7.1,4.63,0,0,3.7,2.16,6.79,3.86,0,0,3.09,1.85,5.4,2.93,0,0,2.31.93,4.01,2.01,0,0,1.85,1.08,3.09,1.54,0,0,1.39.46,2.62,1.23,0,0,1.23.77,2.62,1.54,0,0,1.23.77,2.78,1.85,0,0,1.54,1.08,2.78,2.01,0,0,1.39,1.08,2.31,2.16,0,0,1.08.93,1.54,2.47,0,0,.62,1.54.77,3.39,0,0,.31,1.85.31,3.55v3.39s0,1.54-.46,2.78c0,0-.62,1.39-1.54,2.62,0,0-1.08,1.23-2.31,2.31,0,0-1.39,1.08-2.93,2.01,0,0-1.54,1.08-3.24,1.85,0,0-1.85.77-4.17,1.54,0,0-2.31.77-4.94,1.54,0,0-2.47.77-5.4,1.54,0,0-2.78.77-6.17,1.54,0,0-3.24.77-6.63,1.23,0,0-3.39.62-6.63,1.39,0,0-3.39.77-6.48,1.23,0,0-3.09.46-5.86,1.08,0,0-2.93.46-5.25.46h-8.18s-1.85,0-3.55-.31c0,0-1.85-.15-3.39-.77,0,0-1.54-.46-3.09-1.54,0,0-1.54-.93-3.09-2.31,0,0-1.54-1.23-2.78-3.09,0,0-1.39-1.7-2.31-3.86,0,0-1.08-2.01-1.54-4.63,0,0-.62-2.47-1.08-5.55,0,0-.46-3.09-1.23-6.48,0,0-.77-3.39-2.31-6.94,0,0-1.54-3.55-3.7-7.25,0,0-2.01-3.55-4.63-7.87,0,0-2.47-4.47-5.4-9.26,0,0-2.78-4.94-6.17-10.65,0,0-3.24-5.55-6.63-11.57,0,0-3.39-5.86-6.63-12.81,0,0-3.39-6.94-6.48-14.35,0,0-3.09-7.56-6.17-16.05,0,0-3.09-8.49-5.86-17.13,0,0-2.93-8.79-5.71-18.05,0,0-2.78-9.26-5.4-18.82,0,0-2.62-9.41-5.4-19.44,0,0-2.78-10.03-5.4-20.83,0,0-2.62-10.8-4.94-22.37,0,0-2.31-11.57-4.01-23.14,0,0-1.85-11.57-3.39-31.47l-1.54-19.75" vector-effect="non-scaling-stroke"/>
  </g>
  <path class="st0" d="M55.52,740.57c0-3.39,0-6.94-.31-10.65,0,0-.15-3.7-.77-10.95,0,0-.46-7.25-1.23-14.66,0,0-.77-7.41-1.23-14.97,0,0-.62-7.41-.77-14.81,0,0-.31-7.56,0-15.27,0,0,.15-7.71.93-15.43,0,0,.77-7.71,1.85-15.58,0,0,1.08-8.02,2.31-15.74,0,0,1.23-7.71,2.62-15.12,0,0,1.23-7.56,2.78-14.5,0,0,1.54-6.94,3.09-13.11,0,0,1.54-6.17,2.78-11.57,0,0,1.39-5.4,2.31-10.03,0,0,1.08-4.63,1.54-8.18,0,0,.62-3.55.77-6.48,0,0,.31-2.78.62-4.78,0,0,.15-2.16.77-3.86,0,0,.46-1.85,1.23-3.39,0,0,.77-1.54,1.85-3.39,0,0,.93-1.7,2.01-3.55,0,0,1.08-1.85,2.62-3.55,0,0,1.54-1.85,3.24-3.09,0,0,1.85-1.39,4.47-2.31,0,0,2.47-1.08,5.55-1.85,0,0,3.09-.77,6.79-1.54,0,0,3.55-.77,7.87-1.54,0,0,4.47-.77,9.26-1.23,0,0,4.94-.62,10.34-1.08,0,0,5.4-.46,10.8-1.08,0,0,5.4-.46,11.26-1.23,0,0,6.02-.77,12.19-1.85,0,0,6.17-.93,12.81-2.01,0,0,6.63-1.08,13.42-2.31,0,0,6.63-1.23,13.58-2.62,0,0,6.94-1.23,14.19-3.09,0,0,7.1-1.7,14.35-3.55,0,0,7.25-1.85,14.35-3.86,0,0,7.25-2.01,14.66-4.17,0,0,7.56-2.01,15.27-4.01,0,0,7.71-2.16,15.89-3.86,0,0,8.18-1.85,16.2-3.09,0,0,8.02-1.39,16.2-2.62,0,0,8.18-1.23,16.2-2.62,0,0,8.02-1.23,16.2-2.78,0,0,8.18-1.54,16.51-3.55,0,0,8.18-2.16,16.35-5.25,0,0,8.33-3.09,16.82-6.94,0,0,8.49-3.86,16.66-7.71,0,0,8.18-3.86,16.97-7.1,0,0,8.79-3.39,17.28-6.17,0,0,8.49-2.93,16.97-5.25,0,0,8.49-2.31,16.35-3.86,0,0,8.02-1.54,16.05-2.78,0,0,7.87-1.23,15.89-2.31,0,0,8.02-1.08,15.12-2.01,0,0,7.25-1.08,13.42-2.16,0,0,6.17-.93,11.57-2.01,0,0,5.4-1.08,10.49-2.62,0,0,5.25-1.54,10.03-3.24,0,0,4.94-1.85,9.1-4.47,0,0,4.01-2.47,7.87-5.4,0,0,3.86-2.78,7.56-5.86,0,0,3.55-3.09,6.94-6.48,0,0,3.24-3.24,6.33-6.94,0,0,3.09-3.55,5.4-7.41,0,0,2.31-3.86,4.17-8.02,0,0,1.85-4.01,2.62-8.18,0,0,.77-4.17.93-8.18,0,0,.31-4.17,0-8.49,0,0-.15-4.47-.77-8.49,0,0-.46-4.17-1.54-8.79,0,0-.93-4.63-2.31-8.79,0,0-1.23-4.01-3.09-8.49,0,0-1.7-4.32-4.01-8.18,0,0-2.31-3.86-4.94-7.41,0,0-2.62-3.7-5.4-6.94,0,0-2.78-3.39-5.4-6.17,0,0-2.62-2.93-5.09-5.25,0,0-2.62-2.31-4.94-4.32,0,0-2.31-2.01-4.32-3.86,0,0-2.16-1.85-3.86-3.86,0,0-1.85-2.01-3.39-4.32,0,0-1.54-2.31-2.78-5.25,0,0-1.39-2.78-2.16-5.86,0,0-.77-3.09-.93-6.17,0,0-.31-3.09.15-6.48,0,0,.62-3.24,1.54-6.94,0,0,1.08-3.55,2.93-7.71,0,0,1.7-4.01,3.86-8.18,0,0,2.01-4.17,4.63-8.18,0,0,2.47-4.17,5.4-8.33,0,0,2.78-4.01,6.17-8.49,0,0,3.24-4.32,6.63-8.95,0,0,3.39-4.63,6.94-9.57,0,0,3.55-4.78,7.25-9.72,0,0,3.55-4.94,7.41-9.72l7.71-9.87s3.86-4.78,7.41-9.41c0,0,3.7-4.63,7.25-9.57,0,0,3.55-4.94,9.57-12.81l5.86-8.02" vector-effect="non-scaling-stroke"/>
  <path class="st2" d="M669.58,77.14c1.85-1.85,3.86-3.86,5.55-5.86,0,0,1.7-1.85,4.94-5.4,0,0,3.39-3.7,6.17-7.25,0,0,2.93-3.55,5.25-6.63,0,0,2.31-3.09,4.01-6.02,0,0,1.85-2.78,3.39-4.78,0,0,1.54-2.16,3.09-3.86,0,0,1.54-1.85,2.78-3.39,0,0,1.39-1.54,2.62-3.09,0,0,1.23-1.54,2.78-3.09,0,0,1.54-1.54,3.39-2.62,0,0,1.85-.93,4.17-1.54,0,0,2.31-.46,4.63-.46,0,0,2.31,0,4.63.46,0,0,2.31.62,4.32,1.54,0,0,2.01,1.08,3.86,2.93,0,0,1.85,1.7,3.55,3.55,0,0,1.85,1.85,3.09,4.17,0,0,1.39,2.31,2.31,4.63,0,0,1.08,2.31,1.54,5.4,0,0,.62,3.09,1.08,5.86,0,0,.46,2.78.77,5.86,0,0,.31,3.09,1.08,5.71,0,0,.77,2.62,1.23,5.4,0,0,.46,2.78,1.54,5.4,0,0,1.08,2.62,2.01,5.09,0,0,1.08,2.62,2.62,5.25,0,0,1.54,2.47,3.09,5.4l3.09,5.55s1.54,2.93,2.78,5.25c0,0,1.39,2.31,2.62,4.32,0,0,1.23,2.01,2.31,3.55,0,0,1.08,1.54,2.01,3.39,0,0,1.08,1.85,1.85,3.09,0,0,.77,1.23,1.54,2.78,0,0,.77,1.54,1.54,2.62,0,0,.77,1.08,1.54,2.62,0,0,.77,1.54,1.85,2.78,0,0,.93,1.23,2.31,2.62,0,0,1.23,1.23,2.78,1.7,0,0,1.54.62,2.78.77,0,0,1.39.31,2.62,0,0,0,1.23-.15,2.31-.77,0,0,1.08-.46,2.01-1.23,0,0,1.08-.77,1.85-1.54,0,0,.77-.77,1.23-1.54,0,0,.62-.77,1.08-1.54,0,0,.46-.77.77-1.54,0,0,.31-.77.46-1.54,0,0,.31-.77,0-1.54,0,0-.15-.77-.77-1.85,0,0-.46-.93-.93-2.01,0,0-.62-1.08-1.08-2.31,0,0-.46-1.23-1.08-2.31,0,0-.46-1.08-1.7-2.31,0,0-1.39-1.23-2.62-2.62,0,0-1.23-1.23-2.78-2.78,0,0-1.54-1.54-3.09-3.39,0,0-1.54-1.7-3.7-4.01,0,0-2.01-2.31-4.01-4.94,0,0-2.16-2.62-3.86-4.94,0,0-1.85-2.31-3.39-4.01,0,0-1.54-1.85-2.78-3.7,0,0-1.39-1.7-2.31-3.86,0,0-1.08-2.01-1.85-4.32,0,0-.77-2.31-1.08-4.32,0,0-.15-2.16,0-4.17,0,0,.31-2.01,1.08-3.86,0,0,.77-1.85,1.85-3.55,0,0,.93-1.85,2.31-3.39,0,0,1.23-1.54,3.09-2.78,0,0,1.7-1.39,4.01-2.62,0,0,2.31-1.23,4.94-2.31,0,0,2.62-1.08,5.4-2.31,0,0,2.78-1.23,5.86-2.62,0,0,3.09-1.23,6.79-2.47,0,0,3.55-1.39,7.1-2.62,0,0,3.7-1.23,6.94-2.31,0,0,3.39-1.08,6.48-2.01,0,0,3.09-1.08,5.86-1.54,0,0,2.93-.62,5.4-.77,0,0,2.62-.31,4.94-.31h4.63s2.31,0,4.63.46c0,0,2.31.62,4.32,1.54,0,0,2.16,1.08,3.7,2.93,0,0,1.54,1.7,2.78,3.86,0,0,1.23,2.01,2.01,4.63,0,0,.77,2.47,1.39,5.55,0,0,.46,3.09.15,6.48,0,0-.15,3.39-.77,7.41,0,0-.46,4.17-1.23,8.49,0,0-.77,4.47-1.23,9.87,0,0-.62,5.4-1.39,10.95,0,0-.77,5.71-1.23,12.34,0,0-.46,6.79-1.54,13.89,0,0-1.08,7.25-1.85,14.97,0,0-.77,7.71-2.01,15.12,0,0-1.23,7.56-2.62,14.66,0,0-1.23,7.25-2.78,14.5,0,0-1.54,7.1-3.39,14.35,0,0-1.7,7.25-4.01,14.97,0,0-2.31,7.71-4.94,15.12,0,0-2.62,7.41-5.09,15.12,0,0-2.62,7.71-5.25,14.97,0,0-2.47,7.25-5.4,14.35,0,0-2.78,7.25-5.86,13.89,0,0-3.09,6.79-6.48,13.73,0,0-3.24,6.94-6.94,13.89,0,0-3.55,6.94-7.41,13.58,0,0-3.86,6.63-8.18,12.65,0,0-4.47,5.86-9.26,10.95,0,0-4.94,5.25-10.8,10.03,0,0-6.02,4.94-12.19,9.1,0,0-6.17,4.01-12.81,7.87,0,0-6.63,3.86-13.42,7.56,0,0-6.63,3.55-13.58,7.41,0,0-6.94,3.86-14.19,7.71,0,0-7.1,3.86-14.66,7.71l-14.81,7.71s-7.56,3.86-14.66,7.71c0,0-7.25,3.86-14.19,7.41,0,0-6.94,3.7-13.89,6.79l-13.89,6.17s-6.94,3.09-13.58,5.55c0,0-6.79,2.62-13.11,5.25,0,0-6.48,2.47-12.96,4.32,0,0-6.33,1.85-12.81,3.86,0,0-6.48,2.01-12.65,3.86,0,0-6.17,1.85-12.34,3.55,0,0-6.17,1.85-12.03,3.09,0,0-5.86,1.39-12.03,2.31,0,0-6.17,1.08-11.57,2.16,0,0-5.4.93-10.65,2.01,0,0-5.09,1.08-9.41,1.85,0,0-4.47.77-8.02,1.23,0,0-3.55.46-6.48.77,0,0-2.78.31-4.78.77,0,0-2.16.46-3.86.77,0,0-1.85.31-3.39.46,0,0-1.54.31-3.09.31,0,0-1.54,0-3.09.31,0,0-1.54.15-3.09.46,0,0-1.54.31-2.78.77,0,0-1.39.46-2.62,1.08,0,0-1.23.46-2.31,1.23,0,0-1.08.77-2.31,1.85,0,0-1.23.93-2.01,2.01,0,0-.77,1.08-1.39,2.31,0,0-.46,1.23-.46,2.31,0,0,0,1.08-.31,2.31,0,0-.15,1.23-.46,2.31,0,0-.31,1.08-.77,2.01,0,0-.46,1.08-.77,2.16,0,0-.31.93-1.08,2.01,0,0-.77,1.08-1.54,2.31,0,0-.77,1.23-2.01,2.01,0,0-1.23.77-2.62,1.54,0,0-1.23.77-2.78,1.39l-3.09.93s-1.54.62-3.39.77c0,0-1.7.31-3.55,0,0,0-1.85-.15-3.55-.77,0,0-1.85-.46-3.7-1.23,0,0-1.7-.77-3.55-1.85,0,0-1.85-.93-3.86-1.7,0,0-2.01-.77-4.32-1.54,0,0-2.31-.77-5.25-1.08,0,0-2.78-.31-6.33-.46,0,0-3.7-.31-7.71,0,0,0-4.17.15-8.79.46,0,0-4.63.31-9.57.77,0,0-4.78.46-10.49,1.23,0,0-5.71.77-11.57,1.54,0,0-5.86.77-12.34,1.54,0,0-6.48.77-12.81,1.39,0,0-6.48.46-13.11,1.23,0,0-6.79.77-13.11,1.54,0,0-6.48.77-12.19,1.23,0,0-5.55.62-10.95,1.08,0,0-5.4.46-10.65,1.08,0,0-5.09.46-10.18,1.23,0,0-5.25.77-10.03,1.23,0,0-4.94.62-9.57,1.08,0,0-4.63.46-8.79,1.08,0,0-4.01.46-8.18.93,0,0-4.17.62-7.71,1.08,0,0-3.55.46-7.25.77,0,0-3.55.31-6.94.77,0,0-3.24.46-6.63,1.08,0,0-3.39.46-6.94,1.54,0,0-3.55.93-6.63,2.31,0,0-3.09,1.23-6.17,3.09,0,0-3.09,1.7-5.71,4.01,0,0-2.62,2.31-5.09,4.94,0,0-2.62,2.62-4.94,5.71,0,0-2.31,3.09-4.63,6.63,0,0-2.31,3.55-4.32,7.71,0,0-2.16,4.17-3.86,8.18,0,0-1.85,4.17-3.7,8.49,0,0-1.7,4.47-3.55,9.26,0,0-1.85,4.94-3.39,10.03,0,0-1.54,5.25-2.47,10.8l-1.08,5.71" vector-effect="non-scaling-stroke"/>
  <path class="st3" d="M100.26,610.97c-.31,2.78-.77,5.4-1.23,8.02,0,0-.31,2.78-.77,7.87,0,0-.62,5.25-1.08,9.87,0,0-.46,4.63-.77,8.95,0,0-.31,4.32-.31,8.79,0,0,0,4.32.62,8.64,0,0,.46,4.47,1.23,8.49,0,0,.77,4.17,2.01,8.02,0,0,1.39,3.86,3.09,7.41,0,0,1.85,3.7,4.47,7.25,0,0,2.47,3.55,5.55,7.25,0,0,3.09,3.55,6.17,7.71,0,0,3.09,4.01,6.02,8.18,0,0,2.78,4.17,4.63,8.49,0,0,1.7,4.32,3.24,8.95,0,0,1.54,4.63,2.62,9.87,0,0,1.08,5.09,2.31,10.49,0,0,1.23,5.4,2.31,10.49,0,0,1.08,5.25,2.01,10.34,0,0,1.08,5.09,1.85,10.03,0,0,.77,4.94,1.54,9.57,0,0,.77,4.63,1.23,8.18,0,0,.62,3.55,1.08,6.63,0,0,.46,3.09,1.08,5.4,0,0,.46,2.31,1.23,4.94,0,0,.77,2.62,1.23,4.94,0,0,.62,2.31.77,4.78,0,0,.31,2.62,0,4.63,0,0-.15,2.16-.93,4.17,0,0-.77,2.01-2.16,4.32,0,0-1.23,2.31-2.78,4.63l-3.09,4.63s-1.54,2.31-3.09,4.17c0,0-1.54,1.85-2.78,3.55,0,0-1.39,1.85-2.62,3.39,0,0-1.23,1.54-2.01,3.39,0,0-.77,1.7-1.39,3.55,0,0-.46,1.85-.46,4.17v4.78s0,2.62.46,6.02c0,0,.62,3.24,1.39,7.1,0,0,.77,3.86,2.01,8.02,0,0,1.23,4.17,2.62,8.49,0,0,1.23,4.32,3.09,8.95,0,0,1.7,4.63,4.01,9.57,0,0,2.31,4.94,4.63,9.72,0,0,2.31,4.94,4.94,9.26,0,0,2.62,4.47,4.94,8.49,0,0,2.31,4.17,5.09,8.33,0,0,2.78,4.01,5.71,8.18,0,0,2.78,4.17,5.86,7.71,0,0,3.09,3.55,6.17,6.63,0,0,3.09,3.09,6.48,5.71,0,0,3.24,2.62,6.94,5.09,0,0,3.55,2.62,7.1,4.63,0,0,3.7,2.16,6.79,3.86,0,0,3.09,1.85,5.4,2.93,0,0,2.31.93,4.01,2.01,0,0,1.85,1.08,3.09,1.54,0,0,1.39.46,2.62,1.23,0,0,1.23.77,2.62,1.54,0,0,1.23.77,2.78,1.85,0,0,1.54,1.08,2.78,2.01,0,0,1.39,1.08,2.31,2.16,0,0,1.08.93,1.54,2.47,0,0,.62,1.54.77,3.39,0,0,.31,1.85.31,3.55v3.39s0,1.54-.46,2.78c0,0-.62,1.39-1.54,2.62,0,0-1.08,1.23-2.31,2.31,0,0-1.39,1.08-2.93,2.01,0,0-1.54,1.08-3.24,1.85,0,0-1.85.77-4.17,1.54,0,0-2.31.77-4.94,1.54,0,0-2.47.77-5.4,1.54,0,0-2.78.77-6.17,1.54,0,0-3.24.77-6.63,1.23,0,0-3.39.62-6.63,1.39,0,0-3.39.77-6.48,1.23,0,0-3.09.46-5.86,1.08,0,0-2.93.46-5.25.46h-8.18s-1.85,0-3.55-.31c0,0-1.85-.15-3.39-.77,0,0-1.54-.46-3.09-1.54,0,0-1.54-.93-3.09-2.31,0,0-1.54-1.23-2.78-3.09,0,0-1.39-1.7-2.31-3.86,0,0-1.08-2.01-1.54-4.63,0,0-.62-2.47-1.08-5.55,0,0-.46-3.09-1.23-6.48,0,0-.77-3.39-2.31-6.94,0,0-1.54-3.55-3.7-7.25,0,0-2.01-3.55-4.63-7.87,0,0-2.47-4.47-5.4-9.26,0,0-2.78-4.94-6.17-10.65,0,0-3.24-5.55-6.63-11.57,0,0-3.39-5.86-6.63-12.81,0,0-3.39-6.94-6.48-14.35,0,0-3.09-7.56-6.17-16.05,0,0-3.09-8.49-5.86-17.13,0,0-2.93-8.79-5.71-18.05,0,0-2.78-9.26-5.4-18.82,0,0-2.62-9.41-5.4-19.44,0,0-2.78-10.03-5.4-20.83,0,0-2.62-10.8-4.94-22.37,0,0-2.31-11.57-4.01-23.14,0,0-1.85-11.57-3.39-31.47l-1.54-19.75" vector-effect="non-scaling-stroke"/>
  <g id="moving-circle-group">
    <circle cx="55.52" cy="740.57" r="30.86" vector-effect="non-scaling-stroke"/>
    <circle class="st4" cx="55.52" cy="740.57" r="10.8" vector-effect="non-scaling-stroke"/>
  </g>
</svg>