<?xml version="1.0" encoding="UTF-8"?>
<svg id="minimap-svg" xmlns="http://www.w3.org/2000/svg" version="1.1" viewBox="0 0 667.28 1080">
  <!-- Generator: Adobe Illustrator 30.0.0, SVG Export Plug-In . SVG Version: 2.1.1 Build 123)  -->
  <defs>
    <style>
      .st0 {
        stroke: #ef4444;
      }

      .st0, .st1, .st2, .st3 {
        fill: none;
        stroke-miterlimit: 6.17;
      }

      .st0, .st2, .st3 {
        stroke-width: 3.09px;
      }

      .st1 {
        stroke: #000;
        stroke-width: 12.34px;
      }

      .st2 {
        stroke: #3b82f6;
      }

      .st3 {
        stroke: #fbbf24;
      }

      .st4 {
        fill: #fff;
      }
    </style>
  </defs>
  <g>
    <path class="st1" d="M50.53,816.17c.31-4.32.77-8.49,1.23-12.96,0,0,.31-4.47,1.08-13.27,0,0,.77-8.79,1.54-17.74,0,0,.77-8.95,1.54-18.05,0,0,.77-8.95,1.54-18.21,0,0,.77-9.26,1.85-18.21,0,0,.93-9.1,2.01-18.05,0,0,1.08-8.95,2.01-18.05,0,0,1.08-8.95,1.85-18.21,0,0,.77-9.26,1.54-18.82,0,0,.77-9.41,1.54-18.98,0,0,.77-9.57,1.85-19.29,0,0,.93-9.72,2.01-19.59,0,0,1.08-9.72,2.01-19.44,0,0,1.08-9.87,1.85-19.29,0,0,.77-9.57,1.54-18.82l1.54-18.51s.77-9.26,1.54-18.82c0,0,.77-9.41,1.54-18.67,0,0,.77-9.26,1.54-17.59,0,0,.77-8.18,1.23-14.66,0,0,.62-6.33,1.08-11.26,0,0,.46-4.94.77-8.49,0,0,.31-3.55.46-6.48,0,0,.31-2.78.31-4.78,0,0,0-2.16.31-3.86,0,0,.15-1.85.46-3.39,0,0,.31-1.54.46-3.09l.62-3.09s.15-1.54.77-2.78c0,0,.46-1.39,1.23-2.16,0,0,.77-.77,1.85-1.23,0,0,.93-.46,2.31-.77,0,0,1.23-.31,2.47-.31h5.25s1.23,0,2.47-.77c0,0,1.39-.77,2.16-1.54,0,0,.77-.77.93-2.01,0,0,.31-1.23.31-2.62,0,0,0-1.23-.31-2.78,0,0-.15-1.54-.77-4.17,0,0-.46-2.47-1.23-5.55,0,0-.77-3.09-1.85-7.25,0,0-.93-4.17-2.01-8.18,0,0-1.08-4.17-2.01-8.79,0,0-1.08-4.63-1.85-9.57,0,0-.77-4.78-1.23-10.03,0,0-.62-5.09-.77-10.8,0,0-.31-5.55-.31-11.57,0,0,0-5.86.31-12.03,0,0,.15-6.17.77-12.34,0,0,.46-6.17.93-12.65,0,0,.62-6.33,1.39-12.81,0,0,.77-6.48,1.7-13.11,0,0,1.08-6.63,2.62-12.81,0,0,1.54-6.17,3.55-12.34,0,0,2.16-6.17,4.47-11.88,0,0,2.31-5.71,5.4-11.11,0,0,3.09-5.4,6.33-10.49,0,0,3.39-5.09,7.56-10.03,0,0,4.01-4.94,8.64-9.57,0,0,4.63-4.63,9.87-8.64,0,0,5.09-4.17,10.49-7.71,0,0,5.4-3.7,11.11-6.94,0,0,5.55-3.39,11.73-6.17,0,0,6.17-2.93,12.65-5.4,0,0,6.48-2.62,13.11-4.63,0,0,6.63-2.16,13.42-3.7,0,0,6.63-1.54,13.58-2.47,0,0,6.94-1.08,13.89-1.85,0,0,6.94-.77,14.19-1.54,0,0,7.1-.77,14.35-1.23,0,0,7.25-.62,22.06-1.54l14.97-1.08" vector-effect="non-scaling-stroke"/>
    <path class="st1" d="M315.9,109.54c3.86-.31,7.71-.77,11.57-1.23,0,0,3.86-.31,11.88-.77,0,0,7.87-.62,15.89-1.08,0,0,8.02-.46,15.12-.77,0,0,7.25-.31,13.11-.46,0,0,6.02-.31,10.34-.31h14.35s2.93,0,5.25-.31c0,0,2.31-.15,4.32-.46,0,0,2.01-.31,3.86-1.08,0,0,1.85-.77,3.39-1.54,0,0,1.54-.77,2.47-2.01,0,0,1.08-1.23,1.85-2.78,0,0,.77-1.54,1.54-3.39,0,0,.77-1.85,1.54-3.55,0,0,.77-1.85,1.85-3.09,0,0,.93-1.39,2.31-2.16,0,0,1.23-.77,2.78-1.23,0,0,1.54-.46,3.39-1.08,0,0,1.7-.46,4.01-1.23,0,0,2.31-.77,5.4-1.23,0,0,3.09-.62,6.79-1.39,0,0,3.55-.77,7.41-1.7,0,0,3.86-1.08,8.02-2.62,0,0,4.01-1.54,8.64-3.39,0,0,4.63-1.7,9.87-3.55,0,0,5.09-1.85,10.8-3.86,0,0,5.55-2.01,11.57-4.17,0,0,5.86-2.01,12.03-4.32,0,0,6.17-2.31,12.03-4.32,0,0,6.02-2.16,11.42-3.86,0,0,5.4-1.85,10.03-2.93,0,0,4.63-.93,8.49-1.54,0,0,3.86-.46,6.94-.46,0,0,3.09,0,5.86.31,0,0,2.78.15,5.4.93,0,0,2.62.77,5.09,2.31,0,0,2.62,1.54,4.94,3.7,0,0,2.31,2.01,4.63,4.63,0,0,2.31,2.47,4.17,5.55,0,0,1.7,3.09,3.09,6.48,0,0,1.23,3.39,1.7,7.25,0,0,.62,3.86.77,7.87,0,0,.31,4.17.62,9.1,0,0,.15,4.78.77,10.18,0,0,.46,5.4,1.23,11.42,0,0,.77,5.86,1.54,12.34,0,0,.77,6.33,1.54,12.81,0,0,.77,6.48,1.23,12.81,0,0,.62,6.48.77,11.88,0,0,.31,5.4.31,9.72v7.56s0,3.09-.46,5.55c0,0-.62,2.62-1.54,4.94,0,0-1.08,2.31-2.93,4.32,0,0-1.7,2.16-3.86,3.86,0,0-2.01,1.85-4.63,3.09,0,0-2.47,1.39-5.4,2.93,0,0-2.78,1.54-6.33,3.24,0,0-3.7,1.85-7.56,4.17,0,0-3.86,2.31-8.18,4.94,0,0-4.32,2.47-8.95,5.4,0,0-4.63,2.78-10.03,5.55,0,0-5.4,2.93-11.11,6.02,0,0-5.71,3.09-11.57,6.17,0,0-5.86,3.09-11.88,6.63,0,0-5.86,3.55-12.34,7.25,0,0-6.33,3.55-12.81,7.41,0,0-6.48,3.86-13.11,8.02,0,0-6.63,4.01-13.42,8.49,0,0-6.63,4.32-13.27,8.95,0,0-6.79,4.63-13.42,9.57,0,0-6.63,4.78-13.11,10.03,0,0-6.48,5.09-13.11,10.8,0,0-6.63,5.55-13.11,11.26,0,0-6.48,5.71-13.11,11.57,0,0-6.63,5.86-13.11,11.88,0,0-6.48,5.86-13.11,12.03,0,0-6.63,6.17-13.42,12.34,0,0-6.63,6.17-13.58,12.34,0,0-6.94,6.17-20.06,16.97l-13.11,10.8" vector-effect="non-scaling-stroke"/>
    <path class="st1" d="M308.18,415.03c-3.39,3.09-6.94,6.17-10.49,9.57,0,0-3.39,3.24-10.34,9.41,0,0-6.94,6.17-13.42,12.19,0,0-6.33,5.86-12.03,10.8,0,0-5.71,4.78-10.03,8.64,0,0-4.32,3.86-7.71,6.79,0,0-3.39,2.78-5.71,4.78,0,0-2.31,2.16-3.86,4.17,0,0-1.54,2.01-2.31,3.86,0,0-.77,1.85-.93,3.86,0,0-.31,2.01-.31,4.17,0,0,0,2.01.31,4.32,0,0,.15,2.31.46,4.63,0,0,.31,2.31.46,4.63,0,0,.31,2.31.31,4.94,0,0,0,2.47-.31,5.4,0,0-.15,2.78-.77,5.86,0,0-.46,3.09-1.54,6.17,0,0-.93,3.09-2.47,6.17,0,0-1.54,3.09-3.7,5.86,0,0-2.01,2.93-4.63,5.4,0,0-2.47,2.62-5.09,4.94,0,0-2.62,2.31-5.09,4.63,0,0-2.62,2.31-4.47,4.94,0,0-1.7,2.47-2.78,5.4,0,0-1.08,2.78-1.54,6.17,0,0-.46,3.24-1.08,7.1,0,0-.46,3.86-1.23,8.33,0,0-.77,4.32-3.39,26.69,0,0-2.47,22.37-5.09,45.98,0,0-2.62,23.76-5.09,48.6,0,0-2.62,24.99-3.39,33.17,0,0-.77,8.33-1.54,16.51,0,0-.77,8.18-1.54,16.51,0,0-.77,8.18-1.85,16.66,0,0-.93,8.49-2.01,17.28,0,0-1.08,8.64,2.01-21.91,0,0,3.09-30.55,6.48-62.18,0,0,3.39-31.63,6.63-64.03,0,0,3.39-32.4,2.62-26.23,0,0-.77,6.17-1.54,13.11,0,0-.77,6.94-1.23,13.89,0,0-.62,6.94-1.08,14.35,0,0-.46,7.41-1.23,14.97,0,0-.77,7.41-4.17,37.18,0,0-3.39,29.93-6.63,60.17,0,0-3.39,30.39-6.48,60.94,0,0-3.09,30.7-3.86,39.65,0,0-.77,8.95-1.54,18.05,0,0-.77,8.95-1.54,18.21,0,0-.77,9.26-1.85,18.51,0,0-.93,9.26-2.01,18.21,0,0-1.08,9.1-2.01,16.97,0,0-1.08,8.02-1.85,14.19,0,0-.77,6.17-1.54,10.8,0,0-.77,4.63-1.85,8.02,0,0-.93,3.24-2.31,5.86,0,0-1.23,2.62-2.47,4.32,0,0-1.39,1.85-2.62,3.39,0,0-1.23,1.54-2.78,3.09,0,0-1.54,1.54-3.7,3.09,0,0-2.01,1.54-4.63,2.78,0,0-2.47,1.39-5.4,2.16,0,0-2.78.77-6.17.93,0,0-3.24.31-6.94,0,0,0-3.55-.15-7.41-.93,0,0-3.86-.77-7.71-2.16,0,0-3.86-1.23-7.41-3.24,0,0-3.7-2.16-6.94-4.63,0,0-3.39-2.62-6.48-6.02,0,0-3.09-3.24-6.17-6.94,0,0-3.09-3.55-5.86-7.71,0,0-2.93-4.01-5.25-8.64,0,0-2.31-4.63-4.01-9.87,0,0-1.85-5.09-3.09-10.8,0,0-1.39-5.55-2.31-11.57,0,0-1.08-5.86-1.85-12.03,0,0-.77-6.17-1.23-12.34,0,0-.62-6.17-.77-12.34,0,0-.31-6.17-.31-12.34v-25.77s0-6.63.46-18.67c0,0,.62-12.19,1.54-33.94l1.08-21.91" vector-effect="non-scaling-stroke"/>
  </g>
  <path class="st0" d="M50.53,816.17c.31-4.32.77-8.49,1.23-12.96,0,0,.31-4.47,1.08-13.27,0,0,.77-8.79,1.54-17.74,0,0,.77-8.95,1.54-18.05,0,0,.77-8.95,1.54-18.21,0,0,.77-9.26,1.85-18.21,0,0,.93-9.1,2.01-18.05,0,0,1.08-8.95,2.01-18.05,0,0,1.08-8.95,1.85-18.21,0,0,.77-9.26,1.54-18.82,0,0,.77-9.41,1.54-18.98,0,0,.77-9.57,1.85-19.29,0,0,.93-9.72,2.01-19.59,0,0,1.08-9.72,2.01-19.44,0,0,1.08-9.87,1.85-19.29,0,0,.77-9.57,1.54-18.82l1.54-18.51s.77-9.26,1.54-18.82c0,0,.77-9.41,1.54-18.67,0,0,.77-9.26,1.54-17.59,0,0,.77-8.18,1.23-14.66,0,0,.62-6.33,1.08-11.26,0,0,.46-4.94.77-8.49,0,0,.31-3.55.46-6.48,0,0,.31-2.78.31-4.78,0,0,0-2.16.31-3.86,0,0,.15-1.85.46-3.39,0,0,.31-1.54.46-3.09l.62-3.09s.15-1.54.77-2.78c0,0,.46-1.39,1.23-2.16,0,0,.77-.77,1.85-1.23,0,0,.93-.46,2.31-.77,0,0,1.23-.31,2.47-.31h5.25s1.23,0,2.47-.77c0,0,1.39-.77,2.16-1.54,0,0,.77-.77.93-2.01,0,0,.31-1.23.31-2.62,0,0,0-1.23-.31-2.78,0,0-.15-1.54-.77-4.17,0,0-.46-2.47-1.23-5.55,0,0-.77-3.09-1.85-7.25,0,0-.93-4.17-2.01-8.18,0,0-1.08-4.17-2.01-8.79,0,0-1.08-4.63-1.85-9.57,0,0-.77-4.78-1.23-10.03,0,0-.62-5.09-.77-10.8,0,0-.31-5.55-.31-11.57,0,0,0-5.86.31-12.03,0,0,.15-6.17.77-12.34,0,0,.46-6.17.93-12.65,0,0,.62-6.33,1.39-12.81,0,0,.77-6.48,1.7-13.11,0,0,1.08-6.63,2.62-12.81,0,0,1.54-6.17,3.55-12.34,0,0,2.16-6.17,4.47-11.88,0,0,2.31-5.71,5.4-11.11,0,0,3.09-5.4,6.33-10.49,0,0,3.39-5.09,7.56-10.03,0,0,4.01-4.94,8.64-9.57,0,0,4.63-4.63,9.87-8.64,0,0,5.09-4.17,10.49-7.71,0,0,5.4-3.7,11.11-6.94,0,0,5.55-3.39,11.73-6.17,0,0,6.17-2.93,12.65-5.4,0,0,6.48-2.62,13.11-4.63,0,0,6.63-2.16,13.42-3.7,0,0,6.63-1.54,13.58-2.47,0,0,6.94-1.08,13.89-1.85,0,0,6.94-.77,14.19-1.54,0,0,7.1-.77,14.35-1.23,0,0,7.25-.62,22.06-1.54l14.97-1.08" vector-effect="non-scaling-stroke"/>
  <path class="st2" d="M315.9,109.54c3.86-.31,7.71-.77,11.57-1.23,0,0,3.86-.31,11.88-.77,0,0,7.87-.62,15.89-1.08,0,0,8.02-.46,15.12-.77,0,0,7.25-.31,13.11-.46,0,0,6.02-.31,10.34-.31h14.35s2.93,0,5.25-.31c0,0,2.31-.15,4.32-.46,0,0,2.01-.31,3.86-1.08,0,0,1.85-.77,3.39-1.54,0,0,1.54-.77,2.47-2.01,0,0,1.08-1.23,1.85-2.78,0,0,.77-1.54,1.54-3.39,0,0,.77-1.85,1.54-3.55,0,0,.77-1.85,1.85-3.09,0,0,.93-1.39,2.31-2.16,0,0,1.23-.77,2.78-1.23,0,0,1.54-.46,3.39-1.08,0,0,1.7-.46,4.01-1.23,0,0,2.31-.77,5.4-1.23,0,0,3.09-.62,6.79-1.39,0,0,3.55-.77,7.41-1.7,0,0,3.86-1.08,8.02-2.62,0,0,4.01-1.54,8.64-3.39,0,0,4.63-1.7,9.87-3.55,0,0,5.09-1.85,10.8-3.86,0,0,5.55-2.01,11.57-4.17,0,0,5.86-2.01,12.03-4.32,0,0,6.17-2.31,12.03-4.32,0,0,6.02-2.16,11.42-3.86,0,0,5.4-1.85,10.03-2.93,0,0,4.63-.93,8.49-1.54,0,0,3.86-.46,6.94-.46,0,0,3.09,0,5.86.31,0,0,2.78.15,5.4.93,0,0,2.62.77,5.09,2.31,0,0,2.62,1.54,4.94,3.7,0,0,2.31,2.01,4.63,4.63,0,0,2.31,2.47,4.17,5.55,0,0,1.7,3.09,3.09,6.48,0,0,1.23,3.39,1.7,7.25,0,0,.62,3.86.77,7.87,0,0,.31,4.17.62,9.1,0,0,.15,4.78.77,10.18,0,0,.46,5.4,1.23,11.42,0,0,.77,5.86,1.54,12.34,0,0,.77,6.33,1.54,12.81,0,0,.77,6.48,1.23,12.81,0,0,.62,6.48.77,11.88,0,0,.31,5.4.31,9.72v7.56s0,3.09-.46,5.55c0,0-.62,2.62-1.54,4.94,0,0-1.08,2.31-2.93,4.32,0,0-1.7,2.16-3.86,3.86,0,0-2.01,1.85-4.63,3.09,0,0-2.47,1.39-5.4,2.93,0,0-2.78,1.54-6.33,3.24,0,0-3.7,1.85-7.56,4.17,0,0-3.86,2.31-8.18,4.94,0,0-4.32,2.47-8.95,5.4,0,0-4.63,2.78-10.03,5.55,0,0-5.4,2.93-11.11,6.02,0,0-5.71,3.09-11.57,6.17,0,0-5.86,3.09-11.88,6.63,0,0-5.86,3.55-12.34,7.25,0,0-6.33,3.55-12.81,7.41,0,0-6.48,3.86-13.11,8.02,0,0-6.63,4.01-13.42,8.49,0,0-6.63,4.32-13.27,8.95,0,0-6.79,4.63-13.42,9.57,0,0-6.63,4.78-13.11,10.03,0,0-6.48,5.09-13.11,10.8,0,0-6.63,5.55-13.11,11.26,0,0-6.48,5.71-13.11,11.57,0,0-6.63,5.86-13.11,11.88,0,0-6.48,5.86-13.11,12.03,0,0-6.63,6.17-13.42,12.34,0,0-6.63,6.17-13.58,12.34,0,0-6.94,6.17-20.06,16.97l-13.11,10.8" vector-effect="non-scaling-stroke"/>
  <path class="st3" d="M308.18,415.03c-3.39,3.09-6.94,6.17-10.49,9.57,0,0-3.39,3.24-10.34,9.41,0,0-6.94,6.17-13.42,12.19,0,0-6.33,5.86-12.03,10.8,0,0-5.71,4.78-10.03,8.64,0,0-4.32,3.86-7.71,6.79,0,0-3.39,2.78-5.71,4.78,0,0-2.31,2.16-3.86,4.17,0,0-1.54,2.01-2.31,3.86,0,0-.77,1.85-.93,3.86,0,0-.31,2.01-.31,4.17,0,0,0,2.01.31,4.32,0,0,.15,2.31.46,4.63,0,0,.31,2.31.46,4.63,0,0,.31,2.31.31,4.94,0,0,0,2.47-.31,5.4,0,0-.15,2.78-.77,5.86,0,0-.46,3.09-1.54,6.17,0,0-.93,3.09-2.47,6.17,0,0-1.54,3.09-3.7,5.86,0,0-2.01,2.93-4.63,5.4,0,0-2.47,2.62-5.09,4.94,0,0-2.62,2.31-5.09,4.63,0,0-2.62,2.31-4.47,4.94,0,0-1.7,2.47-2.78,5.4,0,0-1.08,2.78-1.54,6.17,0,0-.46,3.24-1.08,7.1,0,0-.46,3.86-1.23,8.33,0,0-.77,4.32-3.39,26.69,0,0-2.47,22.37-5.09,45.98,0,0-2.62,23.76-5.09,48.6,0,0-2.62,24.99-3.39,33.17,0,0-.77,8.33-1.54,16.51,0,0-.77,8.18-1.54,16.51,0,0-.77,8.18-1.85,16.66,0,0-.93,8.49-2.01,17.28,0,0-1.08,8.64,2.01-21.91,0,0,3.09-30.55,6.48-62.18,0,0,3.39-31.63,6.63-64.03,0,0,3.39-32.4,2.62-26.23,0,0-.77,6.17-1.54,13.11,0,0-.77,6.94-1.23,13.89,0,0-.62,6.94-1.08,14.35,0,0-.46,7.41-1.23,14.97,0,0-.77,7.41-4.17,37.18,0,0-3.39,29.93-6.63,60.17,0,0-3.39,30.39-6.48,60.94,0,0-3.09,30.7-3.86,39.65,0,0-.77,8.95-1.54,18.05,0,0-.77,8.95-1.54,18.21,0,0-.77,9.26-1.85,18.51,0,0-.93,9.26-2.01,18.21,0,0-1.08,9.1-2.01,16.97,0,0-1.08,8.02-1.85,14.19,0,0-.77,6.17-1.54,10.8,0,0-.77,4.63-1.85,8.02,0,0-.93,3.24-2.31,5.86,0,0-1.23,2.62-2.47,4.32,0,0-1.39,1.85-2.62,3.39,0,0-1.23,1.54-2.78,3.09,0,0-1.54,1.54-3.7,3.09,0,0-2.01,1.54-4.63,2.78,0,0-2.47,1.39-5.4,2.16,0,0-2.78.77-6.17.93,0,0-3.24.31-6.94,0,0,0-3.55-.15-7.41-.93,0,0-3.86-.77-7.71-2.16,0,0-3.86-1.23-7.41-3.24,0,0-3.7-2.16-6.94-4.63,0,0-3.39-2.62-6.48-6.02,0,0-3.09-3.24-6.17-6.94,0,0-3.09-3.55-5.86-7.71,0,0-2.93-4.01-5.25-8.64,0,0-2.31-4.63-4.01-9.87,0,0-1.85-5.09-3.09-10.8,0,0-1.39-5.55-2.31-11.57,0,0-1.08-5.86-1.85-12.03,0,0-.77-6.17-1.23-12.34,0,0-.62-6.17-.77-12.34,0,0-.31-6.17-.31-12.34v-25.77s0-6.63.46-18.67c0,0,.62-12.19,1.54-33.94l1.08-21.91" vector-effect="non-scaling-stroke"/>
  <g id="moving-circle-group">
    <circle cx="50.53" cy="816.17" r="30.86" vector-effect="non-scaling-stroke"/>
    <circle class="st4" cx="50.53" cy="816.17" r="10.8" vector-effect="non-scaling-stroke"/>
  </g>
</svg>