<?xml version="1.0" encoding="UTF-8"?>
<svg id="minimap-svg" xmlns="http://www.w3.org/2000/svg" version="1.1" viewBox="0 0 1260.66 1080">
  <!-- Generator: Adobe Illustrator 30.0.0, SVG Export Plug-In . SVG Version: 2.1.1 Build 123)  -->
  <defs>
    <style>
      .st0 {
        stroke: #ef4444;
      }

      .st0, .st1, .st2, .st3 {
        fill: none;
        stroke-miterlimit: 7.16;
      }

      .st0, .st2, .st3 {
        stroke-width: 3.58px;
      }

      .st1 {
        stroke: #000;
        stroke-width: 14.33px;
      }

      .st2 {
        stroke: #3b82f6;
      }

      .st3 {
        stroke: #fbbf24;
      }

      .st4 {
        fill: #fff;
      }
    </style>
  </defs>
  <g>
    <path class="st1" d="M202.27,413.73c2.69-7.16,5.37-14.33,8.06-21.85,0,0,2.69-7.34,8.42-21.67,0,0,5.55-14.33,11.64-29.37,0,0,5.91-14.87,11.64-29.19,0,0,5.55-14.33,10.93-28.3,0,0,5.37-14.15,9.85-25.97,0,0,4.48-12,8.78-22.75,0,0,4.12-10.75,7.7-20.6,0,0,3.58-9.85,7.16-19.16,0,0,3.58-9.13,7.16-18.09,0,0,3.58-8.96,6.81-17.01,0,0,3.4-8.06,6.27-15.94,0,0,3.04-7.7,5.73-14.51,0,0,2.69-6.99,5.37-13.79,0,0,2.69-6.81,5.01-13.07,0,0,2.51-6.27,4.48-12,0,0,2.15-5.73,3.94-11.1,0,0,1.79-5.37,3.94-10.39,0,0,1.97-5.01,4.48-10.39,0,0,2.33-5.37,5.37-9.85,0,0,2.87-4.48,6.27-8.42,0,0,3.22-3.94,7.16-6.63,0,0,3.76-2.69,8.24-4.48,0,0,4.48-1.79,9.31-2.87,0,0,4.84-1.25,9.31-1.61,0,0,4.48-.18,8.6,0,0,0,4.12.36,8.6,2.15,0,0,4.48,1.79,8.78,4.12,0,0,4.12,2.51,8.06,5.73,0,0,3.76,3.22,6.81,6.81,0,0,3.04,3.58,5.37,8.42,0,0,2.33,4.84,3.94,10.21,0,0,1.43,5.37,1.43,10.93,0,0,0,5.73-.54,11.1,0,0-.72,5.37-2.51,11.1,0,0-1.79,5.55-3.76,11.64,0,0-2.15,5.91-4.84,11.82,0,0-2.69,6.09-5.73,12.36,0,0-2.87,6.27-5.91,12.72,0,0-3.04,6.63-5.91,13.43,0,0-3.04,6.99-5.73,13.79,0,0-2.69,6.81-5.37,13.97,0,0-2.69,7.16-5.73,15.04,0,0-2.87,7.7-5.55,15.76,0,0-2.69,8.06-5.19,16.12,0,0-2.33,8.06-3.76,16.48,0,0-1.61,8.24-2.69,17.01,0,0-1.25,8.6-1.79,17.55,0,0-.72,8.96-.9,17.91,0,0-.36,8.96-.36,17.55v16.84s0,8.06-.36,15.4c0,0-.18,7.52-1.07,14.69,0,0-.9,7.16-2.69,13.97,0,0-1.79,6.99-4.48,12.9,0,0-2.69,5.91-6.63,11.1,0,0-3.94,5.01-8.6,8.96,0,0-4.84,3.76-10.75,7.34,0,0-6.09,3.58-12.54,6.27,0,0-6.63,2.69-13.79,5.73,0,0-7.16,3.04-13.79,5.73,0,0-6.45,2.69-12.72,5.37,0,0-6.27,2.69-11.64,5.01,0,0-5.37,2.33-10.57,5.01,0,0-5.01,2.69-9.13,6.09,0,0-4.3,3.22-8.06,7.16,0,0-3.94,3.76-6.63,8.06,0,0-2.69,4.12-4.12,8.96,0,0-1.61,4.66-1.61,9.85,0,0,0,5.01,1.25,10.03,0,0,1.25,5.19,3.58,9.67,0,0,2.33,4.48,6.27,8.06,0,0,3.94,3.58,8.42,6.27,0,0,4.48,2.69,9.85,4.48,0,0,5.37,1.79,10.75,2.33,0,0,5.37.54,11.28,0,0,0,5.91-.54,12-2.15,0,0,5.91-1.43,12.18-3.58,0,0,6.27-1.97,13.07-4.48,0,0,6.99-2.33,13.79-5.01,0,0,6.81-2.69,14.87-5.37l16.12-5.37s8.06-2.69,17.37-5.37c0,0,9.31-2.69,18.45-5.37,0,0,9.31-2.69,18.81-5.01,0,0,9.67-2.51,19.52-4.48,0,0,9.85-2.15,19.88-3.4,0,0,10.21-1.07,20.6-1.79,0,0,10.57-.54,20.96-.18,0,0,10.39.18,21.13,1.07,0,0,10.75.9,21.85,2.51,0,0,11.1,1.43,22.03,3.22l22.21,3.58s10.93,1.79,22.39,3.94c0,0,11.28,1.97,22.57,3.76,0,0,11.46,1.79,22.39,3.04,0,0,11.1,1.25,21.85,1.43,0,0,10.75.36,21.13-.54,0,0,10.57-.9,20.6-2.69,0,0,10.21-1.79,20.42-5.01,0,0,10.03-3.4,19.7-6.99,0,0,9.49-3.58,18.99-8.24,0,0,9.67-4.84,18.81-10.21,0,0,9.31-5.37,19.52-11.64,0,0,10.03-6.27,19.88-12.18,0,0,9.85-6.09,20.06-11.64,0,0,10.21-5.73,19.7-10.21,0,0,9.49-4.48,20.06-8.42,0,0,10.39-3.76,20.6-6.27,0,0,10.03-2.33,20.78-4.12,0,0,10.75-1.79,26.69-2.69l15.76-.9" vector-effect="non-scaling-stroke"/>
    <path class="st1" d="M979.58,402.99c6.27,0,12.54,0,18.27.36,0,0,5.55.18,17.19.54,0,0,11.64.36,23.1.54,0,0,11.28.36,22.03.72,0,0,10.75.18,20.6.9,0,0,9.85.54,18.81,1.43,0,0,8.96.9,17.37,2.15,0,0,8.24,1.07,16.3,2.87,0,0,8.06,1.79,15.22,4.48,0,0,7.16,2.69,14.15,6.27,0,0,6.81,3.58,12.72,8.06,0,0,6.09,4.48,11.64,9.67,0,0,5.73,5.01,11.1,10.75,0,0,5.37,5.55,9.85,12.18,0,0,4.48,6.63,8.42,13.79,0,0,3.76,7.16,6.45,14.87,0,0,2.69,7.7,4.48,15.58,0,0,1.79,7.7,2.51,15.76,0,0,.54,8.06,0,16.12,0,0-.72,8.06-2.15,16.12,0,0-1.43,8.06-4.12,15.76,0,0-2.69,7.88-6.27,15.58,0,0-3.58,7.7-7.88,14.87,0,0-4.12,7.16-8.96,14.69,0,0-4.66,7.52-9.13,14.69,0,0-4.48,7.16-9.67,14.51,0,0-5.01,7.52-9.85,15.04,0,0-4.66,7.34-9.85,15.22,0,0-5.01,7.7-9.13,15.4,0,0-4.3,7.88-8.42,15.58,0,0-4.12,7.7-8.06,15.58,0,0-3.94,7.7-7.7,15.76,0,0-3.94,8.06-7.52,16.12l-7.16,16.12s-3.58,8.06-7.16,15.58c0,0-3.58,7.34-6.81,14.33,0,0-3.4,6.81-6.63,12.54,0,0-3.22,5.55-6.81,10.75,0,0-3.58,5.01-8.06,8.96,0,0-4.48,3.76-9.67,6.81,0,0-5.01,3.04-10.75,5.01,0,0-5.55,2.15-11.64,3.4,0,0-5.91,1.07-12.72,1.79,0,0-6.99.54-13.79.54,0,0-6.81,0-14.33-.54,0,0-7.52-.72-14.87-1.61,0,0-7.52-.9-15.04-2.33,0,0-7.34-1.43-14.51-3.04,0,0-7.16-1.43-14.33-3.76,0,0-7.16-2.51-14.33-4.84,0,0-7.16-2.33-14.69-5.37,0,0-7.52-3.04-14.33-6.27,0,0-6.81-3.22-13.97-7.52,0,0-7.16-4.12-13.79-8.96,0,0-6.63-4.66-12.54-9.13,0,0-5.91-4.48-11.1-8.96,0,0-5.01-4.48-8.96-8.78,0,0-3.76-4.12-6.45-8.96,0,0-2.69-4.66-3.94-9.49,0,0-1.25-4.84-1.43-9.85,0,0-.36-5.01.54-9.85,0,0,.9-4.84,2.69-9.31,0,0,1.79-4.48,4.84-8.06,0,0,2.87-3.58,6.81-6.81,0,0,3.94-3.22,8.6-6.63,0,0,4.84-3.22,10.57-6.45,0,0,5.55-3.4,11.82-6.09,0,0,6.27-2.69,13.25-4.48,0,0,6.81-1.79,13.97-3.22,0,0,7.16-1.43,14.33-3.04,0,0,7.16-1.43,14.69-3.22,0,0,7.34-1.79,15.22-3.58,0,0,7.7-1.79,15.22-3.94,0,0,7.34-1.97,14.51-4.12,0,0,7.16-2.15,13.79-4.48,0,0,6.63-2.33,13.07-4.84,0,0,6.63-2.33,12-4.66,0,0,5.37-2.51,10.39-4.84,0,0,5.19-2.33,9.31-5.01,0,0,4.12-2.69,8.42-6.27,0,0,4.12-3.58,7.34-7.52,0,0,3.4-3.94,5.73-8.42,0,0,2.33-4.48,3.94-9.13,0,0,1.43-4.84,1.97-10.21,0,0,.72-5.37.72-10.75,0,0,0-5.37-.9-10.75,0,0-.9-5.37-3.04-10.39,0,0-2.15-5.19-5.37-9.67,0,0-3.22-4.48-7.52-8.24,0,0-4.12-3.94-8.96-6.99,0,0-4.66-2.87-9.85-5.55,0,0-5.01-2.69-10.93-4.3,0,0-6.09-1.43-12-2.69,0,0-5.91-1.07-13.07-1.79,0,0-7.16-.54-14.69-1.07,0,0-7.52-.72-16.48-1.25,0,0-8.96-.54-18.09-1.25,0,0-9.31-.54-19.52-1.07,0,0-10.03-.72-20.6-.9,0,0-10.39-.36-21.49.18,0,0-10.93.72-22.39,1.25,0,0-11.28.54-23.46,1.79,0,0-12.36,1.25-24.54,2.69,0,0-12.18,1.43-24.18,3.58,0,0-12,2.15-23.64,4.12l-23.28,4.3s-11.64,1.97-23.82,4.48c0,0-12.18,2.33-24.18,5.01,0,0-12,2.69-23.82,5.91,0,0-12,3.4-23.28,6.63,0,0-11.46,3.22-23.1,7.16,0,0-11.64,3.94-22.57,7.7,0,0-11.1,3.94-30.81,12l-19.7,8.06" vector-effect="non-scaling-stroke"/>
    <path class="st1" d="M549.73,605.37c-4.48,2.15-8.96,4.48-13.07,6.45,0,0-4.3,1.97-12.54,5.73,0,0-8.42,3.94-16.48,7.16,0,0-8.06,3.4-15.22,6.63,0,0-7.16,3.22-13.43,6.27,0,0-6.27,3.04-11.64,5.91,0,0-5.37,3.04-10.39,5.73,0,0-5.19,2.69-9.67,5.01,0,0-4.48,2.51-8.6,4.48,0,0-4.12,2.15-8.06,3.94,0,0-3.94,1.79-7.7,3.22,0,0-3.94,1.61-7.52,2.51,0,0-3.58.9-7.16.9,0,0-3.58,0-7.16-1.25,0,0-3.58-1.25-6.81-3.04,0,0-3.4-1.79-6.27-4.66,0,0-3.04-3.04-5.73-6.27,0,0-2.69-3.4-5.37-7.16,0,0-2.69-3.94-5.73-7.16,0,0-2.87-3.4-6.27-6.09,0,0-3.22-2.69-7.16-4.48,0,0-3.76-1.79-8.06-2.69,0,0-4.12-.9-8.6-.9,0,0-4.48,0-8.96.9,0,0-4.48.9-8.6,2.69,0,0-4.3,1.79-8.06,4.48,0,0-3.94,2.69-6.99,6.27,0,0-2.87,3.58-5.37,7.52,0,0-2.33,3.94-3.58,8.42,0,0-1.07,4.48-1.79,9.49,0,0-.54,5.01-.18,11.1,0,0,.18,5.91.9,12.18,0,0,.54,6.27,1.79,13.07,0,0,1.07,6.99,2.69,14.33,0,0,1.43,7.52,3.22,15.58,0,0,1.79,8.06,3.94,16.66,0,0,1.97,8.78,4.12,17.73,0,0,2.15,8.96,4.12,18.81l4.3,19.7s1.97,9.85,4.12,20.6c0,0,2.15,10.75,4.12,21.49,0,0,2.15,10.75,4.3,22.39,0,0,1.97,11.64,4.12,22.57,0,0,2.15,11.1,4.12,21.31,0,0,2.15,10.03,3.94,19.34,0,0,1.79,9.31,3.22,17.37,0,0,1.61,8.06,2.51,16.12,0,0,.9,8.06.54,14.87,0,0-.36,6.81-1.79,13.79,0,0-1.43,6.81-3.94,12.72,0,0-2.33,6.09-5.91,11.46,0,0-3.58,5.37-7.7,9.85,0,0-4.3,4.48-9.85,8.24,0,0-5.73,3.94-11.64,6.99,0,0-6.09,2.87-12.9,5.01,0,0-6.81,2.15-13.79,3.22,0,0-6.81,1.25-14.51,2.15,0,0-7.88.9-15.94,1.43,0,0-8.06.72-16.66.9,0,0-8.6.36-17.55,0,0,0-8.96-.18-18.63-.9,0,0-9.49-.54-19.34-1.79,0,0-9.85-1.07-19.34-3.22,0,0-9.67-2.15-19.52-5.37,0,0-9.85-3.22-18.99-7.52,0,0-9.31-4.12-17.73-8.96,0,0-8.24-4.66-15.4-10.39,0,0-7.16-5.73-14.15-12.54,0,0-6.81-6.81-13.07-14.69,0,0-6.27-7.7-11.64-16.3,0,0-5.37-8.78-9.31-17.73,0,0-3.76-8.96-6.81-18.09,0,0-3.04-9.31-4.48-18.63,0,0-1.43-9.13-2.15-19.34,0,0-.54-10.21,0-20.24,0,0,.72-10.21,2.15-20.6,0,0,1.43-10.57,4.12-20.42,0,0,2.69-9.85,6.27-19.7,0,0,3.58-9.85,7.52-19.88,0,0,3.94-10.21,8.06-20.6,0,0,4.12-10.57,8.42-21.85,0,0,4.12-11.28,8.96-22.75,0,0,4.66-11.28,9.13-22.93,0,0,4.48-11.64,9.31-23.82,0,0,4.84-12.36,9.31-24.54,0,0,4.48-12.18,9.13-24.72,0,0,4.84-12.54,9.67-24.54,0,0,4.66-12,9.49-24.18,0,0,4.84-12.18,9.85-24.72,0,0,5.01-12.54,10.21-25.97,0,0,5.01-13.43,10.75-27.58,0,0,5.55-13.97,11.28-28.3,0,0,5.73-14.33,16.66-42.09l11.1-27.76" vector-effect="non-scaling-stroke"/>
  </g>
  <path class="st0" d="M202.27,413.73c2.69-7.16,5.37-14.33,8.06-21.85,0,0,2.69-7.34,8.42-21.67,0,0,5.55-14.33,11.64-29.37,0,0,5.91-14.87,11.64-29.19,0,0,5.55-14.33,10.93-28.3,0,0,5.37-14.15,9.85-25.97,0,0,4.48-12,8.78-22.75,0,0,4.12-10.75,7.7-20.6,0,0,3.58-9.85,7.16-19.16,0,0,3.58-9.13,7.16-18.09,0,0,3.58-8.96,6.81-17.01,0,0,3.4-8.06,6.27-15.94,0,0,3.04-7.7,5.73-14.51,0,0,2.69-6.99,5.37-13.79,0,0,2.69-6.81,5.01-13.07,0,0,2.51-6.27,4.48-12,0,0,2.15-5.73,3.94-11.1,0,0,1.79-5.37,3.94-10.39,0,0,1.97-5.01,4.48-10.39,0,0,2.33-5.37,5.37-9.85,0,0,2.87-4.48,6.27-8.42,0,0,3.22-3.94,7.16-6.63,0,0,3.76-2.69,8.24-4.48,0,0,4.48-1.79,9.31-2.87,0,0,4.84-1.25,9.31-1.61,0,0,4.48-.18,8.6,0,0,0,4.12.36,8.6,2.15,0,0,4.48,1.79,8.78,4.12,0,0,4.12,2.51,8.06,5.73,0,0,3.76,3.22,6.81,6.81,0,0,3.04,3.58,5.37,8.42,0,0,2.33,4.84,3.94,10.21,0,0,1.43,5.37,1.43,10.93,0,0,0,5.73-.54,11.1,0,0-.72,5.37-2.51,11.1,0,0-1.79,5.55-3.76,11.64,0,0-2.15,5.91-4.84,11.82,0,0-2.69,6.09-5.73,12.36,0,0-2.87,6.27-5.91,12.72,0,0-3.04,6.63-5.91,13.43,0,0-3.04,6.99-5.73,13.79,0,0-2.69,6.81-5.37,13.97,0,0-2.69,7.16-5.73,15.04,0,0-2.87,7.7-5.55,15.76,0,0-2.69,8.06-5.19,16.12,0,0-2.33,8.06-3.76,16.48,0,0-1.61,8.24-2.69,17.01,0,0-1.25,8.6-1.79,17.55,0,0-.72,8.96-.9,17.91,0,0-.36,8.96-.36,17.55v16.84s0,8.06-.36,15.4c0,0-.18,7.52-1.07,14.69,0,0-.9,7.16-2.69,13.97,0,0-1.79,6.99-4.48,12.9,0,0-2.69,5.91-6.63,11.1,0,0-3.94,5.01-8.6,8.96,0,0-4.84,3.76-10.75,7.34,0,0-6.09,3.58-12.54,6.27,0,0-6.63,2.69-13.79,5.73,0,0-7.16,3.04-13.79,5.73,0,0-6.45,2.69-12.72,5.37,0,0-6.27,2.69-11.64,5.01,0,0-5.37,2.33-10.57,5.01,0,0-5.01,2.69-9.13,6.09,0,0-4.3,3.22-8.06,7.16,0,0-3.94,3.76-6.63,8.06,0,0-2.69,4.12-4.12,8.96,0,0-1.61,4.66-1.61,9.85,0,0,0,5.01,1.25,10.03,0,0,1.25,5.19,3.58,9.67,0,0,2.33,4.48,6.27,8.06,0,0,3.94,3.58,8.42,6.27,0,0,4.48,2.69,9.85,4.48,0,0,5.37,1.79,10.75,2.33,0,0,5.37.54,11.28,0,0,0,5.91-.54,12-2.15,0,0,5.91-1.43,12.18-3.58,0,0,6.27-1.97,13.07-4.48,0,0,6.99-2.33,13.79-5.01,0,0,6.81-2.69,14.87-5.37l16.12-5.37s8.06-2.69,17.37-5.37c0,0,9.31-2.69,18.45-5.37,0,0,9.31-2.69,18.81-5.01,0,0,9.67-2.51,19.52-4.48,0,0,9.85-2.15,19.88-3.4,0,0,10.21-1.07,20.6-1.79,0,0,10.57-.54,20.96-.18,0,0,10.39.18,21.13,1.07,0,0,10.75.9,21.85,2.51,0,0,11.1,1.43,22.03,3.22l22.21,3.58s10.93,1.79,22.39,3.94c0,0,11.28,1.97,22.57,3.76,0,0,11.46,1.79,22.39,3.04,0,0,11.1,1.25,21.85,1.43,0,0,10.75.36,21.13-.54,0,0,10.57-.9,20.6-2.69,0,0,10.21-1.79,20.42-5.01,0,0,10.03-3.4,19.7-6.99,0,0,9.49-3.58,18.99-8.24,0,0,9.67-4.84,18.81-10.21,0,0,9.31-5.37,19.52-11.64,0,0,10.03-6.27,19.88-12.18,0,0,9.85-6.09,20.06-11.64,0,0,10.21-5.73,19.7-10.21,0,0,9.49-4.48,20.06-8.42,0,0,10.39-3.76,20.6-6.27,0,0,10.03-2.33,20.78-4.12,0,0,10.75-1.79,26.69-2.69l15.76-.9" vector-effect="non-scaling-stroke"/>
  <path class="st2" d="M979.58,402.99c6.27,0,12.54,0,18.27.36,0,0,5.55.18,17.19.54,0,0,11.64.36,23.1.54,0,0,11.28.36,22.03.72,0,0,10.75.18,20.6.9,0,0,9.85.54,18.81,1.43,0,0,8.96.9,17.37,2.15,0,0,8.24,1.07,16.3,2.87,0,0,8.06,1.79,15.22,4.48,0,0,7.16,2.69,14.15,6.27,0,0,6.81,3.58,12.72,8.06,0,0,6.09,4.48,11.64,9.67,0,0,5.73,5.01,11.1,10.75,0,0,5.37,5.55,9.85,12.18,0,0,4.48,6.63,8.42,13.79,0,0,3.76,7.16,6.45,14.87,0,0,2.69,7.7,4.48,15.58,0,0,1.79,7.7,2.51,15.76,0,0,.54,8.06,0,16.12,0,0-.72,8.06-2.15,16.12,0,0-1.43,8.06-4.12,15.76,0,0-2.69,7.88-6.27,15.58,0,0-3.58,7.7-7.88,14.87,0,0-4.12,7.16-8.96,14.69,0,0-4.66,7.52-9.13,14.69,0,0-4.48,7.16-9.67,14.51,0,0-5.01,7.52-9.85,15.04,0,0-4.66,7.34-9.85,15.22,0,0-5.01,7.7-9.13,15.4,0,0-4.3,7.88-8.42,15.58,0,0-4.12,7.7-8.06,15.58,0,0-3.94,7.7-7.7,15.76,0,0-3.94,8.06-7.52,16.12l-7.16,16.12s-3.58,8.06-7.16,15.58c0,0-3.58,7.34-6.81,14.33,0,0-3.4,6.81-6.63,12.54,0,0-3.22,5.55-6.81,10.75,0,0-3.58,5.01-8.06,8.96,0,0-4.48,3.76-9.67,6.81,0,0-5.01,3.04-10.75,5.01,0,0-5.55,2.15-11.64,3.4,0,0-5.91,1.07-12.72,1.79,0,0-6.99.54-13.79.54,0,0-6.81,0-14.33-.54,0,0-7.52-.72-14.87-1.61,0,0-7.52-.9-15.04-2.33,0,0-7.34-1.43-14.51-3.04,0,0-7.16-1.43-14.33-3.76,0,0-7.16-2.51-14.33-4.84,0,0-7.16-2.33-14.69-5.37,0,0-7.52-3.04-14.33-6.27,0,0-6.81-3.22-13.97-7.52,0,0-7.16-4.12-13.79-8.96,0,0-6.63-4.66-12.54-9.13,0,0-5.91-4.48-11.1-8.96,0,0-5.01-4.48-8.96-8.78,0,0-3.76-4.12-6.45-8.96,0,0-2.69-4.66-3.94-9.49,0,0-1.25-4.84-1.43-9.85,0,0-.36-5.01.54-9.85,0,0,.9-4.84,2.69-9.31,0,0,1.79-4.48,4.84-8.06,0,0,2.87-3.58,6.81-6.81,0,0,3.94-3.22,8.6-6.63,0,0,4.84-3.22,10.57-6.45,0,0,5.55-3.4,11.82-6.09,0,0,6.27-2.69,13.25-4.48,0,0,6.81-1.79,13.97-3.22,0,0,7.16-1.43,14.33-3.04,0,0,7.16-1.43,14.69-3.22,0,0,7.34-1.79,15.22-3.58,0,0,7.7-1.79,15.22-3.94,0,0,7.34-1.97,14.51-4.12,0,0,7.16-2.15,13.79-4.48,0,0,6.63-2.33,13.07-4.84,0,0,6.63-2.33,12-4.66,0,0,5.37-2.51,10.39-4.84,0,0,5.19-2.33,9.31-5.01,0,0,4.12-2.69,8.42-6.27,0,0,4.12-3.58,7.34-7.52,0,0,3.4-3.94,5.73-8.42,0,0,2.33-4.48,3.94-9.13,0,0,1.43-4.84,1.97-10.21,0,0,.72-5.37.72-10.75,0,0,0-5.37-.9-10.75,0,0-.9-5.37-3.04-10.39,0,0-2.15-5.19-5.37-9.67,0,0-3.22-4.48-7.52-8.24,0,0-4.12-3.94-8.96-6.99,0,0-4.66-2.87-9.85-5.55,0,0-5.01-2.69-10.93-4.3,0,0-6.09-1.43-12-2.69,0,0-5.91-1.07-13.07-1.79,0,0-7.16-.54-14.69-1.07,0,0-7.52-.72-16.48-1.25,0,0-8.96-.54-18.09-1.25,0,0-9.31-.54-19.52-1.07,0,0-10.03-.72-20.6-.9,0,0-10.39-.36-21.49.18,0,0-10.93.72-22.39,1.25,0,0-11.28.54-23.46,1.79,0,0-12.36,1.25-24.54,2.69,0,0-12.18,1.43-24.18,3.58,0,0-12,2.15-23.64,4.12l-23.28,4.3s-11.64,1.97-23.82,4.48c0,0-12.18,2.33-24.18,5.01,0,0-12,2.69-23.82,5.91,0,0-12,3.4-23.28,6.63,0,0-11.46,3.22-23.1,7.16,0,0-11.64,3.94-22.57,7.7,0,0-11.1,3.94-30.81,12l-19.7,8.06" vector-effect="non-scaling-stroke"/>
  <path class="st3" d="M549.73,605.37c-4.48,2.15-8.96,4.48-13.07,6.45,0,0-4.3,1.97-12.54,5.73,0,0-8.42,3.94-16.48,7.16,0,0-8.06,3.4-15.22,6.63,0,0-7.16,3.22-13.43,6.27,0,0-6.27,3.04-11.64,5.91,0,0-5.37,3.04-10.39,5.73,0,0-5.19,2.69-9.67,5.01,0,0-4.48,2.51-8.6,4.48,0,0-4.12,2.15-8.06,3.94,0,0-3.94,1.79-7.7,3.22,0,0-3.94,1.61-7.52,2.51,0,0-3.58.9-7.16.9,0,0-3.58,0-7.16-1.25,0,0-3.58-1.25-6.81-3.04,0,0-3.4-1.79-6.27-4.66,0,0-3.04-3.04-5.73-6.27,0,0-2.69-3.4-5.37-7.16,0,0-2.69-3.94-5.73-7.16,0,0-2.87-3.4-6.27-6.09,0,0-3.22-2.69-7.16-4.48,0,0-3.76-1.79-8.06-2.69,0,0-4.12-.9-8.6-.9,0,0-4.48,0-8.96.9,0,0-4.48.9-8.6,2.69,0,0-4.3,1.79-8.06,4.48,0,0-3.94,2.69-6.99,6.27,0,0-2.87,3.58-5.37,7.52,0,0-2.33,3.94-3.58,8.42,0,0-1.07,4.48-1.79,9.49,0,0-.54,5.01-.18,11.1,0,0,.18,5.91.9,12.18,0,0,.54,6.27,1.79,13.07,0,0,1.07,6.99,2.69,14.33,0,0,1.43,7.52,3.22,15.58,0,0,1.79,8.06,3.94,16.66,0,0,1.97,8.78,4.12,17.73,0,0,2.15,8.96,4.12,18.81l4.3,19.7s1.97,9.85,4.12,20.6c0,0,2.15,10.75,4.12,21.49,0,0,2.15,10.75,4.3,22.39,0,0,1.97,11.64,4.12,22.57,0,0,2.15,11.1,4.12,21.31,0,0,2.15,10.03,3.94,19.34,0,0,1.79,9.31,3.22,17.37,0,0,1.61,8.06,2.51,16.12,0,0,.9,8.06.54,14.87,0,0-.36,6.81-1.79,13.79,0,0-1.43,6.81-3.94,12.72,0,0-2.33,6.09-5.91,11.46,0,0-3.58,5.37-7.7,9.85,0,0-4.3,4.48-9.85,8.24,0,0-5.73,3.94-11.64,6.99,0,0-6.09,2.87-12.9,5.01,0,0-6.81,2.15-13.79,3.22,0,0-6.81,1.25-14.51,2.15,0,0-7.88.9-15.94,1.43,0,0-8.06.72-16.66.9,0,0-8.6.36-17.55,0,0,0-8.96-.18-18.63-.9,0,0-9.49-.54-19.34-1.79,0,0-9.85-1.07-19.34-3.22,0,0-9.67-2.15-19.52-5.37,0,0-9.85-3.22-18.99-7.52,0,0-9.31-4.12-17.73-8.96,0,0-8.24-4.66-15.4-10.39,0,0-7.16-5.73-14.15-12.54,0,0-6.81-6.81-13.07-14.69,0,0-6.27-7.7-11.64-16.3,0,0-5.37-8.78-9.31-17.73,0,0-3.76-8.96-6.81-18.09,0,0-3.04-9.31-4.48-18.63,0,0-1.43-9.13-2.15-19.34,0,0-.54-10.21,0-20.24,0,0,.72-10.21,2.15-20.6,0,0,1.43-10.57,4.12-20.42,0,0,2.69-9.85,6.27-19.7,0,0,3.58-9.85,7.52-19.88,0,0,3.94-10.21,8.06-20.6,0,0,4.12-10.57,8.42-21.85,0,0,4.12-11.28,8.96-22.75,0,0,4.66-11.28,9.13-22.93,0,0,4.48-11.64,9.31-23.82,0,0,4.84-12.36,9.31-24.54,0,0,4.48-12.18,9.13-24.72,0,0,4.84-12.54,9.67-24.54,0,0,4.66-12,9.49-24.18,0,0,4.84-12.18,9.85-24.72,0,0,5.01-12.54,10.21-25.97,0,0,5.01-13.43,10.75-27.58,0,0,5.55-13.97,11.28-28.3,0,0,5.73-14.33,16.66-42.09l11.1-27.76" vector-effect="non-scaling-stroke"/>
  <g id="moving-circle-group">
    <circle cx="202.27" cy="413.73" r="35.82" vector-effect="non-scaling-stroke"/>
    <circle class="st4" cx="202.27" cy="413.73" r="12.54" vector-effect="non-scaling-stroke"/>
  </g>
</svg>