<?xml version="1.0" encoding="UTF-8"?>
<svg id="minimap-svg" xmlns="http://www.w3.org/2000/svg" version="1.1" viewBox="0 0 651.72 1080">
  <!-- Generator: Adobe Illustrator 30.0.0, SVG Export Plug-In . SVG Version: 2.1.1 Build 123)  -->
  <defs>
    <style>
      .st0 {
        stroke: #ef4444;
      }

      .st0, .st1, .st2, .st3 {
        fill: none;
        stroke-miterlimit: 6.17;
      }

      .st0, .st2, .st3 {
        stroke-width: 3.09px;
      }

      .st1 {
        stroke: #000;
        stroke-width: 12.34px;
      }

      .st2 {
        stroke: #3b82f6;
      }

      .st3 {
        stroke: #fbbf24;
      }

      .st4 {
        fill: #fff;
      }
    </style>
  </defs>
  <g>
    <path class="st1" d="M185.46,685.03c-1.23-3.39-2.31-6.94-3.7-11.42,0,0-1.39-4.47-4.01-12.96,0,0-2.62-8.49-5.09-17.74,0,0-2.62-9.26-5.25-18.05,0,0-2.47-8.79-5.09-18.05,0,0-2.62-9.26-5.4-18.67,0,0-2.78-9.57-5.71-19.13,0,0-2.78-9.41-5.55-19.29,0,0-2.93-9.72-5.71-19.29,0,0-2.78-9.41-5.4-19.44,0,0-2.62-10.03-5.4-19.59,0,0-2.78-9.57-5.71-19.29,0,0-2.78-9.72-5.86-19.59,0,0-3.09-9.72-6.17-20.06,0,0-3.09-10.18-6.17-20.21,0,0-3.09-10.03-6.17-20.37,0,0-3.09-10.34-5.86-20.37,0,0-2.93-10.03-5.4-20.06,0,0-2.62-10.03-5.4-19.44,0,0-2.93-9.57-5.4-18.51,0,0-2.62-9.1-5.25-17.59,0,0-2.47-8.49-4.78-16.66,0,0-2.31-8.18-4.94-16.51,0,0-2.62-8.18-5.09-16.2,0,0-2.62-7.87-4.63-15.43,0,0-2.16-7.41-4.17-14.04,0,0-2.01-6.79-3.86-13.11,0,0-1.85-6.48-3.55-12.34,0,0-1.85-6.02-3.09-11.57,0,0-1.39-5.71-2.62-10.8,0,0-1.23-5.25-2.62-9.87,0,0-1.23-4.63-2.47-8.95,0,0-1.39-4.32-2.31-8.49,0,0-1.08-4.17-1.54-8.18,0,0-.62-4.17-.77-8.33,0,0-.31-4.01.15-7.87,0,0,.62-3.86,2.16-7.56,0,0,1.54-3.55,4.01-6.63,0,0,2.62-3.09,5.71-5.86,0,0,3.09-2.93,6.17-5.71,0,0,3.09-2.78,6.63-5.71,0,0,3.7-2.78,7.71-6.17,0,0,4.17-3.24,8.79-6.94l9.26-7.1s4.63-3.7,9.26-7.25c0,0,4.63-3.55,8.95-6.63,0,0,4.47-3.09,8.79-6.17,0,0,4.32-3.09,8.79-5.71,0,0,4.32-2.62,8.95-5.09,0,0,4.63-2.62,9.57-4.47,0,0,4.78-1.7,9.72-2.78,0,0,4.94-1.08,10.34-1.08,0,0,5.4,0,10.8.62,0,0,5.4.46,10.95,1.7,0,0,5.71,1.39,11.57,2.62,0,0,6.02,1.23,12.34,3.09,0,0,6.48,1.85,12.96,3.39,0,0,6.33,1.54,12.34,3.09,0,0,5.86,1.54,10.8,2.78,0,0,4.78,1.23,8.95,2.31,0,0,4.17,1.08,7.25,2.01,0,0,3.09,1.08,5.55,1.85,0,0,2.62.77,4.63,1.54,0,0,2.16.77,4.17,1.85,0,0,2.01.93,3.86,2.47,0,0,1.85,1.54,3.09,3.7,0,0,1.23,2.01,1.85,4.32,0,0,.46,2.31.15,4.94,0,0-.15,2.47-.93,4.78,0,0-.77,2.31-2.31,4.63,0,0-1.54,2.31-3.86,4.47,0,0-2.31,2.01-5.25,4.01,0,0-2.78,2.16-5.86,3.86,0,0-3.09,1.85-6.63,3.7,0,0-3.7,1.7-7.56,4.01,0,0-3.86,2.31-7.87,4.94,0,0-4.17,2.62-8.49,5.4,0,0-4.47,2.78-8.49,5.4,0,0-4.17,2.62-8.02,5.4,0,0-3.86,2.78-7.25,5.86,0,0-3.24,3.09-6.17,6.48,0,0-2.78,3.39-5.4,7.25,0,0-2.47,3.86-4.01,7.87,0,0-1.54,4.17-2.93,8.79,0,0-1.23,4.63-1.7,9.57,0,0-.62,4.78-.31,9.72,0,0,.31,4.94,1.08,10.03,0,0,.77,5.09,2.31,10.34,0,0,1.54,5.09,3.24,10.95,0,0,1.85,6.02,4.17,12.19,0,0,2.31,6.17,4.32,12.5,0,0,2.16,6.48,4.17,12.96,0,0,2.01,6.33,4.17,13.11,0,0,2.01,6.63,4.32,14.04,0,0,2.31,7.56,4.63,15.43,0,0,2.31,8.02,4.63,16.82,0,0,2.31,8.64,4.63,17.13,0,0,2.31,8.49,4.94,17.28,0,0,2.47,8.79,5.09,17.28,0,0,2.62,8.49,5.09,17.43,0,0,2.62,8.95,5.71,19.59l3.09,10.49" vector-effect="non-scaling-stroke"/>
    <path class="st1" d="M244.09,402.69c1.23,3.86,2.31,7.71,3.24,11.88,0,0,.93,4.01,2.93,12.03,0,0,2.01,8.02,4.17,16.2,0,0,2.01,8.18,4.01,15.89,0,0,2.16,7.71,4.17,15.74,0,0,2.01,8.02,4.17,15.12,0,0,2.01,7.25,4.32,14.5,0,0,2.31,7.1,4.17,13.27,0,0,1.7,6.17,3.24,11.88,0,0,1.54,5.71,2.93,10.49l2.47,9.87s1.39,4.78,2.62,9.41c0,0,1.23,4.63,2.31,9.26,0,0,1.08,4.63,2.31,8.79,0,0,1.23,4.17,2.31,8.49,0,0,1.08,4.32,2.01,8.18,0,0,1.08,3.86,2.16,7.56,0,0,.93,3.55,2.01,6.33,0,0,1.08,2.93,2.01,5.4,0,0,1.08,2.62,1.54,4.94,0,0,.62,2.31,1.39,4.32,0,0,.77,2.16,1.54,3.86,0,0,.77,1.85,2.31,3.39,0,0,1.54,1.54,3.24,3.09,0,0,1.85,1.54,4.17,2.62,0,0,2.31.93,4.63,1.54,0,0,2.31.46,4.32,0,0,0,2.16-.62,3.86-1.54,0,0,1.85-1.08,3.39-2.62,0,0,1.54-1.54,2.78-3.39,0,0,1.39-1.7,2.16-4.01,0,0,.77-2.31,1.23-5.25,0,0,.46-2.78,1.08-6.17,0,0,.46-3.24.93-6.94,0,0,.62-3.55,1.08-7.87,0,0,.46-4.47.77-9.1,0,0,.31-4.63.77-9.72,0,0,.46-5.09,1.08-10.49,0,0,.46-5.4,1.23-11.42,0,0,.77-5.86,1.54-12.34,0,0,.77-6.33,1.54-13.11,0,0,.77-6.63,1.23-13.27,0,0,.62-6.79,1.39-13.11,0,0,.77-6.48,1.23-12.65,0,0,.46-6.17,1.23-12.03,0,0,.77-6.02,1.08-11.57,0,0,.31-5.71.31-11.11,0,0,0-5.4-.62-11.11,0,0-.46-5.55-1.23-11.26,0,0-.77-5.71-1.85-11.26,0,0-.93-5.71-2.47-10.8,0,0-1.54-5.25-3.86-10.34,0,0-2.31-5.09-4.94-10.03,0,0-2.62-4.94-5.4-10.03,0,0-2.78-5.09-5.71-10.49,0,0-2.78-5.4-5.86-11.11,0,0-3.09-5.71-6.17-11.26,0,0-3.09-5.71-5.86-11.11,0,0-2.93-5.4-5.71-10.49,0,0-2.78-5.25-5.4-10.03,0,0-2.62-4.94-5.09-9.26,0,0-2.62-4.47-4.63-8.79,0,0-2.16-4.32-4.17-8.49,0,0-2.01-4.17-3.55-8.49,0,0-1.54-4.32-3.09-8.49,0,0-1.54-4.17-2.31-8.49,0,0-.77-4.32-1.39-8.49,0,0-.46-4.17,0-8.49,0,0,.62-4.32,1.54-8.79,0,0,1.08-4.32,2.93-8.95,0,0,1.7-4.63,4.01-8.95,0,0,2.31-4.47,5.25-8.79,0,0,2.78-4.32,5.86-8.49,0,0,3.09-4.17,6.63-8.49,0,0,3.7-4.32,7.25-8.79,0,0,3.55-4.32,7.25-8.49,0,0,3.55-4.01,6.63-7.41,0,0,3.09-3.39,5.86-5.86,0,0,2.93-2.62,5.71-4.63,0,0,2.78-2.16,5.86-3.86,0,0,3.09-1.85,6.48-2.93,0,0,3.39-.93,6.63-1.54,0,0,3.39-.46,6.17,0,0,0,2.93.62,5.71,1.85,0,0,2.78,1.23,5.09,3.55,0,0,2.31,2.31,4.47,5.25,0,0,2.01,2.78,3.24,6.17,0,0,1.39,3.24,2.31,6.94,0,0,1.08,3.55,1.85,7.71,0,0,.77,4.01,1.85,8.49,0,0,.93,4.32,2.01,8.95,0,0,1.08,4.63,1.85,9.26,0,0,.77,4.63,1.23,9.57,0,0,.46,4.78,1.08,9.72,0,0,.46,4.94,1.23,10.03,0,0,.77,5.09,1.54,10.49,0,0,.77,5.4,1.54,11.42l1.54,11.73s.77,6.02,1.54,11.88c0,0,.77,5.86,1.54,11.88,0,0,.77,5.86,1.54,12.03,0,0,.77,6.17,1.23,12.03,0,0,.62,6.02,1.39,12.19,0,0,.77,6.17,1.23,12.34,0,0,.46,6.17,1.23,12.5,0,0,.77,6.48,1.39,12.34,0,0,.46,6.02,1.23,11.88,0,0,.77,5.86,1.54,11.88,0,0,.77,5.86,1.85,11.73,0,0,.93,6.02,2.31,11.57,0,0,1.23,5.71,2.78,11.11,0,0,1.54,5.4,3.39,10.49,0,0,1.7,5.25,3.86,10.03,0,0,2.01,4.94,4.78,9.57,0,0,2.93,4.63,6.17,8.95,0,0,3.39,4.47,7.25,8.49,0,0,3.86,4.17,8.18,7.71,0,0,4.47,3.7,9.1,6.94,0,0,4.63,3.39,9.41,6.17,0,0,4.94,2.93,9.87,5.71,0,0,4.78,2.78,10.03,5.4,0,0,5.09,2.62,10.18,5.4,0,0,5.25,2.78,10.03,5.09,0,0,4.94,2.31,9.57,4.63,0,0,4.63,2.31,9.26,4.47,0,0,4.63,2.01,9.26,4.32,0,0,4.63,2.31,8.95,4.63,0,0,4.47,2.31,8.79,4.32,0,0,4.32,2.16,8.18,4.17,0,0,3.86,2.01,7.71,4.17,0,0,3.86,2.01,7.56,4.32,0,0,3.55,2.31,7.1,4.94,0,0,3.7,2.47,6.94,5.4,0,0,3.39,2.78,6.48,5.86,0,0,3.09,3.09,5.86,6.48,0,0,2.93,3.24,5.25,6.63,0,0,2.31,3.39,4.32,6.94,0,0,2.01,3.55,3.55,6.94,0,0,1.54,3.39,3.09,6.63,0,0,1.54,3.39,2.62,6.48,0,0,1.08,3.09,1.85,6.17,0,0,.77,3.09.93,6.17,0,0,.31,3.09-.15,6.17,0,0-.62,3.09-1.39,6.17,0,0-.77,3.09-2.31,5.86,0,0-1.54,2.93-3.24,5.4,0,0-1.85,2.62-4.47,4.63,0,0-2.47,2.16-5.4,3.7,0,0-2.78,1.54-6.17,2.78,0,0-3.24,1.23-6.94,2.62,0,0-3.55,1.23-7.71,2.47,0,0-4.01,1.39-8.64,2.93,0,0-4.63,1.54-9.57,2.78,0,0-4.94,1.23-12.03,3.39l-7.25,2.01" vector-effect="non-scaling-stroke"/>
    <path class="st1" d="M551.12,675.77c-2.31.77-4.63,1.54-7.41,2.01,0,0-2.93.62-8.02,1.85,0,0-5.09,1.23-10.34,2.78,0,0-5.09,1.54-10.03,3.09,0,0-4.78,1.54-9.72,3.39,0,0-4.94,1.85-9.72,3.39,0,0-4.94,1.54-9.57,3.86,0,0-4.63,2.31-9.26,4.78,0,0-4.63,2.62-8.95,5.4,0,0-4.47,2.93-8.49,6.17,0,0-4.17,3.39-7.71,6.94,0,0-3.7,3.7-6.94,8.02,0,0-3.39,4.32-6.02,8.79,0,0-2.47,4.32-4.63,9.26,0,0-2.01,4.78-3.55,9.72,0,0-1.54,4.94-3.09,10.03,0,0-1.54,5.09-2.78,10.34,0,0-1.39,5.09-2.31,10.8,0,0-1.08,5.55-1.85,11.57l-1.54,11.73s-.77,6.02-1.54,11.42c0,0-.77,5.4-1.54,10.49,0,0-.77,5.09-1.54,9.72,0,0-.77,4.63-1.23,9.26,0,0-.62,4.63-.77,8.49,0,0-.31,3.86-.62,7.25,0,0-.15,3.39-.46,5.86,0,0-.31,2.62-.31,4.94,0,0,0,2.31.62,4.63,0,0,.46,2.31,1.54,4.63,0,0,.93,2.31,2.31,4.63,0,0,1.23,2.31,2.78,4.32,0,0,1.54,2.16,3.55,3.86,0,0,2.16,1.85,4.63,3.09,0,0,2.62,1.39,5.71,2.16,0,0,3.09.77,5.86.77,0,0,2.93,0,5.71-.77,0,0,2.78-.77,5.4-2.16,0,0,2.62-1.23,5.09-3.24,0,0,2.62-2.16,4.94-4.47,0,0,2.31-2.31,4.63-5.4,0,0,2.31-3.09,4.94-6.17,0,0,2.47-3.09,5.09-6.63,0,0,2.62-3.55,5.4-7.25,0,0,2.78-3.55,5.86-7.41,0,0,3.09-3.86,6.17-7.41,0,0,3.09-3.7,6.17-7.25,0,0,3.09-3.55,6.02-7.25,0,0,2.78-3.55,5.86-7.1,0,0,3.09-3.7,6.17-7.25,0,0,3.09-3.55,5.86-6.94,0,0,2.93-3.39,5.4-6.48,0,0,2.62-3.09,5.25-5.55,0,0,2.47-2.62,5.09-4.63,0,0,2.62-2.16,5.4-4.17,0,0,2.78-2.01,5.71-3.55,0,0,2.78-1.54,5.86-2.62,0,0,3.09-1.08,6.48-1.23,0,0,3.24-.31,6.94,0,0,0,3.55.15,7.1,1.23,0,0,3.7,1.08,6.94,2.62,0,0,3.39,1.54,6.02,3.86,0,0,2.47,2.31,5.09,4.78,0,0,2.62,2.62,4.63,5.71,0,0,2.01,3.09,4.32,6.48,0,0,2.31,3.24,4.17,6.94,0,0,1.85,3.55,3.39,7.71,0,0,1.54,4.01,2.31,8.64,0,0,.77,4.63.77,9.26,0,0,0,4.63-.62,9.26,0,0-.46,4.63-1.23,8.79,0,0-.77,4.17-2.31,8.49,0,0-1.54,4.32-3.55,8.49,0,0-2.16,4.17-4.94,8.18,0,0-2.78,4.17-5.71,8.02,0,0-2.78,3.86-6.17,8.18,0,0-3.24,4.47-6.94,8.79,0,0-3.55,4.32-7.41,9.26,0,0-3.86,4.94-7.71,9.57l-7.71,9.26-7.71,9.26s-3.86,4.63-7.41,9.26c0,0-3.7,4.63-7.56,9.26,0,0-3.86,4.63-7.71,8.95,0,0-3.86,4.32-7.71,8.79l-7.71,8.64s-3.86,4.47-7.71,8.49c0,0-3.86,4.17-8.18,8.02,0,0-4.32,3.86-8.79,7.41,0,0-4.32,3.7-8.95,6.94,0,0-4.63,3.39-9.57,6.17,0,0-4.78,2.93-10.03,5.4,0,0-5.09,2.62-10.49,4.63,0,0-5.4,2.16-11.11,3.7,0,0-5.55,1.54-11.26,2.47,0,0-5.71,1.08-11.57,1.54,0,0-5.86.62-11.88.77,0,0-5.86.31-11.73,0,0,0-6.02-.15-11.88-.93,0,0-5.86-.77-11.57-2.16,0,0-5.71-1.23-11.57-3.09,0,0-5.86-1.7-11.57-4.01,0,0-5.71-2.31-11.57-5.4,0,0-5.86-3.09-11.57-6.79,0,0-5.71-3.55-11.11-7.71,0,0-5.4-4.01-10.03-8.49,0,0-4.63-4.32-8.64-9.26,0,0-4.17-4.78-7.71-10.03,0,0-3.7-5.09-6.79-10.49,0,0-3.09-5.4-5.55-11.11,0,0-2.62-5.55-4.94-11.73,0,0-2.31-6.17-4.63-13.11,0,0-2.31-6.94-4.63-14.5l-4.63-14.81s-2.31-7.56-4.63-15.27c0,0-2.31-7.71-4.32-15.58,0,0-2.16-8.02-4.47-16.82,0,0-2.31-8.64-4.63-17.13,0,0-2.31-8.49-5.09-17.59,0,0-2.78-8.95-5.4-17.74,0,0-2.62-8.64-5.4-18.21,0,0-2.78-9.57-5.4-18.51,0,0-2.62-8.95-5.4-18.82,0,0-2.78-9.72-5.4-19.29,0,0-2.62-9.41-5.4-19.44,0,0-2.78-10.03-7.25-25.3l-4.32-15.12" vector-effect="non-scaling-stroke"/>
  </g>
  <path class="st0" d="M185.46,685.03c-1.23-3.39-2.31-6.94-3.7-11.42,0,0-1.39-4.47-4.01-12.96,0,0-2.62-8.49-5.09-17.74,0,0-2.62-9.26-5.25-18.05,0,0-2.47-8.79-5.09-18.05,0,0-2.62-9.26-5.4-18.67,0,0-2.78-9.57-5.71-19.13,0,0-2.78-9.41-5.55-19.29,0,0-2.93-9.72-5.71-19.29,0,0-2.78-9.41-5.4-19.44,0,0-2.62-10.03-5.4-19.59,0,0-2.78-9.57-5.71-19.29,0,0-2.78-9.72-5.86-19.59,0,0-3.09-9.72-6.17-20.06,0,0-3.09-10.18-6.17-20.21,0,0-3.09-10.03-6.17-20.37,0,0-3.09-10.34-5.86-20.37,0,0-2.93-10.03-5.4-20.06,0,0-2.62-10.03-5.4-19.44,0,0-2.93-9.57-5.4-18.51,0,0-2.62-9.1-5.25-17.59,0,0-2.47-8.49-4.78-16.66,0,0-2.31-8.18-4.94-16.51,0,0-2.62-8.18-5.09-16.2,0,0-2.62-7.87-4.63-15.43,0,0-2.16-7.41-4.17-14.04,0,0-2.01-6.79-3.86-13.11,0,0-1.85-6.48-3.55-12.34,0,0-1.85-6.02-3.09-11.57,0,0-1.39-5.71-2.62-10.8,0,0-1.23-5.25-2.62-9.87,0,0-1.23-4.63-2.47-8.95,0,0-1.39-4.32-2.31-8.49,0,0-1.08-4.17-1.54-8.18,0,0-.62-4.17-.77-8.33,0,0-.31-4.01.15-7.87,0,0,.62-3.86,2.16-7.56,0,0,1.54-3.55,4.01-6.63,0,0,2.62-3.09,5.71-5.86,0,0,3.09-2.93,6.17-5.71,0,0,3.09-2.78,6.63-5.71,0,0,3.7-2.78,7.71-6.17,0,0,4.17-3.24,8.79-6.94l9.26-7.1s4.63-3.7,9.26-7.25c0,0,4.63-3.55,8.95-6.63,0,0,4.47-3.09,8.79-6.17,0,0,4.32-3.09,8.79-5.71,0,0,4.32-2.62,8.95-5.09,0,0,4.63-2.62,9.57-4.47,0,0,4.78-1.7,9.72-2.78,0,0,4.94-1.08,10.34-1.08,0,0,5.4,0,10.8.62,0,0,5.4.46,10.95,1.7,0,0,5.71,1.39,11.57,2.62,0,0,6.02,1.23,12.34,3.09,0,0,6.48,1.85,12.96,3.39,0,0,6.33,1.54,12.34,3.09,0,0,5.86,1.54,10.8,2.78,0,0,4.78,1.23,8.95,2.31,0,0,4.17,1.08,7.25,2.01,0,0,3.09,1.08,5.55,1.85,0,0,2.62.77,4.63,1.54,0,0,2.16.77,4.17,1.85,0,0,2.01.93,3.86,2.47,0,0,1.85,1.54,3.09,3.7,0,0,1.23,2.01,1.85,4.32,0,0,.46,2.31.15,4.94,0,0-.15,2.47-.93,4.78,0,0-.77,2.31-2.31,4.63,0,0-1.54,2.31-3.86,4.47,0,0-2.31,2.01-5.25,4.01,0,0-2.78,2.16-5.86,3.86,0,0-3.09,1.85-6.63,3.7,0,0-3.7,1.7-7.56,4.01,0,0-3.86,2.31-7.87,4.94,0,0-4.17,2.62-8.49,5.4,0,0-4.47,2.78-8.49,5.4,0,0-4.17,2.62-8.02,5.4,0,0-3.86,2.78-7.25,5.86,0,0-3.24,3.09-6.17,6.48,0,0-2.78,3.39-5.4,7.25,0,0-2.47,3.86-4.01,7.87,0,0-1.54,4.17-2.93,8.79,0,0-1.23,4.63-1.7,9.57,0,0-.62,4.78-.31,9.72,0,0,.31,4.94,1.08,10.03,0,0,.77,5.09,2.31,10.34,0,0,1.54,5.09,3.24,10.95,0,0,1.85,6.02,4.17,12.19,0,0,2.31,6.17,4.32,12.5,0,0,2.16,6.48,4.17,12.96,0,0,2.01,6.33,4.17,13.11,0,0,2.01,6.63,4.32,14.04,0,0,2.31,7.56,4.63,15.43,0,0,2.31,8.02,4.63,16.82,0,0,2.31,8.64,4.63,17.13,0,0,2.31,8.49,4.94,17.28,0,0,2.47,8.79,5.09,17.28,0,0,2.62,8.49,5.09,17.43,0,0,2.62,8.95,5.71,19.59l3.09,10.49" vector-effect="non-scaling-stroke"/>
  <path class="st2" d="M244.09,402.69c1.23,3.86,2.31,7.71,3.24,11.88,0,0,.93,4.01,2.93,12.03,0,0,2.01,8.02,4.17,16.2,0,0,2.01,8.18,4.01,15.89,0,0,2.16,7.71,4.17,15.74,0,0,2.01,8.02,4.17,15.12,0,0,2.01,7.25,4.32,14.5,0,0,2.31,7.1,4.17,13.27,0,0,1.7,6.17,3.24,11.88,0,0,1.54,5.71,2.93,10.49l2.47,9.87s1.39,4.78,2.62,9.41c0,0,1.23,4.63,2.31,9.26,0,0,1.08,4.63,2.31,8.79,0,0,1.23,4.17,2.31,8.49,0,0,1.08,4.32,2.01,8.18,0,0,1.08,3.86,2.16,7.56,0,0,.93,3.55,2.01,6.33,0,0,1.08,2.93,2.01,5.4,0,0,1.08,2.62,1.54,4.94,0,0,.62,2.31,1.39,4.32,0,0,.77,2.16,1.54,3.86,0,0,.77,1.85,2.31,3.39,0,0,1.54,1.54,3.24,3.09,0,0,1.85,1.54,4.17,2.62,0,0,2.31.93,4.63,1.54,0,0,2.31.46,4.32,0,0,0,2.16-.62,3.86-1.54,0,0,1.85-1.08,3.39-2.62,0,0,1.54-1.54,2.78-3.39,0,0,1.39-1.7,2.16-4.01,0,0,.77-2.31,1.23-5.25,0,0,.46-2.78,1.08-6.17,0,0,.46-3.24.93-6.94,0,0,.62-3.55,1.08-7.87,0,0,.46-4.47.77-9.1,0,0,.31-4.63.77-9.72,0,0,.46-5.09,1.08-10.49,0,0,.46-5.4,1.23-11.42,0,0,.77-5.86,1.54-12.34,0,0,.77-6.33,1.54-13.11,0,0,.77-6.63,1.23-13.27,0,0,.62-6.79,1.39-13.11,0,0,.77-6.48,1.23-12.65,0,0,.46-6.17,1.23-12.03,0,0,.77-6.02,1.08-11.57,0,0,.31-5.71.31-11.11,0,0,0-5.4-.62-11.11,0,0-.46-5.55-1.23-11.26,0,0-.77-5.71-1.85-11.26,0,0-.93-5.71-2.47-10.8,0,0-1.54-5.25-3.86-10.34,0,0-2.31-5.09-4.94-10.03,0,0-2.62-4.94-5.4-10.03,0,0-2.78-5.09-5.71-10.49,0,0-2.78-5.4-5.86-11.11,0,0-3.09-5.71-6.17-11.26,0,0-3.09-5.71-5.86-11.11,0,0-2.93-5.4-5.71-10.49,0,0-2.78-5.25-5.4-10.03,0,0-2.62-4.94-5.09-9.26,0,0-2.62-4.47-4.63-8.79,0,0-2.16-4.32-4.17-8.49,0,0-2.01-4.17-3.55-8.49,0,0-1.54-4.32-3.09-8.49,0,0-1.54-4.17-2.31-8.49,0,0-.77-4.32-1.39-8.49,0,0-.46-4.17,0-8.49,0,0,.62-4.32,1.54-8.79,0,0,1.08-4.32,2.93-8.95,0,0,1.7-4.63,4.01-8.95,0,0,2.31-4.47,5.25-8.79,0,0,2.78-4.32,5.86-8.49,0,0,3.09-4.17,6.63-8.49,0,0,3.7-4.32,7.25-8.79,0,0,3.55-4.32,7.25-8.49,0,0,3.55-4.01,6.63-7.41,0,0,3.09-3.39,5.86-5.86,0,0,2.93-2.62,5.71-4.63,0,0,2.78-2.16,5.86-3.86,0,0,3.09-1.85,6.48-2.93,0,0,3.39-.93,6.63-1.54,0,0,3.39-.46,6.17,0,0,0,2.93.62,5.71,1.85,0,0,2.78,1.23,5.09,3.55,0,0,2.31,2.31,4.47,5.25,0,0,2.01,2.78,3.24,6.17,0,0,1.39,3.24,2.31,6.94,0,0,1.08,3.55,1.85,7.71,0,0,.77,4.01,1.85,8.49,0,0,.93,4.32,2.01,8.95,0,0,1.08,4.63,1.85,9.26,0,0,.77,4.63,1.23,9.57,0,0,.46,4.78,1.08,9.72,0,0,.46,4.94,1.23,10.03,0,0,.77,5.09,1.54,10.49,0,0,.77,5.4,1.54,11.42l1.54,11.73s.77,6.02,1.54,11.88c0,0,.77,5.86,1.54,11.88,0,0,.77,5.86,1.54,12.03,0,0,.77,6.17,1.23,12.03,0,0,.62,6.02,1.39,12.19,0,0,.77,6.17,1.23,12.34,0,0,.46,6.17,1.23,12.5,0,0,.77,6.48,1.39,12.34,0,0,.46,6.02,1.23,11.88,0,0,.77,5.86,1.54,11.88,0,0,.77,5.86,1.85,11.73,0,0,.93,6.02,2.31,11.57,0,0,1.23,5.71,2.78,11.11,0,0,1.54,5.4,3.39,10.49,0,0,1.7,5.25,3.86,10.03,0,0,2.01,4.94,4.78,9.57,0,0,2.93,4.63,6.17,8.95,0,0,3.39,4.47,7.25,8.49,0,0,3.86,4.17,8.18,7.71,0,0,4.47,3.7,9.1,6.94,0,0,4.63,3.39,9.41,6.17,0,0,4.94,2.93,9.87,5.71,0,0,4.78,2.78,10.03,5.4,0,0,5.09,2.62,10.18,5.4,0,0,5.25,2.78,10.03,5.09,0,0,4.94,2.31,9.57,4.63,0,0,4.63,2.31,9.26,4.47,0,0,4.63,2.01,9.26,4.32,0,0,4.63,2.31,8.95,4.63,0,0,4.47,2.31,8.79,4.32,0,0,4.32,2.16,8.18,4.17,0,0,3.86,2.01,7.71,4.17,0,0,3.86,2.01,7.56,4.32,0,0,3.55,2.31,7.1,4.94,0,0,3.7,2.47,6.94,5.4,0,0,3.39,2.78,6.48,5.86,0,0,3.09,3.09,5.86,6.48,0,0,2.93,3.24,5.25,6.63,0,0,2.31,3.39,4.32,6.94,0,0,2.01,3.55,3.55,6.94,0,0,1.54,3.39,3.09,6.63,0,0,1.54,3.39,2.62,6.48,0,0,1.08,3.09,1.85,6.17,0,0,.77,3.09.93,6.17,0,0,.31,3.09-.15,6.17,0,0-.62,3.09-1.39,6.17,0,0-.77,3.09-2.31,5.86,0,0-1.54,2.93-3.24,5.4,0,0-1.85,2.62-4.47,4.63,0,0-2.47,2.16-5.4,3.7,0,0-2.78,1.54-6.17,2.78,0,0-3.24,1.23-6.94,2.62,0,0-3.55,1.23-7.71,2.47,0,0-4.01,1.39-8.64,2.93,0,0-4.63,1.54-9.57,2.78,0,0-4.94,1.23-12.03,3.39l-7.25,2.01" vector-effect="non-scaling-stroke"/>
  <path class="st3" d="M551.12,675.77c-2.31.77-4.63,1.54-7.41,2.01,0,0-2.93.62-8.02,1.85,0,0-5.09,1.23-10.34,2.78,0,0-5.09,1.54-10.03,3.09,0,0-4.78,1.54-9.72,3.39,0,0-4.94,1.85-9.72,3.39,0,0-4.94,1.54-9.57,3.86,0,0-4.63,2.31-9.26,4.78,0,0-4.63,2.62-8.95,5.4,0,0-4.47,2.93-8.49,6.17,0,0-4.17,3.39-7.71,6.94,0,0-3.7,3.7-6.94,8.02,0,0-3.39,4.32-6.02,8.79,0,0-2.47,4.32-4.63,9.26,0,0-2.01,4.78-3.55,9.72,0,0-1.54,4.94-3.09,10.03,0,0-1.54,5.09-2.78,10.34,0,0-1.39,5.09-2.31,10.8,0,0-1.08,5.55-1.85,11.57l-1.54,11.73s-.77,6.02-1.54,11.42c0,0-.77,5.4-1.54,10.49,0,0-.77,5.09-1.54,9.72,0,0-.77,4.63-1.23,9.26,0,0-.62,4.63-.77,8.49,0,0-.31,3.86-.62,7.25,0,0-.15,3.39-.46,5.86,0,0-.31,2.62-.31,4.94,0,0,0,2.31.62,4.63,0,0,.46,2.31,1.54,4.63,0,0,.93,2.31,2.31,4.63,0,0,1.23,2.31,2.78,4.32,0,0,1.54,2.16,3.55,3.86,0,0,2.16,1.85,4.63,3.09,0,0,2.62,1.39,5.71,2.16,0,0,3.09.77,5.86.77,0,0,2.93,0,5.71-.77,0,0,2.78-.77,5.4-2.16,0,0,2.62-1.23,5.09-3.24,0,0,2.62-2.16,4.94-4.47,0,0,2.31-2.31,4.63-5.4,0,0,2.31-3.09,4.94-6.17,0,0,2.47-3.09,5.09-6.63,0,0,2.62-3.55,5.4-7.25,0,0,2.78-3.55,5.86-7.41,0,0,3.09-3.86,6.17-7.41,0,0,3.09-3.7,6.17-7.25,0,0,3.09-3.55,6.02-7.25,0,0,2.78-3.55,5.86-7.1,0,0,3.09-3.7,6.17-7.25,0,0,3.09-3.55,5.86-6.94,0,0,2.93-3.39,5.4-6.48,0,0,2.62-3.09,5.25-5.55,0,0,2.47-2.62,5.09-4.63,0,0,2.62-2.16,5.4-4.17,0,0,2.78-2.01,5.71-3.55,0,0,2.78-1.54,5.86-2.62,0,0,3.09-1.08,6.48-1.23,0,0,3.24-.31,6.94,0,0,0,3.55.15,7.1,1.23,0,0,3.7,1.08,6.94,2.62,0,0,3.39,1.54,6.02,3.86,0,0,2.47,2.31,5.09,4.78,0,0,2.62,2.62,4.63,5.71,0,0,2.01,3.09,4.32,6.48,0,0,2.31,3.24,4.17,6.94,0,0,1.85,3.55,3.39,7.71,0,0,1.54,4.01,2.31,8.64,0,0,.77,4.63.77,9.26,0,0,0,4.63-.62,9.26,0,0-.46,4.63-1.23,8.79,0,0-.77,4.17-2.31,8.49,0,0-1.54,4.32-3.55,8.49,0,0-2.16,4.17-4.94,8.18,0,0-2.78,4.17-5.71,8.02,0,0-2.78,3.86-6.17,8.18,0,0-3.24,4.47-6.94,8.79,0,0-3.55,4.32-7.41,9.26,0,0-3.86,4.94-7.71,9.57l-7.71,9.26-7.71,9.26s-3.86,4.63-7.41,9.26c0,0-3.7,4.63-7.56,9.26,0,0-3.86,4.63-7.71,8.95,0,0-3.86,4.32-7.71,8.79l-7.71,8.64s-3.86,4.47-7.71,8.49c0,0-3.86,4.17-8.18,8.02,0,0-4.32,3.86-8.79,7.41,0,0-4.32,3.7-8.95,6.94,0,0-4.63,3.39-9.57,6.17,0,0-4.78,2.93-10.03,5.4,0,0-5.09,2.62-10.49,4.63,0,0-5.4,2.16-11.11,3.7,0,0-5.55,1.54-11.26,2.47,0,0-5.71,1.08-11.57,1.54,0,0-5.86.62-11.88.77,0,0-5.86.31-11.73,0,0,0-6.02-.15-11.88-.93,0,0-5.86-.77-11.57-2.16,0,0-5.71-1.23-11.57-3.09,0,0-5.86-1.7-11.57-4.01,0,0-5.71-2.31-11.57-5.4,0,0-5.86-3.09-11.57-6.79,0,0-5.71-3.55-11.11-7.71,0,0-5.4-4.01-10.03-8.49,0,0-4.63-4.32-8.64-9.26,0,0-4.17-4.78-7.71-10.03,0,0-3.7-5.09-6.79-10.49,0,0-3.09-5.4-5.55-11.11,0,0-2.62-5.55-4.94-11.73,0,0-2.31-6.17-4.63-13.11,0,0-2.31-6.94-4.63-14.5l-4.63-14.81s-2.31-7.56-4.63-15.27c0,0-2.31-7.71-4.32-15.58,0,0-2.16-8.02-4.47-16.82,0,0-2.31-8.64-4.63-17.13,0,0-2.31-8.49-5.09-17.59,0,0-2.78-8.95-5.4-17.74,0,0-2.62-8.64-5.4-18.21,0,0-2.78-9.57-5.4-18.51,0,0-2.62-8.95-5.4-18.82,0,0-2.78-9.72-5.4-19.29,0,0-2.62-9.41-5.4-19.44,0,0-2.78-10.03-7.25-25.3l-4.32-15.12" vector-effect="non-scaling-stroke"/>
  <g id="moving-circle-group">
    <circle cx="185.46" cy="685.03" r="30.86" vector-effect="non-scaling-stroke"/>
    <circle class="st4" cx="185.46" cy="685.03" r="10.8" vector-effect="non-scaling-stroke"/>
  </g>
</svg>