<?xml version="1.0" encoding="UTF-8"?>
<svg id="minimap-svg" xmlns="http://www.w3.org/2000/svg" version="1.1" viewBox="0 0 924.52 1080">
  <!-- Generator: Adobe Illustrator 30.0.0, SVG Export Plug-In . SVG Version: 2.1.1 Build 123)  -->
  <defs>
    <style>
      .st0 {
        stroke: #ef4444;
      }

      .st0, .st1, .st2, .st3 {
        fill: none;
        stroke-miterlimit: 6.17;
      }

      .st0, .st2, .st3 {
        stroke-width: 3.09px;
      }

      .st1 {
        stroke: #000;
        stroke-width: 12.34px;
      }

      .st2 {
        stroke: #3b82f6;
      }

      .st3 {
        stroke: #fbbf24;
      }

      .st4 {
        fill: #fff;
      }
    </style>
  </defs>
  <g>
    <path class="st1" d="M273.26,814.63l-9.26-16.2-9.26-16.2s-6.17-10.8-12.34-21.91c0,0-6.17-10.95-12.34-22.37,0,0-6.17-11.26-12.34-22.83,0,0-6.17-11.57-12.65-23.14,0,0-6.33-11.57-13.11-23.45,0,0-6.63-11.73-13.27-23.61,0,0-6.79-11.88-13.42-23.91,0,0-6.63-12.03-13.42-23.91,0,0-6.63-11.88-13.27-23.91,0,0-6.79-12.03-13.42-23.91,0,0-6.63-11.88-13.42-24.22,0,0-6.63-12.34-13.58-24.38,0,0-6.94-12.03-13.89-24.38,0,0-6.94-12.34-13.58-23.91,0,0-6.79-11.57-12.65-21.91,0,0-5.86-10.34-10.49-18.51,0,0-4.63-8.18-8.02-14.35,0,0-3.39-6.17-5.71-10.8,0,0-2.31-4.63-3.55-8.49,0,0-1.23-3.86-1.85-7.25,0,0-.46-3.39-.46-6.94,0,0,0-3.55.31-7.25,0,0,.15-3.55,1.23-7.41,0,0,1.08-3.86,2.78-7.41,0,0,1.85-3.7,4.63-6.94,0,0,2.93-3.39,6.48-6.17,0,0,3.55-2.93,8.02-5.25,0,0,4.32-2.31,9.26-3.86,0,0,4.78-1.54,10.03-1.7,0,0,5.09-.31,10.49.93,0,0,5.4,1.39,10.8,3.86,0,0,5.4,2.62,11.11,6.17,0,0,5.55,3.7,11.73,7.56,0,0,6.17,3.86,13.11,8.18,0,0,6.94,4.32,13.89,8.49,0,0,6.94,4.17,13.11,8.02,0,0,6.17,3.86,11.11,7.1,0,0,4.94,3.39,8.95,6.02,0,0,4.17,2.47,8.02,4.63,0,0,3.86,2.01,7.71,3.55,0,0,3.86,1.54,7.71,2.62,0,0,3.86.93,8.02,1.23,0,0,4.01.31,8.18-.31,0,0,4.17-.46,8.18-1.7,0,0,4.17-1.39,7.71-3.39,0,0,3.7-2.01,6.94-5.09,0,0,3.39-3.09,6.02-6.94,0,0,2.47-3.86,4.32-8.49,0,0,1.85-4.63,2.62-9.87,0,0,.77-5.09.93-10.8,0,0,.31-5.55,0-11.73,0,0-.15-6.17-.77-13.11,0,0-.46-6.94-.93-14.97,0,0-.62-8.02-.77-15.89,0,0-.31-8.02,0-15.43,0,0,.15-7.56.93-13.89,0,0,.77-6.48,2.16-12.34,0,0,1.23-6.02,3.24-11.57,0,0,2.16-5.71,4.94-10.8,0,0,2.78-5.25,6.94-10.34,0,0,4.17-5.09,8.79-10.34,0,0,4.63-5.09,10.03-10.8,0,0,5.4-5.55,10.95-11.73,0,0,5.71-6.17,12.19-13.11,0,0,6.33-6.94,12.81-14.5,0,0,6.48-7.41,13.42-15.12l13.89-15.43s6.94-7.71,14.04-15.89c0,0,7.25-8.33,14.5-16.51,0,0,7.1-8.18,13.89-15.74,0,0,6.63-7.41,12.34-13.11,0,0,5.55-5.55,9.72-9.72,0,0,4.17-4.17,7.71-6.94,0,0,3.55-2.78,7.25-4.94,0,0,3.55-2.01,7.41-3.09,0,0,3.86-.93,8.02-1.54,0,0,4.01-.46,8.49-.15,0,0,4.32.15,8.64,1.23,0,0,4.47,1.08,8.49,3.09,0,0,4.17,2.01,8.33,5.09,0,0,4.01,3.09,8.49,6.94,0,0,4.32,3.86,9.26,8.02,0,0,4.78,4.17,9.41,8.18,0,0,4.63,4.17,8.49,8.02,0,0,3.86,3.86,6.79,8.02,0,0,2.78,4.01,4.32,8.49,0,0,1.54,4.32,2.31,8.95,0,0,.77,4.63.77,9.26,0,0,0,4.63-.77,9.26,0,0-.77,4.63-2.78,9.26,0,0-2.16,4.63-5.4,9.57,0,0-3.39,4.78-7.56,9.72,0,0-4.01,4.94-8.95,10.34,0,0-4.94,5.4-10.34,10.95,0,0-5.4,5.71-11.26,12.19,0,0-5.86,6.33-18.05,20.06l-12.03,13.58" vector-effect="non-scaling-stroke"/>
    <path class="st1" d="M450.69,211.37c-2.78,3.09-5.4,6.17-7.56,8.79,0,0-2.16,2.47-6.33,7.1,0,0-4.17,4.63-7.25,8.02,0,0-3.09,3.39-5.55,6.17,0,0-2.62,2.78-4.17,5.71,0,0-1.54,2.78-2.31,5.86,0,0-.77,3.09-.31,6.17,0,0,.62,3.09,1.85,6.17,0,0,1.23,3.09,3.55,5.71,0,0,2.31,2.47,5.4,4.32,0,0,3.09,1.85,6.48,2.31,0,0,3.39.46,6.94,0,0,0,3.55-.46,7.25-1.85,0,0,3.55-1.23,7.71-3.09,0,0,4.01-1.7,8.95-3.86,0,0,4.94-2.01,10.49-4.32,0,0,5.71-2.31,12.34-4.94,0,0,6.79-2.47,13.89-5.4,0,0,7.25-2.78,15.27-6.17,0,0,7.87-3.24,16.35-6.63,0,0,8.49-3.39,17.59-7.25,0,0,8.95-3.86,18.21-7.71,0,0,9.26-3.86,18.21-7.71,0,0,9.1-3.86,16.82-6.63,0,0,7.71-2.78,13.89-4.94,0,0,6.17-2.01,10.95-3.09,0,0,4.94-.93,9.26-1.23,0,0,4.47-.31,8.49.31,0,0,4.17.46,8.02,1.7,0,0,3.86,1.39,7.71,3.39,0,0,3.86,2.01,7.25,5.4,0,0,3.24,3.39,6.17,7.25,0,0,2.78,3.86,4.63,8.49,0,0,1.7,4.63,2.78,9.41,0,0,1.08,4.94.46,10.34,0,0-.46,5.4-2.47,10.34,0,0-2.16,4.78-5.4,8.95,0,0-3.39,4.17-7.25,7.71,0,0-3.86,3.55-8.02,7.41,0,0-4.01,3.86-8.49,8.33,0,0-4.32,4.32-8.64,9.26,0,0-4.47,4.78-8.49,10.18,0,0-4.17,5.4-7.71,11.42,0,0-3.7,5.86-6.94,12.34,0,0-3.39,6.33-6.17,13.11,0,0-2.93,6.63-5.4,13.89,0,0-2.62,7.1-4.47,13.89,0,0-1.7,6.63-3.24,12.5,0,0-1.54,6.02-2.93,10.65,0,0-1.23,4.63-3.09,8.49,0,0-1.7,3.86-4.01,7.41,0,0-2.31,3.55-5.4,6.63,0,0-3.09,3.09-6.79,6.02,0,0-3.55,2.78-7.87,4.78,0,0-4.47,2.16-9.26,3.86,0,0-4.94,1.85-10.8,3.39,0,0-6.02,1.54-12.65,3.09,0,0-6.63,1.54-14.19,3.39,0,0-7.41,1.7-14.66,3.24,0,0-7.1,1.54-13.27,3.09,0,0-6.17,1.54-11.42,2.93,0,0-5.09,1.23-9.41,3.09,0,0-4.47,1.7-8.33,4.01,0,0-3.86,2.31-7.1,5.4,0,0-3.39,3.09-6.02,6.79,0,0-2.47,3.55-4.01,7.71,0,0-1.54,4.01-1.54,8.18,0,0,0,4.17,1.23,8.49,0,0,1.23,4.32,3.86,8.79,0,0,2.62,4.32,5.86,8.64,0,0,3.39,4.47,7.56,8.49,0,0,4.01,4.17,8.49,7.71,0,0,4.32,3.7,9.26,7.25,0,0,4.78,3.55,10.18,7.25,0,0,5.4,3.55,11.42,7.41,0,0,5.86,3.86,12.03,7.41,0,0,6.17,3.7,12.65,6.94,0,0,6.33,3.39,13.27,6.17,0,0,6.94,2.93,14.5,5.25,0,0,7.41,2.31,15.12,4.01,0,0,7.71,1.85,15.74,3.39,0,0,7.87,1.54,15.89,2.62,0,0,8.02.93,16.2,1.54,0,0,8.18.46,16.51.15,0,0,8.18-.15,16.97-.93,0,0,8.64-.77,17.74-2.16,0,0,8.95-1.23,18.21-2.47,0,0,9.26-1.39,28.54-3.86l19.29-2.62" vector-effect="non-scaling-stroke"/>
    <path class="st1" d="M739.2,580.11c5.4-.31,10.8-.77,15.43-1.39,0,0,4.63-.62,13.11-1.7,0,0,8.49-1.08,14.97-1.85,0,0,6.33-.77,11.26-.93,0,0,4.94-.31,8.95,0,0,0,4.17.15,7.71.77,0,0,3.7.46,7.25,1.54,0,0,3.55.93,7.25,2.47,0,0,3.55,1.54,7.71,3.86,0,0,4.01,2.31,8.18,5.4,0,0,4.17,3.09,8.02,6.94,0,0,3.86,3.86,7.41,8.49,0,0,3.55,4.63,6.94,10.03,0,0,3.39,5.4,6.63,11.11,0,0,3.39,5.71,6.17,11.57,0,0,2.93,5.86,5.71,10.8,0,0,2.78,4.94,4.94,9.26,0,0,2.01,4.32,3.86,7.71,0,0,1.7,3.39,2.78,6.94,0,0,1.08,3.55,1.85,7.41,0,0,.77,3.86.93,8.33,0,0,.31,4.32-.15,8.95,0,0-.62,4.63-1.85,9.26,0,0-1.23,4.63-3.55,9.26,0,0-2.31,4.63-5.4,9.72,0,0-3.09,5.25-6.94,10.8,0,0-3.86,5.71-8.33,12.19,0,0-4.32,6.33-8.64,13.11,0,0-4.47,6.63-8.49,13.27,0,0-4.17,6.79-7.71,12.34,0,0-3.7,5.71-7.25,9.87,0,0-3.55,4.01-7.25,6.94,0,0-3.55,2.78-7.71,4.78,0,0-4.01,2.16-8.49,3.7,0,0-4.32,1.54-9.26,2.01,0,0-4.78.46-10.18.31,0,0-5.4-.31-11.57-1.08,0,0-6.17-.77-13.11-2.01,0,0-6.94-1.39-14.66-2.93,0,0-7.71-1.54-16.2-3.55,0,0-8.49-2.01-17.59-4.17,0,0-8.95-2.01-18.51-4.01,0,0-9.41-2.16-19.29-4.17,0,0-9.72-2.01-19.29-3.55,0,0-9.41-1.54-17.9-2.93,0,0-8.49-1.23-15.27-1.7,0,0-6.63-.62-11.73-.62,0,0-5.25,0-9.57.77,0,0-4.32.77-8.49,2.62,0,0-4.17,1.85-7.71,4.32,0,0-3.55,2.62-6.63,5.71,0,0-3.09,3.09-5.71,6.63,0,0-2.62,3.7-5.09,8.33,0,0-2.62,4.63-5.25,10.18,0,0-2.47,5.71-5.55,11.88,0,0-3.09,6.17-6.79,12.81,0,0-3.55,6.79-7.41,13.89,0,0-3.86,7.25-7.71,15.43,0,0-3.86,8.33-8.02,16.82,0,0-4.01,8.49-8.49,17.74,0,0-4.32,9.26-8.95,18.51,0,0-4.63,9.26-9.57,19.29,0,0-4.78,10.03-9.72,20.06,0,0-4.94,10.03-10.03,19.75,0,0-5.09,9.72-9.72,18.05,0,0-4.63,8.18-8.79,14.66,0,0-4.17,6.33-7.41,10.8,0,0-3.39,4.32-6.79,7.41,0,0-3.24,3.09-6.94,4.94,0,0-3.55,1.7-7.41,3.09,0,0-3.86,1.23-8.02,1.7,0,0-4.01.62-8.49.62,0,0-4.32,0-8.64-1.08,0,0-4.47-1.08-8.49-3.09,0,0-4.17-2.01-7.56-5.09,0,0-3.24-3.09-6.33-6.94,0,0-3.09-3.86-6.02-8.79,0,0-2.78-4.94-6.17-10.49,0,0-3.24-5.71-6.94-12.19,0,0-3.55-6.33-7.41-13.27,0,0-3.86-6.94-8.02-14.66,0,0-4.01-7.71-8.49-16.05,0,0-4.32-8.18-8.95-16.66,0,0-4.63-8.49-9.57-17.43,0,0-4.78-9.1-10.03-18.36,0,0-5.09-9.26-10.49-18.98,0,0-5.4-9.72-10.8-19.59,0,0-5.4-9.72-16.97-30.55l-11.57-20.83" vector-effect="non-scaling-stroke"/>
  </g>
  <path class="st0" d="M273.26,814.63l-9.26-16.2-9.26-16.2s-6.17-10.8-12.34-21.91c0,0-6.17-10.95-12.34-22.37,0,0-6.17-11.26-12.34-22.83,0,0-6.17-11.57-12.65-23.14,0,0-6.33-11.57-13.11-23.45,0,0-6.63-11.73-13.27-23.61,0,0-6.79-11.88-13.42-23.91,0,0-6.63-12.03-13.42-23.91,0,0-6.63-11.88-13.27-23.91,0,0-6.79-12.03-13.42-23.91,0,0-6.63-11.88-13.42-24.22,0,0-6.63-12.34-13.58-24.38,0,0-6.94-12.03-13.89-24.38,0,0-6.94-12.34-13.58-23.91,0,0-6.79-11.57-12.65-21.91,0,0-5.86-10.34-10.49-18.51,0,0-4.63-8.18-8.02-14.35,0,0-3.39-6.17-5.71-10.8,0,0-2.31-4.63-3.55-8.49,0,0-1.23-3.86-1.85-7.25,0,0-.46-3.39-.46-6.94,0,0,0-3.55.31-7.25,0,0,.15-3.55,1.23-7.41,0,0,1.08-3.86,2.78-7.41,0,0,1.85-3.7,4.63-6.94,0,0,2.93-3.39,6.48-6.17,0,0,3.55-2.93,8.02-5.25,0,0,4.32-2.31,9.26-3.86,0,0,4.78-1.54,10.03-1.7,0,0,5.09-.31,10.49.93,0,0,5.4,1.39,10.8,3.86,0,0,5.4,2.62,11.11,6.17,0,0,5.55,3.7,11.73,7.56,0,0,6.17,3.86,13.11,8.18,0,0,6.94,4.32,13.89,8.49,0,0,6.94,4.17,13.11,8.02,0,0,6.17,3.86,11.11,7.1,0,0,4.94,3.39,8.95,6.02,0,0,4.17,2.47,8.02,4.63,0,0,3.86,2.01,7.71,3.55,0,0,3.86,1.54,7.71,2.62,0,0,3.86.93,8.02,1.23,0,0,4.01.31,8.18-.31,0,0,4.17-.46,8.18-1.7,0,0,4.17-1.39,7.71-3.39,0,0,3.7-2.01,6.94-5.09,0,0,3.39-3.09,6.02-6.94,0,0,2.47-3.86,4.32-8.49,0,0,1.85-4.63,2.62-9.87,0,0,.77-5.09.93-10.8,0,0,.31-5.55,0-11.73,0,0-.15-6.17-.77-13.11,0,0-.46-6.94-.93-14.97,0,0-.62-8.02-.77-15.89,0,0-.31-8.02,0-15.43,0,0,.15-7.56.93-13.89,0,0,.77-6.48,2.16-12.34,0,0,1.23-6.02,3.24-11.57,0,0,2.16-5.71,4.94-10.8,0,0,2.78-5.25,6.94-10.34,0,0,4.17-5.09,8.79-10.34,0,0,4.63-5.09,10.03-10.8,0,0,5.4-5.55,10.95-11.73,0,0,5.71-6.17,12.19-13.11,0,0,6.33-6.94,12.81-14.5,0,0,6.48-7.41,13.42-15.12l13.89-15.43s6.94-7.71,14.04-15.89c0,0,7.25-8.33,14.5-16.51,0,0,7.1-8.18,13.89-15.74,0,0,6.63-7.41,12.34-13.11,0,0,5.55-5.55,9.72-9.72,0,0,4.17-4.17,7.71-6.94,0,0,3.55-2.78,7.25-4.94,0,0,3.55-2.01,7.41-3.09,0,0,3.86-.93,8.02-1.54,0,0,4.01-.46,8.49-.15,0,0,4.32.15,8.64,1.23,0,0,4.47,1.08,8.49,3.09,0,0,4.17,2.01,8.33,5.09,0,0,4.01,3.09,8.49,6.94,0,0,4.32,3.86,9.26,8.02,0,0,4.78,4.17,9.41,8.18,0,0,4.63,4.17,8.49,8.02,0,0,3.86,3.86,6.79,8.02,0,0,2.78,4.01,4.32,8.49,0,0,1.54,4.32,2.31,8.95,0,0,.77,4.63.77,9.26,0,0,0,4.63-.77,9.26,0,0-.77,4.63-2.78,9.26,0,0-2.16,4.63-5.4,9.57,0,0-3.39,4.78-7.56,9.72,0,0-4.01,4.94-8.95,10.34,0,0-4.94,5.4-10.34,10.95,0,0-5.4,5.71-11.26,12.19,0,0-5.86,6.33-18.05,20.06l-12.03,13.58" vector-effect="non-scaling-stroke"/>
  <path class="st2" d="M450.69,211.37c-2.78,3.09-5.4,6.17-7.56,8.79,0,0-2.16,2.47-6.33,7.1,0,0-4.17,4.63-7.25,8.02,0,0-3.09,3.39-5.55,6.17,0,0-2.62,2.78-4.17,5.71,0,0-1.54,2.78-2.31,5.86,0,0-.77,3.09-.31,6.17,0,0,.62,3.09,1.85,6.17,0,0,1.23,3.09,3.55,5.71,0,0,2.31,2.47,5.4,4.32,0,0,3.09,1.85,6.48,2.31,0,0,3.39.46,6.94,0,0,0,3.55-.46,7.25-1.85,0,0,3.55-1.23,7.71-3.09,0,0,4.01-1.7,8.95-3.86,0,0,4.94-2.01,10.49-4.32,0,0,5.71-2.31,12.34-4.94,0,0,6.79-2.47,13.89-5.4,0,0,7.25-2.78,15.27-6.17,0,0,7.87-3.24,16.35-6.63,0,0,8.49-3.39,17.59-7.25,0,0,8.95-3.86,18.21-7.71,0,0,9.26-3.86,18.21-7.71,0,0,9.1-3.86,16.82-6.63,0,0,7.71-2.78,13.89-4.94,0,0,6.17-2.01,10.95-3.09,0,0,4.94-.93,9.26-1.23,0,0,4.47-.31,8.49.31,0,0,4.17.46,8.02,1.7,0,0,3.86,1.39,7.71,3.39,0,0,3.86,2.01,7.25,5.4,0,0,3.24,3.39,6.17,7.25,0,0,2.78,3.86,4.63,8.49,0,0,1.7,4.63,2.78,9.41,0,0,1.08,4.94.46,10.34,0,0-.46,5.4-2.47,10.34,0,0-2.16,4.78-5.4,8.95,0,0-3.39,4.17-7.25,7.71,0,0-3.86,3.55-8.02,7.41,0,0-4.01,3.86-8.49,8.33,0,0-4.32,4.32-8.64,9.26,0,0-4.47,4.78-8.49,10.18,0,0-4.17,5.4-7.71,11.42,0,0-3.7,5.86-6.94,12.34,0,0-3.39,6.33-6.17,13.11,0,0-2.93,6.63-5.4,13.89,0,0-2.62,7.1-4.47,13.89,0,0-1.7,6.63-3.24,12.5,0,0-1.54,6.02-2.93,10.65,0,0-1.23,4.63-3.09,8.49,0,0-1.7,3.86-4.01,7.41,0,0-2.31,3.55-5.4,6.63,0,0-3.09,3.09-6.79,6.02,0,0-3.55,2.78-7.87,4.78,0,0-4.47,2.16-9.26,3.86,0,0-4.94,1.85-10.8,3.39,0,0-6.02,1.54-12.65,3.09,0,0-6.63,1.54-14.19,3.39,0,0-7.41,1.7-14.66,3.24,0,0-7.1,1.54-13.27,3.09,0,0-6.17,1.54-11.42,2.93,0,0-5.09,1.23-9.41,3.09,0,0-4.47,1.7-8.33,4.01,0,0-3.86,2.31-7.1,5.4,0,0-3.39,3.09-6.02,6.79,0,0-2.47,3.55-4.01,7.71,0,0-1.54,4.01-1.54,8.18,0,0,0,4.17,1.23,8.49,0,0,1.23,4.32,3.86,8.79,0,0,2.62,4.32,5.86,8.64,0,0,3.39,4.47,7.56,8.49,0,0,4.01,4.17,8.49,7.71,0,0,4.32,3.7,9.26,7.25,0,0,4.78,3.55,10.18,7.25,0,0,5.4,3.55,11.42,7.41,0,0,5.86,3.86,12.03,7.41,0,0,6.17,3.7,12.65,6.94,0,0,6.33,3.39,13.27,6.17,0,0,6.94,2.93,14.5,5.25,0,0,7.41,2.31,15.12,4.01,0,0,7.71,1.85,15.74,3.39,0,0,7.87,1.54,15.89,2.62,0,0,8.02.93,16.2,1.54,0,0,8.18.46,16.51.15,0,0,8.18-.15,16.97-.93,0,0,8.64-.77,17.74-2.16,0,0,8.95-1.23,18.21-2.47,0,0,9.26-1.39,28.54-3.86l19.29-2.62" vector-effect="non-scaling-stroke"/>
  <path class="st3" d="M739.2,580.11c5.4-.31,10.8-.77,15.43-1.39,0,0,4.63-.62,13.11-1.7,0,0,8.49-1.08,14.97-1.85,0,0,6.33-.77,11.26-.93,0,0,4.94-.31,8.95,0,0,0,4.17.15,7.71.77,0,0,3.7.46,7.25,1.54,0,0,3.55.93,7.25,2.47,0,0,3.55,1.54,7.71,3.86,0,0,4.01,2.31,8.18,5.4,0,0,4.17,3.09,8.02,6.94,0,0,3.86,3.86,7.41,8.49,0,0,3.55,4.63,6.94,10.03,0,0,3.39,5.4,6.63,11.11,0,0,3.39,5.71,6.17,11.57,0,0,2.93,5.86,5.71,10.8,0,0,2.78,4.94,4.94,9.26,0,0,2.01,4.32,3.86,7.71,0,0,1.7,3.39,2.78,6.94,0,0,1.08,3.55,1.85,7.41,0,0,.77,3.86.93,8.33,0,0,.31,4.32-.15,8.95,0,0-.62,4.63-1.85,9.26,0,0-1.23,4.63-3.55,9.26,0,0-2.31,4.63-5.4,9.72,0,0-3.09,5.25-6.94,10.8,0,0-3.86,5.71-8.33,12.19,0,0-4.32,6.33-8.64,13.11,0,0-4.47,6.63-8.49,13.27,0,0-4.17,6.79-7.71,12.34,0,0-3.7,5.71-7.25,9.87,0,0-3.55,4.01-7.25,6.94,0,0-3.55,2.78-7.71,4.78,0,0-4.01,2.16-8.49,3.7,0,0-4.32,1.54-9.26,2.01,0,0-4.78.46-10.18.31,0,0-5.4-.31-11.57-1.08,0,0-6.17-.77-13.11-2.01,0,0-6.94-1.39-14.66-2.93,0,0-7.71-1.54-16.2-3.55,0,0-8.49-2.01-17.59-4.17,0,0-8.95-2.01-18.51-4.01,0,0-9.41-2.16-19.29-4.17,0,0-9.72-2.01-19.29-3.55,0,0-9.41-1.54-17.9-2.93,0,0-8.49-1.23-15.27-1.7,0,0-6.63-.62-11.73-.62,0,0-5.25,0-9.57.77,0,0-4.32.77-8.49,2.62,0,0-4.17,1.85-7.71,4.32,0,0-3.55,2.62-6.63,5.71,0,0-3.09,3.09-5.71,6.63,0,0-2.62,3.7-5.09,8.33,0,0-2.62,4.63-5.25,10.18,0,0-2.47,5.71-5.55,11.88,0,0-3.09,6.17-6.79,12.81,0,0-3.55,6.79-7.41,13.89,0,0-3.86,7.25-7.71,15.43,0,0-3.86,8.33-8.02,16.82,0,0-4.01,8.49-8.49,17.74,0,0-4.32,9.26-8.95,18.51,0,0-4.63,9.26-9.57,19.29,0,0-4.78,10.03-9.72,20.06,0,0-4.94,10.03-10.03,19.75,0,0-5.09,9.72-9.72,18.05,0,0-4.63,8.18-8.79,14.66,0,0-4.17,6.33-7.41,10.8,0,0-3.39,4.32-6.79,7.41,0,0-3.24,3.09-6.94,4.94,0,0-3.55,1.7-7.41,3.09,0,0-3.86,1.23-8.02,1.7,0,0-4.01.62-8.49.62,0,0-4.32,0-8.64-1.08,0,0-4.47-1.08-8.49-3.09,0,0-4.17-2.01-7.56-5.09,0,0-3.24-3.09-6.33-6.94,0,0-3.09-3.86-6.02-8.79,0,0-2.78-4.94-6.17-10.49,0,0-3.24-5.71-6.94-12.19,0,0-3.55-6.33-7.41-13.27,0,0-3.86-6.94-8.02-14.66,0,0-4.01-7.71-8.49-16.05,0,0-4.32-8.18-8.95-16.66,0,0-4.63-8.49-9.57-17.43,0,0-4.78-9.1-10.03-18.36,0,0-5.09-9.26-10.49-18.98,0,0-5.4-9.72-10.8-19.59,0,0-5.4-9.72-16.97-30.55l-11.57-20.83" vector-effect="non-scaling-stroke"/>
  <g id="moving-circle-group">
    <circle cx="273.26" cy="814.63" r="30.86" vector-effect="non-scaling-stroke"/>
    <circle class="st4" cx="273.26" cy="814.63" r="10.8" vector-effect="non-scaling-stroke"/>
  </g>
</svg>