<?xml version="1.0" encoding="UTF-8"?>
<svg id="minimap-svg" xmlns="http://www.w3.org/2000/svg" version="1.1" viewBox="0 0 314.32 1080">
  <!-- Generator: Adobe Illustrator 30.0.0, SVG Export Plug-In . SVG Version: 2.1.1 Build 123)  -->
  <defs>
    <style>
      .st0 {
        stroke: #ef4444;
      }

      .st0, .st1, .st2, .st3 {
        fill: none;
        stroke-miterlimit: 6.17;
      }

      .st0, .st2, .st3 {
        stroke-width: 3.09px;
      }

      .st1 {
        stroke: #000;
        stroke-width: 12.34px;
      }

      .st2 {
        stroke: #3b82f6;
      }

      .st3 {
        stroke: #fbbf24;
      }

      .st4 {
        fill: #fff;
      }
    </style>
  </defs>
  <g>
    <path class="st1" d="M215.02,828.51c-.77-1.54-1.54-3.09-2.01-4.94,0,0-.62-1.7-1.54-5.09,0,0-1.08-3.39-2.16-6.63,0,0-.93-3.39-2.01-6.48,0,0-1.08-3.09-2.01-6.17l-2.16-6.17s-.93-3.09-2.01-6.17c0,0-1.08-3.09-2.01-6.48,0,0-1.08-3.24-2.16-6.63,0,0-.93-3.39-2.01-6.63,0,0-1.08-3.39-2.31-6.48,0,0-1.23-3.09-2.31-6.48,0,0-1.08-3.24-2.31-6.63,0,0-1.23-3.39-2.31-6.94,0,0-1.08-3.55-2.01-6.94,0,0-1.08-3.39-2.16-6.63,0,0-.93-3.39-2.01-6.48,0,0-1.08-3.09-2.01-5.86,0,0-1.08-2.93-1.85-5.71,0,0-.77-2.78-1.54-5.4,0,0-.77-2.62-1.54-5.09,0,0-.77-2.62-1.54-4.94,0,0-.77-2.31-1.54-4.32,0,0-.77-2.16-1.54-3.86,0,0-.77-1.85-1.23-3.39,0,0-.62-1.54-1.08-3.09,0,0-.46-1.54-1.08-3.09l-.93-3.09s-.62-1.54-1.08-2.78c0,0-.46-1.39-.77-2.62,0,0-.31-1.23-.77-2.31,0,0-.46-1.08-.77-2.01,0,0-.31-1.08-.77-1.85,0,0-.46-.77-1.08-1.54,0,0-.46-.77-1.23-1.54,0,0-.77-.77-1.54-1.23,0,0-.77-.62-1.54-.77,0,0-.77-.31-1.85,0,0,0-.93.15-2.01.46,0,0-1.08.31-2.01.77,0,0-1.08.46-1.85.77,0,0-.77.31-1.54.46,0,0-.77.31-1.85.31,0,0-.93,0-2.01-.31,0,0-1.08-.15-2.01-.77,0,0-1.08-.46-1.85-1.23,0,0-.77-.77-1.23-1.54,0,0-.62-.77-1.08-1.85,0,0-.46-.93-.77-2.31,0,0-.31-1.23-.31-2.47,0,0,0-1.39.31-2.62,0,0,.31-1.23.77-2.78,0,0,.46-1.54.77-3.39,0,0,.31-1.85.77-3.86,0,0,.46-2.01,1.08-3.86,0,0,.46-1.85,1.23-4.17l1.54-4.63s.77-2.31,1.23-4.78c0,0,.62-2.62,1.08-4.94,0,0,.46-2.31.77-4.63,0,0,.31-2.31.46-4.63,0,0,.31-2.31,0-4.94,0,0-.15-2.47-.46-5.09,0,0-.31-2.62-.77-5.4,0,0-.46-2.78-1.08-5.4,0,0-.46-2.62-.93-5.4,0,0-.62-2.78-1.08-5.71,0,0-.46-2.78-.77-5.86,0,0-.31-3.09-.77-5.86,0,0-.46-2.93-.77-5.71,0,0-.31-2.78-.77-5.71,0,0-.46-2.78-.77-5.55,0,0-.31-2.93-.77-5.71,0,0-.46-2.78-.77-5.71,0,0-.31-2.78-.77-5.55,0,0-.46-2.93-.77-5.25,0,0-.31-2.31-.46-4.32,0,0-.31-2.01-.62-3.86,0,0-.15-1.85-.46-3.39,0,0-.31-1.54-.46-2.78,0,0-.31-1.23-.31-2.31,0,0,0-1.08-.31-2.01,0,0-.15-1.08-.77-1.85,0,0-.46-.77-1.23-1.54l-1.54-1.54-1.54-1.54s-.77-.77-1.85-1.23c0,0-.93-.62-2.01-.77,0,0-1.08-.31-2.31-.62,0,0-1.23-.15-2.31-.77,0,0-1.08-.46-2.31-1.54,0,0-1.23-.93-2.31-2.01,0,0-1.08-1.08-2.31-2.31,0,0-1.23-1.23-2.31-2.31,0,0-1.08-1.08-2.01-2.31,0,0-1.08-1.23-1.85-2.62,0,0-.77-1.23-1.54-3.09,0,0-.77-1.7-1.54-3.55,0,0-.77-1.85-1.23-3.55,0,0-.62-1.85-.77-3.7,0,0-.31-1.7-.31-3.55v-7.25s0-1.7.31-3.55c0,0,.15-1.85.77-3.55,0,0,.46-1.85,1.23-3.39l1.54-3.09s.77-1.54,1.85-3.09c0,0,.93-1.54,2.01-3.09,0,0,1.08-1.54,2.01-3.09,0,0,1.08-1.54,1.85-3.09,0,0,.77-1.54,1.23-3.09,0,0,.62-1.54,1.08-3.09,0,0,.46-1.54.77-3.09,0,0,.31-1.54.46-3.09,0,0,.31-1.54.31-3.09v-3.39s0-1.7-.31-3.55c0,0-.15-1.85-.46-3.86,0,0-.31-2.01-.77-3.86,0,0-.46-1.85-.77-3.55,0,0-.31-1.85-.77-3.39,0,0-.46-1.54-1.08-3.09,0,0-.46-1.54-1.23-2.78,0,0-.77-1.39-1.85-2.62,0,0-.93-1.23-2.01-2.62,0,0-1.08-1.23-2.31-2.47,0,0-1.23-1.39-2.62-2.31,0,0-1.23-1.08-2.47-1.85,0,0-1.39-.77-2.62-1.85,0,0-1.23-.93-2.31-2.01,0,0-1.08-1.08-2.01-2.31,0,0-1.08-1.23-1.85-2.62,0,0-.77-1.23-1.54-2.78,0,0-.77-1.54-1.23-3.09,0,0-.62-1.54-.77-3.39,0,0-.31-1.7-.31-3.55v-10.8s0-1.85-.31-3.55c0,0-.15-1.85-.15-3.39v-3.09s0-1.54.15-2.78c0,0,.31-1.39.31-2.62,0,0,0-1.23.31-2.62,0,0,.15-1.23.46-2.47,0,0,.31-1.39.77-2.62,0,0,.46-1.23,1.08-2.31,0,0,.46-1.08,1.23-2.31,0,0,.77-1.23,1.54-2.31,0,0,.77-1.08,1.85-2.31,0,0,.93-1.23,2.01-2.31,0,0,1.08-1.08,2.31-2.01,0,0,1.23-1.08,2.62-1.85,0,0,1.23-.77,2.78-1.23,0,0,1.54-.62,2.78-1.08,0,0,1.39-.46,2.62-1.08,0,0,1.23-.46,2.31-1.23,0,0,1.08-.77,2.31-1.54,0,0,1.23-.77,2.31-1.54,0,0,1.08-.77,2.01-1.85,0,0,1.08-.93,1.85-2.01,0,0,.77-1.08,1.54-2.31,0,0,.77-1.23,1.23-2.78,0,0,.62-1.54,1.08-3.39,0,0,.46-1.85.77-3.55,0,0,.31-1.85.46-3.39l.62-3.09s.15-1.54.46-3.39c0,0,.31-1.7.46-3.55,0,0,.31-1.85.62-3.86,0,0,.15-2.01.77-3.86,0,0,.46-1.85,1.23-3.55l1.54-3.7s.77-1.7,1.23-3.55c0,0,.62-1.85,1.08-3.55,0,0,.46-1.85,1.08-3.7,0,0,.46-1.7,1.23-3.55,0,0,.77-1.85,1.23-3.86,0,0,.62-2.01,1.08-4.17,0,0,.46-2.01.77-4.32,0,0,.31-2.31.46-4.32,0,0,.31-2.16.62-4.47,0,0,.15-2.31.46-4.63,0,0,.31-2.31.46-5.09,0,0,.31-2.78.31-5.86v-19.9s0-3.24-.77-9.26l-.77-5.86" vector-effect="non-scaling-stroke"/>
    <path class="st1" d="M136.33,165.09v-18.98s0-3.7-.31-7.25c0,0-.15-3.55-.46-7.41,0,0-.31-3.86-.46-8.02,0,0-.31-4.17-.62-8.49,0,0-.15-4.32-.46-8.49,0,0-.31-4.17-.46-8.02,0,0-.31-3.86-.31-7.1v-6.17s0-2.93-.31-5.25c0,0-.15-2.31-.46-4.32,0,0-.31-2.01-.46-3.86,0,0-.31-1.85-.62-3.55,0,0-.15-1.85-.77-3.39,0,0-.46-1.54-1.23-3.09,0,0-.77-1.54-1.54-2.78,0,0-.77-1.39-1.85-2.31,0,0-.93-1.08-2.01-1.85,0,0-1.08-.77-2.31-1.54,0,0-1.23-.77-2.62-1.23,0,0-1.23-.62-2.47-1.08,0,0-1.39-.46-2.62-.46h-2.62s-1.23,0-2.78.46c0,0-1.54.46-3.09,1.08,0,0-1.54.46-3.09,1.23,0,0-1.54.77-2.78,1.85,0,0-1.39.93-2.62,2.31,0,0-1.23,1.23-2.31,2.78,0,0-1.08,1.54-1.85,3.39,0,0-.77,1.7-1.23,3.55,0,0-.46,1.85-.77,3.86,0,0-.31,2.01-.46,4.17,0,0-.31,2.01-.31,4.01,0,0,0,2.16.31,4.47,0,0,.15,2.31.77,4.32,0,0,.46,2.01,1.23,4.32,0,0,.77,2.31,1.54,4.47,0,0,.77,2.01,1.85,4.32,0,0,.93,2.31,2.31,4.63,0,0,1.23,2.31,2.78,4.63l3.09,4.63s1.54,2.31,2.78,4.94c0,0,1.39,2.47,2.62,5.09,0,0,1.23,2.62,2.31,5.4,0,0,1.08,2.78,1.85,5.4,0,0,.77,2.62,1.23,5.4,0,0,.46,2.78,1.08,5.71,0,0,.46,2.78.93,5.86,0,0,.62,3.09.77,5.86,0,0,.31,2.93,0,6.02,0,0-.15,3.09-.46,5.86,0,0-.31,2.78-.77,5.86,0,0-.46,3.09-1.08,6.02,0,0-.46,2.78-1.23,5.55,0,0-.77,2.93-1.85,5.71,0,0-.93,2.78-2.31,5.71l-2.47,5.55s-1.39,2.93-2.62,5.25c0,0-1.23,2.31-2.31,4.32,0,0-1.08,2.01-2.01,4.17,0,0-1.08,2.01-1.54,4.32,0,0-.62,2.31-1.08,4.63,0,0-.46,2.31-.77,4.63,0,0-.31,2.31-.46,4.32,0,0-.31,2.16-.62,3.86,0,0-.15,1.85-.46,3.39,0,0-.31,1.54-.46,3.09,0,0-.31,1.54-.31,3.09v2.78s0,1.39-.31,2.62c0,0-.15,1.23-.77,2.31,0,0-.46,1.08-1.23,2.31,0,0-.77,1.23-1.54,2.31,0,0-.77,1.08-1.54,2.01,0,0-.77,1.08-1.85,1.85,0,0-.93.77-2.31,1.23,0,0-1.23.62-2.78,1.08,0,0-1.54.46-3.09,1.08,0,0-1.54.46-3.09,1.23,0,0-1.54.77-2.78,1.54,0,0-1.39.77-2.62,1.54,0,0-1.23.77-2.31,1.85,0,0-1.08.93-2.31,2.01,0,0-1.23,1.08-2.31,2.62,0,0-1.08,1.54-2.01,3.09,0,0-1.08,1.54-1.85,3.55,0,0-.77,2.01-1.23,3.86,0,0-.62,1.85-.77,3.86,0,0-.31,2.01-.62,4.17,0,0-.15,2.01-.46,4.32,0,0-.31,2.31-.46,4.63,0,0-.31,2.31-.31,4.63v4.94s0,2.47.31,5.09c0,0,.15,2.62.46,5.4,0,0,.31,2.78.77,5.4,0,0,.46,2.62,1.08,5.4,0,0,.46,2.78,1.23,5.71l1.54,5.55s.77,2.93,1.85,5.71c0,0,.93,2.78,2.01,5.4,0,0,1.08,2.62,2.31,5.4,0,0,1.23,2.78,2.62,5.71,0,0,1.23,2.78,2.47,5.86,0,0,1.39,3.09,2.62,5.86,0,0,1.23,2.93,2.31,5.71,0,0,1.08,2.78,2.01,5.71,0,0,1.08,2.78,1.85,6.17,0,0,.77,3.24,1.54,6.63,0,0,.77,3.39,1.23,6.63,0,0,.62,3.39.77,6.79,0,0,.31,3.24.31,6.63v27s0,3.55.31,6.94c0,0,.15,3.39.77,6.94,0,0,.46,3.55,1.23,6.94,0,0,.77,3.39,1.54,6.63,0,0,.77,3.39,1.85,6.79,0,0,.93,3.24,2.31,6.63,0,0,1.23,3.39,2.78,6.63,0,0,1.54,3.39,3.09,6.48,0,0,1.54,3.09,3.39,5.86,0,0,1.7,2.93,3.55,5.71,0,0,1.85,2.78,3.55,5.71,0,0,1.85,2.78,3.39,5.86l3.09,6.17s1.54,3.09,2.78,6.17c0,0,1.39,3.09,2.31,6.48,0,0,1.08,3.24,1.85,6.63,0,0,.77,3.39,1.54,6.94,0,0,.77,3.55,1.23,6.94,0,0,.62,3.39.77,6.94,0,0,.31,3.55.31,6.94v19.29" vector-effect="non-scaling-stroke"/>
    <path class="st1" d="M127.07,604.8c0,1.85,0,3.86-.31,5.86,0,0-.15,1.85-.46,5.25,0,0-.31,3.24-.77,6.33,0,0-.46,3.09-1.08,6.02,0,0-.46,2.78-.93,5.4,0,0-.62,2.47-1.08,4.78,0,0-.46,2.31-.77,4.47,0,0-.31,2.01-.46,4.01,0,0-.31,2.16-.31,3.86v3.39s0,1.54.31,3.09c0,0,.15,1.54.77,3.09,0,0,.46,1.54,1.23,2.78,0,0,.77,1.39,1.85,2.62,0,0,.93,1.23,2.31,2.31,0,0,1.23,1.08,2.78,2.01,0,0,1.54,1.08,2.78,2.16,0,0,1.39.93,2.62,2.31,0,0,1.23,1.23,2.62,2.78,0,0,1.23,1.54,2.78,3.39,0,0,1.54,1.7,2.78,3.86,0,0,1.39,2.01,2.31,4.32,0,0,1.08,2.31,1.54,4.63,0,0,.62,2.31,1.08,4.63,0,0,.46,2.31,1.08,4.63,0,0,.46,2.31.93,4.94,0,0,.62,2.47.77,5.09,0,0,.31,2.62.31,5.09v4.94s0,2.31-.31,4.94c0,0-.15,2.47-2.01,7.1,0,0-1.85,4.63-5.86,12.96,0,0-4.17,8.18-8.79,17.13,0,0-4.63,9.1-8.02,16.2,0,0-3.24,7.25-4.63,11.11,0,0-1.23,3.86-2.01,6.94l-1.54,6.17-1.54,6.17s-.77,3.09-1.23,6.17c0,0-.62,3.09-.77,6.17,0,0-.31,3.09-.31,6.17,0,0,0,3.09.31,6.17,0,0,.15,3.09.46,6.17,0,0,.31,3.09.77,6.17,0,0,.46,3.09,1.08,6.17,0,0,.46,3.09,1.23,6.48,0,0,.77,3.24,1.85,6.63,0,0,.93,3.39,2.01,6.63,0,0,1.08,3.39,2.01,6.48,0,0,1.08,3.09,1.85,6.17,0,0,.77,3.09,1.54,6.48,0,0,.77,3.24,1.85,6.63,0,0,.93,3.39,2.01,6.63,0,0,1.08,3.39,2.31,6.48,0,0,1.23,3.09,2.62,6.17,0,0,1.23,3.09,2.78,6.17l3.09,6.17s1.54,3.09,3.39,6.17c0,0,1.7,3.09,3.55,5.86,0,0,1.85,2.93,3.55,5.71,0,0,1.85,2.78,3.7,5.4,0,0,1.7,2.62,3.55,5.4,0,0,1.85,2.78,4.17,5.4,0,0,2.31,2.62,4.63,5.09,0,0,2.31,2.62,4.78,5.25,0,0,2.62,2.47,4.94,5.09,0,0,2.31,2.62,4.63,5.09,0,0,2.31,2.62,4.94,4.94,0,0,2.47,2.31,5.09,4.63,0,0,2.62,2.31,5.4,4.32,0,0,2.78,2.16,5.4,4.17,0,0,2.62,2.01,5.4,3.86,0,0,2.78,1.85,5.4,3.86,0,0,2.62,2.01,5.09,3.86,0,0,2.62,1.85,4.94,3.55,0,0,2.31,1.85,4.32,3.09,0,0,2.16,1.39,3.7,2.31,0,0,1.54,1.08,2.78,1.85,0,0,1.23.77,2.31,1.23,0,0,1.08.62,2.31,1.08,0,0,1.23.46,2.62.77,0,0,1.23.31,2.47.31,0,0,1.39,0,2.62-.62,0,0,1.23-.46,2.31-1.23,0,0,1.08-.77,2.01-1.54,0,0,1.08-.77,1.85-1.54,0,0,.77-.77,1.54-1.85,0,0,.77-.93,1.23-2.31,0,0,.62-1.23.77-2.78,0,0,.31-1.54.31-3.09,0,0,0-1.54-.31-3.09,0,0-.15-1.54-.46-3.09,0,0-.31-1.54-.77-3.39,0,0-.46-1.7-1.85-7.41,0,0-1.23-5.71-3.24-15.89,0,0-2.16-10.34-4.17-20.83,0,0-2.01-10.65-3.39-18.05,0,0-1.23-7.41-2.01-11.11,0,0-.77-3.55-1.85-7.41,0,0-.93-3.86-2.01-7.71,0,0-1.08-3.86-2.01-7.71,0,0-1.08-3.86-1.85-8.02,0,0-.77-4.01-1.54-8.49,0,0-.77-4.32-1.85-8.64,0,0-.93-4.47-2.01-8.49,0,0-1.08-4.17-2.31-8.33,0,0-1.23-4.01-2.31-8.18,0,0-1.08-4.17-2.31-8.49,0,0-1.23-4.32-2.62-8.49,0,0-1.23-4.17-2.78-8.95l-1.54-4.94" vector-effect="non-scaling-stroke"/>
  </g>
  <path class="st0" d="M215.02,828.51c-.77-1.54-1.54-3.09-2.01-4.94,0,0-.62-1.7-1.54-5.09,0,0-1.08-3.39-2.16-6.63,0,0-.93-3.39-2.01-6.48,0,0-1.08-3.09-2.01-6.17l-2.16-6.17s-.93-3.09-2.01-6.17c0,0-1.08-3.09-2.01-6.48,0,0-1.08-3.24-2.16-6.63,0,0-.93-3.39-2.01-6.63,0,0-1.08-3.39-2.31-6.48,0,0-1.23-3.09-2.31-6.48,0,0-1.08-3.24-2.31-6.63,0,0-1.23-3.39-2.31-6.94,0,0-1.08-3.55-2.01-6.94,0,0-1.08-3.39-2.16-6.63,0,0-.93-3.39-2.01-6.48,0,0-1.08-3.09-2.01-5.86,0,0-1.08-2.93-1.85-5.71,0,0-.77-2.78-1.54-5.4,0,0-.77-2.62-1.54-5.09,0,0-.77-2.62-1.54-4.94,0,0-.77-2.31-1.54-4.32,0,0-.77-2.16-1.54-3.86,0,0-.77-1.85-1.23-3.39,0,0-.62-1.54-1.08-3.09,0,0-.46-1.54-1.08-3.09l-.93-3.09s-.62-1.54-1.08-2.78c0,0-.46-1.39-.77-2.62,0,0-.31-1.23-.77-2.31,0,0-.46-1.08-.77-2.01,0,0-.31-1.08-.77-1.85,0,0-.46-.77-1.08-1.54,0,0-.46-.77-1.23-1.54,0,0-.77-.77-1.54-1.23,0,0-.77-.62-1.54-.77,0,0-.77-.31-1.85,0,0,0-.93.15-2.01.46,0,0-1.08.31-2.01.77,0,0-1.08.46-1.85.77,0,0-.77.31-1.54.46,0,0-.77.31-1.85.31,0,0-.93,0-2.01-.31,0,0-1.08-.15-2.01-.77,0,0-1.08-.46-1.85-1.23,0,0-.77-.77-1.23-1.54,0,0-.62-.77-1.08-1.85,0,0-.46-.93-.77-2.31,0,0-.31-1.23-.31-2.47,0,0,0-1.39.31-2.62,0,0,.31-1.23.77-2.78,0,0,.46-1.54.77-3.39,0,0,.31-1.85.77-3.86,0,0,.46-2.01,1.08-3.86,0,0,.46-1.85,1.23-4.17l1.54-4.63s.77-2.31,1.23-4.78c0,0,.62-2.62,1.08-4.94,0,0,.46-2.31.77-4.63,0,0,.31-2.31.46-4.63,0,0,.31-2.31,0-4.94,0,0-.15-2.47-.46-5.09,0,0-.31-2.62-.77-5.4,0,0-.46-2.78-1.08-5.4,0,0-.46-2.62-.93-5.4,0,0-.62-2.78-1.08-5.71,0,0-.46-2.78-.77-5.86,0,0-.31-3.09-.77-5.86,0,0-.46-2.93-.77-5.71,0,0-.31-2.78-.77-5.71,0,0-.46-2.78-.77-5.55,0,0-.31-2.93-.77-5.71,0,0-.46-2.78-.77-5.71,0,0-.31-2.78-.77-5.55,0,0-.46-2.93-.77-5.25,0,0-.31-2.31-.46-4.32,0,0-.31-2.01-.62-3.86,0,0-.15-1.85-.46-3.39,0,0-.31-1.54-.46-2.78,0,0-.31-1.23-.31-2.31,0,0,0-1.08-.31-2.01,0,0-.15-1.08-.77-1.85,0,0-.46-.77-1.23-1.54l-1.54-1.54-1.54-1.54s-.77-.77-1.85-1.23c0,0-.93-.62-2.01-.77,0,0-1.08-.31-2.31-.62,0,0-1.23-.15-2.31-.77,0,0-1.08-.46-2.31-1.54,0,0-1.23-.93-2.31-2.01,0,0-1.08-1.08-2.31-2.31,0,0-1.23-1.23-2.31-2.31,0,0-1.08-1.08-2.01-2.31,0,0-1.08-1.23-1.85-2.62,0,0-.77-1.23-1.54-3.09,0,0-.77-1.7-1.54-3.55,0,0-.77-1.85-1.23-3.55,0,0-.62-1.85-.77-3.7,0,0-.31-1.7-.31-3.55v-7.25s0-1.7.31-3.55c0,0,.15-1.85.77-3.55,0,0,.46-1.85,1.23-3.39l1.54-3.09s.77-1.54,1.85-3.09c0,0,.93-1.54,2.01-3.09,0,0,1.08-1.54,2.01-3.09,0,0,1.08-1.54,1.85-3.09,0,0,.77-1.54,1.23-3.09,0,0,.62-1.54,1.08-3.09,0,0,.46-1.54.77-3.09,0,0,.31-1.54.46-3.09,0,0,.31-1.54.31-3.09v-3.39s0-1.7-.31-3.55c0,0-.15-1.85-.46-3.86,0,0-.31-2.01-.77-3.86,0,0-.46-1.85-.77-3.55,0,0-.31-1.85-.77-3.39,0,0-.46-1.54-1.08-3.09,0,0-.46-1.54-1.23-2.78,0,0-.77-1.39-1.85-2.62,0,0-.93-1.23-2.01-2.62,0,0-1.08-1.23-2.31-2.47,0,0-1.23-1.39-2.62-2.31,0,0-1.23-1.08-2.47-1.85,0,0-1.39-.77-2.62-1.85,0,0-1.23-.93-2.31-2.01,0,0-1.08-1.08-2.01-2.31,0,0-1.08-1.23-1.85-2.62,0,0-.77-1.23-1.54-2.78,0,0-.77-1.54-1.23-3.09,0,0-.62-1.54-.77-3.39,0,0-.31-1.7-.31-3.55v-10.8s0-1.85-.31-3.55c0,0-.15-1.85-.15-3.39v-3.09s0-1.54.15-2.78c0,0,.31-1.39.31-2.62,0,0,0-1.23.31-2.62,0,0,.15-1.23.46-2.47,0,0,.31-1.39.77-2.62,0,0,.46-1.23,1.08-2.31,0,0,.46-1.08,1.23-2.31,0,0,.77-1.23,1.54-2.31,0,0,.77-1.08,1.85-2.31,0,0,.93-1.23,2.01-2.31,0,0,1.08-1.08,2.31-2.01,0,0,1.23-1.08,2.62-1.85,0,0,1.23-.77,2.78-1.23,0,0,1.54-.62,2.78-1.08,0,0,1.39-.46,2.62-1.08,0,0,1.23-.46,2.31-1.23,0,0,1.08-.77,2.31-1.54,0,0,1.23-.77,2.31-1.54,0,0,1.08-.77,2.01-1.85,0,0,1.08-.93,1.85-2.01,0,0,.77-1.08,1.54-2.31,0,0,.77-1.23,1.23-2.78,0,0,.62-1.54,1.08-3.39,0,0,.46-1.85.77-3.55,0,0,.31-1.85.46-3.39l.62-3.09s.15-1.54.46-3.39c0,0,.31-1.7.46-3.55,0,0,.31-1.85.62-3.86,0,0,.15-2.01.77-3.86,0,0,.46-1.85,1.23-3.55l1.54-3.7s.77-1.7,1.23-3.55c0,0,.62-1.85,1.08-3.55,0,0,.46-1.85,1.08-3.7,0,0,.46-1.7,1.23-3.55,0,0,.77-1.85,1.23-3.86,0,0,.62-2.01,1.08-4.17,0,0,.46-2.01.77-4.32,0,0,.31-2.31.46-4.32,0,0,.31-2.16.62-4.47,0,0,.15-2.31.46-4.63,0,0,.31-2.31.46-5.09,0,0,.31-2.78.31-5.86v-19.9s0-3.24-.77-9.26l-.77-5.86" vector-effect="non-scaling-stroke"/>
  <path class="st2" d="M136.33,165.09v-18.98s0-3.7-.31-7.25c0,0-.15-3.55-.46-7.41,0,0-.31-3.86-.46-8.02,0,0-.31-4.17-.62-8.49,0,0-.15-4.32-.46-8.49,0,0-.31-4.17-.46-8.02,0,0-.31-3.86-.31-7.1v-6.17s0-2.93-.31-5.25c0,0-.15-2.31-.46-4.32,0,0-.31-2.01-.46-3.86,0,0-.31-1.85-.62-3.55,0,0-.15-1.85-.77-3.39,0,0-.46-1.54-1.23-3.09,0,0-.77-1.54-1.54-2.78,0,0-.77-1.39-1.85-2.31,0,0-.93-1.08-2.01-1.85,0,0-1.08-.77-2.31-1.54,0,0-1.23-.77-2.62-1.23,0,0-1.23-.62-2.47-1.08,0,0-1.39-.46-2.62-.46h-2.62s-1.23,0-2.78.46c0,0-1.54.46-3.09,1.08,0,0-1.54.46-3.09,1.23,0,0-1.54.77-2.78,1.85,0,0-1.39.93-2.62,2.31,0,0-1.23,1.23-2.31,2.78,0,0-1.08,1.54-1.85,3.39,0,0-.77,1.7-1.23,3.55,0,0-.46,1.85-.77,3.86,0,0-.31,2.01-.46,4.17,0,0-.31,2.01-.31,4.01,0,0,0,2.16.31,4.47,0,0,.15,2.31.77,4.32,0,0,.46,2.01,1.23,4.32,0,0,.77,2.31,1.54,4.47,0,0,.77,2.01,1.85,4.32,0,0,.93,2.31,2.31,4.63,0,0,1.23,2.31,2.78,4.63l3.09,4.63s1.54,2.31,2.78,4.94c0,0,1.39,2.47,2.62,5.09,0,0,1.23,2.62,2.31,5.4,0,0,1.08,2.78,1.85,5.4,0,0,.77,2.62,1.23,5.4,0,0,.46,2.78,1.08,5.71,0,0,.46,2.78.93,5.86,0,0,.62,3.09.77,5.86,0,0,.31,2.93,0,6.02,0,0-.15,3.09-.46,5.86,0,0-.31,2.78-.77,5.86,0,0-.46,3.09-1.08,6.02,0,0-.46,2.78-1.23,5.55,0,0-.77,2.93-1.85,5.71,0,0-.93,2.78-2.31,5.71l-2.47,5.55s-1.39,2.93-2.62,5.25c0,0-1.23,2.31-2.31,4.32,0,0-1.08,2.01-2.01,4.17,0,0-1.08,2.01-1.54,4.32,0,0-.62,2.31-1.08,4.63,0,0-.46,2.31-.77,4.63,0,0-.31,2.31-.46,4.32,0,0-.31,2.16-.62,3.86,0,0-.15,1.85-.46,3.39,0,0-.31,1.54-.46,3.09,0,0-.31,1.54-.31,3.09v2.78s0,1.39-.31,2.62c0,0-.15,1.23-.77,2.31,0,0-.46,1.08-1.23,2.31,0,0-.77,1.23-1.54,2.31,0,0-.77,1.08-1.54,2.01,0,0-.77,1.08-1.85,1.85,0,0-.93.77-2.31,1.23,0,0-1.23.62-2.78,1.08,0,0-1.54.46-3.09,1.08,0,0-1.54.46-3.09,1.23,0,0-1.54.77-2.78,1.54,0,0-1.39.77-2.62,1.54,0,0-1.23.77-2.31,1.85,0,0-1.08.93-2.31,2.01,0,0-1.23,1.08-2.31,2.62,0,0-1.08,1.54-2.01,3.09,0,0-1.08,1.54-1.85,3.55,0,0-.77,2.01-1.23,3.86,0,0-.62,1.85-.77,3.86,0,0-.31,2.01-.62,4.17,0,0-.15,2.01-.46,4.32,0,0-.31,2.31-.46,4.63,0,0-.31,2.31-.31,4.63v4.94s0,2.47.31,5.09c0,0,.15,2.62.46,5.4,0,0,.31,2.78.77,5.4,0,0,.46,2.62,1.08,5.4,0,0,.46,2.78,1.23,5.71l1.54,5.55s.77,2.93,1.85,5.71c0,0,.93,2.78,2.01,5.4,0,0,1.08,2.62,2.31,5.4,0,0,1.23,2.78,2.62,5.71,0,0,1.23,2.78,2.47,5.86,0,0,1.39,3.09,2.62,5.86,0,0,1.23,2.93,2.31,5.71,0,0,1.08,2.78,2.01,5.71,0,0,1.08,2.78,1.85,6.17,0,0,.77,3.24,1.54,6.63,0,0,.77,3.39,1.23,6.63,0,0,.62,3.39.77,6.79,0,0,.31,3.24.31,6.63v27s0,3.55.31,6.94c0,0,.15,3.39.77,6.94,0,0,.46,3.55,1.23,6.94,0,0,.77,3.39,1.54,6.63,0,0,.77,3.39,1.85,6.79,0,0,.93,3.24,2.31,6.63,0,0,1.23,3.39,2.78,6.63,0,0,1.54,3.39,3.09,6.48,0,0,1.54,3.09,3.39,5.86,0,0,1.7,2.93,3.55,5.71,0,0,1.85,2.78,3.55,5.71,0,0,1.85,2.78,3.39,5.86l3.09,6.17s1.54,3.09,2.78,6.17c0,0,1.39,3.09,2.31,6.48,0,0,1.08,3.24,1.85,6.63,0,0,.77,3.39,1.54,6.94,0,0,.77,3.55,1.23,6.94,0,0,.62,3.39.77,6.94,0,0,.31,3.55.31,6.94v19.29" vector-effect="non-scaling-stroke"/>
  <path class="st3" d="M127.07,604.8c0,1.85,0,3.86-.31,5.86,0,0-.15,1.85-.46,5.25,0,0-.31,3.24-.77,6.33,0,0-.46,3.09-1.08,6.02,0,0-.46,2.78-.93,5.4,0,0-.62,2.47-1.08,4.78,0,0-.46,2.31-.77,4.47,0,0-.31,2.01-.46,4.01,0,0-.31,2.16-.31,3.86v3.39s0,1.54.31,3.09c0,0,.15,1.54.77,3.09,0,0,.46,1.54,1.23,2.78,0,0,.77,1.39,1.85,2.62,0,0,.93,1.23,2.31,2.31,0,0,1.23,1.08,2.78,2.01,0,0,1.54,1.08,2.78,2.16,0,0,1.39.93,2.62,2.31,0,0,1.23,1.23,2.62,2.78,0,0,1.23,1.54,2.78,3.39,0,0,1.54,1.7,2.78,3.86,0,0,1.39,2.01,2.31,4.32,0,0,1.08,2.31,1.54,4.63,0,0,.62,2.31,1.08,4.63,0,0,.46,2.31,1.08,4.63,0,0,.46,2.31.93,4.94,0,0,.62,2.47.77,5.09,0,0,.31,2.62.31,5.09v4.94s0,2.31-.31,4.94c0,0-.15,2.47-2.01,7.1,0,0-1.85,4.63-5.86,12.96,0,0-4.17,8.18-8.79,17.13,0,0-4.63,9.1-8.02,16.2,0,0-3.24,7.25-4.63,11.11,0,0-1.23,3.86-2.01,6.94l-1.54,6.17-1.54,6.17s-.77,3.09-1.23,6.17c0,0-.62,3.09-.77,6.17,0,0-.31,3.09-.31,6.17,0,0,0,3.09.31,6.17,0,0,.15,3.09.46,6.17,0,0,.31,3.09.77,6.17,0,0,.46,3.09,1.08,6.17,0,0,.46,3.09,1.23,6.48,0,0,.77,3.24,1.85,6.63,0,0,.93,3.39,2.01,6.63,0,0,1.08,3.39,2.01,6.48,0,0,1.08,3.09,1.85,6.17,0,0,.77,3.09,1.54,6.48,0,0,.77,3.24,1.85,6.63,0,0,.93,3.39,2.01,6.63,0,0,1.08,3.39,2.31,6.48,0,0,1.23,3.09,2.62,6.17,0,0,1.23,3.09,2.78,6.17l3.09,6.17s1.54,3.09,3.39,6.17c0,0,1.7,3.09,3.55,5.86,0,0,1.85,2.93,3.55,5.71,0,0,1.85,2.78,3.7,5.4,0,0,1.7,2.62,3.55,5.4,0,0,1.85,2.78,4.17,5.4,0,0,2.31,2.62,4.63,5.09,0,0,2.31,2.62,4.78,5.25,0,0,2.62,2.47,4.94,5.09,0,0,2.31,2.62,4.63,5.09,0,0,2.31,2.62,4.94,4.94,0,0,2.47,2.31,5.09,4.63,0,0,2.62,2.31,5.4,4.32,0,0,2.78,2.16,5.4,4.17,0,0,2.62,2.01,5.4,3.86,0,0,2.78,1.85,5.4,3.86,0,0,2.62,2.01,5.09,3.86,0,0,2.62,1.85,4.94,3.55,0,0,2.31,1.85,4.32,3.09,0,0,2.16,1.39,3.7,2.31,0,0,1.54,1.08,2.78,1.85,0,0,1.23.77,2.31,1.23,0,0,1.08.62,2.31,1.08,0,0,1.23.46,2.62.77,0,0,1.23.31,2.47.31,0,0,1.39,0,2.62-.62,0,0,1.23-.46,2.31-1.23,0,0,1.08-.77,2.01-1.54,0,0,1.08-.77,1.85-1.54,0,0,.77-.77,1.54-1.85,0,0,.77-.93,1.23-2.31,0,0,.62-1.23.77-2.78,0,0,.31-1.54.31-3.09,0,0,0-1.54-.31-3.09,0,0-.15-1.54-.46-3.09,0,0-.31-1.54-.77-3.39,0,0-.46-1.7-1.85-7.41,0,0-1.23-5.71-3.24-15.89,0,0-2.16-10.34-4.17-20.83,0,0-2.01-10.65-3.39-18.05,0,0-1.23-7.41-2.01-11.11,0,0-.77-3.55-1.85-7.41,0,0-.93-3.86-2.01-7.71,0,0-1.08-3.86-2.01-7.71,0,0-1.08-3.86-1.85-8.02,0,0-.77-4.01-1.54-8.49,0,0-.77-4.32-1.85-8.64,0,0-.93-4.47-2.01-8.49,0,0-1.08-4.17-2.31-8.33,0,0-1.23-4.01-2.31-8.18,0,0-1.08-4.17-2.31-8.49,0,0-1.23-4.32-2.62-8.49,0,0-1.23-4.17-2.78-8.95l-1.54-4.94" vector-effect="non-scaling-stroke"/>
  <g id="moving-circle-group">
    <circle cx="215.02" cy="828.51" r="30.86" vector-effect="non-scaling-stroke"/>
    <circle class="st4" cx="215.02" cy="828.51" r="10.8" transform="translate(-637.23 908.04) rotate(-80.78)" vector-effect="non-scaling-stroke"/>
  </g>
</svg>