<?xml version="1.0" encoding="UTF-8"?>
<svg id="minimap-svg" xmlns="http://www.w3.org/2000/svg" version="1.1" viewBox="0 0 686.21 1080">
  <!-- Generator: Adobe Illustrator 30.0.0, SVG Export Plug-In . SVG Version: 2.1.1 Build 123)  -->
  <defs>
    <style>
      .st0 {
        stroke: #ef4444;
      }

      .st0, .st1, .st2, .st3 {
        fill: none;
        stroke-miterlimit: 6.17;
      }

      .st0, .st2, .st3 {
        stroke-width: 3.09px;
      }

      .st1 {
        stroke: #000;
        stroke-width: 12.34px;
      }

      .st2 {
        stroke: #3b82f6;
      }

      .st3 {
        stroke: #fbbf24;
      }

      .st4 {
        fill: #fff;
      }
    </style>
  </defs>
  <g>
    <path class="st1" d="M78.5,743.66c1.23-1.85,2.31-3.86,3.7-6.02,0,0,1.39-2.16,6.79-9.87l16.2-23.14s10.8-15.43,22.99-32.4c0,0,12.03-16.97,21.6-30.7,0,0,9.41-13.58,13.89-19.44,0,0,4.32-6.02,7.41-10.03,0,0,3.09-4.17,5.86-8.02,0,0,2.93-3.86,5.4-7.41,0,0,2.62-3.7,4.94-6.94,0,0,2.31-3.39,4.63-6.48l4.63-6.17s2.31-3.09,4.32-6.17c0,0,2.16-3.09,4.17-5.86,0,0,2.01-2.93,3.86-5.4,0,0,1.85-2.62,4.17-4.94,0,0,2.31-2.31,4.78-4.32,0,0,2.62-2.16,5.4-3.86,0,0,2.93-1.85,5.71-3.09,0,0,2.78-1.39,5.86-2.31,0,0,3.09-1.08,6.48-1.54,0,0,3.39-.62,6.94-.77,0,0,3.55-.31,7.41,0,0,0,3.86.15,8.02.77,0,0,4.17.46,8.18,1.23,0,0,4.17.77,8.02,1.23,0,0,3.86.62,7.71,1.08,0,0,3.86.46,8.02.77,0,0,4.01.31,7.87.77,0,0,3.86.46,7.71.77,0,0,3.86.31,7.56.31,0,0,3.55,0,7.71-.31,0,0,4.01-.31,7.87-.77,0,0,3.86-.46,7.71-1.08,0,0,3.86-.46,7.56-1.54,0,0,3.55-.93,7.41-2.31,0,0,3.86-1.23,7.41-3.09,0,0,3.7-1.7,7.25-3.86,0,0,3.55-2.01,7.25-4.32,0,0,3.55-2.31,7.1-4.94,0,0,3.7-2.47,6.94-5.4,0,0,3.39-2.78,6.79-5.86,0,0,3.24-3.09,6.33-5.86,0,0,3.09-2.93,6.17-5.4,0,0,3.09-2.62,5.71-5.25,0,0,2.62-2.47,5.4-5.09,0,0,2.78-2.62,5.4-5.09,0,0,2.62-2.62,5.09-4.63,0,0,2.62-2.16,4.94-3.86,0,0,2.31-1.85,4.32-3.39,0,0,2.16-1.54,3.86-3.09,0,0,1.85-1.54,3.39-2.78,0,0,1.54-1.39,2.78-2.62,0,0,1.39-1.23,2.62-2.31,0,0,1.23-1.08,2.62-2.01,0,0,1.23-1.08,2.78-1.85l3.09-1.54s1.54-.77,3.09-1.23c0,0,1.54-.62,3.09-.77,0,0,1.54-.31,3.09-.31,0,0,1.54,0,3.39.31,0,0,1.7.15,3.55.93,0,0,1.85.77,3.39,2.16,0,0,1.54,1.23,2.78,2.78,0,0,1.23,1.54,2.31,3.39,0,0,1.08,1.7,2.01,3.86,0,0,1.08,2.01,1.54,4.63,0,0,.62,2.47,1.08,5.09,0,0,.46,2.62,1.08,5.09,0,0,.46,2.62,1.23,4.94,0,0,.77,2.31,1.54,4.32,0,0,.77,2.16,1.23,4.17,0,0,.62,2.01,1.08,3.86,0,0,.46,1.85,1.08,3.55,0,0,.46,1.85,1.23,3.39,0,0,.77,1.54,1.23,3.09,0,0,.62,1.54,1.08,2.78,0,0,.46,1.39,1.08,2.62,0,0,.46,1.23,1.23,2.31,0,0,.77,1.08,1.85,2.01,0,0,.93,1.08,2.31,1.85,0,0,1.23.77,3.09,1.54,0,0,1.7.77,3.55,1.23,0,0,1.85.62,3.55.62,0,0,1.85,0,3.39-.62,0,0,1.54-.46,2.78-1.54,0,0,1.39-.93,2.62-2.47,0,0,1.23-1.54,2.31-3.39,0,0,1.08-1.85,2.01-3.86,0,0,1.08-2.01,1.85-4.17,0,0,.77-2.01,1.85-4.32,0,0,.93-2.31,2.01-4.63,0,0,1.08-2.31,2.01-4.94,0,0,1.08-2.47,1.85-5.09,0,0,.77-2.62,1.54-5.4,0,0,.77-2.78,1.23-5.71,0,0,.62-2.78,1.08-5.86,0,0,.46-3.09,1.08-6.17,0,0,.46-3.09.93-5.86,0,0,.62-2.93,1.08-6.02,0,0,.46-3.09.77-5.86,0,0,.31-2.78.46-5.86,0,0,.31-3.09,0-6.02,0,0-.15-2.78-.77-5.86,0,0-.46-3.09-1.23-5.86,0,0-.77-2.93-2.01-5.71,0,0-1.39-2.78-2.93-5.4,0,0-1.54-2.62-3.55-5.09,0,0-2.01-2.62-4.32-4.94,0,0-2.31-2.31-4.94-4.63,0,0-2.62-2.31-5.71-4.94,0,0-3.09-2.47-6.17-5.4,0,0-3.09-2.78-6.63-5.86,0,0-3.55-3.09-7.25-6.17,0,0-3.55-3.09-7.41-6.48,0,0-3.86-3.24-7.71-6.63,0,0-3.86-3.39-8.02-6.94,0,0-4.01-3.55-8.49-7.25,0,0-4.32-3.55-8.95-7.71,0,0-4.63-4.01-8.95-7.87,0,0-4.47-3.86-9.1-8.02,0,0-4.63-4.17-9.26-8.02,0,0-4.63-3.86-9.41-7.87,0,0-4.94-4.17-9.57-8.33,0,0-4.63-4.01-9.57-8.49,0,0-4.78-4.32-10.03-8.95,0,0-5.09-4.63-10.49-9.26,0,0-5.4-4.63-10.49-8.95,0,0-5.25-4.47-10.34-8.79,0,0-5.09-4.32-10.03-8.49,0,0-4.94-4.17-9.57-8.18,0,0-4.63-4.17-8.64-7.71,0,0-4.17-3.7-8.02-7.25,0,0-3.86-3.55-7.71-6.94,0,0-3.86-3.39-9.26-7.41l-5.4-4.17" vector-effect="non-scaling-stroke"/>
    <path class="st1" d="M309.93,208.29c-1.54-1.54-3.09-3.09-4.63-4.32,0,0-1.54-1.39-4.63-3.86,0,0-3.09-2.62-5.86-4.94,0,0-2.93-2.31-5.4-4.63,0,0-2.62-2.31-4.94-4.63,0,0-2.31-2.31-4.63-4.32,0,0-2.31-2.16-4.63-3.86,0,0-2.31-1.85-4.32-3.39,0,0-2.16-1.54-3.86-3.09l-3.7-3.09s-1.7-1.54-3.86-2.78c0,0-2.01-1.39-4.01-2.31,0,0-2.16-1.08-3.86-1.54,0,0-1.85-.62-3.7-1.08,0,0-1.7-.46-3.86-.77,0,0-2.01-.31-4.01-.46,0,0-2.16-.31-4.17-.31h-4.17s-2.01,0-4.01.31c0,0-2.16.15-4.17.77,0,0-2.01.46-4.17,1.23,0,0-2.01.77-4.01,1.85,0,0-2.16.93-3.86,2.31,0,0-1.85,1.23-3.39,2.78,0,0-1.54,1.54-2.78,3.39,0,0-1.39,1.7-2.31,3.55,0,0-1.08,1.85-1.54,3.86,0,0-.62,2.01-1.08,3.86,0,0-.46,1.85-.77,3.86,0,0-.31,2.01-.46,4.17,0,0-.31,2.01-.31,4.32,0,0,0,2.31-.31,4.63,0,0-.15,2.31-.46,4.63,0,0-.31,2.31-.46,4.32,0,0-.31,2.16-.62,4.17,0,0-.15,2.01-.46,3.86,0,0-.31,1.85-.46,3.86,0,0-.31,2.01-.62,3.86,0,0-.15,1.85-.77,3.86,0,0-.46,2.01-1.54,3.86,0,0-.93,1.85-2.31,3.55,0,0-1.23,1.85-2.78,3.09,0,0-1.54,1.39-2.78,2.62,0,0-1.39,1.23-2.62,2.31,0,0-1.23,1.08-2.78,1.85,0,0-1.54.77-3.7,1.23,0,0-2.01.46-4.01.77,0,0-2.16.31-3.86.46,0,0-1.85.31-3.39,0,0,0-1.54-.15-3.09-.46,0,0-1.54-.31-3.39-.77,0,0-1.7-.46-3.55-1.23,0,0-1.85-.77-3.39-1.85,0,0-1.54-1.08-2.78-2.01,0,0-1.23-1.08-2.62-2.16,0,0-1.23-.93-2.47-2.31,0,0-1.39-1.23-2.31-2.78,0,0-1.08-1.54-1.85-3.39,0,0-.77-1.7-1.54-3.55,0,0-.77-1.85-1.23-3.86,0,0-.62-2.01-.77-4.17,0,0-.31-2.01,0-4.32,0,0,.15-2.31.77-4.63,0,0,.46-2.31,1.23-4.63,0,0,.77-2.31,1.85-4.63,0,0,.93-2.31,2.01-4.94,0,0,1.08-2.47,2.31-5.4,0,0,1.23-2.78,2.62-5.86,0,0,1.23-3.09,2.78-6.17l3.09-6.17s1.54-3.09,3.09-6.48c0,0,1.54-3.24,2.78-6.94,0,0,1.39-3.55,2.93-7.1,0,0,1.54-3.7,3.09-6.94,0,0,1.54-3.39,3.24-6.48,0,0,1.85-3.09,3.7-6.48,0,0,1.7-3.24,3.86-6.33,0,0,2.01-3.09,4.32-6.17,0,0,2.31-3.09,4.94-6.02,0,0,2.47-2.78,5.4-5.86,0,0,2.78-3.09,5.55-5.86,0,0,2.93-2.93,5.4-5.4,0,0,2.62-2.62,5.4-5.25,0,0,2.93-2.47,6.02-5.09,0,0,3.09-2.62,6.63-5.09,0,0,3.55-2.62,6.94-4.63,0,0,3.39-2.16,7.25-3.86,0,0,3.86-1.85,7.71-3.39,0,0,3.86-1.54,7.87-2.78,0,0,4.17-1.39,8.02-2.31,0,0,3.86-1.08,8.02-1.85,0,0,4.01-.77,8.18-1.54,0,0,4.17-.77,8.18-1.54,0,0,4.17-.77,8.49-1.23,0,0,4.47-.62,8.79-1.08,0,0,4.32-.46,8.95-1.08,0,0,4.63-.46,9.1-1.23,0,0,4.32-.77,8.95-1.54l9.26-1.54s4.63-.77,8.95-1.23c0,0,4.47-.62,8.79-1.08,0,0,4.32-.46,8.79-.77,0,0,4.32-.31,8.64-.77,0,0,4.47-.46,8.79-1.08,0,0,4.32-.46,8.95-1.23,0,0,4.63-.77,9.57-1.23,0,0,4.94-.62,9.57-1.08,0,0,4.63-.46,8.95-.77,0,0,4.32-.31,8.79-.77,0,0,4.32-.46,8.64-1.08,0,0,4.47-.46,8.49-.93,0,0,4.17-.62,8.02-.77l7.71-.62s3.86-.15,7.71-.77c0,0,3.86-.46,7.41-.93,0,0,3.7-.62,6.79-.77,0,0,3.09-.31,5.86-.31,0,0,2.78,0,5.4-.31,0,0,2.62-.15,5.09-.46,0,0,2.62-.31,5.25-.31,0,0,2.47,0,5.09.31,0,0,2.62.31,5.09,1.08,0,0,2.62.77,4.94,1.54,0,0,2.31.77,4.94,1.7,0,0,2.47,1.08,5.09,2.16,0,0,2.62.93,5.09,2.31,0,0,2.62,1.23,4.94,3.09,0,0,2.31,1.7,4.32,3.86,0,0,2.16,2.01,3.86,4.32,0,0,1.85,2.31,3.39,4.94,0,0,1.54,2.47,3.09,5.4,0,0,1.54,2.78,2.78,5.86,0,0,1.39,3.09,2.62,6.17,0,0,1.23,3.09,2.62,6.48,0,0,1.23,3.24,2.47,6.94,0,0,1.39,3.55,2.62,7.41,0,0,1.23,3.86,2.31,7.71,0,0,1.08,3.86,2.31,7.71,0,0,1.23,3.86,2.31,7.71,0,0,1.08,3.86,2.31,8.02,0,0,1.23,4.01,2.31,8.49,0,0,1.08,4.32,2.01,8.64,0,0,1.08,4.47,1.85,8.79,0,0,.77,4.32,1.54,8.49,0,0,.77,4.17,1.54,8.49,0,0,.77,4.32,1.54,8.95,0,0,.77,4.63,1.54,9.57,0,0,.77,4.94,1.54,9.72,0,0,.77,4.94,1.23,9.57,0,0,.62,4.63,1.08,8.95,0,0,.46,4.47.77,8.79,0,0,.31,4.32.46,8.49,0,0,.31,4.17.62,8.49,0,0,.15,4.32.46,8.79,0,0,.31,4.32.77,8.64,0,0,.46,4.47.77,8.49,0,0,.31,4.17.46,8.02,0,0,.31,3.86.31,7.41,0,0,0,3.7.31,7.25,0,0,.15,3.55.46,6.94,0,0,.31,3.39.46,6.63,0,0,.31,3.39.62,6.48,0,0,.15,3.09.77,5.86,0,0,.46,2.93,1.23,5.71,0,0,.77,2.78,1.85,5.86,0,0,.93,3.09,2.01,6.17,0,0,1.08,3.09,2.31,6.17,0,0,1.23,3.09,2.62,6.02,0,0,1.23,2.78,3.09,5.55,0,0,1.7,2.93,3.24,5.71,0,0,1.54,2.78,3.09,5.71,0,0,1.54,2.78,2.93,5.55,0,0,1.23,2.93,2.47,5.71,0,0,1.39,2.78,2.31,5.71,0,0,1.08,2.78,1.54,5.86,0,0,.62,3.09.62,6.17,0,0,0,3.09-.62,6.17,0,0-.46,3.09-1.23,6.17,0,0-.77,3.09-1.85,6.48,0,0-.93,3.24-2.01,6.63,0,0-1.08,3.39-2.01,6.63,0,0-1.08,3.39-2.16,6.48,0,0-.93,3.09-2.01,5.86,0,0-1.08,2.93-2.01,5.71,0,0-1.08,2.78-1.85,5.4,0,0-.77,2.62-1.54,5.4,0,0-.77,2.78-1.23,5.4,0,0-.62,2.62-.77,5.71,0,0-.31,3.09-.31,5.86,0,0,0,2.78.31,5.86,0,0,.15,3.09.93,6.02,0,0,.77,2.78,1.85,5.55,0,0,1.08,2.93,2.31,5.71,0,0,1.23,2.78,2.78,5.4,0,0,1.54,2.62,3.39,5.09,0,0,1.85,2.62,3.86,4.94,0,0,2.01,2.31,3.86,4.63,0,0,1.85,2.31,3.55,4.63,0,0,1.85,2.31,3.39,4.63,0,0,1.54,2.31,2.78,4.94,0,0,1.39,2.47,2.16,5.09,0,0,.77,2.62,1.23,5.4,0,0,.46,2.78.77,5.71,0,0,.31,2.78.31,5.55,0,0,0,2.93-.62,5.71,0,0-.46,2.78-1.54,5.71,0,0-.93,2.78-2.31,5.55,0,0-1.23,2.93-3.09,5.4,0,0-1.7,2.62-3.86,4.94,0,0-2.01,2.31-4.63,4.32,0,0-2.47,2.16-5.4,4.17,0,0-2.78,2.01-5.86,3.86,0,0-3.09,1.85-6.17,3.86,0,0-3.09,2.01-6.17,4.17,0,0-3.09,2.01-6.17,4.32l-6.17,4.63s-3.09,2.31-6.17,4.94c0,0-3.09,2.47-5.86,5.4,0,0-2.93,2.78-5.4,5.86,0,0-2.62,3.09-4.94,6.63,0,0-2.31,3.7-4.63,7.56,0,0-2.31,3.86-4.63,8.18,0,0-2.31,4.32-6.17,11.11l-3.86,6.63" vector-effect="non-scaling-stroke"/>
    <path class="st1" d="M545.99,664.97c-1.23,2.31-2.31,4.63-3.39,7.25,0,0-1.23,2.47-3.55,7.41,0,0-2.31,4.94-4.94,10.03,0,0-2.47,5.09-5.09,10.34,0,0-2.62,5.09-5.4,10.8,0,0-2.78,5.55-5.71,11.26,0,0-2.78,5.71-5.86,11.57,0,0-3.09,5.86-5.86,11.57,0,0-2.93,5.71-5.71,11.57,0,0-2.78,5.86-5.71,11.88,0,0-2.78,5.86-5.86,12.03l-6.17,12.34s-3.09,6.17-6.17,12.65c0,0-3.09,6.33-6.17,12.81,0,0-3.09,6.48-6.17,12.81,0,0-3.09,6.48-6.17,13.11,0,0-3.09,6.79-6.17,13.42,0,0-3.09,6.63-6.48,13.58,0,0-3.24,6.94-6.63,13.42,0,0-3.39,6.48-6.94,13.11,0,0-3.55,6.63-7.25,13.42,0,0-3.55,6.63-7.1,13.27,0,0-3.7,6.79-6.94,12.65,0,0-3.39,5.86-6.48,11.26,0,0-3.09,5.4-6.17,10.65,0,0-3.09,5.09-5.86,10.03,0,0-2.93,4.78-5.71,9.26,0,0-2.78,4.32-5.4,8.18,0,0-2.62,3.86-5.09,7.71,0,0-2.62,3.86-4.63,7.41,0,0-2.16,3.7-4.17,6.94,0,0-2.01,3.39-4.17,6.17,0,0-2.01,2.93-4.01,5.4,0,0-2.16,2.62-4.17,4.94,0,0-2.01,2.31-4.17,4.63,0,0-2.01,2.31-4.32,4.32,0,0-2.31,2.16-4.94,3.7,0,0-2.47,1.54-5.4,2.78,0,0-2.78,1.23-5.55,2.01,0,0-2.93.77-5.71,1.54,0,0-2.78.77-5.4,1.08,0,0-2.62.31-5.4.31,0,0-2.78,0-5.71-.31,0,0-2.78-.31-5.86-1.08,0,0-3.09-.77-5.86-1.54,0,0-2.93-.77-5.71-2.31,0,0-2.78-1.54-5.4-3.09,0,0-2.62-1.54-5.09-3.86,0,0-2.62-2.31-4.63-4.63,0,0-2.16-2.31-4.17-5.4,0,0-2.01-3.09-3.86-6.17,0,0-1.85-3.09-3.55-6.33,0,0-1.85-3.39-3.39-6.48l-3.09-6.17s-1.54-3.09-3.39-6.17c0,0-1.7-3.09-3.55-6.48,0,0-1.85-3.24-3.86-6.33,0,0-2.01-3.09-4.17-6.17,0,0-2.01-3.09-4.32-6.02,0,0-2.31-2.78-4.63-6.17,0,0-2.31-3.24-4.63-6.33,0,0-2.31-3.09-4.94-6.17,0,0-2.47-3.09-5.4-6.02l-5.55-5.55s-2.93-2.93-5.4-5.71c0,0-2.62-2.78-4.94-5.71,0,0-2.31-2.78-4.94-5.55,0,0-2.47-2.93-5.09-5.4,0,0-2.62-2.62-5.09-4.94,0,0-2.62-2.31-4.94-4.94,0,0-2.31-2.47-4.63-5.09,0,0-2.31-2.62-4.63-5.09l-4.63-5.25s-2.31-2.47-4.63-5.09c0,0-2.31-2.62-4.32-5.09,0,0-2.16-2.62-4.17-4.94,0,0-2.01-2.31-3.55-4.17,0,0-1.54-1.7-3.09-3.24,0,0-1.54-1.54-2.62-2.93,0,0-1.08-1.23-2.31-2.47,0,0-1.23-1.39-2.31-2.31,0,0-1.08-1.08-2.31-1.54,0,0-1.23-.62-2.62-1.08,0,0-1.23-.46-2.78-.46,0,0-1.54,0-3.09.15,0,0-1.54.31-3.39,1.08,0,0-1.7.77-3.55,1.85,0,0-1.85.93-3.39,2.31,0,0-1.54,1.23-2.78,2.78,0,0-1.23,1.54-2.62,2.78,0,0-1.23,1.39-3.09,2.62,0,0-1.7,1.23-3.55,2.31,0,0-1.85,1.08-3.86,1.85,0,0-2.01.77-3.86.93,0,0-1.85.31-3.86,0,0,0-2.01-.15-4.17-.93,0,0-2.01-.77-4.01-2.16,0,0-2.16-1.23-4.17-2.78,0,0-2.01-1.54-4.17-3.39,0,0-2.01-1.7-4.01-3.86,0,0-2.16-2.01-3.86-4.32,0,0-1.85-2.31-3.39-4.32,0,0-1.54-2.16-3.09-4.17,0,0-1.54-2.01-3.09-4.17,0,0-1.54-2.01-3.09-4.32,0,0-1.54-2.31-3.09-4.94,0,0-1.54-2.47-2.78-5.4,0,0-1.39-2.78-2.31-5.55,0,0-1.08-2.93-1.85-5.71,0,0-.77-2.78-1.54-5.71,0,0-.77-2.78-1.23-5.55,0,0-.62-2.93-.77-5.71,0,0-.31-2.78,0-5.71,0,0,.15-2.78.77-5.86,0,0,.46-3.09,1.54-5.86,0,0,.93-2.93,2.47-5.4,0,0,1.54-2.62,3.7-5.25,0,0,2.01-2.47,4.32-5.4,0,0,2.31-2.78,4.32-5.55,0,0,2.16-2.93,4.17-5.71,0,0,2.01-2.78,6.48-8.02l4.32-5.09" vector-effect="non-scaling-stroke"/>
  </g>
  <path class="st0" d="M78.5,743.66c1.23-1.85,2.31-3.86,3.7-6.02,0,0,1.39-2.16,6.79-9.87l16.2-23.14s10.8-15.43,22.99-32.4c0,0,12.03-16.97,21.6-30.7,0,0,9.41-13.58,13.89-19.44,0,0,4.32-6.02,7.41-10.03,0,0,3.09-4.17,5.86-8.02,0,0,2.93-3.86,5.4-7.41,0,0,2.62-3.7,4.94-6.94,0,0,2.31-3.39,4.63-6.48l4.63-6.17s2.31-3.09,4.32-6.17c0,0,2.16-3.09,4.17-5.86,0,0,2.01-2.93,3.86-5.4,0,0,1.85-2.62,4.17-4.94,0,0,2.31-2.31,4.78-4.32,0,0,2.62-2.16,5.4-3.86,0,0,2.93-1.85,5.71-3.09,0,0,2.78-1.39,5.86-2.31,0,0,3.09-1.08,6.48-1.54,0,0,3.39-.62,6.94-.77,0,0,3.55-.31,7.41,0,0,0,3.86.15,8.02.77,0,0,4.17.46,8.18,1.23,0,0,4.17.77,8.02,1.23,0,0,3.86.62,7.71,1.08,0,0,3.86.46,8.02.77,0,0,4.01.31,7.87.77,0,0,3.86.46,7.71.77,0,0,3.86.31,7.56.31,0,0,3.55,0,7.71-.31,0,0,4.01-.31,7.87-.77,0,0,3.86-.46,7.71-1.08,0,0,3.86-.46,7.56-1.54,0,0,3.55-.93,7.41-2.31,0,0,3.86-1.23,7.41-3.09,0,0,3.7-1.7,7.25-3.86,0,0,3.55-2.01,7.25-4.32,0,0,3.55-2.31,7.1-4.94,0,0,3.7-2.47,6.94-5.4,0,0,3.39-2.78,6.79-5.86,0,0,3.24-3.09,6.33-5.86,0,0,3.09-2.93,6.17-5.4,0,0,3.09-2.62,5.71-5.25,0,0,2.62-2.47,5.4-5.09,0,0,2.78-2.62,5.4-5.09,0,0,2.62-2.62,5.09-4.63,0,0,2.62-2.16,4.94-3.86,0,0,2.31-1.85,4.32-3.39,0,0,2.16-1.54,3.86-3.09,0,0,1.85-1.54,3.39-2.78,0,0,1.54-1.39,2.78-2.62,0,0,1.39-1.23,2.62-2.31,0,0,1.23-1.08,2.62-2.01,0,0,1.23-1.08,2.78-1.85l3.09-1.54s1.54-.77,3.09-1.23c0,0,1.54-.62,3.09-.77,0,0,1.54-.31,3.09-.31,0,0,1.54,0,3.39.31,0,0,1.7.15,3.55.93,0,0,1.85.77,3.39,2.16,0,0,1.54,1.23,2.78,2.78,0,0,1.23,1.54,2.31,3.39,0,0,1.08,1.7,2.01,3.86,0,0,1.08,2.01,1.54,4.63,0,0,.62,2.47,1.08,5.09,0,0,.46,2.62,1.08,5.09,0,0,.46,2.62,1.23,4.94,0,0,.77,2.31,1.54,4.32,0,0,.77,2.16,1.23,4.17,0,0,.62,2.01,1.08,3.86,0,0,.46,1.85,1.08,3.55,0,0,.46,1.85,1.23,3.39,0,0,.77,1.54,1.23,3.09,0,0,.62,1.54,1.08,2.78,0,0,.46,1.39,1.08,2.62,0,0,.46,1.23,1.23,2.31,0,0,.77,1.08,1.85,2.01,0,0,.93,1.08,2.31,1.85,0,0,1.23.77,3.09,1.54,0,0,1.7.77,3.55,1.23,0,0,1.85.62,3.55.62,0,0,1.85,0,3.39-.62,0,0,1.54-.46,2.78-1.54,0,0,1.39-.93,2.62-2.47,0,0,1.23-1.54,2.31-3.39,0,0,1.08-1.85,2.01-3.86,0,0,1.08-2.01,1.85-4.17,0,0,.77-2.01,1.85-4.32,0,0,.93-2.31,2.01-4.63,0,0,1.08-2.31,2.01-4.94,0,0,1.08-2.47,1.85-5.09,0,0,.77-2.62,1.54-5.4,0,0,.77-2.78,1.23-5.71,0,0,.62-2.78,1.08-5.86,0,0,.46-3.09,1.08-6.17,0,0,.46-3.09.93-5.86,0,0,.62-2.93,1.08-6.02,0,0,.46-3.09.77-5.86,0,0,.31-2.78.46-5.86,0,0,.31-3.09,0-6.02,0,0-.15-2.78-.77-5.86,0,0-.46-3.09-1.23-5.86,0,0-.77-2.93-2.01-5.71,0,0-1.39-2.78-2.93-5.4,0,0-1.54-2.62-3.55-5.09,0,0-2.01-2.62-4.32-4.94,0,0-2.31-2.31-4.94-4.63,0,0-2.62-2.31-5.71-4.94,0,0-3.09-2.47-6.17-5.4,0,0-3.09-2.78-6.63-5.86,0,0-3.55-3.09-7.25-6.17,0,0-3.55-3.09-7.41-6.48,0,0-3.86-3.24-7.71-6.63,0,0-3.86-3.39-8.02-6.94,0,0-4.01-3.55-8.49-7.25,0,0-4.32-3.55-8.95-7.71,0,0-4.63-4.01-8.95-7.87,0,0-4.47-3.86-9.1-8.02,0,0-4.63-4.17-9.26-8.02,0,0-4.63-3.86-9.41-7.87,0,0-4.94-4.17-9.57-8.33,0,0-4.63-4.01-9.57-8.49,0,0-4.78-4.32-10.03-8.95,0,0-5.09-4.63-10.49-9.26,0,0-5.4-4.63-10.49-8.95,0,0-5.25-4.47-10.34-8.79,0,0-5.09-4.32-10.03-8.49,0,0-4.94-4.17-9.57-8.18,0,0-4.63-4.17-8.64-7.71,0,0-4.17-3.7-8.02-7.25,0,0-3.86-3.55-7.71-6.94,0,0-3.86-3.39-9.26-7.41l-5.4-4.17" vector-effect="non-scaling-stroke"/>
  <path class="st2" d="M309.93,208.29c-1.54-1.54-3.09-3.09-4.63-4.32,0,0-1.54-1.39-4.63-3.86,0,0-3.09-2.62-5.86-4.94,0,0-2.93-2.31-5.4-4.63,0,0-2.62-2.31-4.94-4.63,0,0-2.31-2.31-4.63-4.32,0,0-2.31-2.16-4.63-3.86,0,0-2.31-1.85-4.32-3.39,0,0-2.16-1.54-3.86-3.09l-3.7-3.09s-1.7-1.54-3.86-2.78c0,0-2.01-1.39-4.01-2.31,0,0-2.16-1.08-3.86-1.54,0,0-1.85-.62-3.7-1.08,0,0-1.7-.46-3.86-.77,0,0-2.01-.31-4.01-.46,0,0-2.16-.31-4.17-.31h-4.17s-2.01,0-4.01.31c0,0-2.16.15-4.17.77,0,0-2.01.46-4.17,1.23,0,0-2.01.77-4.01,1.85,0,0-2.16.93-3.86,2.31,0,0-1.85,1.23-3.39,2.78,0,0-1.54,1.54-2.78,3.39,0,0-1.39,1.7-2.31,3.55,0,0-1.08,1.85-1.54,3.86,0,0-.62,2.01-1.08,3.86,0,0-.46,1.85-.77,3.86,0,0-.31,2.01-.46,4.17,0,0-.31,2.01-.31,4.32,0,0,0,2.31-.31,4.63,0,0-.15,2.31-.46,4.63,0,0-.31,2.31-.46,4.32,0,0-.31,2.16-.62,4.17,0,0-.15,2.01-.46,3.86,0,0-.31,1.85-.46,3.86,0,0-.31,2.01-.62,3.86,0,0-.15,1.85-.77,3.86,0,0-.46,2.01-1.54,3.86,0,0-.93,1.85-2.31,3.55,0,0-1.23,1.85-2.78,3.09,0,0-1.54,1.39-2.78,2.62,0,0-1.39,1.23-2.62,2.31,0,0-1.23,1.08-2.78,1.85,0,0-1.54.77-3.7,1.23,0,0-2.01.46-4.01.77,0,0-2.16.31-3.86.46,0,0-1.85.31-3.39,0,0,0-1.54-.15-3.09-.46,0,0-1.54-.31-3.39-.77,0,0-1.7-.46-3.55-1.23,0,0-1.85-.77-3.39-1.85,0,0-1.54-1.08-2.78-2.01,0,0-1.23-1.08-2.62-2.16,0,0-1.23-.93-2.47-2.31,0,0-1.39-1.23-2.31-2.78,0,0-1.08-1.54-1.85-3.39,0,0-.77-1.7-1.54-3.55,0,0-.77-1.85-1.23-3.86,0,0-.62-2.01-.77-4.17,0,0-.31-2.01,0-4.32,0,0,.15-2.31.77-4.63,0,0,.46-2.31,1.23-4.63,0,0,.77-2.31,1.85-4.63,0,0,.93-2.31,2.01-4.94,0,0,1.08-2.47,2.31-5.4,0,0,1.23-2.78,2.62-5.86,0,0,1.23-3.09,2.78-6.17l3.09-6.17s1.54-3.09,3.09-6.48c0,0,1.54-3.24,2.78-6.94,0,0,1.39-3.55,2.93-7.1,0,0,1.54-3.7,3.09-6.94,0,0,1.54-3.39,3.24-6.48,0,0,1.85-3.09,3.7-6.48,0,0,1.7-3.24,3.86-6.33,0,0,2.01-3.09,4.32-6.17,0,0,2.31-3.09,4.94-6.02,0,0,2.47-2.78,5.4-5.86,0,0,2.78-3.09,5.55-5.86,0,0,2.93-2.93,5.4-5.4,0,0,2.62-2.62,5.4-5.25,0,0,2.93-2.47,6.02-5.09,0,0,3.09-2.62,6.63-5.09,0,0,3.55-2.62,6.94-4.63,0,0,3.39-2.16,7.25-3.86,0,0,3.86-1.85,7.71-3.39,0,0,3.86-1.54,7.87-2.78,0,0,4.17-1.39,8.02-2.31,0,0,3.86-1.08,8.02-1.85,0,0,4.01-.77,8.18-1.54,0,0,4.17-.77,8.18-1.54,0,0,4.17-.77,8.49-1.23,0,0,4.47-.62,8.79-1.08,0,0,4.32-.46,8.95-1.08,0,0,4.63-.46,9.1-1.23,0,0,4.32-.77,8.95-1.54l9.26-1.54s4.63-.77,8.95-1.23c0,0,4.47-.62,8.79-1.08,0,0,4.32-.46,8.79-.77,0,0,4.32-.31,8.64-.77,0,0,4.47-.46,8.79-1.08,0,0,4.32-.46,8.95-1.23,0,0,4.63-.77,9.57-1.23,0,0,4.94-.62,9.57-1.08,0,0,4.63-.46,8.95-.77,0,0,4.32-.31,8.79-.77,0,0,4.32-.46,8.64-1.08,0,0,4.47-.46,8.49-.93,0,0,4.17-.62,8.02-.77l7.71-.62s3.86-.15,7.71-.77c0,0,3.86-.46,7.41-.93,0,0,3.7-.62,6.79-.77,0,0,3.09-.31,5.86-.31,0,0,2.78,0,5.4-.31,0,0,2.62-.15,5.09-.46,0,0,2.62-.31,5.25-.31,0,0,2.47,0,5.09.31,0,0,2.62.31,5.09,1.08,0,0,2.62.77,4.94,1.54,0,0,2.31.77,4.94,1.7,0,0,2.47,1.08,5.09,2.16,0,0,2.62.93,5.09,2.31,0,0,2.62,1.23,4.94,3.09,0,0,2.31,1.7,4.32,3.86,0,0,2.16,2.01,3.86,4.32,0,0,1.85,2.31,3.39,4.94,0,0,1.54,2.47,3.09,5.4,0,0,1.54,2.78,2.78,5.86,0,0,1.39,3.09,2.62,6.17,0,0,1.23,3.09,2.62,6.48,0,0,1.23,3.24,2.47,6.94,0,0,1.39,3.55,2.62,7.41,0,0,1.23,3.86,2.31,7.71,0,0,1.08,3.86,2.31,7.71,0,0,1.23,3.86,2.31,7.71,0,0,1.08,3.86,2.31,8.02,0,0,1.23,4.01,2.31,8.49,0,0,1.08,4.32,2.01,8.64,0,0,1.08,4.47,1.85,8.79,0,0,.77,4.32,1.54,8.49,0,0,.77,4.17,1.54,8.49,0,0,.77,4.32,1.54,8.95,0,0,.77,4.63,1.54,9.57,0,0,.77,4.94,1.54,9.72,0,0,.77,4.94,1.23,9.57,0,0,.62,4.63,1.08,8.95,0,0,.46,4.47.77,8.79,0,0,.31,4.32.46,8.49,0,0,.31,4.17.62,8.49,0,0,.15,4.32.46,8.79,0,0,.31,4.32.77,8.64,0,0,.46,4.47.77,8.49,0,0,.31,4.17.46,8.02,0,0,.31,3.86.31,7.41,0,0,0,3.7.31,7.25,0,0,.15,3.55.46,6.94,0,0,.31,3.39.46,6.63,0,0,.31,3.39.62,6.48,0,0,.15,3.09.77,5.86,0,0,.46,2.93,1.23,5.71,0,0,.77,2.78,1.85,5.86,0,0,.93,3.09,2.01,6.17,0,0,1.08,3.09,2.31,6.17,0,0,1.23,3.09,2.62,6.02,0,0,1.23,2.78,3.09,5.55,0,0,1.7,2.93,3.24,5.71,0,0,1.54,2.78,3.09,5.71,0,0,1.54,2.78,2.93,5.55,0,0,1.23,2.93,2.47,5.71,0,0,1.39,2.78,2.31,5.71,0,0,1.08,2.78,1.54,5.86,0,0,.62,3.09.62,6.17,0,0,0,3.09-.62,6.17,0,0-.46,3.09-1.23,6.17,0,0-.77,3.09-1.85,6.48,0,0-.93,3.24-2.01,6.63,0,0-1.08,3.39-2.01,6.63,0,0-1.08,3.39-2.16,6.48,0,0-.93,3.09-2.01,5.86,0,0-1.08,2.93-2.01,5.71,0,0-1.08,2.78-1.85,5.4,0,0-.77,2.62-1.54,5.4,0,0-.77,2.78-1.23,5.4,0,0-.62,2.62-.77,5.71,0,0-.31,3.09-.31,5.86,0,0,0,2.78.31,5.86,0,0,.15,3.09.93,6.02,0,0,.77,2.78,1.85,5.55,0,0,1.08,2.93,2.31,5.71,0,0,1.23,2.78,2.78,5.4,0,0,1.54,2.62,3.39,5.09,0,0,1.85,2.62,3.86,4.94,0,0,2.01,2.31,3.86,4.63,0,0,1.85,2.31,3.55,4.63,0,0,1.85,2.31,3.39,4.63,0,0,1.54,2.31,2.78,4.94,0,0,1.39,2.47,2.16,5.09,0,0,.77,2.62,1.23,5.4,0,0,.46,2.78.77,5.71,0,0,.31,2.78.31,5.55,0,0,0,2.93-.62,5.71,0,0-.46,2.78-1.54,5.71,0,0-.93,2.78-2.31,5.55,0,0-1.23,2.93-3.09,5.4,0,0-1.7,2.62-3.86,4.94,0,0-2.01,2.31-4.63,4.32,0,0-2.47,2.16-5.4,4.17,0,0-2.78,2.01-5.86,3.86,0,0-3.09,1.85-6.17,3.86,0,0-3.09,2.01-6.17,4.17,0,0-3.09,2.01-6.17,4.32l-6.17,4.63s-3.09,2.31-6.17,4.94c0,0-3.09,2.47-5.86,5.4,0,0-2.93,2.78-5.4,5.86,0,0-2.62,3.09-4.94,6.63,0,0-2.31,3.7-4.63,7.56,0,0-2.31,3.86-4.63,8.18,0,0-2.31,4.32-6.17,11.11l-3.86,6.63" vector-effect="non-scaling-stroke"/>
  <path class="st3" d="M545.99,664.97c-1.23,2.31-2.31,4.63-3.39,7.25,0,0-1.23,2.47-3.55,7.41,0,0-2.31,4.94-4.94,10.03,0,0-2.47,5.09-5.09,10.34,0,0-2.62,5.09-5.4,10.8,0,0-2.78,5.55-5.71,11.26,0,0-2.78,5.71-5.86,11.57,0,0-3.09,5.86-5.86,11.57,0,0-2.93,5.71-5.71,11.57,0,0-2.78,5.86-5.71,11.88,0,0-2.78,5.86-5.86,12.03l-6.17,12.34s-3.09,6.17-6.17,12.65c0,0-3.09,6.33-6.17,12.81,0,0-3.09,6.48-6.17,12.81,0,0-3.09,6.48-6.17,13.11,0,0-3.09,6.79-6.17,13.42,0,0-3.09,6.63-6.48,13.58,0,0-3.24,6.94-6.63,13.42,0,0-3.39,6.48-6.94,13.11,0,0-3.55,6.63-7.25,13.42,0,0-3.55,6.63-7.1,13.27,0,0-3.7,6.79-6.94,12.65,0,0-3.39,5.86-6.48,11.26,0,0-3.09,5.4-6.17,10.65,0,0-3.09,5.09-5.86,10.03,0,0-2.93,4.78-5.71,9.26,0,0-2.78,4.32-5.4,8.18,0,0-2.62,3.86-5.09,7.71,0,0-2.62,3.86-4.63,7.41,0,0-2.16,3.7-4.17,6.94,0,0-2.01,3.39-4.17,6.17,0,0-2.01,2.93-4.01,5.4,0,0-2.16,2.62-4.17,4.94,0,0-2.01,2.31-4.17,4.63,0,0-2.01,2.31-4.32,4.32,0,0-2.31,2.16-4.94,3.7,0,0-2.47,1.54-5.4,2.78,0,0-2.78,1.23-5.55,2.01,0,0-2.93.77-5.71,1.54,0,0-2.78.77-5.4,1.08,0,0-2.62.31-5.4.31,0,0-2.78,0-5.71-.31,0,0-2.78-.31-5.86-1.08,0,0-3.09-.77-5.86-1.54,0,0-2.93-.77-5.71-2.31,0,0-2.78-1.54-5.4-3.09,0,0-2.62-1.54-5.09-3.86,0,0-2.62-2.31-4.63-4.63,0,0-2.16-2.31-4.17-5.4,0,0-2.01-3.09-3.86-6.17,0,0-1.85-3.09-3.55-6.33,0,0-1.85-3.39-3.39-6.48l-3.09-6.17s-1.54-3.09-3.39-6.17c0,0-1.7-3.09-3.55-6.48,0,0-1.85-3.24-3.86-6.33,0,0-2.01-3.09-4.17-6.17,0,0-2.01-3.09-4.32-6.02,0,0-2.31-2.78-4.63-6.17,0,0-2.31-3.24-4.63-6.33,0,0-2.31-3.09-4.94-6.17,0,0-2.47-3.09-5.4-6.02l-5.55-5.55s-2.93-2.93-5.4-5.71c0,0-2.62-2.78-4.94-5.71,0,0-2.31-2.78-4.94-5.55,0,0-2.47-2.93-5.09-5.4,0,0-2.62-2.62-5.09-4.94,0,0-2.62-2.31-4.94-4.94,0,0-2.31-2.47-4.63-5.09,0,0-2.31-2.62-4.63-5.09l-4.63-5.25s-2.31-2.47-4.63-5.09c0,0-2.31-2.62-4.32-5.09,0,0-2.16-2.62-4.17-4.94,0,0-2.01-2.31-3.55-4.17,0,0-1.54-1.7-3.09-3.24,0,0-1.54-1.54-2.62-2.93,0,0-1.08-1.23-2.31-2.47,0,0-1.23-1.39-2.31-2.31,0,0-1.08-1.08-2.31-1.54,0,0-1.23-.62-2.62-1.08,0,0-1.23-.46-2.78-.46,0,0-1.54,0-3.09.15,0,0-1.54.31-3.39,1.08,0,0-1.7.77-3.55,1.85,0,0-1.85.93-3.39,2.31,0,0-1.54,1.23-2.78,2.78,0,0-1.23,1.54-2.62,2.78,0,0-1.23,1.39-3.09,2.62,0,0-1.7,1.23-3.55,2.31,0,0-1.85,1.08-3.86,1.85,0,0-2.01.77-3.86.93,0,0-1.85.31-3.86,0,0,0-2.01-.15-4.17-.93,0,0-2.01-.77-4.01-2.16,0,0-2.16-1.23-4.17-2.78,0,0-2.01-1.54-4.17-3.39,0,0-2.01-1.7-4.01-3.86,0,0-2.16-2.01-3.86-4.32,0,0-1.85-2.31-3.39-4.32,0,0-1.54-2.16-3.09-4.17,0,0-1.54-2.01-3.09-4.17,0,0-1.54-2.01-3.09-4.32,0,0-1.54-2.31-3.09-4.94,0,0-1.54-2.47-2.78-5.4,0,0-1.39-2.78-2.31-5.55,0,0-1.08-2.93-1.85-5.71,0,0-.77-2.78-1.54-5.71,0,0-.77-2.78-1.23-5.55,0,0-.62-2.93-.77-5.71,0,0-.31-2.78,0-5.71,0,0,.15-2.78.77-5.86,0,0,.46-3.09,1.54-5.86,0,0,.93-2.93,2.47-5.4,0,0,1.54-2.62,3.7-5.25,0,0,2.01-2.47,4.32-5.4,0,0,2.31-2.78,4.32-5.55,0,0,2.16-2.93,4.17-5.71,0,0,2.01-2.78,6.48-8.02l4.32-5.09" vector-effect="non-scaling-stroke"/>
  <g id="moving-circle-group">
    <circle cx="78.5" cy="743.66" r="30.86" vector-effect="non-scaling-stroke"/>
    <circle class="st4" cx="78.5" cy="743.66" r="10.8" vector-effect="non-scaling-stroke"/>
  </g>
</svg>