<?xml version="1.0" encoding="UTF-8"?>
<svg id="minimap-svg" xmlns="http://www.w3.org/2000/svg" version="1.1" viewBox="0 0 1729.56 1080">
  <!-- Generator: Adobe Illustrator 30.0.0, SVG Export Plug-In . SVG Version: 2.1.1 Build 123)  -->
  <defs>
    <style>
      .st0 {
        stroke: #ef4444;
      }

      .st0, .st1, .st2, .st3 {
        fill: none;
        stroke-miterlimit: 9.75;
      }

      .st0, .st2, .st3 {
        stroke-width: 4.88px;
      }

      .st4 {
        fill: #fff;
      }

      .st1 {
        stroke: #000;
        stroke-width: 19.5px;
      }

      .st2 {
        stroke: #3b82f6;
      }

      .st3 {
        stroke: #fbbf24;
      }
    </style>
  </defs>
  <g>
    <path class="st1" d="M1659.54,577.79c-1.22-6.83-2.44-13.41-3.17-20.97,0,0-.98-7.56-2.93-22.43,0,0-1.95-15.12-4.14-30.96,0,0-1.95-15.85-4.39-32.18,0,0-2.44-16.09-4.88-33.16,0,0-2.44-17.07-4.88-34.62,0,0-2.44-17.55-5.36-35.35,0,0-2.68-17.8-5.61-36.08,0,0-2.93-18.28-5.61-36.57,0,0-2.93-18.28-4.88-35.35,0,0-2.19-17.07-3.66-31.45,0,0-1.71-14.14-2.93-26.33,0,0-1.22-12.19-2.44-21.94,0,0-1.22-9.75-2.44-17.55,0,0-1.22-7.56-1.95-12.92,0,0-.98-5.36-1.71-9.75,0,0-.73-4.39-1.71-8.53,0,0-.73-4.14-1.95-8.05l-2.44-8.29s-1.22-3.9-2.93-7.56c0,0-1.46-3.66-3.66-6.58,0,0-1.95-2.93-4.39-4.39,0,0-2.44-1.71-5.36-2.44,0,0-2.68-.98-5.61-1.22,0,0-2.93-.49-6.58-.49,0,0-3.66,0-7.56-.49,0,0-4.14-.24-9.02-.73,0,0-4.88-.49-10.24-1.22,0,0-5.12-.73-10.97-2.44,0,0-5.61-1.71-11.21-4.39,0,0-5.85-2.93-11.46-7.07,0,0-5.61-3.9-10.24-8.53,0,0-4.39-4.39-8.05-8.53,0,0-3.66-3.9-6.09-7.56,0,0-2.44-3.66-4.88-6.58,0,0-2.44-2.93-5.61-4.88,0,0-3.41-1.95-7.07-3.17,0,0-3.66-1.22-7.56-1.22,0,0-4.14,0-8.29.73,0,0-3.9.73-7.56,3.17,0,0-3.66,2.44-7.07,6.09,0,0-3.17,3.66-5.12,8.29,0,0-2.19,4.39-3.41,9.75,0,0-1.22,5.12-1.95,11.21,0,0-.73,6.09-1.22,13.16,0,0-.49,6.83-1.22,14.14,0,0-.73,7.31-.73,15.12v15.85s0,8.05,1.22,17.07c0,0,1.22,8.78,2.68,17.8,0,0,1.71,9.02,4.63,18.28,0,0,2.68,9.26,6.34,18.77,0,0,3.66,9.26,7.8,19.5,0,0,4.14,10,8.05,20.23,0,0,4.14,10.24,7.8,20.23,0,0,3.66,10.24,7.31,19.99,0,0,3.66,9.75,6.83,19.99,0,0,3.41,10,6.09,20.23,0,0,2.93,10.24,4.88,20.72,0,0,2.19,10.48,3.41,20.23,0,0,1.22,9.75,1.95,18.28,0,0,.73,8.53,1.22,14.63,0,0,.49,6.09.73,10.97,0,0,.49,4.88.49,9.02,0,0,0,4.14-.49,8.05,0,0-.24,4.14-.73,7.8,0,0-.49,3.66-1.22,6.83,0,0-.73,3.41-1.95,6.09,0,0-1.22,2.93-3.41,5.36,0,0-1.95,2.44-4.88,4.39,0,0-2.68,2.19-6.34,4.14,0,0-3.66,1.95-8.29,4.14,0,0-4.39,1.95-9.75,3.9,0,0-5.12,2.19-11.21,3.41,0,0-6.09,1.22-13.41,1.46,0,0-7.31.49-15.6.49,0,0-8.05,0-17.31-.49,0,0-9.51-.24-19.99-1.22,0,0-10.48-.73-22.67-1.95,0,0-12.19-1.22-25.6-2.44,0,0-13.41-1.22-27.79-1.95,0,0-14.14-.98-29.26-1.71,0,0-14.87-.73-30.72-1.71,0,0-15.85-.73-32.67-1.95,0,0-16.58-1.22-34.13-2.44,0,0-17.31-1.22-35.35-1.95,0,0-17.8-.98-36.08-2.19,0,0-18.28-1.22-35.84-2.44,0,0-17.31-1.22-32.42-2.44,0,0-15.12-1.22-26.82-2.44,0,0-11.7-1.22-20.72-2.44,0,0-9.02-1.22-16.33-3.17,0,0-7.31-1.95-14.14-3.66,0,0-6.83-1.71-13.9-4.14,0,0-6.83-2.44-14.63-5.12,0,0-7.56-2.93-15.85-7.07,0,0-8.05-3.9-17.07-8.78,0,0-8.78-4.88-18.28-10.73,0,0-9.26-5.61-19.5-12.19,0,0-10-6.34-21.45-13.41,0,0-11.46-6.83-23.65-14.63,0,0-12.19-7.56-25.84-15.85l-13.9-8.05" vector-effect="non-scaling-stroke"/>
    <path class="st1" d="M769.7,338.87c-7.31-4.39-14.63-8.53-21.45-12.43,0,0-7.07-3.9-19.99-11.21,0,0-12.92-7.31-23.65-13.41,0,0-10.48-6.09-18.53-10.97,0,0-8.29-4.88-14.38-8.78,0,0-6.09-4.14-10.97-7.07,0,0-4.88-2.68-8.78-5.12,0,0-4.14-2.44-7.31-4.63,0,0-3.41-1.95-6.09-3.9,0,0-2.93-2.19-5.85-3.66,0,0-2.68-1.71-5.61-2.44,0,0-2.93-.98-6.09-1.22,0,0-3.17-.49-6.09-.49,0,0-2.93,0-6.09.49,0,0-3.17.24-5.61,1.95,0,0-2.44,1.71-5.36,4.39,0,0-2.93,2.93-5.61,7.31,0,0-2.93,4.63-7.07,9.51,0,0-3.9,4.88-8.53,10.48,0,0-4.39,5.61-9.26,11.7,0,0-4.88,6.09-10.24,13.16,0,0-5.12,6.83-10,13.65,0,0-4.88,7.07-9.02,13.41,0,0-4.14,6.58-7.31,12.68,0,0-3.17,6.09-6.09,11.7,0,0-2.93,5.85-5.61,11.46,0,0-2.93,5.61-5.85,10.97,0,0-2.68,5.36-5.61,10.48,0,0-2.93,5.36-5.61,9.75,0,0-2.93,4.63-4.88,8.29,0,0-2.19,3.66-3.66,6.34l-3.41,5.85s-1.46,2.68-3.66,5.12c0,0-1.95,2.44-4.39,4.14,0,0-2.44,1.71-4.88,1.95,0,0-2.44.49-4.88.49,0,0-2.44,0-4.88-.49,0,0-2.44-.24-4.88-1.22,0,0-2.44-.73-4.88-2.68,0,0-2.44-2.19-4.88-4.88,0,0-2.44-2.93-5.36-7.07,0,0-2.68-3.9-6.83-9.26,0,0-4.14-5.36-9.26-11.7,0,0-5.36-6.58-11.95-13.9,0,0-6.34-7.31-14.14-15.12,0,0-7.8-7.56-15.36-15.36,0,0-7.8-7.8-15.12-14.14,0,0-7.31-6.58-12.68-11.46,0,0-5.12-4.88-9.75-7.8,0,0-4.39-2.68-8.05-5.12,0,0-3.66-2.44-7.31-4.63,0,0-3.66-1.95-7.31-3.66,0,0-3.66-1.46-7.31-2.44,0,0-3.66-.73-7.31-.24,0,0-3.66.24-7.31,1.46,0,0-3.66,1.22-7.8,3.41,0,0-3.9,1.95-8.05,5.12,0,0-4.14,3.41-8.53,7.07,0,0-4.39,3.66-8.53,8.53,0,0-4.14,4.88-8.05,10.48,0,0-4.14,5.61-8.29,12.92,0,0-3.9,7.31-8.53,15.85,0,0-4.39,8.53-9.75,18.28,0,0-5.12,9.75-11.21,20.48,0,0-6.09,10.48-12.68,22.19,0,0-6.58,11.95-13.9,24.38,0,0-7.31,12.68-14.63,26.57,0,0-7.31,13.65-15.36,28.28,0,0-8.05,14.63-16.33,29.74,0,0-8.05,15.12-17.07,30.47,0,0-8.78,15.36-17.8,30.47,0,0-9.02,15.12-17.8,28.77,0,0-9.02,13.9-16.33,25.35,0,0-7.31,11.21-12.92,19.75,0,0-5.85,8.53-9.02,15.12,0,0-3.17,6.58-4.39,11.7,0,0-1.22,5.36-.98,9.75,0,0,.49,4.63,2.19,9.02,0,0,1.46,4.39,3.17,9.02,0,0,1.71,4.39,4.14,8.78,0,0,2.44,4.63,4.88,8.53,0,0,2.44,4.14,5.61,7.8,0,0,3.17,3.66,6.58,6.83,0,0,3.17,3.41,6.34,6.58,0,0,3.41,3.17,7.07,6.09,0,0,3.66,2.93,7.31,5.36,0,0,3.66,2.44,7.56,3.9,0,0,4.14,1.71,7.8,2.93l7.31,2.44s3.66,1.22,7.31,1.95c0,0,3.66.98,7.31,1.71,0,0,3.66.73,7.31,1.22,0,0,3.66.49,6.58,1.71,0,0,2.68,1.22,4.88,2.68,0,0,1.95,1.71,3.17,4.14,0,0,1.22,2.44,1.95,5.36,0,0,.98,2.68,1.22,6.34,0,0,.49,3.66.49,8.29v20.72s0,5.61.49,11.21c0,0,.24,5.85,1.46,10.97,0,0,1.22,5.36,2.93,10.24,0,0,1.71,4.88,4.14,9.75,0,0,2.44,4.88,5.12,9.26,0,0,2.93,4.63,7.07,8.53,0,0,3.9,4.14,8.53,8.29,0,0,4.39,3.9,10,8.53,0,0,5.85,4.39,12.19,9.75,0,0,6.58,5.12,13.9,10.97,0,0,7.31,5.61,14.63,11.7,0,0,7.31,6.09,13.9,11.46,0,0,6.34,5.12,11.21,9.75,0,0,4.88,4.39,8.29,8.05,0,0,3.17,3.66,5.61,7.31,0,0,2.44,3.66,4.39,7.31,0,0,2.19,3.66,4.14,7.31,0,0,1.95,3.66,3.66,7.31,0,0,1.71,3.66,3.17,6.83,0,0,1.71,3.41,2.93,5.85,0,0,1.22,2.44,2.44,4.39,0,0,1.22,1.95,2.44,3.66,0,0,1.22,1.71,2.44,3.66,0,0,1.22,1.95,2.93,3.17,0,0,1.46,1.22,3.17,2.44,0,0,1.71,1.22,3.66,1.71,0,0,1.95.49,3.66.73,0,0,1.71.49,3.66,0,0,0,1.95-.24,3.66-.73,0,0,1.71-.49,3.17-1.22,0,0,1.71-.73,2.93-1.95,0,0,1.22-1.22,2.44-3.41,0,0,1.22-1.95,2.44-4.39,0,0,1.22-2.44,1.95-5.36,0,0,.98-2.68,1.22-6.34,0,0,.49-3.66.98-8.53,0,0,.24-4.88,1.22-10.97,0,0,.73-6.09,2.44-13.41,0,0,1.46-7.31,3.17-16.33,0,0,1.71-9.02,3.66-19.02,0,0,1.95-10.24,3.66-21.7,0,0,1.71-11.21,4.14-23.89,0,0,2.44-12.68,4.88-26.33,0,0,2.44-13.9,5.12-29.01,0,0,2.93-14.87,5.85-30.47,0,0,2.68-15.36,5.61-31.69,0,0,2.93-16.09,6.09-32.91,0,0,3.17-16.58,6.83-33.64,0,0,3.66-17.07,8.53-34.13,0,0,4.88-17.07,13.16-41.44l8.05-24.38" vector-effect="non-scaling-stroke"/>
    <path class="st1" d="M433.27,624.11c2.93-7.8,6.09-15.85,8.29-22.43,0,0,2.19-6.83,6.83-19.02,0,0,4.39-12.19,7.56-21.45,0,0,3.41-9.51,6.09-17.07,0,0,2.93-7.8,5.36-13.9,0,0,2.44-6.09,4.14-10.97,0,0,1.46-4.88,2.68-8.05,0,0,1.22-3.41,2.19-6.58,0,0,.73-3.17,1.95-6.58,0,0,1.22-3.17,2.93-6.34,0,0,1.46-3.41,3.17-6.09,0,0,1.71-2.93,3.66-4.63,0,0,1.95-1.46,4.14-2.68,0,0,1.95-1.22,4.39-1.71,0,0,2.44-.49,4.88-.49,0,0,2.44,0,4.88.98,0,0,2.44.73,5.36,2.44,0,0,2.68,1.46,6.09,3.66,0,0,3.17,1.95,7.56,5.12,0,0,4.63,3.41,9.75,7.31,0,0,5.36,4.14,11.95,9.51,0,0,6.34,5.12,13.65,11.21,0,0,7.31,6.09,15.6,13.41,0,0,8.05,7.31,17.31,15.6,0,0,9.51,8.05,19.26,16.58,0,0,9.75,8.53,19.02,16.58,0,0,9.26,8.29,17.55,15.6,0,0,8.05,7.31,15.85,13.65,0,0,7.56,6.58,15.85,12.68,0,0,8.05,6.09,17.07,11.7,0,0,8.78,5.85,17.8,10.24,0,0,9.02,4.39,18.28,7.31,0,0,9.26,2.93,19.02,4.14,0,0,9.75,1.22,20.48,1.95,0,0,10.48.73,22.19,1.71,0,0,11.95.73,24.38,1.95,0,0,12.68,1.22,26.57,1.95,0,0,13.65.98,28.28,1.71,0,0,14.63.73,30.23,1.71,0,0,15.36.73,31.69,1.95,0,0,16.09,1.22,33.16,1.95,0,0,17.07.98,35.11,1.71,0,0,17.8.73,36.08,1.71,0,0,18.28.73,36.57,1.95,0,0,18.28,1.22,35.84,2.44,0,0,17.31,1.22,32.42,1.95,0,0,15.12.98,26.33,1.71,0,0,11.46.73,19.99,1.22,0,0,8.53.49,15.12.73,0,0,6.34.49,11.7.49h9.26s4.14,0,8.29.49c0,0,3.9.24,8.05,1.22,0,0,4.14.73,7.8,2.44,0,0,3.66,1.46,6.09,3.66,0,0,2.44,1.95,3.9,5.12,0,0,1.71,3.41,2.93,7.31,0,0,1.22,4.14,1.95,9.51,0,0,.98,5.12,1.22,10.48,0,0,.49,5.36,1.22,10.48,0,0,.98,5.36,2.93,10.24,0,0,1.95,4.88,6.09,9.26,0,0,4.14,4.63,9.26,8.53,0,0,5.36,4.14,11.95,7.07,0,0,6.34,2.68,13.41,4.88,0,0,6.83,1.95,14.87,3.17,0,0,8.29,1.22,17.55,1.95,0,0,9.26.98,20.72,1.71,0,0,11.46.73,23.89,1.71,0,0,12.68.73,26.09,1.46,0,0,13.41.98,27.55,1.71,0,0,14.38.73,29.26,1.71,0,0,15.12.73,29.26,1.46,0,0,14.38.98,26.09,1.22,0,0,11.7.49,20.23.49h37.54s4.39,0,8.05-.49c0,0,3.66-.24,6.83-1.22,0,0,3.41-.73,6.09-1.95,0,0,2.93-1.22,5.85-3.17,0,0,2.68-2.19,6.09-5.36,0,0,3.17-3.17,6.83-7.8,0,0,3.66-4.39,7.8-10,0,0,3.9-5.85,8.53-12.19,0,0,4.39-6.58,8.78-13.41,0,0,4.63-7.07,8.29-13.9,0,0,3.66-6.83,6.09-13.9,0,0,2.44-6.83,3.66-13.65,0,0,1.22-7.07,1.22-13.9,0,0,0-6.83-.98-13.9,0,0-.73-6.83-1.95-14.87,0,0-1.22-8.29-2.44-17.07,0,0-1.22-9.02-3.66-32.18l-2.44-23.16" vector-effect="non-scaling-stroke"/>
  </g>
  <path class="st0" d="M1659.54,577.79c-1.22-6.83-2.44-13.41-3.17-20.97,0,0-.98-7.56-2.93-22.43,0,0-1.95-15.12-4.14-30.96,0,0-1.95-15.85-4.39-32.18,0,0-2.44-16.09-4.88-33.16,0,0-2.44-17.07-4.88-34.62,0,0-2.44-17.55-5.36-35.35,0,0-2.68-17.8-5.61-36.08,0,0-2.93-18.28-5.61-36.57,0,0-2.93-18.28-4.88-35.35,0,0-2.19-17.07-3.66-31.45,0,0-1.71-14.14-2.93-26.33,0,0-1.22-12.19-2.44-21.94,0,0-1.22-9.75-2.44-17.55,0,0-1.22-7.56-1.95-12.92,0,0-.98-5.36-1.71-9.75,0,0-.73-4.39-1.71-8.53,0,0-.73-4.14-1.95-8.05l-2.44-8.29s-1.22-3.9-2.93-7.56c0,0-1.46-3.66-3.66-6.58,0,0-1.95-2.93-4.39-4.39,0,0-2.44-1.71-5.36-2.44,0,0-2.68-.98-5.61-1.22,0,0-2.93-.49-6.58-.49,0,0-3.66,0-7.56-.49,0,0-4.14-.24-9.02-.73,0,0-4.88-.49-10.24-1.22,0,0-5.12-.73-10.97-2.44,0,0-5.61-1.71-11.21-4.39,0,0-5.85-2.93-11.46-7.07,0,0-5.61-3.9-10.24-8.53,0,0-4.39-4.39-8.05-8.53,0,0-3.66-3.9-6.09-7.56,0,0-2.44-3.66-4.88-6.58,0,0-2.44-2.93-5.61-4.88,0,0-3.41-1.95-7.07-3.17,0,0-3.66-1.22-7.56-1.22,0,0-4.14,0-8.29.73,0,0-3.9.73-7.56,3.17,0,0-3.66,2.44-7.07,6.09,0,0-3.17,3.66-5.12,8.29,0,0-2.19,4.39-3.41,9.75,0,0-1.22,5.12-1.95,11.21,0,0-.73,6.09-1.22,13.16,0,0-.49,6.83-1.22,14.14,0,0-.73,7.31-.73,15.12v15.85s0,8.05,1.22,17.07c0,0,1.22,8.78,2.68,17.8,0,0,1.71,9.02,4.63,18.28,0,0,2.68,9.26,6.34,18.77,0,0,3.66,9.26,7.8,19.5,0,0,4.14,10,8.05,20.23,0,0,4.14,10.24,7.8,20.23,0,0,3.66,10.24,7.31,19.99,0,0,3.66,9.75,6.83,19.99,0,0,3.41,10,6.09,20.23,0,0,2.93,10.24,4.88,20.72,0,0,2.19,10.48,3.41,20.23,0,0,1.22,9.75,1.95,18.28,0,0,.73,8.53,1.22,14.63,0,0,.49,6.09.73,10.97,0,0,.49,4.88.49,9.02,0,0,0,4.14-.49,8.05,0,0-.24,4.14-.73,7.8,0,0-.49,3.66-1.22,6.83,0,0-.73,3.41-1.95,6.09,0,0-1.22,2.93-3.41,5.36,0,0-1.95,2.44-4.88,4.39,0,0-2.68,2.19-6.34,4.14,0,0-3.66,1.95-8.29,4.14,0,0-4.39,1.95-9.75,3.9,0,0-5.12,2.19-11.21,3.41,0,0-6.09,1.22-13.41,1.46,0,0-7.31.49-15.6.49,0,0-8.05,0-17.31-.49,0,0-9.51-.24-19.99-1.22,0,0-10.48-.73-22.67-1.95,0,0-12.19-1.22-25.6-2.44,0,0-13.41-1.22-27.79-1.95,0,0-14.14-.98-29.26-1.71,0,0-14.87-.73-30.72-1.71,0,0-15.85-.73-32.67-1.95,0,0-16.58-1.22-34.13-2.44,0,0-17.31-1.22-35.35-1.95,0,0-17.8-.98-36.08-2.19,0,0-18.28-1.22-35.84-2.44,0,0-17.31-1.22-32.42-2.44,0,0-15.12-1.22-26.82-2.44,0,0-11.7-1.22-20.72-2.44,0,0-9.02-1.22-16.33-3.17,0,0-7.31-1.95-14.14-3.66,0,0-6.83-1.71-13.9-4.14,0,0-6.83-2.44-14.63-5.12,0,0-7.56-2.93-15.85-7.07,0,0-8.05-3.9-17.07-8.78,0,0-8.78-4.88-18.28-10.73,0,0-9.26-5.61-19.5-12.19,0,0-10-6.34-21.45-13.41,0,0-11.46-6.83-23.65-14.63,0,0-12.19-7.56-25.84-15.85l-13.9-8.05" vector-effect="non-scaling-stroke"/>
  <path class="st2" d="M769.7,338.87c-7.31-4.39-14.63-8.53-21.45-12.43,0,0-7.07-3.9-19.99-11.21,0,0-12.92-7.31-23.65-13.41,0,0-10.48-6.09-18.53-10.97,0,0-8.29-4.88-14.38-8.78,0,0-6.09-4.14-10.97-7.07,0,0-4.88-2.68-8.78-5.12,0,0-4.14-2.44-7.31-4.63,0,0-3.41-1.95-6.09-3.9,0,0-2.93-2.19-5.85-3.66,0,0-2.68-1.71-5.61-2.44,0,0-2.93-.98-6.09-1.22,0,0-3.17-.49-6.09-.49,0,0-2.93,0-6.09.49,0,0-3.17.24-5.61,1.95,0,0-2.44,1.71-5.36,4.39,0,0-2.93,2.93-5.61,7.31,0,0-2.93,4.63-7.07,9.51,0,0-3.9,4.88-8.53,10.48,0,0-4.39,5.61-9.26,11.7,0,0-4.88,6.09-10.24,13.16,0,0-5.12,6.83-10,13.65,0,0-4.88,7.07-9.02,13.41,0,0-4.14,6.58-7.31,12.68,0,0-3.17,6.09-6.09,11.7,0,0-2.93,5.85-5.61,11.46,0,0-2.93,5.61-5.85,10.97,0,0-2.68,5.36-5.61,10.48,0,0-2.93,5.36-5.61,9.75,0,0-2.93,4.63-4.88,8.29,0,0-2.19,3.66-3.66,6.34l-3.41,5.85s-1.46,2.68-3.66,5.12c0,0-1.95,2.44-4.39,4.14,0,0-2.44,1.71-4.88,1.95,0,0-2.44.49-4.88.49,0,0-2.44,0-4.88-.49,0,0-2.44-.24-4.88-1.22,0,0-2.44-.73-4.88-2.68,0,0-2.44-2.19-4.88-4.88,0,0-2.44-2.93-5.36-7.07,0,0-2.68-3.9-6.83-9.26,0,0-4.14-5.36-9.26-11.7,0,0-5.36-6.58-11.95-13.9,0,0-6.34-7.31-14.14-15.12,0,0-7.8-7.56-15.36-15.36,0,0-7.8-7.8-15.12-14.14,0,0-7.31-6.58-12.68-11.46,0,0-5.12-4.88-9.75-7.8,0,0-4.39-2.68-8.05-5.12,0,0-3.66-2.44-7.31-4.63,0,0-3.66-1.95-7.31-3.66,0,0-3.66-1.46-7.31-2.44,0,0-3.66-.73-7.31-.24,0,0-3.66.24-7.31,1.46,0,0-3.66,1.22-7.8,3.41,0,0-3.9,1.95-8.05,5.12,0,0-4.14,3.41-8.53,7.07,0,0-4.39,3.66-8.53,8.53,0,0-4.14,4.88-8.05,10.48,0,0-4.14,5.61-8.29,12.92,0,0-3.9,7.31-8.53,15.85,0,0-4.39,8.53-9.75,18.28,0,0-5.12,9.75-11.21,20.48,0,0-6.09,10.48-12.68,22.19,0,0-6.58,11.95-13.9,24.38,0,0-7.31,12.68-14.63,26.57,0,0-7.31,13.65-15.36,28.28,0,0-8.05,14.63-16.33,29.74,0,0-8.05,15.12-17.07,30.47,0,0-8.78,15.36-17.8,30.47,0,0-9.02,15.12-17.8,28.77,0,0-9.02,13.9-16.33,25.35,0,0-7.31,11.21-12.92,19.75,0,0-5.85,8.53-9.02,15.12,0,0-3.17,6.58-4.39,11.7,0,0-1.22,5.36-.98,9.75,0,0,.49,4.63,2.19,9.02,0,0,1.46,4.39,3.17,9.02,0,0,1.71,4.39,4.14,8.78,0,0,2.44,4.63,4.88,8.53,0,0,2.44,4.14,5.61,7.8,0,0,3.17,3.66,6.58,6.83,0,0,3.17,3.41,6.34,6.58,0,0,3.41,3.17,7.07,6.09,0,0,3.66,2.93,7.31,5.36,0,0,3.66,2.44,7.56,3.9,0,0,4.14,1.71,7.8,2.93l7.31,2.44s3.66,1.22,7.31,1.95c0,0,3.66.98,7.31,1.71,0,0,3.66.73,7.31,1.22,0,0,3.66.49,6.58,1.71,0,0,2.68,1.22,4.88,2.68,0,0,1.95,1.71,3.17,4.14,0,0,1.22,2.44,1.95,5.36,0,0,.98,2.68,1.22,6.34,0,0,.49,3.66.49,8.29v20.72s0,5.61.49,11.21c0,0,.24,5.85,1.46,10.97,0,0,1.22,5.36,2.93,10.24,0,0,1.71,4.88,4.14,9.75,0,0,2.44,4.88,5.12,9.26,0,0,2.93,4.63,7.07,8.53,0,0,3.9,4.14,8.53,8.29,0,0,4.39,3.9,10,8.53,0,0,5.85,4.39,12.19,9.75,0,0,6.58,5.12,13.9,10.97,0,0,7.31,5.61,14.63,11.7,0,0,7.31,6.09,13.9,11.46,0,0,6.34,5.12,11.21,9.75,0,0,4.88,4.39,8.29,8.05,0,0,3.17,3.66,5.61,7.31,0,0,2.44,3.66,4.39,7.31,0,0,2.19,3.66,4.14,7.31,0,0,1.95,3.66,3.66,7.31,0,0,1.71,3.66,3.17,6.83,0,0,1.71,3.41,2.93,5.85,0,0,1.22,2.44,2.44,4.39,0,0,1.22,1.95,2.44,3.66,0,0,1.22,1.71,2.44,3.66,0,0,1.22,1.95,2.93,3.17,0,0,1.46,1.22,3.17,2.44,0,0,1.71,1.22,3.66,1.71,0,0,1.95.49,3.66.73,0,0,1.71.49,3.66,0,0,0,1.95-.24,3.66-.73,0,0,1.71-.49,3.17-1.22,0,0,1.71-.73,2.93-1.95,0,0,1.22-1.22,2.44-3.41,0,0,1.22-1.95,2.44-4.39,0,0,1.22-2.44,1.95-5.36,0,0,.98-2.68,1.22-6.34,0,0,.49-3.66.98-8.53,0,0,.24-4.88,1.22-10.97,0,0,.73-6.09,2.44-13.41,0,0,1.46-7.31,3.17-16.33,0,0,1.71-9.02,3.66-19.02,0,0,1.95-10.24,3.66-21.7,0,0,1.71-11.21,4.14-23.89,0,0,2.44-12.68,4.88-26.33,0,0,2.44-13.9,5.12-29.01,0,0,2.93-14.87,5.85-30.47,0,0,2.68-15.36,5.61-31.69,0,0,2.93-16.09,6.09-32.91,0,0,3.17-16.58,6.83-33.64,0,0,3.66-17.07,8.53-34.13,0,0,4.88-17.07,13.16-41.44l8.05-24.38" vector-effect="non-scaling-stroke"/>
  <path class="st3" d="M433.27,624.11c2.93-7.8,6.09-15.85,8.29-22.43,0,0,2.19-6.83,6.83-19.02,0,0,4.39-12.19,7.56-21.45,0,0,3.41-9.51,6.09-17.07,0,0,2.93-7.8,5.36-13.9,0,0,2.44-6.09,4.14-10.97,0,0,1.46-4.88,2.68-8.05,0,0,1.22-3.41,2.19-6.58,0,0,.73-3.17,1.95-6.58,0,0,1.22-3.17,2.93-6.34,0,0,1.46-3.41,3.17-6.09,0,0,1.71-2.93,3.66-4.63,0,0,1.95-1.46,4.14-2.68,0,0,1.95-1.22,4.39-1.71,0,0,2.44-.49,4.88-.49,0,0,2.44,0,4.88.98,0,0,2.44.73,5.36,2.44,0,0,2.68,1.46,6.09,3.66,0,0,3.17,1.95,7.56,5.12,0,0,4.63,3.41,9.75,7.31,0,0,5.36,4.14,11.95,9.51,0,0,6.34,5.12,13.65,11.21,0,0,7.31,6.09,15.6,13.41,0,0,8.05,7.31,17.31,15.6,0,0,9.51,8.05,19.26,16.58,0,0,9.75,8.53,19.02,16.58,0,0,9.26,8.29,17.55,15.6,0,0,8.05,7.31,15.85,13.65,0,0,7.56,6.58,15.85,12.68,0,0,8.05,6.09,17.07,11.7,0,0,8.78,5.85,17.8,10.24,0,0,9.02,4.39,18.28,7.31,0,0,9.26,2.93,19.02,4.14,0,0,9.75,1.22,20.48,1.95,0,0,10.48.73,22.19,1.71,0,0,11.95.73,24.38,1.95,0,0,12.68,1.22,26.57,1.95,0,0,13.65.98,28.28,1.71,0,0,14.63.73,30.23,1.71,0,0,15.36.73,31.69,1.95,0,0,16.09,1.22,33.16,1.95,0,0,17.07.98,35.11,1.71,0,0,17.8.73,36.08,1.71,0,0,18.28.73,36.57,1.95,0,0,18.28,1.22,35.84,2.44,0,0,17.31,1.22,32.42,1.95,0,0,15.12.98,26.33,1.71,0,0,11.46.73,19.99,1.22,0,0,8.53.49,15.12.73,0,0,6.34.49,11.7.49h9.26s4.14,0,8.29.49c0,0,3.9.24,8.05,1.22,0,0,4.14.73,7.8,2.44,0,0,3.66,1.46,6.09,3.66,0,0,2.44,1.95,3.9,5.12,0,0,1.71,3.41,2.93,7.31,0,0,1.22,4.14,1.95,9.51,0,0,.98,5.12,1.22,10.48,0,0,.49,5.36,1.22,10.48,0,0,.98,5.36,2.93,10.24,0,0,1.95,4.88,6.09,9.26,0,0,4.14,4.63,9.26,8.53,0,0,5.36,4.14,11.95,7.07,0,0,6.34,2.68,13.41,4.88,0,0,6.83,1.95,14.87,3.17,0,0,8.29,1.22,17.55,1.95,0,0,9.26.98,20.72,1.71,0,0,11.46.73,23.89,1.71,0,0,12.68.73,26.09,1.46,0,0,13.41.98,27.55,1.71,0,0,14.38.73,29.26,1.71,0,0,15.12.73,29.26,1.46,0,0,14.38.98,26.09,1.22,0,0,11.7.49,20.23.49h37.54s4.39,0,8.05-.49c0,0,3.66-.24,6.83-1.22,0,0,3.41-.73,6.09-1.95,0,0,2.93-1.22,5.85-3.17,0,0,2.68-2.19,6.09-5.36,0,0,3.17-3.17,6.83-7.8,0,0,3.66-4.39,7.8-10,0,0,3.9-5.85,8.53-12.19,0,0,4.39-6.58,8.78-13.41,0,0,4.63-7.07,8.29-13.9,0,0,3.66-6.83,6.09-13.9,0,0,2.44-6.83,3.66-13.65,0,0,1.22-7.07,1.22-13.9,0,0,0-6.83-.98-13.9,0,0-.73-6.83-1.95-14.87,0,0-1.22-8.29-2.44-17.07,0,0-1.22-9.02-3.66-32.18l-2.44-23.16" vector-effect="non-scaling-stroke"/>
  <g id="moving-circle-group">
    <circle cx="1659.54" cy="577.79" r="48.76" vector-effect="non-scaling-stroke"/>
    <circle class="st4" cx="1659.54" cy="577.79" r="17.07" vector-effect="non-scaling-stroke"/>
  </g>
</svg>