<?xml version="1.0" encoding="UTF-8"?>
<svg id="minimap-svg" xmlns="http://www.w3.org/2000/svg" version="1.1" viewBox="0 0 748.51 1080">
  <!-- Generator: Adobe Illustrator 30.0.0, SVG Export Plug-In . SVG Version: 2.1.1 Build 123)  -->
  <defs>
    <style>
      .st0 {
        stroke: #ef4444;
      }

      .st0, .st1, .st2, .st3 {
        fill: none;
        stroke-miterlimit: 6.17;
      }

      .st0, .st2, .st3 {
        stroke-width: 3.09px;
      }

      .st1 {
        stroke: #000;
        stroke-width: 12.34px;
      }

      .st2 {
        stroke: #3b82f6;
      }

      .st3 {
        stroke: #fbbf24;
      }

      .st4 {
        fill: #fff;
      }
    </style>
  </defs>
  <g>
    <path class="st1" d="M257.77,206.74c-1.54-3.09-3.09-6.17-4.94-9.26,0,0-1.7-3.09-5.55-9.26,0,0-3.86-6.17-8.02-12.65,0,0-4.17-6.33-8.49-13.11,0,0-4.32-6.63-8.49-13.58,0,0-4.17-6.94-8.49-14.19,0,0-4.32-7.1-8.79-14.35,0,0-4.32-7.25-8.64-13.89,0,0-4.47-6.63-8.02-12.03,0,0-3.55-5.4-6.17-9.57,0,0-2.62-4.17-4.63-7.41,0,0-2.01-3.39-3.55-6.02,0,0-1.54-2.47-2.93-4.32,0,0-1.23-1.85-2.01-3.09,0,0-.77-1.23-1.54-2.62,0,0-.77-1.23-1.85-2.78,0,0-.93-1.54-1.7-3.09,0,0-.77-1.54-1.39-3.39,0,0-.46-1.7-.46-3.24,0,0,0-1.54.31-3.09,0,0,.15-1.54.93-2.62,0,0,.77-1.08,1.85-2.01,0,0,1.08-1.08,2.31-1.39,0,0,1.23-.15,2.62-.15,0,0,1.23,0,2.47.77,0,0,1.39.77,2.93,1.54,0,0,1.54.77,3.24,1.7,0,0,1.85,1.08,4.47,2.16,0,0,2.47.93,5.4,2.01,0,0,2.78,1.08,6.17,2.62,0,0,3.24,1.54,7.1,3.09,0,0,3.86,1.54,8.33,3.55,0,0,4.32,2.01,8.95,4.17,0,0,4.63,2.01,9.57,4.32,0,0,4.78,2.31,9.72,4.94,0,0,4.94,2.47,10.34,5.4,0,0,5.4,2.78,10.8,6.17,0,0,5.4,3.24,10.95,7.1,0,0,5.71,3.86,11.42,8.33,0,0,5.55,4.32,11.26,8.95,0,0,5.71,4.63,11.26,9.57,0,0,5.71,4.78,11.11,10.03,0,0,5.4,5.09,10.49,10.8,0,0,5.25,5.55,10.34,11.57,0,0,5.09,5.86,10.34,12.03,0,0,5.09,6.17,10.8,12.34,0,0,5.55,6.17,10.95,12.34,0,0,5.4,6.17,10.65,11.57,0,0,5.09,5.4,8.95,9.72,0,0,3.86,4.47,7.25,7.56,0,0,3.24,3.09,5.55,5.55,0,0,2.31,2.62,4.94,4.94,0,0,2.62,2.31,4.94,4.63,0,0,2.31,2.31,5.09,4.32,0,0,2.78,2.16,5.71,4.17,0,0,2.78,2.01,5.86,3.86,0,0,3.09,1.85,6.48,3.86,0,0,3.24,2.01,6.33,4.17,0,0,3.09,2.01,6.02,4.63,0,0,2.78,2.47,5.09,5.4,0,0,2.31,2.78,4.32,5.86,0,0,2.16,3.09,4.17,6.48,0,0,2.01,3.24,3.55,6.94,0,0,1.54,3.55,2.93,7.41,0,0,1.23,3.86,2.01,7.71l1.54,7.71,1.54,7.71s.77,3.86,1.85,7.71c0,0,.93,3.86,2.47,7.41,0,0,1.54,3.7,3.7,6.79,0,0,2.01,3.09,4.01,5.86,0,0,2.16,2.78,4.17,5.71,0,0,2.01,2.78,4.17,6.17,0,0,2.01,3.24,4.63,6.94,0,0,2.47,3.55,5.4,7.71,0,0,2.78,4.01,6.17,8.64,0,0,3.24,4.63,6.94,9.57,0,0,3.55,4.94,7.41,10.34,0,0,3.86,5.4,7.71,10.95,0,0,3.86,5.71,7.71,11.88,0,0,3.86,6.17,7.71,12.65,0,0,3.86,6.33,7.71,13.11,0,0,3.86,6.63,7.41,13.89,0,0,3.7,7.1,6.79,14.66,0,0,3.09,7.41,5.86,15.43,0,0,2.78,7.87,5.71,16.2l5.55,16.35s2.93,8.33,5.71,16.82c0,0,2.78,8.49,5.4,16.97,0,0,2.62,8.49,5.71,17.13,0,0,3.09,8.79,5.86,17.59,0,0,2.78,8.64,5.86,17.74,0,0,3.09,8.95,6.02,18.21,0,0,2.78,9.26,5.86,18.51l6.17,18.51,6.17,18.51,6.17,18.51,6.17,18.51s3.09,9.26,6.17,18.82c0,0,3.09,9.41,6.17,18.67,0,0,3.09,9.26,6.94,20.67l3.86,11.26" vector-effect="non-scaling-stroke"/>
    <path class="st1" d="M672.8,783.77c1.23,3.39,2.31,6.94,2.93,9.57,0,0,.62,2.78,2.16,7.87,0,0,1.54,5.25,2.62,9.1,0,0,1.08,3.86,1.85,6.63,0,0,.77,2.78.93,4.94,0,0,.31,2.01.31,3.55v3.09s0,1.54-.31,3.09c0,0-.15,1.54-.77,3.09,0,0-.46,1.54-1.54,3.39,0,0-.93,1.7-2.31,3.55,0,0-1.23,1.85-3.09,3.39,0,0-1.7,1.54-3.55,2.78,0,0-1.85,1.23-3.55,2.62,0,0-1.85,1.23-3.39,2.78,0,0-1.54,1.54-2.78,3.39,0,0-1.39,1.7-2.31,3.86,0,0-1.08,2.01-1.85,4.63,0,0-.77,2.47-1.08,5.09,0,0-.15,2.62,0,5.4,0,0,.31,2.78,1.08,5.71,0,0,.77,2.78,1.54,5.86,0,0,.77,3.09,1.85,5.86,0,0,.93,2.93,2.01,5.71,0,0,1.08,2.78,2.01,5.4,0,0,1.08,2.62,1.54,5.4,0,0,.62,2.78,1.08,5.4,0,0,.46,2.62.77,5.4,0,0,.31,2.78.46,5.4,0,0,.31,2.62,0,5.09,0,0-.15,2.62-.93,5.25,0,0-.77,2.47-2.16,4.78,0,0-1.23,2.31-3.09,4.63,0,0-1.7,2.31-3.86,4.17,0,0-2.01,1.85-4.63,3.86,0,0-2.47,2.01-5.55,4.32,0,0-3.09,2.31-6.79,5.25,0,0-3.55,2.78-7.71,5.86,0,0-4.01,3.09-8.49,6.48,0,0-4.32,3.24-9.26,6.94,0,0-4.78,3.55-10.03,7.41,0,0-5.09,3.86-10.49,8.02,0,0-5.4,4.01-11.11,8.49,0,0-5.55,4.32-10.95,8.64,0,0-5.4,4.47-10.34,8.02,0,0-4.94,3.55-8.49,6.48,0,0-3.55,2.78-6.48,4.78,0,0-2.78,2.16-5.09,3.39,0,0-2.31,1.23-4.63,2.01,0,0-2.31.77-4.94.77,0,0-2.47,0-5.09-.15,0,0-2.62-.31-5.09-1.08,0,0-2.62-.77-4.94-1.85,0,0-2.31-.93-4.32-2.78,0,0-2.16-1.85-3.86-4.17,0,0-1.85-2.31-2.93-5.09,0,0-.93-2.78-1.23-5.71,0,0-.31-2.78.46-5.86,0,0,.77-3.09,2.16-5.86,0,0,1.23-2.93,3.09-5.4,0,0,1.7-2.62,4.01-4.94,0,0,2.31-2.31,5.25-4.32,0,0,2.78-2.16,5.55-3.86,0,0,2.93-1.85,6.02-3.7,0,0,3.09-1.7,6.33-4.01,0,0,3.39-2.31,7.25-4.94,0,0,3.86-2.62,7.25-4.94,0,0,3.24-2.31,5.86-4.01,0,0,2.62-1.85,4.63-3.39,0,0,2.01-1.54,3.55-3.09,0,0,1.54-1.54,3.09-3.39,0,0,1.54-1.7,2.62-3.86,0,0,1.08-2.01,1.85-4.32,0,0,.77-2.31.93-4.94,0,0,.31-2.47-.15-5.09,0,0-.62-2.62-1.39-5.4,0,0-.77-2.78-2.01-5.86,0,0-1.23-3.09-2.62-6.79,0,0-1.23-3.55-2.78-7.87,0,0-1.54-4.47-3.39-9.1,0,0-1.7-4.63-3.55-10.03,0,0-1.85-5.4-3.86-10.95,0,0-2.01-5.71-3.86-12.19,0,0-1.85-6.33-3.86-13.11,0,0-2.01-6.63-3.86-13.89,0,0-1.85-7.1-4.17-15.58,0,0-2.31-8.49-4.32-17.59,0,0-2.01-8.95-4.17-18.21,0,0-2.01-9.26-3.55-17.74,0,0-1.54-8.49-3.09-16.51,0,0-1.54-7.87-3.09-14.81,0,0-1.54-6.94-3.09-12.34,0,0-1.54-5.4-3.09-9.57,0,0-1.54-4.17-3.39-7.41,0,0-1.7-3.39-3.86-6.17,0,0-2.01-2.93-4.32-5.4,0,0-2.31-2.62-4.94-4.63,0,0-2.47-2.16-5.4-3.86,0,0-2.78-1.85-5.86-3.09,0,0-3.09-1.39-6.17-2.31,0,0-3.09-1.08-6.48-1.54,0,0-3.24-.62-7.1-.77,0,0-3.86-.31-8.33-.31h-8.64s-4.47,0-8.79.31c0,0-4.32.15-8.49.93,0,0-4.17.77-8.18,2.16,0,0-4.17,1.23-8.02,3.09,0,0-3.86,1.7-7.71,3.86,0,0-3.86,2.01-7.71,4.63,0,0-3.86,2.47-7.25,5.55,0,0-3.24,3.09-6.33,6.79,0,0-3.09,3.55-5.4,7.71,0,0-2.31,4.01-4.47,8.49,0,0-2.01,4.32-3.86,8.95,0,0-1.7,4.63-3.55,9.57,0,0-1.85,4.78-3.86,10.18,0,0-2.01,5.4-3.86,11.42,0,0-1.85,5.86-4.17,12.03,0,0-2.31,6.17-4.63,12.65,0,0-2.31,6.33-4.78,13.27,0,0-2.62,6.94-5.25,14.19,0,0-2.47,7.25-5.09,14.66,0,0-2.62,7.41-4.94,14.19,0,0-2.31,6.63-4.32,12.34,0,0-2.01,5.55-3.86,9.72,0,0-1.85,4.17-3.55,7.25,0,0-1.85,3.09-3.39,5.55,0,0-1.54,2.62-3.39,4.63,0,0-1.7,2.16-4.01,3.86,0,0-2.31,1.85-5.25,3.09,0,0-2.78,1.39-6.17,2.31,0,0-3.24,1.08-6.63,1.39,0,0-3.39.15-6.63,0,0,0-3.39-.31-6.48-1.39,0,0-3.09-.93-6.17-2.31,0,0-3.09-1.23-6.17-2.78,0,0-3.09-1.54-6.17-2.78,0,0-3.09-1.39-6.17-2.31,0,0-3.09-1.08-6.17-1.54,0,0-3.09-.62-6.17-.62,0,0-3.09,0-6.17.62,0,0-3.09.46-6.17,1.7,0,0-3.09,1.39-6.17,2.93,0,0-3.09,1.54-5.86,3.86,0,0-2.93,2.31-5.25,4.78,0,0-2.31,2.62-4.32,6.02,0,0-2.01,3.24-4.17,6.94,0,0-2.01,3.55-4.63,7.87,0,0-2.47,4.47-5.4,9.1,0,0-2.78,4.63-5.86,10.03l-6.17,10.8s-3.09,5.4-5.86,10.8c0,0-2.93,5.4-5.4,9.72,0,0-2.62,4.32-4.63,7.71,0,0-2.16,3.39-3.86,5.71,0,0-1.85,2.31-3.7,4.01,0,0-1.7,1.85-3.86,3.09,0,0-2.01,1.39-4.32,2.16,0,0-2.31.77-4.94.93,0,0-2.47.31-5.09,0,0,0-2.62-.15-5.09-.77,0,0-2.62-.46-5.25-1.7,0,0-2.47-1.39-5.4-2.93,0,0-2.78-1.54-6.17-3.86,0,0-3.24-2.31-8.49-5.55l-5.09-3.39" vector-effect="non-scaling-stroke"/>
    <path class="st1" d="M108.12,978.17l-6.94-4.63s-2.31-1.54-6.48-4.32c0,0-4.01-2.93-7.41-5.4,0,0-3.39-2.62-5.86-5.25,0,0-2.62-2.47-4.94-5.09,0,0-2.31-2.62-4.17-5.71,0,0-1.7-3.09-3.24-6.17,0,0-1.54-3.09-2.31-6.94,0,0-.77-3.86-1.39-7.71,0,0-.46-3.86-.15-8.18,0,0,.15-4.32.93-8.79,0,0,.77-4.32,2.16-9.26,0,0,1.23-4.78,2.78-9.72,0,0,1.54-4.94,3.39-9.72,0,0,1.7-4.94,3.86-9.57,0,0,2.01-4.63,4.63-9.26,0,0,2.47-4.63,5.4-9.57,0,0,2.78-4.78,5.86-9.72,0,0,3.09-4.94,7.71-11.26,0,0,4.63-6.48,9.72-12.34,0,0,5.25-6.02,10.65-11.88,0,0,5.4-5.86,9.72-10.34,0,0,4.32-4.32,8.79-8.64,0,0,4.32-4.47,8.95-8.79,0,0,4.63-4.32,9.57-8.49,0,0,4.78-4.17,10.03-8.02,0,0,5.09-3.86,10.8-7.1,0,0,5.55-3.39,11.57-6.79,0,0,5.86-3.24,12.34-6.94,0,0,6.33-3.55,12.5-7.1,0,0,6.17-3.7,12.34-6.94,0,0,6.17-3.39,12.19-6.94,0,0,5.86-3.7,11.73-7.56,0,0,6.02-3.86,11.57-8.18,0,0,5.71-4.32,10.8-8.79,0,0,5.25-4.32,10.03-9.26,0,0,4.94-4.78,9.1-10.03,0,0,4.01-5.09,7.71-10.8,0,0,3.55-5.55,6.63-11.57,0,0,3.09-5.86,5.86-12.34,0,0,2.93-6.33,5.4-12.81,0,0,2.62-6.48,4.94-13.11,0,0,2.31-6.63,4.94-13.11,0,0,2.47-6.48,4.78-12.81,0,0,2.31-6.48,4.47-12.96,0,0,2.01-6.33,3.09-12.81,0,0,.93-6.48,1.23-12.81,0,0,.31-6.48-.77-12.34,0,0-1.08-6.02-2.78-11.57,0,0-1.85-5.71-4.17-11.11,0,0-2.31-5.4-4.63-10.49,0,0-2.31-5.25-4.63-10.34,0,0-2.31-5.09-4.63-10.03,0,0-2.31-4.94-4.32-10.03,0,0-2.16-5.09-4.17-10.34,0,0-2.01-5.09-4.17-10.49,0,0-2.01-5.4-4.32-10.8,0,0-2.31-5.4-4.32-10.8,0,0-2.16-5.4-3.86-10.8,0,0-1.85-5.4-3.39-10.8,0,0-1.54-5.4-2.78-10.8,0,0-1.39-5.4-2.31-11.11,0,0-1.08-5.55-1.85-11.26,0,0-.77-5.71-1.54-11.11,0,0-.77-5.4-1.23-10.03,0,0-.62-4.63-1.08-8.64,0,0-.46-4.17-.77-7.71,0,0-.31-3.7-.77-6.94,0,0-.46-3.39-1.08-6.48,0,0-.46-3.09-.93-5.86,0,0-.62-2.93-.77-5.25,0,0-.31-2.31-.31-4.32,0,0,0-2.01-.31-3.86,0,0-.15-1.85-.46-3.39,0,0-.31-1.54-.46-2.47,0,0-.31-1.08-.31-2.16,0,0,0-.93.31-2.01,0,0,.15-1.08.77-2.01,0,0,.46-1.08,1.23-1.85,0,0,.77-.77,1.54-1.23,0,0,.77-.62,1.85-1.08,0,0,.93-.46,2.31-.46h3.09s1.7,0,3.55.15c0,0,1.85.31,3.86,0,0,0,2.01-.15,3.55-.77,0,0,1.54-.46,2.93-1.54,0,0,1.23-.93,2.01-2.31,0,0,.77-1.23,1.23-2.78,0,0,.62-1.54.62-3.09,0,0,0-1.54-.62-3.09,0,0-.46-1.54-1.54-3.39,0,0-.93-1.7-2.31-3.86,0,0-1.23-2.01-3.09-4.63,0,0-1.7-2.47-3.86-5.55,0,0-2.01-3.09-4.32-6.79,0,0-2.31-3.55-4.94-7.71,0,0-2.47-4.01-5.4-8.64,0,0-2.78-4.63-5.86-9.87,0,0-3.09-5.09-9.26-13.58l-6.17-8.49" vector-effect="non-scaling-stroke"/>
  </g>
  <path class="st0" d="M257.77,206.74c-1.54-3.09-3.09-6.17-4.94-9.26,0,0-1.7-3.09-5.55-9.26,0,0-3.86-6.17-8.02-12.65,0,0-4.17-6.33-8.49-13.11,0,0-4.32-6.63-8.49-13.58,0,0-4.17-6.94-8.49-14.19,0,0-4.32-7.1-8.79-14.35,0,0-4.32-7.25-8.64-13.89,0,0-4.47-6.63-8.02-12.03,0,0-3.55-5.4-6.17-9.57,0,0-2.62-4.17-4.63-7.41,0,0-2.01-3.39-3.55-6.02,0,0-1.54-2.47-2.93-4.32,0,0-1.23-1.85-2.01-3.09,0,0-.77-1.23-1.54-2.62,0,0-.77-1.23-1.85-2.78,0,0-.93-1.54-1.7-3.09,0,0-.77-1.54-1.39-3.39,0,0-.46-1.7-.46-3.24,0,0,0-1.54.31-3.09,0,0,.15-1.54.93-2.62,0,0,.77-1.08,1.85-2.01,0,0,1.08-1.08,2.31-1.39,0,0,1.23-.15,2.62-.15,0,0,1.23,0,2.47.77,0,0,1.39.77,2.93,1.54,0,0,1.54.77,3.24,1.7,0,0,1.85,1.08,4.47,2.16,0,0,2.47.93,5.4,2.01,0,0,2.78,1.08,6.17,2.62,0,0,3.24,1.54,7.1,3.09,0,0,3.86,1.54,8.33,3.55,0,0,4.32,2.01,8.95,4.17,0,0,4.63,2.01,9.57,4.32,0,0,4.78,2.31,9.72,4.94,0,0,4.94,2.47,10.34,5.4,0,0,5.4,2.78,10.8,6.17,0,0,5.4,3.24,10.95,7.1,0,0,5.71,3.86,11.42,8.33,0,0,5.55,4.32,11.26,8.95,0,0,5.71,4.63,11.26,9.57,0,0,5.71,4.78,11.11,10.03,0,0,5.4,5.09,10.49,10.8,0,0,5.25,5.55,10.34,11.57,0,0,5.09,5.86,10.34,12.03,0,0,5.09,6.17,10.8,12.34,0,0,5.55,6.17,10.95,12.34,0,0,5.4,6.17,10.65,11.57,0,0,5.09,5.4,8.95,9.72,0,0,3.86,4.47,7.25,7.56,0,0,3.24,3.09,5.55,5.55,0,0,2.31,2.62,4.94,4.94,0,0,2.62,2.31,4.94,4.63,0,0,2.31,2.31,5.09,4.32,0,0,2.78,2.16,5.71,4.17,0,0,2.78,2.01,5.86,3.86,0,0,3.09,1.85,6.48,3.86,0,0,3.24,2.01,6.33,4.17,0,0,3.09,2.01,6.02,4.63,0,0,2.78,2.47,5.09,5.4,0,0,2.31,2.78,4.32,5.86,0,0,2.16,3.09,4.17,6.48,0,0,2.01,3.24,3.55,6.94,0,0,1.54,3.55,2.93,7.41,0,0,1.23,3.86,2.01,7.71l1.54,7.71,1.54,7.71s.77,3.86,1.85,7.71c0,0,.93,3.86,2.47,7.41,0,0,1.54,3.7,3.7,6.79,0,0,2.01,3.09,4.01,5.86,0,0,2.16,2.78,4.17,5.71,0,0,2.01,2.78,4.17,6.17,0,0,2.01,3.24,4.63,6.94,0,0,2.47,3.55,5.4,7.71,0,0,2.78,4.01,6.17,8.64,0,0,3.24,4.63,6.94,9.57,0,0,3.55,4.94,7.41,10.34,0,0,3.86,5.4,7.71,10.95,0,0,3.86,5.71,7.71,11.88,0,0,3.86,6.17,7.71,12.65,0,0,3.86,6.33,7.71,13.11,0,0,3.86,6.63,7.41,13.89,0,0,3.7,7.1,6.79,14.66,0,0,3.09,7.41,5.86,15.43,0,0,2.78,7.87,5.71,16.2l5.55,16.35s2.93,8.33,5.71,16.82c0,0,2.78,8.49,5.4,16.97,0,0,2.62,8.49,5.71,17.13,0,0,3.09,8.79,5.86,17.59,0,0,2.78,8.64,5.86,17.74,0,0,3.09,8.95,6.02,18.21,0,0,2.78,9.26,5.86,18.51l6.17,18.51,6.17,18.51,6.17,18.51,6.17,18.51s3.09,9.26,6.17,18.82c0,0,3.09,9.41,6.17,18.67,0,0,3.09,9.26,6.94,20.67l3.86,11.26" vector-effect="non-scaling-stroke"/>
  <path class="st2" d="M672.8,783.77c1.23,3.39,2.31,6.94,2.93,9.57,0,0,.62,2.78,2.16,7.87,0,0,1.54,5.25,2.62,9.1,0,0,1.08,3.86,1.85,6.63,0,0,.77,2.78.93,4.94,0,0,.31,2.01.31,3.55v3.09s0,1.54-.31,3.09c0,0-.15,1.54-.77,3.09,0,0-.46,1.54-1.54,3.39,0,0-.93,1.7-2.31,3.55,0,0-1.23,1.85-3.09,3.39,0,0-1.7,1.54-3.55,2.78,0,0-1.85,1.23-3.55,2.62,0,0-1.85,1.23-3.39,2.78,0,0-1.54,1.54-2.78,3.39,0,0-1.39,1.7-2.31,3.86,0,0-1.08,2.01-1.85,4.63,0,0-.77,2.47-1.08,5.09,0,0-.15,2.62,0,5.4,0,0,.31,2.78,1.08,5.71,0,0,.77,2.78,1.54,5.86,0,0,.77,3.09,1.85,5.86,0,0,.93,2.93,2.01,5.71,0,0,1.08,2.78,2.01,5.4,0,0,1.08,2.62,1.54,5.4,0,0,.62,2.78,1.08,5.4,0,0,.46,2.62.77,5.4,0,0,.31,2.78.46,5.4,0,0,.31,2.62,0,5.09,0,0-.15,2.62-.93,5.25,0,0-.77,2.47-2.16,4.78,0,0-1.23,2.31-3.09,4.63,0,0-1.7,2.31-3.86,4.17,0,0-2.01,1.85-4.63,3.86,0,0-2.47,2.01-5.55,4.32,0,0-3.09,2.31-6.79,5.25,0,0-3.55,2.78-7.71,5.86,0,0-4.01,3.09-8.49,6.48,0,0-4.32,3.24-9.26,6.94,0,0-4.78,3.55-10.03,7.41,0,0-5.09,3.86-10.49,8.02,0,0-5.4,4.01-11.11,8.49,0,0-5.55,4.32-10.95,8.64,0,0-5.4,4.47-10.34,8.02,0,0-4.94,3.55-8.49,6.48,0,0-3.55,2.78-6.48,4.78,0,0-2.78,2.16-5.09,3.39,0,0-2.31,1.23-4.63,2.01,0,0-2.31.77-4.94.77,0,0-2.47,0-5.09-.15,0,0-2.62-.31-5.09-1.08,0,0-2.62-.77-4.94-1.85,0,0-2.31-.93-4.32-2.78,0,0-2.16-1.85-3.86-4.17,0,0-1.85-2.31-2.93-5.09,0,0-.93-2.78-1.23-5.71,0,0-.31-2.78.46-5.86,0,0,.77-3.09,2.16-5.86,0,0,1.23-2.93,3.09-5.4,0,0,1.7-2.62,4.01-4.94,0,0,2.31-2.31,5.25-4.32,0,0,2.78-2.16,5.55-3.86,0,0,2.93-1.85,6.02-3.7,0,0,3.09-1.7,6.33-4.01,0,0,3.39-2.31,7.25-4.94,0,0,3.86-2.62,7.25-4.94,0,0,3.24-2.31,5.86-4.01,0,0,2.62-1.85,4.63-3.39,0,0,2.01-1.54,3.55-3.09,0,0,1.54-1.54,3.09-3.39,0,0,1.54-1.7,2.62-3.86,0,0,1.08-2.01,1.85-4.32,0,0,.77-2.31.93-4.94,0,0,.31-2.47-.15-5.09,0,0-.62-2.62-1.39-5.4,0,0-.77-2.78-2.01-5.86,0,0-1.23-3.09-2.62-6.79,0,0-1.23-3.55-2.78-7.87,0,0-1.54-4.47-3.39-9.1,0,0-1.7-4.63-3.55-10.03,0,0-1.85-5.4-3.86-10.95,0,0-2.01-5.71-3.86-12.19,0,0-1.85-6.33-3.86-13.11,0,0-2.01-6.63-3.86-13.89,0,0-1.85-7.1-4.17-15.58,0,0-2.31-8.49-4.32-17.59,0,0-2.01-8.95-4.17-18.21,0,0-2.01-9.26-3.55-17.74,0,0-1.54-8.49-3.09-16.51,0,0-1.54-7.87-3.09-14.81,0,0-1.54-6.94-3.09-12.34,0,0-1.54-5.4-3.09-9.57,0,0-1.54-4.17-3.39-7.41,0,0-1.7-3.39-3.86-6.17,0,0-2.01-2.93-4.32-5.4,0,0-2.31-2.62-4.94-4.63,0,0-2.47-2.16-5.4-3.86,0,0-2.78-1.85-5.86-3.09,0,0-3.09-1.39-6.17-2.31,0,0-3.09-1.08-6.48-1.54,0,0-3.24-.62-7.1-.77,0,0-3.86-.31-8.33-.31h-8.64s-4.47,0-8.79.31c0,0-4.32.15-8.49.93,0,0-4.17.77-8.18,2.16,0,0-4.17,1.23-8.02,3.09,0,0-3.86,1.7-7.71,3.86,0,0-3.86,2.01-7.71,4.63,0,0-3.86,2.47-7.25,5.55,0,0-3.24,3.09-6.33,6.79,0,0-3.09,3.55-5.4,7.71,0,0-2.31,4.01-4.47,8.49,0,0-2.01,4.32-3.86,8.95,0,0-1.7,4.63-3.55,9.57,0,0-1.85,4.78-3.86,10.18,0,0-2.01,5.4-3.86,11.42,0,0-1.85,5.86-4.17,12.03,0,0-2.31,6.17-4.63,12.65,0,0-2.31,6.33-4.78,13.27,0,0-2.62,6.94-5.25,14.19,0,0-2.47,7.25-5.09,14.66,0,0-2.62,7.41-4.94,14.19,0,0-2.31,6.63-4.32,12.34,0,0-2.01,5.55-3.86,9.72,0,0-1.85,4.17-3.55,7.25,0,0-1.85,3.09-3.39,5.55,0,0-1.54,2.62-3.39,4.63,0,0-1.7,2.16-4.01,3.86,0,0-2.31,1.85-5.25,3.09,0,0-2.78,1.39-6.17,2.31,0,0-3.24,1.08-6.63,1.39,0,0-3.39.15-6.63,0,0,0-3.39-.31-6.48-1.39,0,0-3.09-.93-6.17-2.31,0,0-3.09-1.23-6.17-2.78,0,0-3.09-1.54-6.17-2.78,0,0-3.09-1.39-6.17-2.31,0,0-3.09-1.08-6.17-1.54,0,0-3.09-.62-6.17-.62,0,0-3.09,0-6.17.62,0,0-3.09.46-6.17,1.7,0,0-3.09,1.39-6.17,2.93,0,0-3.09,1.54-5.86,3.86,0,0-2.93,2.31-5.25,4.78,0,0-2.31,2.62-4.32,6.02,0,0-2.01,3.24-4.17,6.94,0,0-2.01,3.55-4.63,7.87,0,0-2.47,4.47-5.4,9.1,0,0-2.78,4.63-5.86,10.03l-6.17,10.8s-3.09,5.4-5.86,10.8c0,0-2.93,5.4-5.4,9.72,0,0-2.62,4.32-4.63,7.71,0,0-2.16,3.39-3.86,5.71,0,0-1.85,2.31-3.7,4.01,0,0-1.7,1.85-3.86,3.09,0,0-2.01,1.39-4.32,2.16,0,0-2.31.77-4.94.93,0,0-2.47.31-5.09,0,0,0-2.62-.15-5.09-.77,0,0-2.62-.46-5.25-1.7,0,0-2.47-1.39-5.4-2.93,0,0-2.78-1.54-6.17-3.86,0,0-3.24-2.31-8.49-5.55l-5.09-3.39" vector-effect="non-scaling-stroke"/>
  <path class="st3" d="M108.12,978.17l-6.94-4.63s-2.31-1.54-6.48-4.32c0,0-4.01-2.93-7.41-5.4,0,0-3.39-2.62-5.86-5.25,0,0-2.62-2.47-4.94-5.09,0,0-2.31-2.62-4.17-5.71,0,0-1.7-3.09-3.24-6.17,0,0-1.54-3.09-2.31-6.94,0,0-.77-3.86-1.39-7.71,0,0-.46-3.86-.15-8.18,0,0,.15-4.32.93-8.79,0,0,.77-4.32,2.16-9.26,0,0,1.23-4.78,2.78-9.72,0,0,1.54-4.94,3.39-9.72,0,0,1.7-4.94,3.86-9.57,0,0,2.01-4.63,4.63-9.26,0,0,2.47-4.63,5.4-9.57,0,0,2.78-4.78,5.86-9.72,0,0,3.09-4.94,7.71-11.26,0,0,4.63-6.48,9.72-12.34,0,0,5.25-6.02,10.65-11.88,0,0,5.4-5.86,9.72-10.34,0,0,4.32-4.32,8.79-8.64,0,0,4.32-4.47,8.95-8.79,0,0,4.63-4.32,9.57-8.49,0,0,4.78-4.17,10.03-8.02,0,0,5.09-3.86,10.8-7.1,0,0,5.55-3.39,11.57-6.79,0,0,5.86-3.24,12.34-6.94,0,0,6.33-3.55,12.5-7.1,0,0,6.17-3.7,12.34-6.94,0,0,6.17-3.39,12.19-6.94,0,0,5.86-3.7,11.73-7.56,0,0,6.02-3.86,11.57-8.18,0,0,5.71-4.32,10.8-8.79,0,0,5.25-4.32,10.03-9.26,0,0,4.94-4.78,9.1-10.03,0,0,4.01-5.09,7.71-10.8,0,0,3.55-5.55,6.63-11.57,0,0,3.09-5.86,5.86-12.34,0,0,2.93-6.33,5.4-12.81,0,0,2.62-6.48,4.94-13.11,0,0,2.31-6.63,4.94-13.11,0,0,2.47-6.48,4.78-12.81,0,0,2.31-6.48,4.47-12.96,0,0,2.01-6.33,3.09-12.81,0,0,.93-6.48,1.23-12.81,0,0,.31-6.48-.77-12.34,0,0-1.08-6.02-2.78-11.57,0,0-1.85-5.71-4.17-11.11,0,0-2.31-5.4-4.63-10.49,0,0-2.31-5.25-4.63-10.34,0,0-2.31-5.09-4.63-10.03,0,0-2.31-4.94-4.32-10.03,0,0-2.16-5.09-4.17-10.34,0,0-2.01-5.09-4.17-10.49,0,0-2.01-5.4-4.32-10.8,0,0-2.31-5.4-4.32-10.8,0,0-2.16-5.4-3.86-10.8,0,0-1.85-5.4-3.39-10.8,0,0-1.54-5.4-2.78-10.8,0,0-1.39-5.4-2.31-11.11,0,0-1.08-5.55-1.85-11.26,0,0-.77-5.71-1.54-11.11,0,0-.77-5.4-1.23-10.03,0,0-.62-4.63-1.08-8.64,0,0-.46-4.17-.77-7.71,0,0-.31-3.7-.77-6.94,0,0-.46-3.39-1.08-6.48,0,0-.46-3.09-.93-5.86,0,0-.62-2.93-.77-5.25,0,0-.31-2.31-.31-4.32,0,0,0-2.01-.31-3.86,0,0-.15-1.85-.46-3.39,0,0-.31-1.54-.46-2.47,0,0-.31-1.08-.31-2.16,0,0,0-.93.31-2.01,0,0,.15-1.08.77-2.01,0,0,.46-1.08,1.23-1.85,0,0,.77-.77,1.54-1.23,0,0,.77-.62,1.85-1.08,0,0,.93-.46,2.31-.46h3.09s1.7,0,3.55.15c0,0,1.85.31,3.86,0,0,0,2.01-.15,3.55-.77,0,0,1.54-.46,2.93-1.54,0,0,1.23-.93,2.01-2.31,0,0,.77-1.23,1.23-2.78,0,0,.62-1.54.62-3.09,0,0,0-1.54-.62-3.09,0,0-.46-1.54-1.54-3.39,0,0-.93-1.7-2.31-3.86,0,0-1.23-2.01-3.09-4.63,0,0-1.7-2.47-3.86-5.55,0,0-2.01-3.09-4.32-6.79,0,0-2.31-3.55-4.94-7.71,0,0-2.47-4.01-5.4-8.64,0,0-2.78-4.63-5.86-9.87,0,0-3.09-5.09-9.26-13.58l-6.17-8.49" vector-effect="non-scaling-stroke"/>
  <g id="moving-circle-group">
    <circle cx="257.77" cy="206.74" r="30.86" vector-effect="non-scaling-stroke"/>
    <circle class="st4" cx="257.77" cy="206.74" r="10.8" vector-effect="non-scaling-stroke"/>
  </g>
</svg>