<?xml version="1.0" encoding="UTF-8"?>
<svg id="minimap-svg" xmlns="http://www.w3.org/2000/svg" version="1.1" viewBox="0 0 901.25 1080">
  <!-- Generator: Adobe Illustrator 30.0.0, SVG Export Plug-In . SVG Version: 2.1.1 Build 123)  -->
  <defs>
    <style>
      .st0 {
        stroke: #ef4444;
      }

      .st0, .st1, .st2, .st3 {
        fill: none;
        stroke-miterlimit: 6.17;
      }

      .st0, .st2, .st3 {
        stroke-width: 3.09px;
      }

      .st1 {
        stroke: #000;
        stroke-width: 12.34px;
      }

      .st2 {
        stroke: #3b82f6;
      }

      .st3 {
        stroke: #fbbf24;
      }

      .st4 {
        fill: #fff;
      }
    </style>
  </defs>
  <g>
    <path class="st1" d="M753.03,398.06c-3.86,6.17-7.71,12.34-11.57,18.21,0,0-3.86,6.02-11.88,18.05,0,0-7.87,12.03-15.89,24.38,0,0-8.02,12.34-16.2,25.3,0,0-8.18,12.81-16.51,25.92,0,0-8.18,13.11-16.66,26.54,0,0-8.49,13.27-16.97,26.69,0,0-8.49,13.42-17.28,27,0,0-8.64,13.58-17.74,27,0,0-8.95,13.42-17.9,27.31,0,0-9.1,13.89-18.05,27.77,0,0-8.95,13.89-18.05,27.93l-17.9,28.39s-9.1,14.04-18.05,28.23c0,0-8.95,14.19-18.05,28.54,0,0-8.95,14.35-18.21,28.54,0,0-9.26,14.19-18.51,28.54,0,0-9.26,14.35-18.51,28.85,0,0-9.26,14.35-18.21,28.23,0,0-9.1,13.89-16.97,26.23,0,0-8.02,12.34-14.5,22.06,0,0-6.33,9.87-10.95,17.28,0,0-4.63,7.41-8.33,12.81,0,0-3.55,5.4-6.33,9.57,0,0-2.93,4.17-5.25,7.25,0,0-2.31,3.09-4.32,5.4,0,0-2.01,2.31-4.32,4.01,0,0-2.31,1.85-4.94,3.09,0,0-2.62,1.39-5.4,2.31,0,0-2.78,1.08-5.86,1.54,0,0-3.09.62-6.79.62,0,0-3.55,0-7.41-.77,0,0-3.86-.77-7.71-2.31,0,0-3.86-1.54-7.71-3.7,0,0-3.86-2.01-7.71-4.63,0,0-3.86-2.47-7.71-4.78,0,0-3.86-2.31-7.71-4.47,0,0-3.86-2.01-8.02-3.09,0,0-4.01-.93-8.49-1.54,0,0-4.32-.46-9.26,0,0,0-4.78.62-9.72,1.54,0,0-4.94,1.08-9.72,3.09,0,0-4.94,2.16-9.57,4.94,0,0-4.63,2.78-9.26,6.48,0,0-4.63,3.55-9.57,7.41,0,0-4.78,3.86-10.03,7.71,0,0-5.09,3.86-10.49,7.71,0,0-5.4,3.86-10.8,7.41,0,0-5.4,3.7-10.8,6.79,0,0-5.4,3.09-10.8,5.55,0,0-5.4,2.62-11.11,4.47,0,0-5.55,1.7-11.57,2.78,0,0-5.86,1.08-11.73,1.08,0,0-6.02,0-11.88-.77,0,0-5.86-.77-11.57-2.16,0,0-5.71-1.23-11.26-3.09,0,0-5.71-1.7-11.42-4.32,0,0-5.55-2.62-10.95-5.86,0,0-5.4-3.39-10.34-7.71,0,0-4.94-4.47-8.95-9.26,0,0-4.17-4.94-7.71-10.34,0,0-3.7-5.4-6.94-11.11,0,0-3.39-5.55-6.02-11.73,0,0-2.47-6.17-4.32-12.96,0,0-1.85-6.63-2.78-13.58,0,0-1.08-6.94-1.54-13.89,0,0-.62-6.94-.62-13.89,0,0,0-6.94.77-13.89,0,0,.77-6.94,2.16-13.89,0,0,1.23-6.94,3.09-14.19,0,0,1.7-7.1,4.01-14.35,0,0,2.31-7.25,5.25-14.19,0,0,2.78-6.94,6.17-13.58,0,0,3.24-6.63,7.1-13.42,0,0,3.86-6.63,8.33-13.58,0,0,4.32-6.94,9.26-14.19,0,0,4.78-7.1,10.03-15.12,0,0,5.09-8.02,10.49-16.66,0,0,5.4-8.79,11.11-18.36,0,0,5.55-9.41,11.73-19.44,0,0,6.17-10.03,16.05-25.3l9.72-15.12" vector-effect="non-scaling-stroke"/>
    <path class="st1" d="M138.97,697.37c2.78-4.32,5.4-8.49,7.87-12.03,0,0,2.47-3.39,6.79-9.87,0,0,4.32-6.33,8.02-10.95,0,0,3.55-4.63,6.63-7.71,0,0,3.09-3.09,6.17-5.4,0,0,3.09-2.31,6.17-4.17,0,0,3.09-1.85,6.63-3.55,0,0,3.7-1.85,7.56-2.93,0,0,3.86-.93,8.18-1.23,0,0,4.32-.31,8.49.46,0,0,4.17.77,8.49,2.31,0,0,4.32,1.54,8.18,4.17,0,0,3.86,2.62,7.71,5.71,0,0,3.86,3.09,7.25,6.94,0,0,3.39,3.86,6.48,7.87,0,0,3.09,4.17,5.4,9.26,0,0,2.31,5.25,3.86,10.65,0,0,1.54,5.4,2.31,11.26,0,0,.77,5.86.77,11.88,0,0,0,5.86-.62,12.03,0,0-.46,6.17-1.7,12.34,0,0-1.39,6.17-3.39,12.34,0,0-2.01,6.17-4.94,12.03,0,0-2.78,6.02-6.17,11.57,0,0-3.24,5.71-6.94,11.42,0,0-3.55,5.55-7.1,11.26,0,0-3.7,5.71-7.56,11.26,0,0-3.86,5.71-7.41,11.11,0,0-3.55,5.4-7.25,10.8,0,0-3.55,5.4-6.94,10.49,0,0-3.24,5.25-6.63,10.03,0,0-3.39,4.94-6.48,9.87,0,0-3.09,4.78-5.86,9.41,0,0-2.78,4.63-5.4,9.1,0,0-2.62,4.32-4.94,7.71,0,0-2.31,3.24-4.32,6.33,0,0-2.01,3.09-3.55,6.17,0,0-1.54,3.09-2.62,6.48,0,0-1.08,3.39-1.54,6.63,0,0-.46,3.39-.46,6.48,0,0,0,3.09.15,5.86,0,0,.31,2.93,1.54,5.4,0,0,1.39,2.62,3.09,4.94,0,0,1.85,2.31,4.47,4.32,0,0,2.47,2.16,5.4,3.86,0,0,2.78,1.85,6.17,3.09,0,0,3.24,1.39,6.63,1.85,0,0,3.39.46,6.94,0,0,0,3.55-.46,7.41-1.85,0,0,3.86-1.23,8.02-2.78,0,0,4.17-1.54,8.49-3.39,0,0,4.32-1.7,8.95-3.86,0,0,4.63-2.01,9.87-4.32,0,0,5.09-2.31,10.8-4.63,0,0,5.55-2.31,11.57-4.94,0,0,5.86-2.47,12.03-5.4,0,0,6.17-2.78,12.65-5.86,0,0,6.33-3.09,13.11-6.17,0,0,6.63-3.09,13.58-6.48,0,0,6.94-3.24,13.89-7.1,0,0,6.94-3.86,13.58-8.33,0,0,6.79-4.32,12.96-9.26,0,0,6.17-4.78,11.73-10.18,0,0,5.71-5.4,10.8-11.42,0,0,5.25-5.86,10.03-12.03,0,0,4.94-6.17,9.26-12.03,0,0,4.47-6.02,8.33-11.42,0,0,3.86-5.4,6.94-10.03,0,0,3.09-4.63,5.86-8.64,0,0,2.78-4.17,5.4-8.02,0,0,2.62-3.86,4.94-7.41,0,0,2.31-3.7,4.32-7.25,0,0,2.01-3.55,3.55-6.94,0,0,1.54-3.39,3.09-6.94,0,0,1.54-3.55,2.31-6.94,0,0,.77-3.39.77-6.94,0,0,0-3.55-.77-6.94,0,0-.77-3.39-2.01-6.48,0,0-1.23-3.09-2.78-5.86,0,0-1.54-2.78-3.86-5.4,0,0-2.31-2.62-5.25-5.09,0,0-2.78-2.62-5.86-4.63,0,0-3.09-2.16-6.48-4.17,0,0-3.24-2.01-6.94-4.32,0,0-3.55-2.31-7.1-5.4,0,0-3.7-3.09-6.94-6.79,0,0-3.39-3.55-6.17-7.71,0,0-2.93-4.01-5.4-8.49,0,0-2.62-4.32-4.94-9.26,0,0-2.31-4.78-4.63-10.03l-4.63-10.18s-2.31-5.25-4.63-10.65c0,0-2.31-5.4-4.63-10.95,0,0-2.31-5.71-4.94-11.88,0,0-2.47-6.17-5.4-12.81,0,0-2.78-6.79-5.86-13.73,0,0-3.09-6.94-5.86-14.04,0,0-2.93-7.25-5.4-13.73,0,0-2.62-6.33-4.63-11.73,0,0-2.16-5.4-3.86-9.57,0,0-1.85-4.17-3.39-7.41,0,0-1.54-3.39-2.78-6.79,0,0-1.39-3.24-2.16-6.94,0,0-.77-3.55-1.23-7.1,0,0-.46-3.7-.77-7.25,0,0-.31-3.55-.31-7.25,0,0,0-3.55.62-7.71,0,0,.46-4.01,1.7-8.49,0,0,1.39-4.32,3.09-9.26,0,0,1.85-4.78,4.47-9.41,0,0,2.47-4.63,5.55-9.26,0,0,3.09-4.63,6.79-8.79,0,0,3.55-4.17,7.87-8.02,0,0,4.47-3.86,9.26-6.94,0,0,4.94-3.09,10.03-5.86,0,0,5.25-2.78,10.65-5.4,0,0,5.4-2.62,10.95-5.4,0,0,5.71-2.78,11.88-5.71,0,0,6.17-2.78,12.34-5.86,0,0,6.17-3.09,12.65-6.17,0,0,6.33-3.09,13.27-6.48,0,0,6.94-3.24,14.19-6.94,0,0,7.25-3.55,14.97-7.41,0,0,7.71-3.86,15.89-8.18,0,0,8.18-4.47,17.43-9.1,0,0,9.26-4.63,19.29-9.72,0,0,10.03-5.09,20.83-10.34,0,0,10.8-5.09,22.22-10.8,0,0,11.26-5.55,23.14-11.57,0,0,11.73-5.86,24.07-12.03,0,0,12.34-6.17,24.99-12.34,0,0,12.65-6.17,24.38-11.88,0,0,11.88-5.55,26.54-13.11l14.66-7.41" vector-effect="non-scaling-stroke"/>
    <path class="st1" d="M692.86,251.49c3.09-1.54,6.17-3.09,8.95-4.63,0,0,2.93-1.54,8.02-4.17,0,0,5.09-2.47,9.26-4.78,0,0,4.17-2.31,7.41-4.17,0,0,3.39-1.85,6.48-3.86,0,0,3.09-2.01,5.86-4.17,0,0,2.93-2.01,5.25-4.78,0,0,2.31-2.93,3.86-6.02,0,0,1.54-3.09,2.31-6.63,0,0,.77-3.55.46-7.25,0,0-.31-3.55-1.23-7.1,0,0-1.08-3.7-3.09-6.94,0,0-2.16-3.39-4.63-6.17,0,0-2.62-2.93-6.17-5.4,0,0-3.7-2.62-7.56-4.63,0,0-3.86-2.16-7.87-3.7,0,0-4.17-1.54-8.49-2.47,0,0-4.47-1.08-9.1-1.85,0,0-4.63-.77-9.41-1.23,0,0-4.94-.62-9.87-.62,0,0-4.78,0-9.72.62,0,0-4.94.46-9.72,1.7,0,0-4.94,1.39-9.26,2.93,0,0-4.47,1.54-8.49,3.55,0,0-4.17,2.01-7.71,4.32,0,0-3.7,2.31-6.94,4.94,0,0-3.39,2.62-6.17,5.09,0,0-2.93,2.62-5.71,4.94,0,0-2.78,2.31-5.71,4.32,0,0-2.78,2.16-5.86,3.86,0,0-3.09,1.85-6.17,3.39,0,0-3.09,1.54-6.17,2.78,0,0-3.09,1.39-6.48,2.31,0,0-3.24,1.08-6.94,1.54,0,0-3.55.62-7.41.62,0,0-3.86,0-7.71-.77,0,0-3.86-.77-7.71-2.16,0,0-3.86-1.23-7.41-3.24,0,0-3.7-2.16-6.94-4.63,0,0-3.39-2.62-6.17-6.02,0,0-2.93-3.24-5.25-6.94,0,0-2.31-3.55-3.86-7.71,0,0-1.54-4.01-2.47-8.49,0,0-1.08-4.32-1.08-8.95,0,0,0-4.63.77-9.57,0,0,.77-4.78,2.78-9.41,0,0,2.16-4.63,4.63-9.1,0,0,2.62-4.32,6.17-8.18,0,0,3.7-3.86,7.56-7.71,0,0,3.86-3.86,7.87-7.41,0,0,4.17-3.7,8.49-7.25,0,0,4.47-3.55,8.79-7.25,0,0,4.32-3.55,9.26-7.1,0,0,4.94-3.7,9.72-7.25,0,0,4.94-3.55,10.03-7.41,0,0,5.25-3.86,10.03-7.71,0,0,4.94-3.86,9.26-7.56,0,0,4.47-3.55,8.33-6.33,0,0,3.86-2.93,7.1-5.4,0,0,3.39-2.62,6.48-4.63,0,0,3.09-2.16,6.17-3.86,0,0,3.09-1.85,6.48-3.39,0,0,3.24-1.54,6.94-2.78,0,0,3.55-1.39,7.71-2.16,0,0,4.01-.77,8.49-.93,0,0,4.32-.31,8.95,0,0,0,4.63.15,9.57.93,0,0,4.78.77,10.03,2.31,0,0,5.09,1.54,10.49,3.86,0,0,5.4,2.31,11.11,5.4,0,0,5.55,3.09,11.26,6.79,0,0,5.71,3.55,11.57,7.41,0,0,5.86,3.86,11.88,7.71,0,0,5.86,3.86,12.34,7.71,0,0,6.33,3.86,12.81,8.02,0,0,6.48,4.01,13.11,8.18,0,0,6.63,4.17,12.81,8.49,0,0,6.17,4.32,11.57,8.02,0,0,5.4,3.55,9.57,6.63,0,0,4.17,3.09,7.41,5.71,0,0,3.39,2.47,6.48,5.09,0,0,3.09,2.62,5.86,5.71,0,0,2.93,3.09,5.4,6.17,0,0,2.62,3.09,4.63,6.94,0,0,2.16,3.86,4.17,8.18,0,0,2.01,4.32,3.55,9.57,0,0,1.54,5.09,2.62,10.49,0,0,1.08,5.4,1.23,10.8,0,0,.31,5.4-.46,11.11,0,0-.77,5.55-2.01,11.26,0,0-1.39,5.71-3.7,11.26,0,0-2.31,5.71-5.09,11.42,0,0-2.78,5.55-6.63,11.73,0,0-3.86,6.17-8.49,13.11,0,0-4.63,6.94-9.57,14.5,0,0-4.94,7.41-10.34,15.58,0,0-5.4,8.33-11.26,17.59,0,0-5.86,9.26-12.34,19.29,0,0-6.48,10.03-13.42,20.83l-13.89,21.6s-6.94,10.8-17.13,26.38l-10.34,15.74" vector-effect="non-scaling-stroke"/>
  </g>
  <path class="st0" d="M753.03,398.06c-3.86,6.17-7.71,12.34-11.57,18.21,0,0-3.86,6.02-11.88,18.05,0,0-7.87,12.03-15.89,24.38,0,0-8.02,12.34-16.2,25.3,0,0-8.18,12.81-16.51,25.92,0,0-8.18,13.11-16.66,26.54,0,0-8.49,13.27-16.97,26.69,0,0-8.49,13.42-17.28,27,0,0-8.64,13.58-17.74,27,0,0-8.95,13.42-17.9,27.31,0,0-9.1,13.89-18.05,27.77,0,0-8.95,13.89-18.05,27.93l-17.9,28.39s-9.1,14.04-18.05,28.23c0,0-8.95,14.19-18.05,28.54,0,0-8.95,14.35-18.21,28.54,0,0-9.26,14.19-18.51,28.54,0,0-9.26,14.35-18.51,28.85,0,0-9.26,14.35-18.21,28.23,0,0-9.1,13.89-16.97,26.23,0,0-8.02,12.34-14.5,22.06,0,0-6.33,9.87-10.95,17.28,0,0-4.63,7.41-8.33,12.81,0,0-3.55,5.4-6.33,9.57,0,0-2.93,4.17-5.25,7.25,0,0-2.31,3.09-4.32,5.4,0,0-2.01,2.31-4.32,4.01,0,0-2.31,1.85-4.94,3.09,0,0-2.62,1.39-5.4,2.31,0,0-2.78,1.08-5.86,1.54,0,0-3.09.62-6.79.62,0,0-3.55,0-7.41-.77,0,0-3.86-.77-7.71-2.31,0,0-3.86-1.54-7.71-3.7,0,0-3.86-2.01-7.71-4.63,0,0-3.86-2.47-7.71-4.78,0,0-3.86-2.31-7.71-4.47,0,0-3.86-2.01-8.02-3.09,0,0-4.01-.93-8.49-1.54,0,0-4.32-.46-9.26,0,0,0-4.78.62-9.72,1.54,0,0-4.94,1.08-9.72,3.09,0,0-4.94,2.16-9.57,4.94,0,0-4.63,2.78-9.26,6.48,0,0-4.63,3.55-9.57,7.41,0,0-4.78,3.86-10.03,7.71,0,0-5.09,3.86-10.49,7.71,0,0-5.4,3.86-10.8,7.41,0,0-5.4,3.7-10.8,6.79,0,0-5.4,3.09-10.8,5.55,0,0-5.4,2.62-11.11,4.47,0,0-5.55,1.7-11.57,2.78,0,0-5.86,1.08-11.73,1.08,0,0-6.02,0-11.88-.77,0,0-5.86-.77-11.57-2.16,0,0-5.71-1.23-11.26-3.09,0,0-5.71-1.7-11.42-4.32,0,0-5.55-2.62-10.95-5.86,0,0-5.4-3.39-10.34-7.71,0,0-4.94-4.47-8.95-9.26,0,0-4.17-4.94-7.71-10.34,0,0-3.7-5.4-6.94-11.11,0,0-3.39-5.55-6.02-11.73,0,0-2.47-6.17-4.32-12.96,0,0-1.85-6.63-2.78-13.58,0,0-1.08-6.94-1.54-13.89,0,0-.62-6.94-.62-13.89,0,0,0-6.94.77-13.89,0,0,.77-6.94,2.16-13.89,0,0,1.23-6.94,3.09-14.19,0,0,1.7-7.1,4.01-14.35,0,0,2.31-7.25,5.25-14.19,0,0,2.78-6.94,6.17-13.58,0,0,3.24-6.63,7.1-13.42,0,0,3.86-6.63,8.33-13.58,0,0,4.32-6.94,9.26-14.19,0,0,4.78-7.1,10.03-15.12,0,0,5.09-8.02,10.49-16.66,0,0,5.4-8.79,11.11-18.36,0,0,5.55-9.41,11.73-19.44,0,0,6.17-10.03,16.05-25.3l9.72-15.12" vector-effect="non-scaling-stroke"/>
  <path class="st2" d="M138.97,697.37c2.78-4.32,5.4-8.49,7.87-12.03,0,0,2.47-3.39,6.79-9.87,0,0,4.32-6.33,8.02-10.95,0,0,3.55-4.63,6.63-7.71,0,0,3.09-3.09,6.17-5.4,0,0,3.09-2.31,6.17-4.17,0,0,3.09-1.85,6.63-3.55,0,0,3.7-1.85,7.56-2.93,0,0,3.86-.93,8.18-1.23,0,0,4.32-.31,8.49.46,0,0,4.17.77,8.49,2.31,0,0,4.32,1.54,8.18,4.17,0,0,3.86,2.62,7.71,5.71,0,0,3.86,3.09,7.25,6.94,0,0,3.39,3.86,6.48,7.87,0,0,3.09,4.17,5.4,9.26,0,0,2.31,5.25,3.86,10.65,0,0,1.54,5.4,2.31,11.26,0,0,.77,5.86.77,11.88,0,0,0,5.86-.62,12.03,0,0-.46,6.17-1.7,12.34,0,0-1.39,6.17-3.39,12.34,0,0-2.01,6.17-4.94,12.03,0,0-2.78,6.02-6.17,11.57,0,0-3.24,5.71-6.94,11.42,0,0-3.55,5.55-7.1,11.26,0,0-3.7,5.71-7.56,11.26,0,0-3.86,5.71-7.41,11.11,0,0-3.55,5.4-7.25,10.8,0,0-3.55,5.4-6.94,10.49,0,0-3.24,5.25-6.63,10.03,0,0-3.39,4.94-6.48,9.87,0,0-3.09,4.78-5.86,9.41,0,0-2.78,4.63-5.4,9.1,0,0-2.62,4.32-4.94,7.71,0,0-2.31,3.24-4.32,6.33,0,0-2.01,3.09-3.55,6.17,0,0-1.54,3.09-2.62,6.48,0,0-1.08,3.39-1.54,6.63,0,0-.46,3.39-.46,6.48,0,0,0,3.09.15,5.86,0,0,.31,2.93,1.54,5.4,0,0,1.39,2.62,3.09,4.94,0,0,1.85,2.31,4.47,4.32,0,0,2.47,2.16,5.4,3.86,0,0,2.78,1.85,6.17,3.09,0,0,3.24,1.39,6.63,1.85,0,0,3.39.46,6.94,0,0,0,3.55-.46,7.41-1.85,0,0,3.86-1.23,8.02-2.78,0,0,4.17-1.54,8.49-3.39,0,0,4.32-1.7,8.95-3.86,0,0,4.63-2.01,9.87-4.32,0,0,5.09-2.31,10.8-4.63,0,0,5.55-2.31,11.57-4.94,0,0,5.86-2.47,12.03-5.4,0,0,6.17-2.78,12.65-5.86,0,0,6.33-3.09,13.11-6.17,0,0,6.63-3.09,13.58-6.48,0,0,6.94-3.24,13.89-7.1,0,0,6.94-3.86,13.58-8.33,0,0,6.79-4.32,12.96-9.26,0,0,6.17-4.78,11.73-10.18,0,0,5.71-5.4,10.8-11.42,0,0,5.25-5.86,10.03-12.03,0,0,4.94-6.17,9.26-12.03,0,0,4.47-6.02,8.33-11.42,0,0,3.86-5.4,6.94-10.03,0,0,3.09-4.63,5.86-8.64,0,0,2.78-4.17,5.4-8.02,0,0,2.62-3.86,4.94-7.41,0,0,2.31-3.7,4.32-7.25,0,0,2.01-3.55,3.55-6.94,0,0,1.54-3.39,3.09-6.94,0,0,1.54-3.55,2.31-6.94,0,0,.77-3.39.77-6.94,0,0,0-3.55-.77-6.94,0,0-.77-3.39-2.01-6.48,0,0-1.23-3.09-2.78-5.86,0,0-1.54-2.78-3.86-5.4,0,0-2.31-2.62-5.25-5.09,0,0-2.78-2.62-5.86-4.63,0,0-3.09-2.16-6.48-4.17,0,0-3.24-2.01-6.94-4.32,0,0-3.55-2.31-7.1-5.4,0,0-3.7-3.09-6.94-6.79,0,0-3.39-3.55-6.17-7.71,0,0-2.93-4.01-5.4-8.49,0,0-2.62-4.32-4.94-9.26,0,0-2.31-4.78-4.63-10.03l-4.63-10.18s-2.31-5.25-4.63-10.65c0,0-2.31-5.4-4.63-10.95,0,0-2.31-5.71-4.94-11.88,0,0-2.47-6.17-5.4-12.81,0,0-2.78-6.79-5.86-13.73,0,0-3.09-6.94-5.86-14.04,0,0-2.93-7.25-5.4-13.73,0,0-2.62-6.33-4.63-11.73,0,0-2.16-5.4-3.86-9.57,0,0-1.85-4.17-3.39-7.41,0,0-1.54-3.39-2.78-6.79,0,0-1.39-3.24-2.16-6.94,0,0-.77-3.55-1.23-7.1,0,0-.46-3.7-.77-7.25,0,0-.31-3.55-.31-7.25,0,0,0-3.55.62-7.71,0,0,.46-4.01,1.7-8.49,0,0,1.39-4.32,3.09-9.26,0,0,1.85-4.78,4.47-9.41,0,0,2.47-4.63,5.55-9.26,0,0,3.09-4.63,6.79-8.79,0,0,3.55-4.17,7.87-8.02,0,0,4.47-3.86,9.26-6.94,0,0,4.94-3.09,10.03-5.86,0,0,5.25-2.78,10.65-5.4,0,0,5.4-2.62,10.95-5.4,0,0,5.71-2.78,11.88-5.71,0,0,6.17-2.78,12.34-5.86,0,0,6.17-3.09,12.65-6.17,0,0,6.33-3.09,13.27-6.48,0,0,6.94-3.24,14.19-6.94,0,0,7.25-3.55,14.97-7.41,0,0,7.71-3.86,15.89-8.18,0,0,8.18-4.47,17.43-9.1,0,0,9.26-4.63,19.29-9.72,0,0,10.03-5.09,20.83-10.34,0,0,10.8-5.09,22.22-10.8,0,0,11.26-5.55,23.14-11.57,0,0,11.73-5.86,24.07-12.03,0,0,12.34-6.17,24.99-12.34,0,0,12.65-6.17,24.38-11.88,0,0,11.88-5.55,26.54-13.11l14.66-7.41" vector-effect="non-scaling-stroke"/>
  <path class="st3" d="M692.86,251.49c3.09-1.54,6.17-3.09,8.95-4.63,0,0,2.93-1.54,8.02-4.17,0,0,5.09-2.47,9.26-4.78,0,0,4.17-2.31,7.41-4.17,0,0,3.39-1.85,6.48-3.86,0,0,3.09-2.01,5.86-4.17,0,0,2.93-2.01,5.25-4.78,0,0,2.31-2.93,3.86-6.02,0,0,1.54-3.09,2.31-6.63,0,0,.77-3.55.46-7.25,0,0-.31-3.55-1.23-7.1,0,0-1.08-3.7-3.09-6.94,0,0-2.16-3.39-4.63-6.17,0,0-2.62-2.93-6.17-5.4,0,0-3.7-2.62-7.56-4.63,0,0-3.86-2.16-7.87-3.7,0,0-4.17-1.54-8.49-2.47,0,0-4.47-1.08-9.1-1.85,0,0-4.63-.77-9.41-1.23,0,0-4.94-.62-9.87-.62,0,0-4.78,0-9.72.62,0,0-4.94.46-9.72,1.7,0,0-4.94,1.39-9.26,2.93,0,0-4.47,1.54-8.49,3.55,0,0-4.17,2.01-7.71,4.32,0,0-3.7,2.31-6.94,4.94,0,0-3.39,2.62-6.17,5.09,0,0-2.93,2.62-5.71,4.94,0,0-2.78,2.31-5.71,4.32,0,0-2.78,2.16-5.86,3.86,0,0-3.09,1.85-6.17,3.39,0,0-3.09,1.54-6.17,2.78,0,0-3.09,1.39-6.48,2.31,0,0-3.24,1.08-6.94,1.54,0,0-3.55.62-7.41.62,0,0-3.86,0-7.71-.77,0,0-3.86-.77-7.71-2.16,0,0-3.86-1.23-7.41-3.24,0,0-3.7-2.16-6.94-4.63,0,0-3.39-2.62-6.17-6.02,0,0-2.93-3.24-5.25-6.94,0,0-2.31-3.55-3.86-7.71,0,0-1.54-4.01-2.47-8.49,0,0-1.08-4.32-1.08-8.95,0,0,0-4.63.77-9.57,0,0,.77-4.78,2.78-9.41,0,0,2.16-4.63,4.63-9.1,0,0,2.62-4.32,6.17-8.18,0,0,3.7-3.86,7.56-7.71,0,0,3.86-3.86,7.87-7.41,0,0,4.17-3.7,8.49-7.25,0,0,4.47-3.55,8.79-7.25,0,0,4.32-3.55,9.26-7.1,0,0,4.94-3.7,9.72-7.25,0,0,4.94-3.55,10.03-7.41,0,0,5.25-3.86,10.03-7.71,0,0,4.94-3.86,9.26-7.56,0,0,4.47-3.55,8.33-6.33,0,0,3.86-2.93,7.1-5.4,0,0,3.39-2.62,6.48-4.63,0,0,3.09-2.16,6.17-3.86,0,0,3.09-1.85,6.48-3.39,0,0,3.24-1.54,6.94-2.78,0,0,3.55-1.39,7.71-2.16,0,0,4.01-.77,8.49-.93,0,0,4.32-.31,8.95,0,0,0,4.63.15,9.57.93,0,0,4.78.77,10.03,2.31,0,0,5.09,1.54,10.49,3.86,0,0,5.4,2.31,11.11,5.4,0,0,5.55,3.09,11.26,6.79,0,0,5.71,3.55,11.57,7.41,0,0,5.86,3.86,11.88,7.71,0,0,5.86,3.86,12.34,7.71,0,0,6.33,3.86,12.81,8.02,0,0,6.48,4.01,13.11,8.18,0,0,6.63,4.17,12.81,8.49,0,0,6.17,4.32,11.57,8.02,0,0,5.4,3.55,9.57,6.63,0,0,4.17,3.09,7.41,5.71,0,0,3.39,2.47,6.48,5.09,0,0,3.09,2.62,5.86,5.71,0,0,2.93,3.09,5.4,6.17,0,0,2.62,3.09,4.63,6.94,0,0,2.16,3.86,4.17,8.18,0,0,2.01,4.32,3.55,9.57,0,0,1.54,5.09,2.62,10.49,0,0,1.08,5.4,1.23,10.8,0,0,.31,5.4-.46,11.11,0,0-.77,5.55-2.01,11.26,0,0-1.39,5.71-3.7,11.26,0,0-2.31,5.71-5.09,11.42,0,0-2.78,5.55-6.63,11.73,0,0-3.86,6.17-8.49,13.11,0,0-4.63,6.94-9.57,14.5,0,0-4.94,7.41-10.34,15.58,0,0-5.4,8.33-11.26,17.59,0,0-5.86,9.26-12.34,19.29,0,0-6.48,10.03-13.42,20.83l-13.89,21.6s-6.94,10.8-17.13,26.38l-10.34,15.74" vector-effect="non-scaling-stroke"/>
  <g id="moving-circle-group">
    <circle cx="753.03" cy="398.06" r="30.86" vector-effect="non-scaling-stroke"/>
    <circle class="st4" cx="753.03" cy="398.06" r="10.8" vector-effect="non-scaling-stroke"/>
  </g>
</svg>