<?xml version="1.0" encoding="UTF-8"?>
<svg id="minimap-svg" xmlns="http://www.w3.org/2000/svg" version="1.1" viewBox="0 0 1804.99 1080">
  <!-- Generator: Adobe Illustrator 30.0.0, SVG Export Plug-In . SVG Version: 2.1.1 Build 123)  -->
  <defs>
    <style>
      .st0 {
        stroke: #000;
        stroke-width: 20.87px;
      }

      .st0, .st1, .st2, .st3 {
        fill: none;
        stroke-miterlimit: 10.43;
      }

      .st1 {
        stroke: #ef4444;
      }

      .st1, .st2, .st3 {
        stroke-width: 5.22px;
      }

      .st4 {
        fill: #fff;
      }

      .st2 {
        stroke: #3b82f6;
      }

      .st3 {
        stroke: #fbbf24;
      }
    </style>
  </defs>
  <g>
    <path class="st0" d="M153.79,688.7c5.22,3.13,10.43,6.52,15.65,10.17,0,0,5.22,3.65,15.65,11.48,0,0,10.43,7.83,21.39,16.17,0,0,10.7,8.35,22.17,16.96,0,0,11.22,8.61,22.96,17.48,0,0,11.74,8.61,24,17.74,0,0,12,9.13,24.78,18.26,0,0,12.52,9.13,25.57,18.78,0,0,13.04,9.39,26.09,19.04,0,0,13.04,9.65,26.09,19.57,0,0,13.04,9.91,26.61,20.09,0,0,13.3,9.91,26.87,20.35,0,0,13.57,10.43,27.39,20.35,0,0,13.83,10.17,27.39,20.09,0,0,13.57,9.91,26.87,20.09,0,0,13.57,9.91,25.83,19.04,0,0,12,9.13,22.17,16.43,0,0,9.91,7.57,17.74,12.78,0,0,7.83,5.22,13.57,9.13,0,0,5.48,3.91,9.91,6.52,0,0,4.43,2.61,7.04,3.91,0,0,2.61,1.3,4.7,2.09,0,0,2.09.78,3.91,1.83,0,0,1.83.78,3.91,2.09,0,0,2.09,1.3,3.91,2.61,0,0,1.83,1.3,3.91,2.61,0,0,2.09,1.3,4.43,2.09,0,0,2.09,1.04,4.7,1.3,0,0,2.61.52,5.22.52,0,0,2.61,0,5.22-.52,0,0,2.61-.26,4.7-1.3,0,0,2.35-.78,3.91-2.61,0,0,1.83-1.57,2.61-3.91,0,0,1.04-2.09,1.3-4.7,0,0,.52-2.61,0-5.22,0,0-.26-2.61-1.3-5.74,0,0-.78-2.87-2.09-6.78,0,0-1.3-3.91-3.13-8.87,0,0-1.57-4.7-3.91-10.43,0,0-2.09-5.48-4.7-12,0,0-2.61-6.52-5.74-14.35,0,0-2.87-7.83-6.52-16.96,0,0-3.39-9.13-7.3-19.3,0,0-3.91-9.91-7.3-19.83,0,0-3.65-10.17-6.26-19.3,0,0-2.61-9.13-3.91-17.22,0,0-1.3-8.35-.78-16.17,0,0,.52-7.83,2.09-15.65,0,0,1.83-7.83,4.96-15.65,0,0,2.87-7.83,6.78-15.13,0,0,3.91-7.57,9.13-14.35,0,0,5.22-7.04,11.48-13.04,0,0,6-6.26,13.04-11.74,0,0,6.78-5.74,14.35-10.96,0,0,7.3-5.22,15.13-10.43,0,0,7.83-5.22,15.65-9.91,0,0,7.83-4.96,16.17-9.65,0,0,8.09-4.7,16.43-9.65,0,0,8.35-4.7,15.65-9.39,0,0,7.3-4.96,13.83-9.13,0,0,6.52-4.43,12.26-8.35,0,0,5.74-3.91,11.22-8.35,0,0,5.74-4.17,10.43-8.61,0,0,4.96-4.43,8.87-9.65,0,0,3.91-5.22,6.78-10.43,0,0,3.13-5.22,5.22-11.22,0,0,2.35-6,4.43-11.74,0,0,2.09-5.74,4.43-10.96,0,0,2.09-5.22,4.17-9.39,0,0,2.35-4.43,4.96-8.35,0,0,2.61-3.91,5.48-7.3,0,0,3.13-3.65,6.52-7.04,0,0,3.65-3.39,7.57-6.52,0,0,3.91-3.13,8.09-5.74,0,0,4.43-2.61,9.65-4.7,0,0,5.22-2.09,10.43-4.43,0,0,5.22-2.09,10.43-5.22,0,0,5.22-2.87,9.91-6.52,0,0,4.96-3.39,8.87-7.83,0,0,3.91-4.17,6-8.61,0,0,2.09-4.43,3.39-9.65,0,0,1.3-5.22,2.35-10.43,0,0,.78-5.22,1.57-10.7,0,0,1.04-5.74,1.83-10.96,0,0,.78-5.22,1.83-10.43,0,0,.78-5.22,2.09-9.91,0,0,1.3-4.96,3.13-9.65,0,0,1.57-4.7,4.17-9.65,0,0,2.61-4.7,6.26-9.91,0,0,3.39-5.22,7.83-9.91,0,0,4.17-4.96,9.13-9.13,0,0,4.7-4.43,10.43-8.35,0,0,5.48-3.91,11.74-7.83,0,0,6-3.91,13.04-7.04,0,0,6.78-2.87,14.35-5.22,0,0,7.3-2.09,14.61-2.61,0,0,7.57-.26,14.87.52,0,0,7.3.78,14.35,2.61,0,0,7.04,1.83,13.83,4.43,0,0,7.04,2.61,18.78,6.78l11.74,4.43" vector-effect="non-scaling-stroke"/>
    <path class="st0" d="M1100.75,414.78c3.13,1.3,6.52,2.61,9.39,3.91,0,0,2.87,1.3,8.35,3.91,0,0,5.74,2.61,10.43,4.7,0,0,4.96,2.35,9.65,3.91,0,0,4.7,1.83,9.13,2.61,0,0,4.43,1.04,8.61,1.3,0,0,4.43.52,8.35-.26,0,0,3.91-1.04,7.83-2.61,0,0,3.91-1.83,8.35-4.43,0,0,4.17-2.61,9.13-6,0,0,4.7-3.65,9.91-7.57,0,0,5.22-3.91,10.43-9.39,0,0,5.22-5.74,10.43-11.74,0,0,5.22-6.26,9.91-12.26,0,0,4.96-6,8.87-10.96,0,0,3.91-4.7,6.78-8.09,0,0,3.13-3.65,5.74-6.26,0,0,2.61-2.61,5.74-4.17,0,0,2.87-1.83,6.52-3.13,0,0,3.39-1.3,7.3-2.09,0,0,3.91-1.04,8.35-1.3,0,0,4.17-.52,8.61,0,0,0,4.43.26,9.13,1.3,0,0,4.7.78,9.13,2.61,0,0,4.43,1.57,8.61,4.17,0,0,4.43,2.61,7.83,6.52,0,0,3.65,3.91,6.26,7.83,0,0,2.61,3.91,4.7,7.04,0,0,2.09,3.13,4.43,5.22,0,0,2.09,2.09,4.7,3.91,0,0,2.61,1.83,5.74,3.13,0,0,2.87,1.3,6.78,1.57,0,0,3.91.52,8.87,0,0,0,4.7-.26,9.91-1.3,0,0,5.22-.78,10.96-2.61,0,0,5.48-1.57,12-3.39,0,0,6.52-1.83,14.09-3.39,0,0,7.3-1.83,15.65-3.65,0,0,8.09-1.57,17.22-3.91,0,0,9.13-2.09,18.78-4.7,0,0,9.65-2.61,18.26-4.7,0,0,8.61-2.35,15.65-3.91,0,0,7.04-1.83,12.26-3.13,0,0,5.22-1.3,9.39-3.13,0,0,4.43-1.57,8.87-4.17,0,0,4.17-2.61,8.61-6.26,0,0,4.43-3.39,8.61-7.83,0,0,4.43-4.17,8.35-9.39,0,0,3.91-5.22,8.35-11.48,0,0,4.17-6,9.39-13.04,0,0,5.22-6.78,11.48-14.35,0,0,6-7.3,13.04-15.91,0,0,6.78-8.87,14.35-18.26,0,0,7.3-9.65,15.65-19.57,0,0,8.09-10.17,16.96-20.61,0,0,8.61-10.43,17.74-21.13,0,0,9.13-10.96,17.74-22.17,0,0,8.87-11.48,16.96-21.39,0,0,8.35-9.91,14.87-18.26,0,0,6.52-8.35,11.74-14.35,0,0,5.22-6,8.61-10.96,0,0,3.65-4.7,7.04-8.61,0,0,3.39-3.91,6-7.83l5.22-7.83s2.61-3.91,3.91-7.83c0,0,1.3-3.91,2.35-7.3,0,0,.78-3.65,0-7.04,0,0-1.04-3.39-2.61-6,0,0-1.83-2.61-4.43-4.43,0,0-2.61-1.83-5.22-2.09,0,0-2.61-.52-6,0,0,0-3.65.26-7.57,1.3,0,0-3.91.78-9.13,2.61,0,0-5.22,1.57-10.7,3.39,0,0-5.74,1.83-13.04,4.43,0,0-7.57,2.61-15.65,5.22,0,0-8.35,2.61-18,6,0,0-9.39,3.39-19.83,7.04,0,0-10.43,3.39-22.17,7.3,0,0-11.74,3.91-24.52,7.83,0,0-12.52,3.91-25.57,7.83,0,0-13.04,3.91-26.61,8.35,0,0-13.3,4.17-27.39,8.61,0,0-13.83,4.43-28.7,9.13,0,0-14.61,4.7-29.48,9.13,0,0-14.87,4.43-30,8.61,0,0-15.13,4.43-30.52,8.87,0,0-15.13,4.17-31.3,8.61,0,0-15.91,4.43-32.61,8.61,0,0-16.43,4.43-32.87,8.35,0,0-16.7,3.91-33.13,7.83,0,0-16.43,3.91-33.13,7.83,0,0-16.43,3.91-33.91,7.3,0,0-17.22,3.65-34.7,7.04,0,0-17.48,3.39-35.22,6.52,0,0-17.74,3.13-35.22,6,0,0-17.48,3.13-35.22,5.74,0,0-17.74,2.61-35.74,5.74,0,0-17.74,2.87-35.48,5.48,0,0-18,2.61-36.52,5.74,0,0-18.78,3.13-37.57,5.22,0,0-18.52,2.09-37.83,4.7,0,0-19.04,2.61-36.78,4.96,0,0-18,2.09-34.96,4.17,0,0-16.96,2.35-31.3,3.91,0,0-14.35,1.83-25.57,3.13,0,0-11.22,1.3-19.04,2.61,0,0-7.83,1.3-14.35,2.61,0,0-6.52,1.3-11.74,2.61,0,0-5.22,1.3-9.65,2.09,0,0-4.43,1.04-7.3,1.83,0,0-3.13.78-5.74,1.3,0,0-2.61.52-5.22,1.3,0,0-2.61.78-5.22,1.83,0,0-2.61.78-4.43,2.61,0,0-1.57,1.57-2.87,3.39,0,0-1.3,1.83-1.3,3.91v3.91s0,1.83,1.3,3.91c0,0,1.3,2.09,2.87,4.43,0,0,1.83,2.09,4.43,5.22,0,0,2.61,2.87,5.74,6.52,0,0,2.87,3.39,6.78,8.09,0,0,3.91,4.96,8.87,10.43,0,0,4.7,5.74,9.91,12.26,0,0,5.22,6.52,16.96,22.17l11.74,15.65" vector-effect="non-scaling-stroke"/>
    <path class="st0" d="M730.32,383.48c3.13,4.7,6.52,9.13,9.91,13.57,0,0,3.13,4.7,8.87,13.04,0,0,5.48,8.09,9.39,15.13,0,0,3.91,7.04,6.26,12.26,0,0,2.09,5.22,2.87,9.13,0,0,1.04,3.91,1.04,7.3,0,0,0,3.39-1.3,6,0,0-1.3,2.61-3.91,4.96,0,0-2.61,2.09-6.26,3.39,0,0-3.39,1.3-7.3,2.09,0,0-3.91,1.04-8.61,1.83,0,0-4.96.78-10.17,1.3,0,0-5.22.52-10.7.52,0,0-5.74,0-10.96-1.04,0,0-5.22-.78-10.43-2.61,0,0-5.22-1.57-9.91-4.17,0,0-4.96-2.61-8.35-6.52,0,0-3.39-3.91-5.74-8.35,0,0-2.09-4.43-3.39-9.65,0,0-1.3-5.22-3.13-10.43,0,0-1.57-5.22-4.17-10.7,0,0-2.61-5.74-6.26-10.43,0,0-3.39-4.96-7.3-9.13,0,0-3.91-4.43-7.83-8.35,0,0-3.91-3.91-8.35-7.3,0,0-4.17-3.65-8.61-7.04,0,0-4.43-3.39-9.13-6,0,0-4.7-2.61-9.65-4.96,0,0-4.7-2.09-9.39-2.87,0,0-4.96-1.04-9.65-1.3,0,0-4.7-.52-9.13.26,0,0-4.43,1.04-8.35,2.61,0,0-3.91,1.83-6.52,4.43,0,0-2.61,2.61-3.39,5.74,0,0-.78,2.87-.52,6,0,0,.52,3.13,2.35,6.52,0,0,1.57,3.39,3.91,7.83,0,0,2.09,4.43,5.22,9.65,0,0,2.87,5.22,6.52,11.74,0,0,3.39,6.52,7.83,13.3,0,0,4.17,7.04,9.13,14.87l9.39,15.65s4.96,7.83,9.65,15.13c0,0,4.7,7.57,9.13,14.35,0,0,4.43,7.04,8.35,12.78,0,0,3.91,5.48,6.78,10.7,0,0,3.13,5.22,5.22,9.65,0,0,2.35,4.43,3.91,9.13,0,0,1.83,4.7,2.61,9.91,0,0,1.04,5.22,1.04,10.96,0,0,0,5.74-1.04,11.74,0,0-.78,6-2.61,11.74,0,0-1.57,5.74-3.91,12.26,0,0-2.09,6.52-5.22,12.52,0,0-2.87,6-6.78,12.26,0,0-3.91,6-9.13,11.22,0,0-5.22,5.22-11.48,9.91,0,0-6,4.96-12.52,9.13,0,0-6.52,4.43-13.57,7.83,0,0-6.78,3.65-13.83,6.52,0,0-7.04,3.13-14.35,5.22,0,0-7.3,2.35-14.35,3.65,0,0-7.04,1.3-14.35,1.3,0,0-7.3,0-14.35-1.04,0,0-7.04-.78-13.83-2.09,0,0-7.04-1.3-13.57-3.13,0,0-6.52-1.57-13.04-3.91,0,0-6.52-2.09-12.52-5.22,0,0-6.26-2.87-12.26-6.52,0,0-6-3.39-11.22-7.83,0,0-5.22-4.17-10.43-9.13,0,0-5.22-4.7-9.65-9.91,0,0-4.43-5.22-9.13-10.43,0,0-4.7-5.22-9.13-10.96,0,0-4.43-5.48-8.61-11.22,0,0-4.43-5.74-8.87-12.26,0,0-4.17-6.52-9.13-13.04,0,0-4.7-6.52-9.91-13.83,0,0-5.22-7.3-10.43-13.83,0,0-5.22-6.52-9.91-12.78,0,0-4.96-6-8.87-10.43,0,0-3.91-4.17-6.78-7.83,0,0-3.13-3.39-5.74-6,0,0-2.61-2.61-5.74-5.22,0,0-2.87-2.61-6.52-4.7,0,0-3.39-2.35-7.3-3.65,0,0-3.91-1.3-7.83-1.3,0,0-3.91,0-8.35,1.04,0,0-4.17.78-9.13,2.09,0,0-4.7,1.3-9.91,3.13,0,0-5.22,1.57-10.43,3.91,0,0-5.22,2.09-10.96,4.7,0,0-5.48,2.61-12.52,5.74,0,0-7.04,2.87-15.13,6.52,0,0-8.35,3.39-17.48,7.83,0,0-9.13,4.17-19.04,8.61,0,0-10.17,4.43-20.87,9.65,0,0-10.96,5.22-22.17,9.91,0,0-11.48,4.7-21.39,9.65,0,0-9.91,4.7-17.74,8.09,0,0-7.83,3.65-13.57,6.26,0,0-5.74,2.61-9.91,4.17,0,0-4.43,1.83-7.83,3.65,0,0-3.65,1.57-6.52,3.91,0,0-3.13,2.09-5.22,4.7,0,0-2.35,2.61-3.65,5.74,0,0-1.3,2.87-.78,6.52,0,0,.52,3.39,1.83,6.78,0,0,1.3,3.65,3.91,7.04,0,0,2.61,3.39,5.48,7.04,0,0,3.13,3.39,7.57,7.3,0,0,4.17,3.91,9.39,7.83,0,0,5.22,3.91,11.48,8.35,0,0,6,4.17,13.04,9.39,0,0,6.78,5.22,14.61,11.48,0,0,7.83,6,21.91,15.13l13.83,9.13" vector-effect="non-scaling-stroke"/>
  </g>
  <path class="st1" d="M153.79,688.7c5.22,3.13,10.43,6.52,15.65,10.17,0,0,5.22,3.65,15.65,11.48,0,0,10.43,7.83,21.39,16.17,0,0,10.7,8.35,22.17,16.96,0,0,11.22,8.61,22.96,17.48,0,0,11.74,8.61,24,17.74,0,0,12,9.13,24.78,18.26,0,0,12.52,9.13,25.57,18.78,0,0,13.04,9.39,26.09,19.04,0,0,13.04,9.65,26.09,19.57,0,0,13.04,9.91,26.61,20.09,0,0,13.3,9.91,26.87,20.35,0,0,13.57,10.43,27.39,20.35,0,0,13.83,10.17,27.39,20.09,0,0,13.57,9.91,26.87,20.09,0,0,13.57,9.91,25.83,19.04,0,0,12,9.13,22.17,16.43,0,0,9.91,7.57,17.74,12.78,0,0,7.83,5.22,13.57,9.13,0,0,5.48,3.91,9.91,6.52,0,0,4.43,2.61,7.04,3.91,0,0,2.61,1.3,4.7,2.09,0,0,2.09.78,3.91,1.83,0,0,1.83.78,3.91,2.09,0,0,2.09,1.3,3.91,2.61,0,0,1.83,1.3,3.91,2.61,0,0,2.09,1.3,4.43,2.09,0,0,2.09,1.04,4.7,1.3,0,0,2.61.52,5.22.52,0,0,2.61,0,5.22-.52,0,0,2.61-.26,4.7-1.3,0,0,2.35-.78,3.91-2.61,0,0,1.83-1.57,2.61-3.91,0,0,1.04-2.09,1.3-4.7,0,0,.52-2.61,0-5.22,0,0-.26-2.61-1.3-5.74,0,0-.78-2.87-2.09-6.78,0,0-1.3-3.91-3.13-8.87,0,0-1.57-4.7-3.91-10.43,0,0-2.09-5.48-4.7-12,0,0-2.61-6.52-5.74-14.35,0,0-2.87-7.83-6.52-16.96,0,0-3.39-9.13-7.3-19.3,0,0-3.91-9.91-7.3-19.83,0,0-3.65-10.17-6.26-19.3,0,0-2.61-9.13-3.91-17.22,0,0-1.3-8.35-.78-16.17,0,0,.52-7.83,2.09-15.65,0,0,1.83-7.83,4.96-15.65,0,0,2.87-7.83,6.78-15.13,0,0,3.91-7.57,9.13-14.35,0,0,5.22-7.04,11.48-13.04,0,0,6-6.26,13.04-11.74,0,0,6.78-5.74,14.35-10.96,0,0,7.3-5.22,15.13-10.43,0,0,7.83-5.22,15.65-9.91,0,0,7.83-4.96,16.17-9.65,0,0,8.09-4.7,16.43-9.65,0,0,8.35-4.7,15.65-9.39,0,0,7.3-4.96,13.83-9.13,0,0,6.52-4.43,12.26-8.35,0,0,5.74-3.91,11.22-8.35,0,0,5.74-4.17,10.43-8.61,0,0,4.96-4.43,8.87-9.65,0,0,3.91-5.22,6.78-10.43,0,0,3.13-5.22,5.22-11.22,0,0,2.35-6,4.43-11.74,0,0,2.09-5.74,4.43-10.96,0,0,2.09-5.22,4.17-9.39,0,0,2.35-4.43,4.96-8.35,0,0,2.61-3.91,5.48-7.3,0,0,3.13-3.65,6.52-7.04,0,0,3.65-3.39,7.57-6.52,0,0,3.91-3.13,8.09-5.74,0,0,4.43-2.61,9.65-4.7,0,0,5.22-2.09,10.43-4.43,0,0,5.22-2.09,10.43-5.22,0,0,5.22-2.87,9.91-6.52,0,0,4.96-3.39,8.87-7.83,0,0,3.91-4.17,6-8.61,0,0,2.09-4.43,3.39-9.65,0,0,1.3-5.22,2.35-10.43,0,0,.78-5.22,1.57-10.7,0,0,1.04-5.74,1.83-10.96,0,0,.78-5.22,1.83-10.43,0,0,.78-5.22,2.09-9.91,0,0,1.3-4.96,3.13-9.65,0,0,1.57-4.7,4.17-9.65,0,0,2.61-4.7,6.26-9.91,0,0,3.39-5.22,7.83-9.91,0,0,4.17-4.96,9.13-9.13,0,0,4.7-4.43,10.43-8.35,0,0,5.48-3.91,11.74-7.83,0,0,6-3.91,13.04-7.04,0,0,6.78-2.87,14.35-5.22,0,0,7.3-2.09,14.61-2.61,0,0,7.57-.26,14.87.52,0,0,7.3.78,14.35,2.61,0,0,7.04,1.83,13.83,4.43,0,0,7.04,2.61,18.78,6.78l11.74,4.43" vector-effect="non-scaling-stroke"/>
  <path class="st2" d="M1100.75,414.78c3.13,1.3,6.52,2.61,9.39,3.91,0,0,2.87,1.3,8.35,3.91,0,0,5.74,2.61,10.43,4.7,0,0,4.96,2.35,9.65,3.91,0,0,4.7,1.83,9.13,2.61,0,0,4.43,1.04,8.61,1.3,0,0,4.43.52,8.35-.26,0,0,3.91-1.04,7.83-2.61,0,0,3.91-1.83,8.35-4.43,0,0,4.17-2.61,9.13-6,0,0,4.7-3.65,9.91-7.57,0,0,5.22-3.91,10.43-9.39,0,0,5.22-5.74,10.43-11.74,0,0,5.22-6.26,9.91-12.26,0,0,4.96-6,8.87-10.96,0,0,3.91-4.7,6.78-8.09,0,0,3.13-3.65,5.74-6.26,0,0,2.61-2.61,5.74-4.17,0,0,2.87-1.83,6.52-3.13,0,0,3.39-1.3,7.3-2.09,0,0,3.91-1.04,8.35-1.3,0,0,4.17-.52,8.61,0,0,0,4.43.26,9.13,1.3,0,0,4.7.78,9.13,2.61,0,0,4.43,1.57,8.61,4.17,0,0,4.43,2.61,7.83,6.52,0,0,3.65,3.91,6.26,7.83,0,0,2.61,3.91,4.7,7.04,0,0,2.09,3.13,4.43,5.22,0,0,2.09,2.09,4.7,3.91,0,0,2.61,1.83,5.74,3.13,0,0,2.87,1.3,6.78,1.57,0,0,3.91.52,8.87,0,0,0,4.7-.26,9.91-1.3,0,0,5.22-.78,10.96-2.61,0,0,5.48-1.57,12-3.39,0,0,6.52-1.83,14.09-3.39,0,0,7.3-1.83,15.65-3.65,0,0,8.09-1.57,17.22-3.91,0,0,9.13-2.09,18.78-4.7,0,0,9.65-2.61,18.26-4.7,0,0,8.61-2.35,15.65-3.91,0,0,7.04-1.83,12.26-3.13,0,0,5.22-1.3,9.39-3.13,0,0,4.43-1.57,8.87-4.17,0,0,4.17-2.61,8.61-6.26,0,0,4.43-3.39,8.61-7.83,0,0,4.43-4.17,8.35-9.39,0,0,3.91-5.22,8.35-11.48,0,0,4.17-6,9.39-13.04,0,0,5.22-6.78,11.48-14.35,0,0,6-7.3,13.04-15.91,0,0,6.78-8.87,14.35-18.26,0,0,7.3-9.65,15.65-19.57,0,0,8.09-10.17,16.96-20.61,0,0,8.61-10.43,17.74-21.13,0,0,9.13-10.96,17.74-22.17,0,0,8.87-11.48,16.96-21.39,0,0,8.35-9.91,14.87-18.26,0,0,6.52-8.35,11.74-14.35,0,0,5.22-6,8.61-10.96,0,0,3.65-4.7,7.04-8.61,0,0,3.39-3.91,6-7.83l5.22-7.83s2.61-3.91,3.91-7.83c0,0,1.3-3.91,2.35-7.3,0,0,.78-3.65,0-7.04,0,0-1.04-3.39-2.61-6,0,0-1.83-2.61-4.43-4.43,0,0-2.61-1.83-5.22-2.09,0,0-2.61-.52-6,0,0,0-3.65.26-7.57,1.3,0,0-3.91.78-9.13,2.61,0,0-5.22,1.57-10.7,3.39,0,0-5.74,1.83-13.04,4.43,0,0-7.57,2.61-15.65,5.22,0,0-8.35,2.61-18,6,0,0-9.39,3.39-19.83,7.04,0,0-10.43,3.39-22.17,7.3,0,0-11.74,3.91-24.52,7.83,0,0-12.52,3.91-25.57,7.83,0,0-13.04,3.91-26.61,8.35,0,0-13.3,4.17-27.39,8.61,0,0-13.83,4.43-28.7,9.13,0,0-14.61,4.7-29.48,9.13,0,0-14.87,4.43-30,8.61,0,0-15.13,4.43-30.52,8.87,0,0-15.13,4.17-31.3,8.61,0,0-15.91,4.43-32.61,8.61,0,0-16.43,4.43-32.87,8.35,0,0-16.7,3.91-33.13,7.83,0,0-16.43,3.91-33.13,7.83,0,0-16.43,3.91-33.91,7.3,0,0-17.22,3.65-34.7,7.04,0,0-17.48,3.39-35.22,6.52,0,0-17.74,3.13-35.22,6,0,0-17.48,3.13-35.22,5.74,0,0-17.74,2.61-35.74,5.74,0,0-17.74,2.87-35.48,5.48,0,0-18,2.61-36.52,5.74,0,0-18.78,3.13-37.57,5.22,0,0-18.52,2.09-37.83,4.7,0,0-19.04,2.61-36.78,4.96,0,0-18,2.09-34.96,4.17,0,0-16.96,2.35-31.3,3.91,0,0-14.35,1.83-25.57,3.13,0,0-11.22,1.3-19.04,2.61,0,0-7.83,1.3-14.35,2.61,0,0-6.52,1.3-11.74,2.61,0,0-5.22,1.3-9.65,2.09,0,0-4.43,1.04-7.3,1.83,0,0-3.13.78-5.74,1.3,0,0-2.61.52-5.22,1.3,0,0-2.61.78-5.22,1.83,0,0-2.61.78-4.43,2.61,0,0-1.57,1.57-2.87,3.39,0,0-1.3,1.83-1.3,3.91v3.91s0,1.83,1.3,3.91c0,0,1.3,2.09,2.87,4.43,0,0,1.83,2.09,4.43,5.22,0,0,2.61,2.87,5.74,6.52,0,0,2.87,3.39,6.78,8.09,0,0,3.91,4.96,8.87,10.43,0,0,4.7,5.74,9.91,12.26,0,0,5.22,6.52,16.96,22.17l11.74,15.65" vector-effect="non-scaling-stroke"/>
  <path class="st3" d="M730.32,383.48c3.13,4.7,6.52,9.13,9.91,13.57,0,0,3.13,4.7,8.87,13.04,0,0,5.48,8.09,9.39,15.13,0,0,3.91,7.04,6.26,12.26,0,0,2.09,5.22,2.87,9.13,0,0,1.04,3.91,1.04,7.3,0,0,0,3.39-1.3,6,0,0-1.3,2.61-3.91,4.96,0,0-2.61,2.09-6.26,3.39,0,0-3.39,1.3-7.3,2.09,0,0-3.91,1.04-8.61,1.83,0,0-4.96.78-10.17,1.3,0,0-5.22.52-10.7.52,0,0-5.74,0-10.96-1.04,0,0-5.22-.78-10.43-2.61,0,0-5.22-1.57-9.91-4.17,0,0-4.96-2.61-8.35-6.52,0,0-3.39-3.91-5.74-8.35,0,0-2.09-4.43-3.39-9.65,0,0-1.3-5.22-3.13-10.43,0,0-1.57-5.22-4.17-10.7,0,0-2.61-5.74-6.26-10.43,0,0-3.39-4.96-7.3-9.13,0,0-3.91-4.43-7.83-8.35,0,0-3.91-3.91-8.35-7.3,0,0-4.17-3.65-8.61-7.04,0,0-4.43-3.39-9.13-6,0,0-4.7-2.61-9.65-4.96,0,0-4.7-2.09-9.39-2.87,0,0-4.96-1.04-9.65-1.3,0,0-4.7-.52-9.13.26,0,0-4.43,1.04-8.35,2.61,0,0-3.91,1.83-6.52,4.43,0,0-2.61,2.61-3.39,5.74,0,0-.78,2.87-.52,6,0,0,.52,3.13,2.35,6.52,0,0,1.57,3.39,3.91,7.83,0,0,2.09,4.43,5.22,9.65,0,0,2.87,5.22,6.52,11.74,0,0,3.39,6.52,7.83,13.3,0,0,4.17,7.04,9.13,14.87l9.39,15.65s4.96,7.83,9.65,15.13c0,0,4.7,7.57,9.13,14.35,0,0,4.43,7.04,8.35,12.78,0,0,3.91,5.48,6.78,10.7,0,0,3.13,5.22,5.22,9.65,0,0,2.35,4.43,3.91,9.13,0,0,1.83,4.7,2.61,9.91,0,0,1.04,5.22,1.04,10.96,0,0,0,5.74-1.04,11.74,0,0-.78,6-2.61,11.74,0,0-1.57,5.74-3.91,12.26,0,0-2.09,6.52-5.22,12.52,0,0-2.87,6-6.78,12.26,0,0-3.91,6-9.13,11.22,0,0-5.22,5.22-11.48,9.91,0,0-6,4.96-12.52,9.13,0,0-6.52,4.43-13.57,7.83,0,0-6.78,3.65-13.83,6.52,0,0-7.04,3.13-14.35,5.22,0,0-7.3,2.35-14.35,3.65,0,0-7.04,1.3-14.35,1.3,0,0-7.3,0-14.35-1.04,0,0-7.04-.78-13.83-2.09,0,0-7.04-1.3-13.57-3.13,0,0-6.52-1.57-13.04-3.91,0,0-6.52-2.09-12.52-5.22,0,0-6.26-2.87-12.26-6.52,0,0-6-3.39-11.22-7.83,0,0-5.22-4.17-10.43-9.13,0,0-5.22-4.7-9.65-9.91,0,0-4.43-5.22-9.13-10.43,0,0-4.7-5.22-9.13-10.96,0,0-4.43-5.48-8.61-11.22,0,0-4.43-5.74-8.87-12.26,0,0-4.17-6.52-9.13-13.04,0,0-4.7-6.52-9.91-13.83,0,0-5.22-7.3-10.43-13.83,0,0-5.22-6.52-9.91-12.78,0,0-4.96-6-8.87-10.43,0,0-3.91-4.17-6.78-7.83,0,0-3.13-3.39-5.74-6,0,0-2.61-2.61-5.74-5.22,0,0-2.87-2.61-6.52-4.7,0,0-3.39-2.35-7.3-3.65,0,0-3.91-1.3-7.83-1.3,0,0-3.91,0-8.35,1.04,0,0-4.17.78-9.13,2.09,0,0-4.7,1.3-9.91,3.13,0,0-5.22,1.57-10.43,3.91,0,0-5.22,2.09-10.96,4.7,0,0-5.48,2.61-12.52,5.74,0,0-7.04,2.87-15.13,6.52,0,0-8.35,3.39-17.48,7.83,0,0-9.13,4.17-19.04,8.61,0,0-10.17,4.43-20.87,9.65,0,0-10.96,5.22-22.17,9.91,0,0-11.48,4.7-21.39,9.65,0,0-9.91,4.7-17.74,8.09,0,0-7.83,3.65-13.57,6.26,0,0-5.74,2.61-9.91,4.17,0,0-4.43,1.83-7.83,3.65,0,0-3.65,1.57-6.52,3.91,0,0-3.13,2.09-5.22,4.7,0,0-2.35,2.61-3.65,5.74,0,0-1.3,2.87-.78,6.52,0,0,.52,3.39,1.83,6.78,0,0,1.3,3.65,3.91,7.04,0,0,2.61,3.39,5.48,7.04,0,0,3.13,3.39,7.57,7.3,0,0,4.17,3.91,9.39,7.83,0,0,5.22,3.91,11.48,8.35,0,0,6,4.17,13.04,9.39,0,0,6.78,5.22,14.61,11.48,0,0,7.83,6,21.91,15.13l13.83,9.13" vector-effect="non-scaling-stroke"/>
  <g id="moving-circle-group">
    <circle cx="153.79" cy="688.7" r="52.17" vector-effect="non-scaling-stroke"/>
    <circle class="st4" cx="153.79" cy="688.7" r="18.26" vector-effect="non-scaling-stroke"/>
  </g>
</svg>