<?xml version="1.0" encoding="UTF-8"?>
<svg id="Layer_1" xmlns="http://www.w3.org/2000/svg" version="1.1" viewBox="0 0 2400 2400">
  <!-- Generator: Adobe Illustrator 30.0.0, SVG Export Plug-In . SVG Version: 2.1.1 Build 123)  -->
  <defs>
    <style>
      .st0, .st1 {
        fill: #fff;
      }

      .st0, .st2 {
        fill-rule: evenodd;
      }

      .st3, .st2 {
        fill: #00594f;
      }

      .st2 {
        stroke: #fff;
        stroke-linejoin: round;
        stroke-width: 17.3px;
      }
    </style>
  </defs>
  <circle class="st3" cx="1200" cy="1200" r="1156.87"/>
  <g>
    <path class="st1" d="M1315.72,1521.59c-2.81,0-5.56-.99-7.76-2.84l-107.96-91.43-107.95,91.43c-2.97,2.52-6.98,3.44-10.76,2.46l-367.9-95.03c-14.5-3.63-26.83-14.33-31.7-27.43l-23.75-42.25-383.84-105.58c-.2-.06-.4-.12-.6-.18-8.91-2.96-15.95-5.31-20.86-7.35-3.61-1.5-11.36-4.74-13.5-11.96l-19.71-39.45h-5.65c-12.81,3.49-24.07-.94-29.92-11.84l-29.3-43.99c-.76-1.15-1.32-2.41-1.66-3.75l-.69-2.78h-8.43c-12.81,0-18.76-4.88-23.33-9.45-.64-.64-1.21-1.36-1.69-2.13l-29.66-47.52c-.38-.61-.7-1.24-.97-1.91-6.43-16.11-1.49-25.59,2.02-29.8,3.23-3.88,10.73-9.89,25.07-7.43h894.92c28.49,0,52.96,9.43,70.79,27.27.7.7,1.3,1.47,1.81,2.32,7.4,12.36,14.02,26.28,14.33,44.66h205.89c.31-18.35,6.93-32.28,14.33-44.65.28-.46.59-.91.92-1.33,10.3-12.89,31.09-28.26,71.67-28.26h894.93c14.34-2.46,21.85,3.56,25.08,7.44,3.51,4.22,8.44,13.7,2,29.81-.26.66-.59,1.3-.96,1.9l-29.68,47.52c-.48.77-1.05,1.48-1.69,2.13-4.57,4.57-10.52,9.45-23.33,9.45h0s-8.41,0-8.41,0l-.69,2.77c-.33,1.34-.89,2.61-1.66,3.76l-29.32,44c-5.84,10.89-17.1,15.31-29.9,11.83h-5.67l-19.71,39.45c-2.14,7.21-9.9,10.45-13.5,11.95-4.86,2.03-11.57,4.26-20.84,7.36-.2.07-.41.13-.61.19l-383.86,105.58-23.74,42.24c-4.85,13.09-17.19,23.8-31.78,27.46l-367.82,95.01c-.99.26-2,.38-3,.38ZM1303.72,1408.61h24v85.48l54.32-14.03-15.84-87.08,23.61-4.29,15.52,85.36,54-13.95-35.95-82.29,21.99-9.61,37.5,85.82,48.35-12.49-59.1-82.32,19.5-14,64.53,89.88,46.14-11.92-84.77-92.55,17.7-16.21,93.39,101.96,52.01-13.43c1.05-.26,2.06-.59,3.01-.97l-122.99-93.67,14.54-19.09,124.06,94.49,17.51-31.14-116.65-73.32,12.77-20.32,119.79,75.29,54.73-15.05-161.86-68.74,9.38-22.09,189.74,80.58,77.3-21.26-256.56-57.35,5.24-23.42,300.64,67.21,115.41-31.75-440.57-41.51,2.25-23.89,501.75,47.27c3.96-1.37,7.32-2.6,9.3-3.5l15.13-30.3-527.89-25.16,1.14-23.97,560.64,26.72c1.14.04,2.27.25,3.36.61,1.74.58,2.67.56,2.99.53.06-.09.16-.23.28-.46.22-.44.47-.87.75-1.29l25.16-37.76H179.03s25.16,37.76,25.16,37.76c.27.41.52.84.75,1.29.12.23.21.38.28.47.32.03,1.25.05,2.99-.54,1.08-.36,2.2-.56,3.33-.61l557.69-26.72,1.15,23.97-524.92,25.15,15.15,30.32c1.97.9,5.32,2.12,9.27,3.49l498.79-47.27,2.26,23.89-437.69,41.48,116.8,32.13,296.32-67.55,5.33,23.4-252.72,57.61,76.47,21.03,186.79-77.66,9.21,22.16-158.38,65.85,54.29,14.93,119.81-75.29,12.77,20.32-116.68,73.32,17.51,31.15,124.07-94.49,14.54,19.09-123,93.67c.94.37,1.91.69,2.94.95l52.09,13.45,90.42-98.99,17.72,16.19-81.84,89.59,46.01,11.88,61.57-89.64,19.78,13.59-56.63,82.44,48.67,12.57,37.5-85.81,21.99,9.61-35.96,82.28,54.02,13.95,15.51-85.36,23.61,4.29-15.83,87.08,54.32,14.03v-85.47h24v75.08l91.71-77.67v-166.67h24v166.65l91.73,77.69v-75.09ZM2137.43,1227.43h0s0,0,0,0ZM262.58,1227.43h0ZM1326.95,1105.61h911.34s.09,0,.14,0h17.79c3.28,0,4.05-.22,5.42-1.5l28.31-45.32c.63-1.74.91-3.07,1.02-3.99-.65.02-1.54.1-2.71.33-.78.16-1.57.23-2.36.23h-896.03c-24.17,0-42.27,6.44-52.43,18.65-6.18,10.45-10.19,19.93-10.49,31.6ZM143.78,1105.61h929.26c-.29-11.48-4.16-20.82-10.14-31.02-13.31-12.76-31.05-19.22-52.78-19.22H114.1c-.79,0-1.58-.08-2.36-.23-1.17-.23-2.06-.32-2.71-.33.11.92.39,2.25,1.02,3.99l28.29,45.32c1.37,1.28,2.15,1.5,5.42,1.5h.01ZM1259.25,1418.57l-14.84-175.22,23.91-2.03,14.84,175.22-23.91,2.03ZM1140.75,1418.57l-23.91-2.02,14.83-175.22,23.91,2.02-14.83,175.22ZM1324.72,1408.02l-32.64-163.33,23.54-4.7,32.64,163.33-23.54,4.7ZM1075.28,1408.02l-23.53-4.7,32.64-163.33,23.53,4.7-32.64,163.33ZM1006.59,1391.85l-22.63-8,50.43-142.55,22.63,8-50.43,142.55ZM1393.4,1391.85l-50.43-142.55,22.62-8,50.43,142.55-22.63,8ZM1450.16,1366.05l-53.4-118.79,21.89-9.84,53.41,118.8-21.89,9.84ZM949.96,1365.82l-22.09-9.38,50.44-118.79,22.09,9.38-50.44,118.79ZM1497.9,1345.83l-50.46-98,21.34-10.99,50.46,98-21.34,10.99ZM902.11,1345.83l-21.34-10.98,50.43-98,21.34,10.98-50.43,98ZM859.88,1317.29l-19.97-13.3,47.47-71.27,19.98,13.3-47.47,71.27ZM1540.04,1317.19l-44.5-68.3,20.11-13.1,44.5,68.3-20.11,13.1ZM1576.19,1288.25l-29.68-38.6,19.03-14.63,29.68,38.6-19.03,14.63ZM823.82,1288.25l-19.03-14.62,29.66-38.6,19.03,14.62-29.66,38.6Z"/>
    <path class="st2" d="M1627.23,1239.36v-121.76h-857.43v121.76h857.43Z"/>
    <path class="st1" d="M1199.99,1429.56c-127.46,0-245.54-36.68-350.95-109.03-51.32-34.75-96.34-75.36-133.75-120.66-37.77-45.74-69.07-97.82-93.04-154.82l22.12-9.3c23.06,54.83,53.15,104.91,89.42,148.84,35.95,43.54,79.27,82.61,128.76,116.11,101.4,69.59,214.91,104.86,337.43,104.86,60.29,0,119.12-8.69,174.86-25.83,54.81-16.85,108.56-42.47,159.77-76.14,42.72-27.67,82.19-63.62,128.03-116.62,36.14-41.73,65.59-90.22,90.02-148.26l22.12,9.31c-25.43,60.41-56.17,111-93.99,154.66-47.39,54.78-88.42,92.1-133.06,121.01-53.04,34.87-108.86,61.46-165.83,78.98-58.03,17.84-119.23,26.89-181.91,26.89Z"/>
    <path class="st0" d="M828.29,1140.57l34.25,78.99h-11.92l-11.91-29.8h-28.29l-11.91,29.8h-7.43l34.24-78.99h2.97ZM837.23,1183.77l-13.4-28.3-11.91,28.3h25.3ZM907.2,1213.58c-4.46,4.46-11.91,7.45-19.36,7.45l-10.42-1.49-7.45-5.97,1.5-8.93h1.49c4.46,7.46,10.42,11.92,17.86,11.92,4.46,0,7.45-1.49,10.42-5.96,2.97-2.99,4.46-7.45,4.46-11.92s-1.49-7.45-4.46-10.43l-11.91-5.96c-5.96-1.49-10.42-4.47-11.91-5.96-4.46-4.46-5.95-8.93-5.95-13.41,0-7.45,2.96-11.91,7.43-16.39,4.46-4.46,8.93-5.96,16.38-5.96s11.91,1.49,16.38,5.96l-2.97,8.95c-2.97-7.45-7.45-10.43-14.88-10.43-4.47,0-7.45,1.49-8.93,4.47-2.97,1.5-4.46,4.47-4.46,8.93s1.49,8.95,4.46,11.92l13.4,4.46c4.46,2.97,8.93,5.96,11.91,7.45,2.97,2.99,4.46,7.45,4.46,13.41,0,7.49-2.97,13.43-7.45,17.91h0ZM980.15,1145.03l1.49,4.47-23.82-1.49v71.53h-10.42v-71.53l-25.3,1.49,1.49-4.47-1.49-2.97h59.54l-1.49,2.97h0ZM1003.97,1207.62c5.96,5.96,13.4,8.93,20.84,8.93,10.42,0,19.36-4.46,25.3-13.41,4.46-7.45,7.45-14.91,5.96-22.36,0-10.43-1.49-19.38-5.96-25.33-5.96-7.45-13.4-11.92-23.82-11.92s-17.87,4.47-23.83,11.92c-4.46,7.45-7.43,16.39-7.43,26.82s2.99,19.38,8.93,25.34h0ZM983.13,1180.8c0-11.92,4.46-22.36,11.91-29.8,7.43-7.46,17.86-10.43,29.78-10.43s22.33,2.97,29.78,8.93c8.92,7.45,13.4,16.39,13.4,29.8s-4.46,22.36-11.91,29.8c-7.45,7.45-17.86,11.92-31.26,11.92-11.91,0-22.34-2.99-29.78-10.42-7.43-7.45-11.91-17.89-11.91-29.8h0ZM1149.86,1219.54h-4.46l-53.59-61.1h-1.49v61.1h-5.96v-77.49h4.46l53.59,58.12v-58.12h7.43v77.49h.01ZM1209.41,1142.05c13.38,25.34,23.83,44.7,32.76,59.61l32.76-59.61h1.47l8.93,77.49h-10.41l-5.96-58.12c-13.41,25.33-23.83,44.71-28.3,56.62h-1.47l-7.46-11.91-22.32-44.71-4.46,58.12h-8.93l11.92-77.49h1.46ZM1359.77,1219.54h-5.94l-11.91-29.8h-29.78l-10.43,29.8h-8.93l35.74-78.99h2.97l32.76,78.99h-4.49,0ZM1338.94,1183.77l-11.91-28.3-11.91,28.3h23.82ZM1386.58,1146.51v31.29l14.89-1.49c4.47-1.49,7.43-2.97,10.41-4.46l4.47-10.43c0-8.93-4.47-13.41-13.38-14.91h-16.39ZM1401.46,1142.05c16.37,0,23.83,5.96,23.83,17.88,0,5.96-2.97,10.43-7.46,14.91-4.46,2.97-8.93,4.46-14.87,5.96l29.75,38.75h-11.91l-29.75-37.26h-4.47v37.26h-8.93v-77.49h23.82s0-.01,0-.01ZM1458.04,1219.54v-71.53l-23.83,1.49v-7.45h56.56v7.45l-22.32-1.49v71.53h-10.41ZM1514.61,1142.05v77.49h-10.42v-77.49h10.42ZM1602.44,1219.54h-4.47l-53.58-61.1h-1.5v61.1h-5.96v-77.49h2.97l55.08,58.12v-58.12h7.46v77.49Z"/>
  </g>
</svg>