<?xml version="1.0" encoding="UTF-8"?>
<svg id="Layer_1" xmlns="http://www.w3.org/2000/svg" version="1.1" viewBox="0 0 2500 2500">
  <!-- Generator: Adobe Illustrator 30.0.0, SVG Export Plug-In . SVG Version: 2.1.1 Build 123)  -->
  <defs>
    <style>
      .st0 {
        fill: #cc2131;
      }

      .st0, .st1, .st2, .st3, .st4 {
        fill-rule: evenodd;
      }

      .st1 {
        fill: #fff;
      }

      .st2 {
        fill: #fff22d;
      }

      .st4 {
        fill: #33a457;
      }
    </style>
  </defs>
  <path class="st1" d="M2092.67,303.34v43.44l-842.7-147.69-842.63,147.69v-43.44l842.63-148.66,842.7,148.66Z"/>
  <path class="st4" d="M2092.67,258.92v44.42l-842.7-148.66-842.63,148.66v-44.42l842.63-148.62,842.7,148.62Z"/>
  <path class="st0" d="M2092.67,346.77l-842.7-147.69-842.63,147.69v149.85s7.31-4.14,7.31-4.14c2.97-1.66,301.98-167.44,836.94-167.44s830.52,165.82,833.51,167.47l7.22,4.15.34-149.89Z"/>
  <path class="st2" d="M1251.61,354.01c483.1,0,765.98,135.95,811.83,159.79v431.4c0,235.19-55.39,469.49-164.57,696.52-238.98,495.86-598.58,690.56-648.88,715.97-50.34-25.41-410.21-220.11-649.12-715.97-109.18-227.02-164.56-461.32-164.56-696.52v-431.35c46.26-23.81,332.12-159.84,815.31-159.84h0Z"/>
  <path class="st3" d="M414.67,492.47l-7.3,4.14v448.59c0,239.6,56.33,478.16,167.43,709.01,260.81,541.49,665.15,730.91,669.2,732.77l5.99,2.74,5.98-2.74c4.09-1.85,408.09-191.33,668.89-732.77,111.15-230.85,167.49-469.4,167.49-709.01v-448.55l-7.22-4.15c-2.98-1.65-298.51-167.47-833.51-167.47s-833.97,165.78-836.94,167.44h0ZM1251.61,354.01c483.1,0,765.98,135.95,811.83,159.79v431.4c0,235.19-55.39,469.49-164.57,696.52-238.98,495.86-598.58,690.56-648.88,715.97-50.34-25.41-410.21-220.11-649.12-715.97-109.18-227.02-164.56-461.32-164.56-696.52v-431.35c46.26-23.81,332.12-159.84,815.31-159.84h0Z"/>
  <path class="st3" d="M1378.14,1939.64c14.03,9.7,3.85,26.55-6.54,29.18-10.82,2.94-20.06-9.07-25.3,4.1-2.94,7.07,5.05,60.62,59.83,60.62,51.14,0,75.54-65.65,80.35-75.54,4.84-9.86,7.95-22.44,3.11-22.44-22.44,0-28.97,13.32-28.97,13.32,0,0-1.7-12.81,9.45-22.49,9.2-7.9,21.26-5.98,25.62-5.98,9.14,0,7.7-6.81,13.23-20.28,12.59-31.71,21.26-33.14,29.44-47.6,6.78-11.78-6.03-16.39-31.31-18.77-25.36-2.41-38.94-1.39-50.26.26-11.35,1.62-22.65,6.23-29.69,23.58-3.77,9.4,3.14,18.66,16.42,16.26,13.27-2.48,26.04-12.52,26.04-12.52,0,0-5.98,23.76-25.78,28.68-18.37,4.51-40.05-6.56-37.13-25.15,3.8-24.11,20.47-41.78,50.87-47.73,30.45-6.13,60.8-1.44,87.87,5.21,26.98,6.81,46.83,2.68,71.92,1.22,54.08-2.89,87.6-15.65,87.6-15.65,0,0-24.37,19.78-58.16,28.92-33.79,9.22-63.92,5.4-73.67,9.22-7.87,3.37-19,19-28.17,36.86-8.43,16.42-17.41,35.34-13.53,35.34,31.41,1.19,42.92-5.68,42.92-5.68,0,0-6.21,13.55-21.18,19.96-10.39,4.2-28.01,4.2-28.01,4.2,0,0-7.92,20.06-16.85,38.17-8.99,18.09-23.71,46.35-50.21,60.34-26.6,13.96-77.47,31.36-109.5-14.72-33.89-48.34-2.96-103.33,29.6-80.91h0ZM984.83,1945.94c6.25,16-7.03,24.34-14.75,24.34s-17.38-5.75-19.39,3.93c-1.84,9.6,20.56,59.1,72.67,59.1s76.3-30.17,72.63-57.2c-4.09-30.17-52.01-42.15-90.2-62.24-18.69-9.81-60.93-16.37-60.93-55.91,0-84.43,128.49-30.5,128.49-30.5,0,0,.27-10.56,6.25-11.05,2.89-.27,8.7-1.41,10.64,8.13,1.91,9.62,10.4,60.34,10.4,60.34,0,0-18.88-38.61-70.71-55.47-9.17-3.22-49.26-10.84-49.03,20.89.48,18.85,23.45,27.3,63.27,42.76,52.33,20.52,79.14,39.62,66.78,94.64-11.76,52.83-63.41,61.52-88.52,61.52s-82.72-17.57-82.72-75.54c0-40.98,40.21-40.02,45.12-27.74h0ZM1259.39,1628.47l21.1,10c12.17,4.71,19.93,2.63,22.72,1.47,2.94-1.27,14.09-13.23,16.51-23.41,1.14-4.15.53-7.76-1.67-10.41-8.21-9.73-22.75-54.41-28.14-78.56-2-8.96.43-33.7,2.31-53.6,1.65-17.09,2.66-27.72,1.8-30.45-1.44-4.23-7.76-8.31-15.02-12.92l-11.5-7.83c-6.13-5.02-6.41-11.85-6.74-19.2l-1.22-11.4c-2.67-10.61-56.66-65.76-65.03-66.26-12.13-.79-15.28,12.52-16.06,20.52-.48,4.68,4.93,25.59,9.81,44.12l5.38,22.35c5.53,35.14,42.88,97.01,58.8,123.42l7.56,12.84c3.27,7.44,2,13.32-3.81,16.61-5.64,3.24-54.19-1.83-77.38-7.17-9.96-2.28-22.26-7.25-34.25-12.11-13.73-5.47-26.76-10.79-34.28-11.17-8.78-.45-12.94,1.32-16.17,2.81l-5.27,1.47-5.24-1.67c-6.43-2.84-18.46-8.03-51.28-11-47.85-4.49-51.44,5.14-53.38,10.34-2.37,6.61,26.87,37.72,32.1,41.88,6.65,5.37,28.17,13.55,41.31,11.37,15.02-2.41,39.51-5.45,42.54-4.84l4.93,3.01,4.58,3.24c4.15,1.7,30.89,3.16,38.97,3.59,9.33.51,33.81,5.58,51.71,9.33l20,4.03c7.83,1.44,28.01,11.4,44.32,19.61h0Z"/>
  <path class="st3" d="M1754.34,1007.96c-1.06-1.31-1.95-1.39-2.5-1.25-.51.17-1.19.65-1.39,2.2-.88,6.67-9.25,23.8-15.89,26.33-13.45,5.2-20.41,20.97-25.46,32.46-2.58,5.93-5.1,11.58-7.09,11.66-.86.06-1.8-.86-2.84-2.78-8.29-14.29-3.64-36.15.08-53.76l.86-4.32c3.03-14.85,20.41-35.65,30.8-48.13l4.59-5.53c7.07-8.82,8.85-38.7,7.52-40.95-.43-.13-.71.12-.88.38-.16.13-.3.29-.4.47l-.16-.03v.16c-.43.47-.79.52-1.14,2.02-1.85,9.34-18.92,28.31-48.08,53.53-5.98,5.17-12.79,14.53-18.37,22.04-3.59,4.93-7.81,10.61-8.92,10.88-7.22-38.55,5.85-60.58,12.06-71.23l2.89-5.41c12.33-33.57,44.1-58.99,44.43-59.22.43-.97.43-2.01-.35-2.67-1.22-.93-3.45-.53-6.96,1.23l-1.92.96c-11.08,5.38-44.49,21.66-64.98,60.85-14.72,28.22-20.41,59.76-20.41,83.55,0,12.14,1.47,22.2,3.96,28.87,7.2,19.2,19.8,66.9,23.68,85.63,2.41,11.61,2.79,51.46,2.79,76.44,0,12.2-.05,20.75-.05,21.08-.08,0-6.36,20.26-6.36,20.26-.03.21-3.06,16.03-28.92,42.48-26.04,26.6-55.04,35.06-55.3,35.16-11.65.91-22.27.43-22.65-1.09,0-30.4-52.06-101.13-78.7-124.46-27.18-23.83-48.91-40.89-85.82-63.36-37.59-22.88-79.39-118.79-79.87-119.72l-3.62-12.96s-2.02-25.87-2.58-32.61c1.36.78,3.14,1.88,3.14,1.88l12.81,7.46,14.72,5.65c.13.04,19.27,3.79,19.27,3.79,0,.04,10.71,5.53,10.71,5.53l9.93,6.46,15.45,11.15,15.86,8.34c.32.09,19.05,1.05,19.05,1.05l.43-1.54s-21.69-10.18-21.74-10.18c0-.31-7.81-13.67-7.81-13.67-3.04-4.36-6.07-8.72-9.09-13.09-.3-.21-11.27-6.76-11.27-6.76-4.64-.71-9.3-1.36-13.96-1.97,0-.12-2.74-2.46-4.15-3.74,1.22-.71,3.51-2.14,3.51-2.14,0,.17,14.94,1.89,14.99,1.89,0,.16,13.29,9.2,13.29,9.2l14.51,11.18c.23.12,13.73,5.36,13.73,5.36l1.78.7-5.93-15.42c-3.71-3.55-7.44-7.07-11.19-10.57l-16.45-13.98c-.13-.12-12.92-6.71-12.92-6.71-.13-.03-13.77-4.63-13.77-4.63,0-.03-14.44-9.23-14.44-9.23,0,0,.16-.99.26-1.83,1.83.7,19.99,7.99,19.99,7.99.1.01,17.41,4.72,17.41,4.72-.03-.06,14.51,5.55,14.51,5.55-.05-.05,20.87,10.16,20.87,10.16.18.09,17.51,3.85,17.51,3.85.3.01,21.37-3.76,21.37-3.76.27-.13,20.36-14.11,20.36-14.11.23-.38,3.93-8.69,3.93-8.69l.79-1.92-6.46,2.67c-.05,0-18.24,9.23-18.26,9.23l-12.59,2.81c0-.06-14.21-2.85-14.24-2.85h.03c0-.17-11.53-10.89-11.53-10.89l-16.37-15.85-14.8-7.57c-.21-.09-17.51-2.89-17.51-2.89,0-.04-10.53-5.4-10.71-5.49.05,0,.08-.19.08-.47,0-1.27-.32-4.05-.45-5.34l21.76,1.83,23.84-1.92c0,.06,13.42,2.8,13.42,2.8l13.58,5.6,13.9,1.88,2.5.34-15.5-14.82c-.16-.08-15.63-11.26-15.63-11.26-.18-.09-12.97-4.77-12.97-4.77-.23-.05-21.56-1.85-21.98-1.89.18-.01.21-.38.21-.91,0-1.3-.21-3.14-.32-4.09l10.08-1.71c0,.06,16.13,3.7,16.13,3.7,0,.05,15.28,9.22,15.28,9.22l16.51,5.64c.48.01,24.11-3.7,24.11-3.7l1.41-.19-7.2-9.51c-.4-.31-12.28-4.01-12.31-4.01,0-.06-9.81-7.31-9.81-7.31l-14.62-10.27c-.21-.12-11.12-3.83-11.12-3.83-.18-.06-17.38-2.81-17.43-2.83,0-.18-8.46-7.96-8.64-8.09.26-.05.79-2.76.99-3.99l9.09,2.54,11.7,5.58,16.61,5.27-3.67-7.33-6.46-6.74-5.65-7.29,2.45-.61c0,.22,17.68,9.23,17.68,9.23l13.77,4.7c0,.08,10.64,10.05,10.64,10.05.16.13,20.28,11.49,20.28,11.49l2.02,1.14-3.67-9.83c-.1-.22-11.02-14.19-11.02-14.19l-9.09-15.72c-.08-.18-16.54-16.93-16.54-16.93-.16-.16-21.1-11.35-21.15-11.35,0-.09-7.98-9.13-7.98-9.13-4.88-4.97-9.75-9.94-14.62-14.93,0-.19-1.49-5.3-2.26-7.9,2.48.79,14.19,4.68,14.19,4.68l16.39,4.63s11.7,7.33,11.7,7.33c0,.08,9.75,11.92,9.75,11.92.35.27,15.89,6.81,15.89,6.81l39.6,5.14,2.31.29-10.87-11.44c-.27-.21-21.26-9.53-21.26-9.53l-12.59-9.18c0-.17-7.04-12.8-7.04-12.8l-7.34-13.02c-.13-.19-11.98-11.36-11.98-11.36-.18-.13-14.77-8.51-14.77-8.51l-14.44-12.01c0-.12-3.48-7.31-5.69-12.11l10.03,9.66,19.16,16.77c.23.14,14.85,6.67,14.85,6.67l12.52,10.12,14.54,14.84c.51.23,23.23,3.44,23.23,3.44l2.84.42-23.07-19.99c0-.36-5.21-16.38-5.21-16.38-3.99-3.88-8.02-7.73-12.09-11.53l-6.28-7.38c0-.19-6.25-19.25-6.25-19.25-4.3-4.47-8.63-8.91-13-13.32,0-.1-20.84-19.55-20.89-19.62v-.04c0-.3-.74-3.27-1.17-5.23,1.6.8,3.77,1.96,3.77,1.96l19.13,11.14c.18.09,22.96,6.6,22.96,6.6l23.76,5.63,27.46,4.38-6.46-13.06c-.45-.42-14.11-5.98-14.11-5.98l-12.67-7.39c-.13-.04-15.6-6.58-15.6-6.58l-13.63-5.58c0-.13-8.85-11.54-13.77-17.85,4.73,3.18,12.04,8.14,12.04,8.14.35.12,12.28,1.06,12.28,1.06h37.42c0,.12,15.15,8.3,15.15,8.33,0,.05,12.92,13.98,12.92,13.98l1.7,1.83-1.57-15.72c-.16-.45-8.37-10.71-8.37-10.71-.23-.18-22.17-12.3-22.17-12.3l-17.43-6.56c-.13-.04-26.39-4.68-26.52-4.68v-.04c0-.25-5.02-6.23-5.02-6.23-.1-.05-19.22-17.74-19.22-17.74-3.09-1.61-6.19-3.21-9.3-4.79,0-.05-2.92-3.05-4.73-4.94h9.83c0,.16,15.07,9.21,15.07,9.21.13.09,20.25,6.58,20.25,6.58l25.67,3.75h-.03c0,.27,9.52,10.93,9.52,10.93l13.88,8.52c5.26.97,10.53,1.91,15.81,2.81l2.2.35-32.48-39.79c-.21-.19-15.73-8.56-15.73-8.56-.13-.08-18.34-5.67-18.34-5.67,0-.19-16.03-18.38-16.03-18.38-.18-.19-20.26-12.27-20.26-12.27-4.85-1.23-9.72-2.41-14.59-3.55.91-1.47,3.93-6.45,3.93-6.47.05.14,16.08-7.11,16.08-7.11,0,.04,23.5-4.59,23.5-4.59.64-.54,2.41-6.16,2.41-6.16-.3-.95-10.34-7.46-10.34-7.46-4.01-1.3-8.02-2.58-12.04-3.84-.74.09-7.09,3.81-7.09,3.84,0-.12-19.66.78-19.66.78,0-.01-23.5-5.54-23.5-5.56,0-.12-24.21-20.3-24.21-20.3-3.71-1.91-7.42-3.8-11.14-5.68-.27-.05-40.27-4.73-40.37-4.73,0-.51-9.4-14.54-9.4-14.54l-12.87-14.06c-.05-.08-16.38-14.81-16.38-14.81l-.51,1.08-5.47,12.11c.03-.12-5.4,8.26-5.4,8.26v.21c0,1.54.77,9.64.77,9.64.23.51,5.53,5.93,5.64,6.08-.27,0-2,8.43-2,8.5-.05-.58-21.94.31-21.98.31,0-.1-17.89-8.31-17.89-8.31-.12-.08-13.83-4.72-13.83-4.72-.27-.09-32.17.89-32.17.89-.7.36-6.11,8.74-6.11,8.74l-.73,1.1,14.03,2.02c0,.05,2.08,1.37,3.23,2.11l-3.59,2.93c0-.18-19.52-1.08-19.52-1.08-.32.05-14.06,5.62-14.06,5.62l-1.43.61,6.81,4.58c.43.16,29.6,1.08,29.6,1.08l21.66,5.58v.03c0,.3,4.12,6.19,4.12,6.19,0,0,2.93,4.14,4.03,5.76l-9.27,5.11c.12-.01-26.35,11.15-26.35,11.15l-54.72,30.73c-.05-.05-36.03,5.32-36.03,5.32-.27.09-14.09,7.78-14.09,7.78-.3.21-11.39,15.58-11.39,15.58-.12.19-6.39,19.32-6.39,19.32-.49,32.5.8,33.25,1.27,33.51,1.08.67,10.47,5.99,17.73,2.1,8.22-4.47,25.82-8.87,34.97-10.82,4.51-.92,6.63.7,7,2.37.49,1.83-.87,4.32-4.24,5.24l-1.89.56c-15.9,4.32-32.13,9.55-31.59,15.68l2.8,4.68c7.09,5.17,25.54,2.72,35.33.51l10.22-2.87c8.82-2.68,18.85-5.68,27.41-4.72,4.94.57,9.3,2.7,14.45,5.12,6.98,3.37,14.95,7.2,26.85,7.98,19.83,1.37,33.37,5.38,34.43,6.55,2.66,5.41.95,13.41-.39,19.84l-1.02,5.82c-5.55,50.34-61.75,107.25-88.83,134.55-7.31,7.39-12.15,12.27-13.19,14.31l-3.11,7.2c-2.63,6.68-4.77,12.44-13.36,15.89-4.97,1.93-16.55,10.65-29.99,20.71-19.4,14.47-43.46,32.48-50.09,31.7-11.09-1.31-62.88-36.96-65.06-39.16-50.44-48.81-71.54-38.79-84.17-32.83l-2,.93c-15.04,6.85-30.84,49.47-32.27,58.61l-6.1,26.25-4.68,19.29c-1.39,6.52-7.6,22.55-13.53,38.04l-12.17,33.72c-2.01,7.81-6.89,18.78-10.86,27.65l-5.38,13.14c-3.75,15.42-3.81,99.88,2.71,107.35l.29.31,1.28.38c6.55-.67,20.61-15.16,27.35-22.15l1.56-1.62c5.71-5.73,11.76-21.04,11.76-27.47s-2.94-19.48-4.11-23.07c-9.13-27.89-5.68-54.46-4.02-67.2l.66-5.68c.48-5.91,6.41-12.46,12.17-18.74l7.28-8.42c3.99-5.32,8.43-7.08,12.39-8.65l6.5-3.71,1.01-1.05c4.31-4.32,11.53-11.61,14.69-21.36l6.17-26.7,1.35-7.13c.31-1.43,1.04-2.22,2.24-2.48,2.45-.54,6.12,1.4,7.69,3.49l44.64,51.8c11.44,9.74,23.19,21.36,23.19,23.92v.22s-.29.01-.29.01c-6.25.65-37.7-6.06-42.93-7.55-42.74-12.53-62.24-10.32-77.29,8.51-17.15,21.57-11.75,87.62-8.25,94.86,3.22,6.56,18.86,87.04,19.56,97.77.7,10.52,4.77,29.32,9.03,33.64l1.17,1.19c5.27,5.21,19.14,19.16,21.59,32.9,2.65,14.97,34.43,55.04,46.56,58.64,1.84.53,3.83.15,5.34-1.04,9.25-6.56,13.45-38.64,13.96-52.18.6-16.87-5.46-25.03-11.89-33.76l-2.46-3.41c-4.73-6.46-13.07-8.81-18.57-10.35-2.35-.66-5.56-1.44-5.56-2.17,0-.25-.65-24.97-8.53-29.74-6.13-3.77-12.41-27.63-13.15-36.7-.71-9.01-4.2-30.78-8.88-40.34-4.73-9.6-8.72-27.29-6.69-40.93.84-5.86,5.02-7.7,8.42-8.24,5.86-.93,12.63,1.6,13.68,3.64,2.33,4.7,47.4,31.88,62.61,37.72,9.44,3.58,22.22,14.37,33.5,23.99,8.03,6.73,14.93,12.53,19.23,14.59,5.81,2.8,22.28,3.13,35.51,3.39,7.02.12,14.31.29,15.29.87-5.37,2.15-5.3,11.57-4.86,14.6,5.49,38.95,147.18,145.94,158.14,151.94,12.68,6.81,58.18,54.32,62.16,60.78,4.12,6.38,8.13,13.32,7.37,18.66-1.09,7.9,2.08,16.93,8.4,24.29,6.06,6.86,13.96,11,21.26,11,6.33,0,10.56-5.68,13.68-9.78l.66-.86c8.46-11.19,21-27.59,22.62-53.23,1.73-26.29,13.73-36.73,17.65-37.42,1.75-.32,3.03.21,3.5,1.36.48,1.19-.1,3.19-2.48,4.76-5.19,3.51-8.43,15.15-11.98,27.59-.03.1-1.32,12.7-1.32,12.7-.3,9.4-.66,20.06-10.05,30.4-14.06,15.23-30.19,50.34-34.37,94.67-2.53,26.7,9.49,65.17,35.72,114.2l1.83,3.5,7.09,11.91c7.17,11.53,19.16,30.7,18.6,35.19-.77,6.33-1.36,11.3-12.28,25.01-12.01,15.07-55.83,66.07-60.11,66.87-8.72,0-10.18,1.12-17.2,6.43l-7.39,5.63c-8.09,5.75-9.51,10.05-10.87,13.85-1,2.87-1.95,5.37-5.71,8.18l-2.81,1.89c-.58.51-2.17,2.74-19.78,20.36-20.19,19.96-29.21,42.55-26.1,65,1,7.02,7.04,9.47,24.97,10.29,17.9.83,58.93-27.88,60.76-37.24l.64-3.57c1.57-8.43,4.2-22.65,8.85-24.69,5.6-2.45,15.2-13.53,22.24-21.58l1.36-1.52c3.75-4.33,4.66-8.64,5.55-12.74.77-3.24,1.47-6.51,3.59-9.49,1.67-2.18,4.12-3.37,6.96-4.68,5.45-2.61,12.31-5.93,17.25-18.34,4.92-12.17,34.25-33.22,55.68-48.53,10.95-7.78,19.53-14.01,21.58-16.74,2.81-3.67,4.54-10.74,4.54-18.24,0-8.9-2.39-18.37-7.98-23.63-8.13-7.55-15.78-30.01-18.07-37.05v-.16c0-2.92-.27-8.26-.71-18.21-.05-.45-.05-.93-.05-1.36,0-26.32,39.12-52.06,56-63.15l7.7-5.32c61.23-54.01,73.21-95.07,75.48-106.34l1.25-13.5c.38-9.35.69-18.26,6.33-19.43,2.2-.43,5.88,1.35,8.11,4.01,1.27,1.44,3.14,4.44,1.89,7.9-2.79,7.57-3.72,83.72-3.75,86.88.21.53,6.59,8.05,6.59,8.05l1.17,1.36.35-1.78c.08-.88,3.59-21.63,3.59-28.97,0-8.21,13.2-43.37,16.39-43.98,0,.1.21.4.21.4,1.54,4.86,3.51,16.87,3.51,29.53s-1.88,25.51-7.92,33.09c-9.17,11.35-16.47,29.31-21.23,41.17l-4.41,10.08c-.5,1.4-.71,2.88-.64,4.36,0,9.65,4.97,30.22,8.24,34.05.86.91,1.54.91,2.02.74,1.06-.4,2.02-1.78,2.02-9.86,0-30.78,25.86-53.1,26.17-53.27,22.8-18.09,27.77-51.65,27.77-77.21,0-19.35-2.84-34.12-2.92-34.53-3.61-5.35-7.25-10.67-10.95-15.95.53.26,3.5-2.18,4.49-2.97.99,1.27,11.37,15.04,11.37,15.04,1.75,2.45,6.19,9.6,6.19,12.44,0,15.84,2.44,26.68,4.18,34.63l.43,1.88c1.83,8.43,13.23,35.37,13.73,36.52l1.22,2.84.38-3.09c0-.13,1.8-14.21,0-26.26-1.04-6.76.26-15.04,1.57-23.99l2.08-20.54c0-16.69-2.39-27.24-8.34-36.83l-3.03-4.6c-1.19-1.88-2.36-3.72-2.23-4.1l2.23-.96c48.16-16.34,70.57-51.8,79.7-71.44,9.57-20.8,10.08-52.84,10.08-59,0-8.03-.35-49.66-7.34-71.05-4.1-12.62-2.79-26.17-1.41-40.8l1.49-25.04c0-17.13,9.01-29.86,17.76-42.15l10.41-16.13c6.81-13.44,3.19-25.2.45-28.56h0Z"/>
  <path class="st3" d="M1215.31,471.7c.8.05,11.04-4.81,11.04-4.81.45-.92-1.92-10.61-1.92-10.61-7.39-8.76-14.81-17.49-22.27-26.19l-1.1-1.28-.38,1.61-2.39,10.49c.01-.1-7.07,16.83-7.07,16.83l-.32.71,14.92,7.63,9.49,5.62h0Z"/>
  <path class="st1" d="M1219.74,538.92c2.36.88,5.93.49,9.3-1.01,5.16-2.43,8.21-6.58,6.9-9.55l-2.37-2.14c-2.33-.89-5.9-.49-9.22,1.04-4.42,1.97-7.25,5.25-7.25,8.04,0,.51.14,1.05.31,1.48l2.33,2.14h0ZM1308.83,502.15l4.25,2.3c.69,1.49,2.02,2.59,3.62,2.98,1.84.38,3.75-.09,5.19-1.3,1.14-.89,1.41-2.57.69-4.68-1.14-3.51-4.81-7.35-8.77-7.35-5.1,0-9.75.58-9.75,4.34.01,2.11,2.44,2.92,4.77,3.71h0ZM1313.93,517.18c-1.97,1.45-2.84,3.41-2.28,5.4l.4,1.65c.51,1.95.69,2.35,2.48,2.56l3.24.58c4.15,1.06,10.71-1.52,12.2-4.84.51-1.08.91-3.16-1.92-5.14-4.86-3.24-10.86-2.54-14.12-.21h0ZM1327.2,574.91c-1.19-.57-.69-2.46.23-5.21.74-2.24,1.41-4.4.26-5.58-1.01-.97-2.81-.89-5.88.25-11.02,3.97-12.71,15.2-13.93,23.41l-.38,2.53c-.64,3.66,1.25,4.9,2.41,5.32,3.8,1.35,10.66-2.1,12.2-4.73,1.73-2.84,11.24-5.43,18.18-7.33l2.66-.73c3.22-.88,4.86-2.11,5.1-3.79.35-2.19-2.08-4.19-4.23-5.47-2-1.18-4.97-.34-8.08.56-3.09.84-6.41,1.71-8.56.78h0ZM1210.68,579.13c2.44-.25,4.34-1.19,5.55-2.93,3.51-5.24,3.7-12.66.29-19.39-3.29-6.42-8.94-10.53-14.69-10.74l.08.03-1.26-.17-10.61.83c-5.6,1.25-10.8,5.38-12.06,9.45-.64,2.06-.27,3.94,1.14,5.36,8.51,9.01,23.2,18.2,31.57,17.56h0ZM1106.2,570.59c1.27,3.13,7.09,3.48,15.64.93l1.88-.57,15.32-5.99,22.19-14.59c.65-.51,6.45-4.86,5.25-7.65-.84-1.83-3.74-1.5-5.82-1.12-6.12,1.12-12.13,4.06-18.52,7.17l-9.03,4.19-3.98,1.63c-13.73,5.68-24.99,10.78-22.93,15.99h0ZM1059.54,586.83c-4.62,0-6.69,2.5-8.38,4.72l-2.06,2.33c-3.55,3.05-4.64,10.41-4.2,16.02.18,2.33.84,6.56,3.14,7.91,4.4,2.71,6.5.8,10.99-3.46l3.48-2.98c4.41-3.7,9.53-7.89,10.17-14.33.31-2.72-.34-4.97-1.85-6.65-2.7-2.93-7.63-3.55-11.27-3.55h0ZM1085.06,588.87c-1.32-.29-2.11.13-2.53.56-1.34,1.31-.79,4.11-.38,6.36l.26,1.57-.27.95c-.3.8-.64,1.83,0,2.7.57.87,1.96,1.25,4.32,1.25,3,.03,3.29-.29,4.31-2.96l.8-2.06c.73-1.82.74-3.45.05-4.75-1.23-2.28-4.29-3.15-6.56-3.61h0ZM1109.74,628.86c3.36-.16,5.96-3.01,5.81-6.37-.15-3.15-2.66-5.66-5.81-5.81-3.32.02-5.99,2.73-5.97,6.04,0,.01,0,.03,0,.04,0,3.36,2.66,6.1,5.97,6.1h0ZM1220.93,614.03c-1.75-.32-3.53.34-4.63,1.74-1.65,1.92-11.67,8.79-19,13.83l-9.45,6.72-.77.74c-1.18,1.12-1.76,1.8-1,4.11l1.15,1.62,2.49-.51,3.68-1.36,5.3-.83c5.23-.67,10.95-1.45,13.64-4.22l3.51-5.75,5.23-8.39c2.5-2.76,2.63-4.66,2.28-5.73-.41-1.04-1.34-1.79-2.45-1.97ZM1231.92,647.93c0,3.1,1.54,4.32,2.41,4.75,2.35,1.25,5.72.04,7.73-2.76l6.8-5.91c3.68-2.65,7.79-5.63,11.44-10.26,3.37-4.34,1.92-7.02.71-8.16-2.31-2.26-7.06-2.78-8.66-1.45l-1.96,1.34c-4.45,2.89-14.98,9.73-17.63,18.04-.52,1.42-.81,2.91-.84,4.42h0ZM1276.2,644.58c-1.39-2.02-3.77-2.87-5.55-2l-4.79,3.63c-3.37,2.75-7.57,6.24-11.22,7.26-8.85,2.37-20.84,6.33-21.58,12.4v.79c-.01,1.67.74,2.67,1.47,3.23,3.36,2.74,11.52,1.12,17.42-1.12,9.05-3.35,14.55-7.43,21.66-13.89,4.37-3.98,4.18-7.96,2.59-10.31h0ZM1241.8,714.49l-2.88-.32c-7.44,1.98-20.16,23.88-29.08,40.19l-1.6,2.83-26.74,50.19-8.39,15.98c-.93,1.45-.61,3.58.79,4.97,1.3,1.3,3.57,2.01,6.32.27,4.46-2.97,20.74-19.12,28.29-31.8l10.05-13.86c6.45-8.42,13.79-17.83,18.09-29.05l1.52-3.86c10.21-26.47,11.8-30.52,3.63-35.52h0ZM1342.37,618.01c-3.2-.07-5.85,2.46-5.93,5.66,0,0,0,0,0,0,0,3.13,2.66,5.67,5.93,5.67s5.88-2.54,5.88-5.67c-.05-3.18-2.67-5.72-5.85-5.67,0,0-.02,0-.03,0ZM1339.56,641.65c0,3.14,2.66,5.68,5.93,5.68,3.17.04,5.76-2.5,5.8-5.67,0,0,0,0,0-.01-.04-3.17-2.63-5.71-5.8-5.68-3.2-.05-5.84,2.48-5.93,5.68ZM1345,654.22c-3.7,0-6.76,2.45-6.76,5.38s3.06,5.4,6.76,5.4,6.78-2.41,6.78-5.4c.01-2.93-3.03-5.38-6.78-5.38ZM1344.73,669.94c-4.25,0-7.65,2.68-7.65,5.99s3.4,5.97,7.65,5.97,7.6-2.7,7.6-5.97-3.35-5.99-7.6-5.99ZM1345,689.89c-4.68,0-8.56,2.79-8.56,6.3s3.88,6.25,8.56,6.25,8.51-2.79,8.51-6.25-3.8-6.3-8.51-6.3ZM1342.11,723.32c5.32-.47,9.22-3.39,8.92-6.76l-1.67-3.06c-1.83-1.54-5.02-2.32-8.26-2.02-5.14.47-8.94,3.24-8.94,6.42l.03.32,1.73,3.05c1.87,1.58,4.92,2.36,8.2,2.05h0ZM1330.49,740l-.03-.16.03.16ZM1341.81,744.32c5.95-.88,10.16-4.15,9.68-7.52l-1.75-2.8c-2.08-1.6-5.8-2.23-9.6-1.67-5.85.82-10.16,4.15-9.68,7.52l1.8,2.79c2.1,1.61,5.75,2.22,9.55,1.69ZM1331.79,754.45c0,3.67,4.46,6.6,10.31,6.6s10.23-2.93,10.23-6.6-4.41-6.56-10.23-6.56c-5.86.01-10.31,2.89-10.31,6.56ZM1350.02,775.92c0-3.89-5.32-6.86-12.11-6.86s-12.04,2.97-12.04,6.86,5.32,6.89,12.04,6.89,12.11-3.02,12.11-6.89ZM1342.29,794.03c0-3.8-3.98-6.87-8.79-6.87s-8.87,3.07-8.87,6.87,3.98,6.89,8.87,6.89,8.79-3.09,8.79-6.89ZM1338.14,816.69c0-4.27-4.2-7.78-9.43-7.78s-9.35,3.51-9.35,7.78,4.18,7.77,9.35,7.77,9.43-3.46,9.43-7.77ZM1330.49,838.74c0-3.84-3.45-6.89-7.65-6.89s-7.7,3.03-7.7,6.89,3.51,6.86,7.7,6.86c4.2.01,7.65-3.09,7.65-6.86ZM1317.24,851.79c-4.05,0-7.39,3.07-7.39,6.89s3.35,6.85,7.39,6.85,7.34-3.09,7.34-6.85c.01-3.81-3.31-6.89-7.34-6.89ZM1310.98,884.88c4.15,0,7.68-2.67,7.68-5.98s-3.51-5.94-7.68-5.94-7.6,2.65-7.6,5.94,3.42,5.98,7.6,5.98ZM1303.94,899.36c3.85,0,7.02-2.24,7.02-5.07s-3.11-5.05-7.02-5.05-7.09,2.22-7.09,5.05,3.16,5.07,7.09,5.07ZM1297.11,913.29c3.67,0,6.78-2.27,6.78-5.08s-3.11-5.06-6.78-5.06-6.76,2.27-6.76,5.06c-.01,2.81,2.98,5.08,6.76,5.08ZM1097.14,900.96l1.22.23,9.23-1.66c8.2-1.82,20.54-4.58,35.73-4.98,11.1-.3,23.14,3.58,31.88,6.43,7.94,2.65,11.89,3.79,13.4,2.15.95-1.08.36-2.65-.16-3.75-2.39-5.15-12.84-22.07-46.95-22.85-22.17-.51-40.23,14.57-44.1,20.93-.77,1.3-.97,2.26-.58,2.97l.32.52h0ZM1223.98,965.08c2.17-1.39,3.1-3.84,2.96-7.35-.73-13.8-4.42-15.37-12.04-15.37s-13.29,7.74-13.29,11.76c0,3.77,2.78,7.08,8.16,9.78,3.05,1.61,10.06,3.9,14.21,1.18h0ZM1328.64,1133.78c11,5.14,14.86,6.96,16.51,7.47.05,0,.1.16.1.16,0,0,.08-.06.08-.09.77.23,1.01.14,1.19-.12-.1-.08-.53-.73-.77-.91.13-.1.26-.38.26-.38,0,0-.69-.29-.74-.35-7.28-9.18-51.09-71.48-60.41-112.47-1.47-6.76-3.19-13.05-7.6-15.56-2.48-1.39-5.6-1.49-9.4-.22h-.03c-.88.26-1.52.99-1.92,2.05-.38,1.15-.54,2.37-.48,3.58,0,14.64,15.6,54.95,20.7,63.24,28.2,45.77,41.97,53.29,42.5,53.6h0ZM1686.76,1151.59l-1.67.32c.05.26.43,12.49.43,28.2,0,22.9-.79,53.45-4.76,67.17-3.22,11.12-17.96,32.4-29.87,49.43,0,0-13.85,20.78-13.85,20.8-.4.69-.6,1.48-.58,2.28,0,2.05,1.04,3.98,2.87,5.19,1.39.96,6.41,3.42,13.4-4.92l8.85-9.35c11.8-11.78,26.47-26.39,36.81-58.66,11.34-35.42-11.41-99.85-11.61-100.46ZM1317.78,1266.99c1.06,1.06,2.79,1.36,4.59.71,2.84-.98,4.83-3.55,5.07-6.54.43-4.44,3.51-10.39,8.11-15.47,4.97-5.65,4.58-14.23-.88-19.4l-5.88-2.35c-3.77.13-6.59,3.15-6.74,3.24-1.97,9.42-3.89,18.86-5.77,28.3v-.03c-.56,1.57-1.06,9.07,1.5,11.53h0ZM1508.82,1371.45l-.3-.13-.3.13c-.23.18-5.16,2.48-6.56,7.29-.96,3.24.83,6.06,2.23,8.38l1.65,3.09.71,6.16,1.12,9.07c.57,1.93,2.4,3.21,4.41,3.09,2.31-.08,4.99-1.85,5.88-5.45,1.19-4.86,1.78-11.45,1.78-20.22-.03-8-10.16-11.3-10.61-11.4h0ZM1212.31,1297.69c-.66-.77-70.7-76.77-85.83-96.68-15.42-20.4-22.79-21.94-30.34-17.77-1.13.65-1.87,1.8-1.98,3.1-1.09,8.29,16.41,28.34,31.72,43.06,21.41,20.61,84.67,69.05,85.32,69.53l1.12-1.25h0ZM937.8,1073.38c-14.19-8.81-38.75-13.7-39-13.8l-.65,1.49,27.25,20.54c4.49,3.68,24.32,15.99,30.73,10.96.84-.64,1.32-1.64,1.27-2.7-.21-3.7-7.08-8.64-19.6-16.5h0ZM931.15,957.1l1.92-.82c2.45-2.76-3.19-10.61-10.05-16.95-6.19-5.71-12.48-9.39-15.77-9.21l-1.87.8c-.4.49-.6,1.11-.57,1.74,0,3.58,4.9,9.91,10.6,15.23,6.2,5.71,12.54,9.42,15.75,9.21ZM1003.96,947.18l-2.79.17c-5.29,2.22-13.7,15.67-20.4,32.7-4.72,12.02-8.29,25.14-8.29,33.03,0,3.75.8,6.29,2.59,7.04l2.75-.17c5.29-2.26,13.67-15.73,20.45-32.71,4.71-12.05,8.24-25.16,8.24-33.07,0-3.72-.77-6.28-2.56-6.99h0ZM872.89,864.12c-6.84,0-12.28,3.24-12.28,7.34s5.45,7.28,12.28,7.28,12.33-3.2,12.33-7.28-5.4-7.34-12.33-7.34ZM829.3,954.87l2.13-.19c3.7-1.82,9.29-11.87,13.5-24.41,4.46-13.35,6.9-27.68,2.58-29.21l-2.09.22c-3.76,1.85-9.34,11.88-13.51,24.41-4.54,13.36-6.84,27.69-2.61,29.18h0ZM840.71,1023.91c3.63-4.86,4.36-10.34,1.66-12.39l-3.14-.67c-2.62.34-5.75,2.54-8.08,5.8-3.63,4.86-4.36,10.32-1.67,12.33l3.15.74c2.61-.4,5.77-2.58,8.08-5.81h0ZM836.54,1099.52l-.3-.18-1.36-.14c-4.9,1.14-1.45,22.49,1.08,33.72,3.59,15.68,8.46,28.34,11.83,30.44l.29.21,1.34.14c4.98-1.14,1.45-22.59-1.06-33.72-3.57-15.77-8.38-28.35-11.8-30.47h0ZM787.15,1128.19c-3.96,0-7.15,2.93-7.15,6.59s3.19,6.41,7.15,6.41,7.22-2.93,7.22-6.41c.01-3.66-3.28-6.59-7.22-6.59ZM908.49,1283.15c-4.55-.02-8.28,3.63-8.34,8.18,0,4.41,3.75,8.05,8.34,8.05,4.53.08,8.28-3.52,8.38-8.05-.06-4.57-3.81-8.23-8.38-8.18ZM1318.71,1499.05c.26.4,1.01,1.75,2.15,1.62l.48-.03.88-1.32,7.52-22.93,5.88-15.28,5.02-11.62c1.54-3.9,1.54-6.51.03-8.03-2.41-2.2-7.39-.32-8-.1-.4.32-14.14,23.25-14.14,23.25-2.68,4.1-3.7,9.62-3.7,15.3,0,8.09,2.02,16.17,3.88,19.13h0ZM1353.03,1613.59l.27-2.31c.18-1.36,4.31-33.25-5.5-45.58-2.02-2.7-5.1-4.42-8.46-4.73-2.94-.27-4.97.58-6.08,2.44-5.98,9.78,17.48,46.61,18.52,48.21l1.25,1.97h0ZM1407.96,1674.27c-4.7-.06-8.55,3.7-8.61,8.4,0,0,0,.02,0,.03,0,4.73,3.85,8.4,8.61,8.4s8.42-3.77,8.42-8.42-3.77-8.42-8.42-8.42h0ZM1278.64,1571.55c-4.03,0-7.47,3.14-7.47,7.02s3.45,7.04,7.47,7.04,7.44-3.06,7.44-7.04-3.32-7.02-7.44-7.02ZM1372.88,1695.93l-.91-.21c-4.46,0-21.35,14.77-35.74,29.51-1.27,1.35-32.53,33.41-28.39,37.59l.23.26,1.01.21c4.51,0,21.37-14.82,35.69-29.48,1.35-1.36,32.66-33.31,28.39-37.64l-.29-.23ZM1279.01,1782.6c-2.61,0-6.69,2.44-10.34,6.08-4.36,4.36-7.52,10.39-5.19,12.87l.16.16-.16-.16,2.31.83c2.66,0,6.76-2.39,10.39-6.11,4.25-4.41,7.52-10.31,5.1-12.81l-2.27-.86ZM1237.83,1841.94c-3.2,0-7.73,2.63-11.69,6.64-4.14,4.15-6.51,8.74-6.51,11.93,0,1.22.32,2.2,1.09,2.89l2.92,1.12c3.15,0,7.81-2.56,11.69-6.59,5.75-5.88,8.05-12.17,5.45-14.89l-2.94-1.1ZM1022.55,1543.08c-6.17,0-11.19,3.51-11.19,7.95s5.03,7.81,11.19,7.81,11.19-3.4,11.19-7.81c.01-4.44-4.97-7.95-11.19-7.95ZM1113.73,1549.46c-4.38,0-7.79,2.36-7.79,5.47,0,2.92,3.41,5.32,7.79,5.32s7.73-2.41,7.73-5.32c0-3.05-3.5-5.47-7.73-5.47ZM1225.01,1586.7l.67-1.04c1.26-5.24-24.99-13.42-39.03-16.98-16.85-4.31-36.87-7.76-41.3-5.1l-.31.21-.71,1.09c-1.27,5.29,24.97,13.37,39.03,17.04,16.83,4.23,36.86,7.57,41.35,4.94l.3-.17h0Z"/>
</svg>