<?xml version="1.0" encoding="UTF-8"?>
<svg id="Layer_1" xmlns="http://www.w3.org/2000/svg" version="1.1" viewBox="0 0 203.33 181">
  <!-- Generator: Adobe Illustrator 30.0.0, SVG Export Plug-In . SVG Version: 2.1.1 Build 123)  -->
  <defs>
    <style>
      .st0 {
        fill: #e6002d;
        fill-rule: evenodd;
      }
    </style>
  </defs>
  <path class="st0" d="M112.85,158.98c-18.52,0-35.23-7.47-47.53-19.58h19.1s54.9-97.83,55.1-98.22c.27-.4.13-.66-.25-.66h-22.41c-.45,0-.52.14-.65.33-.13.2-30.95,54.48-30.95,54.48h-40.27c-.13-1.72-.19-3.45-.19-5.17,0-37.98,30.43-68.83,68.05-68.83,19.16,0,36.52,8.06,48.88,21.02-5.37,9.17-29.46,50.55-32.7,56.57-1.88-4.39-10.56-3.53-15.02-3.61-1.95,3.27-11.07,20.7-11.07,20.7,0,0,5.04-.06,9.58,0,4.41.07,4.93,4.71,3.18,7.66-1.75,2.95-8.94,15.71-8.94,15.71h23.12s28.37-50.09,44.48-78.57c4.32,9.17,6.55,19.19,6.53,29.34,0,37.98-30.49,68.82-68.05,68.82M49.79,116.02h23.5l-11.34,19.84c-5.11-5.9-9.23-12.6-12.17-19.84M112.85.9C64.09.9,24.6,40.85,24.6,90.16c0,1.76.06,3.46.12,5.17h-11.52c-.65,0-.97.39-1.23.86-.19.46-10.42,18.66-10.69,19.12-.19.46-.19.72.33.72h26.74c10.94,36.67,44.61,63.39,84.49,63.39,48.76,0,88.26-39.95,88.26-89.25S161.61.9,112.85.9"/>
</svg>