<?xml version="1.0" encoding="UTF-8"?>
<svg id="Layer_1" xmlns="http://www.w3.org/2000/svg" version="1.1" viewBox="0 0 823.93 452.27">
  <!-- Generator: Adobe Illustrator 30.0.0, SVG Export Plug-In . SVG Version: 2.1.1 Build 123)  -->
  <defs>
    <style>
      .st0 {
        fill: #f47600;
      }
    </style>
  </defs>
  <path class="st0" d="M426.55,451.37c3.64-4.87,7.32-9.72,10.93-14.62,22.45-30.53,43-62.19,56.61-97.82,6.22-16.26,10.51-32.94,11-50.48.83-32.21-12.94-56.47-39.89-73.5-21.06-13.3-44.58-19.8-68.83-23.91-44.19-7.49-88.59-6.83-133-3.16-71.7,6-142.6,19.37-211.56,39.91-15.93,4.71-31.52,10.54-47.27,15.86-1.42.62-3,.81-4.53.54,11.57-7.07,23.09-14.21,34.7-21.2,70.12-42.31,143.13-79.62,218.5-111.66,94.2-39.93,190.66-73,291-93.94C594.32,6.93,644.87-.45,696.26.02c27.41.26,54.55,2.7,80.55,12.15,12.83,4.66,24.67,11.09,33.74,21.56,15.51,17.89,15.78,38.42,9.49,59.78-6.93,23.53-19.86,43.9-34.42,63.28-28.17,37.5-61.61,70-96.61,101-62.86,55.61-130.4,105.14-199.5,152.61-20.57,14.14-41.36,28-62.05,41.92l-.91-.95Z"/>
</svg>