<?xml version="1.0" encoding="UTF-8"?>
<svg id="Layer_1" xmlns="http://www.w3.org/2000/svg" version="1.1" viewBox="0 0 1411.42 566.92">
  <!-- Generator: Adobe Illustrator 30.0.0, SVG Export Plug-In . SVG Version: 2.1.1 Build 123)  -->
  <defs>
    <style>
      .st0 {
        fill: #e21b4d;
      }

      .st0, .st1 {
        fill-rule: evenodd;
      }

      .st1, .st2 {
        fill: #ffd300;
      }
    </style>
  </defs>
  <path class="st2" d="M454.18,283.46c0-140.7,113.74-254.43,254.43-254.43s254.43,113.74,254.43,254.43-113.74,254.43-254.43,254.43-254.43-114.4-254.43-254.43"/>
  <path class="st1" d="M504.15,132.25c3.94,1.97,7.89,3.94,12.49,6.57,19.07,13.15,31.56,24.33,60.49,48.65,8.55,8.55,18.41,22.35,25.64,30.9,15.78,19.72,26.96,33.53,28.93,49.97,4.6,32.87,9.2,51.28,21.7,84.81,1.31,3.29,6.57,7.89,9.86,11.83,7.89,9.86,11.18,25.64,25.64,34.19,7.89,4.6,9.2,5.26,11.83,7.23,3.94,3.29-2.63,15.12-23.01,12.49,10.52,5.26,9.2,17.09-5.92,17.75-29.59,1.31-47.99-15.78-51.94-20.38-1.97-1.97-7.89,5.92-18.41,9.86-10.52,5.26-24.98,0-36.16,1.97-10.52,1.97-24.33,8.55-35.5,9.2-19.72.66-22.35-13.15-22.35-24.98v-5.26c-1.97,7.23-9.2,19.72-9.2,19.72-2.63,5.92-6.57,13.15-13.81,15.78l-21.04,2.63c-16.44,7.23-32.87,12.49-49.97,18.41-9.86,1.97-21.04,0-28.27-5.92-5.92-4.6-9.2-10.52-12.49-16.44-3.29-1.31-7.89,0-11.83-1.31-3.29-.66-5.26-3.29-7.23-5.26l-14.46-24.33c-1.31-3.29-1.31-7.89,0-11.18,2.63-5.26,8.55-7.89,14.46-7.89,10.52-.66,22.35-3.94,32.87,0,4.6-5.26,11.83-4.6,18.41-5.92-2.63-3.94-6.57-5.92-9.86-9.2-19.07,4.6-40.1,1.31-58.51-1.97-17.09-3.94-31.56,5.92-48.65,3.29l-5.26,11.18c-7.89,8.55-8.55,23.01-20.38,28.93-8.55,1.97-15.12,7.89-22.35,11.83-13.15,7.23-30.9,3.94-45.36,1.31-5.92-.66-9.86,0-15.12,1.97-4.6,3.29-9.86,8.55-15.12,12.49-8.55,3.29-15.78,10.52-24.98,11.18-5.26,0-10.52-3.29-15.78-1.97-6.57,7.23-9.86,19.07-20.38,22.35s-23.67.66-34.19-1.97c-3.29,1.31-5.26,3.94-9.2,3.29-7.23-1.97-14.46-3.94-21.04-7.89-2.63-2.63-3.29-5.92-3.94-8.55,0-4.6,3.94-8.55,5.92-12.49.66-4.6.66-11.18,2.63-15.78,3.29-7.23,10.52-11.83,17.75-15.12.66-5.26,3.94-9.86,8.55-12.49,8.55-4.6,17.75-15.12,28.93-9.2l11.83,9.86c10.52-4.6,7.89-15.12,13.15-23.67,2.63-5.92,5.92-12.49,12.49-12.49,4.6-.66,9.86.66,14.46,0,6.57-1.97,13.81-4.6,18.41-9.86l-.66-3.94c-6.57-12.49-8.55-27.61-9.2-42.73-11.83,1.31-24.33,3.29-36.82.66-18.41-2.63-36.16-17.09-43.39-35.5-7.89-17.75-4.6-42.73,7.89-57.86,9.86-11.83,21.04-22.35,32.87-31.56-3.94-1.31-8.55-.66-12.49-1.97-17.09-2.63-34.19-17.75-38.13-34.85-2.63-11.18,0-21.7,5.26-30.9,1.97-1.97,3.94-3.94,7.23-2.63,8.55,3.29,11.18,7.89,19.07,11.83l4.6,2.63c21.7,7.23,50.62,7.23,59.17,34.19,5.26,21.04-7.89,36.82-23.01,48.65-11.83,8.55-23.67,19.07-29.59,31.56-2.63,9.2-1.31,18.41,6.57,24.98,7.89,7.89,21.7,7.89,31.56,3.94,18.41-7.89,35.5-19.72,51.94-32.22,15.78-11.83,34.85-16.44,55.23-17.09,9.2-1.97,17.09-5.92,24.33-11.83,12.49-11.83,25.64-21.7,41.42-25.64,7.23-1.31,14.46-1.97,21.7-2.63,5.92-2.63,9.86-9.86,14.46-13.15,21.7-19.07,50.62-18.41,73.63-33.53,13.15-9.86,27.61-16.44,44.71-15.78,7.89.66,15.12,1.97,21.7,4.6l5.26,2.63ZM525.84,355.78c-14.46.66-23.67,3.94-33.53,5.26.66,9.2,5.92,17.09,13.15,26.96,3.94-15.12,16.44-21.04,20.38-32.22M895.99,359.07c6.57,9.86,10.52,19.72,16.44,30.24,5.92-11.18,11.18-21.7,16.44-28.27-.66-.66-17.75,1.31-32.87-1.97M909.79,407.72c-.66,1.97-1.97,2.63-4.6,2.63,1.97,9.2-4.6,26.3-21.04,26.96-11.18.66-29.59-10.52-40.1-11.18-11.18-.66-31.56,7.89-43.39-9.86-15.78,19.07-34.19,24.33-49.97,23.67-9.2,0-19.07-5.26-5.26-17.09-30.24,9.86-30.24-10.52-24.98-14.46,3.29-2.63,7.23-4.6,18.41-15.78,42.08-44.05,26.3-120.31,72.32-170.94,17.75-19.72,32.22-30.9,68.38-56.54,12.49-8.55,24.98-21.04,36.82-29.59l.66,1.31v-.66c7.23-5.26,13.81-10.52,21.7-12.49,16.44-1.97,31.56,3.29,44.05,11.83,6.57,4.6,11.83,9.86,17.09,16.44,3.94,3.94,9.86,3.94,15.12,5.92,15.12,2.63,28.27,8.55,40.76,16.44,8.55,5.26,15.78,14.46,26.3,15.78,12.49,1.97,23.67,5.92,34.85,12.49,13.15,8.55,24.98,19.07,40.76,21.7,31.56,3.29,57.86,21.04,82.84,38.79,14.46,8.55,31.56,18.41,49.31,12.49,5.26-1.97,9.2-6.57,10.52-11.18,1.31-11.83-5.92-21.04-13.15-29.59-15.12-17.75-41.42-32.87-38.13-58.51,4.6-19.07,25.64-30.24,42.08-35.5,9.2-3.29,20.38-1.97,28.27-9.86,3.94-2.63,5.92-11.83,12.49-8.55,5.26,3.29,5.92,9.86,6.57,15.78,2.63,18.41-1.31,36.82-18.41,47.34-7.89,5.26-16.44,7.23-25.64,9.2,13.81,11.18,27.61,24.98,35.5,40.76,4.6,9.2,7.23,17.09,7.89,27.61-.66,19.72-12.49,36.82-29.59,46.68-9.86,5.26-21.04,7.23-32.87,7.23-4.6,0-8.55-1.31-12.49-1.31,1.97,9.2,1.97,21.7,0,32.22-.66,5.26-3.94,11.18-3.94,17.75,2.63,3.29,6.57,3.29,9.86,3.29,8.55,0,19.07-.66,23.67,8.55,3.94,8.55,5.92,18.41,9.2,26.96,1.31,1.31,1.97,4.6,3.94,3.94,5.92-5.26,11.83-12.49,20.38-10.52,7.89,5.26,15.78,11.18,23.67,17.09,1.97,1.97,2.63,4.6,3.29,7.89,6.57,2.63,15.12,7.23,17.09,15.12,1.31,5.26.66,10.52,1.97,15.12,1.97,5.26,7.23,11.83,3.29,18.41l-2.63,1.97-24.98,7.89c-1.97,0-3.94-1.31-5.92-3.29-13.15-.66-28.93,3.29-39.45-5.92-4.6-3.94-7.89-8.55-11.18-13.81-7.89,3.94-19.07,6.57-26.96,1.31-16.44-12.49-32.87-24.98-55.23-24.33-9.86,1.97-21.7,4.6-31.56.66-9.2-6.57-19.72-9.86-26.96-19.72-10.52-11.18-10.52-24.33-14.46-38.13-14.46,3.29-30.24,1.31-44.71.66-11.83-.66-23.01,1.31-34.19,3.94-13.81,2.63-28.93,3.94-43.39,3.29l-7.23,5.26c3.29.66,6.57.66,9.2,3.29l2.63,2.63c11.83,1.31,25.64-.66,36.82,1.97,2.63.66,5.26,3.29,6.57,5.92,1.31,3.29,1.31,7.23-.66,9.86-5.92,7.89-9.2,17.09-17.09,23.67-1.97,2.63-7.89-.66-8.55,3.94-2.63,11.83-13.81,21.7-24.98,24.33-4.6.66-9.86,0-13.81-1.31-13.81-4.6-27.61-8.55-41.42-12.49-4.6-1.31-8.55-5.92-12.49-8.55-5.92,0-14.46,1.97-18.41-3.29-1.97-1.31-3.94-5.92-4.6-7.89-4.6-5.92-7.89-16.44-9.86-25.64"/>
  <path class="st0" d="M497.57,215.09c3.94,9.86,3.94,23.01,1.31,33.53-.66.66-1.31.66-1.97,0-1.97-9.2-3.94-18.41-7.23-27.61-1.97-5.26-8.55-9.86-5.92-15.78,1.31-1.31,3.94-1.31,5.92-.66,3.29,3.29,5.26,6.57,7.89,10.52M602.76,307.13c7.23,8.55,12.49,17.75,9.86,28.93-1.31,1.97-.66,5.92-3.94,6.57-1.31.66-2.63-.66-2.63-1.97-.66-5.92-.66-12.49-3.94-17.09-3.94-3.94-8.55-11.83-15.12-11.83-4.6,1.31-7.89,6.57-10.52,9.86,0,.66-.66.66-1.31,0-2.63-6.57,2.63-11.83,4.6-17.09,3.94-3.94,3.29-15.12,11.83-11.83,5.92,3.94,7.23,10.52,11.18,14.46M588.96,385.37c.66,3.94.66,9.86-3.29,12.49-3.94,1.31-9.2,1.97-13.81,1.31-1.31-.66-2.63-1.31-1.97-2.63,1.97-5.92,7.89-12.49,14.46-13.81,1.31,0,3.94,0,4.6,2.63M109.02,145.4c15.78,3.94,32.87,3.94,44.71,16.44,6.57,7.89,7.23,21.7,1.97,29.59-9.2,15.78-27.61,23.67-38.79,37.47-11.18,9.2-15.12,23.67-11.83,38.13,3.94,12.49,16.44,21.04,28.93,21.7,19.72.66,34.19-9.2,49.97-18.41,15.78-11.18,30.24-25.64,47.99-30.24,11.83-3.94,24.98-1.97,36.82-6.57,12.49-2.63,22.35-13.15,32.22-22.35,11.18-9.2,24.33-14.46,38.79-13.81,13.15,1.97,20.38-9.86,29.59-17.75,15.12-13.81,34.85-15.12,52.6-23.01,12.49-3.94,22.35-13.15,34.19-19.07,11.18-4.6,26.3-5.92,37.47-1.31,7.23,3.29,15.12,6.57,21.7,11.83l53.25,44.71c.66,1.97,2.63,3.29,3.94,3.94,15.12,18.41,30.9,36.16,43.39,56.54,3.94,7.23,5.92,14.46,7.89,22.35,2.63,30.24,10.52,56.54,20.38,82.84,2.63,3.94,7.89,7.23,10.52,11.18,8.55,11.83,13.81,26.96,27.61,34.85l7.89,3.94c.66.66.66,1.97,0,2.63l-1.31,1.31c-16.44,2.63-28.93-7.23-37.47-19.07-5.26-10.52-12.49-21.7-24.33-26.3-.66,0-1.31.66-1.31.66,1.31,3.94,5.26,6.57,6.57,9.86,4.6,7.23,8.55,15.12,10.52,23.01,2.63,8.55,11.83,14.46,19.07,19.07l10.52,5.26c1.31.66,1.97,2.63.66,3.94l-1.31.66c-17.75.66-33.53-5.26-46.02-18.41-2.63-3.29-6.57-5.92-11.18-5.92-7.89,7.23-15.78,13.81-26.3,14.46-11.18-1.97-23.01-1.97-32.87,1.97-9.2,3.29-18.41,7.23-28.27,7.23-4.6,0-9.86-1.97-11.83-6.57,0-5.92-3.94-12.49-.66-18.41l6.57-9.86c0-1.31-.66-2.63-1.97-2.63-2.63-.66-7.23,3.94-8.55-.66.66-9.86,10.52-16.44,17.09-23.01,1.31-7.89,4.6-15.12,10.52-21.7,0-.66-.66-1.97-1.97-1.97-8.55,1.31-17.09,3.29-26.3,3.29-7.23,3.94-16.44,6.57-24.98,3.94-1.97-1.31-1.31-3.29-.66-4.6,9.2-12.49,12.49-28.27,9.86-43.39-.66-.66-.66-1.97-1.97-1.97s-1.31,1.31-1.97,1.97c-1.97,14.46-6.57,25.64-14.46,38.13-5.92,5.92-15.12,5.92-23.01,7.89-1.97.66-3.94,2.63-3.94,4.6,0,5.26,3.29,8.55,5.26,13.15l17.09,31.56c.66,8.55-3.29,17.09-5.26,24.98.66,1.31,1.97.66,3.29,0,5.92-5.26,9.86-12.49,12.49-20.38.66-3.29-.66-7.23-1.97-9.86l-17.75-35.5c1.31-1.97,3.94-1.97,5.92-2.63,3.94,0,7.89,1.97,11.83,3.29,3.94,10.52,8.55,21.7,15.78,30.9,1.31,5.92,3.29,13.81-.66,18.41-3.94,7.89-7.89,14.46-13.15,21.7-4.6,4.6-11.18,3.94-17.75,4.6h-1.97c-15.78,8.55-32.22,13.81-49.31,19.07-7.23,3.29-15.78.66-21.7-3.94s-8.55-11.18-12.49-17.09c-4.6-5.92-11.83-.66-17.09-3.94-4.6-7.23-9.2-14.46-13.15-22.35,0-1.97,0-3.94,1.97-5.26,5.92-1.97,12.49-1.97,19.07-2.63,5.92-.66,12.49.66,16.44,4.6,7.89,9.2,11.18,21.7,23.01,27.61,9.2.66,17.09-1.97,24.98-5.92,4.6-2.63,9.86-6.57,9.86-12.49-.66-11.83-8.55-21.04-18.41-27.61-9.86-5.26-20.38-12.49-27.61-21.7-3.94-5.26-4.6-11.18-6.57-16.44-.66-1.31-3.29-1.31-3.94-.66-3.94,3.29-.66,9.2-.66,13.15.66,2.63,1.97,5.92.66,7.89-5.92,4.6-13.81,1.97-21.04,2.63-14.46-.66-28.27-6.57-43.39-5.26-14.46.66-34.19,10.52-44.71-3.94-5.26-13.81-3.94-30.24-1.31-44.05,0-1.31-1.31-2.63-2.63-2.63-1.31-.66-2.63,0-3.29,1.31-3.94,13.81-4.6,28.93-7.89,43.39-5.26,12.49-14.46,25.64-26.96,32.22-11.18,5.92-24.33,7.89-38.13,9.2-24.98.66-47.99,5.26-63.77,26.96-1.31,1.97-3.29,3.94-2.63,6.57.66.66,2.63,1.31,3.29.66,17.09-19.07,38.79-26.96,63.77-25.64,23.67,0,47.34-3.94,62.46-24.33,3.94-4.6,6.57-9.2,9.86-14.46,2.63,0,4.6,3.29,6.57,4.6.66,7.23-5.26,11.83-7.89,17.75-3.29,6.57-6.57,14.46-13.15,18.41-7.89,1.97-14.46,7.23-21.7,11.18-7.23,3.29-16.44,4.6-24.98,2.63-10.52-1.97-24.98-4.6-35.5,0-5.26,3.29-9.86,9.2-15.12,12.49-7.23,3.29-13.81,9.2-22.35,8.55-5.92-1.31-13.15-5.26-18.41,0-6.57,5.92-7.89,16.44-16.44,20.38-9.86,5.26-20.38,0-30.24-.66,1.31-9.86,2.63-19.07,9.2-26.3,3.94-.66,7.23-1.31,10.52-3.94,3.94-3.29,6.57-7.89,9.2-12.49,8.55-5.26,18.41-9.2,23.67-18.41,3.94-8.55,3.94-16.44,10.52-24.33l3.29-1.31,17.75-1.31c7.23-3.29,13.81-6.57,20.38-11.83,1.97-1.97,2.63-5.26,1.97-8.55-3.29-8.55-5.92-14.46-7.89-23.67s-.66-18.41-1.97-28.93c-.66-.66-1.31-2.63-2.63-2.63-11.83,2.63-23.01,5.92-36.16,3.94-17.75-1.97-36.16-13.81-42.73-31.56-5.92-15.12-4.6-36.82,6.57-49.31,10.52-13.15,23.67-23.01,36.82-34.19,1.97-1.31,1.97-3.94,2.63-5.92,0-2.63-2.63-4.6-4.6-5.92-7.89-1.97-17.09.66-24.98-2.63-13.81-4.6-24.33-17.75-26.3-32.22-.66-6.57.66-11.83,3.94-17.09,10.52,9.2,18.41,17.09,28.27,19.72M69.57,439.28v1.97c-3.29,7.89-5.26,17.09-7.89,26.3-5.92-.66-11.18-2.63-15.78-4.6-1.31-1.31,0-2.63,0-3.94,5.92-5.26,3.94-11.83,5.26-19.07.66-3.94,4.6-7.23,8.55-9.2,4.6.66,7.23,5.26,9.86,8.55M98.5,411.66c-3.29,6.57-7.89,14.46-15.12,18.41-2.63.66-5.92.66-8.55-.66-1.31-1.31-3.94-2.63-3.94-5.26.66-2.63-.66-5.92,1.97-7.23,5.26-3.29,10.52-6.57,15.78-11.18,1.31-.66,3.94-1.31,4.6,0,2.63,1.97,4.6,3.29,5.26,5.92M427.88,409.03c.66,2.63,4.6,5.92,1.97,8.55-5.26,3.94-11.18,6.57-18.41,5.92-5.26-3.94-4.6-11.18-9.2-16.44-1.31-3.94-7.23-3.94-5.92-7.89l1.97-1.31c7.23,0,14.46,0,21.7-1.31,7.23-.66,5.26,7.89,7.89,12.49M843.39,301.87c3.94,5.26,7.23,10.52,9.86,17.09.66,1.31,0,2.63-.66,3.94s-1.97,2.63-3.94,1.31c-4.6-1.31-3.94-8.55-9.86-7.89-3.94,0-6.57,3.29-9.86,5.26-5.92,5.26-13.81,10.52-15.12,18.41-1.31,2.63-.66,7.23-3.29,8.55-1.31.66-3.29-.66-3.29-1.97-.66-10.52,2.63-20.38,9.86-27.61,7.23-5.92,12.49-14.46,18.41-21.7,3.94-.66,6.57,1.97,7.89,4.6M846.02,389.31c1.31,2.63,3.94,5.92,1.97,9.2-2.63,1.97-7.23.66-10.52.66-3.94-1.97-5.26-7.23-5.26-11.83,0-1.31,0-1.97,1.31-3.29,4.6,0,9.2,1.31,12.49,5.26M944.64,188.13c1.97,2.63,0,5.26-1.31,7.23-9.2,8.55-20.38,17.75-26.96,28.27-2.63,3.29-4.6,7.23-5.92,11.18,0,.66-.66.66-1.31.66-1.97-5.26.66-11.18,1.97-16.44,4.6-12.49,15.12-24.33,26.3-32.87,1.31-.66,5.92-1.31,7.23,1.97M982.11,146.05c7.23,4.6,9.86,14.46,18.41,16.44,14.46,3.29,28.93,6.57,42.08,13.15,9.2,4.6,17.75,11.18,26.3,18.41,7.89,3.94,17.75,3.94,26.3,6.57,12.49,3.29,22.35,12.49,33.53,19.72,14.46,11.18,34.85,9.86,51.28,17.09,26.3,8.55,47.34,28.93,71.66,40.76,12.49,6.57,31.56,9.2,44.05,1.97,8.55-5.92,13.81-13.81,11.83-24.98-4.6-26.96-34.19-40.76-47.99-63.12-2.63-5.26-4.6-12.49-3.29-18.41,5.26-13.15,19.07-20.38,30.9-24.98,9.2-4.6,21.04-3.29,29.59-8.55,3.29-1.97,5.92-4.6,7.89-6.57,1.97,0,1.97,1.97,2.63,3.29,2.63,15.78,0,32.22-13.81,41.42-5.26,3.94-11.83,5.26-17.75,6.57-5.26,1.97-15.78-1.97-15.12,7.23,1.31,4.6,5.26,7.23,8.55,10.52,18.41,15.12,35.5,34.85,37.47,58.51.66,18.41-11.83,34.19-27.61,42.08-11.83,4.6-26.3,6.57-38.79,3.29-3.29-.66-8.55-3.94-11.18.66-.66,5.26,2.63,9.2,2.63,13.81,1.31,8.55,1.31,19.72-1.31,28.27-1.31,6.57-7.89,14.46-1.97,21.04,5.92,9.2,17.75,6.57,27.61,7.89,5.26.66,7.23,6.57,8.55,10.52,1.97,5.26,1.97,11.18,3.94,15.12,0,9.86,11.18,13.81,16.44,20.38,6.57,7.23,12.49,19.72,23.67,19.07,3.94,7.89,5.92,15.12,7.23,24.33l-1.31,1.31c-9.2,0-21.7,2.63-28.27-3.94-7.89-5.26-10.52-19.72-22.35-15.78-5.26,3.94-12.49,5.26-18.41,2.63-5.92-1.97-9.86-7.23-15.12-10.52-15.78-11.83-36.82-17.75-57.2-13.15-11.83,3.29-21.04-5.26-30.24-10.52-12.49-5.26-15.78-18.41-18.41-29.59l-1.97-13.81c0-1.31,1.31-2.63,2.63-3.29h1.97c7.23,16.44,21.04,34.85,38.79,40.76,16.44,6.57,31.56-1.97,49.31,1.31,16.44,1.97,29.59,12.49,42.08,22.35,1.31,0,1.97-.66,2.63-1.97v-1.31c-15.12-19.07-36.16-28.93-60.49-26.96-20.38,3.94-40.1-2.63-51.94-19.72-6.57-9.86-11.18-20.38-13.15-31.56-1.97-13.15-4.6-27.61-9.2-39.45-1.31-.66-2.63-1.97-3.94-1.31l-1.31,1.97c1.97,12.49,5.92,27.61,1.31,40.76-3.29,10.52-13.81,14.46-23.67,15.12s-19.07-1.31-29.59-1.31c-23.67-.66-44.71,8.55-69.03,6.57,1.97-5.92,5.92-11.83,3.94-18.41-.66-1.31-2.63-1.31-3.94-1.31-4.6,2.63-3.94,8.55-6.57,12.49-5.26,8.55-15.12,16.44-24.98,18.41-7.23,5.26-13.81,12.49-19.72,19.07-1.97,1.97-1.97,5.92-1.31,8.55,4.6,11.83,18.41,13.15,28.93,16.44,5.26.66,9.86-1.31,12.49-5.92,4.6-7.23,5.26-19.07,15.78-20.38h23.01c1.97.66,3.29,1.97,4.6,3.94l-.66,3.29c-5.26,5.92-7.23,14.46-13.81,18.41-3.94,1.31-8.55,0-11.18,3.29-1.31,7.89-3.29,16.44-11.18,20.38-5.92,5.26-14.46,2.63-21.04.66-12.49-4.6-24.98-7.23-37.47-11.18-5.26-1.31-7.23-7.89-13.15-9.2-5.26-1.31-11.18,2.63-15.78-1.97-2.63-5.92-3.94-9.86-5.26-16.44-1.97-3.94-3.29-8.55-3.94-13.15-.66-3.94,0-6.57,1.31-9.86l17.09-30.9c1.31-1.97,2.63-3.94,4.6-4.6,3.94.66,8.55,2.63,12.49,4.6l-.66,1.97-17.75,26.96c-3.94,8.55,0,18.41,3.94,25.64.66.66,1.31,1.97,1.97,1.31-.66-5.26-1.31-10.52,0-16.44,1.31-5.26,4.6-9.86,7.23-14.46l13.81-20.38c1.31-3.29,1.31-8.55-1.31-11.83-5.92-5.92-14.46-7.89-19.72-15.78-11.18-15.12-12.49-32.87-13.81-51.94,0-1.31-1.31-3.29-3.29-3.94-1.31-.66-2.63,1.31-3.29,1.97-3.29,12.49-1.31,27.61,1.97,38.79,1.97,8.55,5.92,17.09,9.86,24.98.66,1.31-.66,3.29-1.97,3.94-9.2.66-18.41,0-26.96-1.31-11.83-1.97-20.38-11.18-30.24-18.41-1.31-.66-1.97.66-2.63,1.31,2.63,13.15,17.09,21.04,21.7,32.87,2.63,9.86,12.49,17.09,14.46,27.61,0,1.31-1.31,3.29-2.63,3.94-3.29.66-6.57-1.31-9.86.66-.66,5.92,3.29,11.83.66,17.09-3.29,5.26-7.89,11.18-13.81,11.18-11.83-3.94-23.67-9.2-35.5-12.49-8.55-.66-17.09.66-24.98,1.31-7.89-1.31-13.15-8.55-19.07-12.49-1.97-.66-3.94-.66-5.26.66-13.15,13.15-27.61,27.61-47.34,26.96-1.31,0-1.97-1.31-1.97-2.63v-1.31c8.55-7.89,19.07-15.78,23.01-26.96,2.63-9.2,10.52-15.78,13.81-24.33.66-1.31-.66-1.97-1.97-2.63l-1.97,1.31c-9.86,9.86-17.09,21.04-24.33,31.56-7.23,7.23-17.75,11.83-28.93,9.2-1.31-.66-1.31-2.63-.66-3.94,40.76-24.98,45.36-69.69,56.54-110.45,7.89-26.96,13.81-54.57,34.85-76.26,31.56-34.85,71.01-55.23,105.85-85.47,5.26-4.6,10.52-9.2,17.09-9.2,17.09-1.31,30.24,5.26,42.08,15.12M1357.52,436.65c3.29,4.6,1.97,11.83,3.29,17.09.66,3.94,5.92,7.23,3.29,11.18l-14.46,4.6c-2.63,0-1.31-3.29-2.63-4.6-1.31-8.55-3.29-14.46-5.92-22.35-.66-4.6,3.94-7.89,7.23-10.52,3.29-1.31,5.92,2.63,9.2,4.6M1323.99,407.06c5.26,4.6,12.49,7.89,16.44,13.81.66,2.63-1.31,5.26-2.63,7.23-1.97,1.97-4.6,3.29-7.89,3.29s-5.92-1.97-7.89-4.6c-3.29-5.26-7.89-9.86-9.2-15.12,1.97-3.29,6.57-8.55,11.18-4.6M1007.1,401.8c-.66,6.57-2.63,12.49-5.26,18.41-1.97,3.94-7.89,2.63-11.83,1.97-3.94-1.31-10.52-1.97-11.18-7.89-.66-5.26,1.97-10.52,4.6-14.46,5.92-.66,13.15.66,19.07-.66,2.63,0,4.6.66,4.6,2.63"/>
</svg>